<svg width="460" height="889" viewBox="0 0 460 889" fill="none" xmlns="http://www.w3.org/2000/svg">
<path d="M13.2315 28.5333C-148.482 27.8346 -186.941 268.243 -38.1469 327.736C147.846 402.102 303.096 142.185 473.266 145.357C646.34 148.584 606.896 327.353 612.429 399.807C618.7 481.932 738.829 462.799 758.097 606.179C780.149 770.279 932.037 671.622 951.366 816.661" stroke="#36A9E1" stroke-opacity="0.4" stroke-linecap="round" stroke-dasharray="11 11"/>
<path d="M498.194 62.099C658.457 83.7262 690.765 275.66 535.184 314.047C340.708 362.032 97.5971 172.979 -3.54083 171.007C-127.93 168.583 -130.763 276.183 -146.51 347.121C-174.272 472.179 -257.671 401.883 -302.943 539.285C-332.992 630.484 -300.969 779.1 -454 816.478" stroke="#36A9E1" stroke-opacity="0.4" stroke-linecap="round" stroke-dasharray="11 11"/>
<path d="M246.735 236.794L212.676 217.185C211.773 216.669 211.128 216.54 210.483 216.927L210.225 217.056L206.613 219.378L207 221.571L208.935 225.441V269.95C208.935 272.659 210.612 275.755 212.547 276.787L243.123 294.462L245.574 298.848L248.928 296.655L249.186 296.526C249.831 296.01 250.218 295.107 250.218 293.688V243.761C250.347 241.052 248.799 237.955 246.735 236.794Z" fill="#36A9E1"/>
<path d="M246.864 238.471L212.805 218.861C211.902 218.345 211.257 218.216 210.612 218.603L210.354 218.732L206.742 221.055L207.129 223.248L209.064 227.118V271.627C209.064 274.336 210.741 277.432 212.676 278.464L243.252 296.139L245.961 297.171L248.154 297.558L249.057 296.268C249.703 295.752 250.476 296.784 250.476 295.365V245.309C250.347 242.728 248.799 239.632 246.864 238.471Z" fill="white"/>
<path d="M245.316 299.622L242.736 294.72L212.418 277.174C210.225 275.884 208.548 272.659 208.548 269.692V225.57L206.613 221.571L206.097 218.99L210.354 216.281C211.257 215.765 212.031 216.023 213.063 216.539L247.122 236.149C249.315 237.439 250.992 240.664 250.992 243.631V293.558C250.992 295.107 250.476 296.268 249.702 296.913L245.316 299.622ZM207.774 221.184L209.709 225.183V269.821C209.709 272.272 211.257 275.11 213.063 276.142L243.768 293.817L245.961 297.816L249.057 295.881C249.573 295.494 249.831 294.72 249.831 293.558V243.76C249.831 241.309 248.283 238.471 246.477 237.439L212.418 217.7C211.515 217.184 211.257 217.184 210.87 217.442L210.483 217.571L207.387 219.506L207.774 221.184Z" fill="#16110D"/>
<path d="M242.994 298.719L208.935 279.109C207 277.948 205.323 274.852 205.323 272.272V222.216C205.323 219.506 207 218.345 208.935 219.506L242.994 239.116C244.929 240.277 246.606 243.373 246.606 245.953V295.881C246.606 298.719 245.058 299.88 242.994 298.719Z" fill="#36A9E1"/>
<path d="M244.413 299.88C243.897 299.88 243.252 299.751 242.607 299.364L208.677 279.625C206.484 278.335 204.807 275.11 204.807 272.143V222.216C204.807 220.539 205.323 219.377 206.355 218.732C207.258 218.216 208.29 218.345 209.322 218.861L243.381 238.471C245.574 239.761 247.251 242.986 247.251 245.954V295.881C247.251 297.558 246.735 298.719 245.703 299.364C245.316 299.751 244.929 299.88 244.413 299.88ZM207.516 219.765C207.258 219.765 207.129 219.765 206.871 219.894C206.226 220.281 205.968 221.055 205.968 222.216V272.143C205.968 274.594 207.516 277.432 209.322 278.464L243.381 298.074C243.897 298.332 244.542 298.59 245.058 298.203C245.703 297.816 245.961 297.042 245.961 295.881V246.083C245.961 243.631 244.413 240.793 242.607 239.761L208.548 220.152C208.29 219.894 207.903 219.765 207.516 219.765Z" fill="#16110D"/>
<path d="M242.993 297.042L211.386 278.852C210.225 278.206 209.322 276.4 209.322 274.981V230.215C209.322 228.666 210.225 228.021 211.386 228.666L242.993 246.857C244.154 247.502 245.058 249.308 245.058 250.727V295.365C245.058 296.913 244.154 297.687 242.993 297.042Z" fill="white"/>
<path d="M242.607 295.365C242.22 295.365 241.962 295.236 241.575 295.107L209.967 276.916C208.677 276.142 207.645 274.336 207.645 272.659V227.892C207.645 226.989 208.032 226.215 208.548 225.828C209.064 225.57 209.709 225.57 210.354 225.957L241.962 244.148C243.252 244.922 244.284 246.728 244.284 248.405V293.043C244.284 293.946 243.897 294.72 243.381 295.107C243.123 295.365 242.865 295.365 242.607 295.365ZM241.962 294.333C242.22 294.462 242.607 294.591 242.865 294.462C243.123 294.333 243.381 293.817 243.381 293.172V248.534C243.381 247.244 242.607 245.567 241.575 245.051L209.967 226.731C209.709 226.602 209.322 226.473 209.064 226.602C208.806 226.731 208.548 227.247 208.548 227.892V272.53C208.548 273.82 209.322 275.497 210.354 276.013L241.962 294.333Z" fill="#16110D"/>
<path d="M215.643 249.308L212.16 242.471C211.644 241.567 211.773 240.664 212.289 240.406C212.805 240.148 213.708 240.793 214.224 241.696L216.03 245.309L220.03 241.954C220.546 241.567 221.32 241.954 221.965 242.858C222.481 243.761 222.61 244.793 222.223 245.18L216.675 249.824C216.288 250.082 215.901 249.824 215.643 249.308Z" fill="#36A9E1"/>
<path d="M215.902 249.05H215.773C215.386 248.921 214.999 248.663 214.741 248.147L211.258 241.309C210.871 240.535 210.742 239.761 211 239.245C211.129 238.858 211.387 238.729 211.645 238.6C212.419 238.342 213.58 238.987 214.096 240.148L215.644 243.115L219.127 240.148C219.385 239.89 219.772 239.89 220.03 239.89C220.676 240.019 221.191 240.406 221.707 241.051C222.481 242.212 222.482 243.373 221.836 244.018L216.289 248.663C216.289 248.921 216.031 249.05 215.902 249.05ZM212.161 239.503C212.032 239.503 212.032 239.503 211.903 239.632C211.774 239.89 211.774 240.277 212.161 240.922L215.644 247.76C215.773 247.889 215.902 248.018 215.902 248.018L221.449 243.373C221.707 243.244 221.707 242.47 221.191 241.696C220.804 241.18 220.417 240.922 220.159 240.922C220.03 240.922 220.03 240.922 219.901 240.922L215.515 244.664L213.451 240.535C213.064 239.89 212.419 239.503 212.161 239.503Z" fill="#16110D"/>
<path d="M216.031 263.241L212.547 256.403C212.031 255.5 212.16 254.597 212.676 254.339C213.192 254.081 214.095 254.726 214.611 255.629L216.418 259.242L220.417 255.887C220.933 255.5 221.707 255.887 222.352 256.79C222.868 257.693 222.997 258.726 222.61 259.113L217.063 263.757C216.805 263.886 216.289 263.628 216.031 263.241Z" fill="#36A9E1"/>
<path d="M216.417 262.854H216.288C215.901 262.725 215.514 262.467 215.256 261.951L211.773 255.113C211.386 254.339 211.257 253.565 211.515 253.049C211.644 252.662 211.902 252.533 212.16 252.404C212.934 252.146 214.095 252.791 214.611 253.952L216.159 256.919L219.643 253.952C219.901 253.694 220.288 253.694 220.546 253.694C221.191 253.823 221.707 254.21 222.223 254.855C222.997 256.016 222.997 257.177 222.352 257.822L216.804 262.467C216.675 262.725 216.546 262.854 216.417 262.854ZM216.03 261.564C216.159 261.693 216.288 261.822 216.288 261.822L221.836 257.177C222.094 257.048 222.094 256.274 221.578 255.5C221.191 254.984 220.804 254.726 220.546 254.726C220.417 254.726 220.417 254.726 220.288 254.726L215.901 258.468L213.837 254.339C213.45 253.565 212.805 253.178 212.547 253.307C212.547 253.307 212.418 253.307 212.418 253.436C212.289 253.694 212.289 254.081 212.676 254.726L216.03 261.564Z" fill="#16110D"/>
<path d="M215.643 274.723L212.16 268.014C211.644 267.111 211.773 266.208 212.289 265.95C212.805 265.692 213.708 266.337 214.224 267.24L216.03 270.852L220.03 267.498C220.546 267.111 221.32 267.498 221.965 268.401C222.481 269.304 222.61 270.336 222.223 270.723L216.675 275.368C216.288 275.497 215.901 275.239 215.643 274.723Z" fill="#36A9E1"/>
<path d="M215.902 274.336H215.773C215.386 274.207 214.999 273.949 214.741 273.433L211.258 266.595C210.871 265.821 210.742 265.047 211 264.531C211.129 264.144 211.387 264.015 211.645 263.886C212.419 263.628 213.58 264.273 214.096 265.434L215.644 268.401L219.127 265.434C219.385 265.176 219.772 265.176 220.03 265.176C220.676 265.305 221.191 265.692 221.707 266.337C222.481 267.498 222.482 268.659 221.836 269.304L216.289 273.949C216.289 274.336 216.031 274.336 215.902 274.336ZM212.161 264.918C212.032 264.918 212.032 264.918 211.903 265.047C211.774 265.305 211.774 265.692 212.161 266.337L215.644 273.175C215.773 273.304 215.902 273.433 215.902 273.433L221.449 268.788C221.707 268.659 221.707 267.885 221.191 267.111C220.804 266.595 220.417 266.337 220.159 266.337C220.03 266.337 220.03 266.337 219.901 266.337L215.515 270.078L213.451 265.95C213.064 265.305 212.419 264.918 212.161 264.918Z" fill="#16110D"/>
<path d="M239.897 260.661L226.222 252.791C225.577 252.404 225.061 251.501 225.061 250.727C225.061 249.953 225.577 249.566 226.222 249.953L239.897 257.822C240.542 258.209 241.058 259.112 241.058 259.887C241.058 260.661 240.542 260.919 239.897 260.661Z" fill="#36A9E1"/>
<path d="M239.898 259.758C239.639 259.758 239.51 259.629 239.252 259.5L225.577 251.63C224.803 251.243 224.287 250.082 224.287 249.179C224.287 248.534 224.545 248.147 224.932 247.889C225.319 247.631 225.706 247.76 226.093 247.889L239.768 255.758C240.542 256.146 241.058 257.307 241.058 258.21C241.058 258.855 240.8 259.242 240.413 259.5C240.284 259.758 240.027 259.758 239.898 259.758ZM239.64 258.726C239.769 258.726 239.898 258.855 239.898 258.726C239.898 258.726 240.027 258.597 240.027 258.21C240.027 257.565 239.639 256.791 239.123 256.533L225.448 248.663C225.319 248.663 225.19 248.534 225.19 248.663C225.19 248.663 225.061 248.792 225.061 249.179C225.061 249.824 225.448 250.598 225.964 250.856L239.64 258.726Z" fill="#16110D"/>
<path d="M239.897 273.304L226.222 265.435C225.577 265.047 225.061 264.144 225.061 263.37C225.061 262.596 225.577 262.209 226.222 262.596L239.897 270.466C240.542 270.853 241.058 271.756 241.058 272.53C241.058 273.304 240.542 273.691 239.897 273.304Z" fill="#36A9E1"/>
<path d="M239.898 272.401C239.639 272.401 239.51 272.401 239.252 272.143L225.577 264.273C224.803 263.886 224.287 262.725 224.287 261.822C224.287 261.177 224.545 260.79 224.932 260.532C225.319 260.274 225.706 260.403 226.093 260.532L239.768 268.402C240.542 268.789 241.058 269.95 241.058 270.853C241.058 271.498 240.8 271.885 240.413 272.143C240.284 272.401 240.027 272.401 239.898 272.401ZM225.319 261.435C225.19 261.435 225.19 261.564 225.19 261.951C225.19 262.596 225.577 263.37 226.093 263.628L239.768 271.498C239.897 271.498 240.027 271.627 240.027 271.498C240.027 271.498 240.155 271.369 240.155 270.982C240.155 270.337 239.768 269.563 239.252 269.305L225.577 261.435C225.448 261.435 225.448 261.435 225.319 261.435Z" fill="#16110D"/>
<path d="M239.898 285.947L226.222 278.077C225.577 277.69 225.062 276.787 225.062 276.013C225.062 275.239 225.577 274.852 226.222 275.239L239.898 283.109C240.543 283.496 241.059 284.399 241.059 285.173C240.93 285.947 240.414 286.334 239.898 285.947Z" fill="#36A9E1"/>
<path d="M239.768 285.173C239.51 285.173 239.381 285.044 239.123 284.915L225.448 277.045C224.674 276.658 224.158 275.497 224.158 274.594C224.158 273.949 224.416 273.562 224.803 273.304C225.19 273.046 225.577 273.175 225.964 273.304L239.639 281.173C240.414 281.56 240.93 282.721 240.93 283.624C240.93 284.27 240.672 284.657 240.285 284.915C240.156 285.044 240.026 285.173 239.768 285.173ZM239.639 284.141C239.768 284.141 239.897 284.27 239.897 284.141C239.897 284.141 240.027 284.012 240.027 283.624C240.027 282.979 239.639 282.205 239.123 281.947L225.448 274.078C225.319 274.078 225.19 273.949 225.19 274.078C225.19 274.078 225.061 274.207 225.061 274.594C225.061 275.239 225.448 276.013 225.964 276.271L239.639 284.141Z" fill="#16110D"/>
<path d="M241.832 236.278C242.219 235.891 242.477 235.375 242.477 234.601C242.477 232.923 241.445 230.988 240.155 230.214L218.094 217.442C217.578 217.184 216.675 217.313 216.675 217.313C216.675 217.313 216.546 217.442 216.417 217.442L213.837 219.248C213.708 219.377 213.708 219.635 213.837 219.764L216.546 221.699C216.933 222.474 217.578 223.119 218.223 223.506L222.997 226.215L227.641 229.569L238.22 238.213C238.478 238.342 238.736 238.471 238.994 238.213C239.768 237.826 241.703 236.407 241.832 236.278Z" fill="#36A9E1"/>
<path d="M242.477 236.407C242.477 234.73 241.445 232.795 240.155 232.021L218.094 219.249C217.578 218.991 216.675 219.12 216.675 219.12C216.675 219.12 216.546 219.249 216.417 219.249L213.837 221.055C213.708 221.184 213.708 221.442 213.837 221.571L216.546 223.506C216.933 224.28 217.578 224.925 218.223 225.312L222.997 228.021L238.478 238.729L242.477 236.407Z" fill="white"/>
<path d="M238.478 239.116C238.22 239.116 237.962 238.987 237.704 238.858L227.126 230.214L222.481 226.86L217.837 224.151C217.192 223.764 216.547 223.119 216.031 222.216L213.45 220.41C213.192 220.281 213.063 219.894 213.063 219.635C213.063 219.377 213.192 218.99 213.45 218.861L216.031 217.055L216.288 216.797L216.546 216.668C216.675 216.668 217.45 216.281 218.353 216.926L240.413 229.698C241.833 230.601 242.994 232.666 242.994 234.601C242.994 235.504 242.736 236.278 242.22 236.794C242.091 236.923 242.091 236.923 239.64 238.6L239.123 238.987C238.994 239.116 238.736 239.116 238.478 239.116ZM214.611 219.635L217.063 221.313L217.192 221.442C217.579 222.087 218.095 222.732 218.611 222.99L223.384 225.699L228.157 229.053L238.737 237.697L239.252 237.31C240.156 236.665 241.574 235.633 241.704 235.633C241.962 235.375 242.091 234.988 242.091 234.472C242.091 233.053 241.188 231.246 240.155 230.601L218.095 217.829C217.837 217.7 217.45 217.7 217.192 217.7C217.192 217.7 217.192 217.7 217.063 217.7L214.611 219.635Z" fill="#16110D"/>
<path d="M229.706 238.987L222.352 234.73C220.417 233.569 218.869 230.731 218.869 228.151L233.189 236.407C233.189 238.858 231.641 240.019 229.706 238.987Z" fill="#36A9E1"/>
<path d="M232.158 241.826L224.804 237.568C222.869 236.407 221.321 233.569 221.321 230.989L235.641 239.245C235.641 241.697 234.093 242.987 232.158 241.826Z" fill="white"/>
<path d="M230.996 240.019C230.48 240.019 229.835 239.89 229.319 239.503L221.965 235.246C219.901 234.085 218.224 230.86 218.224 228.15V227.118L233.834 236.149V236.536C233.834 238.084 233.318 239.374 232.286 239.89C231.899 239.89 231.512 240.019 230.996 240.019ZM219.514 229.182C219.901 231.247 221.062 233.311 222.481 234.085L229.835 238.342C230.222 238.6 230.867 238.858 231.512 238.471C232.028 238.213 232.286 237.439 232.415 236.536L219.514 229.182Z" fill="#16110D"/>
<path d="M236.93 238.6L214.869 225.828C213.579 225.054 212.547 223.119 212.547 221.442C212.547 219.764 213.579 218.99 214.869 219.764L236.93 232.537C238.22 233.311 239.252 235.246 239.252 236.923C239.252 238.471 238.22 239.245 236.93 238.6Z" fill="#36A9E1"/>
<path d="M237.963 239.503C237.575 239.503 237.189 239.374 236.802 239.116L214.741 226.344C213.321 225.441 212.16 223.377 212.16 221.442C212.16 220.281 212.547 219.506 213.321 218.99C213.966 218.603 214.741 218.732 215.386 219.119L237.447 231.891C238.866 232.795 240.027 234.859 240.027 236.794C240.027 237.955 239.64 238.729 238.866 239.245C238.478 239.374 238.221 239.503 237.963 239.503ZM214.096 220.151C213.967 220.151 213.967 220.151 213.838 220.281C213.58 220.41 213.321 220.926 213.321 221.571C213.321 222.99 214.224 224.796 215.257 225.441L237.317 238.213C237.575 238.342 237.833 238.471 238.22 238.342C238.478 238.213 238.737 237.697 238.737 237.052C238.737 235.633 237.834 233.827 236.802 233.182L214.741 220.41C214.483 220.281 214.225 220.151 214.096 220.151Z" fill="#16110D"/>
<path d="M237.962 233.44L241.317 231.375L242.478 234.343L241.833 236.278L239.123 238.213V236.02L237.962 233.44Z" fill="#16110D"/>
<path d="M246.606 244.534L250.218 242.212L250.347 294.075L249.573 296.268L246.219 298.332L246.477 245.825L246.606 244.534Z" fill="#16110D"/>
<path d="M212.16 287.237C212.547 287.495 212.547 287.753 212.16 288.011C211.773 288.269 211.257 288.269 210.87 288.011C210.483 287.753 210.483 287.495 210.87 287.237C211.257 286.979 211.773 286.979 212.16 287.237Z" fill="#16110D"/>
<path d="M208.29 286.205C208.788 286.205 209.193 285.974 209.193 285.689C209.193 285.404 208.788 285.173 208.29 285.173C207.791 285.173 207.387 285.404 207.387 285.689C207.387 285.974 207.791 286.205 208.29 286.205Z" fill="#16110D"/>
<path d="M205.58 283.367C205.967 283.625 205.967 283.883 205.58 284.141C205.193 284.399 204.677 284.399 204.29 284.141C203.903 283.883 203.903 283.625 204.29 283.367C204.677 283.238 205.322 283.238 205.58 283.367Z" fill="#16110D"/>
<path d="M241.703 303.879C242.09 304.137 242.09 304.395 241.703 304.653C241.316 304.912 240.8 304.912 240.413 304.653C240.026 304.395 240.026 304.137 240.413 303.879C240.8 303.621 241.316 303.621 241.703 303.879Z" fill="#16110D"/>
<path d="M237.833 302.847C238.332 302.847 238.737 302.616 238.737 302.331C238.737 302.046 238.332 301.815 237.833 301.815C237.335 301.815 236.93 302.046 236.93 302.331C236.93 302.616 237.335 302.847 237.833 302.847Z" fill="#16110D"/>
<path d="M235.124 300.138C235.511 300.396 235.511 300.654 235.124 300.912C234.737 301.17 234.221 301.17 233.834 300.912C233.447 300.654 233.447 300.396 233.834 300.138C234.221 299.88 234.866 299.88 235.124 300.138Z" fill="#16110D"/>
<path d="M231.254 299.106C231.753 299.106 232.157 298.875 232.157 298.59C232.157 298.305 231.753 298.074 231.254 298.074C230.755 298.074 230.351 298.305 230.351 298.59C230.351 298.875 230.755 299.106 231.254 299.106Z" fill="#16110D"/>
<path d="M228.674 296.268C229.061 296.526 229.061 296.784 228.674 297.042C228.287 297.3 227.771 297.3 227.384 297.042C226.997 296.784 226.997 296.526 227.384 296.268C227.771 296.139 228.287 296.139 228.674 296.268Z" fill="#16110D"/>
<path d="M225.319 294.461C225.706 294.719 225.706 294.978 225.319 295.236C224.932 295.494 224.416 295.494 224.029 295.236C223.642 294.978 223.642 294.719 224.029 294.461C224.416 294.203 225.061 294.203 225.319 294.461Z" fill="#16110D"/>
<path d="M221.449 293.429C221.948 293.429 222.352 293.198 222.352 292.913C222.352 292.628 221.948 292.397 221.449 292.397C220.95 292.397 220.546 292.628 220.546 292.913C220.546 293.198 220.95 293.429 221.449 293.429Z" fill="#16110D"/>
<path d="M218.868 290.591C219.255 290.849 219.255 291.107 218.868 291.365C218.481 291.623 217.965 291.623 217.578 291.365C217.191 291.107 217.191 290.849 217.578 290.591C217.965 290.462 218.481 290.462 218.868 290.591Z" fill="#16110D"/>
<path d="M214.998 289.688C215.497 289.688 215.901 289.457 215.901 289.172C215.901 288.887 215.497 288.656 214.998 288.656C214.499 288.656 214.095 288.887 214.095 289.172C214.095 289.457 214.499 289.688 214.998 289.688Z" fill="#16110D"/>
<path d="M215.514 285.302C215.901 285.56 215.901 285.818 215.514 286.076C215.127 286.334 214.611 286.334 214.224 286.076C213.837 285.818 213.837 285.56 214.224 285.302C214.611 285.173 215.127 285.173 215.514 285.302Z" fill="#16110D"/>
<path d="M210.999 283.496C211.386 283.238 211.902 283.238 212.289 283.496C212.676 283.754 212.676 284.012 212.289 284.27C211.902 284.528 211.386 284.528 210.999 284.27C210.612 284.012 210.612 283.625 210.999 283.496Z" fill="#16110D"/>
<path d="M207.645 281.561C208.032 281.303 208.548 281.303 208.935 281.561C209.322 281.819 209.322 282.077 208.935 282.335C208.548 282.593 208.032 282.593 207.645 282.335C207.387 282.077 207.387 281.69 207.645 281.561Z" fill="#16110D"/>
<path d="M204.419 279.625C204.806 279.367 205.322 279.367 205.71 279.625C206.097 279.883 206.097 280.141 205.71 280.399C205.322 280.657 204.806 280.657 204.419 280.399C204.032 280.141 204.032 279.883 204.419 279.625Z" fill="#16110D"/>
<path d="M247.638 304.782C248.137 304.782 248.541 304.551 248.541 304.266C248.541 303.981 248.137 303.75 247.638 303.75C247.139 303.75 246.735 303.981 246.735 304.266C246.735 304.551 247.139 304.782 247.638 304.782Z" fill="#16110D"/>
<path d="M251.508 301.944C251.895 302.202 251.895 302.46 251.508 302.718C251.121 302.976 250.605 302.976 250.218 302.718C249.831 302.46 249.831 302.202 250.218 301.944C250.605 301.815 251.25 301.815 251.508 301.944Z" fill="#16110D"/>
<path d="M254.863 300.138C255.25 300.396 255.25 300.654 254.863 300.912C254.476 301.17 253.96 301.17 253.573 300.912C253.185 300.654 253.185 300.396 253.573 300.138C253.831 299.88 254.476 299.88 254.863 300.138Z" fill="#16110D"/>
<path d="M243.768 301.944C244.155 301.686 244.671 301.686 245.058 301.944C245.445 302.202 245.445 302.46 245.058 302.718C244.671 302.976 244.155 302.976 243.768 302.718C243.381 302.589 243.381 302.202 243.768 301.944Z" fill="#16110D"/>
<path d="M248.283 300.138C248.67 300.396 248.67 300.654 248.283 300.912C247.896 301.17 247.38 301.17 246.993 300.912C246.606 300.654 246.606 300.396 246.993 300.138C247.38 299.88 247.896 299.88 248.283 300.138Z" fill="#16110D"/>
<path d="M250.863 299.106C251.362 299.106 251.766 298.875 251.766 298.59C251.766 298.305 251.362 298.074 250.863 298.074C250.364 298.074 249.96 298.305 249.96 298.59C249.96 298.875 250.364 299.106 250.863 299.106Z" fill="#16110D"/>
<path d="M254.218 297.171C254.717 297.171 255.121 296.94 255.121 296.655C255.121 296.37 254.717 296.139 254.218 296.139C253.719 296.139 253.314 296.37 253.314 296.655C253.314 296.94 253.719 297.171 254.218 297.171Z" fill="#16110D"/>
<path d="M240.542 300.138C240.93 299.88 241.446 299.88 241.833 300.138C242.22 300.396 242.22 300.654 241.833 300.912C241.446 301.17 240.93 301.17 240.542 300.912C240.155 300.654 240.155 300.267 240.542 300.138Z" fill="#16110D"/>
<path d="M251.508 294.461C251.895 294.719 251.895 294.978 251.508 295.236C251.121 295.494 250.605 295.494 250.218 295.236C249.831 294.978 249.831 294.719 250.218 294.461C250.605 294.203 251.25 294.203 251.508 294.461Z" fill="#16110D"/>
<path d="M237.188 298.203C237.575 297.945 238.091 297.945 238.478 298.203C238.865 298.461 238.865 298.719 238.478 298.977C238.091 299.235 237.575 299.235 237.188 298.977C236.93 298.719 236.93 298.461 237.188 298.203Z" fill="#16110D"/>
<path d="M233.963 296.397C234.35 296.139 234.866 296.139 235.253 296.397C235.64 296.655 235.64 296.913 235.253 297.171C234.866 297.429 234.35 297.429 233.963 297.171C233.576 296.913 233.576 296.526 233.963 296.397Z" fill="#16110D"/>
<path d="M230.737 294.461C231.124 294.203 231.64 294.203 232.027 294.461C232.414 294.719 232.414 294.978 232.027 295.236C231.64 295.494 231.124 295.494 230.737 295.236C230.35 294.978 230.35 294.719 230.737 294.461Z" fill="#16110D"/>
<path d="M227.384 292.526C227.771 292.268 228.287 292.268 228.674 292.526C229.061 292.784 229.061 293.042 228.674 293.3C228.287 293.558 227.771 293.558 227.384 293.3C226.997 293.042 226.997 292.784 227.384 292.526Z" fill="#16110D"/>
<path d="M224.159 290.72C224.546 290.462 225.062 290.462 225.449 290.72C225.836 290.978 225.836 291.236 225.449 291.494C225.062 291.752 224.546 291.752 224.159 291.494C223.772 291.236 223.772 290.849 224.159 290.72Z" fill="#16110D"/>
<path d="M220.804 288.785C221.191 288.527 221.707 288.527 222.094 288.785C222.481 289.043 222.481 289.301 222.094 289.559C221.707 289.817 221.191 289.817 220.804 289.559C220.546 289.301 220.546 289.043 220.804 288.785Z" fill="#16110D"/>
<path d="M217.578 286.85C217.965 286.592 218.481 286.592 218.868 286.85C219.255 287.108 219.255 287.366 218.868 287.624C218.481 287.882 217.965 287.882 217.578 287.624C217.191 287.366 217.191 287.108 217.578 286.85Z" fill="#16110D"/>
</svg>
