<svg width="431" height="278" viewBox="0 0 431 278" fill="none" xmlns="http://www.w3.org/2000/svg">
<path d="M3.34131 174.429C4.47118 176.312 6.3543 178.007 8.99068 179.513L170.939 273.104C179.79 278.189 192.972 278.754 200.504 274.234L271.498 233.182C274.7 231.299 276.394 228.851 276.583 226.403C277.336 222.072 276.206 217.175 276.206 217.175L271.498 217.364C270.933 216.799 270.18 216.422 269.427 216.046L107.478 122.454C98.6275 117.37 85.4455 116.805 77.913 121.325L6.91929 162.377L1.45818 162.188C1.45818 162.188 -0.613163 168.026 2.96477 174.052C3.15308 174.24 3.34131 174.429 3.34131 174.429Z" fill="#161616"/>
<path d="M187.888 278C181.862 278 175.647 276.494 170.751 273.669L8.80257 180.078C6.1662 178.571 4.09462 176.876 2.77644 174.805L2.58817 174.617C2.58817 174.428 2.3999 174.428 2.3999 174.24C-1.36634 167.837 0.705047 161.811 0.705047 161.623L0.893314 161.058L6.73118 161.435L77.5366 120.571C85.2574 116.051 99.0041 116.616 108.043 121.701L269.992 215.292C270.557 215.669 271.122 216.045 271.875 216.61L276.959 216.234L277.148 216.798C277.148 216.987 278.466 221.883 277.524 226.214C277.148 229.227 275.264 231.675 272.063 233.558L201.069 274.61C197.68 277.058 192.972 278 187.888 278ZM4.09476 174.052C5.22464 175.935 7.10781 177.441 9.55587 178.759L171.505 272.351C179.979 277.247 192.972 277.812 200.316 273.481L271.31 232.429C274.135 230.734 275.83 228.662 276.018 226.214V225.838C276.583 222.825 276.018 219.435 275.641 218.117L272.252 218.305L272.063 218.87L271.122 218.117C270.368 217.552 269.803 217.175 269.05 216.798L107.102 123.207C98.6275 118.311 85.6341 117.746 78.2899 122.077L7.10771 163.129L2.21164 162.941C1.83501 164.448 1.08163 168.967 3.718 173.487C3.90631 173.675 3.90645 173.863 4.09476 174.052L3.34147 174.428L4.09476 174.052Z" fill="#161616"/>
<path d="M6.73048 155.409L77.7242 114.357C85.2567 110.026 98.6267 110.591 107.289 115.487L269.238 209.078C278.088 214.162 279.03 221.883 271.309 226.214L200.315 267.266C192.783 271.598 179.413 271.033 170.751 266.137L8.80187 172.545C0.139498 167.461 -0.802018 159.74 6.73048 155.409Z" fill="white"/>
<path d="M187.7 271.033C181.674 271.033 175.459 269.526 170.563 266.702L8.61455 173.11C3.71842 170.286 0.893555 166.519 0.893555 162.753C0.893555 159.552 2.77672 156.727 6.35466 154.656L77.3486 113.604C85.0694 109.084 98.8161 109.649 107.855 114.734L269.804 208.325C274.7 211.149 277.525 214.916 277.525 218.682C277.525 221.883 275.641 224.708 272.063 226.779L201.07 267.831C197.303 269.903 192.596 271.033 187.7 271.033ZM90.5304 112.285C85.8226 112.285 81.4913 113.227 78.1016 115.11L7.10796 156.162C4.09496 157.857 2.40015 160.305 2.40015 162.941C2.40015 166.143 4.84816 169.344 9.17935 171.98L171.128 265.572C179.602 270.468 192.596 271.033 199.94 266.702L270.934 225.649C273.947 223.955 275.641 221.507 275.641 218.87C275.641 215.669 273.193 212.468 268.862 209.831L106.914 116.24C102.206 113.604 96.1798 112.285 90.5304 112.285Z" fill="#161616"/>
<path d="M78.2906 119.818L73.0177 122.831C71.3229 123.772 71.3229 125.467 73.0177 126.409C74.7125 127.35 74.7125 129.045 73.0177 129.987L33.4721 152.772C31.7773 153.714 28.9525 153.714 27.2577 152.772C25.5629 151.831 22.7384 151.831 21.0436 152.772L9.93308 159.175C6.16684 161.435 6.16684 165.013 9.93308 167.272L173.953 261.617C180.921 265.572 192.408 265.572 199.564 261.617L267.733 222.071C271.499 219.812 271.499 216.234 267.733 213.974L103.713 119.629C96.9335 115.863 85.4464 115.863 78.2906 119.818Z" fill="#36A9E1"/>
<path d="M186.946 265.572C182.238 265.572 177.53 264.442 173.764 262.37L9.74393 168.026C7.67249 166.896 6.54248 165.201 6.54248 163.318C6.54248 161.435 7.67249 159.74 9.74393 158.61L20.8544 152.208C22.7375 151.078 25.9387 151.078 27.8219 152.208C29.3284 152.961 31.7765 152.961 33.0947 152.208L72.6403 129.422C73.2052 129.045 73.5819 128.669 73.5819 128.292C73.5819 127.915 73.2052 127.539 72.6403 127.162C71.5104 126.597 70.9454 125.656 70.9454 124.714C70.9454 123.772 71.5104 122.831 72.6403 122.266L77.9129 119.253C85.2571 115.11 96.9325 115.11 104.277 119.253L268.297 213.597C270.368 214.727 271.498 216.422 271.498 218.305C271.498 220.188 270.368 221.883 268.297 223.013L200.128 262.559C196.55 264.442 191.654 265.572 186.946 265.572ZM24.4322 153.149C23.4906 153.149 22.5492 153.337 21.796 153.714L10.6855 160.117C9.17899 161.058 8.23734 162.188 8.23734 163.506C8.23734 164.636 9.17899 165.954 10.6855 166.708L174.706 261.052C181.485 265.007 192.595 265.007 199.374 261.052L267.544 221.507C269.05 220.565 269.992 219.435 269.992 218.117C269.992 216.987 269.05 215.669 267.544 214.916L103.523 120.571C96.7441 116.617 85.6337 116.617 78.8545 120.571L73.5819 123.584C73.0169 123.961 72.6403 124.337 72.6403 124.714C72.6403 125.091 73.0169 125.467 73.5819 125.844C74.7117 126.409 75.2765 127.35 75.2765 128.292C75.2765 129.233 74.7117 130.175 73.5819 130.74L34.0363 153.526C32.1531 154.656 28.9517 154.656 27.0686 153.526C26.3153 153.337 25.3737 153.149 24.4322 153.149Z" fill="#161616"/>
<path d="M59.6466 131.493C58.705 130.928 58.705 129.987 59.6466 129.422C60.5882 128.857 62.0947 128.857 63.2246 129.422C64.3545 129.987 64.1661 130.928 63.2246 131.493C62.0947 132.058 60.5882 132.058 59.6466 131.493Z" fill="#161616"/>
<path d="M33.6596 144.487L54.1857 132.623C54.9389 132.058 56.4453 132.246 57.3869 132.811C58.3285 133.376 58.517 134.129 57.5754 134.694L37.0493 146.558C36.2961 147.123 34.7894 146.935 33.8479 146.37C32.9063 145.805 32.9063 144.863 33.6596 144.487Z" fill="#161616"/>
<path d="M184.727 270.658L184.663 276.871L185.604 276.881L185.669 270.667L184.727 270.658Z" fill="#36A9E1"/>
<path d="M272.628 232.617L271.686 232.429C272.628 229.227 271.686 226.214 271.686 226.214L272.628 225.838C272.816 225.838 273.757 229.039 272.628 232.617Z" fill="#36A9E1"/>
<path d="M269.803 234.312L268.862 234.124C269.803 230.922 268.862 227.909 268.862 227.909L269.803 227.533C269.992 227.533 270.933 230.734 269.803 234.312Z" fill="#36A9E1"/>
<path d="M9.17964 179.89C8.61471 177.253 8.80311 173.299 8.80311 173.11H9.74467C9.74467 173.11 9.55627 177.065 10.1212 179.701L9.17964 179.89Z" fill="#36A9E1"/>
<path d="M5.97764 178.195C5.41271 175.558 5.60088 171.604 5.60088 171.416H6.54244C6.54244 171.416 6.35427 175.37 6.91921 178.006L5.97764 178.195Z" fill="#36A9E1"/>
<path d="M55.8813 205.123C55.5047 205.123 55.1281 204.935 54.7515 204.746L44.7708 199.097C43.8293 198.532 42.8877 197.214 42.8877 196.084V195.896C42.8877 195.331 43.0761 194.954 43.4527 194.578C43.8293 194.389 44.5824 194.389 45.1474 194.766L55.128 200.415C56.0696 200.98 57.0111 202.298 57.0111 203.428V203.616C57.0111 204.181 56.8227 204.558 56.4461 204.935C56.4461 205.123 56.0696 205.123 55.8813 205.123ZM44.3943 195.519C44.3943 195.519 44.206 195.519 44.3943 195.519C44.0177 195.707 44.0175 195.896 44.0175 195.896V196.084C44.0175 196.837 44.5826 197.779 45.3358 198.156L55.3163 203.805C55.6929 203.993 55.8812 203.993 56.0696 203.993C56.2579 203.993 56.2578 203.616 56.2578 203.616V203.428C56.2578 202.675 55.693 201.733 54.9397 201.357L44.9591 195.707C44.7708 195.519 44.5826 195.519 44.3943 195.519Z" fill="#36A9E1"/>
<path d="M71.8881 214.35C71.5115 214.35 71.1349 214.162 70.7583 213.974L60.7777 208.324C59.8361 207.759 58.8945 206.441 58.8945 205.311V205.123C58.8945 204.558 59.0829 204.181 59.4596 203.805C59.8362 203.617 60.5893 203.617 61.1542 203.993L71.1348 209.643C72.0764 210.207 73.018 211.526 73.018 212.656V212.844C73.018 213.409 72.8296 213.785 72.4529 214.162C72.2646 214.35 72.0764 214.35 71.8881 214.35ZM60.4011 204.746C60.2128 204.746 60.2128 204.746 60.4011 204.746C60.0245 204.935 60.0244 205.123 60.0244 205.123V205.311C60.0244 206.065 60.5894 207.006 61.3427 207.383L71.3231 213.032C71.6997 213.22 71.8881 213.22 72.0764 213.22C72.2647 213.22 72.2647 212.844 72.2647 212.844V212.656C72.2647 211.902 71.6998 210.961 70.9466 210.584L60.9659 204.935C60.5893 204.746 60.4011 204.746 60.4011 204.746Z" fill="#36A9E1"/>
<path d="M229.128 255.779C228.751 255.591 228.563 255.026 228.563 254.461V254.272C228.563 253.143 229.316 252.013 230.446 251.26L240.427 245.61C240.992 245.234 241.745 245.233 242.122 245.422C242.498 245.61 242.686 246.175 242.686 246.74V246.928C242.686 248.058 241.933 249.188 240.803 249.941L230.823 255.591C230.446 255.779 230.069 255.967 229.693 255.967C229.505 255.967 229.316 255.967 229.128 255.779ZM240.803 246.552L230.823 252.201C230.07 252.578 229.505 253.519 229.505 254.272V254.461C229.505 254.649 229.505 254.837 229.693 254.837C229.881 254.837 230.069 254.837 230.446 254.649L240.427 249C241.18 248.623 241.745 247.681 241.745 246.928V246.74C241.745 246.552 241.745 246.363 241.557 246.363H241.368C241.18 246.363 240.992 246.363 240.803 246.552Z" fill="#36A9E1"/>
<path d="M37.0495 194.201C36.6729 194.201 36.2963 194.013 35.9197 193.825L30.2703 190.623C29.3288 190.058 28.3872 188.74 28.3872 187.61V187.422C28.3872 186.857 28.5754 186.48 28.952 186.104C29.3286 185.915 30.0819 185.915 30.6469 186.292L36.2962 189.493C37.2378 190.058 38.1794 191.376 38.1794 192.506V192.695C38.1794 193.26 37.991 193.636 37.6143 194.013C37.6143 194.201 37.4262 194.201 37.0495 194.201ZM29.8936 187.234C29.8936 187.234 29.7053 187.234 29.8936 187.234C29.5169 187.422 29.517 187.61 29.517 187.61V187.799C29.517 188.552 30.0819 189.493 30.8351 189.87L36.4845 193.071C36.8611 193.26 37.0495 193.259 37.2378 193.259C37.4261 193.259 37.4261 192.883 37.4261 192.883V192.695C37.4261 191.941 36.8612 191 36.108 190.623L30.4586 187.422C30.2703 187.234 30.0819 187.234 29.8936 187.234Z" fill="#36A9E1"/>
<path d="M33.4712 190.247V190.058C33.4712 189.117 34.2245 188.929 34.9778 189.305L36.2959 190.058C37.2374 190.623 37.8025 191.753 37.8025 192.506V192.695C37.8025 193.636 37.0491 193.825 36.2959 193.448L34.9778 192.695C34.2245 192.318 33.4712 191.188 33.4712 190.247Z" fill="#36A9E1"/>
<path d="M37.049 194.201C36.6724 194.201 36.2958 194.013 35.9192 193.824L34.6009 193.071C33.6593 192.506 32.7178 191.188 32.7178 190.058V189.87C32.7178 189.305 32.9062 188.928 33.2828 188.552C33.6594 188.363 34.4127 188.363 34.9777 188.74L36.2958 189.493C37.2373 190.058 38.1789 191.376 38.1789 192.506V192.695C38.1789 193.259 37.9905 193.636 37.6138 194.013C37.6138 194.201 37.4257 194.201 37.049 194.201ZM34.0361 190.247C34.0361 191 34.6009 191.941 35.3542 192.318L36.6723 193.071C37.0489 193.26 37.2373 193.259 37.4256 193.259C37.6139 193.259 37.6138 192.883 37.6138 192.883V192.695C37.6138 191.941 37.049 191 36.2958 190.623L34.9777 189.87C34.601 189.682 34.4127 189.682 34.2244 189.682C34.0361 189.682 34.0361 190.058 34.0361 190.058V190.247Z" fill="#36A9E1"/>
<path d="M188.924 270.621L187.982 270.633L188.065 277.035L189.006 277.023L188.924 270.621Z" fill="#36A9E1"/>
<path d="M200.601 267.796L199.66 267.808L199.742 274.21L200.683 274.198L200.601 267.796Z" fill="#36A9E1"/>
<path d="M175.813 269.106L175.748 275.319L176.69 275.329L176.754 269.115L175.813 269.106Z" fill="#36A9E1"/>
<path d="M161.452 261.171L161.388 267.385L162.329 267.395L162.394 261.181L161.452 261.171Z" fill="#36A9E1"/>
<path d="M76.407 194.955C75.4654 194.955 74.3355 194.766 73.5823 194.201L68.8745 191.565C67.9329 191 67.5562 190.247 67.5562 189.493C67.5562 188.74 67.9327 188.175 68.686 187.799L135.16 149.383C136.479 148.63 138.738 148.63 140.245 149.571L144.952 152.208C145.894 152.773 146.271 153.526 146.271 154.279C146.271 155.032 145.894 155.597 145.141 155.974L78.6666 194.39C77.9134 194.766 77.1602 194.955 76.407 194.955ZM137.232 150.324C136.667 150.324 136.102 150.513 135.725 150.701L69.251 189.117C69.0627 189.305 68.8745 189.494 68.8745 189.682C68.8745 189.87 69.0626 190.247 69.6275 190.623L74.3354 193.26C75.4652 193.825 77.16 194.013 78.1016 193.448L144.576 155.032C144.764 154.844 144.952 154.656 144.952 154.467C144.952 154.279 144.764 153.902 144.199 153.526L139.492 150.889C138.738 150.513 137.985 150.324 137.232 150.324Z" fill="white"/>
<path d="M120.471 220.565C119.53 220.565 118.4 220.377 117.647 219.812L112.939 217.176C111.997 216.611 111.621 215.858 111.621 215.104C111.621 214.351 111.997 213.786 112.75 213.409L179.225 174.994C180.543 174.241 182.803 174.241 184.309 175.182L189.017 177.819C189.959 178.383 190.335 179.137 190.335 179.89C190.335 180.643 189.958 181.208 189.205 181.585L122.731 220C122.166 220.377 121.413 220.565 120.471 220.565ZM181.484 175.747C180.92 175.747 180.355 175.935 179.978 176.124L113.504 214.539C113.315 214.728 113.127 214.916 113.127 215.104C113.127 215.293 113.315 215.669 113.88 216.046L118.588 218.682C119.718 219.247 121.413 219.436 122.354 218.871L188.829 180.455C189.017 180.267 189.205 180.078 189.205 179.89C189.205 179.702 189.017 179.325 188.452 178.948L183.744 176.312C182.991 175.935 182.238 175.747 181.484 175.747Z" fill="white"/>
<path d="M134.218 228.286C133.276 228.286 132.147 228.098 131.393 227.533L116.705 219.247C115.763 218.682 115.387 217.929 115.387 217.175C115.387 216.422 115.763 215.857 116.517 215.481L182.991 177.065C184.309 176.312 186.569 176.312 188.075 177.253L202.764 185.539C203.705 186.104 204.082 186.857 204.082 187.61C204.082 188.364 203.705 188.929 202.952 189.305L136.478 227.721C135.724 228.098 134.971 228.286 134.218 228.286ZM184.874 178.006C184.309 178.006 183.744 178.195 183.367 178.383L116.893 216.799C116.705 216.987 116.517 217.175 116.517 217.364C116.517 217.552 116.705 217.929 117.27 218.305L131.958 226.591C133.088 227.156 134.783 227.344 135.725 226.779L202.199 188.364C202.387 188.175 202.575 187.987 202.575 187.799C202.575 187.61 202.387 187.234 201.822 186.857L187.134 178.571C186.569 178.195 185.627 178.006 184.874 178.006Z" fill="white"/>
<path d="M106.537 212.468C105.595 212.468 104.465 212.279 103.712 211.715L83.186 199.851C82.2444 199.286 81.8677 198.533 81.8677 197.779C81.8677 197.026 82.2445 196.461 82.9977 196.085L111.809 179.513C113.128 178.76 115.387 178.76 116.894 179.701L137.42 191.565C138.361 192.13 138.738 192.883 138.738 193.636C138.738 194.39 138.362 194.955 137.608 195.331L108.796 211.903C108.232 212.279 107.478 212.468 106.537 212.468ZM113.881 180.266C113.316 180.266 112.751 180.455 112.374 180.643L83.5625 197.214C83.3742 197.403 83.186 197.591 83.186 197.779C83.186 197.968 83.3744 198.344 83.9393 198.721L104.465 210.585C105.595 211.15 107.29 211.338 108.231 210.773L137.043 194.201C137.232 194.013 137.42 193.825 137.42 193.636C137.42 193.448 137.232 193.072 136.667 192.695L116.141 180.831C115.387 180.455 114.634 180.266 113.881 180.266Z" fill="white"/>
<path d="M144.388 190.624C143.446 190.624 142.316 190.435 141.563 189.87L121.037 178.007C120.095 177.442 119.719 176.688 119.719 175.935C119.719 175.182 120.095 174.617 120.849 174.24L149.66 157.669C150.978 156.916 153.238 156.916 154.745 157.857L175.271 169.721C176.212 170.286 176.589 171.039 176.589 171.792C176.589 172.546 176.212 173.11 175.459 173.487L146.647 190.059C145.894 190.435 145.141 190.624 144.388 190.624ZM151.543 158.61C150.978 158.61 150.414 158.799 150.037 158.987L121.225 175.559C121.037 175.747 120.849 175.935 120.849 176.123C120.849 176.312 121.037 176.688 121.602 177.065L142.128 188.929C143.258 189.494 144.952 189.682 145.894 189.117L174.706 172.545C174.894 172.357 175.082 172.169 175.082 171.981C175.082 171.792 174.894 171.416 174.329 171.039L153.803 159.175C153.05 158.799 152.297 158.61 151.543 158.61Z" fill="white"/>
<path d="M119.538 182.035L86.7666 200.975L87.4262 202.116L120.197 183.176L119.538 182.035Z" fill="white"/>
<path d="M157.503 160.132L124.728 179.069L125.388 180.211L158.163 161.274L157.503 160.132Z" fill="white"/>
<path d="M234.212 231.111C235.342 232.052 234.401 233.559 234.212 233.747C234.589 233.559 237.037 232.994 238.732 233.747C237.602 232.805 238.544 231.299 238.732 231.111C238.355 231.111 235.907 231.676 234.212 231.111Z" fill="#161616"/>
<path d="M240.803 227.344C241.933 228.286 240.992 229.792 240.803 229.981C241.18 229.792 243.628 229.227 245.323 229.981C244.193 229.039 245.134 227.533 245.323 227.344C244.946 227.344 242.498 227.909 240.803 227.344Z" fill="#161616"/>
<path d="M247.206 223.578C248.336 224.52 247.394 226.026 247.206 226.214C247.583 226.026 250.031 225.461 251.726 226.214C250.596 225.273 251.537 223.766 251.726 223.578C251.349 223.578 249.089 224.143 247.206 223.578Z" fill="#161616"/>
<path d="M253.796 219.812C254.926 220.753 253.985 222.26 253.796 222.448C254.173 222.26 256.621 221.695 258.316 222.448C257.186 221.507 258.128 220 258.316 219.812C257.939 219.812 255.491 220.377 253.796 219.812Z" fill="#161616"/>
<path d="M260.387 216.045C261.517 216.987 260.576 218.493 260.387 218.682C260.764 218.493 263.212 217.928 264.907 218.682C263.777 217.74 264.718 216.234 264.907 216.045C264.53 216.045 262.082 216.61 260.387 216.045Z" fill="#161616"/>
<path d="M234.212 223.578C235.342 224.52 234.401 226.026 234.212 226.215C234.589 226.026 237.037 225.461 238.732 226.215C237.602 225.273 238.544 223.767 238.732 223.578C238.355 223.578 235.907 224.143 234.212 223.578C234.212 223.39 234.212 223.578 234.212 223.578Z" fill="#161616"/>
<path d="M240.803 219.812C241.933 220.754 240.992 222.26 240.803 222.448C241.18 222.26 243.628 221.695 245.323 222.448C244.193 221.507 245.134 220 245.323 219.812C244.946 219.812 242.498 220.377 240.803 219.812C240.803 219.624 240.803 219.812 240.803 219.812Z" fill="#161616"/>
<path d="M247.206 216.045C248.336 216.987 247.394 218.493 247.206 218.682C247.583 218.493 250.031 217.928 251.726 218.682C250.596 217.74 251.537 216.234 251.726 216.045C251.349 216.045 248.901 216.61 247.206 216.045Z" fill="#161616"/>
<path d="M253.796 212.279C254.926 213.221 253.985 214.727 253.796 214.916C254.173 214.727 256.621 214.162 258.316 214.916C257.186 213.974 258.128 212.468 258.316 212.279C257.939 212.279 255.491 212.844 253.796 212.279Z" fill="#161616"/>
<path d="M421.176 136.049C420.566 136.456 420.566 137.066 421.176 137.473C421.787 137.88 423.007 137.88 423.618 137.473C424.228 137.066 424.228 136.456 423.618 136.049C422.804 135.642 421.787 135.642 421.176 136.049Z" fill="#16110D"/>
<path d="M414.668 132.387C414.057 132.794 414.057 133.404 414.668 133.811C415.278 134.218 416.498 134.218 417.108 133.811C417.718 133.404 417.718 132.794 417.108 132.387C416.498 131.981 415.481 131.981 414.668 132.387Z" fill="#16110D"/>
<path d="M427.481 132.387C426.871 132.794 426.871 133.404 427.481 133.811C428.092 134.218 429.312 134.218 429.922 133.811C430.532 133.404 430.532 132.794 429.922 132.387C429.312 131.981 428.092 131.981 427.481 132.387Z" fill="#16110D"/>
<path d="M421.176 128.726C420.566 129.133 420.566 129.743 421.176 130.15C421.787 130.557 423.007 130.557 423.618 130.15C424.228 129.743 424.228 129.133 423.618 128.726C422.804 128.319 421.787 128.319 421.176 128.726Z" fill="#16110D"/>
<path d="M427.481 124.862C426.871 125.269 426.871 125.879 427.481 126.286C428.092 126.693 429.312 126.693 429.922 126.286C430.532 125.879 430.532 125.269 429.922 124.862C429.312 124.455 428.092 124.455 427.481 124.862Z" fill="#16110D"/>
<path d="M363.207 161.271C362.596 161.678 362.596 162.288 363.207 162.695C363.817 163.102 365.038 163.102 365.648 162.695C366.258 162.288 366.258 161.678 365.648 161.271C365.038 160.864 363.817 160.864 363.207 161.271Z" fill="#16110D"/>
<path d="M356.9 157.61C356.29 158.016 356.29 158.626 356.9 159.033C357.511 159.44 358.731 159.44 359.341 159.033C359.951 158.626 359.951 158.016 359.341 157.61C358.528 157.203 357.511 157.203 356.9 157.61Z" fill="#16110D"/>
<path d="M337.577 146.625C336.966 147.032 336.966 147.642 337.577 148.049C338.187 148.456 339.407 148.456 340.017 148.049C340.628 147.642 340.628 147.032 340.017 146.625C339.407 146.219 338.39 146.219 337.577 146.625Z" fill="#16110D"/>
<path d="M331.272 142.761C330.662 143.168 330.662 143.779 331.272 144.185C331.882 144.592 333.103 144.592 333.713 144.185C334.323 143.779 334.323 143.168 333.713 142.761C333.103 142.558 331.882 142.558 331.272 142.761Z" fill="#16110D"/>
<path d="M324.763 139.1C324.153 139.507 324.153 140.117 324.763 140.524C325.373 140.931 326.593 140.931 327.203 140.524C327.814 140.117 327.814 139.507 327.203 139.1C326.593 138.693 325.576 138.693 324.763 139.1Z" fill="#16110D"/>
<path d="M318.458 135.438C317.847 135.845 317.847 136.455 318.458 136.862C319.068 137.269 320.289 137.269 320.899 136.862C321.509 136.455 321.509 135.845 320.899 135.438C320.289 135.032 319.068 135.032 318.458 135.438Z" fill="#16110D"/>
<path d="M350.392 153.948C349.782 154.355 349.782 154.965 350.392 155.372C351.002 155.779 352.223 155.779 352.833 155.372C353.443 154.965 353.443 154.355 352.833 153.948C352.223 153.541 351.206 153.541 350.392 153.948Z" fill="#16110D"/>
<path d="M345.307 151.914C344.296 151.914 343.476 151.459 343.476 150.897C343.476 150.335 344.296 149.88 345.307 149.88C346.318 149.88 347.137 150.335 347.137 150.897C347.137 151.459 346.318 151.914 345.307 151.914Z" fill="#16110D"/>
<path d="M376.021 161.271C375.411 161.678 375.411 162.288 376.021 162.695C376.631 163.102 377.852 163.102 378.462 162.695C379.072 162.288 379.072 161.678 378.462 161.271C377.852 160.864 376.631 160.864 376.021 161.271Z" fill="#16110D"/>
<path d="M369.715 157.61C369.105 158.016 369.105 158.626 369.715 159.033C370.325 159.44 371.545 159.44 372.156 159.033C372.766 158.626 372.766 158.016 372.156 157.61C371.342 157.203 370.325 157.203 369.715 157.61Z" fill="#16110D"/>
<path d="M363.207 153.948C362.596 154.355 362.596 154.965 363.207 155.372C363.817 155.779 365.038 155.779 365.648 155.372C366.258 154.965 366.258 154.355 365.648 153.948C365.038 153.541 363.817 153.541 363.207 153.948Z" fill="#16110D"/>
<path d="M356.9 150.288C356.29 150.694 356.29 151.304 356.9 151.711C357.511 152.118 358.731 152.118 359.341 151.711C359.951 151.304 359.951 150.694 359.341 150.288C358.528 149.881 357.511 149.881 356.9 150.288Z" fill="#16110D"/>
<path d="M337.577 139.1C336.966 139.507 336.966 140.117 337.577 140.524C338.187 140.931 339.407 140.931 340.017 140.524C340.628 140.117 340.628 139.507 340.017 139.1C339.407 138.693 338.39 138.693 337.577 139.1Z" fill="#16110D"/>
<path d="M331.272 135.438C330.662 135.845 330.662 136.455 331.272 136.862C331.882 137.269 333.103 137.269 333.713 136.862C334.323 136.455 334.323 135.845 333.713 135.438C333.103 135.032 331.882 135.032 331.272 135.438Z" fill="#16110D"/>
<path d="M324.763 131.778C324.153 132.184 324.153 132.795 324.763 133.201C325.373 133.608 326.593 133.608 327.203 133.201C327.814 132.795 327.814 132.184 327.203 131.778C326.593 131.371 325.576 131.371 324.763 131.778Z" fill="#16110D"/>
<path d="M318.458 128.116C317.847 128.523 317.847 129.133 318.458 129.54C319.068 129.947 320.289 129.947 320.899 129.54C321.509 129.133 321.509 128.523 320.899 128.116C320.289 127.709 319.068 127.709 318.458 128.116Z" fill="#16110D"/>
<path d="M350.392 146.625C349.782 147.032 349.782 147.642 350.392 148.049C351.002 148.456 352.223 148.456 352.833 148.049C353.443 147.642 353.443 147.032 352.833 146.625C352.223 146.219 351.206 146.219 350.392 146.625Z" fill="#16110D"/>
<path d="M344.086 142.761C343.476 143.168 343.476 143.778 344.086 144.185C344.696 144.592 345.917 144.592 346.527 144.185C347.137 143.778 347.137 143.168 346.527 142.761C345.917 142.354 344.696 142.558 344.086 142.761Z" fill="#16110D"/>
<path d="M382.326 157.61C381.716 158.016 381.716 158.626 382.326 159.033C382.936 159.44 384.156 159.44 384.766 159.033C385.377 158.626 385.377 158.016 384.766 157.61C384.156 157.203 383.139 157.203 382.326 157.61Z" fill="#16110D"/>
<path d="M376.021 153.948C375.411 154.355 375.411 154.965 376.021 155.372C376.631 155.779 377.852 155.779 378.462 155.372C379.072 154.965 379.072 154.355 378.462 153.948C377.852 153.541 376.631 153.541 376.021 153.948Z" fill="#16110D"/>
<path d="M369.715 150.288C369.105 150.694 369.105 151.304 369.715 151.711C370.325 152.118 371.545 152.118 372.156 151.711C372.766 151.304 372.766 150.694 372.156 150.288C371.342 149.881 370.325 149.881 369.715 150.288Z" fill="#16110D"/>
<path d="M363.207 146.625C362.596 147.032 362.596 147.642 363.207 148.049C363.817 148.456 365.038 148.456 365.648 148.049C366.258 147.642 366.258 147.032 365.648 146.625C365.038 146.219 363.817 146.219 363.207 146.625Z" fill="#16110D"/>
<path d="M356.9 142.761C356.29 143.168 356.29 143.778 356.9 144.185C357.511 144.592 358.731 144.592 359.341 144.185C359.951 143.778 359.951 143.168 359.341 142.761C358.731 142.354 357.511 142.558 356.9 142.761Z" fill="#16110D"/>
<path d="M337.577 131.778C336.966 132.184 336.966 132.795 337.577 133.201C338.187 133.608 339.407 133.608 340.017 133.201C340.628 132.795 340.628 132.184 340.017 131.778C339.407 131.371 338.39 131.371 337.577 131.778Z" fill="#16110D"/>
<path d="M332.492 129.743C331.481 129.743 330.661 129.288 330.661 128.726C330.661 128.165 331.481 127.709 332.492 127.709C333.503 127.709 334.322 128.165 334.322 128.726C334.322 129.288 333.503 129.743 332.492 129.743Z" fill="#16110D"/>
<path d="M324.763 124.455C324.153 124.862 324.153 125.472 324.763 125.879C325.373 126.286 326.593 126.286 327.203 125.879C327.814 125.472 327.814 124.862 327.203 124.455C326.593 124.048 325.576 124.048 324.763 124.455Z" fill="#16110D"/>
<path d="M350.392 139.1C349.782 139.507 349.782 140.117 350.392 140.524C351.002 140.931 352.223 140.931 352.833 140.524C353.443 140.117 353.443 139.507 352.833 139.1C352.223 138.693 351.206 138.693 350.392 139.1Z" fill="#16110D"/>
<path d="M344.086 135.438C343.476 135.845 343.476 136.455 344.086 136.862C344.696 137.269 345.917 137.269 346.527 136.862C347.137 136.455 347.137 135.845 346.527 135.438C345.713 135.032 344.696 135.032 344.086 135.438Z" fill="#16110D"/>
<path d="M388.835 153.948C388.225 154.355 388.225 154.965 388.835 155.372C389.445 155.779 390.666 155.779 391.276 155.372C391.886 154.965 391.886 154.355 391.276 153.948C390.666 153.541 389.445 153.541 388.835 153.948Z" fill="#16110D"/>
<path d="M382.326 150.288C381.716 150.694 381.716 151.304 382.326 151.711C382.936 152.118 384.156 152.118 384.766 151.711C385.377 151.304 385.377 150.694 384.766 150.288C384.156 149.881 383.139 149.881 382.326 150.288Z" fill="#16110D"/>
<path d="M395.344 150.288C394.734 150.694 394.734 151.304 395.344 151.711C395.954 152.118 397.174 152.118 397.785 151.711C398.395 151.304 398.395 150.694 397.785 150.288C396.971 149.881 395.954 149.881 395.344 150.288Z" fill="#16110D"/>
<path d="M388.835 146.422C388.225 146.829 388.225 147.439 388.835 147.846C389.445 148.253 390.666 148.253 391.276 147.846C391.886 147.439 391.886 146.829 391.276 146.422C390.666 146.219 389.649 146.219 388.835 146.422Z" fill="#16110D"/>
<path d="M401.649 146.422C401.039 146.829 401.039 147.439 401.649 147.846C402.259 148.253 403.479 148.253 404.09 147.846C404.7 147.439 404.7 146.829 404.09 146.422C403.479 146.219 402.259 146.219 401.649 146.422Z" fill="#16110D"/>
<path d="M395.344 142.761C394.734 143.168 394.734 143.778 395.344 144.185C395.954 144.592 397.174 144.592 397.785 144.185C398.395 143.778 398.395 143.168 397.785 142.761C396.971 142.354 395.954 142.354 395.344 142.761Z" fill="#16110D"/>
<path d="M408.158 142.761C407.548 143.168 407.548 143.778 408.158 144.185C408.768 144.592 409.989 144.592 410.599 144.185C411.209 143.778 411.209 143.168 410.599 142.761C409.785 142.354 408.768 142.354 408.158 142.761Z" fill="#16110D"/>
<path d="M401.649 139.1C401.039 139.507 401.039 140.117 401.649 140.524C402.259 140.931 403.479 140.931 404.09 140.524C404.7 140.117 404.7 139.507 404.09 139.1C403.479 138.693 402.259 138.693 401.649 139.1Z" fill="#16110D"/>
<path d="M414.464 139.1C413.854 139.507 413.854 140.117 414.464 140.524C415.074 140.931 416.294 140.931 416.905 140.524C417.515 140.117 417.515 139.507 416.905 139.1C416.294 138.693 415.074 138.693 414.464 139.1Z" fill="#16110D"/>
<path d="M408.158 135.438C407.548 135.845 407.548 136.455 408.158 136.862C408.768 137.269 409.989 137.269 410.599 136.862C411.209 136.455 411.209 135.845 410.599 135.438C409.785 135.032 408.768 135.032 408.158 135.438Z" fill="#16110D"/>
<path d="M326.592 116.116L326.795 103.708H428.497L428.293 115.709C428.293 116.116 428.293 115.709 428.293 116.116C428.09 117.946 426.666 119.777 424.225 121.201L386.189 143.168C381.104 146.016 373.375 146.423 369.103 143.778L329.44 120.997C327.406 119.777 326.388 117.946 326.592 116.116Z" fill="#36A9E1"/>
<path d="M376.629 146.423C380.087 146.423 383.952 145.609 386.799 143.982L424.836 122.014C427.48 120.387 429.107 118.557 429.514 116.319C429.514 116.116 429.514 115.912 429.514 115.709L429.718 102.895L325.982 104.522L325.779 115.912C325.575 118.15 326.795 120.184 329.236 121.608L368.9 144.389C370.934 145.813 373.578 146.423 376.629 146.423ZM427.684 115.912C427.684 115.912 427.48 116.116 427.684 115.912C427.48 117.743 426.056 119.167 424.022 120.591L385.986 142.558C381.104 145.406 373.782 145.609 369.714 143.168L330.05 120.387C328.22 119.37 327.406 117.946 327.609 116.522L327.813 105.132H427.887L427.684 115.912Z" fill="#15100C"/>
<path d="M329.643 108.997L369.307 131.778C373.782 134.219 381.308 134.015 386.393 131.168L424.429 109.2C429.514 106.352 430.125 101.878 425.65 99.2333L385.986 76.4522C381.511 74.0114 373.985 74.2149 368.9 77.0625L330.864 99.0299C325.779 102.081 325.372 106.556 329.643 108.997Z" fill="#36A9E1"/>
<path d="M330.863 104.725L368.9 82.7573C373.985 79.9097 381.714 79.503 385.986 82.1473L425.65 104.928C426.463 105.539 427.277 106.149 427.684 106.759V112.047C427.073 113.064 425.853 114.082 424.429 114.895L386.393 136.863C381.308 139.71 373.578 140.117 369.306 137.473L329.643 114.692C325.371 112.048 325.778 107.776 330.863 104.725Z" fill="white"/>
<path d="M376.833 134.422C380.291 134.422 384.155 133.608 387.003 131.981L425.039 110.013C427.887 108.386 429.718 105.945 429.718 103.708C429.718 101.674 428.497 99.8432 426.26 98.6228L386.596 75.8415C381.918 73.1972 373.985 73.4007 368.493 76.4518L330.457 98.4194C327.609 100.047 325.778 102.487 325.778 104.725C325.778 106.759 326.999 108.59 329.236 109.81L368.9 132.591C370.934 133.811 373.782 134.422 376.833 134.422ZM378.663 75.6381C381.308 75.6381 383.748 76.2484 385.579 77.2655L425.243 100.047C426.87 101.064 427.684 102.284 427.684 103.505C427.684 105.132 426.26 106.962 424.022 108.386L385.986 130.354C381.104 133.201 373.782 133.405 369.714 130.964L330.05 108.183C328.423 107.166 327.609 105.945 327.609 104.725C327.609 103.098 329.033 101.267 331.27 99.8432L369.307 77.8755C371.951 76.4517 375.409 75.6381 378.663 75.6381Z" fill="#15100C"/>
<path d="M382.122 106.759L380.087 91.9102H380.291L407.547 107.572C407.75 107.776 407.954 107.776 408.157 107.979L382.122 106.759Z" fill="#36A9E1"/>
<path d="M409.987 104.725L407.953 103.097C407.75 102.894 407.547 102.691 407.14 102.487L379.68 86.6218L378.257 86.0115L378.46 87.6388L380.697 103.097L409.987 104.725ZM380.291 89.0625L403.682 102.691L381.918 101.47L380.291 89.0625Z" fill="#15100C"/>
<path d="M376.425 109.81L408.156 111.641C407.952 111.641 407.952 111.844 407.749 111.844L385.781 124.455C383.747 125.675 380.493 125.472 378.459 124.252L351.203 108.59C349.169 107.369 348.965 105.538 350.999 104.318L372.967 91.707C373.374 91.5036 373.577 91.3003 373.984 91.3003L376.425 109.81Z" fill="#36A9E1"/>
<path d="M381.51 121.811C382.934 121.811 384.358 121.404 385.375 120.794L407.343 108.183C407.546 108.183 407.546 107.98 407.75 107.98L409.58 106.556L407.343 106.352L376.425 104.522L373.781 85.8086L372.764 86.2155C372.358 86.419 371.951 86.6222 371.544 86.8256L349.576 99.4368C348.356 100.047 347.746 101.064 347.746 102.081C347.746 103.301 348.559 104.318 349.78 105.132L377.036 120.794C378.459 121.404 380.087 121.811 381.51 121.811ZM404.495 107.776L384.561 119.37C382.934 120.387 379.883 120.184 378.053 119.167L350.797 103.505C349.983 103.098 349.576 102.488 349.576 102.081C349.576 101.674 349.983 101.267 350.593 100.86L372.357 88.2496L375.002 106.352L404.495 107.776Z" fill="#15100C"/>
<path d="M377.036 133.608V146.015L372.765 145.609L367.476 143.168L327.406 119.98L326.592 116.115L326.185 106.352L371.138 132.794L376.223 133.608H377.036Z" fill="#15100C"/>
<path d="M276.787 7.5193C276.787 7.16978 276.612 6.99498 276.612 6.82021L278.185 4.3735L273.292 1.75207C273.117 1.57731 272.767 1.40263 272.592 1.40263L272.418 1.22791C269.971 0.179342 266.825 0.528781 263.33 2.45116C255.815 6.82021 249.524 17.4807 249.524 26.2188C249.524 28.8402 249.874 30.5878 250.922 32.3354L251.097 32.6851L258.262 45.967C258.612 46.666 258.961 47.1904 259.485 47.3651L264.728 50.336C265.078 50.5108 265.427 50.3361 265.427 49.9866L267.35 44.7437L273.292 31.2869L280.632 12.2378L276.787 7.5193ZM265.777 24.6461C262.282 27.9665 258.961 28.1412 257.388 25.8693L267.35 12.4127L265.952 9.26692C269.097 8.9174 271.194 11.7137 269.971 16.7818C269.447 19.9275 267.874 22.5489 265.777 24.6461Z" fill="#36A9E1"/>
<path d="M250.747 27.093L250.922 27.268C251.097 27.4427 251.446 27.4426 251.621 27.6174L256.514 30.2388L257.213 29.365L263.854 15.9084L265.602 13.1121C266.476 12.9373 267.35 13.2869 268.049 13.6364L273.466 5.77213L272.942 5.4227C272.767 5.24793 272.418 5.07304 272.243 5.07304L272.068 4.89832C269.622 3.84975 266.476 4.19919 262.981 6.12157C256.34 9.96634 250.747 18.7045 249.524 26.7436C250.048 26.7436 250.398 26.9183 250.747 27.093Z" fill="white"/>
<path d="M265.078 50.8604C264.903 50.8604 264.729 50.8603 264.554 50.6855L259.136 47.5399C258.612 47.1904 258.088 46.6661 257.738 45.967L250.398 32.5104C249.35 30.9376 249 29.015 249 26.2188C249 17.306 255.291 6.29612 262.981 1.92707C266.476 -0.170071 269.797 -0.519723 272.593 0.703611L272.768 0.87833C273.117 1.05309 273.292 1.22798 273.467 1.22798L278.884 4.19885L277.137 6.995C277.137 7.16976 277.137 7.34465 277.312 7.34465L281.331 12.0631L273.816 31.4617L267.874 44.9185L265.952 50.1614C265.777 50.5109 265.602 50.6857 265.253 50.8604C265.428 50.8604 265.253 50.8604 265.078 50.8604ZM260.185 47.0155L265.078 49.8117L266.826 44.5688L272.768 30.9375L279.933 12.2379L276.088 7.86881V7.69409C276.088 7.51933 275.913 7.16976 275.913 6.995V6.82028L276.088 6.47084L277.312 4.5485L272.943 2.10179C272.768 1.92703 272.418 1.75214 272.243 1.75214L272.069 1.57742C269.797 0.528849 266.651 1.05326 263.505 2.80088C256.165 7.16993 250.049 17.4808 250.049 26.0441C250.049 28.4908 250.398 30.2385 251.272 31.8113L251.447 32.1608L258.612 45.4426C258.787 45.9669 259.136 46.4913 259.661 46.6661L260.185 47.0155ZM260.185 27.9664C260.01 27.9664 259.835 27.9664 259.835 27.9664C258.612 27.7917 257.563 27.2674 256.864 26.2188L256.69 25.8694L266.826 12.4128L265.253 8.91755L266.127 8.74262C267.525 8.56786 268.923 9.09227 269.797 9.96608C271.195 11.3642 271.544 13.9856 270.845 16.9566C270.146 19.9275 268.573 22.7237 266.301 24.8209C264.204 26.918 262.107 27.9664 260.185 27.9664ZM258.088 25.8694C258.612 26.3937 259.136 26.7432 260.01 26.7432C261.583 26.918 263.505 26.0441 265.428 24.1218C267.525 22.1994 268.923 19.578 269.622 16.7818C270.146 14.1604 269.971 12.0632 268.923 10.8399C268.399 10.3156 267.874 9.96608 267.001 9.96608L268.224 12.5875L258.088 25.8694Z" fill="black"/>
<path d="M274.864 33.384L278.36 24.2963L271.02 19.4031C271.02 19.7526 270.845 20.2768 270.845 20.801C270.146 23.772 268.748 26.3935 266.476 28.4906C263.68 31.112 261.233 31.6364 259.485 30.7626L263.156 39.6754L274.864 33.384Z" fill="white"/>
<path d="M282.729 13.4614C282.729 4.72329 276.612 1.05329 268.923 5.5971C261.408 9.96615 255.117 20.6266 255.117 29.3647C255.117 31.9861 255.641 34.0832 256.69 35.6561L257.039 36.3552L263.855 48.938C264.729 50.8603 266.651 51.3848 268.923 49.9867C271.195 48.5886 273.292 45.7924 273.991 42.9962L280.982 22.0248L281.156 21.5004C282.205 18.879 282.729 16.0828 282.729 13.4614ZM268.923 29.5394C265.078 31.8113 261.932 29.8891 261.932 25.52C261.932 21.151 265.078 15.7333 268.923 13.4614C272.768 11.1895 275.913 13.1117 275.913 17.4808C275.913 21.8498 272.768 27.2675 268.923 29.5394Z" fill="black"/>
<path d="M266.476 51.385C266.127 51.385 265.777 51.385 265.428 51.2103C264.554 50.8607 263.855 50.1617 263.331 49.2879L256.166 36.006C255.117 34.2584 254.593 31.9864 254.593 29.365C254.593 20.4521 260.884 9.44209 268.574 5.07303C272.419 2.80113 276.089 2.45165 278.885 4.0245C281.681 5.59736 283.254 8.91788 283.254 13.4617C283.254 16.0831 282.729 18.8792 281.681 21.6754L281.506 22.1998L274.516 43.1712C273.642 46.1422 271.545 49.1131 269.098 50.3364C268.224 51.0355 267.35 51.385 266.476 51.385ZM275.04 4.37394C273.292 4.37394 271.195 4.89823 269.273 6.12156C261.933 10.4906 255.816 20.8017 255.816 29.365C255.816 31.8117 256.34 33.7341 257.214 35.4817L257.564 36.1808L264.379 48.7635C264.729 49.4626 265.079 49.987 265.778 50.1617C266.651 50.3365 267.7 50.1616 268.748 49.6374C270.846 48.414 272.768 45.7927 273.642 42.9965L280.807 21.5007C281.856 18.7045 282.205 16.0831 282.205 13.6364C282.205 9.61689 280.807 6.64585 278.535 5.24775C277.312 4.54871 276.263 4.37394 275.04 4.37394ZM265.778 31.1126C265.079 31.1126 264.379 30.9378 263.68 30.5882C262.107 29.7144 261.409 27.967 261.409 25.5203C261.409 20.9765 264.729 15.2092 268.748 12.9373C270.846 11.714 272.768 11.5394 274.341 12.4132C275.914 13.287 276.613 15.0344 276.613 17.4811C276.613 22.0249 273.292 27.7922 269.273 30.0641C268.049 30.7631 266.826 31.1126 265.778 31.1126ZM272.069 13.112C271.195 13.112 270.321 13.4616 269.273 13.9859C265.603 16.083 262.632 21.326 262.632 25.5203C262.632 27.4427 263.331 28.8407 264.379 29.5397C265.428 30.2388 267.001 30.0641 268.748 29.0156C272.418 26.9184 275.389 21.6754 275.389 17.4811C275.389 15.5587 274.69 14.1607 273.642 13.4617C273.118 13.1122 272.593 13.112 272.069 13.112Z" fill="black"/>
<path d="M274.864 63.9677L273.466 60.4724H271.019C268.048 59.2491 264.029 59.2491 260.883 60.4724H258.436L257.038 63.7927V63.9677C256.514 65.5405 257.388 67.2881 259.485 68.5114C262.98 70.6086 268.747 70.6086 272.243 68.5114C274.514 67.2881 275.388 65.7153 274.864 63.9677Z" fill="#36A9E1"/>
<path d="M265.952 70.7833C263.505 70.7833 261.058 70.2591 259.311 69.2106C256.864 67.8125 255.815 65.8901 256.514 63.9677L258.087 60.1228H260.883C264.029 58.8995 268.049 58.8995 271.194 60.1228H273.991L275.563 63.9677C276.263 65.8901 275.214 67.8125 272.767 69.2106C270.845 70.0844 268.398 70.7833 265.952 70.7833ZM258.786 61.1714L257.563 64.1424C257.039 65.5405 257.912 66.9385 259.835 68.1618C263.155 70.0842 268.748 70.0842 272.068 68.1618C273.117 67.4628 275.039 66.0648 274.34 64.3172L273.117 61.1714H270.845C267.874 60.1228 264.029 60.1228 261.233 61.1714H261.058H258.786Z" fill="black"/>
<path d="M271.544 58.5497C274.515 60.2973 274.515 63.0937 271.544 64.8413C268.573 66.589 263.505 66.589 260.534 64.8413C257.563 63.0937 257.563 60.2973 260.534 58.5497C263.505 56.8021 268.399 56.8021 271.544 58.5497Z" fill="#36A9E1"/>
<path d="M271.544 59.9484C274.515 61.696 274.515 64.4922 271.544 66.2398C268.573 67.9874 263.505 67.9874 260.534 66.2398C257.563 64.4922 257.563 61.696 260.534 59.9484C263.505 58.2008 268.399 58.2008 271.544 59.9484Z" fill="white"/>
<path d="M265.952 66.7636C263.855 66.7636 261.757 66.2393 260.184 65.3654C258.437 64.4916 257.563 63.0936 257.563 61.6955C257.563 60.2974 258.437 58.8993 260.184 58.0255C263.33 56.1031 268.573 56.1031 271.719 58.0255C273.466 58.8993 274.34 60.2974 274.34 61.6955C274.34 63.0936 273.466 64.4916 271.719 65.3654C270.146 66.414 268.049 66.7636 265.952 66.7636ZM265.952 57.8508C264.029 57.8508 262.107 58.2002 260.709 59.0741C259.485 59.7731 258.786 60.8217 258.786 61.6955C258.786 62.5693 259.485 63.6179 260.709 64.3169C263.68 66.0645 268.224 66.0645 271.195 64.3169C272.418 63.6179 273.117 62.5693 273.117 61.6955C273.117 60.8217 272.418 59.7731 271.195 59.0741C269.796 58.2002 267.874 57.8508 265.952 57.8508Z" fill="black"/>
<path d="M268.922 59.9485C270.495 60.8223 270.495 62.3952 268.922 63.2691C267.349 64.1429 264.728 64.1429 263.155 63.2691C261.582 62.3952 261.582 60.8223 263.155 59.9485C264.728 58.9 267.349 58.9 268.922 59.9485Z" fill="#36A9E1"/>
<path d="M265.951 64.4921C264.728 64.4921 263.679 64.3173 262.806 63.793C261.932 63.2688 261.408 62.395 261.408 61.696C261.408 60.8222 261.932 60.1232 262.806 59.5989C264.553 58.5504 267.349 58.5504 269.097 59.5989C269.971 60.1232 270.495 60.9969 270.495 61.696C270.495 62.5698 269.971 63.2688 269.097 63.793C268.223 64.1426 267.175 64.4921 265.951 64.4921ZM265.951 59.7736C265.078 59.7736 264.029 59.9483 263.33 60.2978C262.806 60.6473 262.456 60.997 262.456 61.5213C262.456 61.8708 262.806 62.395 263.33 62.7445C264.728 63.6183 267.175 63.6183 268.573 62.7445C269.097 62.395 269.447 62.0456 269.447 61.5213C269.447 61.1717 269.097 60.6473 268.573 60.2978C267.874 59.9483 267 59.7736 265.951 59.7736Z" fill="black"/>
<path d="M263.155 61.5212C264.728 60.6474 267.35 60.6474 268.922 61.5212C269.272 61.696 269.621 62.0455 269.796 62.395C270.321 61.5212 270.146 60.4726 268.922 59.9483C267.35 59.0745 264.728 59.0745 263.155 59.9483C261.932 60.6474 261.757 61.696 262.282 62.395C262.456 62.0455 262.631 61.8708 263.155 61.5212Z" fill="#36A9E1"/>
<path d="M268.922 63.269L269.272 62.7446C269.097 62.5699 268.922 62.2203 268.573 62.0456C267.175 61.1717 264.728 61.1717 263.33 62.0456C262.98 62.2203 262.805 62.3951 262.631 62.7446L262.805 63.0943L261.757 62.7446C261.407 62.2204 261.233 61.696 261.407 61.1717C261.582 60.4727 262.106 59.9484 262.805 59.4241C264.553 58.3756 267.349 58.3756 269.097 59.4241C269.796 59.9484 270.32 60.4727 270.495 61.1717C270.67 61.696 270.495 62.2204 270.146 62.7446L268.922 63.269ZM265.951 60.2979C267.175 60.2979 268.223 60.4727 269.097 60.997C269.272 60.997 269.272 61.1717 269.446 61.1717C269.272 60.8222 269.097 60.4727 268.573 60.2979C267.175 59.4241 264.728 59.4241 263.33 60.2979C262.805 60.4727 262.631 60.8222 262.456 61.1717C262.456 61.1717 262.631 60.997 262.805 60.997C263.679 60.6475 264.903 60.2979 265.951 60.2979Z" fill="black"/>
<path d="M266.826 59.0745V61.1715H263.854L262.282 62.0453L262.456 60.4726L263.854 59.4239L266.826 59.0745Z" fill="black"/>
<path d="M268.049 66.065L268.398 69.7349L272.593 68.6864L275.039 66.2397L274.865 63.6183L273.991 62.395L271.894 64.8417L268.049 66.065Z" fill="black"/>
</svg>
