<svg width="1920" height="1949" viewBox="0 0 1920 1949" fill="none" xmlns="http://www.w3.org/2000/svg">
<path d="M108.743 9.6682C-196.34 165.737 -34.7611 655.701 303.223 622.877C725.703 581.848 764.982 -58.503 1088.39 -218.146C1417.32 -380.513 1517.05 -5.61628 1597.98 125.383C1689.71 273.868 1897.22 120.94 2073.03 372.081C2274.24 659.515 2464.14 325.984 2641.68 580.187" stroke="#36A9E1" stroke-opacity="0.4" stroke-linecap="round" stroke-dasharray="11 11"/>
<path d="M1054.24 -399.023C1376.96 -514.285 1624.57 -184.44 1369.07 39.2351C1049.7 318.829 408.083 199.565 215.787 294.285C-20.7167 410.78 78.6696 616.079 118.065 764.935C187.517 1027.36 -37.8835 976.202 10.622 1278.9C42.8169 1479.82 247.732 1728.4 -3.94915 1947.69" stroke="#36A9E1" stroke-opacity="0.4" stroke-linecap="round" stroke-dasharray="11 11"/>
</svg>
