<svg width="429" height="500" viewBox="0 0 429 500" fill="none" xmlns="http://www.w3.org/2000/svg">
<path d="M193.678 491.174C193.964 491.245 194.218 491.41 194.399 491.641C194.581 491.873 194.679 492.159 194.679 492.454C194.679 492.748 194.581 493.034 194.399 493.266C194.218 493.498 193.964 493.663 193.678 493.733C193.007 494.08 192.262 494.261 191.506 494.261C190.751 494.261 190.007 494.08 189.335 493.733C189.086 493.625 188.874 493.446 188.725 493.219C188.576 492.991 188.497 492.726 188.497 492.454C188.497 492.182 188.576 491.916 188.725 491.689C188.874 491.462 189.086 491.283 189.335 491.174C190.007 490.827 190.751 490.646 191.506 490.646C192.262 490.646 193.007 490.827 193.678 491.174Z" fill="#16110D"/>
<path d="M205.077 484.66C206.318 485.358 206.318 486.443 205.077 487.141C204.406 487.488 203.662 487.669 202.906 487.669C202.151 487.669 201.406 487.488 200.734 487.141C200.479 487.05 200.257 486.881 200.101 486.659C199.945 486.437 199.862 486.172 199.862 485.901C199.862 485.629 199.945 485.364 200.101 485.142C200.257 484.92 200.479 484.751 200.734 484.66C201.406 484.313 202.151 484.132 202.906 484.132C203.662 484.132 204.406 484.313 205.077 484.66Z" fill="#16110D"/>
<path d="M216.48 478.068C217.643 478.766 217.643 479.929 216.48 480.549C215.809 480.896 215.064 481.077 214.308 481.077C213.553 481.077 212.808 480.896 212.136 480.549C210.896 479.929 210.896 478.766 212.136 478.068C212.808 477.721 213.553 477.54 214.308 477.54C215.064 477.54 215.809 477.721 216.48 478.068Z" fill="#16110D"/>
<path d="M227.802 471.475C228.088 471.546 228.341 471.711 228.522 471.943C228.704 472.174 228.803 472.46 228.803 472.755C228.803 473.049 228.704 473.335 228.522 473.567C228.341 473.799 228.088 473.964 227.802 474.035C227.131 474.381 226.386 474.562 225.63 474.562C224.875 474.562 224.13 474.381 223.458 474.035C223.209 473.926 222.998 473.747 222.849 473.52C222.7 473.292 222.621 473.027 222.621 472.755C222.621 472.483 222.7 472.217 222.849 471.99C222.998 471.763 223.209 471.584 223.458 471.475C224.141 471.167 224.881 471.007 225.63 471.007C226.379 471.007 227.12 471.167 227.802 471.475Z" fill="#16110D"/>
<path d="M239.281 464.806C240.522 465.504 240.522 466.59 239.281 467.288C238.61 467.634 237.865 467.815 237.109 467.815C236.354 467.815 235.609 467.634 234.937 467.288C233.697 466.59 233.697 465.504 234.937 464.806C235.609 464.459 236.354 464.278 237.109 464.278C237.865 464.278 238.61 464.459 239.281 464.806Z" fill="#16110D"/>
<path d="M250.602 458.369C250.851 458.477 251.064 458.656 251.213 458.884C251.362 459.111 251.441 459.377 251.441 459.648C251.441 459.92 251.362 460.186 251.213 460.413C251.064 460.641 250.851 460.819 250.602 460.928C249.92 461.236 249.18 461.396 248.431 461.396C247.683 461.396 246.942 461.236 246.26 460.928C245.974 460.857 245.72 460.693 245.538 460.461C245.357 460.229 245.258 459.943 245.258 459.648C245.258 459.354 245.357 459.068 245.538 458.836C245.72 458.604 245.974 458.44 246.26 458.369C246.931 458.022 247.676 457.841 248.431 457.841C249.187 457.841 249.931 458.022 250.602 458.369Z" fill="#16110D"/>
<path d="M261.924 451.777C262.21 451.848 262.464 452.012 262.645 452.244C262.826 452.476 262.925 452.762 262.925 453.056C262.925 453.351 262.826 453.637 262.645 453.868C262.464 454.1 262.21 454.265 261.924 454.336C261.253 454.683 260.508 454.864 259.753 454.864C258.997 454.864 258.252 454.683 257.581 454.336C257.332 454.227 257.12 454.048 256.971 453.821C256.822 453.594 256.743 453.328 256.743 453.056C256.743 452.785 256.822 452.519 256.971 452.291C257.12 452.064 257.332 451.885 257.581 451.777C258.263 451.468 259.004 451.309 259.753 451.309C260.502 451.309 261.242 451.468 261.924 451.777Z" fill="#16110D"/>
<path d="M273.325 445.262C273.58 445.354 273.801 445.522 273.957 445.744C274.113 445.966 274.198 446.231 274.198 446.503C274.198 446.774 274.113 447.039 273.957 447.261C273.801 447.483 273.58 447.652 273.325 447.744C272.653 448.091 271.909 448.272 271.153 448.272C270.397 448.272 269.652 448.091 268.981 447.744C267.74 447.046 267.74 445.96 268.981 445.262C269.652 444.915 270.397 444.734 271.153 444.734C271.909 444.734 272.653 444.915 273.325 445.262Z" fill="#16110D"/>
<path d="M182.354 484.66C182.61 484.751 182.831 484.92 182.987 485.142C183.143 485.364 183.227 485.629 183.227 485.901C183.227 486.172 183.143 486.437 182.987 486.659C182.831 486.881 182.61 487.05 182.354 487.141C181.683 487.488 180.938 487.669 180.183 487.669C179.427 487.669 178.682 487.488 178.011 487.141C176.77 486.443 176.77 485.358 178.011 484.66C178.682 484.313 179.427 484.132 180.183 484.132C180.938 484.132 181.683 484.313 182.354 484.66Z" fill="#16110D"/>
<path d="M193.679 478.068C194.92 478.766 194.92 479.929 193.679 480.549C193.007 480.896 192.263 481.077 191.507 481.077C190.751 481.077 190.007 480.896 189.336 480.549C188.173 479.929 188.173 478.766 189.336 478.068C190.007 477.721 190.751 477.54 191.507 477.54C192.263 477.54 193.007 477.721 193.679 478.068Z" fill="#16110D"/>
<path d="M205.079 471.475C205.365 471.546 205.619 471.711 205.8 471.943C205.982 472.174 206.08 472.46 206.08 472.755C206.08 473.049 205.982 473.335 205.8 473.567C205.619 473.799 205.365 473.964 205.079 474.035C204.408 474.381 203.664 474.562 202.908 474.562C202.152 474.562 201.408 474.381 200.736 474.035C200.487 473.926 200.275 473.747 200.127 473.52C199.978 473.292 199.898 473.027 199.898 472.755C199.898 472.483 199.978 472.217 200.127 471.99C200.275 471.763 200.487 471.584 200.736 471.475C201.419 471.167 202.159 471.007 202.908 471.007C203.657 471.007 204.396 471.167 205.079 471.475Z" fill="#16110D"/>
<path d="M216.48 464.806C216.736 464.898 216.956 465.066 217.112 465.288C217.269 465.51 217.353 465.775 217.353 466.047C217.353 466.318 217.269 466.583 217.112 466.805C216.956 467.027 216.736 467.196 216.48 467.288C215.809 467.634 215.064 467.815 214.308 467.815C213.553 467.815 212.808 467.634 212.136 467.288C210.896 466.59 210.896 465.504 212.136 464.806C212.808 464.459 213.553 464.278 214.308 464.278C215.064 464.278 215.809 464.459 216.48 464.806Z" fill="#16110D"/>
<path d="M227.802 458.369C228.088 458.44 228.341 458.604 228.522 458.836C228.704 459.068 228.803 459.354 228.803 459.648C228.803 459.943 228.704 460.229 228.522 460.461C228.341 460.693 228.088 460.857 227.802 460.928C227.12 461.236 226.379 461.396 225.63 461.396C224.881 461.396 224.141 461.236 223.458 460.928C223.209 460.819 222.998 460.641 222.849 460.413C222.7 460.186 222.621 459.92 222.621 459.648C222.621 459.377 222.7 459.111 222.849 458.884C222.998 458.656 223.209 458.477 223.458 458.369C224.13 458.022 224.875 457.841 225.63 457.841C226.386 457.841 227.131 458.022 227.802 458.369Z" fill="#16110D"/>
<path d="M239.279 451.777C239.565 451.848 239.819 452.012 240.001 452.244C240.182 452.476 240.28 452.762 240.28 453.056C240.28 453.351 240.182 453.637 240.001 453.868C239.819 454.1 239.565 454.265 239.279 454.336C238.608 454.683 237.863 454.864 237.107 454.864C236.352 454.864 235.607 454.683 234.936 454.336C234.65 454.265 234.397 454.1 234.215 453.868C234.034 453.637 233.935 453.351 233.935 453.056C233.935 452.762 234.034 452.476 234.215 452.244C234.397 452.012 234.65 451.848 234.936 451.777C235.618 451.468 236.359 451.309 237.107 451.309C237.856 451.309 238.597 451.468 239.279 451.777Z" fill="#16110D"/>
<path d="M248.432 448.287C250.145 448.287 251.533 447.488 251.533 446.503C251.533 445.518 250.145 444.719 248.432 444.719C246.719 444.719 245.33 445.518 245.33 446.503C245.33 447.488 246.719 448.287 248.432 448.287Z" fill="#16110D"/>
<path d="M170.954 478.068C172.195 478.766 172.195 479.929 170.954 480.549C170.283 480.896 169.539 481.077 168.783 481.077C168.027 481.077 167.283 480.896 166.611 480.549C165.448 479.929 165.448 478.766 166.611 478.068C167.283 477.721 168.027 477.54 168.783 477.54C169.539 477.54 170.283 477.721 170.954 478.068Z" fill="#16110D"/>
<path d="M182.356 471.475C182.605 471.584 182.816 471.763 182.965 471.99C183.114 472.217 183.193 472.483 183.193 472.755C183.193 473.027 183.114 473.292 182.965 473.52C182.816 473.747 182.605 473.926 182.356 474.035C181.684 474.381 180.939 474.562 180.184 474.562C179.428 474.562 178.683 474.381 178.012 474.035C177.726 473.964 177.473 473.799 177.292 473.567C177.11 473.335 177.011 473.049 177.011 472.755C177.011 472.46 177.11 472.174 177.292 471.943C177.473 471.711 177.726 471.546 178.012 471.475C178.695 471.167 179.435 471.007 180.184 471.007C180.933 471.007 181.673 471.167 182.356 471.475Z" fill="#16110D"/>
<path d="M191.504 467.986C193.218 467.986 194.607 467.187 194.607 466.202C194.607 465.217 193.218 464.418 191.504 464.418C189.791 464.418 188.402 465.217 188.402 466.202C188.402 467.187 189.791 467.986 191.504 467.986Z" fill="#16110D"/>
<path d="M261.924 438.67C262.21 438.741 262.464 438.906 262.645 439.137C262.826 439.369 262.925 439.655 262.925 439.95C262.925 440.244 262.826 440.53 262.645 440.762C262.464 440.994 262.21 441.159 261.924 441.229C261.242 441.538 260.502 441.697 259.753 441.697C259.004 441.697 258.263 441.538 257.581 441.229C257.332 441.121 257.12 440.942 256.971 440.715C256.822 440.487 256.743 440.221 256.743 439.95C256.743 439.678 256.822 439.412 256.971 439.185C257.12 438.958 257.332 438.779 257.581 438.67C258.252 438.323 258.997 438.142 259.753 438.142C260.508 438.142 261.253 438.323 261.924 438.67Z" fill="#16110D"/>
<path d="M205.079 458.369C205.365 458.44 205.619 458.604 205.8 458.836C205.982 459.068 206.08 459.354 206.08 459.648C206.08 459.943 205.982 460.229 205.8 460.461C205.619 460.693 205.365 460.857 205.079 460.928C204.396 461.236 203.657 461.396 202.908 461.396C202.159 461.396 201.419 461.236 200.736 460.928C200.487 460.819 200.275 460.641 200.127 460.413C199.978 460.186 199.898 459.92 199.898 459.648C199.898 459.377 199.978 459.111 200.127 458.884C200.275 458.656 200.487 458.477 200.736 458.369C201.408 458.022 202.152 457.841 202.908 457.841C203.664 457.841 204.408 458.022 205.079 458.369Z" fill="#16110D"/>
<path d="M216.478 451.777C216.727 451.885 216.939 452.064 217.088 452.291C217.237 452.519 217.316 452.785 217.316 453.056C217.316 453.328 217.237 453.594 217.088 453.821C216.939 454.048 216.727 454.227 216.478 454.336C215.807 454.683 215.062 454.864 214.306 454.864C213.551 454.864 212.806 454.683 212.135 454.336C211.849 454.265 211.595 454.1 211.413 453.868C211.232 453.637 211.134 453.351 211.134 453.056C211.134 452.762 211.232 452.476 211.413 452.244C211.595 452.012 211.849 451.848 212.135 451.777C212.817 451.468 213.558 451.309 214.306 451.309C215.055 451.309 215.796 451.468 216.478 451.777Z" fill="#16110D"/>
<path d="M227.803 445.262C229.043 445.96 229.043 447.046 227.803 447.744C227.131 448.091 226.386 448.272 225.631 448.272C224.875 448.272 224.13 448.091 223.459 447.744C223.203 447.652 222.983 447.483 222.827 447.261C222.67 447.039 222.586 446.774 222.586 446.503C222.586 446.231 222.67 445.966 222.827 445.744C222.983 445.522 223.203 445.354 223.459 445.262C224.13 444.915 224.875 444.734 225.631 444.734C226.386 444.734 227.131 444.915 227.803 445.262Z" fill="#16110D"/>
<path d="M239.279 438.67C239.565 438.741 239.819 438.906 240.001 439.137C240.182 439.369 240.28 439.655 240.28 439.95C240.28 440.244 240.182 440.53 240.001 440.762C239.819 440.994 239.565 441.159 239.279 441.229C238.597 441.538 237.856 441.697 237.107 441.697C236.359 441.697 235.618 441.538 234.936 441.229C234.65 441.159 234.397 440.994 234.215 440.762C234.034 440.53 233.935 440.244 233.935 439.95C233.935 439.655 234.034 439.369 234.215 439.137C234.397 438.906 234.65 438.741 234.936 438.67C235.607 438.323 236.352 438.142 237.107 438.142C237.863 438.142 238.608 438.323 239.279 438.67Z" fill="#16110D"/>
<path d="M250.602 432.078C250.851 432.186 251.064 432.365 251.213 432.592C251.362 432.82 251.441 433.086 251.441 433.357C251.441 433.629 251.362 433.895 251.213 434.122C251.064 434.349 250.851 434.528 250.602 434.637C249.931 434.984 249.187 435.165 248.431 435.165C247.676 435.165 246.931 434.984 246.26 434.637C245.974 434.566 245.72 434.401 245.538 434.17C245.357 433.938 245.258 433.652 245.258 433.357C245.258 433.063 245.357 432.777 245.538 432.545C245.72 432.313 245.974 432.148 246.26 432.078C246.942 431.769 247.683 431.61 248.431 431.61C249.18 431.61 249.92 431.769 250.602 432.078Z" fill="#16110D"/>
<path d="M159.633 471.475C159.882 471.584 160.094 471.763 160.243 471.99C160.392 472.217 160.471 472.483 160.471 472.755C160.471 473.027 160.392 473.292 160.243 473.52C160.094 473.747 159.882 473.926 159.633 474.035C158.946 474.376 158.189 474.554 157.422 474.554C156.655 474.554 155.9 474.376 155.213 474.035C154.964 473.926 154.751 473.747 154.602 473.52C154.453 473.292 154.374 473.027 154.374 472.755C154.374 472.483 154.453 472.217 154.602 471.99C154.751 471.763 154.964 471.584 155.213 471.475C155.91 471.17 156.662 471.012 157.422 471.012C158.183 471.012 158.936 471.17 159.633 471.475Z" fill="#16110D"/>
<path d="M170.954 464.806C172.195 465.504 172.195 466.59 170.954 467.288C170.283 467.634 169.539 467.815 168.783 467.815C168.028 467.815 167.283 467.634 166.612 467.288C166.356 467.196 166.135 467.027 165.979 466.805C165.823 466.583 165.739 466.318 165.739 466.047C165.739 465.775 165.823 465.51 165.979 465.288C166.135 465.066 166.356 464.898 166.612 464.806C167.283 464.459 168.028 464.278 168.783 464.278C169.539 464.278 170.283 464.459 170.954 464.806Z" fill="#16110D"/>
<path d="M180.183 461.393C181.896 461.393 183.285 460.595 183.285 459.61C183.285 458.624 181.896 457.826 180.183 457.826C178.469 457.826 177.08 458.624 177.08 459.61C177.08 460.595 178.469 461.393 180.183 461.393Z" fill="#16110D"/>
<path d="M193.678 451.777C193.964 451.848 194.218 452.012 194.399 452.244C194.581 452.476 194.679 452.762 194.679 453.056C194.679 453.351 194.581 453.637 194.399 453.868C194.218 454.1 193.964 454.265 193.678 454.336C193.007 454.683 192.262 454.864 191.506 454.864C190.751 454.864 190.007 454.683 189.335 454.336C189.086 454.227 188.874 454.048 188.725 453.821C188.576 453.594 188.497 453.328 188.497 453.056C188.497 452.785 188.576 452.519 188.725 452.291C188.874 452.064 189.086 451.885 189.335 451.777C190.018 451.468 190.757 451.309 191.506 451.309C192.255 451.309 192.995 451.468 193.678 451.777Z" fill="#16110D"/>
<path d="M205.077 445.262C206.318 445.96 206.318 447.046 205.077 447.744C204.406 448.091 203.662 448.272 202.906 448.272C202.151 448.272 201.406 448.091 200.734 447.744C200.479 447.652 200.257 447.483 200.101 447.261C199.945 447.039 199.862 446.774 199.862 446.503C199.862 446.231 199.945 445.966 200.101 445.744C200.257 445.522 200.479 445.354 200.734 445.262C201.406 444.915 202.151 444.734 202.906 444.734C203.662 444.734 204.406 444.915 205.077 445.262Z" fill="#16110D"/>
<path d="M216.478 438.67C216.727 438.779 216.939 438.958 217.088 439.185C217.237 439.412 217.316 439.678 217.316 439.95C217.316 440.221 217.237 440.487 217.088 440.715C216.939 440.942 216.727 441.121 216.478 441.229C215.796 441.538 215.055 441.697 214.306 441.697C213.558 441.697 212.817 441.538 212.135 441.229C211.849 441.159 211.595 440.994 211.413 440.762C211.232 440.53 211.134 440.244 211.134 439.95C211.134 439.655 211.232 439.369 211.413 439.137C211.595 438.906 211.849 438.741 212.135 438.67C212.806 438.323 213.551 438.142 214.306 438.142C215.062 438.142 215.807 438.323 216.478 438.67Z" fill="#16110D"/>
<path d="M223.768 432.078C224.451 431.769 225.191 431.61 225.94 431.61C226.689 431.61 227.429 431.769 228.112 432.078C228.398 432.148 228.651 432.313 228.832 432.545C229.014 432.777 229.112 433.063 229.112 433.357C229.112 433.652 229.014 433.938 228.832 434.17C228.651 434.401 228.398 434.566 228.112 434.637C227.44 434.984 226.696 435.165 225.94 435.165C225.184 435.165 224.44 434.984 223.768 434.637C223.519 434.528 223.307 434.349 223.159 434.122C223.01 433.895 222.93 433.629 222.93 433.357C222.93 433.086 223.01 432.82 223.159 432.592C223.307 432.365 223.519 432.186 223.768 432.078C224.699 431.457 222.295 432.776 223.768 432.078Z" fill="#16110D"/>
<path d="M239.281 425.563C240.522 426.261 240.522 427.347 239.281 428.045C238.61 428.392 237.865 428.573 237.109 428.573C236.354 428.573 235.609 428.392 234.937 428.045C233.697 427.347 233.697 426.261 234.937 425.563C235.609 425.216 236.354 425.036 237.109 425.036C237.865 425.036 238.61 425.216 239.281 425.563Z" fill="#16110D"/>
<path d="M148.23 464.806C148.486 464.898 148.707 465.066 148.863 465.288C149.019 465.51 149.103 465.775 149.103 466.047C149.103 466.318 149.019 466.583 148.863 466.805C148.707 467.027 148.486 467.196 148.23 467.288C147.559 467.634 146.814 467.815 146.058 467.815C145.303 467.815 144.558 467.634 143.887 467.288C142.646 466.59 142.646 465.504 143.887 464.806C144.558 464.459 145.303 464.278 146.058 464.278C146.814 464.278 147.559 464.459 148.23 464.806Z" fill="#16110D"/>
<path d="M157.46 461.393C159.173 461.393 160.562 460.595 160.562 459.61C160.562 458.624 159.173 457.826 157.46 457.826C155.747 457.826 154.358 458.624 154.358 459.61C154.358 460.595 155.747 461.393 157.46 461.393Z" fill="#16110D"/>
<path d="M170.954 451.777C171.239 451.848 171.494 452.012 171.675 452.244C171.856 452.476 171.955 452.762 171.955 453.056C171.955 453.351 171.856 453.637 171.675 453.868C171.494 454.1 171.239 454.265 170.954 454.336C170.282 454.683 169.538 454.864 168.783 454.864C168.027 454.864 167.282 454.683 166.611 454.336C166.362 454.227 166.15 454.048 166.001 453.821C165.852 453.594 165.773 453.328 165.773 453.056C165.773 452.785 165.852 452.519 166.001 452.291C166.15 452.064 166.362 451.885 166.611 451.777C167.293 451.468 168.034 451.309 168.783 451.309C169.532 451.309 170.271 451.468 170.954 451.777Z" fill="#16110D"/>
<path d="M180.183 448.287C181.896 448.287 183.285 447.488 183.285 446.503C183.285 445.518 181.896 444.719 180.183 444.719C178.469 444.719 177.08 445.518 177.08 446.503C177.08 447.488 178.469 448.287 180.183 448.287Z" fill="#16110D"/>
<path d="M193.678 438.67C193.964 438.741 194.218 438.906 194.399 439.137C194.581 439.369 194.679 439.655 194.679 439.95C194.679 440.244 194.581 440.53 194.399 440.762C194.218 440.994 193.964 441.159 193.678 441.229C192.995 441.538 192.255 441.697 191.506 441.697C190.757 441.697 190.018 441.538 189.335 441.229C189.086 441.121 188.874 440.942 188.725 440.715C188.576 440.487 188.497 440.221 188.497 439.95C188.497 439.678 188.576 439.412 188.725 439.185C188.874 438.958 189.086 438.779 189.335 438.67C190.007 438.323 190.751 438.142 191.506 438.142C192.262 438.142 193.007 438.323 193.678 438.67Z" fill="#16110D"/>
<path d="M205.079 432.078C205.365 432.148 205.619 432.313 205.8 432.545C205.982 432.777 206.08 433.063 206.08 433.357C206.08 433.652 205.982 433.938 205.8 434.17C205.619 434.401 205.365 434.566 205.079 434.637C204.408 434.984 203.664 435.165 202.908 435.165C202.152 435.165 201.408 434.984 200.736 434.637C200.487 434.528 200.275 434.349 200.127 434.122C199.978 433.895 199.898 433.629 199.898 433.357C199.898 433.086 199.978 432.82 200.127 432.592C200.275 432.365 200.487 432.186 200.736 432.078C201.419 431.769 202.159 431.61 202.908 431.61C203.657 431.61 204.396 431.769 205.079 432.078Z" fill="#16110D"/>
<path d="M148.154 451.777C148.41 451.869 148.631 452.037 148.787 452.259C148.943 452.481 149.027 452.746 149.027 453.018C149.027 453.289 148.943 453.554 148.787 453.776C148.631 453.998 148.41 454.167 148.154 454.258C147.483 454.605 146.738 454.786 145.982 454.786C145.227 454.786 144.482 454.605 143.811 454.258C142.57 453.56 142.57 452.475 143.811 451.777C144.482 451.43 145.227 451.249 145.982 451.249C146.738 451.249 147.483 451.43 148.154 451.777Z" fill="#16110D"/>
<path d="M159.476 445.185C160.717 445.883 160.717 446.968 159.476 447.666C158.805 448.013 158.061 448.194 157.305 448.194C156.55 448.194 155.805 448.013 155.134 447.666C154.878 447.575 154.656 447.406 154.5 447.184C154.344 446.962 154.261 446.697 154.261 446.426C154.261 446.154 154.344 445.889 154.5 445.667C154.656 445.445 154.878 445.276 155.134 445.185C155.805 444.838 156.55 444.657 157.305 444.657C158.061 444.657 158.805 444.838 159.476 445.185Z" fill="#16110D"/>
<path d="M170.878 438.592C171.127 438.701 171.338 438.88 171.487 439.107C171.636 439.335 171.715 439.6 171.715 439.872C171.715 440.144 171.636 440.41 171.487 440.637C171.338 440.864 171.127 441.043 170.878 441.152C170.206 441.499 169.461 441.68 168.706 441.68C167.95 441.68 167.205 441.499 166.534 441.152C166.248 441.081 165.994 440.916 165.813 440.684C165.631 440.452 165.533 440.167 165.533 439.872C165.533 439.578 165.631 439.292 165.813 439.06C165.994 438.828 166.248 438.663 166.534 438.592C167.205 438.246 167.95 438.065 168.706 438.065C169.461 438.065 170.206 438.246 170.878 438.592Z" fill="#16110D"/>
<path d="M180.107 435.102C181.82 435.102 183.209 434.304 183.209 433.319C183.209 432.334 181.82 431.535 180.107 431.535C178.393 431.535 177.004 432.334 177.004 433.319C177.004 434.304 178.393 435.102 180.107 435.102Z" fill="#16110D"/>
<path d="M193.599 425.486C194.84 426.184 194.84 427.27 193.599 427.968C192.928 428.314 192.183 428.495 191.427 428.495C190.672 428.495 189.928 428.314 189.256 427.968C189.001 427.876 188.779 427.707 188.623 427.485C188.467 427.263 188.384 426.998 188.384 426.727C188.384 426.455 188.467 426.19 188.623 425.968C188.779 425.746 189.001 425.578 189.256 425.486C189.928 425.139 190.672 424.958 191.427 424.958C192.183 424.958 192.928 425.139 193.599 425.486Z" fill="#16110D"/>
<path d="M228.266 496.758C229.507 497.379 229.507 498.542 228.266 499.24C227.595 499.587 226.851 499.768 226.096 499.768C225.34 499.768 224.595 499.587 223.924 499.24C222.76 498.542 222.76 497.379 223.924 496.758C224.595 496.411 225.34 496.23 226.096 496.23C226.851 496.23 227.595 496.411 228.266 496.758Z" fill="#16110D"/>
<path d="M239.668 490.166C239.924 490.258 240.145 490.426 240.301 490.648C240.457 490.87 240.541 491.135 240.541 491.407C240.541 491.678 240.457 491.943 240.301 492.166C240.145 492.388 239.924 492.556 239.668 492.648C238.997 492.995 238.252 493.176 237.497 493.176C236.741 493.176 235.996 492.995 235.325 492.648C234.084 491.95 234.084 490.864 235.325 490.166C235.996 489.819 236.741 489.638 237.497 489.638C238.252 489.638 238.997 489.819 239.668 490.166Z" fill="#16110D"/>
<path d="M248.82 486.598C250.533 486.598 251.922 485.8 251.922 484.815C251.922 483.83 250.533 483.031 248.82 483.031C247.106 483.031 245.717 483.83 245.717 484.815C245.717 485.8 247.106 486.598 248.82 486.598Z" fill="#16110D"/>
<path d="M262.548 477.059C263.789 477.757 263.789 478.843 262.548 479.541C261.877 479.888 261.132 480.069 260.376 480.069C259.621 480.069 258.876 479.888 258.205 479.541C256.964 478.843 256.964 477.757 258.205 477.059C258.876 476.713 259.621 476.532 260.376 476.532C261.132 476.532 261.877 476.713 262.548 477.059Z" fill="#16110D"/>
<path d="M271.619 473.492C273.332 473.492 274.721 472.693 274.721 471.708C274.721 470.723 273.332 469.924 271.619 469.924C269.906 469.924 268.517 470.723 268.517 471.708C268.517 472.693 269.906 473.492 271.619 473.492Z" fill="#16110D"/>
<path d="M285.114 463.875C285.4 463.946 285.653 464.111 285.835 464.343C286.016 464.575 286.115 464.86 286.115 465.155C286.115 465.449 286.016 465.735 285.835 465.967C285.653 466.199 285.4 466.364 285.114 466.435C284.443 466.781 283.698 466.962 282.942 466.962C282.187 466.962 281.442 466.781 280.771 466.435C280.522 466.326 280.31 466.147 280.161 465.92C280.012 465.692 279.933 465.427 279.933 465.155C279.933 464.883 280.012 464.617 280.161 464.39C280.31 464.163 280.522 463.984 280.771 463.875C281.442 463.528 282.187 463.347 282.942 463.347C283.698 463.347 284.443 463.528 285.114 463.875Z" fill="#16110D"/>
<path d="M205.544 496.758C206.708 497.379 206.708 498.542 205.544 499.24C204.873 499.587 204.128 499.768 203.373 499.768C202.617 499.768 201.872 499.587 201.201 499.24C199.96 498.542 199.96 497.379 201.201 496.758C201.872 496.411 202.617 496.23 203.373 496.23C204.128 496.23 204.873 496.411 205.544 496.758Z" fill="#16110D"/>
<path d="M216.865 490.166C218.105 490.864 218.105 491.95 216.865 492.648C216.193 492.995 215.448 493.176 214.693 493.176C213.937 493.176 213.193 492.995 212.522 492.648C212.266 492.556 212.045 492.388 211.889 492.166C211.732 491.943 211.649 491.678 211.649 491.407C211.649 491.135 211.732 490.87 211.889 490.648C212.045 490.426 212.266 490.258 212.522 490.166C213.193 489.819 213.937 489.638 214.693 489.638C215.448 489.638 216.193 489.819 216.865 490.166Z" fill="#16110D"/>
<path d="M228.266 483.574C228.552 483.645 228.806 483.809 228.987 484.041C229.169 484.273 229.268 484.559 229.268 484.853C229.268 485.148 229.169 485.434 228.987 485.666C228.806 485.898 228.552 486.062 228.266 486.133C227.595 486.48 226.851 486.661 226.095 486.661C225.34 486.661 224.595 486.48 223.924 486.133C223.674 486.024 223.463 485.846 223.314 485.618C223.165 485.391 223.086 485.125 223.086 484.853C223.086 484.582 223.165 484.316 223.314 484.088C223.463 483.861 223.674 483.682 223.924 483.574C224.595 483.227 225.34 483.046 226.095 483.046C226.851 483.046 227.595 483.227 228.266 483.574Z" fill="#16110D"/>
<path d="M239.668 477.059C239.924 477.151 240.145 477.32 240.301 477.542C240.457 477.764 240.541 478.029 240.541 478.3C240.541 478.572 240.457 478.837 240.301 479.059C240.145 479.281 239.924 479.449 239.668 479.541C238.997 479.888 238.252 480.069 237.497 480.069C236.741 480.069 235.996 479.888 235.325 479.541C234.084 478.843 234.084 477.757 235.325 477.059C235.996 476.713 236.741 476.532 237.497 476.532C238.252 476.532 238.997 476.713 239.668 477.059Z" fill="#16110D"/>
<path d="M250.989 470.467C252.23 471.165 252.23 472.251 250.989 472.949C250.318 473.296 249.573 473.477 248.818 473.477C248.062 473.477 247.317 473.296 246.646 472.949C246.39 472.857 246.17 472.689 246.013 472.467C245.857 472.244 245.773 471.98 245.773 471.708C245.773 471.436 245.857 471.172 246.013 470.949C246.17 470.727 246.39 470.559 246.646 470.467C247.317 470.12 248.062 469.939 248.818 469.939C249.573 469.939 250.318 470.12 250.989 470.467Z" fill="#16110D"/>
<path d="M260.22 466.9C261.934 466.9 263.323 466.101 263.323 465.116C263.323 464.131 261.934 463.332 260.22 463.332C258.507 463.332 257.119 464.131 257.119 465.116C257.119 466.101 258.507 466.9 260.22 466.9Z" fill="#16110D"/>
<path d="M273.79 457.05C274.046 457.142 274.267 457.31 274.423 457.533C274.58 457.755 274.663 458.02 274.663 458.291C274.663 458.563 274.58 458.828 274.423 459.05C274.267 459.272 274.046 459.44 273.79 459.532C273.119 459.879 272.375 460.06 271.619 460.06C270.864 460.06 270.119 459.879 269.447 459.532C268.207 458.834 268.207 457.748 269.447 457.05C270.119 456.703 270.864 456.522 271.619 456.522C272.375 456.522 273.119 456.703 273.79 457.05Z" fill="#16110D"/>
<path d="M282.942 453.793C284.655 453.793 286.045 452.994 286.045 452.009C286.045 451.024 284.655 450.225 282.942 450.225C281.229 450.225 279.84 451.024 279.84 452.009C279.84 452.994 281.229 453.793 282.942 453.793Z" fill="#16110D"/>
<path d="M143.037 402.995V320.943L212.913 361.659V443.789L143.037 402.995Z" fill="#36A9E1"/>
<path d="M143.037 320.942L217.101 277.667L287.986 317.995L212.913 361.658L143.037 320.942Z" fill="#36A9E1"/>
<path d="M143.037 326.061L217.101 282.863L287.986 323.191L212.835 366.777L143.037 326.061Z" fill="white"/>
<path d="M289.069 318.693V317.453L287.983 316.755L217.098 276.426L143.034 319.702L141.87 320.322V321.64V403.771L211.669 444.487L212.755 445.184L213.918 444.487L288.991 400.823L289.069 318.693ZM145.283 320.942L217.098 278.986L285.656 317.763L212.755 360.03L173.202 336.764L145.283 320.942ZM144.119 402.374V322.881L173.823 340.254L211.746 362.279V441.539L144.119 402.374Z" fill="#16110D"/>
<path d="M263.09 366.234L240.6 379.263C237.575 381.047 235.015 379.263 235.015 375.075C235.051 372.991 235.576 370.945 236.545 369.099C237.515 367.254 238.904 365.662 240.6 364.45L263.09 351.421C266.192 349.638 268.675 351.421 268.675 355.609C268.645 357.695 268.124 359.744 267.153 361.59C266.183 363.436 264.791 365.027 263.09 366.234Z" fill="white"/>
<path d="M240.6 364.528C238.913 365.748 237.53 367.342 236.561 369.186C235.593 371.029 235.063 373.071 235.015 375.153C235.015 375.696 235.481 376.084 235.559 376.549L236.334 376.161L258.825 363.132C260.526 361.925 261.917 360.334 262.887 358.488C263.858 356.641 264.379 354.593 264.409 352.507C264.451 352.017 264.451 351.524 264.409 351.034C263.997 351.12 263.603 351.278 263.245 351.499L240.6 364.528Z" fill="#36A9E1"/>
<path d="M267.356 350.103C266.7 349.721 265.939 349.558 265.184 349.638C264.328 349.681 263.5 349.948 262.78 350.413L240.289 363.365C238.394 364.679 236.842 366.428 235.763 368.466C234.683 370.503 234.107 372.77 234.084 375.076C233.999 376.106 234.183 377.141 234.618 378.079C235.053 379.017 235.725 379.826 236.567 380.427C237.185 380.769 237.877 380.955 238.583 380.97C239.57 380.918 240.528 380.625 241.375 380.117L263.866 367.087C265.74 365.777 267.274 364.038 268.34 362.014C269.406 359.99 269.972 357.741 269.992 355.454C270.038 354.413 269.821 353.376 269.36 352.441C268.899 351.506 268.209 350.702 267.356 350.103ZM236.334 374.533C236.461 372.763 236.97 371.042 237.827 369.489C238.684 367.936 239.868 366.587 241.297 365.536L263.323 352.817C263.24 354.64 262.753 356.422 261.894 358.032C261.035 359.642 259.827 361.04 258.359 362.124L236.334 374.843V374.533ZM262.625 365.226L240.134 378.255C239.754 378.466 239.327 378.576 238.893 378.576C238.459 378.576 238.032 378.466 237.653 378.255C237.225 377.944 236.901 377.512 236.722 377.014L259.212 363.985C261.086 362.675 262.621 360.935 263.687 358.912C264.753 356.888 265.319 354.639 265.339 352.352C265.371 352.173 265.371 351.989 265.339 351.809H266.037C266.511 352.25 266.878 352.794 267.107 353.399C267.335 354.005 267.42 354.655 267.356 355.299C267.374 357.213 266.949 359.104 266.115 360.826C265.281 362.548 264.06 364.054 262.547 365.226H262.625Z" fill="#16110D"/>
<path d="M245.948 295.427L171.263 338.702V360.107L188.17 370.034V348.474L263.01 305.199L245.948 295.427Z" fill="#36A9E1"/>
<path d="M262.081 301.942L242.693 290.929L168.009 334.204L166.845 334.825V336.143V357.626L186.079 368.794V345.527L262.081 301.942ZM242.693 293.566L257.506 301.942L184.915 343.976L170.335 335.523L242.693 293.566ZM169.482 356.23V337.384L184.14 345.838V364.761L169.482 356.23Z" fill="#16110D"/>
<path d="M200.504 426.959L186.234 418.738C185.36 418.049 184.644 417.18 184.135 416.19C183.627 415.2 183.338 414.111 183.287 412.999V398.729C183.287 396.48 184.606 395.472 186.234 396.48L200.504 404.701C201.401 405.351 202.134 406.201 202.645 407.184C203.157 408.167 203.433 409.255 203.451 410.362V424.71C203.529 426.882 202.21 427.89 200.504 426.959Z" fill="white"/>
<path d="M199.182 423.392C198.56 423.374 197.95 423.214 197.398 422.926L183.206 414.705C182.115 413.948 181.222 412.94 180.601 411.766C179.98 410.592 179.65 409.286 179.639 407.958V393.688C179.581 393.034 179.692 392.376 179.964 391.778C180.236 391.179 180.658 390.662 181.19 390.276C181.664 390.011 182.198 389.872 182.741 389.872C183.284 389.872 183.818 390.011 184.292 390.276L198.562 398.497C199.653 399.254 200.547 400.262 201.167 401.436C201.788 402.61 202.118 403.916 202.129 405.244V419.514C202.171 420.174 202.044 420.835 201.759 421.432C201.474 422.029 201.041 422.544 200.501 422.926C200.113 423.201 199.656 423.362 199.182 423.392ZM182.585 392.37C182.585 392.37 182.12 392.99 182.12 393.766V408.036C182.141 408.954 182.368 409.856 182.784 410.675C183.2 411.494 183.794 412.209 184.524 412.767L198.795 420.987C198.91 421.064 199.044 421.105 199.182 421.105C199.32 421.105 199.455 421.064 199.57 420.987C199.57 420.987 200.035 420.367 200.035 419.591V405.321C200.032 404.4 199.814 403.492 199.396 402.67C198.978 401.849 198.374 401.136 197.631 400.591L183.439 392.37C183.177 392.234 182.879 392.18 182.585 392.215V392.37Z" fill="#16110D"/>
<path d="M215.471 293.488C196.78 293.488 182.2 307.758 182.2 320.089C182.2 332.42 197.168 342.89 215.471 342.89C233.774 342.89 248.741 332.653 248.741 320.089C248.741 307.525 234.239 293.488 215.471 293.488Z" fill="#16110D"/>
<path d="M215.472 331.723C230.678 331.723 243.004 323.424 243.004 313.187C243.004 302.95 230.678 294.652 215.472 294.652C200.267 294.652 187.94 302.95 187.94 313.187C187.94 323.424 200.267 331.723 215.472 331.723Z" fill="#36A9E1"/>
<path d="M243.002 318.228C239.755 322.43 235.589 325.831 230.823 328.171C226.057 330.512 220.819 331.729 215.509 331.729C210.2 331.729 204.961 330.512 200.195 328.171C195.429 325.831 191.263 322.43 188.016 318.228C188.016 307.991 200.27 299.693 215.471 299.693C230.671 299.693 243.002 307.991 243.002 318.228Z" fill="white"/>
<path d="M215.472 332.963C199.961 332.963 186.854 324.122 186.854 313.264C186.854 302.407 199.729 293.566 215.472 293.566C231.216 293.566 244.167 302.407 244.167 313.264C244.167 324.122 231.526 332.963 215.472 332.963ZM215.472 295.892C200.969 295.892 189.103 303.648 189.103 313.264C189.103 322.881 200.969 330.714 215.472 330.714C229.975 330.714 241.84 322.959 241.84 313.264C241.84 303.57 230.052 295.815 215.472 295.815V295.892Z" fill="#16110D"/>
<path d="M215.471 197.088C214.894 197.088 214.323 197.203 213.791 197.426C213.259 197.649 212.776 197.976 212.372 198.388C211.967 198.799 211.649 199.287 211.435 199.823C211.222 200.359 211.117 200.932 211.128 201.509V310.085C211.117 310.665 211.222 311.242 211.434 311.783C211.647 312.323 211.965 312.816 212.368 313.234C212.771 313.651 213.253 313.986 213.785 314.217C214.318 314.449 214.891 314.573 215.471 314.583C216.651 314.563 217.774 314.08 218.601 313.238C219.428 312.397 219.892 311.265 219.891 310.085V201.509C219.891 200.336 219.425 199.212 218.596 198.383C217.767 197.554 216.644 197.088 215.471 197.088Z" fill="#16110D"/>
<path d="M103.713 93.8632L106.427 60.7476H68.6582L71.3724 93.8632C71.3724 93.8632 71.3724 94.4061 71.3724 94.7163V95.4144C72.9561 98.2043 75.2511 100.525 78.0235 102.139C80.7959 103.753 83.9469 104.603 87.155 104.603C90.3631 104.603 93.5136 103.753 96.286 102.139C99.0584 100.525 101.353 98.2043 102.937 95.4144V94.7163C102.937 94.7163 102.937 94.1734 102.937 93.8632H103.713Z" fill="#36A9E1"/>
<path d="M68.6604 59.662H107.438L103.948 93.7859V94.5614L103.482 96.5003C101.708 99.3201 99.2488 101.644 96.3327 103.255C93.4166 104.865 90.1397 105.71 86.8084 105.71C83.477 105.71 80.2001 104.865 77.284 103.255C74.3679 101.644 71.9078 99.3201 70.134 96.5003V94.7165C70.0753 94.409 70.0753 94.0933 70.134 93.7859L67.4198 60.9028C67.4083 60.7369 67.4325 60.5705 67.4908 60.4147C67.5491 60.259 67.6401 60.1175 67.7577 59.9999C67.8753 59.8823 68.0166 59.7913 68.1724 59.733C68.3282 59.6747 68.4945 59.6505 68.6604 59.662Z" fill="#16110D"/>
<path d="M106.427 60.7478C106.427 67.7277 98.0514 73.3891 87.6591 73.3891C77.2668 73.3891 68.6582 67.7277 68.6582 60.7478C69.6454 56.521 72.0334 52.7525 75.4338 50.0548C78.8342 47.3571 83.0469 45.8889 87.3874 45.8889C91.7279 45.8889 95.9411 47.3571 99.3415 50.0548C102.742 52.7525 105.13 56.521 106.117 60.7478H106.427Z" fill="#36A9E1"/>
<path d="M87.66 74.5525C76.7249 74.5525 67.8062 68.3481 67.8062 60.7478C68.8283 56.2358 71.3538 52.2053 74.9685 49.3178C78.5832 46.4304 83.0725 44.8577 87.6989 44.8577C92.3252 44.8577 96.814 46.4304 100.429 49.3178C104.043 52.2053 106.569 56.2358 107.592 60.7478C107.436 68.3481 98.6728 74.5525 87.66 74.5525ZM87.66 47.0982C83.577 46.8866 79.5538 48.1483 76.3227 50.6535C73.0916 53.1586 70.8673 56.7408 70.0551 60.7478C70.0551 67.1073 77.8106 72.3034 87.66 72.3034C97.5094 72.3034 105.265 67.1073 105.265 60.7478C104.452 56.7408 102.228 53.1586 98.9973 50.6535C95.7662 48.1483 91.7431 46.8866 87.66 47.0982Z" fill="#16110D"/>
<path d="M103.716 56.7924C103.716 62.7641 96.5805 67.5725 87.6617 67.5725C78.743 67.5725 71.6855 62.7641 71.6855 56.7924C71.6855 50.8207 78.8205 45.9348 87.6617 45.9348C96.5029 45.9348 103.716 50.8207 103.716 56.7924Z" fill="white"/>
<path d="M87.6616 68.7357C78.2 68.7357 70.522 63.3845 70.522 56.7924C70.522 50.2003 78.2776 44.849 87.6616 44.849C97.0457 44.849 104.878 50.2003 104.878 56.7924C104.878 63.3845 97.2008 68.7357 87.6616 68.7357ZM87.6616 47.0981C79.5184 47.0981 72.7714 51.4411 72.7714 56.7924C72.7714 62.1436 79.5184 66.4867 87.6616 66.4867C95.8049 66.4867 102.63 62.1436 102.63 56.7924C102.63 51.4411 95.8824 47.0981 87.6616 47.0981Z" fill="#16110D"/>
<path d="M91.9269 46.0124C90.531 45.6246 89.6778 46.943 88.9798 47.9513C88.6955 48.3836 88.3847 48.7981 88.0492 49.1922C88.0492 49.1922 87.3512 48.339 87.041 47.9513C86.7308 47.5635 85.4123 45.7022 84.0939 46.0124C82.2649 46.9185 80.6985 48.2782 79.5445 49.9617C78.3904 51.6452 77.6874 53.5964 77.502 55.6291C77.502 59.1966 82.155 62.0661 87.9716 62.0661C93.7882 62.0661 98.5189 59.1966 98.5189 55.6291C98.2087 53.7678 95.4169 47.0982 91.9269 46.0124Z" fill="#16110D"/>
<path d="M3.51476 54.4657C1.18813 54.4657 -0.207469 55.7841 0.0251943 57.4128C1.92474 64.4925 6.19516 70.7066 12.1236 75.0176C18.8787 81.0906 26.793 85.7336 35.3899 88.6671C36.3978 89.1843 37.5143 89.454 38.6471 89.454C39.7799 89.454 40.8964 89.1843 41.9042 88.6671L84.1714 52.837C85.2572 51.9064 83.1633 50.1226 81.302 50.2002L3.51476 54.4657Z" fill="white"/>
<path d="M45.3958 99.3698H43.767C34.5363 98.2175 25.6407 95.182 17.6312 90.4511C10.8232 87.2296 5.34187 81.7483 2.12037 74.9402C1.92668 74.5277 1.82642 74.0775 1.82642 73.6218C1.82642 73.166 1.92668 72.7159 2.12037 72.3034C2.48857 71.6699 2.99241 71.1258 3.59581 70.7101C4.19921 70.2944 4.8873 70.0175 5.61041 69.8992L80.9935 50.0452C81.8286 49.817 82.7119 49.8346 83.5373 50.096C84.3627 50.3574 85.095 50.8514 85.6465 51.5188C85.8918 51.8424 86.0247 52.2373 86.0247 52.6434C86.0247 53.0494 85.8918 53.4443 85.6465 53.7679L51.29 97.2759C50.5346 98.0544 49.6099 98.6483 48.5876 99.0115C47.5654 99.3746 46.4731 99.4972 45.3958 99.3698ZM82.0012 52.0617H81.4588L6.61865 71.9931C5.82939 72.1763 5.12135 72.612 4.60216 73.234C4.52729 73.3637 4.48809 73.5108 4.48809 73.6606C4.48809 73.8103 4.52729 73.9574 4.60216 74.0871C5.53282 76.724 8.71281 81.8425 19.4153 88.3571C27.1474 92.9038 35.7225 95.8325 44.6205 96.9656C45.531 97.1706 46.4753 97.1727 47.3867 96.9716C48.2982 96.7706 49.1543 96.3713 49.8941 95.8023L84.0953 52.527C83.5792 52.1557 82.9435 51.9898 82.3117 52.0617H82.0012Z" fill="#16110D"/>
<path d="M170.491 46.0124C172.818 46.0124 174.291 44.7715 174.058 43.1429C172.317 36.073 168.144 29.8411 162.27 25.5381C155.536 19.399 147.619 14.7013 139.004 11.7334C137.996 11.2163 136.88 10.9465 135.747 10.9465C134.614 10.9465 133.497 11.2163 132.489 11.7334L89.4467 47.0982C88.361 47.9513 90.3773 49.8126 92.3162 49.6575L170.491 46.0124Z" fill="white"/>
<path d="M91.3084 50.3554C90.6294 50.3709 89.9557 50.2324 89.3379 49.9504C88.72 49.6683 88.1743 49.25 87.7412 48.7268C87.4959 48.4032 87.363 48.0084 87.363 47.6023C87.363 47.1962 87.4959 46.8013 87.7412 46.4777L122.951 3.27997C123.937 2.26963 125.181 1.54788 126.548 1.19254C127.914 0.837188 129.352 0.86177 130.706 1.2636C139.892 2.4948 148.732 5.58202 156.687 10.3374C163.506 13.5428 168.992 19.0289 172.198 25.8483C172.372 26.2659 172.463 26.714 172.463 27.1667C172.463 27.6194 172.372 28.0676 172.198 28.4851C171.371 29.7247 170.09 30.5886 168.63 30.8893L92.7044 50.2779L91.3084 50.3554ZM89.8349 47.6411C90.1215 47.8506 90.4509 47.994 90.7996 48.061C91.1482 48.1281 91.5075 48.1171 91.8514 48.0288L167.777 28.6403C168.609 28.5128 169.36 28.068 169.871 27.3994C169.927 27.2777 169.956 27.1455 169.956 27.0116C169.956 26.8778 169.927 26.7455 169.871 26.6238C169.018 23.987 165.916 18.8684 155.291 12.2763C147.608 7.65721 139.053 4.67372 130.163 3.51262C129.253 3.30766 128.308 3.30566 127.397 3.5067C126.486 3.70775 125.629 4.10693 124.89 4.67595L89.8349 47.6411Z" fill="#16110D"/>
<path d="M87.6625 53.923C91.2604 53.923 94.1768 52.2911 94.1768 50.278C94.1768 48.2649 91.2604 46.6329 87.6625 46.6329C84.0646 46.6329 81.1477 48.2649 81.1477 50.278C81.1477 52.2911 84.0646 53.923 87.6625 53.923Z" fill="white"/>
<path d="M87.6619 55.0863C83.3964 55.0863 79.9065 52.9148 79.9065 50.278C79.9065 47.6411 83.2413 45.4696 87.6619 45.4696C92.0825 45.4696 95.4174 47.5636 95.4174 50.278C95.4174 52.9924 91.9274 55.0863 87.6619 55.0863ZM87.6619 47.3309C84.6373 47.3309 82.3107 48.6493 82.3107 49.8902C82.3107 51.1311 84.6373 52.3719 87.6619 52.3719C90.6865 52.3719 93.0132 51.0535 93.0132 49.8902C93.0132 48.7269 90.7641 47.7187 87.6619 47.7187V47.3309Z" fill="#16110D"/>
<path d="M355.61 93.3206L358.325 60.205H320.866L323.58 93.3206C323.58 93.3206 323.58 93.9411 323.58 94.2513V94.9493C324.88 97.9136 327.074 100.397 329.855 102.052C332.637 103.707 335.866 104.451 339.091 104.178C342.316 104.451 345.546 103.707 348.327 102.052C351.109 100.397 353.303 97.9136 354.602 94.9493V94.2513C354.64 93.9422 354.64 93.6297 354.602 93.3206H355.61Z" fill="#36A9E1"/>
<path d="M321.1 59.0416H359.877L356.464 93.1655V94.0186L356 95.8799C354.226 98.6997 351.765 101.024 348.849 102.634C345.933 104.245 342.657 105.09 339.325 105.09C335.994 105.09 332.716 104.245 329.8 102.634C326.884 101.024 324.425 98.6997 322.651 95.8799V94.1736C322.586 93.8407 322.586 93.4984 322.651 93.1655L319.937 60.36C319.914 60.1947 319.928 60.0266 319.976 59.867C320.025 59.7075 320.107 59.5602 320.217 59.4351C320.327 59.3101 320.463 59.2102 320.615 59.1423C320.768 59.0744 320.933 59.0401 321.1 59.0416Z" fill="#16110D"/>
<path d="M358.634 60.2047C358.634 67.1846 350.258 72.846 339.866 72.846C329.474 72.846 321.176 67.1846 321.176 60.2047C322.163 55.9779 324.55 52.2094 327.951 49.5117C331.351 46.814 335.564 45.3458 339.905 45.3458C344.245 45.3458 348.458 46.814 351.859 49.5117C355.259 52.2094 357.647 55.9779 358.634 60.2047Z" fill="#36A9E1"/>
<path d="M340.099 74.0094C329.164 74.0094 320.245 67.805 320.245 60.2047C321.267 55.6927 323.793 51.6622 327.408 48.7748C331.023 45.8873 335.512 44.3146 340.138 44.3146C344.765 44.3146 349.254 45.8873 352.869 48.7748C356.483 51.6622 359.008 55.6927 360.031 60.2047C359.798 67.805 350.88 74.0094 340.099 74.0094ZM340.099 46.5551C336.016 46.3436 331.993 47.6052 328.762 50.1104C325.531 52.6156 323.307 56.1977 322.494 60.2047C322.494 66.5642 330.25 71.6827 340.099 71.6827C349.949 71.6827 357.704 66.5642 357.704 60.2047C356.892 56.1977 354.668 52.6156 351.437 50.1104C348.206 47.6052 344.183 46.3436 340.099 46.5551Z" fill="#16110D"/>
<path d="M355.612 56.1718C355.612 62.221 348.478 67.0294 339.559 67.0294C330.64 67.0294 323.505 62.221 323.505 56.1718C323.505 50.1225 330.718 45.3917 339.559 45.3917C348.4 45.3917 355.612 50.2001 355.612 56.1718Z" fill="white"/>
<path d="M340.1 68.1928C330.639 68.1928 322.961 62.8416 322.961 56.1719C322.961 49.5022 330.716 44.2285 340.1 44.2285C349.484 44.2285 357.317 49.5798 357.317 56.1719C357.317 62.764 349.407 68.1928 340.1 68.1928ZM340.1 46.5552C331.879 46.5552 325.209 50.8982 325.209 56.1719C325.209 61.4456 331.879 65.8662 340.1 65.8662C348.321 65.8662 354.991 61.5231 354.991 56.1719C354.991 50.8206 347.856 46.5552 340.1 46.5552Z" fill="#16110D"/>
<path d="M343.824 45.5471C342.428 45.5471 341.497 46.4002 340.799 47.486C340.563 47.9309 340.277 48.3472 339.946 48.7268C339.536 48.3792 339.194 47.9585 338.938 47.486C338.24 46.4778 337.309 45.2369 335.913 45.5471C331.958 46.5554 329.399 52.7597 329.399 55.1639C329.399 57.5681 334.052 61.5233 339.868 61.5233C345.685 61.5233 350.338 58.7314 350.338 55.1639C350.338 52.8372 347.856 46.5554 343.824 45.5471Z" fill="#16110D"/>
<path d="M295.896 10.4924C294.952 9.90923 293.88 9.56242 292.773 9.48142C291.666 9.40041 290.556 9.58762 289.536 10.0271C280.967 12.983 273.061 17.5944 266.27 23.5991C260.371 27.838 256.102 33.9687 254.172 40.9713C254.172 42.6775 255.258 43.8408 257.662 44.0735L335.216 49.2696C337.155 49.2696 339.171 47.641 338.163 46.7879L295.896 10.4924Z" fill="white"/>
<path d="M335.99 49.6574H334.827L259.522 29.8035C258.81 29.6532 258.136 29.3633 257.537 28.9506C256.938 28.538 256.426 28.0107 256.032 27.3993C255.683 26.5283 255.683 25.556 256.032 24.6849C259.264 17.8843 264.743 12.4061 271.543 9.17406C279.602 4.47601 288.511 1.41853 297.757 0.177729C299.026 -0.0988434 300.344 -0.0519992 301.591 0.313878C302.837 0.679755 303.972 1.35297 304.891 2.27173L339.326 45.7797C339.577 46.1153 339.713 46.5235 339.713 46.943C339.713 47.3625 339.577 47.7707 339.326 48.1063C338.924 48.6016 338.415 48.9988 337.837 49.2676C337.259 49.5364 336.628 49.6697 335.99 49.6574ZM299.307 2.27173H298.066C289.14 3.54066 280.536 6.48793 272.707 10.9578C266.348 13.9204 261.181 18.9506 258.049 25.2278C257.991 25.3626 257.961 25.5077 257.961 25.6544C257.961 25.801 257.991 25.9461 258.049 26.0809C258.538 26.7509 259.255 27.2196 260.065 27.3993L335.448 47.1757C336.095 47.4346 336.817 47.4346 337.464 47.1757L303.185 3.82279C302.687 3.30218 302.084 2.89437 301.415 2.6268C300.746 2.35924 300.027 2.23817 299.307 2.27173Z" fill="#16110D"/>
<path d="M383.608 88.8998C384.538 89.4825 385.597 89.8295 386.691 89.9105C387.786 89.9916 388.884 89.8044 389.89 89.3651C398.633 86.5054 406.724 81.9458 413.699 75.9483C419.689 71.7523 424.045 65.6153 426.03 58.5761C426.03 56.8699 424.945 55.629 422.618 55.4739L345.064 49.6573C343.125 49.6573 341.108 51.286 342.117 52.1391L383.608 88.8998Z" fill="white"/>
<path d="M380.197 99.292C379.14 99.3743 378.078 99.2224 377.086 98.847C376.094 98.4717 375.197 97.8821 374.458 97.1205L340.877 53.3023C340.647 52.958 340.524 52.5531 340.524 52.139C340.524 51.7249 340.647 51.32 340.877 50.9757C341.437 50.322 342.174 49.8429 342.999 49.5955C343.824 49.348 344.702 49.3425 345.53 49.5797L420.37 69.8989C421.074 70.042 421.741 70.3295 422.329 70.7433C422.916 71.1571 423.411 71.6882 423.783 72.3031C423.973 72.7303 424.072 73.1927 424.072 73.6603C424.072 74.128 423.973 74.5903 423.783 75.0175C420.561 81.8256 415.08 87.3068 408.272 90.5284C400.188 95.2046 391.248 98.211 381.981 99.3695L380.197 99.292ZM376.32 95.7245C377.006 96.3076 377.819 96.7232 378.694 96.9386C379.569 97.1539 380.481 97.1631 381.36 96.9654C390.323 95.8471 398.973 92.9465 406.798 88.4344C413.232 85.5083 418.502 80.5118 421.766 74.242C421.887 73.9435 421.887 73.6098 421.766 73.3113C421.766 72.7684 420.836 72.3807 419.828 72.0704L344.987 51.7512C344.644 51.6629 344.284 51.652 343.936 51.719C343.587 51.7861 343.258 51.9295 342.971 52.139L376.32 95.7245Z" fill="#16110D"/>
<path d="M346.382 49.6573C346.382 51.6737 343.512 53.3798 339.867 53.3798C336.222 53.3798 333.43 51.6737 333.43 49.6573C333.43 47.6409 336.3 46.0122 339.867 46.0122C343.435 46.0122 346.382 47.6409 346.382 49.6573Z" fill="white"/>
<path d="M340.1 54.4657C335.834 54.4657 332.344 52.3718 332.344 49.6574C332.344 46.943 335.679 44.849 340.1 44.849C344.52 44.849 347.855 46.943 347.855 49.6574C347.855 52.3718 344.132 54.4657 340.1 54.4657ZM340.1 47.1757C337.075 47.1757 334.749 48.4941 334.749 49.6574C334.749 50.8207 337.075 52.2167 340.1 52.2167C343.124 52.2167 345.45 50.8983 345.45 49.6574C345.45 48.4165 342.969 47.1757 340.1 47.1757Z" fill="#16110D"/>
<path d="M167.851 146.833L94.0966 87.3489C93.1229 86.6071 92.4573 85.5317 92.2283 84.3292C91.9993 83.1268 92.2226 81.8821 92.8555 80.8343C93.4773 79.7487 94.4809 78.9332 95.6705 78.5462C96.8602 78.1592 98.1511 78.2284 99.2926 78.7403L183.749 118.293L180.337 126.048L120 97.7411L170.487 138.457L167.851 146.833Z" fill="#16110D"/>
<path d="M168.242 148.384L93.5571 88.1244C92.4362 87.2117 91.6789 85.9278 91.4228 84.5052C91.1667 83.0825 91.4289 81.6153 92.1612 80.369C92.8852 79.0362 94.1012 78.0389 95.55 77.5898C96.9987 77.1407 98.5657 77.2753 99.9166 77.9648L185.226 117.905L181.116 126.747L124.501 100.3L171.033 137.992L168.242 148.384ZM97.2796 79.2057C96.5429 79.2102 95.82 79.4055 95.1812 79.7725C94.5424 80.1394 94.0093 80.6656 93.6343 81.2997C93.0757 82.1751 92.8693 83.2295 93.0563 84.251C93.2434 85.2725 93.81 86.1853 94.6425 86.806L167.389 145.515L169.483 139.078L119.46 98.6718C119.373 98.5854 119.304 98.4826 119.257 98.3695C119.21 98.2563 119.186 98.1351 119.186 98.0126C119.186 97.8901 119.21 97.7688 119.257 97.6557C119.304 97.5426 119.373 97.4399 119.46 97.3534C119.642 97.2266 119.859 97.1587 120.081 97.1587C120.302 97.1587 120.519 97.2266 120.701 97.3534L180.263 125.351L183.055 119.456L99.3737 80.6792C98.8934 79.9349 98.1424 79.4064 97.2796 79.2057Z" fill="#36A9E1"/>
<path d="M264.406 144.739L259.287 138.457L310.628 96.9656L249.283 125.738L245.871 117.983L330.094 78.4301C331.234 77.9157 332.523 77.8359 333.717 78.2059C334.911 78.576 335.928 79.3702 336.577 80.4387C337.225 81.5073 337.461 82.7763 337.238 84.0064C337.016 85.2365 336.351 86.3427 335.369 87.1162L264.406 144.739Z" fill="#16110D"/>
<path d="M264.251 145.902L258.125 138.147L258.745 137.682L305.277 100.378L249.128 126.669L244.94 117.828L330.249 77.9648C331.591 77.269 333.151 77.1228 334.599 77.5571C336.046 77.9914 337.268 78.972 338.005 80.2913C338.762 81.5374 339.031 83.0198 338.758 84.4522C338.486 85.8846 337.693 87.1653 336.532 88.0468L264.251 145.902ZM260.451 138.612L264.484 143.576L334.748 86.8835C335.571 86.239 336.133 85.3197 336.332 84.294C336.531 83.2684 336.354 82.2053 335.833 81.2996C335.31 80.3837 334.46 79.6991 333.453 79.3828C332.447 79.0665 331.358 79.1417 330.405 79.5934L246.879 118.371L249.593 124.265L310.861 95.492L311.714 96.6553L311.171 97.1982L260.451 138.612Z" fill="#36A9E1"/>
<path d="M263.09 160.715C255.334 147.919 236.954 139.62 216.557 139.62C196.16 139.62 175.997 148.849 168.862 162.887L162.424 159.862L166.38 179.018C169.792 197.011 191.74 211.203 216.248 211.203C240.755 211.203 262.16 197.631 266.503 180.181V178.785L270.225 160.793L263.09 160.715Z" fill="#16110D"/>
<path d="M268.749 151.409L268.283 149.935L265.103 138.767H261.691C249.202 127.821 233.16 121.787 216.554 121.787C199.947 121.787 183.906 127.821 171.418 138.767H167.307L164.282 151.641C164.255 151.847 164.255 152.056 164.282 152.262C163.974 153.872 163.818 155.508 163.817 157.148C163.817 176.924 187.083 192.9 216.787 192.9C246.49 192.9 269.757 176.924 269.757 157.148C269.663 155.2 269.324 153.272 268.749 151.409Z" fill="#36A9E1"/>
<path d="M216.482 193.986C186.623 193.986 162.194 177.467 162.194 157.07C162.079 155.832 162.079 154.586 162.194 153.348L162.659 151.176L165.916 137.216H170.492C183.167 126.278 199.351 120.26 216.094 120.26C232.836 120.26 249.021 126.278 261.696 137.216H265.573L268.985 149.237C268.985 149.703 268.985 150.168 268.985 150.711L269.529 152.495C269.835 154.001 269.99 155.533 269.994 157.07C270.304 177.855 246.34 193.986 216.482 193.986ZM165.218 152.029C164.851 153.553 164.669 155.115 164.675 156.682C164.675 175.761 187.941 191.272 216.559 191.272C245.176 191.272 268.365 175.761 268.365 156.682C268.35 154.856 268.143 153.036 267.745 151.254L267.279 149.78L264.332 139.465H261.23C248.979 128.722 233.241 122.798 216.947 122.798C200.652 122.798 184.914 128.722 172.663 139.465H169.018L165.218 152.029Z" fill="#16110D"/>
<path d="M265.648 143.421C265.648 161.879 243.468 176.847 216.168 176.847C188.869 176.847 166.689 161.879 166.689 143.421C166.689 124.963 188.792 110.072 216.168 110.072C243.545 110.072 265.648 125.04 265.648 143.421Z" fill="#36A9E1"/>
<path d="M216.015 177.855C188.095 177.855 165.372 162.344 165.372 143.343C165.372 124.342 188.095 108.831 216.015 108.831C243.934 108.831 266.658 124.342 266.658 143.343C266.658 162.344 244.089 177.855 216.015 177.855ZM216.015 111.158C189.336 111.158 167.621 125.583 167.621 143.343C167.621 161.103 189.336 175.606 216.015 175.606C242.693 175.606 264.331 161.181 264.331 143.343C264.331 125.506 242.771 111.236 216.015 111.236V111.158Z" fill="#16110D"/>
<path d="M216.479 102.55C192.515 102.55 173.978 120.697 173.978 136.363C173.978 152.029 193.057 165.369 216.479 165.369C239.9 165.369 258.901 152.339 258.901 136.363C258.901 120.387 240.366 102.55 216.479 102.55Z" fill="#16110D"/>
<path d="M251.843 127.522C251.843 140.706 236.333 151.409 216.479 151.409C196.625 151.409 181.114 140.706 181.114 127.522C181.114 114.338 196.625 103.713 216.479 103.713C236.333 103.713 251.843 114.338 251.843 127.522Z" fill="#36A9E1"/>
<path d="M251.533 134.502C247.216 139.637 241.86 143.8 235.818 146.714C229.776 149.628 223.185 151.228 216.479 151.409C209.625 151.356 202.875 149.735 196.745 146.67C190.615 143.605 185.268 139.177 181.114 133.727C181.114 122.714 196.625 111.546 216.168 111.546C235.712 111.546 251.533 121.318 251.533 134.502Z" fill="white"/>
<path d="M216.479 152.495C196.315 152.495 179.95 141.327 179.95 127.522C179.95 113.717 196.315 102.55 216.479 102.55C236.643 102.55 252.929 113.717 252.929 127.522C252.929 141.327 236.565 152.495 216.479 152.495ZM216.479 104.799C197.555 104.799 182.277 115.036 182.277 127.522C182.277 140.008 197.788 150.245 216.479 150.245C235.169 150.245 250.679 140.008 250.679 127.522C250.679 115.036 235.324 104.799 216.479 104.799Z" fill="#16110D"/>
<path d="M335.448 260.217C334.265 260.195 333.12 259.787 332.191 259.054L252.62 198.484C252.188 198.171 251.823 197.773 251.549 197.315C251.275 196.857 251.096 196.348 251.024 195.819C250.951 195.29 250.987 194.752 251.128 194.237C251.269 193.722 251.512 193.241 251.844 192.823C252.165 192.399 252.565 192.043 253.023 191.775C253.481 191.506 253.988 191.331 254.514 191.259C255.04 191.187 255.575 191.22 256.089 191.355C256.602 191.49 257.083 191.725 257.506 192.047L308.382 230.824L253.008 173.977C252.618 173.607 252.308 173.162 252.096 172.669C251.884 172.176 251.774 171.644 251.774 171.107C251.774 170.571 251.884 170.039 252.096 169.546C252.308 169.053 252.618 168.608 253.008 168.238C253.383 167.858 253.829 167.556 254.322 167.351C254.815 167.145 255.344 167.039 255.877 167.039C256.411 167.039 256.939 167.145 257.432 167.351C257.924 167.556 258.372 167.858 258.747 168.238L339.015 250.756C340.085 251.735 340.731 253.092 340.818 254.539C340.905 255.987 340.426 257.411 339.481 258.511C338.974 259.072 338.35 259.515 337.653 259.81C336.957 260.105 336.204 260.244 335.448 260.217Z" fill="#16110D"/>
<path d="M335.449 260.993C334.104 261.01 332.792 260.573 331.727 259.752L252.078 199.182C251.565 198.792 251.136 198.302 250.816 197.742C250.496 197.183 250.293 196.565 250.217 195.925C250.061 194.643 250.411 193.35 251.193 192.322C251.975 191.294 253.127 190.611 254.404 190.419C255.703 190.277 257.008 190.638 258.05 191.427L299.929 223.302L252.388 174.442C251.856 174.005 251.422 173.46 251.115 172.844C250.809 172.227 250.637 171.552 250.609 170.864C250.581 170.176 250.698 169.49 250.954 168.851C251.211 168.211 251.599 167.633 252.094 167.155C252.589 166.676 253.18 166.307 253.828 166.073C254.475 165.839 255.166 165.744 255.853 165.795C256.539 165.846 257.207 166.042 257.813 166.369C258.419 166.697 258.949 167.148 259.368 167.695L339.636 250.213C340.767 251.312 341.454 252.788 341.569 254.36C341.683 255.933 341.217 257.493 340.257 258.744C339.672 259.451 338.937 260.02 338.105 260.409C337.274 260.798 336.367 260.997 335.449 260.993ZM254.792 192.047C254.364 192.092 253.95 192.225 253.576 192.439C253.202 192.653 252.877 192.942 252.621 193.288C252.138 193.962 251.918 194.789 252.001 195.615C252.132 196.467 252.574 197.24 253.242 197.786L332.889 258.356C333.826 259.03 334.979 259.331 336.126 259.202C337.272 259.073 338.33 258.523 339.094 257.658C339.791 256.718 340.127 255.559 340.042 254.392C339.956 253.225 339.455 252.127 338.629 251.299L258.36 168.781C258.063 168.474 257.707 168.229 257.314 168.062C256.921 167.895 256.499 167.809 256.072 167.809C255.645 167.809 255.222 167.895 254.829 168.062C254.436 168.229 254.081 168.474 253.784 168.781C253.173 169.374 252.812 170.179 252.776 171.03C252.77 171.46 252.849 171.887 253.009 172.286C253.168 172.686 253.405 173.049 253.706 173.357L309.158 230.204L307.995 231.445L257.197 192.668C256.861 192.404 256.473 192.213 256.059 192.106C255.645 192 255.214 191.979 254.792 192.047Z" fill="#36A9E1"/>
<path d="M94.0988 260.217C93.295 260.212 92.5022 260.029 91.778 259.68C91.0537 259.331 90.4158 258.826 89.9106 258.201C88.9849 257.082 88.5318 255.645 88.6477 254.198C88.7635 252.75 89.4393 251.404 90.5312 250.446L172.273 167.85C173.041 167.102 174.071 166.683 175.143 166.683C176.215 166.683 177.245 167.102 178.012 167.85C178.761 168.618 179.179 169.648 179.179 170.72C179.179 171.792 178.761 172.822 178.012 173.589L121.398 230.747L173.902 191.97C174.329 191.652 174.815 191.422 175.331 191.293C175.847 191.164 176.384 191.138 176.91 191.217C177.437 191.297 177.942 191.479 178.397 191.755C178.853 192.03 179.249 192.393 179.564 192.823C179.882 193.25 180.112 193.735 180.241 194.252C180.37 194.768 180.395 195.305 180.316 195.831C180.236 196.357 180.054 196.863 179.779 197.318C179.503 197.774 179.139 198.17 178.71 198.484L97.356 259.132C96.4042 259.813 95.2691 260.192 94.0988 260.217Z" fill="#16110D"/>
<path d="M94.0987 260.993C93.179 261.008 92.2674 260.814 91.4342 260.424C90.601 260.034 89.8676 259.46 89.2899 258.744C88.3087 257.487 87.829 255.911 87.9437 254.32C88.0583 252.73 88.7592 251.238 89.9105 250.135L171.653 167.617C172.576 166.684 173.83 166.154 175.143 166.144C176.412 166.176 177.627 166.673 178.555 167.54C179.489 168.463 180.018 169.718 180.029 171.03C180.027 172.306 179.526 173.531 178.633 174.442L129.696 223.844L173.359 191.349C174.411 190.575 175.725 190.248 177.017 190.436C178.309 190.625 179.475 191.315 180.261 192.357C180.648 192.873 180.924 193.463 181.071 194.09C181.218 194.718 181.232 195.369 181.114 196.002C181.028 196.629 180.819 197.232 180.5 197.778C180.181 198.323 179.757 198.8 179.253 199.182L97.8211 259.752C96.7555 260.573 95.4439 261.01 94.0987 260.993ZM175.143 167.928C174.713 167.922 174.286 168.001 173.886 168.16C173.487 168.32 173.124 168.557 172.817 168.858L91.074 251.376C90.2213 252.186 89.6952 253.281 89.5952 254.453C89.4952 255.625 89.8281 256.793 90.531 257.736C91.2872 258.633 92.3548 259.212 93.5198 259.356C94.6848 259.5 95.861 259.198 96.8129 258.511L178.245 197.941C178.591 197.685 178.88 197.36 179.094 196.986C179.308 196.612 179.441 196.198 179.486 195.77C179.563 195.36 179.547 194.939 179.44 194.536C179.332 194.133 179.135 193.76 178.865 193.443C178.619 193.098 178.307 192.805 177.946 192.582C177.585 192.359 177.182 192.211 176.763 192.146C176.344 192.081 175.917 192.101 175.505 192.203C175.094 192.306 174.706 192.49 174.367 192.745L121.863 231.522L120.777 230.281L177.392 173.046C177.687 172.751 177.921 172.4 178.081 172.014C178.241 171.629 178.324 171.215 178.324 170.797C178.324 170.379 178.241 169.966 178.081 169.58C177.921 169.194 177.687 168.843 177.392 168.548C176.756 168.043 175.953 167.794 175.143 167.85V167.928Z" fill="#36A9E1"/>
<path d="M205.467 187.627L194.067 184.835C193.092 184.596 192.25 183.98 191.727 183.123C191.204 182.265 191.042 181.236 191.275 180.259C191.393 179.767 191.607 179.304 191.906 178.897C192.205 178.49 192.582 178.146 193.015 177.886C193.449 177.626 193.93 177.455 194.43 177.383C194.93 177.311 195.439 177.34 195.928 177.467L207.251 180.259C207.739 180.368 208.201 180.574 208.608 180.865C209.015 181.156 209.359 181.526 209.62 181.953C209.88 182.381 210.052 182.856 210.124 183.351C210.197 183.846 210.17 184.351 210.043 184.835C209.934 185.323 209.728 185.784 209.437 186.191C209.146 186.598 208.775 186.942 208.348 187.203C207.921 187.464 207.446 187.635 206.951 187.708C206.456 187.781 205.952 187.753 205.467 187.627Z" fill="white"/>
<path d="M206.63 173.434L199.728 172.116C198.902 171.947 198.175 171.464 197.698 170.77C197.221 170.076 197.03 169.224 197.168 168.393C197.242 167.98 197.398 167.585 197.626 167.233C197.854 166.88 198.15 166.576 198.496 166.338C198.842 166.1 199.232 165.933 199.643 165.846C200.054 165.76 200.478 165.756 200.891 165.834L207.793 167.152C208.206 167.227 208.6 167.383 208.953 167.611C209.306 167.838 209.611 168.134 209.849 168.48C210.087 168.826 210.254 169.216 210.34 169.627C210.427 170.038 210.431 170.462 210.352 170.875C210.278 171.288 210.122 171.683 209.894 172.036C209.666 172.388 209.37 172.693 209.024 172.931C208.678 173.169 208.289 173.336 207.878 173.422C207.467 173.509 207.043 173.513 206.63 173.434Z" fill="white"/>
<path d="M207.562 203.448L199.263 202.595C198.756 202.556 198.262 202.416 197.81 202.183C197.359 201.95 196.958 201.629 196.633 201.238C196.307 200.848 196.064 200.396 195.916 199.91C195.768 199.423 195.72 198.912 195.773 198.407C195.89 197.399 196.39 196.475 197.17 195.825C197.949 195.176 198.949 194.85 199.961 194.917L208.337 195.77C208.837 195.818 209.323 195.965 209.766 196.203C210.208 196.44 210.599 196.763 210.917 197.152C211.234 197.541 211.472 197.99 211.614 198.472C211.757 198.953 211.802 199.458 211.749 199.958C211.721 200.469 211.588 200.968 211.359 201.425C211.129 201.882 210.808 202.287 210.415 202.615C210.022 202.942 209.566 203.185 209.075 203.329C208.584 203.472 208.069 203.513 207.562 203.448Z" fill="#36A9E1"/>
<path d="M211.205 156.682C211.025 157.578 210.54 158.384 209.833 158.963C209.126 159.542 208.241 159.858 207.327 159.858C206.414 159.858 205.528 159.542 204.821 158.963C204.114 158.384 203.63 157.578 203.45 156.682C203.334 156.108 203.348 155.516 203.489 154.948C203.631 154.379 203.896 153.85 204.267 153.397C204.638 152.944 205.105 152.579 205.635 152.328C206.164 152.077 206.742 151.948 207.327 151.948C207.913 151.948 208.491 152.077 209.02 152.328C209.549 152.579 210.016 152.944 210.387 153.397C210.758 153.85 211.024 154.379 211.165 154.948C211.307 155.516 211.32 156.108 211.205 156.682Z" fill="#36A9E1"/>
<path d="M217.408 142.8C218.183 142.8 218.183 143.886 217.408 144.274C217.009 144.466 216.571 144.566 216.128 144.566C215.685 144.566 215.247 144.466 214.848 144.274C214.693 144.223 214.557 144.124 214.462 143.992C214.366 143.86 214.315 143.7 214.315 143.537C214.315 143.374 214.366 143.215 214.462 143.082C214.557 142.95 214.693 142.851 214.848 142.8C215.237 142.576 215.679 142.457 216.128 142.457C216.577 142.457 217.019 142.576 217.408 142.8Z" fill="#16110D"/>
<path d="M224.236 139.077C224.384 139.146 224.51 139.255 224.598 139.392C224.687 139.53 224.733 139.69 224.733 139.853C224.733 140.016 224.687 140.176 224.598 140.314C224.51 140.451 224.384 140.56 224.236 140.629C223.823 140.822 223.373 140.923 222.917 140.923C222.461 140.923 222.011 140.822 221.598 140.629C221.45 140.56 221.324 140.451 221.236 140.314C221.148 140.176 221.101 140.016 221.101 139.853C221.101 139.69 221.148 139.53 221.236 139.392C221.324 139.255 221.45 139.146 221.598 139.077C222.011 138.884 222.461 138.783 222.917 138.783C223.373 138.783 223.823 138.884 224.236 139.077Z" fill="#16110D"/>
<path d="M230.983 134.967C231.138 135.018 231.273 135.117 231.368 135.249C231.464 135.382 231.516 135.541 231.516 135.704C231.516 135.867 231.464 136.026 231.368 136.159C231.273 136.291 231.138 136.39 230.983 136.441C230.597 136.673 230.154 136.796 229.703 136.796C229.252 136.796 228.81 136.673 228.423 136.441C227.648 136.441 227.648 135.355 228.423 134.967C228.822 134.775 229.26 134.675 229.703 134.675C230.146 134.675 230.584 134.775 230.983 134.967Z" fill="#16110D"/>
<path d="M237.728 131.322C238.504 131.322 238.504 132.408 237.728 132.796C237.329 132.988 236.891 133.088 236.448 133.088C236.005 133.088 235.567 132.988 235.168 132.796C235.013 132.745 234.878 132.646 234.782 132.514C234.686 132.381 234.635 132.222 234.635 132.059C234.635 131.895 234.686 131.736 234.782 131.604C234.878 131.472 235.013 131.373 235.168 131.322C235.555 131.09 235.997 130.967 236.448 130.967C236.899 130.967 237.342 131.09 237.728 131.322Z" fill="#16110D"/>
<path d="M210.664 139.078C210.813 139.146 210.938 139.255 211.027 139.392C211.115 139.53 211.161 139.69 211.161 139.853C211.161 140.016 211.115 140.176 211.027 140.314C210.938 140.451 210.813 140.561 210.664 140.629C210.265 140.821 209.827 140.921 209.384 140.921C208.941 140.921 208.503 140.821 208.104 140.629C207.956 140.561 207.83 140.451 207.742 140.314C207.653 140.176 207.606 140.016 207.606 139.853C207.606 139.69 207.653 139.53 207.742 139.392C207.83 139.255 207.956 139.146 208.104 139.078C208.503 138.885 208.941 138.785 209.384 138.785C209.827 138.785 210.265 138.885 210.664 139.078Z" fill="#16110D"/>
<path d="M217.408 134.967C218.183 134.967 218.183 136.053 217.408 136.441C217.021 136.673 216.579 136.796 216.128 136.796C215.677 136.796 215.234 136.673 214.848 136.441C214.693 136.39 214.557 136.291 214.462 136.159C214.366 136.026 214.315 135.867 214.315 135.704C214.315 135.541 214.366 135.382 214.462 135.249C214.557 135.117 214.693 135.018 214.848 134.967C215.247 134.775 215.685 134.675 216.128 134.675C216.571 134.675 217.009 134.775 217.408 134.967Z" fill="#16110D"/>
<path d="M224.234 131.322C224.39 131.373 224.524 131.472 224.62 131.604C224.716 131.736 224.767 131.896 224.767 132.059C224.767 132.222 224.716 132.381 224.62 132.514C224.524 132.646 224.39 132.745 224.234 132.796C223.822 132.989 223.371 133.09 222.916 133.09C222.46 133.09 222.009 132.989 221.597 132.796C221.442 132.745 221.306 132.646 221.211 132.514C221.115 132.381 221.064 132.222 221.064 132.059C221.064 131.896 221.115 131.736 221.211 131.604C221.306 131.472 221.442 131.373 221.597 131.322C221.998 131.091 222.453 130.969 222.916 130.969C223.379 130.969 223.834 131.091 224.234 131.322Z" fill="#16110D"/>
<path d="M230.983 127.134C231.138 127.185 231.273 127.284 231.368 127.416C231.464 127.549 231.516 127.708 231.516 127.871C231.516 128.034 231.464 128.193 231.368 128.326C231.273 128.458 231.138 128.557 230.983 128.608C230.597 128.84 230.154 128.963 229.703 128.963C229.252 128.963 228.81 128.84 228.423 128.608C227.648 128.22 227.648 127.522 228.423 127.134C228.822 126.942 229.26 126.842 229.703 126.842C230.146 126.842 230.584 126.942 230.983 127.134Z" fill="#16110D"/>
<path d="M203.913 134.967C204.069 135.018 204.204 135.117 204.3 135.249C204.396 135.381 204.447 135.541 204.447 135.704C204.447 135.867 204.396 136.026 204.3 136.159C204.204 136.291 204.069 136.39 203.913 136.441C203.513 136.672 203.059 136.794 202.596 136.794C202.133 136.794 201.678 136.672 201.277 136.441C201.122 136.39 200.986 136.291 200.891 136.159C200.795 136.026 200.744 135.867 200.744 135.704C200.744 135.541 200.795 135.381 200.891 135.249C200.986 135.117 201.122 135.018 201.277 134.967C201.689 134.773 202.14 134.673 202.596 134.673C203.051 134.673 203.501 134.773 203.913 134.967Z" fill="#16110D"/>
<path d="M210.665 131.322C210.82 131.373 210.954 131.472 211.05 131.604C211.146 131.736 211.198 131.895 211.198 132.059C211.198 132.222 211.146 132.381 211.05 132.514C210.954 132.646 210.82 132.745 210.665 132.796C210.266 132.988 209.828 133.088 209.385 133.088C208.942 133.088 208.504 132.988 208.105 132.796C207.95 132.745 207.814 132.646 207.719 132.514C207.623 132.381 207.572 132.222 207.572 132.059C207.572 131.895 207.623 131.736 207.719 131.604C207.814 131.472 207.95 131.373 208.105 131.322C208.491 131.09 208.934 130.967 209.385 130.967C209.836 130.967 210.278 131.09 210.665 131.322Z" fill="#16110D"/>
<path d="M217.408 127.134C218.183 127.522 218.183 128.22 217.408 128.608C217.021 128.84 216.579 128.963 216.128 128.963C215.677 128.963 215.234 128.84 214.848 128.608C214.693 128.557 214.557 128.458 214.462 128.326C214.366 128.193 214.315 128.034 214.315 127.871C214.315 127.708 214.366 127.549 214.462 127.416C214.557 127.284 214.693 127.185 214.848 127.134C215.247 126.942 215.685 126.842 216.128 126.842C216.571 126.842 217.009 126.942 217.408 127.134Z" fill="#16110D"/>
<path d="M224.234 123.567C224.39 123.618 224.524 123.716 224.62 123.849C224.716 123.981 224.767 124.14 224.767 124.303C224.767 124.467 224.716 124.626 224.62 124.758C224.524 124.891 224.39 124.989 224.234 125.04C223.822 125.234 223.371 125.334 222.916 125.334C222.46 125.334 222.009 125.234 221.597 125.04C221.442 124.989 221.306 124.891 221.211 124.758C221.115 124.626 221.064 124.467 221.064 124.303C221.064 124.14 221.115 123.981 221.211 123.849C221.306 123.716 221.442 123.618 221.597 123.567C221.998 123.335 222.453 123.213 222.916 123.213C223.379 123.213 223.834 123.335 224.234 123.567Z" fill="#16110D"/>
<path d="M197.17 131.322C197.325 131.373 197.46 131.472 197.556 131.604C197.652 131.736 197.704 131.896 197.704 132.059C197.704 132.222 197.652 132.381 197.556 132.514C197.46 132.646 197.325 132.745 197.17 132.796C196.757 132.989 196.308 133.09 195.852 133.09C195.396 133.09 194.946 132.989 194.533 132.796C194.378 132.745 194.243 132.646 194.147 132.514C194.051 132.381 194 132.222 194 132.059C194 131.896 194.051 131.736 194.147 131.604C194.243 131.472 194.378 131.373 194.533 131.322C194.934 131.091 195.389 130.969 195.852 130.969C196.315 130.969 196.769 131.091 197.17 131.322Z" fill="#16110D"/>
<path d="M203.913 127.134C204.069 127.185 204.204 127.284 204.3 127.416C204.396 127.549 204.447 127.708 204.447 127.871C204.447 128.034 204.396 128.194 204.3 128.326C204.204 128.458 204.069 128.557 203.913 128.608C203.513 128.839 203.059 128.961 202.596 128.961C202.133 128.961 201.678 128.839 201.277 128.608C201.122 128.557 200.986 128.458 200.891 128.326C200.795 128.194 200.744 128.034 200.744 127.871C200.744 127.708 200.795 127.549 200.891 127.416C200.986 127.284 201.122 127.185 201.277 127.134C201.689 126.941 202.14 126.84 202.596 126.84C203.051 126.84 203.501 126.941 203.913 127.134Z" fill="#16110D"/>
<path d="M210.665 123.567C210.82 123.618 210.954 123.716 211.05 123.849C211.146 123.981 211.198 124.14 211.198 124.303C211.198 124.467 211.146 124.626 211.05 124.758C210.954 124.89 210.82 124.989 210.665 125.04C210.266 125.233 209.828 125.332 209.385 125.332C208.942 125.332 208.504 125.233 208.105 125.04C207.95 124.989 207.814 124.89 207.719 124.758C207.623 124.626 207.572 124.467 207.572 124.303C207.572 124.14 207.623 123.981 207.719 123.849C207.814 123.716 207.95 123.618 208.105 123.567C208.494 123.342 208.935 123.224 209.385 123.224C209.834 123.224 210.276 123.342 210.665 123.567Z" fill="#16110D"/>
<path d="M217.411 119.301C218.187 119.766 218.187 120.387 217.411 120.852C217.012 121.045 216.575 121.145 216.131 121.145C215.688 121.145 215.251 121.045 214.851 120.852C214.703 120.784 214.577 120.675 214.489 120.537C214.401 120.4 214.354 120.24 214.354 120.077C214.354 119.913 214.401 119.753 214.489 119.616C214.577 119.478 214.703 119.369 214.851 119.301C215.251 119.109 215.688 119.009 216.131 119.009C216.575 119.009 217.012 119.109 217.411 119.301Z" fill="#16110D"/>
<path d="M104.726 278.676L107.517 245.56H69.981L72.7733 278.676C72.7733 278.676 72.7733 279.218 72.7733 279.529V280.227C74.3514 283.035 76.6482 285.373 79.4286 287C82.2091 288.627 85.3727 289.484 88.5942 289.484C91.8156 289.484 94.9788 288.627 97.7593 287C100.54 285.373 102.837 283.035 104.415 280.227V279.529C104.452 279.246 104.452 278.959 104.415 278.676H104.726Z" fill="#36A9E1"/>
<path d="M108.755 244.396H69.9779C69.8149 244.383 69.651 244.406 69.4984 244.465C69.3458 244.524 69.2084 244.617 69.0965 244.736C68.9847 244.855 68.9016 244.998 68.8528 245.154C68.8039 245.31 68.791 245.475 68.8149 245.637L71.5291 278.52C71.499 278.83 71.499 279.141 71.5291 279.451L71.9168 281.235C73.6906 284.055 76.1507 286.378 79.0668 287.989C81.9829 289.6 85.2598 290.445 88.5911 290.445C91.9225 290.445 95.1994 289.6 98.1155 287.989C101.032 286.378 103.491 284.055 105.265 281.235V279.296C105.308 279.039 105.308 278.777 105.265 278.52L108.755 244.396ZM103.637 278.52V279.218V279.684V280.226C103.097 282.388 101.733 284.253 99.8366 285.423L101.93 254.401L95.4936 258.201H88.9788V288.602C81.6887 288.602 75.3292 285.035 74.3209 280.304V279.684C74.2732 279.559 74.2732 279.421 74.3209 279.296V278.675L71.6067 246.645H106.661L103.637 278.52Z" fill="#16110D"/>
<path d="M107.437 245.482C107.437 252.462 99.0616 258.123 88.6694 258.123C78.2771 258.123 69.9009 252.462 69.9009 245.482C70.9205 241.273 73.3257 237.529 76.7295 234.851C80.1333 232.174 84.3386 230.718 88.6694 230.718C93.0002 230.718 97.205 232.174 100.609 234.851C104.013 237.529 106.418 241.273 107.437 245.482Z" fill="#36A9E1"/>
<path d="M88.7474 259.287C77.8123 259.287 68.8936 253.082 68.8936 245.482C69.9158 240.97 72.4412 236.94 76.0559 234.052C79.6706 231.165 84.1594 229.592 88.7858 229.592C93.4122 229.592 97.9014 231.165 101.516 234.052C105.131 236.94 107.656 240.97 108.678 245.482C108.678 253.082 99.6826 259.287 88.7474 259.287ZM88.7474 231.832C84.6644 231.621 80.6408 232.883 77.4097 235.388C74.1786 237.893 71.9547 241.475 71.1425 245.482C71.1425 251.842 78.898 257.038 88.7474 257.038C98.5968 257.038 106.352 251.842 106.352 245.482C105.475 241.532 103.224 238.023 99.9995 235.579C96.7749 233.136 92.787 231.918 88.7474 232.143V231.832Z" fill="#16110D"/>
<path d="M104.798 241.527C104.798 247.498 97.5862 252.307 88.745 252.307C79.9038 252.307 72.6912 247.498 72.6912 241.527C72.6912 235.555 79.9038 230.669 88.745 230.669C97.5862 230.669 104.798 235.555 104.798 241.527Z" fill="white"/>
<path d="M88.7493 253.47C79.2877 253.47 71.6096 248.119 71.6096 241.527C71.6096 234.935 79.3652 229.583 88.7493 229.583C98.1334 229.583 105.966 234.935 105.966 241.527C105.966 248.119 98.2109 253.47 88.7493 253.47ZM88.7493 231.832C80.5285 231.832 73.8585 236.175 73.8585 241.527C73.8585 246.878 80.5285 251.221 88.7493 251.221C96.9701 251.221 103.64 246.878 103.64 241.527C103.64 236.175 96.9701 232.143 88.7493 232.143V231.832Z" fill="#16110D"/>
<path d="M92.6262 230.824C91.3077 230.824 90.377 231.755 89.6791 232.763L88.8256 234.004C88.4156 233.656 88.0737 233.236 87.8174 232.763C87.0418 231.755 86.1891 230.514 84.7931 230.824C82.9832 231.746 81.4364 233.112 80.2972 234.793C79.158 236.475 78.4633 238.418 78.2783 240.441C78.2783 244.008 82.8543 246.878 88.7484 246.878C94.6426 246.878 99.2181 244.008 99.2181 240.441C99.2181 238.114 96.4263 232.143 92.6262 230.824Z" fill="#16110D"/>
<path d="M44.7748 195.77C43.8235 195.204 42.7539 194.868 41.6502 194.787C40.5464 194.706 39.4388 194.884 38.4153 195.304C29.7232 198.248 21.6886 202.858 14.7613 208.876C8.8014 213.089 4.51749 219.268 2.66284 226.326C2.66284 227.955 3.74862 229.196 6.07525 229.351L83.6296 234.625C85.4909 234.625 87.5849 232.918 86.5767 232.065L44.7748 195.77Z" fill="white"/>
<path d="M84.7939 234.935H83.708L8.40258 215.081C7.67586 214.973 6.98349 214.701 6.37852 214.284C5.77354 213.867 5.27242 213.317 4.91301 212.677C4.7227 212.25 4.62427 211.787 4.62427 211.319C4.62427 210.852 4.7227 210.389 4.91301 209.962C8.15035 203.165 13.627 197.689 20.4239 194.451C28.4988 189.788 37.4001 186.733 46.6368 185.455C47.9189 185.206 49.2423 185.266 50.4965 185.63C51.7508 185.994 52.9003 186.652 53.8498 187.549L88.2839 231.135C88.5292 231.458 88.6616 231.853 88.6616 232.259C88.6616 232.665 88.5292 233.06 88.2839 233.384C87.8627 233.896 87.3276 234.302 86.7218 234.572C86.116 234.841 85.4561 234.965 84.7939 234.935ZM48.188 187.627H46.9473C38.0033 188.819 29.3839 191.771 21.5869 196.313C15.1861 199.176 9.99691 204.2 6.92903 210.505C6.85426 210.649 6.81542 210.808 6.81542 210.97C6.81542 211.132 6.85426 211.292 6.92903 211.436C7.42677 212.082 8.14423 212.524 8.94552 212.677L84.3286 232.531C84.9553 232.756 85.6407 232.756 86.2674 232.531L52.0657 189.178C51.5538 188.676 50.9477 188.281 50.2821 188.014C49.6166 187.748 48.9047 187.616 48.188 187.627Z" fill="#16110D"/>
<path d="M132.41 274.177C133.355 274.755 134.422 275.105 135.526 275.199C136.63 275.293 137.74 275.129 138.77 274.72C147.48 271.802 155.54 267.219 162.501 261.225C168.502 257.024 172.882 250.893 174.91 243.853C174.91 242.147 173.824 240.984 171.498 240.751L93.9435 234.934C92.0046 234.934 89.9106 236.563 90.9964 237.494L132.41 274.177Z" fill="white"/>
<path d="M129.072 284.647C128.008 284.725 126.941 284.563 125.947 284.174C124.954 283.785 124.061 283.178 123.333 282.398L89.7518 238.58C89.4936 238.262 89.3528 237.865 89.3528 237.455C89.3528 237.046 89.4936 236.649 89.7518 236.331C90.3034 235.663 91.0362 235.169 91.8616 234.908C92.687 234.647 93.5702 234.629 94.4054 234.857L169.478 255.409C170.184 255.548 170.852 255.833 171.44 256.247C172.028 256.662 172.522 257.195 172.89 257.813C173.082 258.254 173.181 258.729 173.181 259.209C173.181 259.69 173.082 260.165 172.89 260.605C169.557 267.496 163.9 272.989 156.914 276.116C148.807 280.74 139.877 283.743 130.623 284.957L129.072 284.647ZM125.194 281.002C125.868 281.607 126.68 282.037 127.56 282.254C128.439 282.47 129.358 282.466 130.235 282.243C139.196 281.112 147.843 278.213 155.673 273.712C162.106 270.812 167.359 265.806 170.564 259.519C170.639 259.376 170.677 259.216 170.677 259.054C170.677 258.892 170.639 258.733 170.564 258.589C170.076 257.968 169.393 257.53 168.625 257.348L93.7848 237.029C93.088 236.919 92.3747 237.056 91.7683 237.416L125.194 281.002Z" fill="#16110D"/>
<path d="M95.26 235.012C95.26 237.029 92.3132 238.657 88.7457 238.657C85.1782 238.657 82.231 237.029 82.231 235.012C82.231 232.996 85.1782 231.29 88.7457 231.29C92.3132 231.29 95.26 232.918 95.26 235.012Z" fill="white"/>
<path d="M88.7481 239.898C84.4826 239.898 80.9927 237.727 80.9927 235.09C80.9927 232.453 84.3275 230.281 88.7481 230.281C93.1687 230.281 96.5035 232.375 96.5035 235.09C96.5035 237.804 93.0136 239.898 88.7481 239.898ZM88.7481 232.531C85.7235 232.531 83.3968 233.849 83.3968 235.09C83.3968 236.331 85.7235 237.572 88.7481 237.572C91.7727 237.572 94.0994 236.253 94.0994 235.09C94.0994 233.927 91.9278 232.143 88.7481 232.143V232.531Z" fill="#16110D"/>
<path d="M358.249 279.761L361.041 246.645H323.505L326.296 279.761C326.259 280.07 326.259 280.383 326.296 280.692V281.39C327.875 284.198 330.172 286.536 332.953 288.163C335.733 289.79 338.896 290.647 342.118 290.647C345.339 290.647 348.503 289.79 351.283 288.163C354.063 286.536 356.361 284.198 357.939 281.39V280.692C357.977 280.383 357.977 280.07 357.939 279.761C357.939 279.761 358.249 279.839 358.249 279.761Z" fill="#36A9E1"/>
<path d="M323.505 245.482H362.282L358.793 279.684C358.836 279.966 358.836 280.254 358.793 280.537V282.475C357.019 285.295 354.558 287.619 351.642 289.23C348.726 290.841 345.45 291.686 342.118 291.686C338.787 291.686 335.509 290.841 332.593 289.23C329.677 287.619 327.218 285.295 325.444 282.475L325.057 280.692C325.03 280.356 325.03 280.019 325.057 279.684L322.341 246.801C322.319 246.635 322.333 246.467 322.381 246.308C322.43 246.148 322.512 246.001 322.623 245.876C322.733 245.751 322.869 245.651 323.021 245.583C323.173 245.515 323.338 245.481 323.505 245.482Z" fill="#16110D"/>
<path d="M361.041 246.645C361.041 253.625 352.665 259.287 342.273 259.287C331.881 259.287 323.505 253.625 323.505 246.645C324.524 242.436 326.929 238.692 330.333 236.014C333.737 233.337 337.942 231.881 342.273 231.881C346.604 231.881 350.809 233.337 354.213 236.014C357.617 238.692 360.021 242.436 361.041 246.645Z" fill="#36A9E1"/>
<path d="M342.273 260.45C331.338 260.45 322.418 254.246 322.418 246.645C323.405 242.114 325.913 238.056 329.524 235.146C333.136 232.236 337.635 230.65 342.273 230.65C346.911 230.65 351.409 232.236 355.02 235.146C358.632 238.056 361.139 242.114 362.126 246.645C362.126 254.246 353.208 260.45 342.273 260.45ZM342.273 232.996C338.19 232.784 334.166 234.046 330.935 236.551C327.704 239.056 325.48 242.638 324.668 246.645C324.668 253.005 332.423 258.201 342.273 258.201C352.122 258.201 359.878 253.005 359.878 246.645C359.066 242.638 356.841 239.056 353.61 236.551C350.379 234.046 346.356 232.784 342.273 232.996Z" fill="#16110D"/>
<path d="M358.324 242.69C358.324 248.662 351.112 253.47 342.271 253.47C333.429 253.47 326.216 248.662 326.216 242.69C326.216 236.718 333.429 231.832 342.271 231.832C351.112 231.832 358.324 236.718 358.324 242.69Z" fill="white"/>
<path d="M342.271 254.634C332.809 254.634 325.054 249.282 325.054 242.69C325.054 236.098 332.809 230.669 342.271 230.669C351.733 230.669 359.488 236.098 359.488 242.69C359.488 249.282 351.733 254.634 342.271 254.634ZM342.271 232.996C334.05 232.996 327.38 237.339 327.38 242.69C327.38 248.041 334.05 252.307 342.271 252.307C350.492 252.307 357.161 247.964 357.161 242.69C357.161 237.416 350.492 232.996 342.271 232.996Z" fill="#16110D"/>
<path d="M346.149 232.143C344.831 232.143 343.9 233.073 343.202 234.082L342.349 235.322C341.939 234.975 341.597 234.554 341.341 234.082C340.565 233.073 339.712 231.833 338.316 232.143C336.506 233.065 334.96 234.43 333.82 236.112C332.681 237.794 331.987 239.737 331.802 241.759C331.802 245.327 336.378 248.196 342.272 248.196C348.166 248.196 352.741 245.327 352.741 241.759C352.741 239.278 349.95 232.996 346.149 232.143Z" fill="#16110D"/>
<path d="M258.127 240.364C255.8 240.364 254.404 241.605 254.636 243.311C256.553 250.383 260.82 256.591 266.735 260.916C273.49 266.989 281.405 271.632 290.001 274.565C291.009 275.082 292.125 275.352 293.258 275.352C294.391 275.352 295.508 275.082 296.516 274.565L338.783 238.658C339.791 237.804 337.774 236.021 335.835 236.098L258.127 240.364Z" fill="white"/>
<path d="M300.238 285.267H298.61C289.384 284.094 280.493 281.06 272.474 276.349C265.67 273.122 260.19 267.642 256.963 260.838C256.752 260.417 256.641 259.952 256.641 259.481C256.641 259.009 256.752 258.545 256.963 258.123C257.332 257.513 257.827 256.99 258.415 256.588C259.004 256.187 259.673 255.917 260.375 255.797L335.835 235.943C336.67 235.705 337.556 235.717 338.384 235.979C339.211 236.241 339.944 236.741 340.489 237.416C340.735 237.74 340.867 238.135 340.867 238.541C340.867 238.947 340.735 239.342 340.489 239.666L306.132 283.173C305.37 283.943 304.444 284.53 303.424 284.893C302.404 285.255 301.315 285.383 300.238 285.267ZM336.844 237.959H336.379L260.919 257.813C259.91 257.813 259.135 258.511 258.902 259.054C258.844 259.189 258.815 259.334 258.815 259.481C258.815 259.627 258.844 259.772 258.902 259.907C259.833 262.544 263.012 267.663 273.714 274.177C281.478 278.716 290.077 281.644 298.997 282.786C299.908 282.98 300.851 282.977 301.761 282.776C302.67 282.576 303.526 282.182 304.271 281.622L338.395 238.347C337.938 238.045 337.39 237.908 336.844 237.959Z" fill="#16110D"/>
<path d="M425.409 232.143C427.735 232.143 429.209 230.902 428.976 229.273C427.182 222.185 422.99 215.937 417.111 211.591C410.369 205.481 402.452 200.811 393.845 197.864C392.837 197.347 391.72 197.077 390.587 197.077C389.454 197.077 388.337 197.347 387.329 197.864L344.287 233.229C343.279 234.082 345.295 235.943 347.234 235.788L425.409 232.143Z" fill="white"/>
<path d="M345.916 236.253C345.234 236.287 344.554 236.156 343.933 235.873C343.313 235.59 342.77 235.161 342.349 234.624C342.103 234.301 341.97 233.906 341.97 233.5C341.97 233.094 342.103 232.699 342.349 232.375L377.48 189.1C378.509 188.156 379.757 187.484 381.112 187.146C382.466 186.807 383.884 186.812 385.235 187.161C394.447 188.341 403.317 191.403 411.295 196.157C418.077 199.415 423.547 204.886 426.805 211.668C426.994 212.082 427.091 212.532 427.091 212.987C427.091 213.442 426.994 213.891 426.805 214.305C426.41 214.908 425.897 215.425 425.297 215.825C424.698 216.224 424.023 216.499 423.315 216.632L347.389 236.02C346.928 236.23 346.419 236.311 345.916 236.253ZM344.443 233.539C345.066 233.785 345.759 233.785 346.382 233.539L422.384 214.15C422.789 214.099 423.179 213.961 423.527 213.747C423.875 213.533 424.172 213.248 424.401 212.909C424.458 212.774 424.488 212.629 424.488 212.483C424.488 212.336 424.458 212.191 424.401 212.056C421.289 205.792 416.15 200.763 409.821 197.786C402.106 193.173 393.528 190.191 384.615 189.022C383.704 188.828 382.762 188.831 381.852 189.032C380.942 189.233 380.087 189.626 379.342 190.186L344.443 233.539Z" fill="#16110D"/>
<path d="M348.786 236.098C348.786 238.192 345.839 239.821 342.271 239.821C338.704 239.821 335.756 238.192 335.756 236.098C335.756 234.004 338.704 232.453 342.271 232.453C345.839 232.453 348.786 234.082 348.786 236.098Z" fill="white"/>
<path d="M342.273 240.906C338.008 240.906 334.518 238.812 334.518 236.098C334.518 233.384 337.853 231.29 342.273 231.29C346.694 231.29 350.029 233.461 350.029 236.098C350.029 238.735 346.539 240.906 342.273 240.906ZM342.273 233.616C339.249 233.616 336.922 234.935 336.922 236.098C336.922 237.261 339.249 238.657 342.273 238.657C345.298 238.657 347.624 237.339 347.624 236.098C347.624 234.857 345.298 233.616 342.273 233.616Z" fill="#16110D"/>
</svg>
