<svg width="52" height="89" viewBox="0 0 52 89" fill="none" xmlns="http://www.w3.org/2000/svg">
<path d="M42.7352 20.7942L8.67622 1.1846C7.77315 0.668555 7.12816 0.539544 6.48311 0.926575L6.22515 1.05559L2.61279 3.37777L2.99989 5.57095L4.93505 9.44127V53.9499C4.93505 56.6591 6.61225 59.7554 8.5474 60.7875L39.1228 78.4619L41.5739 82.8483L44.9283 80.6551L45.1863 80.5261C45.8313 80.01 46.2184 79.107 46.2184 77.6878V27.7608C46.3474 25.0515 44.7994 21.9553 42.7352 20.7942Z" fill="#36A9E1"/>
<path d="M42.8638 22.471L8.80513 2.86135C7.90206 2.34531 7.25707 2.2163 6.61202 2.60333L6.35406 2.73234L2.7417 5.05453L3.12879 7.24771L5.06395 11.118V55.6267C5.06395 58.3359 6.74084 61.4321 8.676 62.4642L39.2518 80.1387L41.9608 81.1708L44.1539 81.5578L45.0572 80.2677C45.7023 79.7516 46.4762 80.7837 46.4762 79.3646V29.3085C46.3471 26.7283 44.799 23.632 42.8638 22.471Z" fill="white"/>
<path d="M41.3158 83.6221L38.7355 78.7197L8.41807 61.1743C6.22489 59.8842 4.54775 56.6589 4.54775 53.6917V9.57005L2.6126 5.57072L2.09668 2.99051L6.35409 0.281287C7.25716 -0.234756 8.03104 0.0232664 9.06312 0.539309L43.1221 20.1489C45.3153 21.439 46.9924 24.6643 46.9924 27.6315V77.5586C46.9924 79.1067 46.4764 80.2678 45.7023 80.9129L41.3158 83.6221ZM3.77388 5.18369L5.70904 9.18301V53.8207C5.70904 56.2719 7.25698 59.1101 9.06312 60.1422L39.7677 77.8166L41.9608 81.8159L45.0573 79.8808C45.5733 79.4938 45.8311 78.7197 45.8311 77.5586V27.7605C45.8311 25.3093 44.2832 22.4711 42.477 21.439L8.41807 1.7004C7.515 1.18436 7.25704 1.18436 6.87001 1.44238L6.48291 1.57139L3.38679 3.50655L3.77388 5.18369Z" fill="#16110D"/>
<path d="M38.9933 82.7189L4.93462 63.1093C2.99947 61.9482 1.32227 58.852 1.32227 56.2717V6.21566C1.32227 3.50644 2.99947 2.34534 4.93462 3.50644L38.9933 23.116C40.9284 24.2771 42.6056 27.3734 42.6056 29.9536V79.8807C42.6056 82.7189 41.0574 83.88 38.9933 82.7189Z" fill="#36A9E1"/>
<path d="M40.4128 83.8801C39.8968 83.8801 39.2518 83.7511 38.6068 83.364L4.67696 63.6254C2.48378 62.3353 0.806641 59.1101 0.806641 56.1428V6.21573C0.806641 4.53859 1.32262 3.3775 2.3547 2.73244C3.25778 2.2164 4.28993 2.34541 5.32201 2.86145L39.3807 22.4711C41.5738 23.7612 43.251 26.9864 43.251 29.9537V79.8807C43.251 81.5579 42.735 82.719 41.7029 83.364C41.3159 83.7511 40.9289 83.8801 40.4128 83.8801ZM3.51567 3.76453C3.25765 3.76453 3.12864 3.76453 2.87062 3.89354C2.22557 4.28057 1.96761 5.05463 1.96761 6.21573V56.1428C1.96761 58.594 3.51586 61.4322 5.32201 62.4643L39.3807 82.0739C39.8967 82.332 40.5418 82.59 41.0579 82.2029C41.7029 81.8159 41.9609 81.0418 41.9609 79.8807V30.0827C41.9609 27.6315 40.4129 24.7932 38.6068 23.7612L4.54782 4.15156C4.2898 3.89354 3.9027 3.76453 3.51567 3.76453Z" fill="#16110D"/>
<path d="M38.9933 81.0422L7.38576 62.8517C6.22466 62.2067 5.32178 60.4005 5.32178 58.9814V14.2148C5.32178 12.6666 6.22466 12.0216 7.38576 12.6666L38.9933 30.8571C40.1544 31.5022 41.0576 33.3083 41.0576 34.7274V79.3651C41.0576 80.9132 40.1544 81.6873 38.9933 81.0422Z" fill="white"/>
<path d="M38.607 79.3649C38.22 79.3649 37.9619 79.2359 37.5749 79.1069L5.96727 60.9164C4.67717 60.1424 3.64502 58.3362 3.64502 56.6591V11.8924C3.64502 10.9894 4.03199 10.2153 4.54803 9.82826C5.06407 9.57024 5.70931 9.57024 6.35437 9.95727L37.9619 28.1478C39.2521 28.9218 40.2839 30.728 40.2839 32.4051V77.0428C40.2839 77.9458 39.8969 78.7199 39.3809 79.1069C39.1229 79.3649 38.865 79.3649 38.607 79.3649ZM37.9619 78.3329C38.22 78.4619 38.6069 78.5909 38.865 78.4619C39.123 78.3329 39.3809 77.8168 39.3809 77.1718V32.5341C39.3809 31.244 38.6069 29.5669 37.5749 29.0508L5.96727 10.7313C5.70925 10.6023 5.32228 10.4733 5.06426 10.6023C4.80624 10.7313 4.54803 11.2474 4.54803 11.8924V56.5301C4.54803 57.8202 5.32228 59.4973 6.35437 60.0134L37.9619 78.3329Z" fill="#16110D"/>
<path d="M11.6432 33.3083L8.16 26.4707C7.64396 25.5677 7.7731 24.6646 8.28914 24.4066C8.80518 24.1486 9.70826 24.7936 10.2243 25.6967L12.0303 29.309L16.0298 25.9547C16.5458 25.5677 17.3199 25.9547 17.9649 26.8578C18.481 27.7609 18.6099 28.7929 18.2229 29.18L12.6754 33.8243C12.2883 34.0824 11.9012 33.8243 11.6432 33.3083Z" fill="#36A9E1"/>
<path d="M11.9021 33.0501H11.7733C11.3863 32.9211 10.9992 32.6631 10.7412 32.1471L7.25794 25.3095C6.87091 24.5355 6.74196 23.7614 6.99998 23.2453C7.12899 22.8583 7.38701 22.7293 7.64503 22.6003C8.41909 22.3423 9.58006 22.9873 10.0961 24.1484L11.6442 27.1157L15.1274 24.1484C15.3854 23.8904 15.7727 23.8904 16.0307 23.8904C16.6758 24.0194 17.1916 24.4064 17.7076 25.0515C18.4817 26.2126 18.4818 27.3737 17.8367 28.0187L12.2892 32.6631C12.2892 32.9211 12.0311 33.0501 11.9021 33.0501ZM8.16095 23.5034C8.03194 23.5034 8.032 23.5034 7.90299 23.6324C7.77398 23.8904 7.77392 24.2774 8.16095 24.9225L11.6442 31.76C11.7732 31.8891 11.9021 32.0181 11.9021 32.0181L17.4496 27.3737C17.7077 27.2447 17.7077 26.4706 17.1917 25.6965C16.8047 25.1805 16.4176 24.9225 16.1595 24.9225C16.0305 24.9225 16.0306 24.9225 15.9016 24.9225L11.5153 28.6638L9.45105 24.5355C9.06402 23.8904 8.41897 23.5034 8.16095 23.5034Z" fill="#16110D"/>
<path d="M12.0306 47.2412L8.54734 40.4036C8.0313 39.5005 8.16012 38.5975 8.67616 38.3394C9.1922 38.0814 10.0953 38.7265 10.6113 39.6295L12.4177 43.2418L16.4168 39.8876C16.9328 39.5005 17.7069 39.8876 18.352 40.7906C18.868 41.6937 18.9973 42.7258 18.6102 43.1128L13.0627 47.7572C12.8047 47.8862 12.2886 47.6282 12.0306 47.2412Z" fill="#36A9E1"/>
<path d="M12.4171 46.8541H12.288C11.9009 46.7251 11.5138 46.4671 11.2558 45.951L7.77259 39.1135C7.38555 38.3394 7.25661 37.5653 7.51463 37.0493C7.64364 36.6623 7.90166 36.5333 8.15968 36.4043C8.93374 36.1462 10.0947 36.7913 10.6108 37.9524L12.1591 40.9196L15.6424 37.9524C15.9004 37.6944 16.2873 37.6944 16.5454 37.6944C17.1904 37.8234 17.7065 38.2104 18.2226 38.8554C18.9966 40.0165 18.9964 41.1776 18.3514 41.8227L12.8042 46.4671C12.6752 46.7251 12.5461 46.8541 12.4171 46.8541ZM12.03 45.564C12.159 45.693 12.288 45.822 12.288 45.822L17.8355 41.1776C18.0935 41.0486 18.0936 40.2746 17.5775 39.5005C17.1905 38.9845 16.8034 38.7264 16.5454 38.7264C16.4164 38.7264 16.4164 38.7264 16.2874 38.7264L11.9009 42.4677L9.83688 38.3394C9.44985 37.5653 8.8048 37.1783 8.54677 37.3073C8.54677 37.3073 8.41764 37.3073 8.41764 37.4363C8.28863 37.6944 8.28856 38.0814 8.6756 38.7264L12.03 45.564Z" fill="#16110D"/>
<path d="M11.6432 58.723L8.16 52.0144C7.64396 51.1114 7.7731 50.2083 8.28914 49.9503C8.80518 49.6923 9.70826 50.3373 10.2243 51.2404L12.0303 54.8527L16.0298 51.4984C16.5458 51.1114 17.3199 51.4984 17.9649 52.4015C18.481 53.3045 18.6099 54.3366 18.2229 54.7237L12.6754 59.368C12.2883 59.4971 11.9012 59.239 11.6432 58.723Z" fill="#36A9E1"/>
<path d="M11.9021 58.336H11.7733C11.3863 58.207 10.9992 57.949 10.7412 57.433L7.25794 50.5954C6.87091 49.8213 6.74196 49.0473 6.99998 48.5312C7.12899 48.1442 7.38701 48.0152 7.64503 47.8862C8.41909 47.6282 9.58006 48.2732 10.0961 49.4343L11.6442 52.4016L15.1274 49.4343C15.3854 49.1763 15.7727 49.1763 16.0307 49.1763C16.6758 49.3053 17.1916 49.6923 17.7076 50.3374C18.4817 51.4985 18.4818 52.6596 17.8367 53.3046L12.2892 57.949C12.2892 58.336 12.0311 58.336 11.9021 58.336ZM8.16095 48.9183C8.03194 48.9183 8.032 48.9183 7.90299 49.0473C7.77398 49.3053 7.77392 49.6923 8.16095 50.3374L11.6442 57.1749C11.7732 57.304 11.9021 57.433 11.9021 57.433L17.4496 52.7886C17.7077 52.6596 17.7077 51.8855 17.1917 51.1114C16.8047 50.5954 16.4176 50.3374 16.1595 50.3374C16.0305 50.3374 16.0306 50.3374 15.9016 50.3374L11.5153 54.0787L9.45105 49.9504C9.06402 49.3053 8.41897 48.9183 8.16095 48.9183Z" fill="#16110D"/>
<path d="M35.8972 44.6606L22.222 36.791C21.577 36.4039 21.061 35.5009 21.061 34.7268C21.061 33.9527 21.577 33.5657 22.222 33.9527L35.8972 41.8224C36.5423 42.2094 37.0582 43.1125 37.0582 43.8866C37.0582 44.6606 36.5423 44.9186 35.8972 44.6606Z" fill="#36A9E1"/>
<path d="M35.8975 43.7578C35.6395 43.7578 35.5105 43.6288 35.2525 43.4998L21.5772 35.6301C20.8032 35.2431 20.2871 34.082 20.2871 33.1789C20.2871 32.5339 20.5451 32.1469 20.9322 31.8888C21.3192 31.6308 21.7064 31.7598 22.0934 31.8888L35.7684 39.7585C36.5424 40.1455 37.0585 41.3066 37.0585 42.2097C37.0585 42.8547 36.8005 43.2418 36.4134 43.4998C36.2844 43.7578 36.0265 43.7578 35.8975 43.7578ZM35.6396 42.7257C35.7686 42.7257 35.8975 42.8547 35.8975 42.7257C35.8975 42.7257 36.0266 42.5967 36.0266 42.2097C36.0266 41.5646 35.6394 40.7906 35.1233 40.5325L21.4484 32.6629C21.3194 32.6629 21.1904 32.5339 21.1904 32.6629C21.1904 32.6629 21.0613 32.7919 21.0613 33.1789C21.0613 33.824 21.4483 34.5981 21.9643 34.8561L35.6396 42.7257Z" fill="#16110D"/>
<path d="M35.8972 57.3042L22.222 49.4345C21.577 49.0475 21.061 48.1444 21.061 47.3704C21.061 46.5963 21.577 46.2093 22.222 46.5963L35.8972 54.4659C36.5423 54.853 37.0582 55.756 37.0582 56.5301C37.0582 57.3042 36.5423 57.6912 35.8972 57.3042Z" fill="#36A9E1"/>
<path d="M35.8975 56.4009C35.6395 56.4009 35.5105 56.4009 35.2525 56.1429L21.5772 48.2732C20.8032 47.8862 20.2871 46.7251 20.2871 45.822C20.2871 45.177 20.5451 44.7899 20.9322 44.5319C21.3192 44.2739 21.7064 44.4029 22.0934 44.5319L35.7684 52.4015C36.5424 52.7886 37.0585 53.9497 37.0585 54.8527C37.0585 55.4978 36.8005 55.8848 36.4134 56.1429C36.2844 56.4009 36.0265 56.4009 35.8975 56.4009ZM21.3193 45.435C21.1902 45.435 21.1904 45.564 21.1904 45.951C21.1904 46.5961 21.5774 47.3701 22.0934 47.6282L35.7684 55.4978C35.8974 55.4978 36.0266 55.6268 36.0266 55.4978C36.0266 55.4978 36.1555 55.3688 36.1555 54.9818C36.1555 54.3367 35.7685 53.5626 35.2525 53.3046L21.5772 45.435C21.4482 45.435 21.4483 45.435 21.3193 45.435Z" fill="#16110D"/>
<path d="M35.8977 69.9469L22.2225 62.0772C21.5774 61.6902 21.0615 60.7871 21.0615 60.0131C21.0615 59.239 21.5774 58.852 22.2225 59.239L35.8977 67.1086C36.5428 67.4957 37.0587 68.3987 37.0587 69.1728C36.9297 69.9469 36.4138 70.3339 35.8977 69.9469Z" fill="#36A9E1"/>
<path d="M35.7683 69.1729C35.5103 69.1729 35.3813 69.0438 35.1232 68.9148L21.4483 61.0452C20.6742 60.6582 20.1582 59.4971 20.1582 58.594C20.1582 57.9489 20.4162 57.5619 20.8033 57.3039C21.1903 57.0459 21.5772 57.1749 21.9642 57.3039L35.6395 65.1735C36.4135 65.5605 36.9296 66.7216 36.9296 67.6247C36.9296 68.2698 36.6716 68.6568 36.2845 68.9148C36.1555 69.0438 36.0263 69.1729 35.7683 69.1729ZM35.6395 68.1408C35.7685 68.1408 35.8974 68.2698 35.8974 68.1408C35.8974 68.1408 36.0266 68.0118 36.0266 67.6247C36.0266 66.9797 35.6393 66.2056 35.1232 65.9476L21.4483 58.0779C21.3193 58.0779 21.1904 57.9489 21.1904 58.0779C21.1904 58.0779 21.0612 58.2069 21.0612 58.594C21.0612 59.239 21.4482 60.0131 21.9642 60.2711L35.6395 68.1408Z" fill="#16110D"/>
<path d="M37.8322 20.2778C38.2192 19.8908 38.4773 19.3747 38.4773 18.6007C38.4773 16.9235 37.4451 14.9884 36.155 14.2143L14.0944 1.44227C13.5784 1.18425 12.6752 1.31326 12.6752 1.31326C12.6752 1.31326 12.5462 1.44227 12.4172 1.44227L9.83699 3.24842C9.70798 3.37743 9.70798 3.63545 9.83699 3.76446L12.546 5.69962C12.9331 6.47368 13.5782 7.11873 14.2232 7.50576L18.9966 10.215L23.6411 13.5693L34.2199 22.213C34.4779 22.342 34.736 22.471 34.994 22.213C35.7681 21.8259 37.7032 20.4068 37.8322 20.2778Z" fill="#36A9E1"/>
<path d="M38.4773 20.4071C38.4773 18.7299 37.4451 16.7948 36.155 16.0207L14.0944 3.24867C13.5784 2.99064 12.6752 3.11965 12.6752 3.11965C12.6752 3.11965 12.5462 3.24867 12.4172 3.24867L9.83699 5.05481C9.70798 5.18382 9.70798 5.44184 9.83699 5.57085L12.546 7.50601C12.9331 8.28008 13.5782 8.92513 14.2232 9.31216L18.9966 12.0214L34.4778 22.7293L38.4773 20.4071Z" fill="white"/>
<path d="M34.4785 23.1161C34.2205 23.1161 33.9626 22.9871 33.7046 22.8581L23.1258 14.2144L18.4813 10.8601L13.8368 8.15086C13.1918 7.76383 12.5468 7.11878 12.0308 6.2157L9.45057 4.40956C9.19255 4.28055 9.06348 3.89351 9.06348 3.63549C9.06348 3.37747 9.19255 2.99044 9.45057 2.86143L12.0308 1.05528L12.2887 0.79726L12.5467 0.668251C12.6757 0.668251 13.45 0.281218 14.353 0.926271L36.4136 13.6983C37.8328 14.6014 38.9939 16.6656 38.9939 18.6007C38.9939 19.5038 38.736 20.2778 38.22 20.7939C38.091 20.9229 38.091 20.9229 35.6398 22.6L35.1235 22.9871C34.9945 23.1161 34.7365 23.1161 34.4785 23.1161ZM10.6115 3.63549L13.0629 5.31263L13.1918 5.44164C13.5788 6.08669 14.095 6.73175 14.611 6.98977L19.3843 9.69899L24.1576 13.0533L34.7368 21.697L35.2527 21.3099C36.1558 20.6649 37.5747 19.6328 37.7038 19.6328C37.9618 19.3748 38.0908 18.9877 38.0908 18.4717C38.0908 17.0526 37.1878 15.2464 36.1557 14.6014L14.0951 1.82935C13.8371 1.70033 13.4498 1.70033 13.1918 1.70033C13.1918 1.70033 13.1919 1.70033 13.0629 1.70033L10.6115 3.63549Z" fill="#16110D"/>
<path d="M25.7062 22.9874L18.3524 18.73C16.4172 17.569 14.8691 14.7307 14.8691 12.1505L29.1894 20.4072C29.1894 22.8584 27.6414 24.0195 25.7062 22.9874Z" fill="#36A9E1"/>
<path d="M28.1576 25.8257L20.804 21.5683C18.8689 20.4072 17.3208 17.569 17.3208 14.9888L31.6408 23.2454C31.6408 25.6966 30.0927 26.9868 28.1576 25.8257Z" fill="white"/>
<path d="M26.9964 24.0195C26.4803 24.0195 25.8352 23.8905 25.3192 23.5034L17.9656 19.2461C15.9014 18.085 14.2241 14.8597 14.2241 12.1505V11.1184L29.8345 20.1491V20.5362C29.8345 22.0843 29.3185 23.3744 28.2865 23.8905C27.8994 23.8905 27.5124 24.0195 26.9964 24.0195ZM15.5142 13.1826C15.9013 15.2467 17.0624 17.3109 18.4815 18.085L25.8351 22.3423C26.2221 22.6003 26.8672 22.8584 27.5123 22.4713C28.0283 22.2133 28.2863 21.4393 28.4153 20.5362L15.5142 13.1826Z" fill="#16110D"/>
<path d="M32.9302 22.6002L10.8696 9.82811C9.57951 9.05404 8.54736 7.11889 8.54736 5.44175C8.54736 3.76461 9.57951 2.99055 10.8696 3.76461L32.9302 16.5367C34.2203 17.3107 35.2525 19.2459 35.2525 20.923C35.2525 22.4711 34.2203 23.2452 32.9302 22.6002Z" fill="#36A9E1"/>
<path d="M33.9628 23.5032C33.5757 23.5032 33.1888 23.3742 32.8018 23.1162L10.7409 10.3441C9.32174 9.44105 8.16064 7.37688 8.16064 5.44172C8.16064 4.28063 8.54755 3.50657 9.32161 2.99052C9.96667 2.60349 10.7409 2.7325 11.3859 3.11953L33.4468 15.8916C34.866 16.7947 36.027 18.8588 36.027 20.794C36.027 21.9551 35.6398 22.7291 34.8658 23.2452C34.4787 23.3742 34.2208 23.5032 33.9628 23.5032ZM10.0958 4.15162C9.96679 4.15162 9.96686 4.15162 9.83784 4.28063C9.57982 4.40964 9.32161 4.92568 9.32161 5.57073C9.32161 6.98985 10.2247 8.796 11.2568 9.44105L33.3177 22.2131C33.5757 22.3421 33.8337 22.4711 34.2207 22.3421C34.4787 22.2131 34.7369 21.6971 34.7369 21.052C34.7369 19.6329 33.8339 17.8267 32.8018 17.1817L10.7409 4.40964C10.4828 4.28063 10.2248 4.15162 10.0958 4.15162Z" fill="#16110D"/>
<path d="M33.9624 17.4397L37.3168 15.3755L38.4778 18.3427L37.8327 20.2779L35.1234 22.213V20.0199L33.9624 17.4397Z" fill="#16110D"/>
<path d="M42.6054 28.5347L46.2177 26.2125L46.3469 78.0748L45.5727 80.2679L42.2183 82.3321L42.4765 29.8248L42.6054 28.5347Z" fill="#16110D"/>
<path d="M8.15997 71.2369C8.547 71.4949 8.547 71.7529 8.15997 72.0109C7.77294 72.2689 7.2569 72.2689 6.86986 72.0109C6.48283 71.7529 6.48283 71.4949 6.86986 71.2369C7.2569 70.9788 7.77294 70.9788 8.15997 71.2369Z" fill="#16110D"/>
<path d="M4.28973 70.2048C4.78848 70.2048 5.19274 69.9738 5.19274 69.6888C5.19274 69.4038 4.78848 69.1727 4.28973 69.1727C3.79098 69.1727 3.38672 69.4038 3.38672 69.6888C3.38672 69.9738 3.79098 70.2048 4.28973 70.2048Z" fill="#16110D"/>
<path d="M1.58038 67.3668C1.96741 67.6248 1.96741 67.8828 1.58038 68.1408C1.19335 68.3989 0.677305 68.3989 0.290274 68.1408C-0.0967579 67.8828 -0.0967579 67.6248 0.290274 67.3668C0.677305 67.2378 1.32236 67.2378 1.58038 67.3668Z" fill="#16110D"/>
<path d="M37.7034 87.8794C38.0905 88.1374 38.0905 88.3955 37.7034 88.6535C37.3164 88.9115 36.8004 88.9115 36.4133 88.6535C36.0263 88.3955 36.0263 88.1374 36.4133 87.8794C36.8004 87.6214 37.3164 87.6214 37.7034 87.8794Z" fill="#16110D"/>
<path d="M33.8337 86.8474C34.3324 86.8474 34.737 86.6164 34.737 86.3314C34.737 86.0463 34.3324 85.8153 33.8337 85.8153C33.3349 85.8153 32.9307 86.0463 32.9307 86.3314C32.9307 86.6164 33.3349 86.8474 33.8337 86.8474Z" fill="#16110D"/>
<path d="M31.1243 84.138C31.5114 84.396 31.5114 84.654 31.1243 84.912C30.7373 85.1701 30.2213 85.1701 29.8342 84.912C29.4472 84.654 29.4472 84.396 29.8342 84.138C30.2213 83.88 30.8663 83.88 31.1243 84.138Z" fill="#16110D"/>
<path d="M27.2536 83.1058C27.7524 83.1058 28.1566 82.8748 28.1566 82.5898C28.1566 82.3048 27.7524 82.0737 27.2536 82.0737C26.7548 82.0737 26.3506 82.3048 26.3506 82.5898C26.3506 82.8748 26.7548 83.1058 27.2536 83.1058Z" fill="#16110D"/>
<path d="M24.6736 80.2679C25.0607 80.5259 25.0607 80.7839 24.6736 81.042C24.2866 81.3 23.7706 81.3 23.3835 81.042C22.9965 80.7839 22.9965 80.5259 23.3835 80.2679C23.7706 80.1389 24.2866 80.1389 24.6736 80.2679Z" fill="#16110D"/>
<path d="M21.3187 78.4616C21.7057 78.7196 21.7057 78.9776 21.3187 79.2356C20.9316 79.4937 20.4156 79.4937 20.0286 79.2356C19.6415 78.9776 19.6415 78.7196 20.0286 78.4616C20.4156 78.2036 21.0606 78.2036 21.3187 78.4616Z" fill="#16110D"/>
<path d="M17.4489 77.4295C17.9477 77.4295 18.3519 77.1985 18.3519 76.9135C18.3519 76.6285 17.9477 76.3975 17.4489 76.3975C16.9502 76.3975 16.5459 76.6285 16.5459 76.9135C16.5459 77.1985 16.9502 77.4295 17.4489 77.4295Z" fill="#16110D"/>
<path d="M14.8685 74.5911C15.2555 74.8492 15.2555 75.1072 14.8685 75.3652C14.4814 75.6232 13.9654 75.6232 13.5784 75.3652C13.1913 75.1072 13.1913 74.8492 13.5784 74.5911C13.9654 74.4621 14.4814 74.4621 14.8685 74.5911Z" fill="#16110D"/>
<path d="M10.9982 73.6881C11.497 73.6881 11.9012 73.4571 11.9012 73.1721C11.9012 72.887 11.497 72.656 10.9982 72.656C10.4995 72.656 10.0952 72.887 10.0952 73.1721C10.0952 73.4571 10.4995 73.6881 10.9982 73.6881Z" fill="#16110D"/>
<path d="M11.5145 69.302C11.9015 69.56 11.9015 69.818 11.5145 70.076C11.1274 70.334 10.6114 70.334 10.2244 70.076C9.83732 69.818 9.83732 69.56 10.2244 69.302C10.6114 69.1729 11.1274 69.1729 11.5145 69.302Z" fill="#16110D"/>
<path d="M6.99926 67.4956C7.38629 67.2376 7.90233 67.2376 8.28936 67.4956C8.6764 67.7537 8.6764 68.0117 8.28936 68.2697C7.90233 68.5277 7.38629 68.5277 6.99926 68.2697C6.61223 68.0117 6.61223 67.6247 6.99926 67.4956Z" fill="#16110D"/>
<path d="M3.64518 65.5606C4.03221 65.3026 4.54825 65.3026 4.93528 65.5606C5.32231 65.8186 5.32231 66.0766 4.93528 66.3346C4.54825 66.5927 4.03221 66.5927 3.64518 66.3346C3.38715 66.0766 3.38715 65.6896 3.64518 65.5606Z" fill="#16110D"/>
<path d="M0.41918 63.6253C0.806212 63.3673 1.32225 63.3673 1.70929 63.6253C2.09632 63.8833 2.09632 64.1413 1.70929 64.3993C1.32225 64.6574 0.806212 64.6574 0.41918 64.3993C0.0321483 64.1413 0.0321483 63.8833 0.41918 63.6253Z" fill="#16110D"/>
<path d="M43.6379 88.7825C44.1366 88.7825 44.5409 88.5514 44.5409 88.2664C44.5409 87.9814 44.1366 87.7504 43.6379 87.7504C43.1391 87.7504 42.7349 87.9814 42.7349 88.2664C42.7349 88.5514 43.1391 88.7825 43.6379 88.7825Z" fill="#16110D"/>
<path d="M47.5081 85.9443C47.8951 86.2023 47.8951 86.4603 47.5081 86.7184C47.1211 86.9764 46.605 86.9764 46.218 86.7184C45.831 86.4603 45.831 86.2023 46.218 85.9443C46.605 85.8153 47.2501 85.8153 47.5081 85.9443Z" fill="#16110D"/>
<path d="M50.8626 84.138C51.2496 84.396 51.2496 84.654 50.8626 84.912C50.4756 85.1701 49.9595 85.1701 49.5725 84.912C49.1855 84.654 49.1855 84.396 49.5725 84.138C49.8305 83.88 50.4756 83.88 50.8626 84.138Z" fill="#16110D"/>
<path d="M39.7673 85.9444C40.1544 85.6863 40.6704 85.6863 41.0574 85.9444C41.4445 86.2024 41.4445 86.4604 41.0574 86.7184C40.6704 86.9765 40.1544 86.9765 39.7673 86.7184C39.3803 86.5894 39.3803 86.2024 39.7673 85.9444Z" fill="#16110D"/>
<path d="M44.283 84.138C44.67 84.396 44.67 84.654 44.283 84.912C43.896 85.1701 43.3799 85.1701 42.9929 84.912C42.6059 84.654 42.6059 84.396 42.9929 84.138C43.3799 83.88 43.896 83.88 44.283 84.138Z" fill="#16110D"/>
<path d="M46.863 83.1058C47.3617 83.1058 47.766 82.8748 47.766 82.5898C47.766 82.3048 47.3617 82.0737 46.863 82.0737C46.3642 82.0737 45.96 82.3048 45.96 82.5898C45.96 82.8748 46.3642 83.1058 46.863 83.1058Z" fill="#16110D"/>
<path d="M50.2178 81.1708C50.7165 81.1708 51.1208 80.9397 51.1208 80.6547C51.1208 80.3697 50.7165 80.1387 50.2178 80.1387C49.719 80.1387 49.3145 80.3697 49.3145 80.6547C49.3145 80.9397 49.719 81.1708 50.2178 81.1708Z" fill="#16110D"/>
<path d="M36.5422 84.138C36.9293 83.88 37.4453 83.88 37.8323 84.138C38.2194 84.396 38.2194 84.654 37.8323 84.912C37.4453 85.1701 36.9293 85.1701 36.5422 84.912C36.1552 84.654 36.1552 84.267 36.5422 84.138Z" fill="#16110D"/>
<path d="M47.5081 78.4616C47.8951 78.7196 47.8951 78.9776 47.5081 79.2356C47.1211 79.4937 46.605 79.4937 46.218 79.2356C45.831 78.9776 45.831 78.7196 46.218 78.4616C46.605 78.2036 47.2501 78.2036 47.5081 78.4616Z" fill="#16110D"/>
<path d="M33.1881 82.2028C33.5752 81.9448 34.0912 81.9448 34.4783 82.2028C34.8653 82.4608 34.8653 82.7188 34.4783 82.9769C34.0912 83.2349 33.5752 83.2349 33.1881 82.9769C32.9301 82.7188 32.9301 82.4608 33.1881 82.2028Z" fill="#16110D"/>
<path d="M29.9626 80.3968C30.3497 80.1387 30.8657 80.1387 31.2527 80.3968C31.6398 80.6548 31.6398 80.9128 31.2527 81.1708C30.8657 81.4288 30.3497 81.4288 29.9626 81.1708C29.5756 80.9128 29.5756 80.5258 29.9626 80.3968Z" fill="#16110D"/>
<path d="M26.7375 78.4616C27.1246 78.2036 27.6406 78.2036 28.0276 78.4616C28.4147 78.7196 28.4147 78.9776 28.0276 79.2356C27.6406 79.4937 27.1246 79.4937 26.7375 79.2356C26.3505 78.9776 26.3505 78.7196 26.7375 78.4616Z" fill="#16110D"/>
<path d="M23.3835 76.5264C23.7706 76.2684 24.2866 76.2684 24.6736 76.5264C25.0607 76.7844 25.0607 77.0424 24.6736 77.3005C24.2866 77.5585 23.7706 77.5585 23.3835 77.3005C22.9965 77.0424 22.9965 76.7844 23.3835 76.5264Z" fill="#16110D"/>
<path d="M20.1584 74.7204C20.5455 74.4624 21.0615 74.4624 21.4485 74.7204C21.8356 74.9784 21.8356 75.2364 21.4485 75.4944C21.0615 75.7525 20.5455 75.7525 20.1584 75.4944C19.7714 75.2364 19.7714 74.8494 20.1584 74.7204Z" fill="#16110D"/>
<path d="M16.8039 72.7853C17.1909 72.5273 17.7069 72.5273 18.094 72.7853C18.481 73.0433 18.481 73.3014 18.094 73.5594C17.7069 73.8174 17.1909 73.8174 16.8039 73.5594C16.5458 73.3014 16.5458 73.0433 16.8039 72.7853Z" fill="#16110D"/>
<path d="M13.5784 70.85C13.9654 70.592 14.4814 70.592 14.8685 70.85C15.2555 71.108 15.2555 71.3661 14.8685 71.6241C14.4814 71.8821 13.9654 71.8821 13.5784 71.6241C13.1913 71.3661 13.1913 71.108 13.5784 70.85Z" fill="#16110D"/>
</svg>
