<svg width="61" height="76" viewBox="0 0 61 76" fill="none" xmlns="http://www.w3.org/2000/svg">
<path d="M18.981 74.6099C19.3277 74.841 19.3277 75.0721 18.981 75.3032C18.6344 75.5344 18.1721 75.5344 17.8254 75.3032C17.4788 75.0721 17.4788 74.841 17.8254 74.6099C18.1721 74.3787 18.7499 74.3787 18.981 74.6099Z" fill="#16110D"/>
<path d="M21.9854 72.8765C22.3321 73.1076 22.3321 73.3387 21.9854 73.5698C21.6388 73.801 21.1765 73.801 20.8298 73.5698C20.4832 73.3387 20.4832 73.1076 20.8298 72.8765C21.1765 72.6453 21.6388 72.6453 21.9854 72.8765Z" fill="#16110D"/>
<path d="M24.8741 71.1431C25.2208 71.3742 25.2208 71.6053 24.8741 71.8364C24.5274 72.0676 24.0652 72.0676 23.7185 71.8364C23.3718 71.6053 23.3718 71.3742 23.7185 71.1431C24.0652 71.0275 24.5274 71.0275 24.8741 71.1431Z" fill="#16110D"/>
<path d="M27.7628 69.5249C28.1095 69.756 28.1095 69.9871 27.7628 70.2182C27.4161 70.4494 26.9539 70.4494 26.6072 70.2182C26.2605 69.9871 26.2605 69.756 26.6072 69.5249C26.9539 69.2938 27.5317 69.2938 27.7628 69.5249Z" fill="#16110D"/>
<path d="M30.6524 67.7915C30.9991 68.0226 30.9991 68.2537 30.6524 68.4848C30.3057 68.716 29.8435 68.716 29.4968 68.4848C29.1501 68.2537 29.1501 68.0226 29.4968 67.7915C29.8435 67.6759 30.4213 67.6759 30.6524 67.7915Z" fill="#16110D"/>
<path d="M33.0789 66.8671C33.5256 66.8671 33.8877 66.6601 33.8877 66.4049C33.8877 66.1496 33.5256 65.9426 33.0789 65.9426C32.6321 65.9426 32.27 66.1496 32.27 66.4049C32.27 66.6601 32.6321 66.8671 33.0789 66.8671Z" fill="#16110D"/>
<path d="M13.2032 74.6099C13.5499 74.841 13.5499 75.0721 13.2032 75.3032C12.8565 75.5344 12.3943 75.5344 12.0476 75.3032C11.7009 75.0721 11.7009 74.841 12.0476 74.6099C12.3943 74.3787 12.8565 74.3787 13.2032 74.6099Z" fill="#16110D"/>
<path d="M15.5139 73.685C15.9607 73.685 16.3228 73.478 16.3228 73.2227C16.3228 72.9674 15.9607 72.7605 15.5139 72.7605C15.0672 72.7605 14.7051 72.9674 14.7051 73.2227C14.7051 73.478 15.0672 73.685 15.5139 73.685Z" fill="#16110D"/>
<path d="M18.4031 71.9518C18.8499 71.9518 19.212 71.7449 19.212 71.4896C19.212 71.2343 18.8499 71.0273 18.4031 71.0273C17.9563 71.0273 17.5942 71.2343 17.5942 71.4896C17.5942 71.7449 17.9563 71.9518 18.4031 71.9518Z" fill="#16110D"/>
<path d="M21.9854 69.5249C22.3321 69.756 22.3321 69.9871 21.9854 70.2182C21.6388 70.4494 21.1765 70.4494 20.8298 70.2182C20.4832 69.9871 20.4832 69.756 20.8298 69.5249C21.1765 69.2938 21.6388 69.2938 21.9854 69.5249Z" fill="#16110D"/>
<path d="M24.2969 68.6005C24.7437 68.6005 25.1058 68.3935 25.1058 68.1383C25.1058 67.883 24.7437 67.676 24.2969 67.676C23.8502 67.676 23.4878 67.883 23.4878 68.1383C23.4878 68.3935 23.8502 68.6005 24.2969 68.6005Z" fill="#16110D"/>
<path d="M27.7628 66.1738C28.1095 66.4049 28.1095 66.6361 27.7628 66.8672C27.4161 67.0983 26.9539 67.0983 26.6072 66.8672C26.2605 66.6361 26.2605 66.4049 26.6072 66.1738C26.9539 65.9427 27.5317 65.9427 27.7628 66.1738Z" fill="#16110D"/>
<path d="M30.6524 64.4404C30.9991 64.6716 30.9991 64.9027 30.6524 65.1338C30.3057 65.3649 29.8435 65.3649 29.4968 65.1338C29.1501 64.9027 29.1501 64.6716 29.4968 64.4404C29.8435 64.2093 30.4213 64.2093 30.6524 64.4404Z" fill="#16110D"/>
<path d="M10.1978 72.8765C10.5445 73.1076 10.5445 73.3387 10.1978 73.5698C9.85116 73.801 9.38892 73.801 9.04224 73.5698C8.69556 73.3387 8.69556 73.1076 9.04224 72.8765C9.38892 72.6453 9.96672 72.6453 10.1978 72.8765Z" fill="#16110D"/>
<path d="M13.2032 71.1431C13.5499 71.3742 13.5499 71.6053 13.2032 71.8364C12.8565 72.0676 12.3943 72.0676 12.0476 71.8364C11.7009 71.6053 11.7009 71.3742 12.0476 71.1431C12.3943 71.0275 12.8565 71.0275 13.2032 71.1431Z" fill="#16110D"/>
<path d="M6.73123 71.9518C7.17798 71.9518 7.54038 71.7449 7.54038 71.4896C7.54038 71.2343 7.17798 71.0273 6.73123 71.0273C6.28447 71.0273 5.92236 71.2343 5.92236 71.4896C5.92236 71.7449 6.28447 71.9518 6.73123 71.9518Z" fill="#16110D"/>
<path d="M10.1978 69.5249C10.5445 69.756 10.5445 69.9871 10.1978 70.2182C9.85116 70.4494 9.38892 70.4494 9.04224 70.2182C8.69556 69.9871 8.69556 69.756 9.04224 69.5249C9.38892 69.2938 9.96672 69.2938 10.1978 69.5249Z" fill="#16110D"/>
<path d="M4.30477 69.5249C4.65145 69.756 4.65145 69.9871 4.30477 70.2182C3.95809 70.4494 3.49585 70.4494 3.14917 70.2182C2.80249 69.9871 2.80249 69.756 3.14917 69.5249C3.49585 69.2938 4.07365 69.2938 4.30477 69.5249Z" fill="#16110D"/>
<path d="M7.30868 67.7915C7.65536 68.0226 7.65536 68.2537 7.30868 68.4848C6.962 68.716 6.49976 68.716 6.15308 68.4848C5.8064 68.2537 5.8064 68.0226 6.15308 67.7915C6.49976 67.5604 6.962 67.5604 7.30868 67.7915Z" fill="#16110D"/>
<path d="M1.41561 67.7915C1.76229 68.0226 1.76229 68.2537 1.41561 68.4848C1.06893 68.716 0.606691 68.716 0.26001 68.4848C-0.0866702 68.2537 -0.0866702 68.0226 0.26001 67.7915C0.606691 67.5604 1.06893 67.5604 1.41561 67.7915Z" fill="#16110D"/>
<path d="M4.30477 66.0581C4.65145 66.2892 4.65145 66.5203 4.30477 66.7514C3.95809 66.9826 3.49585 66.9826 3.14917 66.7514C2.80249 66.5203 2.80249 66.2892 3.14917 66.0581C3.49585 65.9425 4.07365 65.9425 4.30477 66.0581Z" fill="#16110D"/>
<path d="M1.41561 64.4404C1.76229 64.6716 1.76229 64.9027 1.41561 65.1338C1.06893 65.3649 0.606691 65.3649 0.26001 65.1338C-0.0866702 64.9027 -0.0866702 64.6716 0.26001 64.4404C0.606691 64.2093 1.06893 64.2093 1.41561 64.4404Z" fill="#16110D"/>
<path d="M35.5056 64.4404C35.8523 64.2093 36.3145 64.2093 36.6612 64.4404C37.0079 64.6716 37.0079 64.9027 36.6612 65.1338C36.3145 65.3649 35.8523 65.3649 35.5056 65.1338C35.1589 64.9027 35.1589 64.6716 35.5056 64.4404Z" fill="#16110D"/>
<path d="M39.5504 62.707C39.8971 62.9382 39.8971 63.1693 39.5504 63.4004C39.2037 63.6315 38.7415 63.6315 38.3948 63.4004C38.0481 63.1693 38.0481 62.9382 38.3948 62.707C38.7415 62.5915 39.2037 62.5915 39.5504 62.707Z" fill="#16110D"/>
<path d="M42.4395 61.0891C42.7862 61.3202 42.7862 61.5514 42.4395 61.7825C42.0929 62.0136 41.6306 62.0136 41.2839 61.7825C40.9373 61.5514 40.9373 61.3202 41.2839 61.0891C41.6306 60.858 42.0929 60.858 42.4395 61.0891Z" fill="#16110D"/>
<path d="M44.7512 60.1647C45.198 60.1647 45.5601 59.9578 45.5601 59.7025C45.5601 59.4472 45.198 59.2402 44.7512 59.2402C44.3045 59.2402 43.9424 59.4472 43.9424 59.7025C43.9424 59.9578 44.3045 60.1647 44.7512 60.1647Z" fill="#16110D"/>
<path d="M48.3326 57.7378C48.6793 57.9689 48.6793 58.2 48.3326 58.4312C47.9859 58.6623 47.5237 58.6623 47.177 58.4312C46.8303 58.2 46.8303 57.9689 47.177 57.7378C47.5237 57.5067 47.9859 57.5067 48.3326 57.7378Z" fill="#16110D"/>
<path d="M50.6438 56.8134C51.0906 56.8134 51.453 56.6064 51.453 56.3511C51.453 56.0959 51.0906 55.8889 50.6438 55.8889C50.1971 55.8889 49.835 56.0959 49.835 56.3511C49.835 56.6064 50.1971 56.8134 50.6438 56.8134Z" fill="#16110D"/>
<path d="M54.1109 54.271C54.4576 54.5021 54.4576 54.7332 54.1109 54.9644C53.7642 55.1955 53.302 55.1955 52.9553 54.9644C52.6086 54.7332 52.6086 54.5021 52.9553 54.271C53.302 54.1554 53.8798 54.1554 54.1109 54.271Z" fill="#16110D"/>
<path d="M56.5379 53.4621C56.9846 53.4621 57.3467 53.2551 57.3467 52.9998C57.3467 52.7445 56.9846 52.5376 56.5379 52.5376C56.0911 52.5376 55.729 52.7445 55.729 52.9998C55.729 53.2551 56.0911 53.4621 56.5379 53.4621Z" fill="#16110D"/>
<path d="M60.005 50.9199C60.3516 51.151 60.3516 51.3822 60.005 51.6133C59.6583 51.8444 59.196 51.8444 58.8494 51.6133C58.5027 51.3822 58.5027 51.151 58.8494 50.9199C59.196 50.8044 59.6583 50.8044 60.005 50.9199Z" fill="#16110D"/>
<path d="M32.5015 62.707C32.8481 62.4759 33.3104 62.4759 33.6571 62.707C34.0037 62.9382 34.0037 63.1693 33.6571 63.4004C33.3104 63.6315 32.8481 63.6315 32.5015 63.4004C32.2703 63.2848 32.2703 62.9382 32.5015 62.707Z" fill="#16110D"/>
<path d="M36.5455 61.0891C36.8922 61.3202 36.8922 61.5514 36.5455 61.7825C36.1988 62.0136 35.7366 62.0136 35.3899 61.7825C35.0432 61.5514 35.0432 61.3202 35.3899 61.0891C35.7366 60.858 36.3144 60.858 36.5455 61.0891Z" fill="#16110D"/>
<path d="M38.9729 60.1647C39.4197 60.1647 39.7818 59.9578 39.7818 59.7025C39.7818 59.4472 39.4197 59.2402 38.9729 59.2402C38.5262 59.2402 38.1641 59.4472 38.1641 59.7025C38.1641 59.9578 38.5262 60.1647 38.9729 60.1647Z" fill="#16110D"/>
<path d="M42.4395 57.7378C42.7862 57.9689 42.7862 58.2 42.4395 58.4312C42.0929 58.6623 41.6306 58.6623 41.2839 58.4312C40.9373 58.2 40.9373 57.9689 41.2839 57.7378C41.6306 57.5067 42.0929 57.5067 42.4395 57.7378Z" fill="#16110D"/>
<path d="M45.3287 56.0046C45.6754 56.2358 45.6754 56.4669 45.3287 56.698C44.982 56.9291 44.5198 56.9291 44.1731 56.698C43.8264 56.4669 43.8264 56.2358 44.1731 56.0046C44.5198 55.7735 45.0976 55.7735 45.3287 56.0046Z" fill="#16110D"/>
<path d="M48.3326 54.271C48.6793 54.5021 48.6793 54.7332 48.3326 54.9644C47.9859 55.1955 47.5237 55.1955 47.177 54.9644C46.8303 54.7332 46.8303 54.5021 47.177 54.271C47.5237 54.1554 47.9859 54.1554 48.3326 54.271Z" fill="#16110D"/>
<path d="M51.2218 52.6533C51.5684 52.8844 51.5684 53.1156 51.2218 53.3467C50.8751 53.5778 50.4128 53.5778 50.0662 53.3467C49.7195 53.1156 49.7195 52.8844 50.0662 52.6533C50.4128 52.4222 50.8751 52.4222 51.2218 52.6533Z" fill="#16110D"/>
<path d="M54.1109 50.9199C54.4576 51.151 54.4576 51.3822 54.1109 51.6133C53.7642 51.8444 53.302 51.8444 52.9553 51.6133C52.6086 51.3822 52.6086 51.151 52.9553 50.9199C53.302 50.8044 53.8798 50.8044 54.1109 50.9199Z" fill="#16110D"/>
<path d="M56.9996 49.302C57.3463 49.5331 57.3463 49.7642 56.9996 49.9953C56.6529 50.2265 56.1907 50.2265 55.844 49.9953C55.4973 49.7642 55.4973 49.5331 55.844 49.302C56.1907 49.0709 56.7685 49.0709 56.9996 49.302Z" fill="#16110D"/>
<path d="M59.427 48.3776C59.8738 48.3776 60.2359 48.1706 60.2359 47.9154C60.2359 47.6601 59.8738 47.4531 59.427 47.4531C58.9803 47.4531 58.6182 47.6601 58.6182 47.9154C58.6182 48.1706 58.9803 48.3776 59.427 48.3776Z" fill="#16110D"/>
<path d="M50.9909 14.8649C54.8044 11.5136 54.1112 5.38896 49.7199 2.96219L46.3685 1.11322C45.6751 0.650983 44.7507 0.65099 43.8262 1.22879L4.53576 23.763C2.45568 24.9186 0.837891 28.1543 0.837891 30.8122V59.8178C0.837891 61.2045 1.30013 62.2446 1.99349 62.7068L14.7051 69.756L20.9453 58.7778L27.1857 49.6485L43.8262 40.057C45.9063 38.9014 47.5241 35.6657 47.5241 33.0079V19.9495L50.9909 14.8649Z" fill="#36A9E1"/>
<path d="M17.0168 56.6977C14.9367 57.8533 13.3189 56.5822 13.3189 53.9243V46.9907C13.3189 46.8751 13.3189 46.8751 13.3189 46.7596C13.2033 41.6749 10.4298 37.1681 6.03854 34.6257L0.722656 31.8523V59.8178C0.722656 61.2046 1.1849 62.2446 1.87826 62.7069L14.5899 69.756L20.8303 58.7778L25.5681 51.8442L17.0168 56.6977Z" fill="#16110D"/>
<path d="M15.052 70.2183C14.9364 70.4494 14.7053 70.4494 14.4742 70.3338L1.30013 63.0535V62.938C0.491212 62.2446 0.144531 61.2046 0.144531 59.7023V30.6967C0.144531 27.6921 1.87793 24.3409 4.18914 23.0697L43.4796 0.535456C44.6352 -0.157905 45.6752 -0.157912 46.5997 0.419889L49.72 2.15329C51.9157 3.42445 53.5335 5.50454 53.9957 7.9313C54.4579 10.5892 53.418 13.2471 51.4534 14.9805L48.102 19.9496V32.7767C48.102 35.7813 46.3686 39.1326 44.0574 40.4037L27.5322 49.8797L21.4078 58.8934L15.052 70.2183ZM2.34034 62.3602L14.3585 68.9471L20.2522 58.4311L26.7234 49.0707L43.3642 39.4792C45.2132 38.4392 46.831 35.4346 46.831 32.8923V19.7185L50.5289 14.2871C52.2623 12.7848 53.0712 10.7047 52.8401 8.5091C52.609 6.31346 51.3378 4.4645 49.3733 3.30889L46.3686 1.57549L46.0219 1.34437C45.3285 0.882133 44.6352 1.11326 44.0574 1.45994L4.76694 23.9942C2.91798 25.0342 1.30013 28.0388 1.30013 30.5811V59.5867C1.30013 60.9735 1.64698 61.8979 2.34034 62.3602Z" fill="#16110D"/>
<path d="M54.1109 48.1461L17.0162 69.5247C14.9361 70.6803 13.3184 69.4091 13.3184 66.7513V37.7456C13.3184 34.9722 14.9361 31.8521 17.0162 30.6965L54.1109 9.31785C56.191 8.16224 57.809 9.4334 57.809 12.0913V40.9813C57.809 43.7548 56.191 46.8749 54.1109 48.1461Z" fill="#36A9E1"/>
<path d="M15.514 70.5647C15.0518 70.5647 14.705 70.4491 14.2427 70.218C13.2027 69.6402 12.625 68.369 12.625 66.7512V37.7456C12.625 34.741 14.3584 31.3898 16.6696 30.1186L53.7646 8.73999C54.8046 8.16218 55.96 8.04661 56.7689 8.50885C57.809 9.08665 58.387 10.3578 58.387 11.9757V40.9813C58.387 43.9858 56.6536 47.3371 54.3424 48.6083L17.2474 69.9869C16.6696 70.3336 16.0918 70.5647 15.514 70.5647ZM55.6133 9.31779C55.1511 9.31779 54.8044 9.54889 54.4577 9.66445L17.3631 31.0431C15.5141 32.0831 13.8963 35.0877 13.8963 37.63V66.6357C13.8963 67.9068 14.2428 68.7157 14.9362 69.178C15.514 69.5247 16.323 69.2935 16.7853 68.9469L53.8799 47.5682C55.7289 46.5282 57.3467 43.5236 57.3467 40.9813V11.9757C57.3467 10.7045 57.0002 9.89558 56.3068 9.43334C56.0757 9.31778 55.8445 9.31779 55.6133 9.31779Z" fill="#16110D"/>
<path d="M52.8402 4.81115L47.9868 2.03771L46.7155 1.34434L46.2534 1.11322C45.56 0.650983 44.6353 0.65099 43.7108 1.22879L4.42033 23.763C3.49585 24.2253 2.68693 25.1497 2.10912 26.1898C1.64688 26.9987 1.878 28.0388 2.68693 28.501L5.92267 30.35C10.314 32.7767 13.0875 37.3991 13.203 42.4838C13.203 42.5993 13.203 42.5993 13.203 42.7149V49.6485C13.203 52.422 14.8208 53.6931 16.9009 52.422L56.1914 29.8877C58.2715 28.7321 59.8892 25.4964 59.8892 22.8386V16.0205C59.6581 11.2825 56.8848 7.12235 52.8402 4.81115Z" fill="#36A9E1"/>
<path d="M19.6745 38.6702L55.4982 17.8694C57.8094 16.4826 58.5026 13.3625 56.7692 11.2824C55.7291 10.0113 54.3425 8.85567 52.8402 8.04675L47.9868 5.27331L46.7155 4.57994L46.2534 4.34883C45.56 3.88659 44.6353 3.88658 43.7108 4.46438L4.42033 26.9986C3.49585 27.4609 2.80249 28.3853 2.10912 29.4254C1.64688 30.2343 1.878 31.2744 2.68693 31.7366L5.92267 33.5856C7.42495 34.51 8.81167 35.6656 9.96728 36.9368C12.394 39.7103 16.4388 40.5192 19.6745 38.6702Z" fill="white"/>
<path d="M15.5141 53.3465C15.0519 53.3465 14.7051 53.2309 14.2428 52.9998C13.2028 52.422 12.6251 51.1508 12.6251 49.533V42.3683C12.5095 37.6303 9.85165 33.1234 5.69148 30.6967L2.45574 28.8477C1.87794 28.501 1.53137 28.0388 1.41581 27.461C1.30025 26.8832 1.30019 26.3054 1.64687 25.7276C2.34024 24.572 3.26466 23.6475 4.18914 23.0697L43.4796 0.535456C44.6352 -0.157905 45.7908 -0.157912 46.5997 0.419889L48.2177 1.34437L53.0712 4.11783C57.3469 6.54459 60.1203 10.8203 60.5826 15.6739V22.6075C60.5826 25.612 58.8492 28.9633 56.538 30.2344L17.2475 52.7687C16.6697 53.2309 16.0919 53.3465 15.5141 53.3465ZM45.213 1.34437C44.7508 1.34437 44.4041 1.45994 44.0574 1.69106L4.76694 24.2253C3.95802 24.6875 3.2646 25.4965 2.6868 26.4209C2.57124 26.6521 2.45585 26.9988 2.57141 27.2299C2.68697 27.461 2.80253 27.8077 3.14921 27.9232L6.38496 29.7722C11.0074 32.4301 13.8962 37.168 14.0118 42.3683V42.5994V49.533C14.0118 50.8041 14.3586 51.6131 15.052 52.0753C15.6298 52.422 16.4385 52.1909 16.9008 51.8442L56.1912 29.3099C58.0402 28.2699 59.6581 25.2653 59.6581 22.723V15.905C59.3114 11.5137 56.6535 7.58463 52.7244 5.38898L46.2532 1.69106C45.791 1.34438 45.4441 1.34437 45.213 1.34437Z" fill="#16110D"/>
<path d="M42.6715 33.3546C42.6715 33.2391 42.6714 33.2391 42.5558 33.1235L40.7071 32.0835C40.4759 31.9679 40.2449 31.9679 39.8982 32.0835L34.8134 34.9725C34.2356 35.3192 33.7734 36.2437 33.7734 37.0526V44.564C33.7734 45.0262 33.8891 45.2573 34.1202 45.4885L35.969 46.5285C36.0845 46.5285 36.2 46.5285 36.2 46.413L36.4314 44.4484L39.8982 42.4839C40.476 42.1372 40.9381 41.2127 40.9381 40.4038V35.4347L41.8627 34.8569L42.6715 33.3546Z" fill="#36A9E1"/>
<path d="M42.6715 34.2792C42.6715 34.1636 42.6714 34.1637 42.5558 34.0481L40.7071 33.0081C40.4759 32.8925 40.2449 32.8925 39.8982 33.0081L34.8134 35.8971C34.2356 36.2437 33.7734 37.1682 33.7734 37.9771V44.4485C33.7734 44.9108 33.8891 45.1419 34.1202 45.373L34.698 45.9508L35.8536 46.6441C35.9691 46.6441 36.0846 46.6441 36.0846 46.5286L36.3157 45.4885L39.7825 43.524C40.3603 43.1773 40.8224 42.2529 40.8224 41.4439V36.3593L41.747 35.7815L42.6715 34.2792Z" fill="white"/>
<path d="M36.1997 46.9908C36.0841 46.9908 35.9686 46.9908 35.9686 46.8752L34.1198 45.8352C33.7731 45.6041 33.542 45.1418 33.542 44.564V37.0526C33.542 36.1281 34.1196 35.0881 34.813 34.6258L39.8978 31.7368C40.36 31.5057 40.8221 31.5057 41.1688 31.7368L43.0179 32.7769C43.249 32.8924 43.3645 33.2391 43.2489 33.4702L42.5555 35.0881L41.7466 35.5503V40.2883C41.7466 41.2127 41.169 42.2528 40.4756 42.715L37.1242 44.6796L36.8931 46.413C36.8931 46.6441 36.7775 46.7597 36.5464 46.8752C36.3153 46.9908 36.1997 46.9908 36.1997 46.9908ZM40.4756 32.4302C40.36 32.4302 40.3598 32.4302 40.2443 32.5457L35.1597 35.4347C34.6975 35.6659 34.3509 36.4748 34.3509 37.1681V44.6796C34.3509 45.0263 34.4662 45.1418 34.4662 45.1418L35.8532 45.9507L36.0843 44.2173L39.7821 42.1372C40.2444 41.9061 40.591 41.0972 40.591 40.4038V35.2036L41.6312 34.6258L42.0933 33.4702L40.4756 32.5457C40.5912 32.4302 40.4756 32.4302 40.4756 32.4302Z" fill="#16110D"/>
<path d="M41.9775 43.6395L36.893 46.5285C36.3152 46.8752 35.853 46.5285 35.853 45.7196V38.2082C35.853 37.3993 36.3152 36.4748 36.893 36.1281L41.9775 33.2391C42.5553 32.8924 43.0177 33.2391 43.0177 34.048V41.5594C43.1333 42.3683 42.6709 43.2928 41.9775 43.6395Z" fill="#36A9E1"/>
<path d="M36.5468 47.1062C36.3156 47.1062 36.2002 47.1063 36.0846 46.9907C35.738 46.7596 35.5068 46.2973 35.5068 45.7195V38.2081C35.5068 37.2836 36.0845 36.2436 36.7778 35.7813L41.8626 32.8923C42.2093 32.6612 42.6716 32.6612 43.0183 32.8923C43.3649 33.1235 43.5961 33.5857 43.5961 34.1635V41.6749C43.5961 42.5994 43.0181 43.6394 42.3248 44.1017L37.2402 46.9907C37.0091 47.1063 36.7779 47.1062 36.5468 47.1062ZM42.4404 33.5857C42.4404 33.5857 42.3249 33.5857 42.2094 33.7013L37.1246 36.5903C36.6623 36.8214 36.3157 37.6303 36.3157 38.3237V45.8351C36.3157 46.0662 36.4314 46.2973 36.4314 46.2973C36.4314 46.2973 36.5469 46.2973 36.6624 46.2973L41.747 43.4083C42.2092 43.1772 42.5558 42.3683 42.5558 41.6749V34.0479C42.6714 33.8168 42.556 33.7013 42.4404 33.5857C42.556 33.5857 42.4404 33.5857 42.4404 33.5857Z" fill="#16110D"/>
<path d="M40.5914 40.5193L38.9736 41.4438C38.7425 41.5593 38.5112 42.0216 38.5112 42.3683V45.7195L41.1692 44.2172V40.866C41.0536 40.5193 40.8225 40.2882 40.5914 40.5193Z" fill="#36A9E1"/>
<path d="M41.3997 41.3281L39.782 42.2526C39.5508 42.3682 39.3198 42.8304 39.3198 43.1771V46.5283L41.9775 45.0261V41.6748C41.9775 41.3281 41.7464 41.097 41.3997 41.3281Z" fill="white"/>
<path d="M38.0488 46.5285V42.3683C38.0488 41.7905 38.3956 41.2127 38.7423 40.9816L40.36 40.0571C40.5912 39.9416 40.9378 39.9416 41.1689 40.0571C41.4 40.1727 41.5156 40.5194 41.5156 40.866V44.4484L38.0488 46.5285ZM40.5911 40.866L39.0888 41.675C38.9732 41.7905 38.7423 42.0217 38.7423 42.2528V44.9107L40.4757 43.8706V40.866H40.5911Z" fill="#16110D"/>
<path d="M40.36 6.31334L36.0844 3.65545C35.8532 3.42433 35.622 3.30877 35.3909 3.19321C34.582 2.84653 33.5419 2.96209 32.5019 3.65545L24.9905 8.04674C22.4481 9.54902 20.4837 13.0158 20.4837 15.9048V17.4071L17.5947 19.1405V22.1451L23.026 19.025L25.3372 20.4117L29.2661 12.6691L34.4664 9.89571V12.438L39.7822 9.43346V6.89114L40.36 6.31334Z" fill="#36A9E1"/>
<path d="M40.591 7.70006L36.3153 5.04217C36.0842 4.81105 35.853 4.69549 35.6218 4.57993C34.8129 4.23325 33.7729 4.34881 32.7328 5.04217L25.2214 9.43346C22.6791 10.9357 20.7147 14.4026 20.7147 17.2916V18.7938L17.8257 20.5272V21.914L23.257 20.4117L25.5682 21.7984L29.4974 14.0559L34.6976 11.2824L37.4709 12.3225L40.0132 10.8202V8.27786L40.591 7.70006Z" fill="white"/>
<path d="M17.1323 22.1451V18.9094L20.0213 17.176V15.9048C20.0213 12.9003 22.1015 9.20234 24.7594 7.70006L32.2708 3.30877C33.4264 2.61541 34.5821 2.49985 35.5066 2.84653C35.8532 2.96209 36.0843 3.07765 36.3154 3.30877L41.0535 6.31334L39.8979 7.12226V9.66458L33.7732 12.6692V10.5891L29.2661 12.9003L25.2215 20.9895L22.7949 19.4872L17.1323 22.1451ZM17.9415 19.3716V21.3362L23.026 18.4472L25.1061 19.7183L28.804 12.2069L34.8131 9.08678V11.6291L39.2044 9.08678V6.54446L39.6666 6.19777L35.9687 3.88657C35.7376 3.65545 35.622 3.5399 35.3909 3.5399C34.6975 3.30878 33.7731 3.42434 32.8486 4.00214L25.3372 8.39343C22.9104 9.78015 21.0615 13.1314 21.0615 15.9048V17.6382L17.9415 19.3716Z" fill="#16110D"/>
<path d="M44.4047 9.31772L39.4355 6.08203L41.5157 12.669L44.4047 9.31772Z" fill="#36A9E1"/>
<path d="M44.4047 10.358L39.4355 7.12231L41.5157 13.7092L44.4047 10.358Z" fill="white"/>
<path d="M41.4003 13.4781L38.627 5.04224L44.8671 9.08684L44.7517 9.66465L41.4003 13.4781ZM40.2447 7.12232L41.747 11.7447L43.8272 9.43353L40.2447 7.12232Z" fill="#16110D"/>
<path d="M20.4837 17.4072L25.2215 20.4118L22.3325 22.1452L17.479 19.1406L20.4837 17.4072Z" fill="#36A9E1"/>
<path d="M20.4837 18.9092L25.2215 21.9138L22.3325 23.5316L17.479 20.527L20.4837 18.9092Z" fill="white"/>
<path d="M33.8887 9.66448V12.669L39.0889 15.9047L39.5513 15.6736V7.35327L33.8887 9.66448Z" fill="#16110D"/>
<path d="M44.4047 12.4379L39.0888 15.4424V10.9356C39.0888 9.77999 38.2799 9.31776 37.3554 9.89556L29.844 14.2868C28.8039 14.8646 28.1106 16.2514 28.1106 17.407V21.9138L22.4482 25.1495V22.1449L25.3372 20.4115V18.9092C25.3372 16.0202 27.4172 12.4379 29.844 11.0512L37.3554 6.65987C39.8977 5.15759 41.8624 6.42875 41.8624 9.31776V10.82L44.4047 9.31776V12.4379Z" fill="#36A9E1"/>
<path d="M44.4046 8.8556L42.3245 10.0112V9.31785C42.3245 7.81557 41.7467 6.54439 40.8222 5.96659C39.7821 5.38879 38.511 5.50436 37.1243 6.31328L29.6129 10.7046C26.955 12.2069 24.8751 15.9048 24.8751 18.9093V19.6027L20.4837 16.9448L17.1323 18.9093V22.3761L22.3325 25.6118L28.4573 22.0295V17.2915C28.4573 16.367 29.1508 15.0958 30.0753 14.6336L37.5867 10.2423C37.9334 10.0112 38.1645 10.0112 38.3956 10.1268C38.6267 10.2423 38.7423 10.4734 38.7423 10.9357V15.6737L39.2044 16.0203L44.8668 12.6691V9.20228L44.4046 8.8556ZM20.137 20.2961L18.4036 19.1405L20.4837 17.9849L24.4127 20.4116L22.3325 21.5672L20.137 20.2961ZM43.9425 12.0913L39.5512 14.6336V10.9357C39.5512 10.2423 39.3199 9.66452 38.8577 9.4334C38.3955 9.20228 37.8177 9.20229 37.1243 9.54897L29.6129 13.9403C28.4573 14.6336 27.6484 16.1359 27.6484 17.4071V21.6828L22.7949 24.4562V22.4917L25.6839 20.7583V19.0249C25.6839 16.2515 27.6484 12.9002 29.9596 11.5135L37.471 7.1222C38.5111 6.54439 39.551 6.42883 40.2444 6.77551C40.9377 7.23775 41.4 8.04669 41.4 9.31785V11.5135L43.9425 10.0112V12.0913Z" fill="#16110D"/>
<path d="M11.1232 51.8441C11.1232 53.4619 11.7012 54.7331 12.7412 55.3109C12.7412 55.3109 12.8566 55.3109 12.8566 55.4265V54.0397C12.5099 53.5775 12.2788 52.8841 12.2788 51.8441V44.9105V44.6794C11.9321 43.2927 11.2388 42.137 10.5454 40.9814C10.8921 42.2526 11.1232 43.5238 11.1232 44.7949V51.8441Z" fill="#36A9E1"/>
<path d="M33.8887 36.8213L35.8534 38.0925L36.0845 46.2972L33.8887 45.2572V36.8213Z" fill="#16110D"/>
<path d="M38.8582 52.6531C38.5115 52.0753 38.7428 51.382 39.3206 51.0353L50.992 44.4483C52.3787 43.6394 53.1878 42.2527 53.1878 40.6349V36.128C53.1878 35.4347 53.65 34.9724 54.3434 34.9724C55.0368 34.9724 55.499 35.4347 55.499 36.128V40.6349C55.499 43.0616 54.2277 45.2573 52.1476 46.4129L40.4762 52.9998C39.7828 53.3465 39.0893 53.1154 38.8582 52.6531Z" fill="white"/>
<path d="M31.8086 57.8535L36.1997 55.3111C36.5463 55.08 36.7775 54.7333 36.7775 54.2711C36.7775 53.3466 35.853 52.8844 35.0441 53.2311L30.653 55.7734C30.3063 56.0045 30.0752 56.3512 30.0752 56.8134C30.0752 57.7379 31.1152 58.3157 31.8086 57.8535Z" fill="white"/>
<path d="M21.4079 12.4382L26.1457 15.3272L24.9901 19.3718L25.1058 20.2963L20.4834 17.4073L20.5988 14.6339L21.4079 12.4382Z" fill="#16110D"/>
</svg>
