<svg width="51" height="85" viewBox="0 0 51 85" fill="none" xmlns="http://www.w3.org/2000/svg">
<path d="M20.8879 79.3746C21.3743 79.3746 21.7686 79.1492 21.7686 78.8713C21.7686 78.5933 21.3743 78.3679 20.8879 78.3679C20.4014 78.3679 20.0068 78.5933 20.0068 78.8713C20.0068 79.1492 20.4014 79.3746 20.8879 79.3746Z" fill="#16110D"/>
<path d="M24.0339 77.6128C24.5203 77.6128 24.9146 77.3875 24.9146 77.1095C24.9146 76.8315 24.5203 76.6062 24.0339 76.6062C23.5474 76.6062 23.1528 76.8315 23.1528 77.1095C23.1528 77.3875 23.5474 77.6128 24.0339 77.6128Z" fill="#16110D"/>
<path d="M27.1794 75.7256C27.6658 75.7256 28.0601 75.5003 28.0601 75.2223C28.0601 74.9443 27.6658 74.719 27.1794 74.719C26.6929 74.719 26.2983 74.9443 26.2983 75.2223C26.2983 75.5003 26.6929 75.7256 27.1794 75.7256Z" fill="#16110D"/>
<path d="M31.0795 73.0833C31.4569 73.3349 31.4569 73.5866 31.0795 73.8382C30.702 74.0899 30.1987 74.0899 29.8212 73.8382C29.4437 73.5866 29.4437 73.3349 29.8212 73.0833C30.1987 72.8316 30.702 72.8316 31.0795 73.0833Z" fill="#16110D"/>
<path d="M18.2455 76.7324C18.6229 76.9841 18.6229 77.2358 18.2455 77.4874C17.868 77.7391 17.3647 77.7391 16.9872 77.4874C16.6097 77.2358 16.6097 76.9841 16.9872 76.7324C17.3647 76.4808 17.9938 76.4808 18.2455 76.7324Z" fill="#16110D"/>
<path d="M21.5165 74.8449C21.8939 75.0965 21.8939 75.3482 21.5165 75.5998C21.139 75.8515 20.6357 75.8515 20.2582 75.5998C19.8807 75.3482 19.8807 75.0965 20.2582 74.8449C20.6357 74.719 21.139 74.719 21.5165 74.8449Z" fill="#16110D"/>
<path d="M24.662 73.0833C25.0395 73.3349 25.0395 73.5866 24.662 73.8382C24.2845 74.0899 23.7812 74.0899 23.4037 73.8382C23.0262 73.5866 23.0262 73.3349 23.4037 73.0833C23.7812 72.8316 24.2845 72.8316 24.662 73.0833Z" fill="#16110D"/>
<path d="M27.1794 72.0767C27.6658 72.0767 28.0601 71.8513 28.0601 71.5734C28.0601 71.2954 27.6658 71.0701 27.1794 71.0701C26.6929 71.0701 26.2983 71.2954 26.2983 71.5734C26.2983 71.8513 26.6929 72.0767 27.1794 72.0767Z" fill="#16110D"/>
<path d="M14.4706 75.7256C14.957 75.7256 15.3513 75.5003 15.3513 75.2223C15.3513 74.9443 14.957 74.719 14.4706 74.719C13.9841 74.719 13.5898 74.9443 13.5898 75.2223C13.5898 75.5003 13.9841 75.7256 14.4706 75.7256Z" fill="#16110D"/>
<path d="M18.2455 73.0833C18.6229 73.3349 18.6229 73.5866 18.2455 73.8382C17.868 74.0899 17.3647 74.0899 16.9872 73.8382C16.6097 73.5866 16.6097 73.3349 16.9872 73.0833C17.3647 72.8316 17.9938 72.8316 18.2455 73.0833Z" fill="#16110D"/>
<path d="M20.8879 72.0767C21.3743 72.0767 21.7686 71.8513 21.7686 71.5734C21.7686 71.2954 21.3743 71.0701 20.8879 71.0701C20.4014 71.0701 20.0068 71.2954 20.0068 71.5734C20.0068 71.8513 20.4014 72.0767 20.8879 72.0767Z" fill="#16110D"/>
<path d="M24.0339 70.1892C24.5203 70.1892 24.9146 69.9639 24.9146 69.6859C24.9146 69.4079 24.5203 69.1826 24.0339 69.1826C23.5474 69.1826 23.1528 69.4079 23.1528 69.6859C23.1528 69.9639 23.5474 70.1892 24.0339 70.1892Z" fill="#16110D"/>
<path d="M11.954 73.0833C12.3314 73.3349 12.3314 73.5866 11.954 73.8382C11.5765 74.0899 11.0732 74.0899 10.6957 73.8382C10.3182 73.5866 10.3182 73.3349 10.6957 73.0833C11.0732 72.8316 11.5765 72.8316 11.954 73.0833Z" fill="#16110D"/>
<path d="M15.1 71.1958C15.4774 71.4475 15.4774 71.6991 15.1 71.9508C14.7225 72.2024 14.2192 72.2024 13.8417 71.9508C13.4642 71.6991 13.4642 71.4475 13.8417 71.1958C14.2192 70.9442 14.7225 70.9442 15.1 71.1958Z" fill="#16110D"/>
<path d="M18.2455 69.3085C18.6229 69.5601 18.6229 69.8118 18.2455 70.0634C17.868 70.3151 17.3647 70.3151 16.9872 70.0634C16.6097 69.8118 16.6097 69.5601 16.9872 69.3085C17.3647 69.1827 17.9938 69.1827 18.2455 69.3085Z" fill="#16110D"/>
<path d="M20.8879 68.4277C21.3743 68.4277 21.7686 68.2024 21.7686 67.9244C21.7686 67.6465 21.3743 67.4211 20.8879 67.4211C20.4014 67.4211 20.0068 67.6465 20.0068 67.9244C20.0068 68.2024 20.4014 68.4277 20.8879 68.4277Z" fill="#16110D"/>
<path d="M8.17906 72.0767C8.6655 72.0767 9.05978 71.8513 9.05978 71.5734C9.05978 71.2954 8.6655 71.0701 8.17906 71.0701C7.69262 71.0701 7.29834 71.2954 7.29834 71.5734C7.29834 71.8513 7.69262 72.0767 8.17906 72.0767Z" fill="#16110D"/>
<path d="M11.954 69.3085C12.3314 69.5601 12.3314 69.8118 11.954 70.0634C11.5765 70.3151 11.0732 70.3151 10.6957 70.0634C10.3182 69.8118 10.3182 69.5601 10.6957 69.3085C11.0732 69.1827 11.5765 69.1827 11.954 69.3085Z" fill="#16110D"/>
<path d="M15.1 67.5469C15.4774 67.7985 15.4774 68.0502 15.1 68.3018C14.7225 68.5535 14.2192 68.5535 13.8417 68.3018C13.4642 68.0502 13.4642 67.7985 13.8417 67.5469C14.2192 67.2952 14.7225 67.2952 15.1 67.5469Z" fill="#16110D"/>
<path d="M18.2455 65.6595C18.6229 65.9111 18.6229 66.1627 18.2455 66.4144C17.868 66.666 17.3647 66.666 16.9872 66.4144C16.6097 66.1627 16.6097 65.9111 16.9872 65.6595C17.3647 65.4078 17.9938 65.5336 18.2455 65.6595Z" fill="#16110D"/>
<path d="M4.90758 70.1892C5.39402 70.1892 5.7886 69.9639 5.7886 69.6859C5.7886 69.4079 5.39402 69.1826 4.90758 69.1826C4.42113 69.1826 4.02686 69.4079 4.02686 69.6859C4.02686 69.9639 4.42113 70.1892 4.90758 70.1892Z" fill="#16110D"/>
<path d="M8.68199 67.5469C9.05947 67.7985 9.05947 68.0502 8.68199 68.3018C8.30452 68.5535 7.80121 68.5535 7.42373 68.3018C7.04626 68.0502 7.04626 67.7985 7.42373 67.5469C7.80121 67.2952 8.30452 67.2952 8.68199 67.5469Z" fill="#16110D"/>
<path d="M11.8275 65.6597C12.205 65.9113 12.205 66.163 11.8275 66.4146C11.45 66.6663 10.9467 66.6663 10.5692 66.4146C10.1918 66.163 10.1918 65.9113 10.5692 65.6597C10.9467 65.408 11.5759 65.408 11.8275 65.6597Z" fill="#16110D"/>
<path d="M15.1 63.7721C15.4774 64.0238 15.4774 64.2754 15.1 64.527C14.7225 64.7787 14.2192 64.7787 13.8417 64.527C13.4642 64.2754 13.4642 64.0238 13.8417 63.7721C14.2192 63.6463 14.7225 63.6463 15.1 63.7721Z" fill="#16110D"/>
<path d="M4.90758 66.5405C5.39402 66.5405 5.7886 66.3152 5.7886 66.0372C5.7886 65.7593 5.39402 65.5339 4.90758 65.5339C4.42113 65.5339 4.02686 65.7593 4.02686 66.0372C4.02686 66.3152 4.42113 66.5405 4.90758 66.5405Z" fill="#16110D"/>
<path d="M8.68199 63.7721C9.05947 64.0238 9.05947 64.2754 8.68199 64.527C8.30452 64.7787 7.80121 64.7787 7.42373 64.527C7.04626 64.2754 7.04626 64.0238 7.42373 63.7721C7.80121 63.6463 8.30452 63.6463 8.68199 63.7721Z" fill="#16110D"/>
<path d="M36.868 84.6592C37.3545 84.6592 37.7487 84.4339 37.7487 84.1559C37.7487 83.8779 37.3545 83.6526 36.868 83.6526C36.3816 83.6526 35.9873 83.8779 35.9873 84.1559C35.9873 84.4339 36.3816 84.6592 36.868 84.6592Z" fill="#16110D"/>
<path d="M40.139 82.772C40.6255 82.772 41.0201 82.5466 41.0201 82.2687C41.0201 81.9907 40.6255 81.7654 40.139 81.7654C39.6526 81.7654 39.2583 81.9907 39.2583 82.2687C39.2583 82.5466 39.6526 82.772 40.139 82.772Z" fill="#16110D"/>
<path d="M31.2054 83.7783C31.5829 84.03 31.5829 84.2817 31.2054 84.5333C30.828 84.785 30.3246 84.785 29.9472 84.5333C29.5697 84.2817 29.5697 84.03 29.9472 83.7783C30.3246 83.5267 30.828 83.5267 31.2054 83.7783Z" fill="#16110D"/>
<path d="M34.3509 81.891C34.7284 82.1427 34.7284 82.3943 34.3509 82.646C33.9735 82.8976 33.4702 82.8976 33.0927 82.646C32.7152 82.3943 32.7152 82.1427 33.0927 81.891C33.4702 81.7652 33.9735 81.7652 34.3509 81.891Z" fill="#16110D"/>
<path d="M37.4969 80.1297C37.8744 80.3813 37.8744 80.6329 37.4969 80.8846C37.1195 81.1362 36.6162 81.1362 36.2387 80.8846C35.8612 80.6329 35.8612 80.3813 36.2387 80.1297C36.6162 79.878 37.1195 79.878 37.4969 80.1297Z" fill="#16110D"/>
<path d="M40.139 79.123C40.6255 79.123 41.0201 78.8977 41.0201 78.6198C41.0201 78.3418 40.6255 78.1165 40.139 78.1165C39.6526 78.1165 39.2583 78.3418 39.2583 78.6198C39.2583 78.8977 39.6526 79.123 40.139 79.123Z" fill="#16110D"/>
<path d="M27.3045 82.772C27.791 82.772 28.1853 82.5466 28.1853 82.2687C28.1853 81.9907 27.791 81.7654 27.3045 81.7654C26.8181 81.7654 26.4238 81.9907 26.4238 82.2687C26.4238 82.5466 26.8181 82.772 27.3045 82.772Z" fill="#16110D"/>
<path d="M31.2054 80.1297C31.5829 80.3813 31.5829 80.6329 31.2054 80.8846C30.828 81.1362 30.3246 81.1362 29.9472 80.8846C29.5697 80.6329 29.5697 80.3813 29.9472 80.1297C30.3246 79.878 30.828 79.878 31.2054 80.1297Z" fill="#16110D"/>
<path d="M33.7225 79.123C34.209 79.123 34.6032 78.8977 34.6032 78.6198C34.6032 78.3418 34.209 78.1165 33.7225 78.1165C33.2361 78.1165 32.8418 78.3418 32.8418 78.6198C32.8418 78.8977 33.2361 79.123 33.7225 79.123Z" fill="#16110D"/>
<path d="M36.868 77.2356C37.3545 77.2356 37.7487 77.0103 37.7487 76.7323C37.7487 76.4543 37.3545 76.229 36.868 76.229C36.3816 76.229 35.9873 76.4543 35.9873 76.7323C35.9873 77.0103 36.3816 77.2356 36.868 77.2356Z" fill="#16110D"/>
<path d="M24.788 80.1297C25.1654 80.3813 25.1654 80.6329 24.788 80.8846C24.4105 81.1362 23.9072 81.1362 23.5297 80.8846C23.1522 80.6329 23.1522 80.3813 23.5297 80.1297C23.9072 79.878 24.4105 79.878 24.788 80.1297Z" fill="#16110D"/>
<path d="M27.9339 78.2421C28.3114 78.4937 28.3114 78.7453 27.9339 78.997C27.5565 79.2487 27.0532 79.2487 26.6757 78.997C26.2982 78.7453 26.2982 78.4937 26.6757 78.2421C27.0532 78.1162 27.6823 78.1162 27.9339 78.2421Z" fill="#16110D"/>
<path d="M31.2054 76.3546C31.5829 76.6063 31.5829 76.8579 31.2054 77.1095C30.828 77.3612 30.3246 77.3612 29.9472 77.1095C29.5697 76.8579 29.5697 76.6063 29.9472 76.3546C30.3246 76.2288 30.828 76.2288 31.2054 76.3546Z" fill="#16110D"/>
<path d="M33.7225 75.4739C34.209 75.4739 34.6032 75.2485 34.6032 74.9706C34.6032 74.6926 34.209 74.4673 33.7225 74.4673C33.2361 74.4673 32.8418 74.6926 32.8418 74.9706C32.8418 75.2485 33.2361 75.4739 33.7225 75.4739Z" fill="#16110D"/>
<path d="M46.6819 22.2499L28.3112 3.37596L9.94044 0.859441C9.05966 0.607789 8.30476 0.733611 7.80146 1.11109L1.8877 4.63422L5.66248 12.5613V25.1439C5.66248 25.1439 7.67582 41.5013 17.7419 57.2295C25.669 69.6863 27.3045 70.6929 27.3045 70.6929C27.3045 70.6929 28.3112 71.1962 32.4635 69.938L33.5958 70.4413L37.8741 67.9248C38.629 67.5473 40.0131 66.9181 40.6422 66.4148H40.7678C48.3174 61.1301 49.8276 49.9316 49.8276 49.9316L50.3307 28.7928C49.9533 26.7796 48.6951 24.0114 46.6819 22.2499Z" fill="#36A9E1"/>
<path d="M48.0657 31.1834C49.1981 30.5543 49.5756 29.1702 49.0723 27.9119C48.4432 26.6537 47.6883 25.3954 46.5558 24.5146L29.6952 7.15063L20.5099 12.687C20.2582 12.687 19.3773 11.932 18.119 11.0513L17.2383 11.5545L36.6157 37.7264L48.0657 31.1834Z" fill="white"/>
<path d="M27.8082 71.4477C27.1791 71.4477 26.9272 71.3219 26.9272 71.3219C26.6755 71.1961 25.0398 69.812 17.2386 57.7327C7.17253 42.0044 5.03354 25.5212 5.03354 25.3954V12.9386L1.13281 4.63406L7.42412 0.985113C8.05325 0.607635 8.93403 0.481812 9.94064 0.733465L28.4373 3.24999L46.9337 22.2497C48.9469 24.1371 50.3309 26.9053 50.3309 29.1702L49.8278 50.3089C49.7019 50.8122 48.1918 61.5074 40.768 67.0438L40.5164 67.1696C39.7615 67.6729 38.3773 68.3021 37.6224 68.6796L33.2185 71.3219L32.0862 70.8186C29.9471 71.1961 28.689 71.4477 27.8082 71.4477ZM27.4306 70.4411C27.5565 70.4411 28.689 70.6927 32.2121 69.5603H32.3377L33.3444 70.0637L37.3708 67.6729C38.1257 67.2954 39.3839 66.6663 40.1389 66.163H40.2648C47.5628 61.0042 49.0727 50.1831 49.0727 50.0573L49.5759 29.0443C49.5759 27.0311 48.3176 24.3888 46.4302 22.753L28.1854 4.00493L9.94064 1.61424C9.18568 1.36259 8.55667 1.48841 8.1792 1.74006L2.51702 5.01154L6.16586 12.8128V25.3954C6.16586 25.5212 8.30502 41.7528 18.2453 57.2294C25.5432 68.9312 27.3048 70.3153 27.4306 70.4411Z" fill="#16110D"/>
<path d="M27.9336 3.75301C28.0595 3.62719 28.0595 3.50136 27.9336 3.50136L9.94044 1.11066C9.05966 0.859004 8.30476 0.984846 7.80146 1.36232L1.8877 4.88544L3.77509 9.0377L22.2715 7.15031L27.9336 3.75301Z" fill="#36A9E1"/>
<path d="M28.5625 5.26325C28.6884 5.13743 28.6884 5.0116 28.5625 5.0116L10.5693 2.62092C9.68857 2.36926 8.93367 2.49509 8.43037 2.87256L2.5166 6.3957L4.40399 10.5479L22.9004 8.66055L28.5625 5.26325Z" fill="white"/>
<path d="M3.39688 9.41531L1.38385 5.13723C1.25802 4.75976 1.38378 4.38226 1.63544 4.25644L7.42325 0.859136C8.05238 0.481658 8.93316 0.355836 9.93977 0.607488L27.8073 2.99818C28.059 2.99818 28.3105 3.24984 28.3105 3.50149C28.3105 3.75314 28.1847 4.0048 28.0589 4.13062L22.1452 7.52792L3.39688 9.41531ZM2.39021 4.88557L4.02601 8.4087L22.0192 6.64714L26.9263 3.87897L9.81413 1.6141C9.05918 1.36245 8.42986 1.48826 8.05238 1.73992L2.39021 4.88557Z" fill="#16110D"/>
<path d="M40.5167 25.8987L22.1462 7.02477L3.77551 4.50825C1.88812 4.00494 0.503906 5.13736 0.503906 7.40223V28.1635C0.503906 28.1635 2.51725 44.5209 12.5833 60.2492C20.5104 72.706 22.1462 73.7126 22.1462 73.7126C22.1462 73.7126 23.7818 74.4676 31.7088 71.3219C41.9007 67.2955 43.7883 53.2029 43.7883 53.2029V32.4416C43.7883 30.3026 42.5299 27.6602 40.5167 25.8987Z" fill="#16110D"/>
<path d="M22.7746 74.3413C22.1455 74.3413 21.8936 74.2154 21.8936 74.2154C21.642 74.0896 20.0063 72.7056 12.2051 60.6262C2.13898 44.898 0 28.4148 0 28.2889V7.52762C0 6.26936 0.377478 5.26275 1.25826 4.63362C2.01322 4.13031 2.89412 4.00448 3.90073 4.25614L22.3971 6.77266L40.8935 25.7724C42.9067 27.6598 44.2907 30.428 44.2907 32.6928V53.4541C44.1649 54.0833 42.1518 67.9241 31.8341 72.0764C26.5494 73.9638 24.0329 74.3413 22.7746 74.3413ZM22.3971 73.3346C22.3971 73.3346 24.2846 73.838 31.5825 70.8181C41.3969 66.9175 43.41 53.2025 43.41 53.0767V32.4412C43.41 30.428 42.1517 27.7856 40.2643 26.1499L22.0196 7.40179L3.77478 5.0111C3.01983 4.75945 2.26487 4.88527 1.88739 5.26275C1.38409 5.64023 1.00667 6.39518 1.00667 7.40179V28.1631C1.00667 28.2889 3.14553 44.5205 13.0858 59.9971C20.6354 71.9506 22.2713 73.3346 22.3971 73.3346Z" fill="#16110D"/>
<path d="M22.7741 69.8118C22.2708 69.8118 22.0189 69.6859 21.8931 69.6859C21.6415 69.5601 20.2574 68.4277 13.4628 57.8583C4.78082 44.2691 2.89355 29.9249 2.89355 29.7991V11.8059C2.89355 10.6735 3.27109 9.79273 3.90022 9.28943C4.52936 8.78612 5.41001 8.66031 6.2908 8.91196L22.3966 11.051L38.5024 27.5342C40.264 29.1699 41.5221 31.5607 41.5221 33.6997V51.6928C41.3963 52.322 39.7604 64.2754 30.7009 67.9244C26.0454 69.4343 23.7807 69.8118 22.7741 69.8118ZM22.3966 68.8052C22.5224 68.8052 24.0324 69.1826 30.3237 66.6661C38.754 63.2688 40.5154 51.4412 40.5154 51.3153V33.3222C40.5154 31.5606 39.3832 29.2958 37.8733 27.9117L22.0191 11.6801L6.16485 9.54109C5.53572 9.41527 4.90683 9.41526 4.52936 9.79274C4.02605 10.1702 3.77428 10.7993 3.77428 11.5543V29.5474C3.77428 29.6733 5.66173 43.7658 14.2179 57.2292C20.8867 67.5469 22.3966 68.8052 22.3966 68.8052Z" fill="#36A9E1"/>
</svg>
