<svg width="66" height="80" viewBox="0 0 66 80" fill="none" xmlns="http://www.w3.org/2000/svg">
<path d="M1.47258 66.6019C1.83321 66.8424 1.83321 67.0828 1.47258 67.3232C1.11195 67.5636 0.631105 67.5636 0.270473 67.3232C-0.0901578 67.0828 -0.0901578 66.8424 0.270473 66.6019C0.631105 66.3615 1.23216 66.3615 1.47258 66.6019Z" fill="#16110D"/>
<path d="M4.59758 64.7987C4.95821 65.0391 4.95821 65.2795 4.59758 65.5199C4.23695 65.7603 3.7561 65.7603 3.39547 65.5199C3.03484 65.2795 3.03484 65.0391 3.39547 64.7987C3.7561 64.6784 4.23695 64.6784 4.59758 64.7987Z" fill="#16110D"/>
<path d="M7.60246 63.1156C7.96309 63.356 7.96309 63.5965 7.60246 63.8369C7.24183 64.0773 6.76099 64.0773 6.40036 63.8369C6.03973 63.5965 6.03973 63.356 6.40036 63.1156C6.76099 62.8752 7.24183 62.8752 7.60246 63.1156Z" fill="#16110D"/>
<path d="M1.47258 63.1156C1.83321 63.356 1.83321 63.5965 1.47258 63.8369C1.11195 64.0773 0.631105 64.0773 0.270473 63.8369C-0.0901578 63.5965 -0.0901578 63.356 0.270473 63.1156C0.631105 62.8752 1.23216 62.8752 1.47258 63.1156Z" fill="#16110D"/>
<path d="M62.1786 73.3336C62.5393 73.5741 62.5393 73.8145 62.1786 74.0549C61.818 74.2953 61.3372 74.2953 60.9765 74.0549C60.6159 73.8145 60.6159 73.5741 60.9765 73.3336C61.3372 73.0932 61.818 73.0932 62.1786 73.3336Z" fill="#16110D"/>
<path d="M56.0478 73.3336C56.4084 73.5741 56.4084 73.8145 56.0478 74.0549C55.6871 74.2953 55.2063 74.2953 54.8457 74.0549C54.485 73.8145 54.485 73.5741 54.8457 73.3336C55.2063 73.0932 55.8074 73.0932 56.0478 73.3336Z" fill="#16110D"/>
<path d="M59.1733 71.5306C59.5339 71.771 59.5339 72.0114 59.1733 72.2518C58.8126 72.4923 58.3318 72.4923 57.9712 72.2518C57.6105 72.0114 57.6105 71.771 57.9712 71.5306C58.3318 71.4104 58.8126 71.4104 59.1733 71.5306Z" fill="#16110D"/>
<path d="M53.0424 71.5306C53.403 71.771 53.403 72.0114 53.0424 72.2518C52.6818 72.4923 52.2009 72.4923 51.8403 72.2518C51.4797 72.0114 51.4797 71.771 51.8403 71.5306C52.2009 71.4104 52.802 71.4104 53.0424 71.5306Z" fill="#16110D"/>
<path d="M56.0478 69.8476C56.4084 70.088 56.4084 70.3284 56.0478 70.5688C55.6871 70.8092 55.2063 70.8092 54.8457 70.5688C54.485 70.3284 54.485 70.088 54.8457 69.8476C55.2063 69.6071 55.8074 69.6071 56.0478 69.8476Z" fill="#16110D"/>
<path d="M50.0375 69.8476C50.3981 70.088 50.3981 70.3284 50.0375 70.5688C49.6769 70.8092 49.196 70.8092 48.8354 70.5688C48.4748 70.3284 48.4748 70.088 48.8354 69.8476C49.196 69.6071 49.6769 69.6071 50.0375 69.8476Z" fill="#16110D"/>
<path d="M53.0424 68.0445C53.403 68.2849 53.403 68.5253 53.0424 68.7658C52.6818 69.0062 52.2009 69.0062 51.8403 68.7658C51.4797 68.5253 51.4797 68.2849 51.8403 68.0445C52.2009 67.9243 52.802 67.9243 53.0424 68.0445Z" fill="#16110D"/>
<path d="M28.8803 78.5025C29.2409 78.7429 29.2409 78.9834 28.8803 79.2238C28.5197 79.4642 28.0388 79.4642 27.6782 79.2238C27.3176 78.9834 27.3176 78.7429 27.6782 78.5025C28.0388 78.3823 28.5197 78.3823 28.8803 78.5025Z" fill="#16110D"/>
<path d="M31.8857 76.82C32.2463 77.0604 32.2463 77.3008 31.8857 77.5412C31.525 77.7816 31.0442 77.7816 30.6836 77.5412C30.3229 77.3008 30.3229 77.0604 30.6836 76.82C31.0442 76.5795 31.525 76.5795 31.8857 76.82Z" fill="#16110D"/>
<path d="M47.0321 68.0445C47.3928 68.2849 47.3928 68.5253 47.0321 68.7658C46.6715 69.0062 46.1907 69.0062 45.83 68.7658C45.4694 68.5253 45.4694 68.2849 45.83 68.0445C46.1907 67.9243 46.6715 67.9243 47.0321 68.0445Z" fill="#16110D"/>
<path d="M50.0375 66.3617C50.3981 66.6021 50.3981 66.8426 50.0375 67.083C49.6769 67.3234 49.196 67.3234 48.8354 67.083C48.4748 66.8426 48.4748 66.6021 48.8354 66.3617C49.196 66.1213 49.6769 66.1213 50.0375 66.3617Z" fill="#16110D"/>
<path d="M22.8695 78.5025C23.2302 78.7429 23.2302 78.9834 22.8695 79.2238C22.5089 79.4642 22.0281 79.4642 21.6674 79.2238C21.3068 78.9834 21.3068 78.7429 21.6674 78.5025C22.0281 78.3823 22.5089 78.3823 22.8695 78.5025Z" fill="#16110D"/>
<path d="M25.8749 76.82C26.2356 77.0604 26.2356 77.3008 25.8749 77.5412C25.5143 77.7816 25.0334 77.7816 24.6728 77.5412C24.3122 77.3008 24.3122 77.0604 24.6728 76.82C25.0334 76.5795 25.5143 76.5795 25.8749 76.82Z" fill="#16110D"/>
<path d="M28.8803 75.0167C29.2409 75.2571 29.2409 75.4975 28.8803 75.7379C28.5197 75.9784 28.0388 75.9784 27.6782 75.7379C27.3176 75.4975 27.3176 75.2571 27.6782 75.0167C28.0388 74.8965 28.5197 74.8965 28.8803 75.0167Z" fill="#16110D"/>
<path d="M31.8857 73.3336C32.2463 73.5741 32.2463 73.8145 31.8857 74.0549C31.525 74.2953 31.0442 74.2953 30.6836 74.0549C30.3229 73.8145 30.3229 73.5741 30.6836 73.3336C31.0442 73.0932 31.525 73.0932 31.8857 73.3336Z" fill="#16110D"/>
<path d="M44.0268 66.3617C44.3874 66.6021 44.3874 66.8426 44.0268 67.083C43.6661 67.3234 43.1853 67.3234 42.8247 67.083C42.464 66.8426 42.464 66.6021 42.8247 66.3617C43.1853 66.1213 43.6661 66.1213 44.0268 66.3617Z" fill="#16110D"/>
<path d="M47.0321 64.5584C47.3928 64.7988 47.3928 65.0393 47.0321 65.2797C46.6715 65.5201 46.1907 65.5201 45.83 65.2797C45.4694 65.0393 45.4694 64.7988 45.83 64.5584C46.1907 64.4382 46.6715 64.4382 47.0321 64.5584Z" fill="#16110D"/>
<path d="M19.8647 76.82C20.2253 77.0604 20.2253 77.3008 19.8647 77.5412C19.504 77.7816 19.0232 77.7816 18.6626 77.5412C18.3019 77.3008 18.3019 77.0604 18.6626 76.82C19.0232 76.5795 19.504 76.5795 19.8647 76.82Z" fill="#16110D"/>
<path d="M22.8695 75.0167C23.2302 75.2571 23.2302 75.4975 22.8695 75.7379C22.5089 75.9784 22.0281 75.9784 21.6674 75.7379C21.3068 75.4975 21.3068 75.2571 21.6674 75.0167C22.0281 74.8965 22.5089 74.8965 22.8695 75.0167Z" fill="#16110D"/>
<path d="M41.0214 64.5584C41.382 64.7988 41.382 65.0393 41.0214 65.2797C40.6608 65.5201 40.1799 65.5201 39.8193 65.2797C39.4587 65.0393 39.4587 64.7988 39.8193 64.5584C40.1799 64.4382 40.6608 64.4382 41.0214 64.5584Z" fill="#16110D"/>
<path d="M44.0268 62.8754C44.3874 63.1158 44.3874 63.3562 44.0268 63.5966C43.6661 63.8371 43.1853 63.8371 42.8247 63.5966C42.464 63.3562 42.464 63.1158 42.8247 62.8754C43.1853 62.635 43.6661 62.635 44.0268 62.8754Z" fill="#16110D"/>
<path d="M16.7397 75.0167C17.1003 75.2571 17.1003 75.4975 16.7397 75.7379C16.379 75.9784 15.8982 75.9784 15.5376 75.7379C15.1769 75.4975 15.1769 75.2571 15.5376 75.0167C15.8982 74.8965 16.4992 74.8965 16.7397 75.0167Z" fill="#16110D"/>
<path d="M19.8647 73.3336C20.2253 73.5741 20.2253 73.8145 19.8647 74.0549C19.504 74.2953 19.0232 74.2953 18.6626 74.0549C18.3019 73.8145 18.3019 73.5741 18.6626 73.3336C19.0232 73.0932 19.504 73.0932 19.8647 73.3336Z" fill="#16110D"/>
<path d="M22.8695 71.5306C23.2302 71.771 23.2302 72.0114 22.8695 72.2518C22.5089 72.4923 22.0281 72.4923 21.6674 72.2518C21.3068 72.0114 21.3068 71.771 21.6674 71.5306C22.0281 71.4104 22.5089 71.4104 22.8695 71.5306Z" fill="#16110D"/>
<path d="M25.8748 69.8477C26.2354 70.0881 26.2354 70.3285 25.8748 70.569C25.5142 70.8094 25.0333 70.8094 24.6727 70.569C24.4323 70.3285 25.5142 69.6073 25.8748 69.8477Z" fill="#16110D"/>
<path d="M37.8959 62.8754C38.2565 63.1158 38.2565 63.3562 37.8959 63.5966C37.5353 63.8371 37.0544 63.8371 36.6938 63.5966C36.3332 63.3562 36.3332 63.1158 36.6938 62.8754C37.0544 62.635 37.6555 62.635 37.8959 62.8754Z" fill="#16110D"/>
<path d="M41.0214 61.0721C41.382 61.3125 41.382 61.5529 41.0214 61.7934C40.6608 62.0338 40.1799 62.0338 39.8193 61.7934C39.4587 61.5529 39.4587 61.3125 39.8193 61.0721C40.1799 60.9519 40.6608 60.9519 41.0214 61.0721Z" fill="#16110D"/>
<path d="M13.7343 73.3336C14.0949 73.5741 14.0949 73.8145 13.7343 74.0549C13.3737 74.2953 12.8928 74.2953 12.5322 74.0549C12.1716 73.8145 12.1716 73.5741 12.5322 73.3336C12.8928 73.0932 13.3737 73.0932 13.7343 73.3336Z" fill="#16110D"/>
<path d="M16.7397 71.5306C17.1003 71.771 17.1003 72.0114 16.7397 72.2518C16.379 72.4923 15.8982 72.4923 15.5376 72.2518C15.1769 72.0114 15.1769 71.771 15.5376 71.5306C15.8982 71.4104 16.379 71.4104 16.7397 71.5306Z" fill="#16110D"/>
<path d="M19.745 69.8476C20.1057 70.088 20.1057 70.3284 19.745 70.5688C19.3844 70.8092 18.9036 70.8092 18.5429 70.5688C18.1823 70.3284 18.1823 70.088 18.5429 69.8476C18.9036 69.6071 19.5046 69.6071 19.745 69.8476Z" fill="#16110D"/>
<path d="M34.891 61.0721C35.2517 61.3125 35.2517 61.5529 34.891 61.7934C34.5304 62.0338 34.0496 62.0338 33.6889 61.7934C33.3283 61.5529 33.3283 61.3125 33.6889 61.0721C34.0496 60.9519 34.5304 60.9519 34.891 61.0721Z" fill="#16110D"/>
<path d="M37.8959 59.3893C38.2565 59.6297 38.2565 59.8701 37.8959 60.1106C37.5353 60.351 37.0544 60.351 36.6938 60.1106C36.3332 59.8701 36.3332 59.6297 36.6938 59.3893C37.0544 59.1489 37.6555 59.1489 37.8959 59.3893Z" fill="#16110D"/>
<path d="M10.7289 71.5306C11.0896 71.771 11.0896 72.0114 10.7289 72.2518C10.3683 72.4923 9.88745 72.4923 9.52682 72.2518C9.16619 72.0114 9.16619 71.771 9.52682 71.5306C9.88745 71.4104 10.3683 71.4104 10.7289 71.5306Z" fill="#16110D"/>
<path d="M13.7343 69.8476C14.0949 70.088 14.0949 70.3284 13.7343 70.5688C13.3737 70.8092 12.8928 70.8092 12.5322 70.5688C12.1716 70.3284 12.1716 70.088 12.5322 69.8476C12.8928 69.6071 13.3737 69.6071 13.7343 69.8476Z" fill="#16110D"/>
<path d="M16.7397 68.0445C17.1003 68.2849 17.1003 68.5253 16.7397 68.7658C16.379 69.0062 15.8982 69.0062 15.5376 68.7658C15.1769 68.5253 15.1769 68.2849 15.5376 68.0445C15.8982 67.9243 16.379 67.9243 16.7397 68.0445Z" fill="#16110D"/>
<path d="M31.8857 59.3893C32.2463 59.6297 32.2463 59.8701 31.8857 60.1106C31.525 60.351 31.0442 60.351 30.6836 60.1106C30.3229 59.8701 30.3229 59.6297 30.6836 59.3893C31.0442 59.1489 31.525 59.1489 31.8857 59.3893Z" fill="#16110D"/>
<path d="M34.891 57.5861C35.2517 57.8265 35.2517 58.0669 34.891 58.3073C34.5304 58.5478 34.0496 58.5478 33.6889 58.3073C33.3283 58.0669 33.3283 57.8265 33.6889 57.5861C34.0496 57.3457 34.5304 57.3457 34.891 57.5861Z" fill="#16110D"/>
<path d="M7.72355 69.8476C8.08419 70.088 8.08419 70.3284 7.72355 70.5688C7.36292 70.8092 6.88208 70.8092 6.52145 70.5688C6.16082 70.3284 6.16082 70.088 6.52145 69.8476C6.88208 69.6071 7.36292 69.6071 7.72355 69.8476Z" fill="#16110D"/>
<path d="M10.7289 68.0445C11.0896 68.2849 11.0896 68.5253 10.7289 68.7658C10.3683 69.0062 9.88745 69.0062 9.52682 68.7658C9.16619 68.5253 9.16619 68.2849 9.52682 68.0445C9.88745 67.9243 10.3683 67.9243 10.7289 68.0445Z" fill="#16110D"/>
<path d="M13.7343 66.3617C14.0949 66.6021 14.0949 66.8426 13.7343 67.083C13.3737 67.3234 12.8928 67.3234 12.5322 67.083C12.1716 66.8426 12.1716 66.6021 12.5322 66.3617C12.8928 66.1213 13.3737 66.1213 13.7343 66.3617Z" fill="#16110D"/>
<path d="M28.8803 57.5861C29.2409 57.8265 29.2409 58.0669 28.8803 58.3073C28.5197 58.5478 28.0388 58.5478 27.6782 58.3073C27.3176 58.0669 27.3176 57.8265 27.6782 57.5861C28.0388 57.3457 28.5197 57.3457 28.8803 57.5861Z" fill="#16110D"/>
<path d="M31.8857 55.783C32.2463 56.0234 32.2463 56.2639 31.8857 56.5043C31.525 56.7447 31.0442 56.7447 30.6836 56.5043C30.3229 56.2639 30.3229 56.0234 30.6836 55.783C31.0442 55.6628 31.525 55.6628 31.8857 55.783Z" fill="#16110D"/>
<path d="M4.59758 68.0445C4.95821 68.2849 4.95821 68.5253 4.59758 68.7658C4.23695 69.0062 3.7561 69.0062 3.39547 68.7658C3.03484 68.5253 3.03484 68.2849 3.39547 68.0445C3.87631 67.9243 4.35716 67.9243 4.59758 68.0445Z" fill="#16110D"/>
<path d="M7.72355 66.3617C8.08419 66.6021 8.08419 66.8426 7.72355 67.083C7.36292 67.3234 6.88208 67.3234 6.52145 67.083C6.16082 66.8426 6.16082 66.6021 6.52145 66.3617C6.88208 66.1213 7.36292 66.1213 7.72355 66.3617Z" fill="#16110D"/>
<path d="M10.7289 64.5584C11.0896 64.7988 11.0896 65.0393 10.7289 65.2797C10.3683 65.5201 9.88745 65.5201 9.52682 65.2797C9.16619 65.0393 9.16619 64.7988 9.52682 64.5584C9.88745 64.4382 10.3683 64.4382 10.7289 64.5584Z" fill="#16110D"/>
<path d="M28.2797 54.9414C28.7444 54.9414 29.1211 54.7261 29.1211 54.4606C29.1211 54.195 28.7444 53.9797 28.2797 53.9797C27.815 53.9797 27.438 54.195 27.438 54.4606C27.438 54.7261 27.815 54.9414 28.2797 54.9414Z" fill="#16110D"/>
<path d="M30.6836 42.8C30.3229 42.5596 30.3229 42.3192 30.6836 42.0788C31.0442 41.8383 31.525 41.8383 31.8857 42.0788C32.1261 42.3192 30.924 43.0404 30.6836 42.8Z" fill="#16110D"/>
<path d="M28.7602 40.3961C29.1208 40.6365 29.1208 40.8769 28.7602 41.1173C28.3995 41.3578 27.9187 41.3578 27.5581 41.1173C27.1974 40.8769 27.1974 40.6365 27.5581 40.3961C27.9187 40.2759 28.3995 40.2759 28.7602 40.3961Z" fill="#16110D"/>
<path d="M31.7655 38.7133C32.1262 38.9537 32.1262 39.1941 31.7655 39.4345C31.4049 39.675 30.9241 39.675 30.5634 39.4345C30.2028 39.1941 30.2028 38.9537 30.5634 38.7133C30.9241 38.4729 31.4049 38.4729 31.7655 38.7133Z" fill="#16110D"/>
<path d="M22.7499 40.3961C23.1106 40.6365 23.1106 40.8769 22.7499 41.1173C22.3893 41.3578 21.9084 41.3578 21.5478 41.1173C21.1872 40.8769 21.1872 40.6365 21.5478 40.3961C21.9084 40.2759 22.3893 40.2759 22.7499 40.3961Z" fill="#16110D"/>
<path d="M25.7553 38.7133C26.1159 38.9537 26.1159 39.1941 25.7553 39.4345C25.3947 39.675 24.9138 39.675 24.5532 39.4345C24.1926 39.1941 24.1926 38.9537 24.5532 38.7133C24.9138 38.4729 25.3947 38.4729 25.7553 38.7133Z" fill="#16110D"/>
<path d="M28.7602 36.91C29.1208 37.1504 29.1208 37.3908 28.7602 37.6312C28.3995 37.8717 27.9187 37.8717 27.5581 37.6312C27.1974 37.3908 27.1974 37.1504 27.5581 36.91C27.9187 36.7898 28.3995 36.7898 28.7602 36.91Z" fill="#16110D"/>
<path d="M31.7655 35.2269C32.1262 35.4674 32.1262 35.7078 31.7655 35.9482C31.4049 36.1886 30.9241 36.1886 30.5634 35.9482C30.2028 35.7078 30.2028 35.4674 30.5634 35.2269C30.9241 34.9865 31.4049 34.9865 31.7655 35.2269Z" fill="#16110D"/>
<path d="M22.6293 36.9101C22.9899 37.1505 22.9899 37.3909 22.6293 37.6313C22.2687 37.8717 21.7878 37.8717 21.4272 37.6313C21.0666 37.3909 21.0666 37.1505 21.4272 36.9101C21.7878 36.6696 22.3889 36.6696 22.6293 36.9101Z" fill="#16110D"/>
<path d="M19.6239 35.1068C19.9846 35.3472 19.9846 35.5876 19.6239 35.828C19.2633 36.0684 18.7825 36.0684 18.4218 35.828C18.0612 35.5876 18.0612 35.3472 18.4218 35.1068C18.7825 34.9865 19.3835 34.9865 19.6239 35.1068Z" fill="#16110D"/>
<path d="M16.6186 33.4237C16.9792 33.6641 16.9792 33.9046 16.6186 34.145C16.2579 34.3854 15.7771 34.3854 15.4165 34.145C15.0558 33.9046 15.0558 33.6641 15.4165 33.4237C15.7771 33.1833 16.2579 33.1833 16.6186 33.4237Z" fill="#16110D"/>
<path d="M10.6078 33.4237C10.9685 33.6641 10.9685 33.9046 10.6078 34.145C10.2472 34.3854 9.76636 34.3854 9.40573 34.145C9.0451 33.9046 9.0451 33.6641 9.40573 33.4237C9.76636 33.1833 10.2472 33.1833 10.6078 33.4237Z" fill="#16110D"/>
<path d="M13.6132 31.6207C13.9738 31.8611 13.9738 32.1015 13.6132 32.3419C13.2526 32.5824 12.7717 32.5824 12.4111 32.3419C12.0505 32.1015 12.0505 31.8611 12.4111 31.6207C12.7717 31.5005 13.2526 31.5005 13.6132 31.6207Z" fill="#16110D"/>
<path d="M7.60246 31.6207C7.96309 31.8611 7.96309 32.1015 7.60246 32.3419C7.24183 32.5824 6.76099 32.5824 6.40036 32.3419C6.03973 32.1015 6.03973 31.8611 6.40036 31.6207C6.76099 31.5005 7.24183 31.5005 7.60246 31.6207Z" fill="#16110D"/>
<path d="M10.6078 29.9379C10.9685 30.1783 10.9685 30.4187 10.6078 30.6591C10.2472 30.8996 9.76636 30.8996 9.40573 30.6591C9.0451 30.4187 9.0451 30.1783 9.40573 29.9379C9.76636 29.6975 10.2472 29.6975 10.6078 29.9379Z" fill="#16110D"/>
<path d="M7.60246 28.1346C7.96309 28.375 7.96309 28.6154 7.60246 28.8559C7.24183 29.0963 6.76099 29.0963 6.40036 28.8559C6.03973 28.6154 6.03973 28.375 6.40036 28.1346C6.76099 28.0144 7.24183 28.0144 7.60246 28.1346Z" fill="#16110D"/>
<path d="M63.9821 71.6508C64.3427 71.4104 64.8235 71.4104 65.1842 71.6508C65.5448 71.8912 65.5448 72.1316 65.1842 72.372C64.8235 72.6125 64.3427 72.6125 63.9821 72.372C63.7417 72.1316 63.7417 71.771 63.9821 71.6508Z" fill="#16110D"/>
<path d="M60.9767 69.8476C61.3373 69.6071 61.8182 69.6071 62.1788 69.8476C62.5394 70.088 62.5394 70.3284 62.1788 70.5688C61.8182 70.8092 61.3373 70.8092 60.9767 70.5688C60.7363 70.3284 60.7363 70.088 60.9767 69.8476Z" fill="#16110D"/>
<path d="M65.184 68.0445C65.5446 68.2849 65.5446 68.5253 65.184 68.7658C64.8234 69.0062 64.3425 69.0062 63.9819 68.7658C63.6213 68.5253 63.6213 68.2849 63.9819 68.0445C64.3425 67.9243 64.8234 67.9243 65.184 68.0445Z" fill="#16110D"/>
<path d="M57.9712 68.0446C58.3318 67.8042 58.8126 67.8042 59.1733 68.0446C59.5339 68.285 59.5339 68.5254 59.1733 68.7658C58.8126 69.0063 58.3318 69.0063 57.9712 68.7658C57.6105 68.5254 57.6105 68.285 57.9712 68.0446C58.3318 67.9244 57.6105 68.285 57.9712 68.0446Z" fill="#16110D"/>
<path d="M62.1786 66.3617C62.5393 66.6021 62.5393 66.8426 62.1786 67.083C61.818 67.3234 61.3372 67.3234 60.9765 67.083C60.6159 66.8426 60.6159 66.6021 60.9765 66.3617C61.3372 66.1213 61.818 66.1213 62.1786 66.3617Z" fill="#16110D"/>
<path d="M50.0375 63.4764C49.6769 63.7169 49.196 63.7169 48.8354 63.4764C48.4748 63.236 48.4748 62.9956 48.8354 62.7552C49.196 62.6349 50.3981 63.3562 50.0375 63.4764Z" fill="#16110D"/>
<path d="M47.0321 61.7936C46.6715 62.034 46.1907 62.034 45.83 61.7936C45.4694 61.5532 45.4694 61.3128 45.83 61.0724C46.1907 60.9521 47.3928 61.5532 47.0321 61.7936Z" fill="#16110D"/>
<path d="M44.0268 59.9903C43.6661 60.2308 43.1853 60.2308 42.8247 59.9903C42.464 59.7499 42.464 59.5095 42.8247 59.2691C43.1853 59.1489 44.3874 59.8701 44.0268 59.9903Z" fill="#16110D"/>
<path d="M31.8857 53.0182C31.525 53.2586 31.0442 53.2586 30.6836 53.0182C30.3229 52.7777 30.3229 52.5373 30.6836 52.2969C31.0442 52.1767 32.2463 52.898 31.8857 53.0182Z" fill="#16110D"/>
<path d="M64.102 64.1982C62.8999 59.0291 60.2552 50.975 55.0862 47.8495C54.1245 47.2485 52.8024 46.407 51.9609 46.0464L51.6002 42.5603C51.8406 42.4401 52.2012 42.1996 52.4416 42.0794L52.562 41.9592C53.2832 41.4784 53.8842 40.8773 54.0044 39.9157L54.3651 38.1125L55.8076 31.7413C55.8076 31.5009 55.9279 31.3807 55.9279 31.1403V31.0201C56.0481 30.5392 56.0479 30.0584 56.0479 29.4573C56.1681 23.9277 52.3216 17.0757 47.5132 14.3108C45.3494 12.9885 43.5461 12.7481 41.9834 13.3492L41.743 13.4694L41.6227 13.5896C41.5025 13.7098 41.2622 13.7098 41.142 13.83L37.0546 16.114L36.8143 16.5948L38.7378 18.0374C38.7378 18.398 38.6174 18.8788 38.6174 19.3597C38.6174 19.8405 38.6174 20.3214 38.6174 20.8022V20.9224V21.283C38.6174 21.6437 38.7378 21.7639 38.7378 22.0043L40.3006 32.102C40.541 33.9051 41.5027 36.3093 42.7048 38.1125L42.3441 40.8773C41.6228 40.3965 40.3004 39.555 39.2185 38.954C37.1749 37.7519 35.7324 37.6317 34.4101 38.3529L34.1697 38.4731L33.689 38.7136L30.2027 40.6369L31.0441 41.9592C30.5633 42.8007 30.2028 43.6422 29.9623 44.3634C29.3613 46.0464 30.6837 48.9314 32.4869 50.0133L46.4311 58.3078L47.0322 58.6685L57.8511 65.0396C57.9713 66.3619 58.2119 68.0449 58.3321 69.0066C58.3321 69.247 58.6927 69.4874 58.9332 69.3672L62.8999 67.2034C64.102 66.6024 64.4626 65.5205 64.102 64.1982Z" fill="#36A9E1"/>
<path d="M64.1018 66.1213C62.8997 60.9523 60.2551 52.8982 55.086 49.7727C54.1243 49.1717 52.8022 48.3302 51.9607 47.9696L51.6 44.4835C51.8404 44.3633 51.3597 43.8824 51.7204 43.642L51.2393 43.4016L51.7204 41.9591C52.4416 41.4782 53.1626 41.8388 53.2829 40.757L54.485 39.9155L55.9277 33.5443C55.9277 33.3039 56.0478 33.1837 56.0478 32.9433V32.8231C56.168 32.3422 56.1681 31.8614 56.1681 31.2603C56.2883 25.7306 52.4414 18.8787 47.633 16.1138C45.4692 14.7915 43.6663 14.5511 42.1035 15.1521L41.8629 15.2723L41.7428 15.3926C41.6226 15.5128 41.382 15.5128 41.2618 15.633L37.1748 17.917L36.9344 18.3978L38.8576 19.8403C38.8576 20.201 38.7376 20.6818 38.7376 21.1627C38.7376 21.6435 38.7376 22.1243 38.7376 22.6052V22.7254V23.086C38.7376 23.4467 38.8576 23.5669 38.8576 23.8073L40.4204 33.905C40.6608 35.7081 41.6225 38.1123 42.8246 39.9155L42.4639 42.6803C41.7427 42.1995 40.4205 41.358 39.3386 40.757C37.295 39.5548 35.8525 39.4346 34.5302 40.1559L34.2898 40.2761L33.8088 40.5165L30.3228 42.4399L31.1643 43.7622C30.6834 44.6037 30.3229 45.4452 30.0825 46.1664C29.4814 47.8494 30.8036 50.7344 32.6067 51.8163L46.5513 60.1108L47.1523 60.4715L57.9712 66.8426C58.0914 68.1649 57.1296 67.8043 57.2499 68.766C57.2499 69.0064 57.6105 69.2468 57.8509 69.1266L61.8179 66.9628C62.8998 66.482 64.4624 67.5639 64.1018 66.1213Z" fill="white"/>
<path d="M59.2939 69.7276C59.1737 69.7276 59.0538 69.7276 58.9335 69.6074C58.6931 69.4871 58.4525 69.2467 58.4525 69.0063C58.3323 68.1648 58.092 66.4819 57.9718 65.2798L32.7276 50.3737C30.684 49.1716 29.3617 46.0461 29.9627 44.1228C30.2031 43.2813 30.5638 42.56 30.9245 41.8388L29.9627 40.3962L34.6508 37.8718C36.2135 37.1505 37.8967 37.2708 39.9402 38.4729C40.4211 38.8335 41.1423 39.1941 41.7434 39.5548C41.9838 39.675 42.2241 39.9154 42.4645 40.0356L42.7051 38.1122C41.503 36.3091 40.5414 33.9049 40.3009 32.1017L38.6178 21.7636C38.6178 21.5232 38.4978 21.403 38.4978 21.1626L38.3774 20.6817C38.2572 20.0807 38.2571 19.72 38.2571 19.119C38.2571 18.7584 38.2572 18.3977 38.3774 18.0371L36.3339 16.4744L36.8147 15.6329L41.022 13.3489C41.1422 13.2287 41.3827 13.1085 41.6231 13.1085L41.9838 12.9883C43.6667 12.267 45.59 12.6276 47.874 13.9499C52.8026 16.835 56.6494 23.8072 56.6494 29.5773C56.6494 29.9379 56.6495 30.4188 56.5293 30.8996L56.409 31.3804C56.409 31.6209 56.2887 31.7411 56.2887 31.9815L54.4855 40.1558C54.2451 41.4781 53.4037 42.0792 52.8027 42.56L52.6824 42.6802C52.4419 42.8004 52.2017 42.9206 51.9613 43.0409L52.2016 45.9259L55.0866 47.6089C60.2556 50.6141 63.0207 58.3076 64.343 64.1979C64.7036 65.7606 64.343 66.9627 63.3813 67.5638L59.4143 69.7276C59.5345 69.6074 59.4142 69.7276 59.2939 69.7276ZM31.2852 40.6367L32.0062 41.7185L31.8862 41.959C31.5256 42.6802 31.1648 43.5217 30.8041 44.3632C30.2031 45.9259 31.4054 48.5705 33.0883 49.5322L58.6929 64.6787V64.9192C58.8131 66.2415 59.0537 67.9244 59.1739 68.8861L63.1409 66.7223C63.742 66.3617 63.8621 65.5202 63.6216 64.3181C62.5397 59.6299 59.8952 51.3354 54.7262 48.2099L51.4803 46.2865L51.1199 42.3196L51.3602 42.1994C51.6007 42.0792 51.9612 41.959 52.2016 41.7185L52.322 41.5983C53.0432 41.1175 53.5239 40.5164 53.6441 39.7952L55.4473 31.6209C55.4473 31.3804 55.5676 31.2602 55.5676 31.0198V30.8996C55.6878 30.4188 55.6876 29.9379 55.6876 29.4571C55.8078 24.0476 51.9612 17.436 47.3932 14.6712C45.3497 13.4691 43.6666 13.1085 42.2241 13.7095L41.9838 13.8297C41.7433 13.9499 41.6232 13.9499 41.503 14.0702L37.536 16.2339L39.4592 17.6765V17.9169C39.339 18.3977 39.3392 18.7584 39.3392 19.119C39.3392 19.72 39.3392 20.0807 39.3392 20.5615V20.6817V21.0424C39.3392 21.2828 39.339 21.403 39.4592 21.5232V21.7636L41.022 31.8613C41.2624 33.6644 42.2241 35.9484 43.4262 37.7516L43.5466 37.8718L43.0655 41.4781L42.4645 41.1175C42.1039 40.8771 41.6232 40.6367 41.1423 40.276C40.5413 39.9154 39.9401 39.5548 39.4592 39.1941C37.6561 38.1122 36.3338 37.992 35.0115 38.5931L34.7711 38.7133L31.2852 40.6367Z" fill="#16110D"/>
<path d="M59.7744 66.6024C58.5723 61.4333 55.9277 53.3792 50.7586 50.2538C49.797 49.6527 48.4745 48.8112 47.6331 48.4506L47.2724 44.9645C48.2341 44.4837 49.4363 43.7624 49.7969 42.3199L50.1576 40.5167L51.6001 34.1456C51.6001 33.9051 51.7204 33.7849 51.7204 33.5445V33.4243C51.8406 32.9435 51.8404 32.4626 51.8404 31.8616C51.9606 26.3319 48.1141 19.4799 43.3057 16.7151C38.4972 13.83 34.6505 16.114 34.5302 21.6437C34.5302 22.1245 34.5302 22.6054 34.5302 23.0862V23.2064V23.567C34.5302 23.9277 34.6503 24.0479 34.6503 24.2883L36.2131 34.386C36.4535 36.1891 37.4152 38.5933 38.6173 40.3965L38.2566 43.1613C37.5353 42.6805 36.2132 41.839 35.1313 41.238C29.9622 38.1125 27.0771 42.9209 25.7548 46.6474C25.1538 48.3304 26.4762 51.2154 28.2794 52.2973L42.2236 60.5919L42.8246 60.9525L56.7692 69.247C59.0532 70.3289 60.3755 69.0066 59.7744 66.6024Z" fill="#36A9E1"/>
<path d="M58.4524 70.0883C57.9715 70.0883 57.4907 69.9681 57.0099 69.6075L28.5201 52.6578C26.4765 51.4557 25.1541 48.3302 25.7552 46.4069C26.5967 44.0027 28.1593 40.8772 30.804 40.0357C32.3667 39.4347 34.0498 39.7953 35.7327 40.757C36.2136 41.1176 36.9348 41.4782 37.5359 41.8389C37.7763 41.9591 38.0165 42.1995 38.257 42.3197L38.4976 40.3964C37.2955 38.5932 36.3338 36.189 36.0934 34.3858L34.4103 24.0477C34.4103 23.8073 34.2903 23.6871 34.2903 23.4467L34.1699 23.0861C34.0497 22.485 34.0496 22.0042 34.0496 21.5233C34.0496 18.6383 35.1317 16.5947 36.9348 15.5128C38.738 14.5511 41.022 14.7915 43.5464 16.2341C48.475 19.1191 52.3218 26.0913 52.3218 31.8614C52.3218 32.222 52.3217 32.7029 52.2015 33.1837L52.0812 33.6646C52.0812 33.905 51.9611 34.0252 51.9611 34.2656L50.158 42.4399C49.7973 43.8825 48.7153 44.7239 47.6334 45.325L47.8738 48.21L50.759 49.893C55.9281 52.8982 58.6929 60.5917 60.0152 66.482C60.3758 67.9245 60.1353 69.1266 59.2938 69.7277C59.1736 69.9681 58.813 70.0883 58.4524 70.0883ZM32.2464 40.6368C31.7656 40.6368 31.4051 40.757 30.9243 40.8772C28.6403 41.7187 27.1978 44.4835 26.4766 46.7675C25.8755 48.3302 27.0775 50.9749 28.7605 51.9366L57.2503 68.8862C57.8513 69.2469 58.4524 69.3671 58.8131 69.0064C59.2939 68.6458 59.4142 67.8043 59.1738 66.7224C58.0919 62.0342 55.4471 53.7397 50.278 50.6142L47.0324 48.6909L46.6717 44.7239L46.9123 44.6037C47.9942 44.1229 48.9558 43.4016 49.1962 42.1995L50.9994 34.0252C50.9994 33.7848 51.1197 33.6646 51.1197 33.4241V33.3039C51.2399 32.8231 51.2397 32.3423 51.2397 31.8614C51.36 26.4519 47.5133 19.8404 42.9453 17.0755C40.7816 15.7532 38.7379 15.5128 37.1752 16.3543C35.6125 17.1957 34.771 19.1191 34.771 21.5233C34.771 22.0042 34.771 22.3648 34.771 22.9658V23.0861V23.4467C34.771 23.6871 34.7711 23.8073 34.8913 23.9275V24.1679L36.4538 34.2656C36.6942 36.0688 37.6559 38.3528 38.858 40.1559L38.9783 40.2761L38.4976 43.8825L37.8966 43.5218C37.5359 43.2814 37.055 43.041 36.5741 42.6804C35.9731 42.3197 35.3722 41.9591 34.8913 41.5985C34.17 40.9974 33.2081 40.6368 32.2464 40.6368Z" fill="#16110D"/>
<path d="M29.962 33.0635C29.2407 29.8178 27.5578 24.7689 24.3122 22.8456C23.7111 22.4849 22.8695 22.0041 22.3887 21.7637L22.1483 19.5999C22.2685 19.4797 22.509 19.3595 22.7494 19.2393H22.8697C23.3505 18.9988 23.7109 18.518 23.8312 17.9169L24.0718 16.8351L24.9132 12.8681C24.9132 12.7479 25.0333 12.6277 25.0333 12.5075V12.3873C25.0333 12.1468 25.1536 11.7862 25.1536 11.4256C25.1536 7.93949 22.8697 3.73212 19.8644 1.92897C18.5421 1.08749 17.3398 0.967284 16.3782 1.32791H16.2581H16.1378C16.0176 1.32791 15.8973 1.44813 15.7771 1.44813L13.2529 2.89065L13.1325 3.13107L14.3346 4.09275C14.3346 4.33317 14.2143 4.5736 14.2143 4.93423C14.2143 5.29486 14.2143 5.53528 14.2143 5.89591V6.01612V6.25654C14.2143 6.49696 14.2144 6.49696 14.3346 6.73738L15.2964 12.9883C15.4166 14.0702 16.0177 15.6329 16.8592 16.7148L16.6185 18.3978C16.1377 18.1574 15.2964 17.5563 14.6953 17.1957C13.4932 16.4744 12.5316 16.3542 11.6901 16.8351H11.5698L11.3294 16.9553L9.16554 18.1574L9.64656 18.9988C9.40614 19.4797 9.1656 20.0807 8.92518 20.5616C8.56455 21.6435 9.28587 23.4466 10.488 24.0477L19.1431 29.2167L19.5038 29.4571L26.2354 33.4241C26.3556 34.2656 26.4758 35.3475 26.596 35.8283C26.596 36.0687 26.8365 36.0687 26.9567 36.0687L29.3609 34.7464C29.962 34.506 30.2024 33.9049 29.962 33.0635Z" fill="#36A9E1"/>
<path d="M29.9627 34.2655C29.2414 31.0198 27.5585 25.9709 24.3129 24.0476C23.7118 23.6869 22.8702 23.2061 22.3894 22.9657L22.149 20.8019C22.2692 20.6817 22.0288 20.5615 22.149 20.4413V20.2008L22.0287 19.5998C22.5095 19.3594 23.2309 19.1189 23.3511 18.5179L23.9522 17.9168L24.7936 13.9499C24.7936 13.8297 24.9139 13.7095 24.9139 13.5893V13.4691C24.9139 13.2286 25.034 12.868 25.034 12.5074C25.034 9.02127 22.7501 4.81391 19.7448 3.01075C18.4225 2.16928 17.2205 2.04907 16.2588 2.4097H16.1385H16.0182C15.898 2.4097 15.778 2.52991 15.6578 2.52991L13.1332 3.97244L13.0129 4.21286L14.215 5.17454C14.215 5.41496 14.095 5.65538 14.095 6.01601C14.095 6.37665 14.095 6.61706 14.095 6.9777V7.09791V7.33833C14.095 7.57875 14.0948 7.57875 14.215 7.81917L15.1768 14.0701C15.297 15.152 15.8981 16.7147 16.7396 17.7966L16.4992 19.4796C16.0184 19.2392 15.1768 18.6381 14.5757 18.2775C13.3736 17.5562 12.4119 17.436 11.5704 17.9168H11.4504L11.2098 18.0371L9.04621 19.2392L9.52693 20.0806C9.28651 20.5615 9.04597 21.1625 8.80555 21.6434C8.44492 22.7253 9.16624 24.5284 10.3683 25.1295L19.0234 30.2985L19.3841 30.5389L26.116 34.5059C26.2362 35.1069 26.2362 35.708 26.3564 36.309C26.3564 36.6697 27.0775 35.708 27.4382 35.5878L28.3999 34.6261C29.1212 34.6261 30.2031 35.2271 29.9627 34.2655Z" fill="white"/>
<path d="M26.957 36.6697C26.8368 36.6697 26.7165 36.6697 26.5963 36.5495C26.3559 36.4293 26.2356 36.1889 26.2356 36.0687C26.1154 35.5878 25.9952 34.6261 25.9952 33.7847L10.3679 24.5285C9.04556 23.687 8.20408 21.7636 8.56471 20.4413C8.68492 19.9605 8.92535 19.4796 9.16577 19.119L8.56471 18.1573L11.57 16.4744C12.5317 15.9935 13.7338 16.1137 14.9359 16.835C15.2966 17.0754 15.6571 17.3159 16.0177 17.5563C16.1379 17.5563 16.1381 17.6765 16.2584 17.6765L16.3784 16.835C15.6571 15.7531 15.0561 14.1904 14.9359 13.1085L13.9742 6.73734C13.9742 6.61713 13.9744 6.49692 13.8541 6.37671V6.13629C13.8541 5.65544 13.8541 5.41502 13.8541 5.05439C13.8541 4.81397 13.8541 4.69376 13.8541 4.45334L12.5317 3.49166L12.8924 2.77039L15.537 1.32787C15.6572 1.20766 15.7775 1.20766 15.8977 1.08745L16.138 0.967238C17.2199 0.486396 18.422 0.726817 19.9847 1.56829C23.1102 3.37145 25.5145 7.81923 25.5145 11.4255C25.5145 11.666 25.5145 11.9064 25.5145 12.1468V12.3872C25.5145 12.6276 25.3942 12.7479 25.3942 12.8681L24.3124 17.9169C24.1922 18.7584 23.591 19.2392 23.2303 19.4796L23.1103 19.5998C22.9901 19.7201 22.8698 19.7201 22.7496 19.8403L22.8699 21.5232L24.5528 22.6051C27.7984 24.5285 29.4813 29.3369 30.4429 33.0634C30.6834 34.1453 30.4429 34.9868 29.8419 35.3474L27.4377 36.6697C27.1973 36.5495 27.0772 36.6697 26.957 36.6697ZM9.76682 18.3977L10.1275 18.9988L10.0072 19.2392C9.76676 19.7201 9.52634 20.2009 9.40613 20.6817C9.0455 21.5232 9.76688 23.086 10.7286 23.687L26.7166 33.1836V33.424C26.8368 34.1453 26.957 34.9868 26.957 35.5878L29.1208 34.3857C29.3612 34.2655 29.4814 33.7847 29.3612 33.0634C28.6399 30.1784 27.0772 25.0093 23.9517 23.2062L21.7879 22.0041L21.5475 19.3594L21.7879 19.2392C21.9081 19.119 22.1487 19.119 22.2689 18.9988C22.7497 18.6382 22.9901 18.3977 23.1103 17.9169L24.3124 12.8681C24.3124 12.7479 24.3122 12.6276 24.4324 12.5074V12.3872C24.4324 12.1468 24.5528 11.7862 24.5528 11.5458C24.5528 8.17986 22.2688 4.21292 19.504 2.52997C18.3019 1.80871 17.3402 1.56829 16.4987 1.92892H16.3784C16.2582 2.04913 16.138 2.04913 16.138 2.04913L13.8541 3.25124L14.9359 4.09271V4.33313C14.9359 4.57355 14.9359 4.81397 14.9359 5.05439C14.9359 5.41502 14.9359 5.65544 14.9359 5.89586V6.13629C14.9359 6.2565 14.9359 6.37671 14.9359 6.49692V6.61713L15.8977 12.8681C16.0179 13.95 16.6189 15.3925 17.3401 16.4744L17.4605 16.5946L17.0998 19.119L16.4987 18.7584C16.2583 18.6382 16.0179 18.3977 15.6573 18.2775C15.2967 18.0371 14.9359 17.7967 14.5752 17.5563C13.4933 16.9552 12.7721 16.835 11.9307 17.1956L11.57 17.4361L9.76682 18.3977Z" fill="#16110D"/>
<path d="M27.1981 34.5061C26.4769 31.2604 24.794 26.2116 21.5483 24.2882C20.9472 23.9276 20.1056 23.4467 19.6248 23.2063L19.3844 21.0425C19.9855 20.6819 20.7068 20.3212 20.9472 19.3596L21.1876 18.2777L22.029 14.3107C22.029 14.1905 22.1493 14.0703 22.1493 13.9501V13.8299C22.1493 13.5895 22.2697 13.2288 22.2697 12.8682C22.2697 9.38211 19.9855 5.17474 16.9802 3.37159C13.975 1.56843 11.5708 3.01096 11.5708 6.49706C11.5708 6.85769 11.5708 7.09811 11.5708 7.45874V7.57895V7.81937C11.5708 8.05979 11.5709 8.05979 11.6911 8.30021L12.6528 14.5512C12.773 15.633 13.3739 17.1958 14.2153 18.2777L13.975 19.9606C13.4941 19.7202 12.6528 19.1191 12.0518 18.7585C8.8061 16.8351 7.00289 19.8404 6.28163 22.1244C5.92099 23.2063 6.64232 25.0095 7.84442 25.6105L16.4995 30.7796L16.8602 31.02L25.5153 36.189C26.8376 36.7901 27.5587 36.0688 27.1981 34.5061Z" fill="#36A9E1"/>
<path d="M26.3562 36.7899C25.9955 36.7899 25.7551 36.6697 25.3944 36.4293L7.60322 25.8508C6.28091 25.0093 5.43943 23.086 5.80007 21.7636C6.40112 20.2009 7.36304 18.2775 9.04598 17.6765C10.0077 17.3159 11.0895 17.4361 12.2916 18.1573C12.6522 18.3978 13.0127 18.6382 13.3734 18.8786C13.4936 18.8786 13.4935 18.9988 13.6137 18.9988L13.7341 18.1573C13.0128 17.0754 12.4118 15.5127 12.2916 14.4308L11.2095 8.05966C11.2095 7.93945 11.2095 7.81924 11.2095 7.69903V7.45861C11.2095 6.97777 11.2095 6.73735 11.2095 6.37671C11.2095 4.57356 11.9308 3.13104 13.0127 2.52998C14.2148 1.92893 15.6574 2.04914 17.3404 3.01082C20.4659 4.81398 22.8702 9.26177 22.8702 12.8681C22.8702 13.1085 22.8702 13.3489 22.8702 13.5893L22.7498 13.95C22.7498 14.1904 22.6295 14.3106 22.6295 14.4308L21.5477 19.4797C21.3073 20.4413 20.586 21.0424 19.985 21.2828L20.1053 22.9657L21.7881 24.0476C25.0338 25.971 26.7169 30.7794 27.6786 34.5059C27.919 35.4676 27.6784 36.3091 27.1976 36.6697C26.9572 36.7899 26.7168 36.7899 26.3562 36.7899ZM10.1278 18.518C9.88734 18.518 9.6468 18.518 9.40638 18.6382C8.08406 19.119 7.24265 20.802 6.76181 22.2445C6.40118 23.086 7.12256 24.6487 8.08424 25.2497L25.8754 35.8283C26.2361 36.0687 26.4764 36.0687 26.7169 35.9485C26.9573 35.8283 27.0774 35.3474 26.9572 34.7464C26.236 31.8613 24.6732 26.6923 21.5477 24.8891L19.3839 23.687L19.1435 21.0424L19.3839 20.9222C19.985 20.5615 20.5861 20.2009 20.7063 19.5999L21.7881 14.551C21.7881 14.4308 21.7882 14.3106 21.9084 14.1904V14.0702C21.9084 13.8298 22.0285 13.4691 22.0285 13.2287C22.0285 9.86282 19.7445 5.89587 16.9797 4.21293C15.6574 3.49167 14.4552 3.25125 13.6137 3.8523C12.7723 4.33314 12.1713 5.41503 12.1713 6.97777C12.1713 7.3384 12.1713 7.57882 12.1713 7.81924V8.05966C12.1713 8.17987 12.1713 8.30008 12.1713 8.30008V8.42029L13.133 14.6712C13.2532 15.7531 13.8542 17.1957 14.5755 18.2775L14.6958 18.3978L14.3351 20.9222L13.7341 20.5615C13.4936 20.4413 13.2533 20.2009 12.8927 20.0807C12.532 19.8403 12.1712 19.5999 11.8106 19.3594C11.3297 18.7584 10.7288 18.518 10.1278 18.518Z" fill="#16110D"/>
<path d="M28.2799 70.2084C27.4384 66.7223 25.6351 61.1927 22.149 59.0289C21.4278 58.6682 20.5864 58.0672 20.1055 57.8268L19.8652 55.4226C20.1056 55.3023 20.2258 55.1821 20.4662 55.0619H20.5863C21.0671 54.7013 21.4278 54.3407 21.548 53.6194L21.7884 52.4173L22.7501 48.0897C22.7501 47.9695 22.8704 47.8493 22.8704 47.7291V47.6089C22.8704 47.2483 22.9905 46.8876 22.9905 46.527C22.9905 42.8005 20.466 38.1123 17.2203 36.1889C15.7778 35.3474 14.4556 35.107 13.494 35.5878H13.3736H13.2536C13.1334 35.5878 13.0131 35.7081 12.8929 35.8283L10.128 37.391L10.0077 37.7516L11.3301 38.7133C11.3301 38.9537 11.2098 39.3144 11.2098 39.5548C11.2098 39.9154 11.2098 40.1558 11.2098 40.5165V40.6367V40.8771C11.2098 41.1175 11.2099 41.2377 11.3301 41.3579L12.4119 48.2099C12.5321 49.412 13.2535 51.095 14.095 52.2971L13.8546 54.1002C13.3738 53.7396 12.4119 53.1386 11.8108 52.7779C10.4885 51.9365 9.40686 51.9365 8.44518 52.4173H8.32485L7.96416 52.5375L5.55995 53.8598L6.04097 54.7013C5.80055 55.3023 5.56001 55.7832 5.31959 56.3842C4.95896 57.5863 5.80032 59.5097 7.00242 60.231L16.4992 65.8809L16.8599 66.1213L24.1926 70.4489C24.3128 71.2903 24.433 72.4924 24.5533 73.0935C24.5533 73.3339 24.7936 73.4541 25.034 73.3339L27.6788 71.8914C28.2799 71.8914 28.5203 71.1701 28.2799 70.2084Z" fill="#36A9E1"/>
<path d="M28.2802 71.5307C27.4387 68.0446 25.6354 62.5149 22.1493 60.3511C21.4281 59.9905 20.5866 59.3894 20.1058 59.149L19.6248 57.1055C19.8652 56.9852 19.7452 55.6629 19.8654 55.5427L20.4665 55.1821L20.5865 54.2204C21.0674 53.8598 21.3077 55.0619 21.4279 54.3406L21.909 53.7396L22.8707 49.412C22.8707 49.2918 22.9907 49.1716 22.9907 49.0514V48.9311C22.9907 48.5705 23.1111 48.2099 23.1111 47.8493C23.1111 44.1227 20.5866 39.4345 17.3409 37.5112C15.8984 36.6697 14.576 36.4293 13.6143 36.9101H13.4942H13.3739C13.2537 36.9101 13.1334 37.0303 13.0132 37.1505L10.2486 38.7133L10.1283 39.0739L11.4507 40.0356C11.4507 40.276 11.3304 40.6366 11.3304 40.8771C11.3304 41.2377 11.3304 41.4781 11.3304 41.8387V41.9589V42.1994C11.3304 42.4398 11.3305 42.56 11.4507 42.6802L12.5325 49.5322C12.6527 50.7343 13.3738 52.4172 14.2153 53.6193L13.975 55.4225C13.4941 55.0619 12.5325 54.4608 11.9314 54.1002C10.6091 53.2587 9.52717 53.2587 8.56549 53.7396H8.44546L8.08477 53.8598L5.68056 55.1821L6.16128 56.0236C5.92086 56.6246 5.68062 57.1055 5.4402 57.7065C5.07957 58.9086 5.92092 60.832 7.12303 61.5532L16.6195 67.2031L16.9802 67.4435L24.3132 71.7711C24.3132 72.1317 24.4332 72.4924 24.4332 72.853C24.5534 73.8147 25.2749 73.2136 26.1163 72.7328L26.9577 72.3722L27.1981 72.252C27.7992 72.1317 28.5206 72.4924 28.2802 71.5307Z" fill="white"/>
<path d="M24.914 74.1753C24.7938 74.1753 24.6736 74.1753 24.5534 74.055C24.3129 73.9348 24.1927 73.6944 24.1927 73.454C24.0724 72.8529 23.9522 71.771 23.832 70.9296L6.76215 60.8319C5.31963 59.9904 4.35812 57.8266 4.83896 56.3841C5.07938 55.9033 5.19959 55.3022 5.44001 54.9416L4.83896 53.8597L8.20462 52.0565C9.28651 51.5757 10.4887 51.6959 11.9313 52.5374C12.2919 52.7778 12.7727 53.0182 13.1334 53.2586C13.2536 53.3789 13.3738 53.3789 13.4941 53.4991L13.6141 52.4172C12.7726 51.2151 12.1717 49.5321 11.9313 48.33L10.8495 41.3578C10.8495 41.2376 10.8494 41.1174 10.7292 40.9972V40.7568C10.6089 40.2759 10.6089 40.0355 10.7292 39.5547C10.7292 39.3142 10.7292 39.0738 10.7292 38.8334L9.28669 37.7515L9.64738 37.0302L12.5323 35.4675C12.6525 35.3473 12.7728 35.3473 12.893 35.2271L13.1334 35.1069C14.3355 34.626 15.6577 34.8665 17.2204 35.8281C20.5863 37.8717 23.2309 42.6801 23.2309 46.5269C23.2309 46.7673 23.2309 47.0077 23.2309 47.3683L23.1109 47.729C23.1109 47.8492 23.1108 47.9694 22.9906 48.2098L21.7885 53.7395C21.548 54.7012 21.0672 55.182 20.5863 55.4224L20.4663 55.5426C20.3461 55.6629 20.2258 55.6629 20.1056 55.7831L20.2257 57.5862L22.1491 58.6681C25.7555 60.8319 27.5587 66.001 28.5204 70.0881C28.7608 71.17 28.5202 72.1317 27.799 72.4923L25.1544 73.9348C25.1544 74.1753 25.0343 74.1753 24.914 74.1753ZM6.1611 54.2203L6.64212 54.9416L6.52179 55.182C6.28137 55.6629 6.04083 56.2639 5.80041 56.7447C5.43978 57.7064 6.28131 59.3894 7.3632 60.1106L24.7937 70.4487V70.6892C24.9139 71.4104 25.0341 72.4923 25.0341 73.0934L27.5586 71.6508C27.799 71.5306 28.0394 71.0498 27.799 70.2083C27.0777 67.0828 25.2746 61.433 21.7885 59.3894L19.5046 58.0671L19.2642 55.182L19.5046 55.0618C19.745 54.9416 19.8652 54.8214 20.1056 54.7012L20.2257 54.581C20.7065 54.2203 20.9472 53.9799 21.0674 53.3789L22.2695 47.8492C22.2695 47.729 22.3895 47.6088 22.3895 47.4885V47.3683C22.3895 47.0077 22.5098 46.6471 22.5098 46.4067C22.5098 42.8003 19.9855 38.3526 16.86 36.4292C15.5377 35.5877 14.4557 35.4675 13.4941 35.8281L13.2537 35.9484C13.1335 36.0686 13.0132 36.0686 12.893 36.1888L10.3685 37.5111L11.5706 38.3526V38.593C11.5706 38.8334 11.4505 39.0738 11.4505 39.4344C11.4505 39.7951 11.4505 40.0355 11.4505 40.3961V40.7568C11.4505 40.877 11.4505 40.9972 11.4505 41.1174V41.2376L12.5323 48.0896C12.6525 49.2917 13.3738 50.8544 14.0951 52.0565L14.2151 52.1768L13.8547 54.8214L13.2537 54.4607C13.0133 54.3405 12.6526 54.1001 12.2919 53.8597C11.9313 53.6193 11.4505 53.3789 11.0898 53.1384C9.64732 52.297 8.80567 52.4172 8.20462 52.7778L7.72389 53.0182L6.1611 54.2203Z" fill="#16110D"/>
<path d="M25.2748 71.8915C24.4333 68.4054 22.6301 62.8757 19.144 60.7119C18.4227 60.3513 17.5813 59.7502 17.1004 59.5098L16.8601 57.1056C17.5813 56.7449 18.4227 56.2641 18.5429 55.3024L18.7833 54.1003L19.745 49.7727C19.745 49.6525 19.8653 49.5323 19.8653 49.4121V49.2919C19.8653 48.9313 19.9854 48.5706 19.9854 48.21C19.9854 44.4835 17.4609 39.7953 14.2152 37.8719C10.9695 35.9485 8.3249 37.3911 8.20469 41.2378C8.20469 41.5984 8.20469 41.8389 8.20469 42.1995V42.3197V42.5601C8.20469 42.8005 8.20481 42.9207 8.32502 43.041L9.40679 49.8929C9.527 51.0951 10.2484 52.778 11.0899 53.9801L10.8496 55.7833C10.3687 55.4226 9.40679 54.8216 8.80574 54.4609C5.31964 52.4174 3.39651 55.6631 2.43483 58.1875C2.0742 59.3896 2.91555 61.3129 4.11765 62.0342L13.6142 67.6841L13.9748 67.9245L23.4716 73.5744C24.794 74.4159 25.6354 73.5744 25.2748 71.8915Z" fill="#36A9E1"/>
<path d="M24.3129 74.4158C23.9522 74.4158 23.5914 74.2956 23.2308 74.0552L3.75678 62.515C2.31426 61.6735 1.35275 59.5097 1.83359 58.0672C2.43464 56.3843 3.51642 54.2205 5.31958 53.6194C6.40147 53.2588 7.60346 53.379 8.80556 54.1003C9.16619 54.3407 9.64703 54.5811 10.0077 54.8215C10.1279 54.9417 10.2481 54.9417 10.3684 55.062L10.4887 53.9801C9.64721 52.778 9.04598 51.095 8.80556 49.8929L7.72378 42.9207C7.72378 42.8005 7.72367 42.6803 7.60346 42.5601V42.3197C7.48325 41.8388 7.48325 41.5984 7.60346 41.1175C7.60346 39.074 8.32495 37.6314 9.64727 36.9102C10.9696 36.1889 12.5322 36.3091 14.3354 37.391C17.7012 39.4346 20.3459 44.243 20.3459 48.0897C20.3459 48.3302 20.3459 48.5706 20.3459 48.9312L20.2255 49.4121C20.2255 49.5323 20.2257 49.6525 20.1055 49.8929L18.9034 55.4226C18.663 56.5045 17.8213 57.1055 17.2203 57.4662L17.3406 59.2693L19.2641 60.3512C22.8704 62.515 24.6733 67.684 25.635 71.7712C25.8754 72.8531 25.635 73.6946 25.034 74.0552C24.9138 74.2956 24.6735 74.4158 24.3129 74.4158ZM6.64201 54.3407C6.40159 54.3407 6.04072 54.3407 5.8003 54.4609C4.35778 54.9417 3.39609 56.8651 2.79504 58.4278C2.43441 59.3895 3.27594 61.0725 4.35783 61.7937L23.8319 73.3339C24.1925 73.5744 24.5532 73.5744 24.7936 73.4541C25.034 73.2137 25.1542 72.7329 25.034 72.0116C24.3127 68.8862 22.5095 63.2363 19.0234 61.1927L16.7396 59.8704L16.4992 56.9853L16.7396 56.8651C17.4608 56.5045 18.0618 56.1438 18.182 55.3024L19.3841 49.7727C19.3841 49.6525 19.5045 49.5323 19.5045 49.4121V49.2919C19.5045 48.9312 19.6245 48.6908 19.6245 48.3302C19.6245 44.7239 17.1001 40.2761 13.9747 38.3527C12.5321 37.5112 11.21 37.391 10.2483 37.8719C9.28664 38.4729 8.68553 39.675 8.68553 41.358C8.68553 41.7186 8.68553 41.959 8.68553 42.3197V42.6803C8.68553 42.8005 8.68553 42.9207 8.68553 43.0409V43.1611L9.7673 50.0131C9.88751 51.2152 10.6088 52.778 11.3301 53.9801L11.4504 54.1003L11.0897 56.7449L10.4887 56.3843C10.2483 56.2641 9.88757 56.0236 9.52694 55.7832C9.16631 55.5428 8.68547 55.3024 8.32484 55.062C7.84399 54.5811 7.24306 54.3407 6.64201 54.3407Z" fill="#16110D"/>
<path d="M19.7443 23.2063L22.3888 21.6435L22.1485 19.7202L23.4709 18.6383L25.0334 11.7863L24.793 9.38208L22.1485 11.065L22.2688 13.8299L21.5474 17.4362L20.5857 20.201L19.5039 20.9223L19.7443 23.2063Z" fill="#16110D"/>
<path d="M26.7163 32.1017L29.3609 30.6592L30.0823 32.7028L29.9619 34.1453L29.1205 34.9868L27.3174 35.9484V33.9049L26.7163 32.1017Z" fill="#16110D"/>
<path d="M19.5044 44.6035L22.2693 43.0408L22.9904 45.6854L22.7501 48.33L21.7883 52.297L21.1873 54.3405L19.7448 55.6629L19.9852 57.8266L16.9799 59.5096L16.8599 56.9852L18.062 56.5043L19.0234 53.6193L19.9852 46.7673L19.5044 44.6035Z" fill="#16110D"/>
<path d="M24.6733 69.6074L27.5583 68.0447L28.2797 70.2085L28.3997 71.651L27.6786 72.252L25.2744 73.3339L25.3944 71.651L24.6733 69.6074Z" fill="#16110D"/>
<path d="M51.3598 27.774L55.6872 25.49L56.2882 30.2984L54.0044 40.2759L52.6819 41.9588L51.6002 42.5599L51.9608 45.9258L47.6332 48.4502L47.2725 44.9641L49.5566 43.5215L50.0374 41.1173L51.9608 31.8611L51.3598 27.774Z" fill="#16110D"/>
<path d="M58.9331 63.717L63.2605 61.1926L64.2222 64.6787V65.7606L63.3808 66.9627L59.6542 68.8861L59.8946 67.0829L59.4138 64.4383L58.9331 63.717Z" fill="#16110D"/>
</svg>
