<svg width="75" height="69" viewBox="0 0 75 69" fill="none" xmlns="http://www.w3.org/2000/svg">
<path d="M74.5783 43.1617C74.5783 43.1617 74.5783 43.0301 74.5783 43.1617V41.9772H73.9202L73.7885 41.8456L44.5706 24.9992C43.2545 24.2096 41.017 24.3412 39.5693 25.2624L2.19154 46.9785C1.92831 47.1101 1.66509 47.2417 1.53348 47.5049H1.00684V50.0056C1.00684 50.4004 1.27032 50.9268 1.92838 51.1901L31.1462 68.0365C32.4624 68.8261 34.6998 68.6945 36.1476 67.7732L73.5253 46.0572C74.315 45.6624 74.7097 45.0043 74.7097 44.4778V43.8198V43.1617H74.5783Z" fill="#36A9E1"/>
<path d="M74.5779 44.6093V43.9512V43.1615V42.1087H73.9198L73.7881 41.977L62.9959 35.6597C62.2063 35.6597 61.5481 35.6597 61.2849 35.7913C59.7056 36.3177 34.9626 50.7951 34.4361 52.9009C33.9097 55.1383 32.9883 66.0621 32.9883 66.0621V68.5627C34.0412 68.5627 35.2259 68.4311 36.1472 67.9047L73.5249 46.1886C74.183 45.6622 74.5779 45.1357 74.5779 44.6093Z" fill="#16110D"/>
<path d="M33.2518 68.8261C32.3305 68.8261 31.5409 68.6945 31.0145 68.2997L1.79661 51.4533C1.13855 51.0585 0.875265 50.532 0.743652 50.0056V47.2417H1.40171C1.53333 47.1101 1.79655 46.9785 2.05977 46.7153L39.4379 24.9992C41.0172 24.078 43.3862 24.078 44.7023 24.736L73.9202 41.5824H74.0516H74.9732V44.4778C74.9732 45.1359 74.4467 45.794 73.657 46.3204L36.279 68.0365C35.3577 68.5629 34.1731 68.8261 33.2518 68.8261ZM1.13855 47.6366V49.8739C1.13855 50.2688 1.40191 50.6636 1.92836 50.9269L31.1462 67.7732C32.3307 68.4313 34.4363 68.4313 35.8841 67.51L73.2621 45.794C73.9202 45.3991 74.3151 44.8727 74.3151 44.4778V43.0301V42.1088H73.7885C73.6568 42.1088 73.657 41.9772 73.657 41.9772L44.4389 25.1309C43.2543 24.4728 41.1487 24.4728 39.701 25.3941L2.32294 47.1101C2.05971 47.2417 1.9281 47.3733 1.66487 47.5049L1.53345 47.6366H1.13855Z" fill="#16110D"/>
<path d="M31.0141 65.5357L1.79625 48.6894C0.480132 47.8997 0.611808 46.7152 2.19116 45.7939L39.5689 24.0779C41.0166 23.2882 43.2541 23.1566 44.5702 23.8147L73.7881 40.661C75.1042 41.4507 74.9725 42.6352 73.3932 43.5565L36.0154 65.2725C34.5677 66.1938 32.3302 66.3254 31.0141 65.5357Z" fill="#36A9E1"/>
<path d="M33.2518 66.3254C32.3305 66.3254 31.5409 66.1938 31.0145 65.799L1.79661 48.9526C1.13855 48.5578 0.743652 48.0313 0.743652 47.5049C0.743652 46.8468 1.2701 46.1888 2.05977 45.6623L39.4379 23.9463C41.0172 23.025 43.3862 23.025 44.7023 23.683L73.9202 40.5294C74.5783 40.9242 74.9732 41.4507 74.9732 41.9771C74.9732 42.6352 74.4467 43.2932 73.657 43.8197L36.279 65.5357C35.3577 66.0622 34.1731 66.3254 33.2518 66.3254ZM42.3333 23.683C41.412 23.683 40.3591 23.9463 39.701 24.3411L2.32294 46.0571C1.66487 46.452 1.27029 46.9784 1.27029 47.5049C1.27029 47.8997 1.53333 48.2945 2.05977 48.5577L31.2776 65.4041C32.4621 66.0622 34.5681 66.0622 36.0158 65.1409L73.3936 43.4249C74.0516 43.03 74.4465 42.5036 74.4465 41.9771C74.4465 41.5823 74.1835 41.1875 73.657 40.9243L44.4389 24.0779C43.7808 23.8147 43.1229 23.683 42.3333 23.683Z" fill="#16110D"/>
<path d="M33.7786 63.9562L5.48193 47.6363L41.0172 26.9731L41.1487 27.1048L69.3139 43.4247L33.7786 63.9562Z" fill="#16110D"/>
<path d="M33.9104 62.3767L5.35059 45.7935L41.544 24.7356L70.2355 41.3187L33.9104 62.3767Z" fill="white"/>
<path d="M33.9102 62.64L4.69238 45.7936L41.4124 24.4724L41.5438 24.604L70.6302 41.4504L33.9102 62.64ZM5.74535 45.7936L33.9102 62.1135L69.5773 41.3188L41.4124 24.9989L5.74535 45.7936Z" fill="#16110D"/>
<path d="M65.6286 31.58L62.7332 30.0006L62.6015 30.1322C61.8118 30.6587 61.2856 31.3168 60.4959 30.9219C59.7062 30.3955 58.7847 30.2639 59.5743 29.869C59.5743 29.869 59.7061 29.869 59.7061 29.7374L59.9692 27.5L58.7849 27.1052L58.6531 29.0794L55.3628 25.789C54.8364 25.5258 53.7834 25.6574 53.6518 26.0523L53.2572 27.1052H52.8623V29.4742C52.8623 29.6058 52.9939 29.7374 53.1255 29.869L61.9434 35.0019C62.2066 35.1335 62.6014 35.2651 62.8646 35.1335L66.1549 34.7387C66.6814 34.607 66.9447 34.3438 66.9447 34.0806V31.7116L65.6286 31.58Z" fill="#16110D"/>
<path d="M62.8646 35.5282C62.6014 35.5282 62.2068 35.3966 62.0752 35.265L53.2572 30.1321C53.1256 30.0005 52.9937 30.0005 52.9937 29.8689H52.8623V26.7102H53.3886L53.7835 25.9205C53.9151 25.6573 54.0468 25.5257 54.4416 25.3941C54.968 25.2625 55.4946 25.2624 55.8895 25.5257L58.7849 28.4212L58.9163 26.7102L60.6273 27.2366V30.0005L60.2324 29.8689C60.1008 29.8689 60.101 29.8689 60.101 30.0005C59.9694 30.0005 59.9692 30.1321 59.9692 30.1321C60.1009 30.2637 60.2327 30.2637 60.4959 30.3953C60.6275 30.527 60.8906 30.5269 61.0222 30.6586C61.417 30.9218 61.6801 30.7902 62.2066 30.2637C62.3382 30.1321 62.6014 30.0005 62.8646 29.8689C62.8646 29.8689 62.8648 29.8689 62.9964 29.8689L63.1281 29.7373H63.2595L65.8918 31.185L67.7346 31.4482C67.8662 31.4482 67.866 31.5798 67.866 31.5798V33.9489C67.866 34.3437 67.4711 34.7385 66.813 34.8701L63.5227 35.265C62.9963 35.5282 62.9963 35.5282 62.8646 35.5282ZM53.2572 29.474C53.2572 29.6057 53.3886 29.6057 53.3886 29.6057L62.2066 34.7385C62.4698 34.8701 62.7332 34.8701 62.9964 34.8701L66.2867 34.4753C66.6815 34.4753 66.813 34.2121 66.813 34.0805V31.9747L65.7604 31.8431V32.1063L62.6015 30.2637C62.3383 30.3953 62.2068 30.5269 62.0752 30.6586C61.5487 31.0534 61.0221 31.4482 60.2324 31.0534C60.1008 30.9218 59.8377 30.9218 59.7061 30.7902C59.3112 30.5269 58.9163 30.3953 58.9163 30.1321C58.9163 29.8689 59.1797 29.7373 59.4429 29.6057C59.4429 29.6057 59.8378 29.8689 59.8378 29.7373V27.7631L59.1798 27.4999L59.048 29.7373L55.4945 26.1837C55.2313 26.0521 54.8364 26.0521 54.4416 26.1837C54.31 26.1837 54.1784 26.3154 54.1784 26.447L53.6518 27.6315H53.3886L53.2572 29.474Z" fill="#16110D"/>
<path d="M66.8128 31.4483L62.733 29.0793L62.6012 29.2109C61.8116 29.7373 60.4954 29.7373 59.5741 29.2109C58.7844 28.6844 58.7844 28.0263 59.5741 27.4999C59.5741 27.4999 59.7058 27.4999 59.7058 27.3683L55.4943 24.8677C54.9679 24.6044 53.9149 24.7361 53.7833 25.1309L52.9935 26.9735C52.8619 27.2367 52.9937 27.3683 53.257 27.4999L62.0749 32.6328C62.3381 32.7644 62.7329 32.896 62.9961 32.7644L66.2864 32.3696C67.0761 32.3696 67.3392 31.8431 66.8128 31.4483Z" fill="white"/>
<path d="M62.8647 33.1591C62.6014 33.1591 62.2068 33.0275 62.0752 32.8959L53.2572 27.763C52.8624 27.4998 52.7307 27.2365 52.8623 26.8417L53.6518 24.9991C53.7834 24.7359 53.915 24.6043 54.3099 24.4727C54.8363 24.3411 55.3629 24.3411 55.7577 24.6043L60.4959 27.3682L60.101 27.6314C59.9694 27.6314 59.9693 27.6314 59.9693 27.763C59.706 27.8946 59.4429 28.1578 59.4429 28.4211C59.4429 28.6843 59.5744 28.8159 59.9693 29.0791C60.7589 29.474 61.9436 29.474 62.7333 29.0791C62.7333 29.0791 62.7331 29.0791 62.8647 29.0791L62.9964 28.9475H63.1282L67.2079 31.3165C67.4712 31.4481 67.7345 31.843 67.6028 32.1062C67.4712 32.501 67.0763 32.7642 66.5499 32.7642L63.2596 33.1591C62.9963 33.1591 62.9963 33.1591 62.8647 33.1591ZM54.7048 24.9991C54.5732 24.9991 54.4415 24.9991 54.3099 25.1307C54.1783 25.1307 54.0467 25.2624 54.0467 25.394L53.2572 27.2365C53.2572 27.3681 53.3887 27.4998 53.3887 27.4998L62.2066 32.6326C62.4698 32.7643 62.7332 32.7642 62.9964 32.7642L66.2867 32.3694C66.6816 32.3694 66.813 32.1062 66.813 32.1062C66.813 31.9746 66.6816 31.9746 66.6816 31.843L62.7333 29.4739C61.812 30.0004 60.3642 30.0004 59.4429 29.4739C58.9165 29.2107 58.6531 28.8159 58.6531 28.4211C58.6531 28.0262 58.7849 27.763 59.1798 27.4998L55.3628 25.2623C55.2312 24.9991 54.968 24.9991 54.7048 24.9991Z" fill="#16110D"/>
<path d="M67.3392 39.7398L44.3071 26.447C43.7806 26.1837 43.7805 25.5257 44.4385 25.2624L45.8864 24.4728C46.5444 24.0779 47.4659 24.0779 47.9923 24.3412L71.0244 37.634C71.5509 37.8972 71.5508 38.5553 70.8927 38.8185L69.4448 39.6082C68.7868 40.003 67.8657 40.003 67.3392 39.7398Z" fill="white"/>
<path d="M68.2608 40.1347C67.866 40.1347 67.4711 40.0031 67.2079 39.8715L44.1757 26.5786C43.9125 26.447 43.6494 26.1838 43.6494 25.789C43.6494 25.3941 43.9126 25.1309 44.3075 24.8677L45.755 24.078C46.4131 23.6832 47.5977 23.6832 48.1241 23.9464L71.1562 37.2392C71.4195 37.3708 71.6829 37.6341 71.6829 38.0289C71.6829 38.4237 71.4197 38.687 71.0248 38.9502L69.577 39.7399C69.1821 40.0031 68.7873 40.1347 68.2608 40.1347ZM67.471 39.4766C67.9975 39.7399 68.7874 39.7399 69.3138 39.345L70.7613 38.5554C71.0246 38.4237 71.1562 38.2921 71.1562 38.0289C71.1562 37.8973 71.0247 37.7657 70.8931 37.7657L47.8609 24.4728C47.3345 24.2096 46.5449 24.2096 46.0185 24.6044L44.5706 25.3941C44.3074 25.5257 44.1757 25.6573 44.1757 25.9206C44.1757 26.0522 44.3073 26.1838 44.4389 26.1838L67.471 39.4766Z" fill="#16110D"/>
<path d="M60.101 36.5809L48.6508 30.0003C48.3876 29.8687 48.3874 29.6054 48.7822 29.3422L49.4403 28.9474C49.7035 28.8158 50.23 28.6842 50.4933 28.9474L61.9435 35.528C62.2067 35.6596 62.2069 35.9228 61.812 36.1861L61.154 36.5809C60.8908 36.7125 60.3642 36.8441 60.101 36.5809Z" fill="#36A9E1"/>
<path d="M60.6273 36.9758C60.3641 36.9758 60.2324 36.9758 59.9692 36.8442L48.519 30.2636C48.2558 30.132 48.2559 30.0004 48.2559 29.7371C48.2559 29.4739 48.3875 29.3423 48.6508 29.2107L49.3088 28.8158C49.7037 28.5526 50.2301 28.5526 50.6249 28.8158L62.0751 35.3964C62.3384 35.5281 62.3383 35.6597 62.3383 35.9229C62.3383 36.1861 62.2066 36.3177 61.9434 36.4493L61.2853 36.8442C61.1537 36.9758 60.8905 36.9758 60.6273 36.9758ZM49.9669 29.0791C49.8353 29.0791 49.5719 29.0791 49.4402 29.2107L48.7822 29.6055C48.6506 29.6055 48.6508 29.7371 48.6508 29.7371L60.101 36.3177C60.3642 36.4494 60.6272 36.4494 60.8904 36.3177L61.5485 35.9229C61.6801 35.9229 61.6802 35.7913 61.6802 35.7913L50.23 29.2107C50.23 29.0791 50.0985 29.0791 49.9669 29.0791Z" fill="#16110D"/>
<path d="M37.7274 44.7407C39.1084 44.7407 40.2279 44.0925 40.2279 43.2929C40.2279 42.4934 39.1084 41.8452 37.7274 41.8452C36.3463 41.8452 35.2266 42.4934 35.2266 43.2929C35.2266 44.0925 36.3463 44.7407 37.7274 44.7407Z" fill="#16110D"/>
<path d="M43.2549 39.7396C40.0962 37.897 35.3583 37.897 32.1996 39.7396C30.6202 40.6609 29.6987 41.977 29.6987 43.2931C29.6987 44.6092 30.6202 45.9254 32.1996 46.8467C33.7789 47.768 35.753 48.1628 37.7272 48.1628C39.7014 48.1628 41.6755 47.768 43.2549 46.8467C44.8342 45.9254 45.7554 44.6092 45.7554 43.2931C45.7554 41.977 44.8342 40.6609 43.2549 39.7396ZM42.5968 45.7937C39.9646 47.3731 35.4899 47.3731 32.8576 45.7937C31.6731 45.1357 31.0149 44.2144 31.0149 43.4247C31.0149 42.5035 31.6731 41.7138 32.8576 41.0557C34.1737 40.266 36.0162 39.8712 37.7272 39.8712C39.4382 39.8712 41.2807 40.266 42.5968 41.0557C43.7813 41.7138 44.4392 42.6351 44.4392 43.4247C44.4392 44.2144 43.7813 45.0041 42.5968 45.7937Z" fill="#16110D"/>
<path d="M39.4387 40.9239C38.5174 40.3974 36.9379 40.3974 36.0166 40.9239C35.0954 41.4503 35.0954 42.3716 36.0166 42.8981C36.9379 43.4245 38.5174 43.4245 39.4387 42.8981C40.4916 42.3716 40.4916 41.582 39.4387 40.9239Z" fill="#36A9E1"/>
<path d="M43.2549 38.4234C40.0962 36.5809 35.3583 36.5809 32.1996 38.4234C30.6202 39.3447 29.6987 40.6608 29.6987 41.977C29.6987 43.2931 30.6202 44.6092 32.1996 45.5305C33.7789 46.4518 35.753 46.8466 37.7272 46.8466C39.7014 46.8466 41.6755 46.4518 43.2549 45.5305C44.8342 44.6092 45.7554 43.2931 45.7554 41.977C45.7554 40.6608 44.8342 39.3447 43.2549 38.4234ZM42.5968 44.4776C39.9646 46.0569 35.4899 46.0569 32.8576 44.4776C31.6731 43.8195 31.0149 42.8983 31.0149 42.1086C31.0149 41.1873 31.6731 40.3976 32.8576 39.7396C34.1737 38.9499 36.0162 38.5551 37.7272 38.5551C39.4382 38.5551 41.2807 38.9499 42.5968 39.7396C43.7813 40.3976 44.4392 41.3189 44.4392 42.1086C44.4392 42.8983 43.7813 43.6879 42.5968 44.4776Z" fill="#36A9E1"/>
<path d="M36.6739 1.83487C31.541 4.20389 26.8029 11.4426 26.4081 18.1548C26.2764 20.787 26.803 23.0245 27.8559 24.4722L35.3578 38.6863L38.9112 40.3973C39.1744 39.6076 44.4391 14.7329 44.7023 13.9432C45.2288 12.2323 49.0454 11.0477 49.177 9.33678C49.177 3.28262 41.8068 -0.534151 36.6739 1.83487ZM36.0158 17.8916C33.91 18.9445 32.4622 17.6283 32.5938 15.1277C32.7254 12.6271 34.4365 9.86322 36.4107 8.81032C38.3849 7.88904 39.9641 9.07356 39.8324 11.5742C39.8324 13.9432 38.1216 16.8387 36.0158 17.8916Z" fill="#36A9E1"/>
<path d="M37.3321 3.15112C32.1992 5.52014 27.4611 12.7588 27.0663 19.4711C26.9347 20.7872 27.0662 21.8401 27.3295 22.893C33.252 26.4465 37.727 26.1833 42.3334 29.342C43.7812 22.6297 45.229 15.6543 45.3606 15.2595C45.887 13.5485 48.7823 12.2324 48.7823 10.5214C48.9139 4.33564 42.465 0.782102 37.3321 3.15112ZM36.674 19.0762C34.5683 20.1291 33.1204 18.813 33.252 16.3123C33.3836 13.8117 35.0948 11.0479 37.069 9.99498C39.0431 9.07369 40.6223 10.2582 40.4907 12.7588C40.4907 15.2595 38.7798 18.1549 36.674 19.0762Z" fill="white"/>
<path d="M39.0433 41.0555L34.9632 39.0814V38.9498L27.4614 24.7356C26.4085 23.1563 25.8819 20.9189 26.0135 18.155C26.4084 11.4428 31.1464 3.94089 36.5425 1.44026C39.1747 0.255749 42.7283 0.51897 45.4922 2.36154C48.1244 4.0725 49.5722 6.57313 49.4406 9.4686C49.4406 10.5215 48.256 11.4428 47.0715 12.1008C46.1502 12.7589 45.2291 13.417 44.9659 14.075C44.8343 14.3382 43.9129 18.9447 42.86 23.6827C40.7542 33.2904 39.3064 40.0026 39.1747 40.3975L39.0433 41.0555ZM35.6213 38.4233L38.6484 39.871C39.1749 37.8969 40.8858 29.7369 42.2019 23.6827C43.518 17.8918 44.1762 14.2066 44.3078 13.9434C44.571 13.0221 45.624 12.2325 46.6769 11.5744C47.5982 10.9163 48.6511 10.2583 48.6511 9.4686C48.6511 6.96796 47.3347 4.59895 45.0973 3.0196C42.5967 1.30864 39.3064 1.04542 36.9374 2.09832C31.8045 4.46734 27.3299 11.5744 26.9351 18.155C26.8035 20.6556 27.1983 22.7614 28.2512 24.2092L35.6213 38.4233ZM34.7001 18.5499C34.1736 18.5499 33.7788 18.4182 33.3839 18.155C32.4627 17.6286 32.0679 16.444 32.1996 14.9963C32.3312 12.3641 34.1735 9.46859 36.2793 8.41569C37.3322 7.88924 38.2537 7.88924 39.0433 8.41569C39.833 8.94214 40.3595 10.1267 40.3595 11.4428C40.2278 14.075 38.5169 17.1021 36.4111 18.155C35.753 18.4182 35.2265 18.5499 34.7001 18.5499ZM37.7272 8.94215C37.3324 8.94215 37.0691 9.07376 36.6742 9.20537C34.8317 10.1267 33.1206 12.7589 32.989 15.1279C32.989 16.3124 33.2522 17.2337 33.9103 17.6286C34.4367 18.0234 35.0948 17.8918 35.8844 17.497C37.727 16.5757 39.4382 13.8118 39.4382 11.4428C39.4382 10.3899 39.1747 9.46859 38.5167 9.07375C38.3851 8.94214 37.9904 8.94215 37.7272 8.94215Z" fill="#16110D"/>
<path d="M49.1773 10.5216C49.3089 4.33579 45.3605 1.1771 40.2276 3.54612C35.0947 5.91514 30.3566 13.1538 29.9618 19.866C29.8302 22.4983 30.3567 24.7357 31.4096 26.1834L38.9115 40.3975L47.4663 18.0235C47.7295 17.2338 48.1245 16.5757 48.2561 15.7861C48.7825 14.0751 49.1773 12.2325 49.1773 10.5216Z" fill="#16110D"/>
<path d="M39.0433 41.0556L38.5166 40.7924L31.0148 26.4466C29.9619 24.8673 29.4356 22.6299 29.5672 19.866C29.9621 13.1538 34.7001 5.65188 40.0962 3.15125C42.4652 2.09835 44.8341 2.09835 46.5451 3.15125C48.5193 4.46737 49.5722 7.09961 49.5722 10.3899C49.5722 12.1009 49.1775 13.9435 48.651 15.786C48.3878 16.5757 48.1243 17.3654 47.7295 18.0234L39.0433 41.0556ZM43.518 3.28287C42.5967 3.28287 41.5437 3.5461 40.4908 4.07255C35.3579 6.44157 30.8833 13.5486 30.4885 20.1292C30.3569 22.6299 30.7517 24.7357 31.8046 26.1834L38.9115 39.6079L47.0714 18.0234C47.3346 17.2338 47.7296 16.5757 47.8612 15.786C48.3877 14.0751 48.7824 12.2325 48.7824 10.6532C48.7824 7.62608 47.8612 5.12545 46.1502 4.07255C45.3605 3.41449 44.4392 3.28287 43.518 3.28287Z" fill="#16110D"/>
<path d="M39.1744 24.4727L35.3577 21.8404C34.8313 21.4456 34.8314 20.3927 35.4895 19.4714C36.0159 18.5501 36.9372 18.0237 37.4637 18.4185L39.4378 19.7346L42.9913 12.4959C43.5178 11.443 44.439 10.9166 44.9655 11.0482C45.6235 11.3114 45.6235 12.2327 45.2286 13.2856L39.9642 23.9462C39.7009 24.341 39.4376 24.6043 39.1744 24.4727Z" fill="#36A9E1"/>
</svg>
