<svg width="67" height="76" viewBox="0 0 67 76" fill="none" xmlns="http://www.w3.org/2000/svg">
<path d="M12.129 51.4406C12.4482 51.6534 12.4482 51.8662 12.129 52.079C11.8099 52.2918 11.3843 52.2918 11.0651 52.079C10.7459 51.8662 10.7459 51.6534 11.0651 51.4406C11.3843 51.3342 11.8099 51.3342 12.129 51.4406Z" fill="#16110D"/>
<path d="M14.7892 49.9513C15.1084 50.1641 15.1084 50.3769 14.7892 50.5897C14.47 50.8025 14.0444 50.8025 13.7252 50.5897C13.406 50.3769 13.406 50.1641 13.7252 49.9513C14.0444 49.7385 14.47 49.7385 14.7892 49.9513Z" fill="#16110D"/>
<path d="M16.9173 49.0999C17.3286 49.0999 17.6623 48.9094 17.6623 48.6744C17.6623 48.4393 17.3286 48.2488 16.9173 48.2488C16.506 48.2488 16.1729 48.4393 16.1729 48.6744C16.1729 48.9094 16.506 49.0999 16.9173 49.0999Z" fill="#16110D"/>
<path d="M19.6834 47.504C20.0948 47.504 20.4284 47.3135 20.4284 47.0784C20.4284 46.8434 20.0948 46.6528 19.6834 46.6528C19.2721 46.6528 18.939 46.8434 18.939 47.0784C18.939 47.3135 19.2721 47.504 19.6834 47.504Z" fill="#16110D"/>
<path d="M22.8751 45.2697C23.1943 45.4825 23.1943 45.6953 22.8751 45.9081C22.5559 46.1209 22.1304 46.1209 21.8112 45.9081C21.492 45.6953 21.492 45.4825 21.8112 45.2697C22.1304 45.0569 22.5559 45.0569 22.8751 45.2697Z" fill="#16110D"/>
<path d="M25.5353 43.6735C25.8545 43.8863 25.8545 44.0991 25.5353 44.3119C25.2161 44.5247 24.7905 44.5247 24.4713 44.3119C24.1521 44.0991 24.1521 43.8863 24.4713 43.6735C24.7905 43.5672 25.3225 43.5672 25.5353 43.6735Z" fill="#16110D"/>
<path d="M28.3014 42.1843C28.6206 42.397 28.6206 42.6098 28.3014 42.8226C27.9822 43.0354 27.5566 43.0354 27.2374 42.8226C26.9182 42.6098 26.9182 42.397 27.2374 42.1843C27.5566 41.9715 27.9822 41.9715 28.3014 42.1843Z" fill="#16110D"/>
<path d="M30.9611 40.5883C31.2803 40.8011 31.2803 41.0139 30.9611 41.2267C30.6419 41.4395 30.2163 41.4395 29.8971 41.2267C29.5779 41.0139 29.5779 40.8011 29.8971 40.5883C30.2163 40.3755 30.6419 40.3755 30.9611 40.5883Z" fill="#16110D"/>
<path d="M33.6217 38.9924C33.9409 39.2052 33.9409 39.418 33.6217 39.6308C33.3025 39.8436 32.8769 39.8436 32.5578 39.6308C32.2386 39.418 32.2386 39.2052 32.5578 38.9924C32.8769 38.886 33.4089 38.886 33.6217 38.9924Z" fill="#16110D"/>
<path d="M8.93734 50.5897C9.34867 50.5897 9.68232 50.3992 9.68232 50.1641C9.68232 49.9291 9.34867 49.7385 8.93734 49.7385C8.52601 49.7385 8.19287 49.9291 8.19287 50.1641C8.19287 50.3992 8.52601 50.5897 8.93734 50.5897Z" fill="#16110D"/>
<path d="M12.129 48.3554C12.4482 48.5682 12.4482 48.781 12.129 48.9938C11.8099 49.2065 11.3843 49.2065 11.0651 48.9938C10.7459 48.781 10.7459 48.5682 11.0651 48.3554C11.3843 48.1426 11.8099 48.1426 12.129 48.3554Z" fill="#16110D"/>
<path d="M14.7892 46.7592C15.1084 46.972 15.1084 47.1848 14.7892 47.3976C14.47 47.6104 14.0444 47.6104 13.7252 47.3976C13.406 47.1848 13.406 46.972 13.7252 46.7592C14.0444 46.6528 14.47 46.6528 14.7892 46.7592Z" fill="#16110D"/>
<path d="M17.4489 45.2697C17.7681 45.4825 17.7681 45.6953 17.4489 45.9081C17.1297 46.1209 16.7041 46.1209 16.3849 45.9081C16.0657 45.6953 16.0657 45.4825 16.3849 45.2697C16.7041 45.0569 17.2361 45.0569 17.4489 45.2697Z" fill="#16110D"/>
<path d="M20.2155 43.6735C20.5347 43.8863 20.5347 44.0991 20.2155 44.3119C19.8963 44.5247 19.4707 44.5247 19.1515 44.3119C18.8323 44.0991 18.8323 43.8863 19.1515 43.6735C19.4707 43.5672 19.8963 43.5672 20.2155 43.6735Z" fill="#16110D"/>
<path d="M22.8751 42.1843C23.1943 42.397 23.1943 42.6098 22.8751 42.8226C22.5559 43.0354 22.1304 43.0354 21.8112 42.8226C21.492 42.6098 21.492 42.397 21.8112 42.1843C22.1304 41.9715 22.5559 41.9715 22.8751 42.1843Z" fill="#16110D"/>
<path d="M25.0033 41.3331C25.4146 41.3331 25.7482 41.1426 25.7482 40.9075C25.7482 40.6725 25.4146 40.4819 25.0033 40.4819C24.5919 40.4819 24.2588 40.6725 24.2588 40.9075C24.2588 41.1426 24.5919 41.3331 25.0033 41.3331Z" fill="#16110D"/>
<path d="M28.3014 38.9924C28.6206 39.2052 28.6206 39.418 28.3014 39.6308C27.9822 39.8436 27.5566 39.8436 27.2374 39.6308C26.9182 39.418 26.9182 39.2052 27.2374 38.9924C27.5566 38.886 27.9822 38.886 28.3014 38.9924Z" fill="#16110D"/>
<path d="M30.4296 38.2474C30.8409 38.2474 31.1745 38.0569 31.1745 37.8218C31.1745 37.5868 30.8409 37.3962 30.4296 37.3962C30.0182 37.3962 29.6846 37.5868 29.6846 37.8218C29.6846 38.0569 30.0182 38.2474 30.4296 38.2474Z" fill="#16110D"/>
<path d="M6.17126 49.0999C6.58259 49.0999 6.91572 48.9094 6.91572 48.6744C6.91572 48.4393 6.58259 48.2488 6.17126 48.2488C5.75993 48.2488 5.42627 48.4393 5.42627 48.6744C5.42627 48.9094 5.75993 49.0999 6.17126 49.0999Z" fill="#16110D"/>
<path d="M9.36293 46.7592C9.68212 46.972 9.68212 47.1848 9.36293 47.3976C9.04374 47.6104 8.61815 47.6104 8.29896 47.3976C7.97977 47.1848 7.97977 46.972 8.29896 46.7592C8.61815 46.6528 9.15014 46.6528 9.36293 46.7592Z" fill="#16110D"/>
<path d="M12.129 45.2697C12.4482 45.4825 12.4482 45.6953 12.129 45.9081C11.8099 46.1209 11.3843 46.1209 11.0651 45.9081C10.7459 45.6953 10.7459 45.4825 11.0651 45.2697C11.3843 45.0569 11.8099 45.0569 12.129 45.2697Z" fill="#16110D"/>
<path d="M14.2572 44.4183C14.6685 44.4183 15.0021 44.2278 15.0021 43.9927C15.0021 43.7577 14.6685 43.5671 14.2572 43.5671C13.8458 43.5671 13.5127 43.7577 13.5127 43.9927C13.5127 44.2278 13.8458 44.4183 14.2572 44.4183Z" fill="#16110D"/>
<path d="M16.9173 42.8226C17.3286 42.8226 17.6623 42.6321 17.6623 42.397C17.6623 42.162 17.3286 41.9714 16.9173 41.9714C16.506 41.9714 16.1729 42.162 16.1729 42.397C16.1729 42.6321 16.506 42.8226 16.9173 42.8226Z" fill="#16110D"/>
<path d="M19.6834 41.3331C20.0948 41.3331 20.4284 41.1426 20.4284 40.9075C20.4284 40.6725 20.0948 40.4819 19.6834 40.4819C19.2721 40.4819 18.939 40.6725 18.939 40.9075C18.939 41.1426 19.2721 41.3331 19.6834 41.3331Z" fill="#16110D"/>
<path d="M22.8751 38.9924C23.1943 39.2052 23.1943 39.418 22.8751 39.6308C22.5559 39.8436 22.1304 39.8436 21.8112 39.6308C21.492 39.418 21.492 39.2052 21.8112 38.9924C22.1304 38.886 22.5559 38.886 22.8751 38.9924Z" fill="#16110D"/>
<path d="M25.5353 37.5026C25.8545 37.7154 25.8545 37.9282 25.5353 38.141C25.2161 38.3538 24.7905 38.3538 24.4713 38.141C24.1521 37.9282 24.1521 37.7154 24.4713 37.5026C24.7905 37.2898 25.3225 37.2898 25.5353 37.5026Z" fill="#16110D"/>
<path d="M28.3014 35.9067C28.6206 36.1195 28.6206 36.3323 28.3014 36.5451C27.9822 36.7579 27.5566 36.7579 27.2374 36.5451C26.9182 36.3323 26.9182 36.1195 27.2374 35.9067C27.5566 35.8003 27.9822 35.8003 28.3014 35.9067Z" fill="#16110D"/>
<path d="M3.51159 47.504C3.92292 47.504 4.25605 47.3135 4.25605 47.0784C4.25605 46.8434 3.92292 46.6528 3.51159 46.6528C3.10026 46.6528 2.7666 46.8434 2.7666 47.0784C2.7666 47.3135 3.10026 47.504 3.51159 47.504Z" fill="#16110D"/>
<path d="M6.17126 46.0145C6.58259 46.0145 6.91572 45.824 6.91572 45.5889C6.91572 45.3539 6.58259 45.1633 6.17126 45.1633C5.75993 45.1633 5.42627 45.3539 5.42627 45.5889C5.42627 45.824 5.75993 46.0145 6.17126 46.0145Z" fill="#16110D"/>
<path d="M9.36293 43.6735C9.68212 43.8863 9.68212 44.0991 9.36293 44.3119C9.04374 44.5247 8.61815 44.5247 8.29896 44.3119C7.97977 44.0991 7.97977 43.8863 8.29896 43.6735C8.61815 43.5672 9.15014 43.5672 9.36293 43.6735Z" fill="#16110D"/>
<path d="M12.129 42.1843C12.4482 42.397 12.4482 42.6098 12.129 42.8226C11.8099 43.0354 11.3843 43.0354 11.0651 42.8226C10.7459 42.6098 10.7459 42.397 11.0651 42.1843C11.3843 41.9715 11.8099 41.9715 12.129 42.1843Z" fill="#16110D"/>
<path d="M14.7892 40.5883C15.1084 40.8011 15.1084 41.0139 14.7892 41.2267C14.47 41.4395 14.0444 41.4395 13.7252 41.2267C13.406 41.0139 13.406 40.8011 13.7252 40.5883C14.0444 40.3755 14.47 40.3755 14.7892 40.5883Z" fill="#16110D"/>
<path d="M16.9173 39.7372C17.3286 39.7372 17.6623 39.5466 17.6623 39.3116C17.6623 39.0765 17.3286 38.886 16.9173 38.886C16.506 38.886 16.1729 39.0765 16.1729 39.3116C16.1729 39.5466 16.506 39.7372 16.9173 39.7372Z" fill="#16110D"/>
<path d="M19.6834 38.2474C20.0948 38.2474 20.4284 38.0569 20.4284 37.8218C20.4284 37.5868 20.0948 37.3962 19.6834 37.3962C19.2721 37.3962 18.939 37.5868 18.939 37.8218C18.939 38.0569 19.2721 38.2474 19.6834 38.2474Z" fill="#16110D"/>
<path d="M22.8751 35.9067C23.1943 36.1195 23.1943 36.3323 22.8751 36.5451C22.5559 36.7579 22.1304 36.7579 21.8112 36.5451C21.492 36.3323 21.492 36.1195 21.8112 35.9067C22.1304 35.8003 22.5559 35.8003 22.8751 35.9067Z" fill="#16110D"/>
<path d="M25.0033 35.0555C25.4146 35.0555 25.7482 34.865 25.7482 34.6299C25.7482 34.3949 25.4146 34.2043 25.0033 34.2043C24.5919 34.2043 24.2588 34.3949 24.2588 34.6299C24.2588 34.865 24.5919 35.0555 25.0033 35.0555Z" fill="#16110D"/>
<path d="M0.851432 46.0145C1.26276 46.0145 1.5959 45.824 1.5959 45.5889C1.5959 45.3539 1.26276 45.1633 0.851432 45.1633C0.440102 45.1633 0.106445 45.3539 0.106445 45.5889C0.106445 45.824 0.440102 46.0145 0.851432 46.0145Z" fill="#16110D"/>
<path d="M3.51159 44.4183C3.92292 44.4183 4.25605 44.2278 4.25605 43.9927C4.25605 43.7577 3.92292 43.5671 3.51159 43.5671C3.10026 43.5671 2.7666 43.7577 2.7666 43.9927C2.7666 44.2278 3.10026 44.4183 3.51159 44.4183Z" fill="#16110D"/>
<path d="M6.17126 42.8226C6.58259 42.8226 6.91572 42.6321 6.91572 42.397C6.91572 42.162 6.58259 41.9714 6.17126 41.9714C5.75993 41.9714 5.42627 42.162 5.42627 42.397C5.42627 42.6321 5.75993 42.8226 6.17126 42.8226Z" fill="#16110D"/>
<path d="M8.93734 41.3331C9.34867 41.3331 9.68232 41.1426 9.68232 40.9075C9.68232 40.6725 9.34867 40.4819 8.93734 40.4819C8.52601 40.4819 8.19287 40.6725 8.19287 40.9075C8.19287 41.1426 8.52601 41.3331 8.93734 41.3331Z" fill="#16110D"/>
<path d="M12.129 38.9924C12.4482 39.2052 12.4482 39.418 12.129 39.6308C11.8099 39.8436 11.3843 39.8436 11.0651 39.6308C10.7459 39.418 10.7459 39.2052 11.0651 38.9924C11.3843 38.886 11.8099 38.886 12.129 38.9924Z" fill="#16110D"/>
<path d="M14.7892 37.5026C15.1084 37.7154 15.1084 37.9282 14.7892 38.141C14.47 38.3538 14.0444 38.3538 13.7252 38.141C13.406 37.9282 13.406 37.7154 13.7252 37.5026C14.0444 37.2898 14.47 37.2898 14.7892 37.5026Z" fill="#16110D"/>
<path d="M17.4489 35.9067C17.7681 36.1195 17.7681 36.3323 17.4489 36.5451C17.1297 36.7579 16.7041 36.7579 16.3849 36.5451C16.0657 36.3323 16.0657 36.1195 16.3849 35.9067C16.7041 35.8003 17.2361 35.8003 17.4489 35.9067Z" fill="#16110D"/>
<path d="M20.2155 34.4172C20.5347 34.63 20.5347 34.8427 20.2155 35.0555C19.8963 35.2683 19.4707 35.2683 19.1515 35.0555C18.8323 34.8427 18.8323 34.63 19.1515 34.4172C19.4707 34.2044 19.8963 34.2044 20.2155 34.4172Z" fill="#16110D"/>
<path d="M22.8751 32.8212C23.1943 33.034 23.1943 33.2468 22.8751 33.4596C22.5559 33.6724 22.1304 33.6724 21.8112 33.4596C21.492 33.2468 21.492 33.034 21.8112 32.8212C22.1304 32.6084 22.5559 32.6084 22.8751 32.8212Z" fill="#16110D"/>
<path d="M0.744986 42.8226C1.15632 42.8226 1.48945 42.6321 1.48945 42.397C1.48945 42.162 1.15632 41.9714 0.744986 41.9714C0.333656 41.9714 0 42.162 0 42.397C0 42.6321 0.333656 42.8226 0.744986 42.8226Z" fill="#16110D"/>
<path d="M2.97963 40.5883C3.29882 40.3755 3.72441 40.3755 4.0436 40.5883C4.36279 40.8011 4.36279 41.0139 4.0436 41.2267C3.72441 41.4395 3.29882 41.4395 2.97963 41.2267C2.66044 41.0139 2.66044 40.6947 2.97963 40.5883C3.29882 40.3755 2.66044 40.6947 2.97963 40.5883Z" fill="#16110D"/>
<path d="M6.70309 38.9924C7.02228 39.2052 7.02228 39.418 6.70309 39.6308C6.3839 39.8436 5.95832 39.8436 5.63912 39.6308C5.31993 39.418 6.3839 38.886 6.70309 38.9924Z" fill="#16110D"/>
<path d="M9.36307 37.5028C9.68226 37.7156 9.68226 37.9284 9.36307 38.1412C9.04388 38.354 8.61829 38.354 8.2991 38.1412C8.0863 37.9284 9.04388 37.29 9.36307 37.5028Z" fill="#16110D"/>
<path d="M12.0231 35.9066C12.3423 36.1194 12.3423 36.3322 12.0231 36.545C11.7039 36.7578 11.2783 36.7578 10.9591 36.545C10.7463 36.3322 11.8103 35.6938 12.0231 35.9066Z" fill="#16110D"/>
<path d="M14.7885 34.3108C15.1077 34.5236 15.1077 34.7364 14.7885 34.9492C14.4694 35.162 14.0438 35.162 13.7246 34.9492C13.4054 34.7364 14.4694 34.2044 14.7885 34.3108Z" fill="#16110D"/>
<path d="M17.449 32.8214C17.7682 33.0342 17.7682 33.247 17.449 33.4598C17.1298 33.6726 16.7042 33.6726 16.385 33.4598C16.1722 33.247 17.1298 32.6086 17.449 32.8214Z" fill="#16110D"/>
<path d="M20.1086 31.2253C20.4277 31.4381 20.4277 31.6509 20.1086 31.8637C19.7894 32.0765 19.3638 32.0765 19.0446 31.8637C18.8318 31.6509 19.8958 31.1189 20.1086 31.2253Z" fill="#16110D"/>
<path d="M20.3219 74.5285C20.6411 74.7413 20.6411 74.9541 20.3219 75.1669C20.0027 75.3797 19.5771 75.3797 19.2579 75.1669C18.9388 74.9541 18.9388 74.7413 19.2579 74.5285C19.5771 74.4221 20.0027 74.4221 20.3219 74.5285Z" fill="#16110D"/>
<path d="M22.9816 73.0395C23.3008 73.2523 23.3008 73.4651 22.9816 73.6779C22.6624 73.8907 22.2368 73.8907 21.9176 73.6779C21.5984 73.4651 21.5984 73.2523 21.9176 73.0395C22.2368 72.8267 22.6624 72.8267 22.9816 73.0395Z" fill="#16110D"/>
<path d="M25.6417 71.4433C25.9609 71.6561 25.9609 71.8689 25.6417 72.0817C25.3226 72.2945 24.897 72.2945 24.5778 72.0817C24.2586 71.8689 24.2586 71.6561 24.5778 71.4433C24.897 71.3369 25.4289 71.3369 25.6417 71.4433Z" fill="#16110D"/>
<path d="M27.8758 70.5922C28.2872 70.5922 28.6203 70.4016 28.6203 70.1666C28.6203 69.9315 28.2872 69.741 27.8758 69.741C27.4645 69.741 27.1309 69.9315 27.1309 70.1666C27.1309 70.4016 27.4645 70.5922 27.8758 70.5922Z" fill="#16110D"/>
<path d="M31.068 68.3578C31.3872 68.5706 31.3872 68.7834 31.068 68.9962C30.7488 69.209 30.3232 69.209 30.004 68.9962C29.6849 68.7834 29.6849 68.5706 30.004 68.3578C30.3232 68.145 30.7488 68.145 31.068 68.3578Z" fill="#16110D"/>
<path d="M33.7282 66.7619C34.0474 66.9747 34.0474 67.1875 33.7282 67.4003C33.409 67.6131 32.9834 67.6131 32.6642 67.4003C32.345 67.1875 32.345 66.9747 32.6642 66.7619C32.9834 66.6555 33.5154 66.6555 33.7282 66.7619Z" fill="#16110D"/>
<path d="M36.4943 65.2724C36.8135 65.4852 36.8135 65.698 36.4943 65.9108C36.1751 66.1236 35.7495 66.1236 35.4303 65.9108C35.1111 65.698 35.1111 65.4852 35.4303 65.2724C35.7495 65.0596 36.1751 65.0596 36.4943 65.2724Z" fill="#16110D"/>
<path d="M39.1539 63.6762C39.4731 63.889 39.4731 64.1018 39.1539 64.3146C38.8348 64.5274 38.4092 64.5274 38.09 64.3146C37.7708 64.1018 37.7708 63.889 38.09 63.6762C38.4092 63.4634 38.8348 63.4634 39.1539 63.6762Z" fill="#16110D"/>
<path d="M41.8141 62.0805C42.1333 62.2933 42.1333 62.5061 41.8141 62.7189C41.4949 62.9317 41.0693 62.9317 40.7501 62.7189C40.4309 62.5061 40.4309 62.2933 40.7501 62.0805C41.0693 61.9741 41.6013 61.9741 41.8141 62.0805Z" fill="#16110D"/>
<path d="M44.0482 61.3355C44.4595 61.3355 44.7932 61.145 44.7932 60.91C44.7932 60.6749 44.4595 60.4844 44.0482 60.4844C43.6368 60.4844 43.3037 60.6749 43.3037 60.91C43.3037 61.145 43.6368 61.3355 44.0482 61.3355Z" fill="#16110D"/>
<path d="M47.2399 58.9951C47.5591 59.2079 47.5591 59.4206 47.2399 59.6334C46.9207 59.8462 46.4951 59.8462 46.1759 59.6334C45.8567 59.4206 45.8567 59.2079 46.1759 58.9951C46.4951 58.8887 46.9207 58.8887 47.2399 58.9951Z" fill="#16110D"/>
<path d="M49.368 58.1436C49.7793 58.1436 50.113 57.9531 50.113 57.7181C50.113 57.483 49.7793 57.2925 49.368 57.2925C48.9567 57.2925 48.6235 57.483 48.6235 57.7181C48.6235 57.9531 48.9567 58.1436 49.368 58.1436Z" fill="#16110D"/>
<path d="M52.1346 56.6541C52.5459 56.6541 52.8796 56.4636 52.8796 56.2286C52.8796 55.9935 52.5459 55.803 52.1346 55.803C51.7233 55.803 51.3901 55.9935 51.3901 56.2286C51.3901 56.4636 51.7233 56.6541 52.1346 56.6541Z" fill="#16110D"/>
<path d="M54.7943 55.0582C55.2056 55.0582 55.5393 54.8677 55.5393 54.6326C55.5393 54.3976 55.2056 54.207 54.7943 54.207C54.3829 54.207 54.0498 54.3976 54.0498 54.6326C54.0498 54.8677 54.3829 55.0582 54.7943 55.0582Z" fill="#16110D"/>
<path d="M14.8956 74.5285C15.2148 74.7413 15.2148 74.9541 14.8956 75.1669C14.5765 75.3797 14.1509 75.3797 13.8317 75.1669C13.5125 74.9541 13.5125 74.7413 13.8317 74.5285C14.1509 74.4221 14.6829 74.4221 14.8956 74.5285Z" fill="#16110D"/>
<path d="M17.6618 73.0395C17.981 73.2523 17.981 73.4651 17.6618 73.6779C17.3426 73.8907 16.917 73.8907 16.5978 73.6779C16.2786 73.4651 16.2786 73.2523 16.5978 73.0395C16.917 72.8267 17.3426 72.8267 17.6618 73.0395Z" fill="#16110D"/>
<path d="M20.3219 71.4433C20.6411 71.6561 20.6411 71.8689 20.3219 72.0817C20.0027 72.2945 19.5771 72.2945 19.2579 72.0817C18.9388 71.8689 18.9388 71.6561 19.2579 71.4433C19.5771 71.3369 20.0027 71.3369 20.3219 71.4433Z" fill="#16110D"/>
<path d="M22.9816 69.8474C23.3008 70.0602 23.3008 70.273 22.9816 70.4858C22.6624 70.6986 22.2368 70.6986 21.9176 70.4858C21.5984 70.273 21.5984 70.0602 21.9176 69.8474C22.2368 69.741 22.6624 69.741 22.9816 69.8474Z" fill="#16110D"/>
<path d="M25.6417 68.3578C25.9609 68.5706 25.9609 68.7834 25.6417 68.9962C25.3226 69.209 24.897 69.209 24.5778 68.9962C24.2586 68.7834 24.2586 68.5706 24.5778 68.3578C24.897 68.145 25.4289 68.145 25.6417 68.3578Z" fill="#16110D"/>
<path d="M27.8758 67.5067C28.2872 67.5067 28.6203 67.3161 28.6203 67.0811C28.6203 66.8461 28.2872 66.6555 27.8758 66.6555C27.4645 66.6555 27.1309 66.8461 27.1309 67.0811C27.1309 67.3161 27.4645 67.5067 27.8758 67.5067Z" fill="#16110D"/>
<path d="M31.068 65.2724C31.3872 65.4852 31.3872 65.698 31.068 65.9108C30.7488 66.1236 30.3232 66.1236 30.004 65.9108C29.6849 65.698 29.6849 65.4852 30.004 65.2724C30.3232 65.0596 30.7488 65.0596 31.068 65.2724Z" fill="#16110D"/>
<path d="M33.3026 64.4212C33.7139 64.4212 34.0471 64.2307 34.0471 63.9956C34.0471 63.7606 33.7139 63.5701 33.3026 63.5701C32.8913 63.5701 32.5576 63.7606 32.5576 63.9956C32.5576 64.2307 32.8913 64.4212 33.3026 64.4212Z" fill="#16110D"/>
<path d="M35.9623 62.8253C36.3736 62.8253 36.7067 62.6347 36.7067 62.3997C36.7067 62.1647 36.3736 61.9741 35.9623 61.9741C35.5509 61.9741 35.2173 62.1647 35.2173 62.3997C35.2173 62.6347 35.5509 62.8253 35.9623 62.8253Z" fill="#16110D"/>
<path d="M38.6224 61.3355C39.0338 61.3355 39.3669 61.145 39.3669 60.91C39.3669 60.6749 39.0338 60.4844 38.6224 60.4844C38.2111 60.4844 37.8774 60.6749 37.8774 60.91C37.8774 61.145 38.2111 61.3355 38.6224 61.3355Z" fill="#16110D"/>
<path d="M41.8141 58.9951C42.1333 59.2079 42.1333 59.4206 41.8141 59.6334C41.4949 59.8462 41.0693 59.8462 40.7501 59.6334C40.4309 59.4206 40.4309 59.2079 40.7501 58.9951C41.0693 58.8887 41.6013 58.8887 41.8141 58.9951Z" fill="#16110D"/>
<path d="M44.5802 57.5053C44.8994 57.7181 44.8994 57.9309 44.5802 58.1437C44.261 58.3565 43.8354 58.3565 43.5162 58.1437C43.1971 57.9309 43.1971 57.7181 43.5162 57.5053C43.8354 57.2925 44.261 57.2925 44.5802 57.5053Z" fill="#16110D"/>
<path d="M47.2399 55.9094C47.5591 56.1221 47.5591 56.3349 47.2399 56.5477C46.9207 56.7605 46.4951 56.7605 46.1759 56.5477C45.8567 56.3349 45.8567 56.1221 46.1759 55.9094C46.4951 55.6966 46.9207 55.6966 47.2399 55.9094Z" fill="#16110D"/>
<path d="M49.368 55.0582C49.7793 55.0582 50.113 54.8677 50.113 54.6326C50.113 54.3976 49.7793 54.207 49.368 54.207C48.9567 54.207 48.6235 54.3976 48.6235 54.6326C48.6235 54.8677 48.9567 55.0582 49.368 55.0582Z" fill="#16110D"/>
<path d="M52.1346 53.4622C52.5459 53.4622 52.8796 53.2717 52.8796 53.0367C52.8796 52.8016 52.5459 52.6111 52.1346 52.6111C51.7233 52.6111 51.3901 52.8016 51.3901 53.0367C51.3901 53.2717 51.7233 53.4622 52.1346 53.4622Z" fill="#16110D"/>
<path d="M54.7943 51.9728C55.2056 51.9728 55.5393 51.7822 55.5393 51.5472C55.5393 51.3122 55.2056 51.1216 54.7943 51.1216C54.3829 51.1216 54.0498 51.3122 54.0498 51.5472C54.0498 51.7822 54.3829 51.9728 54.7943 51.9728Z" fill="#16110D"/>
<path d="M11.7035 73.6778C12.1148 73.6778 12.4484 73.4873 12.4484 73.2522C12.4484 73.0172 12.1148 72.8267 11.7035 72.8267C11.2921 72.8267 10.959 73.0172 10.959 73.2522C10.959 73.4873 11.2921 73.6778 11.7035 73.6778Z" fill="#16110D"/>
<path d="M14.8956 71.4433C15.2148 71.6561 15.2148 71.8689 14.8956 72.0817C14.5765 72.2945 14.1509 72.2945 13.8317 72.0817C13.5125 71.8689 13.5125 71.6561 13.8317 71.4433C14.1509 71.3369 14.6829 71.3369 14.8956 71.4433Z" fill="#16110D"/>
<path d="M17.1302 70.5922C17.5416 70.5922 17.8752 70.4016 17.8752 70.1666C17.8752 69.9315 17.5416 69.741 17.1302 69.741C16.7189 69.741 16.3853 69.9315 16.3853 70.1666C16.3853 70.4016 16.7189 70.5922 17.1302 70.5922Z" fill="#16110D"/>
<path d="M19.7899 69.1024C20.2012 69.1024 20.5349 68.9118 20.5349 68.6768C20.5349 68.4418 20.2012 68.2512 19.7899 68.2512C19.3786 68.2512 19.0449 68.4418 19.0449 68.6768C19.0449 68.9118 19.3786 69.1024 19.7899 69.1024Z" fill="#16110D"/>
<path d="M22.4501 67.5067C22.8614 67.5067 23.1951 67.3161 23.1951 67.0811C23.1951 66.8461 22.8614 66.6555 22.4501 66.6555C22.0387 66.6555 21.7051 66.8461 21.7051 67.0811C21.7051 67.3161 22.0387 67.5067 22.4501 67.5067Z" fill="#16110D"/>
<path d="M25.6417 65.2724C25.9609 65.4852 25.9609 65.698 25.6417 65.9108C25.3226 66.1236 24.897 66.1236 24.5778 65.9108C24.2586 65.698 24.2586 65.4852 24.5778 65.2724C24.897 65.0596 25.4289 65.0596 25.6417 65.2724Z" fill="#16110D"/>
<path d="M28.4079 63.6762C28.727 63.889 28.727 64.1018 28.4079 64.3146C28.0887 64.5274 27.6631 64.5274 27.3439 64.3146C27.0247 64.1018 27.0247 63.889 27.3439 63.6762C27.6631 63.4634 28.0887 63.4634 28.4079 63.6762Z" fill="#16110D"/>
<path d="M31.068 62.0805C31.3872 62.2933 31.3872 62.5061 31.068 62.7189C30.7488 62.9317 30.3232 62.9317 30.004 62.7189C29.6849 62.5061 29.6849 62.2933 30.004 62.0805C30.3232 61.9741 30.7488 61.9741 31.068 62.0805Z" fill="#16110D"/>
<path d="M33.7282 60.591C34.0474 60.8038 34.0474 61.0166 33.7282 61.2293C33.409 61.4421 32.9834 61.4421 32.6642 61.2293C32.345 61.0166 32.345 60.8038 32.6642 60.591C32.9834 60.3782 33.5154 60.3782 33.7282 60.591Z" fill="#16110D"/>
<path d="M35.9623 59.7396C36.3736 59.7396 36.7067 59.5491 36.7067 59.314C36.7067 59.079 36.3736 58.8884 35.9623 58.8884C35.5509 58.8884 35.2173 59.079 35.2173 59.314C35.2173 59.5491 35.5509 59.7396 35.9623 59.7396Z" fill="#16110D"/>
<path d="M39.1539 57.5053C39.4731 57.7181 39.4731 57.9309 39.1539 58.1437C38.8348 58.3565 38.4092 58.3565 38.09 58.1437C37.7708 57.9309 37.7708 57.7181 38.09 57.5053C38.4092 57.2925 38.8348 57.2925 39.1539 57.5053Z" fill="#16110D"/>
<path d="M41.8141 55.9094C42.1333 56.1221 42.1333 56.3349 41.8141 56.5477C41.4949 56.7605 41.0693 56.7605 40.7501 56.5477C40.4309 56.3349 40.4309 56.1221 40.7501 55.9094C41.0693 55.6966 41.6013 55.6966 41.8141 55.9094Z" fill="#16110D"/>
<path d="M44.0482 55.0582C44.4595 55.0582 44.7932 54.8677 44.7932 54.6326C44.7932 54.3976 44.4595 54.207 44.0482 54.207C43.6368 54.207 43.3037 54.3976 43.3037 54.6326C43.3037 54.8677 43.6368 55.0582 44.0482 55.0582Z" fill="#16110D"/>
<path d="M47.2399 52.8239C47.5591 53.0367 47.5591 53.2495 47.2399 53.4623C46.9207 53.6751 46.4951 53.6751 46.1759 53.4623C45.8567 53.2495 45.8567 53.0367 46.1759 52.8239C46.4951 52.6111 46.9207 52.6111 47.2399 52.8239Z" fill="#16110D"/>
<path d="M49.368 51.9728C49.7793 51.9728 50.113 51.7822 50.113 51.5472C50.113 51.3122 49.7793 51.1216 49.368 51.1216C48.9567 51.1216 48.6235 51.3122 48.6235 51.5472C48.6235 51.7822 48.9567 51.9728 49.368 51.9728Z" fill="#16110D"/>
<path d="M52.6662 49.6318C52.9853 49.8446 52.9853 50.0574 52.6662 50.2702C52.347 50.483 51.9214 50.483 51.6022 50.2702C51.283 50.0574 51.283 49.8446 51.6022 49.6318C51.9214 49.5254 52.347 49.5254 52.6662 49.6318Z" fill="#16110D"/>
<path d="M9.57582 71.4433C9.89501 71.6561 9.89501 71.8689 9.57582 72.0817C9.25663 72.2945 8.83104 72.2945 8.51185 72.0817C8.19266 71.8689 8.19266 71.6561 8.51185 71.4433C8.83104 71.3369 9.25663 71.3369 9.57582 71.4433Z" fill="#16110D"/>
<path d="M12.2355 69.8474C12.5547 70.0602 12.5547 70.273 12.2355 70.4858C11.9163 70.6986 11.4907 70.6986 11.1715 70.4858C10.8523 70.273 10.8523 70.0602 11.1715 69.8474C11.4907 69.741 11.9163 69.741 12.2355 69.8474Z" fill="#16110D"/>
<path d="M14.8956 68.3578C15.2148 68.5706 15.2148 68.7834 14.8956 68.9962C14.5765 69.209 14.1509 69.209 13.8317 68.9962C13.5125 68.7834 13.5125 68.5706 13.8317 68.3578C14.1509 68.145 14.6829 68.145 14.8956 68.3578Z" fill="#16110D"/>
<path d="M17.1302 67.5067C17.5416 67.5067 17.8752 67.3161 17.8752 67.0811C17.8752 66.8461 17.5416 66.6555 17.1302 66.6555C16.7189 66.6555 16.3853 66.8461 16.3853 67.0811C16.3853 67.3161 16.7189 67.5067 17.1302 67.5067Z" fill="#16110D"/>
<path d="M20.3219 65.2724C20.6411 65.4852 20.6411 65.698 20.3219 65.9108C20.0027 66.1236 19.5771 66.1236 19.2579 65.9108C18.9388 65.698 18.9388 65.4852 19.2579 65.2724C19.5771 65.0596 20.0027 65.0596 20.3219 65.2724Z" fill="#16110D"/>
<path d="M22.9816 63.6762C23.3008 63.889 23.3008 64.1018 22.9816 64.3146C22.6624 64.5274 22.2368 64.5274 21.9176 64.3146C21.5984 64.1018 21.5984 63.889 21.9176 63.6762C22.2368 63.4634 22.6624 63.4634 22.9816 63.6762Z" fill="#16110D"/>
<path d="M25.6417 62.0805C25.9609 62.2933 25.9609 62.5061 25.6417 62.7189C25.3226 62.9317 24.897 62.9317 24.5778 62.7189C24.2586 62.5061 24.2586 62.2933 24.5778 62.0805C24.897 61.9741 25.4289 61.9741 25.6417 62.0805Z" fill="#16110D"/>
<path d="M27.8758 61.3355C28.2872 61.3355 28.6203 61.145 28.6203 60.91C28.6203 60.6749 28.2872 60.4844 27.8758 60.4844C27.4645 60.4844 27.1309 60.6749 27.1309 60.91C27.1309 61.145 27.4645 61.3355 27.8758 61.3355Z" fill="#16110D"/>
<path d="M31.068 58.9951C31.3872 59.2079 31.3872 59.4206 31.068 59.6334C30.7488 59.8462 30.3232 59.8462 30.004 59.6334C29.6849 59.4206 29.6849 59.2079 30.004 58.9951C30.3232 58.8887 30.7488 58.8887 31.068 58.9951Z" fill="#16110D"/>
<path d="M33.3026 58.1436C33.7139 58.1436 34.0471 57.9531 34.0471 57.7181C34.0471 57.483 33.7139 57.2925 33.3026 57.2925C32.8913 57.2925 32.5576 57.483 32.5576 57.7181C32.5576 57.9531 32.8913 58.1436 33.3026 58.1436Z" fill="#16110D"/>
<path d="M36.4943 55.9094C36.8135 56.1221 36.8135 56.3349 36.4943 56.5477C36.1751 56.7605 35.7495 56.7605 35.4303 56.5477C35.1111 56.3349 35.1111 56.1221 35.4303 55.9094C35.7495 55.6966 36.1751 55.6966 36.4943 55.9094Z" fill="#16110D"/>
<path d="M39.1539 54.3134C39.4731 54.5262 39.4731 54.739 39.1539 54.9518C38.8348 55.1646 38.4092 55.1646 38.09 54.9518C37.7708 54.739 37.7708 54.5262 38.09 54.3134C38.4092 54.207 38.8348 54.207 39.1539 54.3134Z" fill="#16110D"/>
<path d="M41.8141 52.8239C42.1333 53.0367 42.1333 53.2495 41.8141 53.4623C41.4949 53.6751 41.0693 53.6751 40.7501 53.4623C40.4309 53.2495 40.4309 53.0367 40.7501 52.8239C41.0693 52.6111 41.6013 52.6111 41.8141 52.8239Z" fill="#16110D"/>
<path d="M44.5802 51.228C44.8994 51.4408 44.8994 51.6536 44.5802 51.8664C44.261 52.0792 43.8354 52.0792 43.5162 51.8664C43.1971 51.6536 43.1971 51.4408 43.5162 51.228C43.8354 51.1216 44.261 51.1216 44.5802 51.228Z" fill="#16110D"/>
<path d="M47.2399 49.6318C47.5591 49.8446 47.5591 50.0574 47.2399 50.2702C46.9207 50.483 46.4951 50.483 46.1759 50.2702C45.8567 50.0574 45.8567 49.8446 46.1759 49.6318C46.4951 49.5254 46.9207 49.5254 47.2399 49.6318Z" fill="#16110D"/>
<path d="M49.368 48.8873C49.7793 48.8873 50.113 48.6968 50.113 48.4617C50.113 48.2267 49.7793 48.0361 49.368 48.0361C48.9567 48.0361 48.6235 48.2267 48.6235 48.4617C48.6235 48.6968 48.9567 48.8873 49.368 48.8873Z" fill="#16110D"/>
<path d="M6.80922 69.8474C7.12841 70.0602 7.12841 70.273 6.80922 70.4858C6.49003 70.6986 6.06444 70.6986 5.74525 70.4858C5.42606 70.273 5.42606 70.0602 5.74525 69.8474C6.06444 69.741 6.59643 69.741 6.80922 69.8474Z" fill="#16110D"/>
<path d="M9.04378 69.1024C9.45511 69.1024 9.78877 68.9118 9.78877 68.6768C9.78877 68.4418 9.45511 68.2512 9.04378 68.2512C8.63245 68.2512 8.29932 68.4418 8.29932 68.6768C8.29932 68.9118 8.63245 69.1024 9.04378 69.1024Z" fill="#16110D"/>
<path d="M11.7035 67.5067C12.1148 67.5067 12.4484 67.3161 12.4484 67.0811C12.4484 66.8461 12.1148 66.6555 11.7035 66.6555C11.2921 66.6555 10.959 66.8461 10.959 67.0811C10.959 67.3161 11.2921 67.5067 11.7035 67.5067Z" fill="#16110D"/>
<path d="M14.8956 65.2724C15.2148 65.4852 15.2148 65.698 14.8956 65.9108C14.5765 66.1236 14.1509 66.1236 13.8317 65.9108C13.5125 65.698 13.5125 65.4852 13.8317 65.2724C14.1509 65.0596 14.6829 65.0596 14.8956 65.2724Z" fill="#16110D"/>
<path d="M17.1302 64.4212C17.5416 64.4212 17.8752 64.2307 17.8752 63.9956C17.8752 63.7606 17.5416 63.5701 17.1302 63.5701C16.7189 63.5701 16.3853 63.7606 16.3853 63.9956C16.3853 64.2307 16.7189 64.4212 17.1302 64.4212Z" fill="#16110D"/>
<path d="M20.3219 62.0805C20.6411 62.2933 20.6411 62.5061 20.3219 62.7189C20.0027 62.9317 19.5771 62.9317 19.2579 62.7189C18.9388 62.5061 18.9388 62.2933 19.2579 62.0805C19.5771 61.9741 20.0027 61.9741 20.3219 62.0805Z" fill="#16110D"/>
<path d="M22.9816 60.591C23.3008 60.8038 23.3008 61.0166 22.9816 61.2293C22.6624 61.4421 22.2368 61.4421 21.9176 61.2293C21.5984 61.0166 21.5984 60.8038 21.9176 60.591C22.2368 60.3782 22.6624 60.3782 22.9816 60.591Z" fill="#16110D"/>
<path d="M25.6417 58.9951C25.9609 59.2079 25.9609 59.4206 25.6417 59.6334C25.3226 59.8462 24.897 59.8462 24.5778 59.6334C24.2586 59.4206 24.2586 59.2079 24.5778 58.9951C24.897 58.8887 25.4289 58.8887 25.6417 58.9951Z" fill="#16110D"/>
<path d="M28.4079 57.5053C28.727 57.7181 28.727 57.9309 28.4079 58.1437C28.0887 58.3565 27.6631 58.3565 27.3439 58.1437C27.0247 57.9309 27.0247 57.7181 27.3439 57.5053C27.6631 57.2925 28.0887 57.2925 28.4079 57.5053Z" fill="#16110D"/>
<path d="M31.068 55.9094C31.3872 56.1221 31.3872 56.3349 31.068 56.5477C30.7488 56.7605 30.3232 56.7605 30.004 56.5477C29.6849 56.3349 29.6849 56.1221 30.004 55.9094C30.3232 55.6966 30.7488 55.6966 31.068 55.9094Z" fill="#16110D"/>
<path d="M33.3026 55.0582C33.7139 55.0582 34.0471 54.8677 34.0471 54.6326C34.0471 54.3976 33.7139 54.207 33.3026 54.207C32.8913 54.207 32.5576 54.3976 32.5576 54.6326C32.5576 54.8677 32.8913 55.0582 33.3026 55.0582Z" fill="#16110D"/>
<path d="M35.9623 53.4622C36.3736 53.4622 36.7067 53.2717 36.7067 53.0367C36.7067 52.8016 36.3736 52.6111 35.9623 52.6111C35.5509 52.6111 35.2173 52.8016 35.2173 53.0367C35.2173 53.2717 35.5509 53.4622 35.9623 53.4622Z" fill="#16110D"/>
<path d="M39.1539 51.228C39.4731 51.4408 39.4731 51.6536 39.1539 51.8664C38.8348 52.0792 38.4092 52.0792 38.09 51.8664C37.7708 51.6536 37.7708 51.4408 38.09 51.228C38.4092 51.1216 38.8348 51.1216 39.1539 51.228Z" fill="#16110D"/>
<path d="M41.8141 49.6318C42.1333 49.8446 42.1333 50.0574 41.8141 50.2702C41.4949 50.483 41.0693 50.483 40.7501 50.2702C40.4309 50.0574 40.4309 49.8446 40.7501 49.6318C41.0693 49.5254 41.6013 49.5254 41.8141 49.6318Z" fill="#16110D"/>
<path d="M44.5802 48.1423C44.8994 48.3551 44.8994 48.5679 44.5802 48.7806C44.261 48.9934 43.8354 48.9934 43.5162 48.7806C43.1971 48.5679 43.1971 48.3551 43.5162 48.1423C43.8354 47.9295 44.261 47.9295 44.5802 48.1423Z" fill="#16110D"/>
<path d="M47.2399 46.5466C47.5591 46.7594 47.5591 46.9722 47.2399 47.185C46.9207 47.3978 46.4951 47.3978 46.1759 47.185C45.8567 46.9722 45.8567 46.7594 46.1759 46.5466C46.4951 46.4402 46.9207 46.4402 47.2399 46.5466Z" fill="#16110D"/>
<path d="M4.14907 68.3578C4.46826 68.5706 4.46826 68.7834 4.14907 68.9962C3.82987 69.209 3.40429 69.209 3.0851 68.9962C2.76591 68.7834 2.76591 68.5706 3.0851 68.3578C3.40429 68.145 3.82987 68.145 4.14907 68.3578Z" fill="#16110D"/>
<path d="M6.80922 66.7619C7.12841 66.9747 7.12841 67.1875 6.80922 67.4003C6.49003 67.6131 6.06444 67.6131 5.74525 67.4003C5.42606 67.1875 5.42606 66.9747 5.74525 66.7619C6.06444 66.6555 6.49003 66.6555 6.80922 66.7619Z" fill="#16110D"/>
<path d="M9.04378 65.9105C9.45511 65.9105 9.78877 65.72 9.78877 65.4849C9.78877 65.2499 9.45511 65.0593 9.04378 65.0593C8.63245 65.0593 8.29932 65.2499 8.29932 65.4849C8.29932 65.72 8.63245 65.9105 9.04378 65.9105Z" fill="#16110D"/>
<path d="M12.2355 63.6762C12.5547 63.889 12.5547 64.1018 12.2355 64.3146C11.9163 64.5274 11.4907 64.5274 11.1715 64.3146C10.8523 64.1018 10.8523 63.889 11.1715 63.6762C11.4907 63.4634 11.9163 63.4634 12.2355 63.6762Z" fill="#16110D"/>
<path d="M14.3636 62.8253C14.7749 62.8253 15.1086 62.6347 15.1086 62.3997C15.1086 62.1647 14.7749 61.9741 14.3636 61.9741C13.9523 61.9741 13.6191 62.1647 13.6191 62.3997C13.6191 62.6347 13.9523 62.8253 14.3636 62.8253Z" fill="#16110D"/>
<path d="M17.5553 60.591C17.8745 60.8038 17.8745 61.0166 17.5553 61.2293C17.2361 61.4421 16.8105 61.4421 16.4913 61.2293C16.1722 61.0166 16.1722 60.8038 16.4913 60.591C16.8105 60.3782 17.3425 60.3782 17.5553 60.591Z" fill="#16110D"/>
<path d="M20.3219 58.995C20.6411 59.2078 20.6411 59.4206 20.3219 59.6334C20.0027 59.8462 19.5771 59.8462 19.2579 59.6334C18.9388 59.4206 18.9388 59.2078 19.2579 58.995C19.5771 58.7823 20.0027 58.7823 20.3219 58.995Z" fill="#16110D"/>
<path d="M22.9816 57.3989C23.3008 57.6117 23.3008 57.8245 22.9816 58.0372C22.6624 58.25 22.2368 58.25 21.9176 58.0372C21.5984 57.8245 21.5984 57.6117 21.9176 57.3989C22.2368 57.2925 22.6624 57.2925 22.9816 57.3989Z" fill="#16110D"/>
<path d="M25.6417 55.9094C25.9609 56.1221 25.9609 56.3349 25.6417 56.5477C25.3226 56.7605 24.897 56.7605 24.5778 56.5477C24.2586 56.3349 24.2586 56.1221 24.5778 55.9094C24.897 55.6966 25.4289 55.6966 25.6417 55.9094Z" fill="#16110D"/>
<path d="M28.4079 54.3134C28.727 54.5262 28.727 54.739 28.4079 54.9518C28.0887 55.1646 27.6631 55.1646 27.3439 54.9518C27.0247 54.739 27.0247 54.5262 27.3439 54.3134C27.6631 54.207 28.0887 54.207 28.4079 54.3134Z" fill="#16110D"/>
<path d="M30.536 53.4622C30.9473 53.4622 31.2805 53.2717 31.2805 53.0367C31.2805 52.8016 30.9473 52.6111 30.536 52.6111C30.1247 52.6111 29.791 52.8016 29.791 53.0367C29.791 53.2717 30.1247 53.4622 30.536 53.4622Z" fill="#16110D"/>
<path d="M33.1957 51.9728C33.607 51.9728 33.9401 51.7822 33.9401 51.5472C33.9401 51.3122 33.607 51.1216 33.1957 51.1216C32.7843 51.1216 32.4507 51.3122 32.4507 51.5472C32.4507 51.7822 32.7843 51.9728 33.1957 51.9728Z" fill="#16110D"/>
<path d="M35.9623 50.3768C36.3736 50.3768 36.7067 50.1863 36.7067 49.9512C36.7067 49.7162 36.3736 49.5256 35.9623 49.5256C35.5509 49.5256 35.2173 49.7162 35.2173 49.9512C35.2173 50.1863 35.5509 50.3768 35.9623 50.3768Z" fill="#16110D"/>
<path d="M39.1539 48.1423C39.4731 48.3551 39.4731 48.5679 39.1539 48.7806C38.8348 48.9934 38.4092 48.9934 38.09 48.7806C37.7708 48.5679 37.7708 48.3551 38.09 48.1423C38.4092 47.9295 38.8348 47.9295 39.1539 48.1423Z" fill="#16110D"/>
<path d="M41.8141 46.5466C42.1333 46.7594 42.1333 46.9722 41.8141 47.185C41.4949 47.3978 41.0693 47.3978 40.7501 47.185C40.4309 46.9722 40.4309 46.7594 40.7501 46.5466C41.0693 46.4402 41.4949 46.4402 41.8141 46.5466Z" fill="#16110D"/>
<path d="M44.4738 44.9506C44.793 45.1634 44.793 45.3762 44.4738 45.589C44.1546 45.8018 43.729 45.8018 43.4098 45.589C43.0906 45.3762 43.0906 45.1634 43.4098 44.9506C43.729 44.8443 44.261 44.8443 44.4738 44.9506Z" fill="#16110D"/>
<path d="M4.14907 65.166C4.46826 65.3788 4.46826 65.5916 4.14907 65.8044C3.82987 66.0172 3.40429 66.0172 3.0851 65.8044C2.76591 65.5916 2.76591 65.3788 3.0851 65.166C3.40429 65.0596 3.82987 65.0596 4.14907 65.166Z" fill="#16110D"/>
<path d="M6.80922 63.6762C7.12841 63.889 7.12841 64.1018 6.80922 64.3146C6.49003 64.5274 6.06444 64.5274 5.74525 64.3146C5.42606 64.1018 5.42606 63.889 5.74525 63.6762C6.06444 63.4634 6.49003 63.4634 6.80922 63.6762Z" fill="#16110D"/>
<path d="M17.5553 57.3989C17.8745 57.6117 17.8745 57.8245 17.5553 58.0373C17.2361 58.2501 16.8105 58.2501 16.4914 58.0373C16.2786 57.8245 17.3425 57.2925 17.5553 57.3989Z" fill="#16110D"/>
<path d="M19.7899 56.6541C20.2012 56.6541 20.5349 56.4636 20.5349 56.2286C20.5349 55.9935 20.2012 55.803 19.7899 55.803C19.3786 55.803 19.0449 55.9935 19.0449 56.2286C19.0449 56.4636 19.3786 56.6541 19.7899 56.6541Z" fill="#16110D"/>
<path d="M22.9816 54.3134C23.3008 54.5262 23.3008 54.739 22.9816 54.9518C22.6624 55.1646 22.2368 55.1646 21.9176 54.9518C21.5984 54.739 21.5984 54.5262 21.9176 54.3134C22.2368 54.207 22.6624 54.207 22.9816 54.3134Z" fill="#16110D"/>
<path d="M25.6417 52.8239C25.9609 53.0367 25.9609 53.2495 25.6417 53.4623C25.3226 53.6751 24.897 53.6751 24.5778 53.4623C24.2586 53.2495 24.2586 53.0367 24.5778 52.8239C24.897 52.6111 25.4289 52.6111 25.6417 52.8239Z" fill="#16110D"/>
<path d="M28.4079 51.228C28.727 51.4407 28.727 51.6535 28.4079 51.8663C28.0887 52.0791 27.6631 52.0791 27.3439 51.8663C27.0247 51.6535 27.0247 51.4407 27.3439 51.228C27.6631 51.0152 28.0887 51.0152 28.4079 51.228Z" fill="#16110D"/>
<path d="M31.068 49.6318C31.3872 49.8446 31.3872 50.0574 31.068 50.2702C30.7488 50.483 30.3232 50.483 30.004 50.2702C29.6849 50.0574 29.6849 49.8446 30.004 49.6318C30.3232 49.5254 30.7488 49.5254 31.068 49.6318Z" fill="#16110D"/>
<path d="M33.7282 48.1423C34.0474 48.3551 34.0474 48.5679 33.7282 48.7806C33.409 48.9934 32.9834 48.9934 32.6642 48.7806C32.345 48.5679 32.345 48.3551 32.6642 48.1423C32.9834 47.9295 33.409 47.9295 33.7282 48.1423Z" fill="#16110D"/>
<path d="M35.9623 47.2911C36.3736 47.2911 36.7067 47.1006 36.7067 46.8655C36.7067 46.6305 36.3736 46.4399 35.9623 46.4399C35.5509 46.4399 35.2173 46.6305 35.2173 46.8655C35.2173 47.1006 35.5509 47.2911 35.9623 47.2911Z" fill="#16110D"/>
<path d="M39.1539 44.9506C39.4731 45.1634 39.4731 45.3762 39.1539 45.589C38.8348 45.8018 38.4092 45.8018 38.09 45.589C37.7708 45.3762 37.7708 45.1634 38.09 44.9506C38.4092 44.8443 38.8348 44.8443 39.1539 44.9506Z" fill="#16110D"/>
<path d="M41.2821 44.2057C41.6934 44.2057 42.0266 44.0151 42.0266 43.7801C42.0266 43.545 41.6934 43.3545 41.2821 43.3545C40.8708 43.3545 40.5371 43.545 40.5371 43.7801C40.5371 44.0151 40.8708 44.2057 41.2821 44.2057Z" fill="#16110D"/>
<path d="M22.9816 51.228C23.3008 51.4407 23.3008 51.6535 22.9816 51.8663C22.6624 52.0791 22.2368 52.0791 21.9176 51.8663C21.5984 51.6535 21.5984 51.4407 21.9176 51.228C22.2368 51.0152 22.6624 51.0152 22.9816 51.228Z" fill="#16110D"/>
<path d="M25.1097 50.3768C25.5211 50.3768 25.8547 50.1863 25.8547 49.9512C25.8547 49.7162 25.5211 49.5256 25.1097 49.5256C24.6984 49.5256 24.3647 49.7162 24.3647 49.9512C24.3647 50.1863 24.6984 50.3768 25.1097 50.3768Z" fill="#16110D"/>
<path d="M28.4079 48.1423C28.727 48.3551 28.727 48.5679 28.4079 48.7806C28.0887 48.9934 27.6631 48.9934 27.3439 48.7806C27.0247 48.5679 27.0247 48.3551 27.3439 48.1423C27.6631 47.9295 28.0887 47.9295 28.4079 48.1423Z" fill="#16110D"/>
<path d="M30.536 47.2911C30.9473 47.2911 31.2805 47.1006 31.2805 46.8655C31.2805 46.6305 30.9473 46.4399 30.536 46.4399C30.1247 46.4399 29.791 46.6305 29.791 46.8655C29.791 47.1006 30.1247 47.2911 30.536 47.2911Z" fill="#16110D"/>
<path d="M33.1957 45.6952C33.607 45.6952 33.9401 45.5046 33.9401 45.2696C33.9401 45.0345 33.607 44.844 33.1957 44.844C32.7843 44.844 32.4507 45.0345 32.4507 45.2696C32.4507 45.5046 32.7843 45.6952 33.1957 45.6952Z" fill="#16110D"/>
<path d="M36.3878 43.4611C36.707 43.6739 36.707 43.8867 36.3878 44.0995C36.0686 44.3123 35.6431 44.3123 35.3239 44.0995C35.0047 43.8867 35.0047 43.6739 35.3239 43.4611C35.6431 43.2483 36.175 43.2483 36.3878 43.4611Z" fill="#16110D"/>
<path d="M39.1539 41.865C39.4731 42.0777 39.4731 42.2905 39.1539 42.5033C38.8348 42.7161 38.4092 42.7161 38.09 42.5033C37.7708 42.2905 37.7708 42.0777 38.09 41.865C38.4092 41.7586 38.8348 41.7586 39.1539 41.865Z" fill="#16110D"/>
<path d="M17.0233 51.9728C17.4346 51.9728 17.7683 51.7822 17.7683 51.5472C17.7683 51.3122 17.4346 51.1216 17.0233 51.1216C16.6119 51.1216 16.2788 51.3122 16.2788 51.5472C16.2788 51.7822 16.6119 51.9728 17.0233 51.9728Z" fill="#16110D"/>
<path d="M20.3219 49.6318C20.6411 49.8446 20.6411 50.0574 20.3219 50.2702C20.0027 50.483 19.5771 50.483 19.2579 50.2702C18.9388 50.0574 18.9388 49.8446 19.2579 49.6318C19.5771 49.5254 20.0027 49.5254 20.3219 49.6318Z" fill="#16110D"/>
<path d="M22.9816 48.1423C23.3008 48.3551 23.3008 48.5679 22.9816 48.7806C22.6624 48.9934 22.2368 48.9934 21.9176 48.7806C21.5984 48.5679 21.5984 48.3551 21.9176 48.1423C22.2368 47.9295 22.6624 47.9295 22.9816 48.1423Z" fill="#16110D"/>
<path d="M25.6417 46.5466C25.9609 46.7594 25.9609 46.9722 25.6417 47.185C25.3226 47.3978 24.897 47.3978 24.5778 47.185C24.2586 46.9722 24.2586 46.7594 24.5778 46.5466C24.897 46.4402 25.4289 46.4402 25.6417 46.5466Z" fill="#16110D"/>
<path d="M28.4079 44.9506C28.727 45.1634 28.727 45.3762 28.4079 45.589C28.0887 45.8018 27.6631 45.8018 27.3439 45.589C27.0247 45.3762 27.0247 45.1634 27.3439 44.9506C27.6631 44.8443 28.0887 44.8443 28.4079 44.9506Z" fill="#16110D"/>
<path d="M30.536 44.2057C30.9473 44.2057 31.2805 44.0151 31.2805 43.7801C31.2805 43.545 30.9473 43.3545 30.536 43.3545C30.1247 43.3545 29.791 43.545 29.791 43.7801C29.791 44.0151 30.1247 44.2057 30.536 44.2057Z" fill="#16110D"/>
<path d="M33.1957 42.61C33.607 42.61 33.9401 42.4194 33.9401 42.1844C33.9401 41.9493 33.607 41.7588 33.1957 41.7588C32.7843 41.7588 32.4507 41.9493 32.4507 42.1844C32.4507 42.4194 32.7843 42.61 33.1957 42.61Z" fill="#16110D"/>
<path d="M35.9623 41.0138C36.3736 41.0138 36.7067 40.8232 36.7067 40.5882C36.7067 40.3531 36.3736 40.1626 35.9623 40.1626C35.5509 40.1626 35.2173 40.3531 35.2173 40.5882C35.2173 40.8232 35.5509 41.0138 35.9623 41.0138Z" fill="#16110D"/>
<path d="M36.3878 37.5026C36.707 37.7154 36.707 37.9282 36.3878 38.141C36.0686 38.3538 35.6431 38.3538 35.3239 38.141C35.0047 37.9282 35.0047 37.7154 35.3239 37.5026C35.6431 37.2898 36.0686 37.2898 36.3878 37.5026Z" fill="#16110D"/>
<path d="M39.048 35.9067C39.3672 36.1195 39.3672 36.3323 39.048 36.5451C38.7288 36.7579 38.3032 36.7579 37.984 36.5451C37.6648 36.3323 37.6648 36.1195 37.984 35.9067C38.3032 35.8003 38.7288 35.8003 39.048 35.9067Z" fill="#16110D"/>
<path d="M41.1757 35.0555C41.587 35.0555 41.9201 34.865 41.9201 34.6299C41.9201 34.3949 41.587 34.2043 41.1757 34.2043C40.7643 34.2043 40.4307 34.3949 40.4307 34.6299C40.4307 34.865 40.7643 35.0555 41.1757 35.0555Z" fill="#16110D"/>
<path d="M43.9423 33.566C44.3536 33.566 44.6867 33.3755 44.6867 33.1404C44.6867 32.9054 44.3536 32.7148 43.9423 32.7148C43.5309 32.7148 43.1973 32.9054 43.1973 33.1404C43.1973 33.3755 43.5309 33.566 43.9423 33.566Z" fill="#16110D"/>
<path d="M46.6024 31.9701C47.0137 31.9701 47.3469 31.7795 47.3469 31.5445C47.3469 31.3094 47.0137 31.1189 46.6024 31.1189C46.1911 31.1189 45.8574 31.3094 45.8574 31.5445C45.8574 31.7795 46.1911 31.9701 46.6024 31.9701Z" fill="#16110D"/>
<path d="M49.7941 29.7358C50.1133 29.9486 50.1133 30.1614 49.7941 30.3742C49.4749 30.5869 49.0493 30.5869 48.7301 30.3742C48.4109 30.1614 48.4109 29.9486 48.7301 29.7358C49.0493 29.523 49.5813 29.523 49.7941 29.7358Z" fill="#16110D"/>
<path d="M52.5597 28.1399C52.8789 28.3527 52.8789 28.5655 52.5597 28.7782C52.2405 28.991 51.8149 28.991 51.4957 28.7782C51.1765 28.5655 51.1765 28.3527 51.4957 28.1399C51.8149 28.0335 52.2405 28.0335 52.5597 28.1399Z" fill="#16110D"/>
<path d="M55.2194 26.6501C55.5386 26.8629 55.5386 27.0757 55.2194 27.2884C54.9002 27.5012 54.4746 27.5012 54.1554 27.2884C53.8362 27.0757 53.8362 26.8629 54.1554 26.6501C54.4746 26.4373 54.9002 26.4373 55.2194 26.6501Z" fill="#16110D"/>
<path d="M57.3475 25.7989C57.7588 25.7989 58.0925 25.6084 58.0925 25.3734C58.0925 25.1383 57.7588 24.9478 57.3475 24.9478C56.9362 24.9478 56.603 25.1383 56.603 25.3734C56.603 25.6084 56.9362 25.7989 57.3475 25.7989Z" fill="#16110D"/>
<path d="M60.1141 24.2032C60.5254 24.2032 60.8591 24.0127 60.8591 23.7776C60.8591 23.5426 60.5254 23.3521 60.1141 23.3521C59.7028 23.3521 59.3696 23.5426 59.3696 23.7776C59.3696 24.0127 59.7028 24.2032 60.1141 24.2032Z" fill="#16110D"/>
<path d="M63.3063 21.9689C63.6255 22.1817 63.6255 22.3945 63.3063 22.6073C62.9871 22.8201 62.5615 22.8201 62.2423 22.6073C61.9231 22.3945 61.9231 22.1817 62.2423 21.9689C62.5615 21.7561 62.9871 21.7561 63.3063 21.9689Z" fill="#16110D"/>
<path d="M65.966 20.3728C66.2852 20.5856 66.2852 20.7984 65.966 21.0112C65.6468 21.2239 65.2212 21.2239 64.902 21.0112C64.5828 20.7984 64.5828 20.5856 64.902 20.3728C65.2212 20.2664 65.6468 20.2664 65.966 20.3728Z" fill="#16110D"/>
<path d="M32.6642 35.9067C32.9834 35.6939 33.409 35.6939 33.7282 35.9067C34.0474 36.1195 34.0474 36.3323 33.7282 36.5451C33.409 36.7578 32.9834 36.7578 32.6642 36.5451C32.345 36.3323 32.345 36.1195 32.6642 35.9067Z" fill="#16110D"/>
<path d="M36.3878 34.4172C36.707 34.63 36.707 34.8427 36.3878 35.0555C36.0686 35.2683 35.6431 35.2683 35.3239 35.0555C35.0047 34.8427 35.0047 34.63 35.3239 34.4172C35.6431 34.2044 36.0686 34.2044 36.3878 34.4172Z" fill="#16110D"/>
<path d="M39.048 32.8212C39.3672 33.034 39.3672 33.2468 39.048 33.4596C38.7288 33.6724 38.3032 33.6724 37.984 33.4596C37.6648 33.2468 37.6648 33.034 37.984 32.8212C38.3032 32.6084 38.7288 32.6084 39.048 32.8212Z" fill="#16110D"/>
<path d="M41.1757 31.9701C41.587 31.9701 41.9201 31.7795 41.9201 31.5445C41.9201 31.3094 41.587 31.1189 41.1757 31.1189C40.7643 31.1189 40.4307 31.3094 40.4307 31.5445C40.4307 31.7795 40.7643 31.9701 41.1757 31.9701Z" fill="#16110D"/>
<path d="M43.9423 30.4803C44.3536 30.4803 44.6867 30.2898 44.6867 30.0547C44.6867 29.8197 44.3536 29.6292 43.9423 29.6292C43.5309 29.6292 43.1973 29.8197 43.1973 30.0547C43.1973 30.2898 43.5309 30.4803 43.9423 30.4803Z" fill="#16110D"/>
<path d="M47.1339 28.1399C47.4531 28.3527 47.4531 28.5655 47.1339 28.7782C46.8147 28.991 46.3892 28.991 46.07 28.7782C45.7508 28.5655 45.7508 28.3527 46.07 28.1399C46.3892 28.0335 46.8147 28.0335 47.1339 28.1399Z" fill="#16110D"/>
<path d="M49.7941 26.6501C50.1133 26.8629 50.1133 27.0757 49.7941 27.2884C49.4749 27.5012 49.0493 27.5012 48.7301 27.2884C48.4109 27.0757 48.4109 26.8629 48.7301 26.6501C49.0493 26.4373 49.5813 26.4373 49.7941 26.6501Z" fill="#16110D"/>
<path d="M52.5597 25.0544C52.8789 25.2672 52.8789 25.4799 52.5597 25.6927C52.2405 25.9055 51.8149 25.9055 51.4957 25.6927C51.1765 25.4799 51.1765 25.2672 51.4957 25.0544C51.8149 24.8416 52.2405 24.8416 52.5597 25.0544Z" fill="#16110D"/>
<path d="M55.2194 23.4582C55.5386 23.671 55.5386 23.8838 55.2194 24.0966C54.9002 24.3094 54.4746 24.3094 54.1554 24.0966C53.8362 23.8838 53.8362 23.671 54.1554 23.4582C54.4746 23.3518 54.9002 23.3518 55.2194 23.4582Z" fill="#16110D"/>
<path d="M57.8795 21.9689C58.1987 22.1817 58.1987 22.3945 57.8795 22.6073C57.5603 22.8201 57.1348 22.8201 56.8156 22.6073C56.4964 22.3945 56.4964 22.1817 56.8156 21.9689C57.1348 21.7561 57.6667 21.7561 57.8795 21.9689Z" fill="#16110D"/>
<path d="M60.1141 21.1178C60.5254 21.1178 60.8591 20.9272 60.8591 20.6922C60.8591 20.4571 60.5254 20.2666 60.1141 20.2666C59.7028 20.2666 59.3696 20.4571 59.3696 20.6922C59.3696 20.9272 59.7028 21.1178 60.1141 21.1178Z" fill="#16110D"/>
<path d="M63.3063 18.7768C63.6255 18.9896 63.6255 19.2024 63.3063 19.4152C62.9871 19.628 62.5615 19.628 62.2423 19.4152C61.9231 19.2024 61.9231 18.9896 62.2423 18.7768C62.5615 18.6704 62.9871 18.6704 63.3063 18.7768Z" fill="#16110D"/>
<path d="M29.8979 34.4172C30.2171 34.2044 30.6427 34.2044 30.9618 34.4172C31.281 34.63 31.281 34.8427 30.9618 35.0555C30.6427 35.2683 30.2171 35.2683 29.8979 35.0555C29.6851 34.8427 29.6851 34.5236 29.8979 34.4172Z" fill="#16110D"/>
<path d="M33.6217 32.8212C33.9409 33.034 33.9409 33.2468 33.6217 33.4596C33.3025 33.6724 32.8769 33.6724 32.5578 33.4596C32.2386 33.2468 32.2386 33.034 32.5578 32.8212C32.8769 32.6084 33.4089 32.6084 33.6217 32.8212Z" fill="#16110D"/>
<path d="M36.3878 31.2251C36.707 31.4379 36.707 31.6506 36.3878 31.8634C36.0686 32.0762 35.6431 32.0762 35.3239 31.8634C35.0047 31.6506 35.0047 31.4379 35.3239 31.2251C35.6431 31.1187 36.0686 31.1187 36.3878 31.2251Z" fill="#16110D"/>
<path d="M39.048 29.7358C39.3672 29.9486 39.3672 30.1614 39.048 30.3742C38.7288 30.5869 38.3032 30.5869 37.984 30.3742C37.6648 30.1614 37.6648 29.9486 37.984 29.7358C38.3032 29.523 38.7288 29.523 39.048 29.7358Z" fill="#16110D"/>
<path d="M41.7077 28.1399C42.0268 28.3527 42.0268 28.5655 41.7077 28.7782C41.3885 28.991 40.9629 28.991 40.6437 28.7782C40.3245 28.5655 40.3245 28.3527 40.6437 28.1399C40.9629 28.0335 41.4949 28.0335 41.7077 28.1399Z" fill="#16110D"/>
<path d="M44.4738 26.6501C44.793 26.8629 44.793 27.0757 44.4738 27.2884C44.1546 27.5012 43.729 27.5012 43.4098 27.2884C43.0906 27.0757 43.0906 26.8629 43.4098 26.6501C43.729 26.4373 44.1546 26.4373 44.4738 26.6501Z" fill="#16110D"/>
<path d="M47.1339 25.0544C47.4531 25.2672 47.4531 25.4799 47.1339 25.6927C46.8147 25.9055 46.3892 25.9055 46.07 25.6927C45.7508 25.4799 45.7508 25.2672 46.07 25.0544C46.3892 24.8416 46.8147 24.8416 47.1339 25.0544Z" fill="#16110D"/>
<path d="M49.7941 23.4582C50.1133 23.671 50.1133 23.8838 49.7941 24.0966C49.4749 24.3094 49.0493 24.3094 48.7301 24.0966C48.4109 23.8838 48.4109 23.671 48.7301 23.4582C49.0493 23.3518 49.5813 23.3518 49.7941 23.4582Z" fill="#16110D"/>
<path d="M52.5597 21.9689C52.8789 22.1817 52.8789 22.3945 52.5597 22.6073C52.2405 22.8201 51.8149 22.8201 51.4957 22.6073C51.1765 22.3945 51.1765 22.1817 51.4957 21.9689C51.8149 21.7561 52.2405 21.7561 52.5597 21.9689Z" fill="#16110D"/>
<path d="M54.6878 21.1178C55.0992 21.1178 55.4328 20.9272 55.4328 20.6922C55.4328 20.4571 55.0992 20.2666 54.6878 20.2666C54.2765 20.2666 53.9434 20.4571 53.9434 20.6922C53.9434 20.9272 54.2765 21.1178 54.6878 21.1178Z" fill="#16110D"/>
<path d="M57.3475 19.5216C57.7588 19.5216 58.0925 19.331 58.0925 19.096C58.0925 18.8609 57.7588 18.6704 57.3475 18.6704C56.9362 18.6704 56.603 18.8609 56.603 19.096C56.603 19.331 56.9362 19.5216 57.3475 19.5216Z" fill="#16110D"/>
<path d="M60.1141 18.0318C60.5254 18.0318 60.8591 17.8413 60.8591 17.6063C60.8591 17.3712 60.5254 17.1807 60.1141 17.1807C59.7028 17.1807 59.3696 17.3712 59.3696 17.6063C59.3696 17.8413 59.7028 18.0318 60.1141 18.0318Z" fill="#16110D"/>
<path d="M27.2374 32.8212C27.5566 32.6084 27.9822 32.6084 28.3014 32.8212C28.6206 33.034 28.6206 33.2468 28.3014 33.4596C27.9822 33.6724 27.5566 33.6724 27.2374 33.4596C26.9182 33.2468 26.9182 33.034 27.2374 32.8212Z" fill="#16110D"/>
<path d="M30.9611 31.2251C31.2803 31.4379 31.2803 31.6506 30.9611 31.8634C30.6419 32.0762 30.2163 32.0762 29.8971 31.8634C29.5779 31.6506 29.5779 31.4379 29.8971 31.2251C30.2163 31.1187 30.6419 31.1187 30.9611 31.2251Z" fill="#16110D"/>
<path d="M33.6217 29.7358C33.9409 29.9486 33.9409 30.1614 33.6217 30.3742C33.3025 30.5869 32.8769 30.5869 32.5578 30.3742C32.2386 30.1614 32.2386 29.9486 32.5578 29.7358C32.8769 29.523 33.4089 29.523 33.6217 29.7358Z" fill="#16110D"/>
<path d="M36.3878 28.1399C36.707 28.3527 36.707 28.5655 36.3878 28.7782C36.0686 28.991 35.6431 28.991 35.3239 28.7782C35.0047 28.5655 35.0047 28.3527 35.3239 28.1399C35.6431 28.0335 36.0686 28.0335 36.3878 28.1399Z" fill="#16110D"/>
<path d="M38.516 27.2884C38.9273 27.2884 39.2604 27.0979 39.2604 26.8628C39.2604 26.6278 38.9273 26.4373 38.516 26.4373C38.1047 26.4373 37.771 26.6278 37.771 26.8628C37.771 27.0979 38.1047 27.2884 38.516 27.2884Z" fill="#16110D"/>
<path d="M41.1757 25.7989C41.587 25.7989 41.9201 25.6084 41.9201 25.3734C41.9201 25.1383 41.587 24.9478 41.1757 24.9478C40.7643 24.9478 40.4307 25.1383 40.4307 25.3734C40.4307 25.6084 40.7643 25.7989 41.1757 25.7989Z" fill="#16110D"/>
<path d="M43.9423 24.2032C44.3536 24.2032 44.6867 24.0127 44.6867 23.7776C44.6867 23.5426 44.3536 23.3521 43.9423 23.3521C43.5309 23.3521 43.1973 23.5426 43.1973 23.7776C43.1973 24.0127 43.5309 24.2032 43.9423 24.2032Z" fill="#16110D"/>
<path d="M47.1339 21.9689C47.4531 22.1817 47.4531 22.3945 47.1339 22.6073C46.8147 22.8201 46.3892 22.8201 46.07 22.6073C45.7508 22.3945 45.7508 22.1817 46.07 21.9689C46.3892 21.7561 46.8147 21.7561 47.1339 21.9689Z" fill="#16110D"/>
<path d="M49.2621 21.1178C49.6734 21.1178 50.0065 20.9272 50.0065 20.6922C50.0065 20.4571 49.6734 20.2666 49.2621 20.2666C48.8507 20.2666 48.5171 20.4571 48.5171 20.6922C48.5171 20.9272 48.8507 21.1178 49.2621 21.1178Z" fill="#16110D"/>
<path d="M52.5597 18.883C52.8789 19.0958 52.8789 19.3086 52.5597 19.5214C52.2405 19.7342 51.8149 19.7342 51.4957 19.5214C51.1765 19.3086 51.1765 19.0958 51.4957 18.883C51.8149 18.6702 52.2405 18.6702 52.5597 18.883Z" fill="#16110D"/>
<path d="M55.2194 17.2873C55.5386 17.5001 55.5386 17.7129 55.2194 17.9257C54.9002 18.1385 54.4746 18.1385 54.1554 17.9257C53.8362 17.7129 53.8362 17.5001 54.1554 17.2873C54.4746 17.0745 54.9002 17.0745 55.2194 17.2873Z" fill="#16110D"/>
<path d="M57.8795 15.6914C58.1987 15.9042 58.1987 16.117 57.8795 16.3298C57.5603 16.5426 57.1348 16.5426 56.8156 16.3298C56.4964 16.117 56.4964 15.9042 56.8156 15.6914C57.1348 15.585 57.6667 15.585 57.8795 15.6914Z" fill="#16110D"/>
<path d="M24.5778 31.2255C24.897 31.0127 25.3226 31.0127 25.6417 31.2255C25.9609 31.4383 25.9609 31.6511 25.6417 31.8639C25.3226 32.0767 24.897 32.0767 24.5778 31.8639C24.2586 31.6511 24.2586 31.4383 24.5778 31.2255Z" fill="#16110D"/>
<path d="M27.7694 30.4806C28.1807 30.4806 28.5144 30.29 28.5144 30.055C28.5144 29.8199 28.1807 29.6294 27.7694 29.6294C27.3581 29.6294 27.0244 29.8199 27.0244 30.055C27.0244 30.29 27.3581 30.4806 27.7694 30.4806Z" fill="#16110D"/>
<path d="M30.9611 28.1399C31.2803 28.3527 31.2803 28.5655 30.9611 28.7782C30.6419 28.991 30.2163 28.991 29.8971 28.7782C29.5779 28.5655 29.5779 28.3527 29.8971 28.1399C30.2163 28.0335 30.6419 28.0335 30.9611 28.1399Z" fill="#16110D"/>
<path d="M33.1957 27.2884C33.607 27.2884 33.9401 27.0979 33.9401 26.8628C33.9401 26.6278 33.607 26.4373 33.1957 26.4373C32.7843 26.4373 32.4507 26.6278 32.4507 26.8628C32.4507 27.0979 32.7843 27.2884 33.1957 27.2884Z" fill="#16110D"/>
<path d="M36.3878 25.0544C36.707 25.2672 36.707 25.4799 36.3878 25.6927C36.0686 25.9055 35.6431 25.9055 35.3239 25.6927C35.0047 25.4799 35.0047 25.2672 35.3239 25.0544C35.6431 24.8416 36.0686 24.8416 36.3878 25.0544Z" fill="#16110D"/>
<path d="M39.048 23.4582C39.3672 23.671 39.3672 23.8838 39.048 24.0966C38.7288 24.3094 38.3032 24.3094 37.984 24.0966C37.6648 23.8838 37.6648 23.671 37.984 23.4582C38.3032 23.3518 38.7288 23.3518 39.048 23.4582Z" fill="#16110D"/>
<path d="M41.7077 21.9689C42.0268 22.1817 42.0268 22.3945 41.7077 22.6073C41.3885 22.8201 40.9629 22.8201 40.6437 22.6073C40.3245 22.3945 40.3245 22.1817 40.6437 21.9689C40.9629 21.7561 41.4949 21.7561 41.7077 21.9689Z" fill="#16110D"/>
<path d="M43.9423 21.1178C44.3536 21.1178 44.6867 20.9272 44.6867 20.6922C44.6867 20.4571 44.3536 20.2666 43.9423 20.2666C43.5309 20.2666 43.1973 20.4571 43.1973 20.6922C43.1973 20.9272 43.5309 21.1178 43.9423 21.1178Z" fill="#16110D"/>
<path d="M47.1339 18.883C47.4531 19.0958 47.4531 19.3086 47.1339 19.5214C46.8147 19.7342 46.3892 19.7342 46.07 19.5214C45.7508 19.3086 45.7508 19.0958 46.07 18.883C46.3892 18.6702 46.8147 18.6702 47.1339 18.883Z" fill="#16110D"/>
<path d="M49.2621 18.0318C49.6734 18.0318 50.0065 17.8413 50.0065 17.6063C50.0065 17.3712 49.6734 17.1807 49.2621 17.1807C48.8507 17.1807 48.5171 17.3712 48.5171 17.6063C48.5171 17.8413 48.8507 18.0318 49.2621 18.0318Z" fill="#16110D"/>
<path d="M52.5597 15.6914C52.8789 15.9042 52.8789 16.117 52.5597 16.3298C52.2405 16.5426 51.8149 16.5426 51.4957 16.3298C51.1765 16.117 51.1765 15.9042 51.4957 15.6914C51.8149 15.585 52.2405 15.585 52.5597 15.6914Z" fill="#16110D"/>
<path d="M55.2194 14.2018C55.5386 14.4146 55.5386 14.6274 55.2194 14.8402C54.9002 15.053 54.4746 15.053 54.1554 14.8402C53.8362 14.6274 53.8362 14.4146 54.1554 14.2018C54.4746 13.989 54.9002 13.989 55.2194 14.2018C55.5386 14.3082 54.9002 13.989 55.2194 14.2018Z" fill="#16110D"/>
<path d="M22.8753 29.7357C23.1945 29.9485 23.1945 30.1613 22.8753 30.3741C22.5561 30.5869 22.1305 30.5869 21.8113 30.3741C21.5985 30.1613 22.5561 29.5229 22.8753 29.7357Z" fill="#16110D"/>
<path d="M24.5778 28.1401C24.897 27.9273 25.3226 27.9273 25.6417 28.1401C25.9609 28.3529 25.9609 28.5657 25.6417 28.7785C25.3226 28.9912 24.897 28.9912 24.5778 28.7785C24.2586 28.5657 24.2586 28.3529 24.5778 28.1401C24.7906 27.9273 24.2586 28.3529 24.5778 28.1401Z" fill="#16110D"/>
<path d="M27.2374 26.5439C27.5566 26.3311 27.9822 26.3311 28.3014 26.5439C28.6206 26.7567 28.6206 26.9695 28.3014 27.1823C27.9822 27.3951 27.5566 27.3951 27.2374 27.1823C26.9182 26.9695 26.9182 26.7567 27.2374 26.5439C27.5566 26.4375 26.9182 26.7567 27.2374 26.5439Z" fill="#16110D"/>
<path d="M30.9611 25.0541C31.2803 25.2669 31.2803 25.4797 30.9611 25.6925C30.6419 25.9053 30.2163 25.9053 29.8971 25.6925C29.5779 25.4797 29.5779 25.2669 29.8971 25.0541C30.2163 24.8413 30.6419 24.8413 30.9611 25.0541Z" fill="#16110D"/>
<path d="M33.6217 23.4582C33.9409 23.671 33.9409 23.8838 33.6217 24.0966C33.3025 24.3094 32.8769 24.3094 32.5578 24.0966C32.2386 23.8838 32.2386 23.671 32.5578 23.4582C32.8769 23.3518 33.3025 23.3518 33.6217 23.4582Z" fill="#16110D"/>
<path d="M36.2814 21.9689C36.6006 22.1817 36.6006 22.3945 36.2814 22.6073C35.9622 22.8201 35.5366 22.8201 35.2174 22.6073C34.8982 22.3945 34.8982 22.1817 35.2174 21.9689C35.5366 21.7561 36.0686 21.7561 36.2814 21.9689Z" fill="#16110D"/>
<path d="M39.048 20.3727C39.3672 20.5855 39.3672 20.7983 39.048 21.0111C38.7288 21.2239 38.3032 21.2239 37.984 21.0111C37.6648 20.7983 37.6648 20.5855 37.984 20.3727C38.3032 20.1599 38.7288 20.1599 39.048 20.3727Z" fill="#16110D"/>
<path d="M41.1757 19.5216C41.587 19.5216 41.9201 19.331 41.9201 19.096C41.9201 18.8609 41.587 18.6704 41.1757 18.6704C40.7643 18.6704 40.4307 18.8609 40.4307 19.096C40.4307 19.331 40.7643 19.5216 41.1757 19.5216Z" fill="#16110D"/>
<path d="M43.9423 18.0318C44.3536 18.0318 44.6867 17.8413 44.6867 17.6063C44.6867 17.3712 44.3536 17.1807 43.9423 17.1807C43.5309 17.1807 43.1973 17.3712 43.1973 17.6063C43.1973 17.8413 43.5309 18.0318 43.9423 18.0318Z" fill="#16110D"/>
<path d="M46.07 15.6911C46.3892 15.4783 46.8147 15.4783 47.1339 15.6911C47.4531 15.9039 47.4531 16.1167 47.1339 16.3295C46.8147 16.5423 46.3892 16.5423 46.07 16.3295C45.7508 16.1167 45.7508 15.9039 46.07 15.6911C46.3892 15.5847 45.7508 15.9039 46.07 15.6911Z" fill="#16110D"/>
<path d="M49.7937 14.2018C50.1129 14.4146 50.1129 14.6273 49.7937 14.8401C49.4745 15.0529 49.049 15.0529 48.7298 14.8401C48.517 14.6273 49.4745 13.989 49.7937 14.2018Z" fill="#16110D"/>
<path d="M46.1761 43.4611C46.4953 43.2483 46.9208 43.2483 47.24 43.4611C47.5592 43.6739 47.5592 43.8867 47.24 44.0995C46.9208 44.3123 46.4953 44.3123 46.1761 44.0995C45.8569 43.8867 45.9633 43.6739 46.1761 43.4611Z" fill="#16110D"/>
<path d="M43.5162 41.8649C43.8354 41.6521 44.261 41.6521 44.5802 41.8649C44.8994 42.0777 44.8994 42.2905 44.5802 42.5033C44.261 42.7161 43.8354 42.7161 43.5162 42.5033C43.1971 42.2905 43.1971 42.0777 43.5162 41.8649Z" fill="#16110D"/>
<path d="M47.2399 40.3757C47.5591 40.5885 47.5591 40.8013 47.2399 41.014C46.9207 41.2268 46.4951 41.2268 46.1759 41.014C45.8567 40.8013 45.8567 40.5885 46.1759 40.3757C46.4951 40.1629 46.9207 40.1629 47.2399 40.3757Z" fill="#16110D"/>
<path d="M40.8561 40.3757C41.1753 40.1629 41.6009 40.1629 41.9201 40.3757C42.2393 40.5885 42.2393 40.8013 41.9201 41.014C41.6009 41.2268 41.1753 41.2268 40.8561 41.014C40.5369 40.8013 40.5369 40.4821 40.8561 40.3757Z" fill="#16110D"/>
<path d="M44.5802 38.7795C44.8994 38.9923 44.8994 39.2051 44.5802 39.4179C44.261 39.6307 43.8354 39.6307 43.5162 39.4179C43.1971 39.2051 43.1971 38.9923 43.5162 38.7795C43.8354 38.6731 44.261 38.6731 44.5802 38.7795Z" fill="#16110D"/>
<path d="M47.2399 37.2897C47.5591 37.5025 47.5591 37.7153 47.2399 37.9281C46.9207 38.1409 46.4951 38.1409 46.1759 37.9281C45.8567 37.7153 45.8567 37.5025 46.1759 37.2897C46.4951 37.0769 46.9207 37.0769 47.2399 37.2897Z" fill="#16110D"/>
<path d="M38.0903 38.7795C38.4095 38.5667 38.835 38.5667 39.1542 38.7795C39.4734 38.9923 39.4734 39.2051 39.1542 39.4179C38.835 39.6307 38.4095 39.6307 38.0903 39.4179C37.8775 39.2051 37.8775 38.9923 38.0903 38.7795Z" fill="#16110D"/>
<path d="M41.8141 37.2897C42.1333 37.5025 42.1333 37.7153 41.8141 37.9281C41.4949 38.1409 41.0693 38.1409 40.7501 37.9281C40.4309 37.7153 40.4309 37.5025 40.7501 37.2897C41.0693 37.0769 41.6013 37.0769 41.8141 37.2897Z" fill="#16110D"/>
<path d="M44.5802 35.694C44.8994 35.9068 44.8994 36.1196 44.5802 36.3324C44.261 36.5452 43.8354 36.5452 43.5162 36.3324C43.1971 36.1196 43.1971 35.9068 43.5162 35.694C43.8354 35.4812 44.261 35.4812 44.5802 35.694Z" fill="#16110D"/>
<path d="M47.2399 34.0979C47.5591 34.3107 47.5591 34.5234 47.2399 34.7362C46.9207 34.949 46.4951 34.949 46.1759 34.7362C45.8567 34.5234 45.8567 34.3107 46.1759 34.0979C46.4951 33.9915 46.9207 33.9915 47.2399 34.0979Z" fill="#16110D"/>
<path d="M49.8996 33.1405C49.5804 33.3533 49.1548 33.3533 48.8356 33.1405C48.5164 32.9277 48.5164 32.7149 48.8356 32.5021C49.1548 32.2893 49.5804 32.2893 49.8996 32.5021C50.2187 32.7149 50.2187 33.0341 49.8996 33.1405C49.6868 33.3533 50.2187 33.0341 49.8996 33.1405Z" fill="#16110D"/>
<path d="M52.6662 31.0124C52.9853 31.2252 52.9853 31.438 52.6662 31.6508C52.347 31.8636 51.9214 31.8636 51.6022 31.6508C51.283 31.438 51.283 31.2252 51.6022 31.0124C51.9214 30.906 52.347 30.906 52.6662 31.0124Z" fill="#16110D"/>
<path d="M54.7943 30.1615C55.2056 30.1615 55.5393 29.9709 55.5393 29.7359C55.5393 29.5008 55.2056 29.3103 54.7943 29.3103C54.3829 29.3103 54.0498 29.5008 54.0498 29.7359C54.0498 29.9709 54.3829 30.1615 54.7943 30.1615Z" fill="#16110D"/>
<path d="M57.4539 28.6717C57.8653 28.6717 58.1989 28.4812 58.1989 28.2462C58.1989 28.0111 57.8653 27.8206 57.4539 27.8206C57.0426 27.8206 56.7095 28.0111 56.7095 28.2462C56.7095 28.4812 57.0426 28.6717 57.4539 28.6717Z" fill="#16110D"/>
<path d="M60.2206 27.0758C60.6319 27.0758 60.9656 26.8853 60.9656 26.6502C60.9656 26.4152 60.6319 26.2246 60.2206 26.2246C59.8092 26.2246 59.4756 26.4152 59.4756 26.6502C59.4756 26.8853 59.8092 27.0758 60.2206 27.0758Z" fill="#16110D"/>
<path d="M63.4127 24.8415C63.7319 25.0543 63.7319 25.2671 63.4127 25.4799C63.0935 25.6926 62.668 25.6926 62.3488 25.4799C62.0296 25.2671 62.0296 25.0543 62.3488 24.8415C62.668 24.6287 63.0935 24.6287 63.4127 24.8415Z" fill="#16110D"/>
<path d="M66.0724 23.2455C66.3916 23.4583 66.3916 23.6711 66.0724 23.8839C65.7532 24.0967 65.3276 24.0967 65.0084 23.8839C64.6892 23.6711 64.6892 23.4583 65.0084 23.2455C65.3276 23.0327 65.7532 23.0327 66.0724 23.2455Z" fill="#16110D"/>
<path d="M41.9209 16.5427V8.88208L52.2416 14.8403V22.5009L41.9209 16.5427Z" fill="#36A9E1"/>
<path d="M41.9209 8.88206L51.2841 3.45581L61.7108 9.41404L52.2416 14.8403L41.9209 8.88206Z" fill="#36A9E1"/>
<path d="M42.0273 11.4355L51.2841 6.00928L61.7108 11.9675L52.1351 17.181L42.0273 11.4355Z" fill="white"/>
<path d="M51.2839 2.92383L41.3887 8.56287V16.7554L52.1349 22.9265L62.0301 17.2874V9.09485L51.2839 2.92383ZM51.8159 21.7561L42.3467 16.3298V9.62684L51.8159 15.0531V21.7561ZM42.7721 8.88206L51.2839 3.9878L60.7531 9.41405L52.2414 14.3083L42.7721 8.88206Z" fill="#16110D"/>
<path d="M28.3018 24.5223V6.43481L38.6225 12.393V30.4805L28.3018 24.5223Z" fill="#36A9E1"/>
<path d="M28.3018 6.43479L37.771 1.00854L48.0917 6.96678L38.6225 12.393L28.3018 6.43479Z" fill="#36A9E1"/>
<path d="M28.5151 8.98825L37.7714 3.56201L48.0921 9.52023L38.6228 14.7337L28.5151 8.98825Z" fill="white"/>
<path d="M37.7712 0.476562L27.8765 6.1156V24.7351L38.6227 30.9061L48.5174 25.267V6.64759L37.7712 0.476562ZM38.1967 29.7357L28.7274 24.3095V7.17957L38.1967 12.6058V29.7357ZM29.2594 6.4348L37.7712 1.54053L47.2404 6.96678L38.7286 11.861L29.2594 6.4348Z" fill="#16110D"/>
<path d="M14.896 32.0764V21.3303L25.2167 27.2885V38.0346L14.896 32.0764Z" fill="#36A9E1"/>
<path d="M14.896 21.2239L24.2592 15.9041L34.5794 21.8623L25.2167 27.2885L14.896 21.2239Z" fill="#36A9E1"/>
<path d="M15.0024 23.7774L24.2592 18.4575L34.5794 24.4157L25.1101 29.6292L15.0024 23.7774Z" fill="white"/>
<path d="M24.259 15.3721L14.3638 21.0111V32.2892L25.11 38.4602L35.0047 32.8212V21.5431L24.259 15.3721ZM24.791 37.2898L15.3212 31.8636V22.0751L24.791 27.5013V37.2898ZM15.7472 21.2239L24.259 16.3297L33.7282 21.7559L25.2165 26.6502L15.7472 21.2239Z" fill="#16110D"/>
<path d="M1.27734 39.7371V34.9492L11.5975 40.9074V45.6953L1.27734 39.7371Z" fill="#36A9E1"/>
<path d="M1.27734 34.949L10.6401 29.5227L20.9608 35.4809L11.5975 40.9072L1.27734 34.949Z" fill="#36A9E1"/>
<path d="M1.38379 37.5027L10.64 32.0764L20.9607 38.1411L11.4915 43.2481L1.38379 37.5027Z" fill="white"/>
<path d="M10.6398 28.991L0.745117 34.63V39.9499L11.4913 46.1209L21.386 40.4818V35.162L10.6398 28.991ZM11.1718 44.9505L1.70259 39.5243V35.694L11.1718 41.1202V44.9505ZM2.12807 34.9492L10.6398 30.0549L20.109 35.4812L11.5973 40.3754L2.12807 34.9492Z" fill="#16110D"/>
<path d="M31.4941 47.9297V29.8423L41.8148 35.8005V53.888L31.4941 47.9297Z" fill="#36A9E1"/>
<path d="M31.4941 29.842L40.8569 24.4158L51.1776 30.374L41.8148 35.8002L31.4941 29.842Z" fill="#36A9E1"/>
<path d="M31.6006 32.3958L40.8568 27.0759L51.1775 33.0342L41.7083 38.2476L31.6006 32.3958Z" fill="white"/>
<path d="M40.8566 23.9902L30.9619 29.6293V48.2487L41.7081 54.4197L51.6028 48.7807V30.1613L40.8566 23.9902ZM41.3886 53.143L31.9194 47.7168V30.5868L41.3886 36.0131V53.143ZM32.3449 29.8421L40.8566 24.9478L50.3264 30.3741L41.8146 35.2683L32.3449 29.8421Z" fill="#16110D"/>
<path d="M17.9824 55.4839V44.7378L28.3031 50.696V61.4421L17.9824 55.4839Z" fill="#36A9E1"/>
<path d="M17.9824 44.7378L27.3457 39.3115L37.6659 45.2697L28.3031 50.696L17.9824 44.7378Z" fill="#36A9E1"/>
<path d="M18.0889 47.2911L27.3456 41.9712L37.6658 47.9294L28.1966 53.0365L18.0889 47.2911Z" fill="white"/>
<path d="M27.3454 38.7793L17.4502 44.4183V55.6964L28.1964 61.8674L38.0916 56.2284V44.9503L27.3454 38.7793ZM27.8774 60.6971L18.4082 55.2708V45.4823L27.8774 50.9086V60.6971ZM18.8337 44.7375L27.3454 39.8433L36.8146 45.2695L28.3029 50.1638L18.8337 44.7375Z" fill="#16110D"/>
<path d="M4.36328 63.1446V58.3567L14.684 64.3149V69.1028L4.36328 63.1446Z" fill="#36A9E1"/>
<path d="M4.36328 58.3564L13.726 52.9302L24.0467 58.8884L14.684 64.3147L4.36328 58.3564Z" fill="#36A9E1"/>
<path d="M4.46973 60.9102L13.7259 55.5903L24.0467 61.5486L14.5774 66.762L4.46973 60.9102Z" fill="white"/>
<path d="M13.7258 52.5049L3.83105 58.1439V63.4638L14.5772 69.6348L24.472 63.9957V58.6759L13.7258 52.5049ZM14.2577 68.358L4.78852 62.9318V59.1015L14.2577 64.5277V68.358ZM5.21401 58.3567L13.7258 53.4624L23.1955 58.8887L14.6837 63.783L5.21401 58.3567Z" fill="#16110D"/>
</svg>
