<svg width="3416" height="2772" viewBox="0 0 3416 2772" fill="none" xmlns="http://www.w3.org/2000/svg">
<path d="M800.743 832.668C495.66 988.737 657.239 1478.7 995.223 1445.88C1417.7 1404.85 1456.98 764.497 1780.39 604.854C2109.32 442.487 2209.05 817.384 2289.98 948.383C2381.71 1096.87 2589.22 943.94 2765.03 1195.08C2966.24 1482.51 3156.14 1148.98 3333.68 1403.19" stroke="#36A9E1" stroke-opacity="0.4" stroke-linecap="round" stroke-dasharray="11 11"/>
<path d="M1746.24 423.977C2068.96 308.715 2316.57 638.56 2061.07 862.235C1741.7 1141.83 1100.08 1022.57 907.787 1117.29C671.283 1233.78 770.67 1439.08 810.065 1587.93C879.517 1850.36 654.116 1799.2 702.622 2101.9C734.817 2302.82 939.732 2551.4 688.051 2770.69" stroke="#36A9E1" stroke-opacity="0.4" stroke-linecap="round" stroke-dasharray="11 11"/>
</svg>
