<svg width="137" height="236" viewBox="0 0 137 236" fill="none" xmlns="http://www.w3.org/2000/svg">
<path d="M65.3173 234.178C65.6839 234.371 65.6839 234.719 65.3173 234.931C65.115 235.025 64.8943 235.075 64.6709 235.075C64.4475 235.075 64.2268 235.025 64.0245 234.931C63.6579 234.719 63.6579 234.371 64.0245 234.178C64.2238 234.073 64.4457 234.019 64.6709 234.019C64.8961 234.019 65.1179 234.073 65.3173 234.178Z" fill="#16110D"/>
<path d="M68.7118 232.21C68.787 232.24 68.8515 232.292 68.8969 232.359C68.9424 232.426 68.9666 232.505 68.9666 232.586C68.9666 232.667 68.9424 232.746 68.8969 232.813C68.8515 232.881 68.787 232.932 68.7118 232.962C68.5125 233.067 68.2906 233.122 68.0654 233.122C67.8402 233.122 67.6184 233.067 67.419 232.962C67.0524 232.75 67.0524 232.422 67.419 232.21C67.6184 232.105 67.8402 232.05 68.0654 232.05C68.2906 232.05 68.5125 232.105 68.7118 232.21Z" fill="#16110D"/>
<path d="M72.0313 230.242C72.1065 230.272 72.171 230.324 72.2164 230.391C72.2618 230.458 72.2861 230.537 72.2861 230.618C72.2861 230.699 72.2618 230.778 72.2164 230.845C72.171 230.912 72.1065 230.964 72.0313 230.994C71.8285 231.099 71.6035 231.154 71.3752 231.154C71.1469 231.154 70.9219 231.099 70.7192 230.994C70.644 230.964 70.5795 230.912 70.534 230.845C70.4886 230.778 70.4644 230.699 70.4644 230.618C70.4644 230.537 70.4886 230.458 70.534 230.391C70.5795 230.324 70.644 230.272 70.7192 230.242C70.9219 230.137 71.1469 230.082 71.3752 230.082C71.6035 230.082 71.8285 230.137 72.0313 230.242Z" fill="#16110D"/>
<path d="M57.8876 235.085C58.3991 235.085 58.8138 234.843 58.8138 234.545C58.8138 234.246 58.3991 234.005 57.8876 234.005C57.3761 234.005 56.9614 234.246 56.9614 234.545C56.9614 234.843 57.3761 235.085 57.8876 235.085Z" fill="#16110D"/>
<path d="M61.2831 233.117C61.7947 233.117 62.2093 232.875 62.2093 232.577C62.2093 232.278 61.7947 232.036 61.2831 232.036C60.7716 232.036 60.3569 232.278 60.3569 232.577C60.3569 232.875 60.7716 233.117 61.2831 233.117Z" fill="#16110D"/>
<path d="M65.3173 230.242C65.6839 230.454 65.6839 230.782 65.3173 230.994C65.1179 231.099 64.8961 231.154 64.6709 231.154C64.4457 231.154 64.2238 231.099 64.0245 230.994C63.6579 230.782 63.6579 230.454 64.0245 230.242C64.2238 230.137 64.4457 230.082 64.6709 230.082C64.8961 230.082 65.1179 230.137 65.3173 230.242Z" fill="#16110D"/>
<path d="M68.7118 228.274C68.787 228.304 68.8515 228.356 68.8969 228.423C68.9424 228.49 68.9666 228.569 68.9666 228.65C68.9666 228.731 68.9424 228.81 68.8969 228.877C68.8515 228.944 68.787 228.996 68.7118 229.026C68.5125 229.131 68.2906 229.186 68.0654 229.186C67.8402 229.186 67.6184 229.131 67.419 229.026C67.0524 228.814 67.0524 228.486 67.419 228.274C67.6184 228.169 67.8402 228.114 68.0654 228.114C68.2906 228.114 68.5125 228.169 68.7118 228.274Z" fill="#16110D"/>
<path d="M55.1474 232.21C55.2226 232.24 55.2871 232.292 55.3325 232.359C55.3779 232.426 55.4022 232.505 55.4022 232.586C55.4022 232.667 55.3779 232.746 55.3325 232.813C55.2871 232.881 55.2226 232.932 55.1474 232.962C54.948 233.067 54.7262 233.122 54.501 233.122C54.2757 233.122 54.0539 233.067 53.8546 232.962C53.4879 232.75 53.4879 232.422 53.8546 232.21C54.0539 232.105 54.2757 232.05 54.501 232.05C54.7262 232.05 54.948 232.105 55.1474 232.21Z" fill="#16110D"/>
<path d="M58.5244 230.242C58.5997 230.272 58.6641 230.324 58.7096 230.391C58.755 230.458 58.7793 230.537 58.7793 230.618C58.7793 230.699 58.755 230.778 58.7096 230.845C58.6641 230.912 58.5997 230.964 58.5244 230.994C58.3217 231.099 58.0967 231.154 57.8684 231.154C57.6401 231.154 57.4151 231.099 57.2123 230.994C57.1371 230.964 57.0726 230.912 57.0272 230.845C56.9818 230.778 56.9575 230.699 56.9575 230.618C56.9575 230.537 56.9818 230.458 57.0272 230.391C57.0726 230.324 57.1371 230.272 57.2123 230.242C57.4151 230.137 57.6401 230.082 57.8684 230.082C58.0967 230.082 58.3217 230.137 58.5244 230.242Z" fill="#16110D"/>
<path d="M61.2831 229.2C61.7947 229.2 62.2093 228.958 62.2093 228.66C62.2093 228.361 61.7947 228.119 61.2831 228.119C60.7716 228.119 60.3569 228.361 60.3569 228.66C60.3569 228.958 60.7716 229.2 61.2831 229.2Z" fill="#16110D"/>
<path d="M64.6596 227.232C65.1711 227.232 65.5858 226.99 65.5858 226.691C65.5858 226.393 65.1711 226.151 64.6596 226.151C64.1481 226.151 63.7334 226.393 63.7334 226.691C63.7334 226.99 64.1481 227.232 64.6596 227.232Z" fill="#16110D"/>
<path d="M51.7509 230.242C52.1175 230.454 52.1175 230.782 51.7509 230.994C51.5515 231.099 51.3297 231.154 51.1045 231.154C50.8793 231.154 50.6574 231.099 50.4581 230.994C50.0915 230.782 50.0915 230.454 50.4581 230.242C50.6574 230.137 50.8793 230.082 51.1045 230.082C51.3297 230.082 51.5515 230.137 51.7509 230.242Z" fill="#16110D"/>
<path d="M55.1474 228.274C55.2226 228.304 55.2871 228.356 55.3325 228.423C55.3779 228.49 55.4022 228.569 55.4022 228.65C55.4022 228.731 55.3779 228.81 55.3325 228.877C55.2871 228.944 55.2226 228.996 55.1474 229.026C54.948 229.131 54.7262 229.186 54.501 229.186C54.2757 229.186 54.0539 229.131 53.8546 229.026C53.4879 228.814 53.4879 228.486 53.8546 228.274C54.0539 228.169 54.2757 228.114 54.501 228.114C54.7262 228.114 54.948 228.169 55.1474 228.274Z" fill="#16110D"/>
<path d="M58.5244 226.305C58.5997 226.335 58.6641 226.387 58.7096 226.454C58.755 226.522 58.7793 226.601 58.7793 226.682C58.7793 226.763 58.755 226.842 58.7096 226.909C58.6641 226.976 58.5997 227.028 58.5244 227.058C58.3217 227.163 58.0967 227.218 57.8684 227.218C57.6401 227.218 57.4151 227.163 57.2123 227.058C57.1371 227.028 57.0726 226.976 57.0272 226.909C56.9818 226.842 56.9575 226.763 56.9575 226.682C56.9575 226.601 56.9818 226.522 57.0272 226.454C57.0726 226.387 57.1371 226.335 57.2123 226.305C57.418 226.21 57.6418 226.161 57.8684 226.161C58.095 226.161 58.3188 226.21 58.5244 226.305Z" fill="#16110D"/>
<path d="M61.9196 224.357C61.9968 224.382 62.064 224.431 62.1117 224.497C62.1593 224.563 62.185 224.642 62.185 224.723C62.185 224.804 62.1593 224.884 62.1117 224.949C62.064 225.015 61.9968 225.064 61.9196 225.09C61.7202 225.195 61.4984 225.249 61.2731 225.249C61.0479 225.249 60.8261 225.195 60.6267 225.09C60.5495 225.064 60.4823 225.015 60.4346 224.949C60.387 224.884 60.3613 224.804 60.3613 224.723C60.3613 224.642 60.387 224.563 60.4346 224.497C60.4823 224.431 60.5495 224.382 60.6267 224.357C60.8261 224.252 61.0479 224.197 61.2731 224.197C61.4984 224.197 61.7202 224.252 61.9196 224.357Z" fill="#16110D"/>
<path d="M48.3354 228.254C48.4106 228.284 48.4751 228.336 48.5205 228.403C48.5659 228.47 48.5902 228.55 48.5902 228.631C48.5902 228.712 48.5659 228.791 48.5205 228.858C48.4751 228.925 48.4106 228.977 48.3354 229.007C48.136 229.112 47.9142 229.166 47.6889 229.166C47.4637 229.166 47.2419 229.112 47.0425 229.007C46.6759 228.795 46.6759 228.467 47.0425 228.254C47.2419 228.149 47.4637 228.095 47.6889 228.095C47.9142 228.095 48.136 228.149 48.3354 228.254Z" fill="#16110D"/>
<path d="M51.7325 226.286C51.8077 226.316 51.8721 226.368 51.9176 226.435C51.963 226.502 51.9873 226.581 51.9873 226.662C51.9873 226.743 51.963 226.823 51.9176 226.89C51.8721 226.957 51.8077 227.009 51.7325 227.039C51.5297 227.144 51.3047 227.198 51.0764 227.198C50.8481 227.198 50.6231 227.144 50.4203 227.039C50.3451 227.009 50.2806 226.957 50.2352 226.89C50.1898 226.823 50.1655 226.743 50.1655 226.662C50.1655 226.581 50.1898 226.502 50.2352 226.435C50.2806 226.368 50.3451 226.316 50.4203 226.286C50.626 226.191 50.8498 226.142 51.0764 226.142C51.303 226.142 51.5268 226.191 51.7325 226.286Z" fill="#16110D"/>
<path d="M55.1087 224.318C55.4753 224.53 55.4753 224.878 55.1087 225.071C54.9093 225.175 54.6875 225.23 54.4623 225.23C54.237 225.23 54.0152 225.175 53.8158 225.071C53.7406 225.04 53.6761 224.989 53.6307 224.922C53.5853 224.854 53.561 224.775 53.561 224.694C53.561 224.613 53.5853 224.534 53.6307 224.467C53.6761 224.4 53.7406 224.348 53.8158 224.318C54.0182 224.223 54.2388 224.174 54.4623 224.174C54.6857 224.174 54.9063 224.223 55.1087 224.318Z" fill="#16110D"/>
<path d="M58.5238 222.369C58.8905 222.562 58.8905 222.909 58.5238 223.122C58.3215 223.216 58.1008 223.265 57.8774 223.265C57.654 223.265 57.4333 223.216 57.231 223.122C56.8644 222.909 56.8644 222.562 57.231 222.369C57.4304 222.264 57.6522 222.21 57.8774 222.21C58.1026 222.21 58.3245 222.264 58.5238 222.369Z" fill="#16110D"/>
<path d="M44.2836 227.212C44.7951 227.212 45.2098 226.97 45.2098 226.672C45.2098 226.374 44.7951 226.132 44.2836 226.132C43.7721 226.132 43.3574 226.374 43.3574 226.672C43.3574 226.97 43.7721 227.212 44.2836 227.212Z" fill="#16110D"/>
<path d="M47.6796 225.244C48.1911 225.244 48.6058 225.002 48.6058 224.704C48.6058 224.405 48.1911 224.164 47.6796 224.164C47.1681 224.164 46.7534 224.405 46.7534 224.704C46.7534 225.002 47.1681 225.244 47.6796 225.244Z" fill="#16110D"/>
<path d="M51.7325 222.369C51.8077 222.399 51.8721 222.451 51.9176 222.518C51.963 222.585 51.9873 222.664 51.9873 222.745C51.9873 222.826 51.963 222.906 51.9176 222.973C51.8721 223.04 51.8077 223.092 51.7325 223.122C51.5268 223.217 51.303 223.266 51.0764 223.266C50.8498 223.266 50.626 223.217 50.4203 223.122C50.3451 223.092 50.2806 223.04 50.2352 222.973C50.1898 222.906 50.1655 222.826 50.1655 222.745C50.1655 222.664 50.1898 222.585 50.2352 222.518C50.2806 222.451 50.3451 222.399 50.4203 222.369C50.6231 222.264 50.8481 222.209 51.0764 222.209C51.3047 222.209 51.5297 222.264 51.7325 222.369Z" fill="#16110D"/>
<path d="M55.1087 220.401C55.4753 220.613 55.4753 220.941 55.1087 221.154C54.9063 221.248 54.6857 221.297 54.4623 221.297C54.2388 221.297 54.0182 221.248 53.8158 221.154C53.7406 221.123 53.6761 221.072 53.6307 221.004C53.5853 220.937 53.561 220.858 53.561 220.777C53.561 220.696 53.5853 220.617 53.6307 220.55C53.6761 220.483 53.7406 220.431 53.8158 220.401C54.0152 220.296 54.237 220.241 54.4623 220.241C54.6875 220.241 54.9093 220.296 55.1087 220.401Z" fill="#16110D"/>
<path d="M44.2836 223.276C44.7951 223.276 45.2098 223.034 45.2098 222.736C45.2098 222.437 44.7951 222.195 44.2836 222.195C43.7721 222.195 43.3574 222.437 43.3574 222.736C43.3574 223.034 43.7721 223.276 44.2836 223.276Z" fill="#16110D"/>
<path d="M47.6796 221.308C48.1911 221.308 48.6058 221.066 48.6058 220.768C48.6058 220.469 48.1911 220.227 47.6796 220.227C47.1681 220.227 46.7534 220.469 46.7534 220.768C46.7534 221.066 47.1681 221.308 47.6796 221.308Z" fill="#16110D"/>
<path d="M51.7325 218.433C51.8077 218.463 51.8721 218.515 51.9176 218.582C51.963 218.649 51.9873 218.728 51.9873 218.809C51.9873 218.89 51.963 218.969 51.9176 219.036C51.8721 219.103 51.8077 219.155 51.7325 219.185C51.5297 219.29 51.3047 219.345 51.0764 219.345C50.8481 219.345 50.6231 219.29 50.4203 219.185C50.3451 219.155 50.2806 219.103 50.2352 219.036C50.1898 218.969 50.1655 218.89 50.1655 218.809C50.1655 218.728 50.1898 218.649 50.2352 218.582C50.2806 218.515 50.3451 218.463 50.4203 218.433C50.6231 218.328 50.8481 218.273 51.0764 218.273C51.3047 218.273 51.5297 218.328 51.7325 218.433Z" fill="#16110D"/>
<path d="M74.1922 228.312C74.395 228.207 74.62 228.152 74.8483 228.152C75.0766 228.152 75.3016 228.207 75.5043 228.312C75.5795 228.342 75.644 228.394 75.6894 228.461C75.7349 228.528 75.7591 228.607 75.7591 228.688C75.7591 228.769 75.7349 228.849 75.6894 228.916C75.644 228.983 75.5795 229.035 75.5043 229.065C75.302 229.159 75.0813 229.209 74.8579 229.209C74.6345 229.209 74.4138 229.159 74.2115 229.065C73.8449 228.852 73.8449 228.505 74.1922 228.312Z" fill="#16110D"/>
<path d="M78.9009 226.344C78.9761 226.374 79.0406 226.426 79.086 226.493C79.1315 226.56 79.1557 226.639 79.1557 226.72C79.1557 226.801 79.1315 226.88 79.086 226.947C79.0406 227.014 78.9761 227.066 78.9009 227.096C78.6953 227.192 78.4714 227.241 78.2449 227.241C78.0183 227.241 77.7944 227.192 77.5888 227.096C77.5136 227.066 77.4491 227.014 77.4037 226.947C77.3583 226.88 77.334 226.801 77.334 226.72C77.334 226.639 77.3583 226.56 77.4037 226.493C77.4491 226.426 77.5136 226.374 77.5888 226.344C77.7916 226.239 78.0166 226.184 78.2449 226.184C78.4732 226.184 78.6981 226.239 78.9009 226.344Z" fill="#16110D"/>
<path d="M70.8155 226.344C71.0148 226.239 71.2367 226.184 71.4619 226.184C71.6871 226.184 71.909 226.239 72.1083 226.344C72.1835 226.374 72.248 226.426 72.2934 226.493C72.3388 226.56 72.3631 226.639 72.3631 226.72C72.3631 226.801 72.3388 226.88 72.2934 226.947C72.248 227.015 72.1835 227.066 72.1083 227.096C71.906 227.191 71.6853 227.24 71.4619 227.24C71.2385 227.24 71.0178 227.191 70.8155 227.096C70.4489 226.884 70.4489 226.556 70.8155 226.344Z" fill="#16110D"/>
<path d="M75.5038 224.376C75.579 224.406 75.6435 224.458 75.6889 224.525C75.7344 224.592 75.7586 224.671 75.7586 224.752C75.7586 224.833 75.7344 224.912 75.6889 224.979C75.6435 225.046 75.579 225.098 75.5038 225.128C75.3045 225.233 75.0826 225.288 74.8574 225.288C74.6322 225.288 74.4104 225.233 74.211 225.128C73.8444 224.916 73.8444 224.588 74.211 224.376C74.4104 224.271 74.6322 224.216 74.8574 224.216C75.0826 224.216 75.3045 224.271 75.5038 224.376Z" fill="#16110D"/>
<path d="M78.9009 222.408C78.9761 222.438 79.0406 222.49 79.086 222.557C79.1315 222.624 79.1557 222.703 79.1557 222.784C79.1557 222.865 79.1315 222.944 79.086 223.011C79.0406 223.078 78.9761 223.13 78.9009 223.16C78.6981 223.265 78.4732 223.32 78.2449 223.32C78.0166 223.32 77.7916 223.265 77.5888 223.16C77.5136 223.13 77.4491 223.078 77.4037 223.011C77.3583 222.944 77.334 222.865 77.334 222.784C77.334 222.703 77.3583 222.624 77.4037 222.557C77.4491 222.49 77.5136 222.438 77.5888 222.408C77.7916 222.303 78.0166 222.248 78.2449 222.248C78.4732 222.248 78.6981 222.303 78.9009 222.408Z" fill="#16110D"/>
<path d="M67.419 224.376C67.6184 224.271 67.8402 224.216 68.0654 224.216C68.2906 224.216 68.5125 224.271 68.7118 224.376C69.0784 224.588 69.0784 224.916 68.7118 225.128C68.5125 225.233 68.2906 225.288 68.0654 225.288C67.8402 225.288 67.6184 225.233 67.419 225.128C67.0524 224.916 67.0524 224.588 67.419 224.376Z" fill="#16110D"/>
<path d="M72.0312 222.408C72.3978 222.62 72.3978 222.948 72.0312 223.16C71.8318 223.265 71.61 223.32 71.3847 223.32C71.1595 223.32 70.9377 223.265 70.7383 223.16C70.3717 222.948 70.3717 222.62 70.7383 222.408C70.9377 222.303 71.1595 222.248 71.3847 222.248C71.61 222.248 71.8318 222.303 72.0312 222.408Z" fill="#16110D"/>
<path d="M75.5038 220.44C75.579 220.47 75.6435 220.522 75.6889 220.589C75.7344 220.656 75.7586 220.735 75.7586 220.816C75.7586 220.897 75.7344 220.976 75.6889 221.043C75.6435 221.11 75.579 221.162 75.5038 221.192C75.3045 221.297 75.0826 221.352 74.8574 221.352C74.6322 221.352 74.4104 221.297 74.211 221.192C73.8444 220.98 73.8444 220.652 74.211 220.44C74.4104 220.335 74.6322 220.28 74.8574 220.28C75.0826 220.28 75.3045 220.335 75.5038 220.44Z" fill="#16110D"/>
<path d="M64.0231 222.408C64.2225 222.303 64.4443 222.248 64.6695 222.248C64.8947 222.248 65.1166 222.303 65.3159 222.408C65.6826 222.62 65.6826 222.948 65.3159 223.16C65.1132 223.265 64.8882 223.32 64.6599 223.32C64.4316 223.32 64.2066 223.265 64.0038 223.16C63.9293 223.128 63.8661 223.075 63.8224 223.007C63.7786 222.938 63.7564 222.858 63.7584 222.777C63.7605 222.696 63.7868 222.618 63.834 222.552C63.8812 222.486 63.9471 222.436 64.0231 222.408Z" fill="#16110D"/>
<path d="M68.7132 220.44C69.0798 220.652 69.0798 220.98 68.7132 221.192C68.5138 221.297 68.292 221.352 68.0667 221.352C67.8415 221.352 67.6197 221.297 67.4203 221.192C67.3451 221.162 67.2806 221.11 67.2352 221.043C67.1898 220.976 67.1655 220.897 67.1655 220.816C67.1655 220.735 67.1898 220.656 67.2352 220.589C67.2806 220.522 67.3451 220.47 67.4203 220.44C67.6197 220.335 67.8415 220.28 68.0667 220.28C68.292 220.28 68.5138 220.335 68.7132 220.44Z" fill="#16110D"/>
<path d="M72.0312 218.471C72.3978 218.684 72.3978 219.031 72.0312 219.224C71.8318 219.329 71.61 219.383 71.3847 219.383C71.1595 219.383 70.9377 219.329 70.7383 219.224C70.3717 219.031 70.3717 218.684 70.7383 218.471C70.9407 218.377 71.1613 218.328 71.3847 218.328C71.6082 218.328 71.8288 218.377 72.0312 218.471Z" fill="#16110D"/>
<path d="M60.6085 220.42C60.8078 220.315 61.0297 220.261 61.2549 220.261C61.4801 220.261 61.7019 220.315 61.9013 220.42C62.2679 220.632 62.2679 220.96 61.9013 221.173C61.7019 221.277 61.4801 221.332 61.2549 221.332C61.0297 221.332 60.8078 221.277 60.6085 221.173C60.2418 220.96 60.2418 220.632 60.6085 220.42Z" fill="#16110D"/>
<path d="M64.6406 219.378C65.1521 219.378 65.5668 219.136 65.5668 218.838C65.5668 218.54 65.1521 218.298 64.6406 218.298C64.129 218.298 63.7144 218.54 63.7144 218.838C63.7144 219.136 64.129 219.378 64.6406 219.378Z" fill="#16110D"/>
<path d="M68.6928 216.484C68.768 216.514 68.8325 216.566 68.8779 216.633C68.9233 216.7 68.9476 216.779 68.9476 216.86C68.9476 216.941 68.9233 217.02 68.8779 217.087C68.8325 217.154 68.768 217.206 68.6928 217.236C68.4934 217.341 68.2716 217.396 68.0464 217.396C67.8212 217.396 67.5993 217.341 67.4 217.236C67.0333 217.043 67.0333 216.696 67.4 216.484C67.6023 216.389 67.823 216.34 68.0464 216.34C68.2698 216.34 68.4905 216.389 68.6928 216.484Z" fill="#16110D"/>
<path d="M57.2116 218.452C57.4139 218.357 57.6346 218.308 57.858 218.308C58.0814 218.308 58.3021 218.357 58.5044 218.452C58.871 218.664 58.871 218.992 58.5044 219.205C58.3016 219.309 58.0767 219.364 57.8484 219.364C57.6201 219.364 57.3951 219.309 57.1923 219.205C57.1178 219.173 57.0546 219.119 57.0108 219.051C56.9671 218.983 56.9448 218.903 56.9469 218.822C56.949 218.741 56.9753 218.662 57.0225 218.596C57.0697 218.53 57.1356 218.48 57.2116 218.452Z" fill="#16110D"/>
<path d="M61.9002 216.484C62.2668 216.696 62.2668 217.043 61.9002 217.236C61.7008 217.341 61.479 217.396 61.2538 217.396C61.0286 217.396 60.8067 217.341 60.6074 217.236C60.5321 217.206 60.4677 217.154 60.4222 217.087C60.3768 217.02 60.3525 216.941 60.3525 216.86C60.3525 216.779 60.3768 216.7 60.4222 216.633C60.4677 216.566 60.5321 216.514 60.6074 216.484C60.8097 216.389 61.0304 216.34 61.2538 216.34C61.4772 216.34 61.6978 216.389 61.9002 216.484Z" fill="#16110D"/>
<path d="M64.6406 215.442C65.1521 215.442 65.5668 215.2 65.5668 214.902C65.5668 214.603 65.1521 214.361 64.6406 214.361C64.129 214.361 63.7144 214.603 63.7144 214.902C63.7144 215.2 64.129 215.442 64.6406 215.442Z" fill="#16110D"/>
<path d="M53.8162 216.503C54.0203 216.403 54.2448 216.351 54.4723 216.351C54.6998 216.351 54.9242 216.403 55.1283 216.503C55.2036 216.533 55.268 216.585 55.3135 216.652C55.3589 216.719 55.3832 216.799 55.3832 216.88C55.3832 216.961 55.3589 217.04 55.3135 217.107C55.268 217.174 55.2036 217.226 55.1283 217.256C54.9276 217.356 54.7063 217.408 54.4819 217.408C54.2576 217.408 54.0363 217.356 53.8355 217.256C53.4689 217.044 53.4689 216.696 53.8162 216.503Z" fill="#16110D"/>
<path d="M58.5244 214.535C58.5997 214.565 58.6641 214.617 58.7096 214.684C58.755 214.751 58.7793 214.83 58.7793 214.911C58.7793 214.992 58.755 215.071 58.7096 215.138C58.6641 215.206 58.5997 215.257 58.5244 215.288C58.3188 215.383 58.095 215.432 57.8684 215.432C57.6418 215.432 57.418 215.383 57.2123 215.288C57.1371 215.257 57.0726 215.206 57.0272 215.138C56.9818 215.071 56.9575 214.992 56.9575 214.911C56.9575 214.83 56.9818 214.751 57.0272 214.684C57.0726 214.617 57.1371 214.565 57.2123 214.535C57.4151 214.43 57.6401 214.375 57.8684 214.375C58.0967 214.375 58.3217 214.43 58.5244 214.535Z" fill="#16110D"/>
<path d="M89.0115 154.699L61.515 170.637L34.0186 154.699L61.515 138.78L89.0115 154.699Z" fill="#36A9E1"/>
<path d="M34.0184 154.699L33.8447 185.186L61.3412 201.105L61.5148 170.637L34.0184 154.699Z" fill="#36A9E1"/>
<path d="M88.8948 160.082L61.3983 176.021L33.9019 160.082L61.3983 144.163L88.8948 160.082Z" fill="white"/>
<path d="M61.8045 138.297L61.5151 138.124L33.4398 154.371L33.2661 185.495L61.3028 201.742L89.3975 185.495L89.5711 154.39L61.8045 138.297ZM60.8012 200.16L34.4046 184.858L34.5782 155.664L40.9458 159.349L60.9748 170.927L60.8012 200.16ZM35.1378 154.699L61.5151 139.417L87.9117 154.699L80.4828 159.002L61.5151 170L35.1378 154.699Z" fill="#16110D"/>
<path d="M61.2448 143.488C53.3528 143.488 47.2554 149.489 47.2554 154.68C47.2554 159.87 53.5265 164.327 61.2448 164.327C68.9631 164.327 75.2149 160.024 75.2149 154.68C75.2149 149.335 69.1175 143.488 61.2448 143.488Z" fill="#16110D"/>
<path d="M72.7848 151.785C72.7848 156.107 67.6135 159.6 61.2073 159.6C54.8011 159.6 49.6299 156.107 49.6299 151.785C49.6299 147.463 54.8011 143.97 61.2073 143.97C67.6135 143.97 72.7848 147.463 72.7848 151.785Z" fill="#36A9E1"/>
<path d="M61.2447 160.082C54.6069 160.082 49.2041 156.358 49.2041 151.785C49.2041 147.212 54.6069 143.488 61.2447 143.488C67.8824 143.488 73.2659 147.212 73.2659 151.785C73.2659 156.358 67.8631 160.082 61.2447 160.082ZM61.2447 144.453C55.1279 144.453 50.1689 147.733 50.1689 151.785C50.1689 155.837 55.1279 159.118 61.2447 159.118C67.3614 159.118 72.3011 155.837 72.3011 151.785C72.3011 147.733 67.3421 144.453 61.2447 144.453Z" fill="#16110D"/>
<path d="M63.1746 145.996C62.5378 145.823 62.1326 146.421 61.8239 146.884L61.4379 147.463C61.2501 147.294 61.0877 147.099 60.9555 146.884C60.6275 146.421 60.2223 145.842 59.6048 146.016C57.791 146.479 56.6333 149.315 56.6333 150.377C56.6333 152.017 58.7172 153.31 61.3994 153.31C64.0815 153.31 66.1654 152.017 66.1654 150.377C66.0615 149.458 65.7346 148.579 65.2134 147.815C64.6921 147.052 63.9922 146.428 63.1746 145.996Z" fill="#16110D"/>
<path d="M64.3117 147.888C64.3117 148.814 62.9803 149.566 61.3595 149.566C59.7386 149.566 58.4072 148.814 58.4072 147.888C58.4072 146.961 59.7193 146.228 61.3595 146.228C62.9996 146.228 64.3117 146.961 64.3117 147.888Z" fill="white"/>
<path d="M61.3985 150.087C59.469 150.087 57.9253 149.123 57.9253 147.888C57.9253 146.653 59.4497 145.707 61.3985 145.707C63.3474 145.707 64.8525 146.672 64.8525 147.888C64.8525 149.103 63.3474 150.087 61.3985 150.087ZM61.3985 146.73C60.0092 146.73 58.9673 147.347 58.9673 147.888C58.9673 148.428 60.0092 149.045 61.3985 149.045C62.7878 149.045 63.8298 148.447 63.8298 147.888C63.8298 147.328 62.7878 146.73 61.3985 146.73Z" fill="#16110D"/>
<path d="M60.7046 100.671V147.328C60.7046 147.424 60.7236 147.52 60.7604 147.608C60.7972 147.697 60.8513 147.778 60.9193 147.846C60.9874 147.914 61.0683 147.968 61.1572 148.005C61.2462 148.042 61.3415 148.061 61.4378 148.061C61.5341 148.061 61.6295 148.042 61.7184 148.005C61.8074 147.968 61.8882 147.914 61.9563 147.846C62.0244 147.778 62.0784 147.697 62.1152 147.608C62.1521 147.52 62.1711 147.424 62.1711 147.328V100.671H60.7046Z" fill="#16110D"/>
<path d="M100.222 99.3394L83.9944 108.717V94.2839H81.0422V110.531L55.2631 125.466V110.994H52.3108V127.087L44.5925 131.563C40.386 133.995 36.5462 134.149 34.0763 131.949L32.7642 130.811C32.6207 130.682 32.453 130.583 32.2709 130.52C32.0887 130.457 31.8958 130.431 31.7035 130.444C31.5112 130.457 31.3233 130.507 31.1509 130.594C30.9785 130.68 30.8251 130.8 30.6996 130.946C30.4411 131.239 30.3083 131.622 30.3299 132.012C30.3516 132.402 30.526 132.767 30.8154 133.03L32.1275 134.168C33.8388 135.681 36.0571 136.494 38.3407 136.445C41.074 136.359 43.7362 135.554 46.059 134.11L101.689 102.002C102.028 101.805 102.276 101.48 102.377 101.101C102.478 100.721 102.425 100.317 102.229 99.9762C102.139 99.8024 102.016 99.6479 101.867 99.5217C101.717 99.3956 101.544 99.3002 101.358 99.241C101.171 99.1819 100.975 99.1601 100.78 99.177C100.585 99.1939 100.396 99.2491 100.222 99.3394Z" fill="#16110D"/>
<path d="M79.7498 88.1671L63.522 97.5448V83.0151H60.5698V99.2429L34.7907 114.178V99.706H31.8384V115.895L24.1201 120.352C19.9136 122.803 16.0738 122.957 13.6039 120.758L12.2918 119.619C12.0022 119.362 11.6225 119.23 11.2356 119.251C10.8488 119.273 10.4862 119.447 10.2272 119.735C9.96748 120.031 9.83415 120.417 9.85579 120.81C9.87744 121.203 10.0523 121.572 10.3429 121.838L11.655 122.977C13.3895 124.453 15.6113 125.23 17.8876 125.157C20.6179 125.07 23.2782 124.271 25.6059 122.842L81.1969 90.6562C81.5366 90.4586 81.7842 90.1345 81.8855 89.7548C81.9867 89.3751 81.9334 88.9707 81.7372 88.6302C81.5309 88.31 81.2082 88.0827 80.8373 87.9962C80.4663 87.9098 80.0763 87.9711 79.7498 88.1671Z" fill="#16110D"/>
<path d="M70.5261 52.7979C62.2675 47.7424 48.8763 54.8432 48.8763 54.8432L38.8618 60.632L38.1478 61.0372C33.7001 63.5297 29.8946 67.0246 27.0335 71.2446C27.0335 71.2446 11.5969 92.8366 12.2143 101.635C12.4436 103.082 12.8319 104.5 13.3721 105.861C15.5191 110.29 18.9655 113.958 23.2515 116.377C32.8994 122.263 40.3282 120.584 40.3282 120.584C40.3282 120.584 70.6805 67.7328 74.8676 63.5457C79.0548 59.3585 81.3703 56.5413 73.845 51.9682C73.5748 51.6981 70.8155 52.9716 70.5261 52.7979Z" fill="#36A9E1"/>
<path d="M71.6449 55.6923C63.4056 50.6562 50.0336 57.7377 50.0336 57.7377L40.0384 63.5264L39.3824 63.893C34.896 66.3779 31.061 69.8889 28.1908 74.1391C28.1908 74.1391 12.7542 95.7311 13.3524 104.549C13.5928 105.96 13.9742 107.344 14.4908 108.678C15.7451 111.418 21.09 114.718 27.0138 118.326C27.1682 118.442 26.8401 118.326 27.0138 118.326C34.7321 122.88 42.6241 121.394 47.1393 113.599C56.1504 98.1623 72.957 69.4502 76.0829 66.4015C80.1157 62.3494 79.5561 60.6128 72.0115 55.8853L71.6449 55.6923Z" fill="white"/>
<path d="M37.6078 121.298C32.4057 121.173 27.3385 119.617 22.9623 116.802C18.5844 114.319 15.0648 110.564 12.8706 106.035C12.3128 104.636 11.9116 103.18 11.6743 101.693C11.0182 92.7981 25.9724 71.8236 26.6092 70.936C29.5196 66.6433 33.3913 63.0888 37.9165 60.5549L38.6112 60.169L48.6257 54.3802C49.2045 54.0715 62.2485 47.2601 70.6807 52.277C70.9508 52.277 71.5876 51.9875 72.0314 51.8332C73.3435 51.3508 73.7873 51.2157 74.1346 51.428C77.3956 53.3575 79.0165 55.2871 79.248 57.2167C79.5181 59.5322 77.6851 61.5582 75.2538 63.9895C71.1631 68.0802 41.1196 120.391 40.8109 120.912L40.6951 121.124H40.4443C39.5066 121.274 38.5567 121.332 37.6078 121.298ZM63.3097 51.5244C58.3788 51.8178 53.5625 53.132 49.1659 55.3836L39.1707 61.1723L38.4375 61.5775C34.0788 64.0445 30.3428 67.4768 27.5161 71.6113C27.3617 71.8429 12.0795 93.1454 12.7741 101.655C13.009 102.971 13.3643 104.263 13.8354 105.514C15.9329 109.847 19.2975 113.44 23.4833 115.818C31.9155 120.931 38.6112 120.217 39.9233 120.005C42.3545 115.76 70.3334 67.1733 74.4241 63.0633C76.6238 60.8636 78.2832 59.0305 78.0903 57.2746C77.9166 55.7888 76.4501 54.2066 73.6329 52.4507C73.3628 52.4507 72.7646 52.7208 72.3401 52.8751C70.9894 53.3575 70.5263 53.5119 70.179 53.2996C68.0953 52.0913 65.7177 51.4836 63.3097 51.5438V51.5244Z" fill="#16110D"/>
<path d="M86.6376 56.1941C77.6651 49.4984 62.4986 50.4053 61.7461 50.4053V50.9649V51.5052C65.9502 51.4687 70.0623 52.7361 73.5165 55.1328C74.3465 55.554 75.054 56.1818 75.5711 56.9557C76.0881 57.7296 76.3973 58.6236 76.4688 59.5515C76.4688 61.4811 74.5392 63.5265 71.6255 65.3403L59.5271 72.3832L58.8324 72.7691C54.3045 75.2835 50.4363 78.8343 47.5444 83.131C46.9077 84.0186 31.9341 104.993 32.6095 113.908C32.6645 115.414 33.0674 116.886 33.7865 118.211C29.8907 118.094 26.061 117.175 22.5371 115.509L30.2554 119.851L36.9124 120.7C37.7285 120.965 38.5823 121.095 39.4402 121.086C42.6047 121.086 46.8691 119.696 52.3105 116.918C57.8557 114.172 63.2182 111.072 68.3645 107.637C69.8889 106.633 71.5097 105.591 73.3428 104.433C73.5744 104.433 95.5908 89.6915 96.1697 80.1015V78.4807C96.8837 70.1642 97.2889 64.1439 86.6376 56.1941Z" fill="#16110D"/>
<path d="M123.107 21.5195L129.166 16.4641C129.207 15.8643 129.098 15.2636 128.847 14.7173C128.596 14.1709 128.212 13.6964 127.73 13.3372C127.248 12.978 126.683 12.7456 126.088 12.6615C125.492 12.5774 124.885 12.6442 124.323 12.8558C123.571 13.1026 122.876 13.4961 122.277 14.0135L86.8502 40.6995C83.1614 43.8709 78.9416 46.3662 74.3852 48.0705C72.0697 48.9195 69.2332 49.8457 65.895 50.7333C65.895 50.7333 76.4498 50.0387 85.3451 63.3141C85.7696 63.9702 123.107 21.5195 123.107 21.5195Z" fill="#36A9E1"/>
<path d="M27.0524 71.2833C22.1861 78.112 17.9433 85.3643 14.3751 92.9525C14.3751 93.0489 13.256 100.208 18.8903 104.183C24.5247 108.158 28.3646 111.187 33.4779 110.434C38.5913 109.682 57.5783 99.2429 59.7974 94.1102C62.0164 88.9775 65.5861 77.6702 64.5827 74.1391C63.5793 70.608 45.5571 58.8375 38.1668 61.0759C33.7191 63.5684 29.9136 67.0633 27.0524 71.2833Z" fill="#36A9E1"/>
<path d="M31.9151 111.11C27.67 111.11 24.1968 108.64 19.5658 105.321L18.5624 104.626C16.8009 103.256 15.435 101.442 14.6044 99.3709C13.7738 97.2994 13.5082 95.0445 13.835 92.8368C17.4193 85.1639 21.6948 77.8334 26.6088 70.9361C29.5192 66.6434 33.3909 63.0889 37.9161 60.555C42.6242 59.1271 50.3811 62.9283 53.5071 64.6457C58.6397 67.4435 64.4477 71.65 65.0845 73.9655C66.1651 77.6896 62.5953 89.0162 60.2992 94.3033C58.003 99.5903 38.5335 110.242 33.5359 110.975C32.9994 111.057 32.4578 111.102 31.9151 111.11ZM14.8963 93.1648C14.8963 93.1648 13.9122 99.9762 19.1992 103.739L20.2026 104.453C25.2002 107.984 28.8085 110.55 33.4009 109.894C38.7072 109.122 57.2118 98.7027 59.2958 93.8787C61.7849 88.09 64.9494 77.4195 64.0425 74.2936C63.618 72.7885 59.0642 68.9486 52.9861 65.6297C46.9079 62.3109 41.3121 60.7093 38.3406 61.5969C34.0254 64.0707 30.325 67.4875 27.5157 71.5921C22.6691 78.3821 18.4455 85.5959 14.8963 93.1455V93.1648Z" fill="#16110D"/>
<path d="M64.5836 74.1392C63.9855 72.0745 57.6951 67.2699 51.0766 64.0282C56.4408 66.9419 61.149 70.666 61.6314 72.364C62.5769 75.6636 59.2773 86.1218 57.2127 90.8879C55.148 95.6539 37.5503 105.34 32.8035 106.035C28.0568 106.73 24.5257 103.951 19.2965 100.246C17.9504 99.2475 16.8614 97.9425 16.1199 96.4393C15.3783 94.936 15.0055 93.2778 15.0321 91.6018L14.4147 92.9718C14.4147 93.0683 13.2955 100.227 18.9299 104.202C24.5643 108.177 28.4041 111.206 33.5175 110.454C38.6309 109.701 57.6179 99.2623 59.8369 94.1296C62.0559 88.9969 65.6063 77.6703 64.5836 74.1392Z" fill="#36A9E1"/>
<path d="M31.9151 111.11C27.67 111.11 24.1968 108.64 19.5658 105.321L18.5624 104.626C16.8009 103.256 15.435 101.442 14.6044 99.3709C13.7738 97.2994 13.5082 95.0445 13.835 92.8367C14.0665 92.2579 14.2788 91.7948 14.491 91.3317L15.4944 89.1319V91.5439C15.4786 93.1337 15.8351 94.7051 16.5354 96.1325C17.2357 97.5598 18.2603 98.8034 19.5272 99.7639L20.4534 100.42C25.0844 103.7 28.4419 106.074 32.6676 105.456C37.5881 104.742 54.7034 95.0943 56.633 90.637C58.9485 85.35 61.8814 75.3934 61.0324 72.499C60.6465 71.129 56.4207 67.5786 50.7478 64.4913L51.2688 63.5072C57.9644 66.7875 64.4092 71.6693 65.0652 73.9655C66.1458 77.6896 62.5761 89.0162 60.2799 94.3032C57.9837 99.5903 38.5143 110.242 33.5167 110.975C32.9865 111.056 32.4514 111.101 31.9151 111.11ZM14.8191 94.5348C14.7683 96.3062 15.1389 98.0642 15.9004 99.6644C16.6619 101.265 17.7925 102.661 19.1992 103.739L20.2026 104.453C25.2002 107.984 28.8085 110.55 33.4009 109.894C38.7072 109.122 57.2118 98.7027 59.2958 93.8787C61.7849 88.09 64.9494 77.4195 64.0425 74.2936C63.5519 73.3071 62.8384 72.4482 61.9586 71.7851C62.0295 71.9209 62.0877 72.063 62.1323 72.2096C63.2128 75.9144 59.4502 87.0866 57.6942 91.1001C55.4559 96.2328 37.4916 105.9 32.8606 106.537C28.2296 107.174 24.6985 104.742 19.8553 101.308L18.9291 100.652C16.8649 99.1763 15.4048 97.0034 14.8191 94.5348Z" fill="#16110D"/>
<path d="M32.7842 111.226L32.9578 110.434C35.2347 100.458 47.0437 83.922 47.5454 83.2274C50.435 78.9237 54.3034 75.3662 58.8335 72.8463L59.5281 72.4604L62.4032 70.8009L62.6926 71.0711C63.741 71.8595 64.5711 72.9022 65.1046 74.1005C66.1851 77.8246 62.6154 89.1512 60.3192 94.4382C57.9265 99.9375 38.5729 110.357 33.5753 111.11L32.7842 111.226ZM62.2488 72.1516L60.0877 73.4252L59.3544 73.8304C54.9925 76.2772 51.26 79.7059 48.4523 83.8449C48.3173 84.0378 36.8749 99.9761 34.2507 109.836C40.4253 108.254 57.3091 98.5675 59.3351 93.9944C61.8243 88.2057 64.9888 77.5352 64.0819 74.4093C63.9854 74.1584 63.6574 73.483 62.2488 72.1516Z" fill="#16110D"/>
<path d="M72.0307 92.4701C71.8293 92.4762 71.6297 92.4297 71.4518 92.335C71.2305 92.1765 71.0539 91.9636 70.9389 91.7169C70.824 91.4701 70.7747 91.1979 70.7958 90.9265V90.1739C70.7988 89.6548 70.9288 89.1443 71.1743 88.6869C71.4198 88.2295 71.7734 87.8392 72.2043 87.5497L76.1793 85.2342C76.3758 85.1208 76.5987 85.061 76.8257 85.061C77.0526 85.061 77.2755 85.1208 77.4721 85.2342C77.6918 85.3897 77.8677 85.5993 77.9826 85.8427C78.0975 86.0861 78.1477 86.3551 78.1281 86.6235V87.3761C78.1255 87.8958 77.9978 88.4072 77.756 88.8673C77.5142 89.3274 77.1654 89.7226 76.7388 90.0196L72.6674 92.3544C72.4668 92.4412 72.249 92.4808 72.0307 92.4701ZM76.8932 86.1411C76.843 86.1249 76.789 86.1249 76.7388 86.1411L72.6674 88.4952C72.4111 88.6909 72.2017 88.9415 72.0548 89.2287C71.9079 89.5158 71.8271 89.8322 71.8184 90.1546V90.9072C71.8005 91.0644 71.8418 91.2226 71.9342 91.351H72.1272L76.1021 89.0355C76.361 88.8378 76.5718 88.584 76.7188 88.2933C76.8659 88.0026 76.9453 87.6825 76.9511 87.3568V86.5656C76.9678 86.4146 76.9264 86.2628 76.8353 86.1411H76.8932Z" fill="#36A9E1"/>
<path d="M55.2635 115.509V114.255L52.3306 115.799V117.034L55.2635 115.509Z" fill="#36A9E1"/>
<path d="M83.9942 94.9399C83.0102 95.789 82.0647 96.6187 81.042 97.3905V98.857C82.0068 98.1109 82.9909 97.3004 83.9942 96.4257V94.9399Z" fill="#36A9E1"/>
<path d="M85.4035 63.4107C85.8281 64.0474 123.165 21.5968 123.165 21.5968L128.53 17.1009C128.072 16.4648 127.419 15.996 126.67 15.7661C125.92 15.5361 125.117 15.5576 124.381 15.8273C123.629 16.0742 122.934 16.4677 122.336 16.9851L86.9086 43.6132C83.2168 46.7857 78.9893 49.2752 74.4243 50.9649C73.6331 51.2736 72.7455 51.5631 71.8193 51.8718C77.4682 54.161 82.2308 58.2065 85.4035 63.4107Z" fill="white"/>
<path d="M85.3455 63.8931H85.0561L84.8824 63.6615C76.2765 50.8298 66.0305 51.3122 65.934 51.3122H65.5867L65.0464 50.386L65.741 50.1931C68.8091 49.3633 71.6648 48.4565 74.1926 47.5303C78.6919 45.8481 82.8593 43.3856 86.5033 40.2558L121.95 13.5504C122.598 13.0028 123.344 12.5836 124.149 12.3155C124.795 12.0722 125.492 11.9947 126.175 12.09C126.859 12.1853 127.508 12.4505 128.062 12.8612C128.617 13.2719 129.06 13.8151 129.35 14.4411C129.641 15.0672 129.77 15.7561 129.726 16.4448V16.6956L123.493 21.9055C87.4681 62.9476 85.7507 63.8931 85.3455 63.8931ZM68.8863 50.386C72.7454 51.1193 79.4024 53.6663 85.4806 62.4845C88.6451 59.5515 109.079 36.6475 122.702 21.153L128.491 16.2712C128.498 15.7954 128.391 15.3249 128.18 14.8987C127.968 14.4725 127.658 14.1029 127.275 13.8206C126.857 13.5343 126.377 13.3503 125.874 13.2833C125.371 13.2163 124.86 13.2681 124.381 13.4347C123.676 13.6617 123.021 14.022 122.451 14.4959L87.1786 41.1434C83.4498 44.3586 79.1761 46.881 74.5592 48.5915C72.8226 49.2283 70.9123 49.9036 68.8863 50.4632V50.386Z" fill="#16110D"/>
<path d="M129.667 16.0781L129.339 15.9238L129.031 15.7694L91.809 44.1149C90.5071 45.2406 89.2823 46.4526 88.1428 47.7425C86.53 49.5562 85.2263 51.6227 84.2837 53.8592C83.8829 54.7235 83.6037 55.6391 83.454 56.5799C83.1388 58.4063 83.3119 60.2834 83.9557 62.0213C84.7112 64.0459 86.1245 65.7583 87.9692 66.8839C92.4458 69.5467 95.4945 71.0517 95.5331 71.0517L96.2471 71.4184V70.608C96.2471 70.4343 97.6942 53.9943 109.137 42.7063C112.308 39.6304 115.839 36.9483 119.653 34.7179C121.713 33.5511 123.646 32.1737 125.422 30.6079C126.782 29.2818 127.863 27.6975 128.602 25.9479C129.341 24.1984 129.723 22.3189 129.725 20.4197V16.5605L129.667 16.0781Z" fill="#16110D"/>
<path d="M64.5635 56.4256C64.9567 56.5477 65.3006 56.7925 65.5448 57.124C65.789 57.4556 65.9207 57.8566 65.9207 58.2683C65.9207 58.6801 65.789 59.0811 65.5448 59.4126C65.3006 59.7442 64.9567 59.9889 64.5635 60.1111C63.5787 60.6065 62.4917 60.8646 61.3893 60.8646C60.287 60.8646 59.1999 60.6065 58.2152 60.1111C57.8219 59.9889 57.478 59.7442 57.2338 59.4126C56.9896 59.0811 56.8579 58.6801 56.8579 58.2683C56.8579 57.8566 56.9896 57.4556 57.2338 57.124C57.478 56.7925 57.8219 56.5477 58.2152 56.4256C59.1972 55.9211 60.2853 55.658 61.3893 55.658C62.4933 55.658 63.5814 55.9211 64.5635 56.4256Z" fill="#36A9E1"/>
<path d="M61.3988 61.4811C60.1925 61.5099 59.0003 61.2168 57.9449 60.632C57.4722 60.4566 57.0645 60.1407 56.7766 59.7268C56.4888 59.3128 56.3345 58.8207 56.3345 58.3166C56.3345 57.8124 56.4888 57.3202 56.7766 56.9063C57.0645 56.4924 57.4722 56.1765 57.9449 56.0011C59.0126 55.4495 60.197 55.1616 61.3988 55.1616C62.6006 55.1616 63.785 55.4495 64.8527 56.0011C65.3174 56.1844 65.7161 56.5032 65.9972 56.9162C66.2782 57.3291 66.4284 57.8171 66.4284 58.3166C66.4284 58.8161 66.2782 59.304 65.9972 59.717C65.7161 60.1299 65.3174 60.4487 64.8527 60.632C63.7963 61.2142 62.6048 61.5071 61.3988 61.4811ZM61.3988 56.2712C60.3841 56.2493 59.3808 56.4885 58.4851 56.9659C58.2124 57.0834 57.9749 57.2696 57.7956 57.5063C57.6164 57.743 57.5016 58.0222 57.4625 58.3166C57.5265 58.5928 57.6565 58.8494 57.8413 59.0645C58.0261 59.2795 58.2603 59.4466 58.5237 59.5515C59.4239 59.9956 60.4143 60.2267 61.4181 60.2267C62.4219 60.2267 63.4123 59.9956 64.3125 59.5515C64.5902 59.4334 64.8324 59.2449 65.0151 59.0047C65.1978 58.7644 65.3148 58.4807 65.3544 58.1815C65.3135 57.8851 65.1958 57.6045 65.013 57.3676C64.8302 57.1307 64.5888 56.9456 64.3125 56.8308C63.4117 56.3743 62.4072 56.1615 61.3988 56.2133V56.2712Z" fill="#16110D"/>
<path d="M61.2449 49.016C60.7332 49.016 60.2424 49.2193 59.8805 49.5811C59.5186 49.943 59.3153 50.4338 59.3153 50.9456V57.1395C59.2257 57.4283 59.2051 57.7341 59.2553 58.0323C59.3055 58.3305 59.4251 58.6127 59.6044 58.8562C59.7838 59.0996 60.0178 59.2975 60.2877 59.4339C60.5576 59.5704 60.8557 59.6414 61.1581 59.6414C61.4605 59.6414 61.7586 59.5704 62.0285 59.4339C62.2984 59.2975 62.5324 59.0996 62.7117 58.8562C62.8911 58.6127 63.0107 58.3305 63.0609 58.0323C63.1111 57.7341 63.0905 57.4283 63.0008 57.1395V50.8684C62.9839 50.3988 62.7962 49.9515 62.4729 49.6104C62.1496 49.2694 61.713 49.058 61.2449 49.016Z" fill="#16110D"/>
<path d="M64.6025 48.5723C64.9958 48.6944 65.3397 48.9392 65.5839 49.2707C65.8281 49.6023 65.9598 50.0033 65.9598 50.415C65.9598 50.8268 65.8281 51.2278 65.5839 51.5594C65.3397 51.8909 64.9958 52.1357 64.6025 52.2578C63.6205 52.7623 62.5324 53.0254 61.4284 53.0254C60.3244 53.0254 59.2362 52.7623 58.2542 52.2578C57.861 52.1357 57.5171 51.8909 57.2729 51.5594C57.0287 51.2278 56.897 50.8268 56.897 50.415C56.897 50.0033 57.0287 49.6023 57.2729 49.2707C57.5171 48.9392 57.861 48.6944 58.2542 48.5723C59.2362 48.0678 60.3244 47.8047 61.4284 47.8047C62.5324 47.8047 63.6205 48.0678 64.6025 48.5723Z" fill="#36A9E1"/>
<path d="M61.4378 53.5891C60.2325 53.6089 59.0426 53.3164 57.9839 52.7401C57.513 52.5602 57.1079 52.2415 56.8221 51.8263C56.5363 51.4112 56.3833 50.919 56.3833 50.415C56.3833 49.9109 56.5363 49.4188 56.8221 49.0036C57.1079 48.5884 57.513 48.2698 57.9839 48.0898C59.0516 47.5382 60.236 47.2504 61.4378 47.2504C62.6396 47.2504 63.824 47.5382 64.8917 48.0898C65.3548 48.2773 65.7513 48.5987 66.0305 49.013C66.3097 49.4272 66.4589 49.9154 66.4589 50.415C66.4589 50.9145 66.3097 51.4027 66.0305 51.8169C65.7513 52.2312 65.3548 52.5526 64.8917 52.7401C63.832 53.3139 62.6428 53.6063 61.4378 53.5891ZM61.4378 48.3793C60.4247 48.3506 59.4213 48.5832 58.5241 49.0546C58.1954 49.1096 57.8968 49.2794 57.6814 49.5337C57.4661 49.7881 57.3479 50.1106 57.3479 50.4439C57.3479 50.7772 57.4661 51.0997 57.6814 51.3541C57.8968 51.6084 58.1954 51.7782 58.5241 51.8332C59.4243 52.2774 60.4147 52.5084 61.4185 52.5084C62.4223 52.5084 63.4127 52.2774 64.3129 51.8332C64.6122 51.7528 64.8766 51.5759 65.0652 51.33C65.2538 51.084 65.356 50.7828 65.356 50.4728C65.356 50.1629 65.2538 49.8617 65.0652 49.6157C64.8766 49.3698 64.6122 49.1929 64.3129 49.1125C63.4345 48.6224 62.4436 48.3698 61.4378 48.3793Z" fill="#16110D"/>
<path d="M65.5282 42.8221C66.0277 42.9923 66.4614 43.3145 66.7685 43.7436C67.0756 44.1727 67.2407 44.6871 67.2407 45.2148C67.2407 45.7425 67.0756 46.2569 66.7685 46.686C66.4614 47.1151 66.0277 47.4373 65.5282 47.6074C64.2509 48.2642 62.8353 48.6068 61.3989 48.6068C59.9626 48.6068 58.547 48.2642 57.2696 47.6074C56.7702 47.4373 56.3365 47.1151 56.0294 46.686C55.7223 46.2569 55.5571 45.7425 55.5571 45.2148C55.5571 44.6871 55.7223 44.1727 56.0294 43.7436C56.3365 43.3145 56.7702 42.9923 57.2696 42.8221C58.5497 42.1744 59.9643 41.8369 61.3989 41.8369C62.8336 41.8369 64.2481 42.1744 65.5282 42.8221Z" fill="#36A9E1"/>
<path d="M65.5668 45.0218C66.0663 45.192 66.5 45.5142 66.8071 45.9433C67.1142 46.3724 67.2793 46.8869 67.2793 47.4145C67.2793 47.9422 67.1142 48.4566 66.8071 48.8857C66.5 49.3148 66.0663 49.637 65.5668 49.8072C64.2867 50.4549 62.8721 50.7924 61.4375 50.7924C60.0029 50.7924 58.5883 50.4549 57.3082 49.8072C56.8087 49.637 56.375 49.3148 56.0679 48.8857C55.7608 48.4566 55.5957 47.9422 55.5957 47.4145C55.5957 46.8869 55.7608 46.3724 56.0679 45.9433C56.375 45.5142 56.8087 45.192 57.3082 45.0218C58.5856 44.3651 60.0012 44.0225 61.4375 44.0225C62.8738 44.0225 64.2894 44.3651 65.5668 45.0218Z" fill="white"/>
<path d="M61.3986 49.1704C59.8576 49.1932 58.3364 48.8212 56.9799 48.0899C56.4312 47.8261 55.963 47.4205 55.6237 46.915C55.2845 46.4095 55.0865 45.8225 55.0503 45.2148C55.0904 44.6082 55.29 44.0228 55.6288 43.518C55.9676 43.0132 56.4337 42.6067 56.9799 42.3397C58.3439 41.6389 59.8554 41.2733 61.3889 41.2733C62.9225 41.2733 64.434 41.6389 65.798 42.3397C66.3455 42.6051 66.8126 43.0112 67.1516 43.5163C67.4906 44.0215 67.6894 44.6076 67.7276 45.2148C67.6934 45.8231 67.4962 46.4109 67.1568 46.9167C66.8173 47.4225 66.348 47.8278 65.798 48.0899C64.4484 48.8212 62.9335 49.1933 61.3986 49.1704ZM61.3986 42.3783C60.0539 42.3498 58.7247 42.6689 57.5394 43.3045C57.1526 43.4719 56.8168 43.7385 56.566 44.0773C56.3153 44.4161 56.1585 44.8152 56.1116 45.2341C56.1566 45.6536 56.3126 46.0536 56.5636 46.3927C56.8146 46.7319 57.1514 46.998 57.5394 47.1637C58.734 47.775 60.0567 48.0938 61.3986 48.0938C62.7405 48.0938 64.0632 47.775 65.2577 47.1637C65.6482 46.999 65.988 46.7336 66.2423 46.3946C66.4965 46.0555 66.6562 45.6551 66.7049 45.2341C66.6543 44.8138 66.4939 44.4141 66.2399 44.0754C65.9858 43.7367 65.6471 43.4708 65.2577 43.3045C64.0741 42.6647 62.7437 42.3454 61.3986 42.3783Z" fill="#16110D"/>
<path d="M64.525 39.098C64.8975 39.2332 65.2194 39.4798 65.4468 39.8044C65.6743 40.1289 65.7963 40.5155 65.7963 40.9118C65.7963 41.3081 65.6743 41.6948 65.4468 42.0193C65.2194 42.3438 64.8975 42.5904 64.525 42.7256C63.5546 43.2113 62.4843 43.4641 61.3991 43.4641C60.3139 43.4641 59.2437 43.2113 58.2732 42.7256C57.9007 42.5904 57.5789 42.3438 57.3514 42.0193C57.124 41.6948 57.002 41.3081 57.002 40.9118C57.002 40.5155 57.124 40.1289 57.3514 39.8044C57.5789 39.4798 57.9007 39.2332 58.2732 39.098C59.241 38.6035 60.3123 38.3456 61.3991 38.3456C62.4859 38.3456 63.5573 38.6035 64.525 39.098Z" fill="#36A9E1"/>
<path d="M61.3995 44.1149C60.2085 44.1383 59.0317 43.8524 57.9842 43.2852C57.5223 43.1071 57.1251 42.7934 56.845 42.3852C56.5649 41.9771 56.415 41.4936 56.415 40.9986C56.415 40.5036 56.5649 40.0202 56.845 39.6121C57.1251 39.2039 57.5223 38.8901 57.9842 38.7121C59.0348 38.161 60.2035 37.8732 61.3899 37.8732C62.5762 37.8732 63.7449 38.161 64.7956 38.7121C65.2574 38.8901 65.6546 39.2039 65.9347 39.6121C66.2147 40.0202 66.3647 40.5036 66.3647 40.9986C66.3647 41.4936 66.2147 41.9771 65.9347 42.3852C65.6546 42.7934 65.2574 43.1071 64.7956 43.2852C63.755 43.8525 62.5844 44.1385 61.3995 44.1149ZM61.3995 39.0015C60.4054 38.9776 59.4218 39.2102 58.5437 39.6769C58.2714 39.7895 58.0335 39.9718 57.854 40.2056C57.6745 40.4393 57.5597 40.7161 57.5211 41.0083C57.586 41.2687 57.7104 41.5105 57.8845 41.7147C58.0586 41.9189 58.2776 42.08 58.5244 42.1853C59.4229 42.6353 60.4139 42.8695 61.4188 42.8695C62.4236 42.8695 63.4147 42.6353 64.3132 42.1853C64.5808 42.0684 64.8137 41.8845 64.9895 41.6512C65.1653 41.418 65.2779 41.1434 65.3165 40.8539C65.2836 40.5626 65.1731 40.2854 64.9966 40.0512C64.8202 39.8171 64.5841 39.6345 64.3132 39.5225C63.4124 39.0661 62.408 38.8532 61.3995 38.9051V39.0015Z" fill="#16110D"/>
<path d="M63.0203 33.9653C62.3835 33.7917 61.9783 34.3705 61.6696 34.8529C61.3608 35.3353 61.3222 35.3739 61.2643 35.4318C61.0834 35.2617 60.9275 35.0668 60.8013 34.8529C60.4732 34.3898 60.068 33.811 59.4506 33.9653C57.6175 34.4477 56.479 37.2842 56.479 38.3455C56.479 39.9856 58.5629 41.2784 61.2451 41.2784C63.9272 41.2784 65.9918 39.9856 65.9918 38.3455C65.9918 37.2842 64.7376 34.467 63.0203 33.9653Z" fill="#16110D"/>
<path d="M61.2442 37.5351C62.8747 37.5351 64.1965 36.7835 64.1965 35.8563C64.1965 34.9292 62.8747 34.1776 61.2442 34.1776C59.6138 34.1776 58.292 34.9292 58.292 35.8563C58.292 36.7835 59.6138 37.5351 61.2442 37.5351Z" fill="white"/>
<path d="M61.2442 38.0562C59.3147 38.0562 57.771 37.0914 57.771 35.8565C57.771 34.6215 59.2954 33.6567 61.2442 33.6567C63.1931 33.6567 64.6982 34.6215 64.6982 35.8565C64.6982 37.0914 63.1738 38.0562 61.2442 38.0562ZM61.2442 34.6987C59.8356 34.6987 58.813 35.3162 58.813 35.8565C58.813 36.3967 59.8356 37.0142 61.2442 37.0142C62.6528 37.0142 63.6562 36.3967 63.6562 35.8565C63.6562 35.3162 62.6335 34.6987 61.2442 34.6987Z" fill="#16110D"/>
<path d="M23.4447 88.3215C22.9344 88.0335 22.5588 87.5554 22.3997 86.9914C22.2407 86.4275 22.3111 85.8236 22.5957 85.3114C24.8147 81.4522 29.8702 72.7691 32.6874 69.8748C34.486 67.9862 36.5001 66.3154 38.6883 64.8965C38.9488 64.7258 39.2428 64.6128 39.5505 64.5653C39.8582 64.5177 40.1726 64.5366 40.4724 64.6207C40.7722 64.7048 41.0506 64.8521 41.2887 65.0528C41.5268 65.2535 41.7192 65.5028 41.8528 65.7841C42.0839 66.2668 42.1311 66.8173 41.9855 67.3323C41.8398 67.8474 41.5114 68.2917 41.0617 68.5819C39.1636 69.8007 37.4207 71.2456 35.8712 72.8849C32.349 77.5241 29.1881 82.4268 26.4162 87.5497C26.1228 88.0442 25.6459 88.4027 25.0893 88.5472C24.5328 88.6918 23.9417 88.6107 23.4447 88.3215Z" fill="white"/>
<path d="M20.3569 94.2839C20.1039 94.1467 19.8806 93.9607 19.6999 93.7368C19.5192 93.5128 19.3846 93.2552 19.3038 92.979C19.2231 92.7028 19.1979 92.4133 19.2296 92.1272C19.2613 91.8412 19.3493 91.5642 19.4886 91.3124C19.7695 90.8053 20.2393 90.4296 20.7957 90.267C21.3522 90.1044 21.9503 90.168 22.4601 90.4441C22.9639 90.7283 23.3355 91.1995 23.4944 91.7556C23.6533 92.3118 23.5867 92.9081 23.3091 93.4156C23.0319 93.9213 22.5656 94.2967 22.0123 94.4595C21.459 94.6222 20.8638 94.5591 20.3569 94.2839Z" fill="white"/>
<path d="M60.7046 126.276V125.003L62.1711 124.173V125.427L60.7046 126.276Z" fill="#36A9E1"/>
<path d="M60.7046 122.784V121.51L62.1711 120.68V121.935L60.7046 122.784Z" fill="#36A9E1"/>
<path d="M61.2263 47.0287C56.6103 47.1181 52.0478 46.029 47.9701 43.8642C44.3232 41.7416 42.3164 38.9052 42.3164 35.8565C42.3164 32.8077 44.246 29.9713 47.9701 27.8487C52.0784 25.7654 56.6199 24.6797 61.2263 24.6797C65.8326 24.6797 70.3741 25.7654 74.4824 27.8487C78.11 29.9713 80.1168 32.8077 80.1168 35.8565C80.1168 38.9052 78.1872 41.7416 74.4824 43.8642C70.4028 46.0242 65.8416 47.113 61.2263 47.0287ZM61.2263 25.8033C56.7987 25.7125 52.4214 26.7554 48.5103 28.8328C45.2301 30.7624 43.4163 33.2515 43.4163 35.8757C43.4163 38.5 45.2301 41.0084 48.5103 42.9187C52.4478 44.9171 56.8011 45.9585 61.2166 45.9585C65.6321 45.9585 69.9854 44.9171 73.9229 42.9187C77.2031 40.9891 79.0169 38.5193 79.0169 35.8757C79.0169 33.2322 77.2031 30.7431 73.9229 28.8328C70.0197 26.7511 65.6491 25.7016 61.2263 25.7841V25.8033Z" fill="#16110D"/>
<path d="M61.2447 41.4136C59.0143 41.4591 56.8093 40.9344 54.8385 39.8892C54.0158 39.5831 53.3064 39.0326 52.8055 38.3118C52.3046 37.591 52.0361 36.7342 52.0361 35.8564C52.0361 34.9786 52.3046 34.1218 52.8055 33.4009C53.3064 32.6801 54.0158 32.1297 54.8385 31.8236C56.82 30.8153 59.0118 30.2898 61.235 30.2898C63.4583 30.2898 65.6501 30.8153 67.6316 31.8236C68.4543 32.1297 69.1636 32.6801 69.6645 33.4009C70.1655 34.1218 70.4339 34.9786 70.4339 35.8564C70.4339 36.7342 70.1655 37.591 69.6645 38.3118C69.1636 39.0326 68.4543 39.5831 67.6316 39.8892C65.6686 40.9369 63.4692 41.4618 61.2447 41.4136ZM61.2447 31.3991C59.2291 31.3695 57.2385 31.8472 55.4559 32.7884C54.8063 32.997 54.2396 33.4065 53.8376 33.9579C53.4356 34.5093 53.219 35.174 53.219 35.8564C53.219 36.5387 53.4356 37.2035 53.8376 37.7549C54.2396 38.3062 54.8063 38.7157 55.4559 38.9244C57.2666 39.8477 59.2701 40.329 61.3026 40.329C63.335 40.329 65.3385 39.8477 67.1492 38.9244C67.7988 38.7157 68.3655 38.3062 68.7675 37.7549C69.1695 37.2035 69.3861 36.5387 69.3861 35.8564C69.3861 35.174 69.1695 34.5093 68.7675 33.9579C68.3655 33.4065 67.7988 32.997 67.1492 32.7884C65.3321 31.8282 63.2992 31.3498 61.2447 31.3991Z" fill="#16110D"/>
<path d="M61.2254 71.3605C45.5766 71.3605 29.947 67.9066 18.0415 61.018C6.13605 54.1294 0 45.2727 0 35.6827C0 26.0927 6.42549 17.1009 18.0029 10.3473C41.8139 -3.44912 80.5405 -3.44912 104.351 10.3473C115.929 17.0816 122.393 26.0734 122.393 35.6827C122.393 45.292 115.987 54.2645 104.351 61.018C92.7161 67.7715 76.855 71.3605 61.2254 71.3605ZM61.2254 1.08538C45.7888 1.08538 30.3522 4.50075 18.6011 11.2929C7.33239 17.8341 1.11915 26.4979 1.11915 35.6827C1.11915 44.8675 7.33239 53.5119 18.6011 60.0532C42.1033 73.676 80.3475 73.676 103.83 60.0532C115.118 53.5119 121.332 44.8675 121.332 35.6827C121.332 26.4979 115.118 17.8341 103.83 11.2929C92.0794 4.50075 76.662 1.08538 61.2254 1.08538Z" fill="#16110D"/>
<path d="M113.961 42.9186C112.452 42.94 110.965 42.5534 109.658 41.7994C106.551 40.0049 104.834 36.2615 104.834 31.2639C104.834 21.1915 111.916 8.90016 120.599 3.84467C124.921 1.35552 128.992 0.969606 132.176 2.76411C135.36 4.55862 137 8.30198 137 13.2996C137 23.372 129.918 35.6827 121.235 40.7189C119.044 42.0744 116.536 42.8328 113.961 42.9186ZM127.796 2.76411C125.444 2.86004 123.157 3.56479 121.158 4.80946C112.765 9.67199 105.953 21.5389 105.953 31.2639C105.953 35.837 107.458 39.2524 110.198 40.9118C112.938 42.5712 116.643 42.1274 120.599 39.8312C128.992 34.9687 135.804 23.1018 135.804 13.3768C135.804 8.80368 134.299 5.38833 131.559 3.7289C130.414 3.07489 129.114 2.7416 127.796 2.76411Z" fill="#16110D"/>
<path d="M16.0735 32.5375C17.3084 26.7487 21.7465 21.5389 28.9245 17.371C32.1282 15.553 35.518 14.0846 39.0355 12.9909L38.09 12.1418C34.7385 13.2427 31.5063 14.6778 28.4421 16.4255C20.936 20.7671 16.2858 26.3435 14.9351 32.4024L16.0735 32.5375Z" fill="#16110D"/>
<path d="M7.91113 31.6499L9.01099 31.785C10.4775 25.2244 15.6101 19.1462 23.8687 14.4188C27.4016 12.3577 31.1394 10.6698 35.0217 9.38259L34.0762 8.53357C30.3463 9.77477 26.7466 11.3775 23.3284 13.3189C14.7418 18.3744 9.4162 24.8192 7.91113 31.6499Z" fill="#16110D"/>
<path d="M79.8849 59.4358C78.6288 57.8158 77.177 56.3575 75.5626 55.0942L76.3345 56.252C76.5506 56.5554 76.738 56.8784 76.894 57.2168L77.4343 58.278C77.9915 58.8573 78.5134 59.4694 78.9973 60.1111C80.539 62.2328 81.6348 64.645 82.2185 67.2019C82.8022 69.7589 82.8617 72.4076 82.3933 74.9882L80.3287 87.3374C79.2481 92.007 77.9167 95.3645 74.54 97.6414C73.6717 98.2588 72.6104 98.9342 71.5105 99.7253C68.8284 101.558 65.9148 103.353 62.866 105.07C62.4038 105.343 61.8859 105.507 61.3512 105.55C60.8164 105.594 60.2788 105.515 59.7787 105.321C59.1644 105.062 58.6406 104.627 58.2731 104.071C57.9057 103.514 57.7112 102.862 57.7141 102.195V97.5835L56.6335 98.5483V102.002C56.6122 102.805 56.7959 103.601 57.1673 104.313C57.5387 105.025 58.0854 105.631 58.756 106.074C59.4326 106.498 60.2115 106.731 61.01 106.748C61.8084 106.765 62.5965 106.565 63.2905 106.17C66.4164 104.414 69.4073 102.581 72.1473 100.709L75.1767 98.6255C78.7657 96.1363 80.1936 92.5666 81.3321 87.6269L83.3967 75.1811C83.9048 72.4555 83.8556 69.6552 83.2521 66.9491C82.6485 64.243 81.5031 61.6872 79.8849 59.4358Z" fill="#36A9E1"/>
<path d="M85.538 62.3494C84.756 61.4851 84.0582 60.5483 83.4541 59.5515C83.5026 60.33 83.6651 61.0971 83.9365 61.8284C84.7605 63.905 86.2279 65.6632 88.1237 66.8453C91.9828 69.1222 95.842 71.1675 96.498 71.5342V70.2799C95.3596 69.7011 91.9249 67.7715 88.7797 65.8805C87.3671 65.0582 86.2368 63.8271 85.538 62.3494Z" fill="#36A9E1"/>
<path d="M129.918 6.54611C128.824 5.98401 127.617 5.67643 126.388 5.64636C125.158 5.61629 123.938 5.86451 122.817 6.37245L122.663 7.62667C123.838 7.08404 125.112 6.78851 126.406 6.75836C127.446 6.74415 128.471 7.00368 129.378 7.5109C130.416 8.23525 131.26 9.20369 131.835 10.3309C132.41 11.4581 132.7 12.7096 132.678 13.975L133.777 13.2417C133.71 11.9 133.325 10.5934 132.654 9.42937C131.983 8.26538 131.045 7.27722 129.918 6.54611Z" fill="#16110D"/>
<path d="M53.604 153.889L53.7204 153.773L53.604 153.889Z" fill="white"/>
<path d="M64.7943 156.03C64.6666 155.72 64.4352 155.464 64.1395 155.306C63.8439 155.147 63.5024 155.096 63.1735 155.162C61.8524 155.396 60.5003 155.396 59.1793 155.162C58.1801 155.006 57.2223 154.652 56.3621 154.12L56.0919 153.966C54.7605 153.02 54.1624 153.367 53.815 153.638H53.7186C53.5583 153.782 53.4319 153.96 53.3485 154.159C53.265 154.358 53.2265 154.573 53.2357 154.789C53.2449 155.005 53.3016 155.216 53.4018 155.407C53.5019 155.598 53.643 155.765 53.815 155.895C55.2647 156.994 56.9602 157.722 58.7548 158.018C59.4897 158.123 60.2313 158.175 60.9738 158.172C61.9068 158.177 62.8378 158.087 63.7524 157.902C63.9473 157.853 64.1301 157.765 64.2896 157.643C64.4491 157.521 64.5818 157.368 64.6795 157.192C64.7772 157.017 64.8378 156.823 64.8575 156.623C64.8773 156.423 64.8558 156.221 64.7943 156.03Z" fill="white"/>
<path d="M122.586 25.8804C122.281 25.8816 121.982 25.8017 121.718 25.6488C121.404 25.439 121.152 25.15 120.986 24.8112C120.82 24.4724 120.746 24.0956 120.772 23.7192C120.814 22.8333 121.069 21.9706 121.515 21.2045C121.962 20.4385 122.588 19.7918 123.339 19.3198C123.641 19.0883 124.005 18.9515 124.385 18.9264C124.765 18.9014 125.144 18.9893 125.474 19.1791C125.804 19.3689 126.07 19.652 126.24 19.993C126.409 20.3339 126.474 20.7174 126.426 21.095C126.385 21.9814 126.132 22.8451 125.689 23.6139C125.246 24.3826 124.625 25.0341 123.879 25.5138C123.486 25.7437 123.041 25.8699 122.586 25.8804ZM124.516 19.9952C124.255 20.0084 124.003 20.0881 123.782 20.2267C123.216 20.6191 122.748 21.1364 122.413 21.7386C122.079 22.3408 121.887 23.0119 121.853 23.7C121.853 24.2016 121.988 24.5683 122.239 24.7033C122.417 24.7739 122.61 24.7967 122.8 24.7696C122.989 24.7426 123.168 24.6665 123.319 24.549C123.886 24.1566 124.354 23.6393 124.689 23.0371C125.023 22.4349 125.215 21.7638 125.249 21.0757C125.272 20.8896 125.249 20.7007 125.182 20.5256C125.115 20.3506 125.005 20.1949 124.863 20.0723C124.786 20.0284 124.7 20.002 124.612 19.9952H124.516Z" fill="#36A9E1"/>
</svg>
