<svg width="150" height="102" viewBox="0 0 150 102" fill="none" xmlns="http://www.w3.org/2000/svg">
<path d="M4.71126 55.8724L2.88665 56.9079C2.6894 57.0066 2.39352 57.0066 2.14695 56.8586L0.420972 55.8724C0.223718 55.7244 0.174416 55.5765 0.371671 55.4285L2.19625 54.393C2.39351 54.2943 2.68939 54.2943 2.93596 54.4423L4.66193 55.4285C4.85919 55.5765 4.90852 55.7737 4.71126 55.8724Z" fill="#16110D"/>
<path d="M8.95296 58.3379L7.12835 59.3735C6.9311 59.4721 6.63522 59.4722 6.38865 59.3242L4.66267 58.3379C4.46542 58.19 4.41612 58.0421 4.61337 57.8941L6.43798 56.8585C6.63523 56.7599 6.93112 56.7599 7.17768 56.9078L8.90366 57.8941C9.10092 58.0421 9.15022 58.2393 8.95296 58.3379Z" fill="#16110D"/>
<path d="M4.46517 60.9024L2.64056 61.938C2.4433 62.0366 2.14742 62.0366 1.90086 61.8887L0.174879 60.9024C-0.0223759 60.7544 -0.0716775 60.6065 0.125577 60.4586L1.95016 59.423C2.14741 59.3244 2.44329 59.3244 2.68986 59.4723L4.41584 60.4586C4.66241 60.6065 4.66242 60.8038 4.46517 60.9024Z" fill="#16110D"/>
<path d="M13.4408 60.9024L11.6162 61.938C11.4189 62.0366 11.123 62.0366 10.8765 61.8887L9.15048 60.9024C8.95323 60.7544 8.9039 60.6065 9.10115 60.4586L10.9258 59.423C11.123 59.3244 11.4189 59.3244 11.6655 59.4723L13.3914 60.4586C13.5887 60.6065 13.5887 60.8038 13.4408 60.9024Z" fill="#16110D"/>
<path d="M8.95296 63.5159L7.12835 64.5515C6.9311 64.6501 6.63522 64.6501 6.38865 64.5022L4.66267 63.5159C4.46542 63.368 4.41612 63.22 4.61337 63.0721L6.43798 62.0365C6.63523 61.9379 6.93112 61.9379 7.17768 62.0858L8.90366 63.0721C9.10092 63.22 9.15022 63.368 8.95296 63.5159Z" fill="#16110D"/>
<path d="M17.681 63.368L15.8564 64.4036C15.6591 64.5022 15.3632 64.5022 15.1167 64.3542L13.3907 63.368C13.1934 63.22 13.1441 63.0721 13.3414 62.9242L15.166 61.8886C15.3633 61.7899 15.6591 61.7899 15.9057 61.9379L17.6317 62.9242C17.8289 63.0721 17.8289 63.2693 17.681 63.368Z" fill="#16110D"/>
<path d="M13.1937 65.9324L11.3691 66.968C11.1718 67.0666 10.876 67.0666 10.6294 66.9187L8.90341 65.9324C8.70616 65.7845 8.65683 65.6366 8.85408 65.4886L10.6787 64.453C10.8759 64.3544 11.1718 64.3544 11.4184 64.5023L13.1444 65.4886C13.3416 65.6366 13.391 65.8338 13.1937 65.9324Z" fill="#16110D"/>
<path d="M21.8729 65.8338L20.0483 66.8694C19.851 66.968 19.5551 66.968 19.3086 66.8201L17.5826 65.8338C17.3853 65.6858 17.336 65.5379 17.5333 65.39L19.3579 64.3544C19.5552 64.2557 19.851 64.2558 20.0976 64.4037L21.8236 65.39C22.0702 65.5379 22.0701 65.6858 21.8729 65.8338Z" fill="#16110D"/>
<path d="M17.4344 68.398L15.6098 69.4336C15.4125 69.5322 15.1167 69.5322 14.8701 69.3843L13.1441 68.398C12.9469 68.2501 12.8976 68.1021 13.0948 67.9542L14.9194 66.9186C15.1167 66.82 15.4126 66.82 15.6591 66.9679L17.3851 67.9542C17.5824 68.1021 17.6317 68.2994 17.4344 68.398Z" fill="#16110D"/>
<path d="M26.3602 68.398L24.5356 69.4336C24.3383 69.5322 24.0425 69.5322 23.7959 69.3843L22.0699 68.398C21.8727 68.2501 21.8233 68.1021 22.0206 67.9542L23.8452 66.9186C24.0424 66.82 24.3383 66.82 24.5849 66.9679L26.3109 67.9542C26.5574 68.1021 26.5574 68.2994 26.3602 68.398Z" fill="#16110D"/>
<path d="M21.9222 70.9622L20.0976 71.9978C19.9004 72.0964 19.6045 72.0964 19.3579 71.9485L17.6319 70.9622C17.4347 70.8143 17.3853 70.6663 17.5826 70.5184L19.4072 69.4828C19.6045 69.3842 19.9003 69.3842 20.1469 69.5321L21.8729 70.5184C22.0701 70.6663 22.1194 70.8636 21.9222 70.9622Z" fill="#16110D"/>
<path d="M30.6014 70.8636L28.7768 71.8992C28.5795 71.9978 28.2837 71.9978 28.0371 71.8498L26.3111 70.8636C26.1139 70.7156 26.0646 70.5677 26.2618 70.4198L28.0864 69.3842C28.2836 69.2855 28.5795 69.2855 28.8261 69.4335L30.5521 70.4198C30.7986 70.5677 30.7987 70.7156 30.6014 70.8636Z" fill="#16110D"/>
<path d="M26.1629 73.428L24.3383 74.4636C24.1411 74.5622 23.8452 74.5622 23.5986 74.4143L21.8726 73.428C21.6754 73.2801 21.6261 73.1321 21.8233 72.9842L23.6479 71.9486C23.8452 71.85 24.141 71.85 24.3876 71.9979L26.1136 72.9842C26.3108 73.1321 26.3602 73.3294 26.1629 73.428Z" fill="#16110D"/>
<path d="M34.8421 73.2801L33.0175 74.3157C32.8203 74.4143 32.5244 74.4143 32.2778 74.2664L30.5518 73.2801C30.3546 73.1321 30.3053 72.9842 30.5025 72.8362L32.3271 71.8007C32.5244 71.702 32.8203 71.702 33.0668 71.85L34.7928 72.8362C34.9901 72.9842 35.0394 73.1815 34.8421 73.2801Z" fill="#16110D"/>
<path d="M30.4041 75.8443L28.5795 76.8799C28.3823 76.9785 28.0864 76.9785 27.8398 76.8306L26.1138 75.8443C25.9166 75.6964 25.8673 75.5484 26.0645 75.4005L27.8892 74.3649C28.0864 74.2663 28.3823 74.2662 28.6289 74.4142L30.3548 75.4005C30.5521 75.5484 30.5521 75.7457 30.4041 75.8443Z" fill="#16110D"/>
<path d="M39.3299 75.8936L37.5053 76.9292C37.3081 77.0278 37.0122 77.0278 36.7656 76.8799L35.0396 75.8936C34.8424 75.7457 34.7931 75.5977 34.9903 75.4498L36.8149 74.4142C37.0122 74.3156 37.3081 74.3156 37.5546 74.4635L39.2806 75.4498C39.4779 75.5977 39.5272 75.795 39.3299 75.8936Z" fill="#16110D"/>
<path d="M34.8919 78.4581L33.0673 79.4936C32.8701 79.5923 32.5742 79.5923 32.3276 79.4443L30.6017 78.4581C30.4044 78.3101 30.3551 78.1622 30.5523 78.0142L32.3769 76.9787C32.5742 76.88 32.8701 76.88 33.1166 77.028L34.8426 78.0142C35.0399 78.1622 35.0399 78.3594 34.8919 78.4581Z" fill="#16110D"/>
<path d="M43.5711 78.3101L41.7465 79.3457C41.5493 79.4443 41.2534 79.4443 41.0068 79.2964L39.2808 78.3101C39.0836 78.1622 39.0343 78.0142 39.2315 77.8663L41.0561 76.8307C41.2534 76.7321 41.5493 76.7321 41.7958 76.88L43.5218 77.8663C43.7191 78.0142 43.7684 78.2115 43.5711 78.3101Z" fill="#16110D"/>
<path d="M39.0838 80.9236L37.2592 81.9592C37.062 82.0578 36.7661 82.0579 36.5195 81.9099L34.7935 80.9236C34.5963 80.7757 34.547 80.6277 34.7442 80.4798L36.5688 79.4442C36.7661 79.3456 37.062 79.3456 37.3085 79.4935L39.0345 80.4798C39.2811 80.6277 39.2811 80.7757 39.0838 80.9236Z" fill="#16110D"/>
<path d="M47.8113 80.7757L45.9868 81.8113C45.7895 81.9099 45.4936 81.9099 45.2471 81.762L43.5211 80.7757C43.3238 80.6277 43.2745 80.4798 43.4718 80.3319L45.2964 79.2963C45.4936 79.1977 45.7895 79.1976 46.0361 79.3456L47.762 80.3319C47.9593 80.4798 48.0086 80.6771 47.8113 80.7757Z" fill="#16110D"/>
<path d="M43.3241 83.3401L41.4994 84.3757C41.3022 84.4744 41.0063 84.4743 40.7597 84.3264L39.0338 83.3401C38.8365 83.1922 38.7872 83.0443 38.9845 82.8963L40.8091 81.8607C41.0063 81.7621 41.3022 81.7621 41.5488 81.9101L43.2748 82.8963C43.5213 83.0443 43.5213 83.2415 43.3241 83.3401Z" fill="#16110D"/>
<path d="M52.2996 83.3401L50.475 84.3757C50.2778 84.4744 49.9819 84.4743 49.7353 84.3264L48.0094 83.3401C47.8121 83.1922 47.7628 83.0443 47.96 82.8963L49.7846 81.8607C49.9819 81.7621 50.2778 81.7621 50.5243 81.9101L52.2503 82.8963C52.4476 83.0443 52.4969 83.2415 52.2996 83.3401Z" fill="#16110D"/>
<path d="M47.8113 85.9537L45.9868 86.9892C45.7895 87.0879 45.4936 87.0879 45.2471 86.9399L43.5211 85.9537C43.3238 85.8057 43.2745 85.6578 43.4718 85.5098L45.2964 84.4743C45.4936 84.3756 45.7895 84.3756 46.0361 84.5236L47.762 85.5098C48.0086 85.6578 48.0086 85.8057 47.8113 85.9537Z" fill="#16110D"/>
<path d="M56.5404 85.8057L54.7158 86.8413C54.5185 86.9399 54.2226 86.9399 53.9761 86.792L52.2501 85.8057C52.0528 85.6578 52.0035 85.5098 52.2008 85.3619L54.0254 84.3263C54.2226 84.2277 54.5185 84.2277 54.7651 84.3756L56.4911 85.3619C56.6883 85.5098 56.7376 85.7071 56.5404 85.8057Z" fill="#16110D"/>
<path d="M52.0531 88.3699L50.2285 89.4055C50.0312 89.5041 49.7353 89.5041 49.4887 89.3562L47.7628 88.3699C47.5655 88.222 47.5162 88.0741 47.7135 87.9261L49.538 86.8905C49.7353 86.7919 50.0312 86.7919 50.2778 86.9398L52.0037 87.9261C52.2503 88.0741 52.2503 88.2713 52.0531 88.3699Z" fill="#16110D"/>
<path d="M60.7816 88.2713L58.957 89.3069C58.7597 89.4055 58.4638 89.4055 58.2173 89.2576L56.4913 88.2713C56.294 88.1233 56.2447 87.9754 56.442 87.8275L58.2666 86.7919C58.4638 86.6932 58.7597 86.6933 59.0063 86.8412L60.7323 87.8275C60.9295 87.9754 60.9295 88.1233 60.7816 88.2713Z" fill="#16110D"/>
<path d="M56.2938 90.8357L54.4692 91.8713C54.2719 91.97 53.976 91.9699 53.7295 91.822L52.0035 90.8357C51.8062 90.6878 51.7569 90.5399 51.9542 90.3919L53.7788 89.3563C53.9761 89.2577 54.2719 89.2577 54.5185 89.4057L56.2445 90.3919C56.4417 90.5399 56.491 90.7371 56.2938 90.8357Z" fill="#16110D"/>
<path d="M65.2689 90.8357L63.4443 91.8713C63.247 91.97 62.9511 91.9699 62.7046 91.822L60.9786 90.8357C60.7813 90.6878 60.732 90.5399 60.9293 90.3919L62.7539 89.3563C62.9512 89.2577 63.247 89.2577 63.4936 89.4057L65.2196 90.3919C65.4168 90.5399 65.4168 90.7371 65.2689 90.8357Z" fill="#16110D"/>
<path d="M60.7816 93.4L58.957 94.4355C58.7597 94.5342 58.4638 94.5342 58.2173 94.3862L56.4913 93.4C56.294 93.252 56.2447 93.1041 56.442 92.9561L58.2666 91.9205C58.4638 91.8219 58.7597 91.8219 59.0063 91.9699L60.7323 92.9561C60.9295 93.1041 60.9788 93.3013 60.7816 93.4Z" fill="#16110D"/>
<path d="M69.4603 93.3013L67.6357 94.3369C67.4384 94.4355 67.1425 94.4355 66.896 94.2876L65.17 93.3013C64.9727 93.1534 64.9234 93.0054 65.1207 92.8575L66.9453 91.8219C67.1426 91.7233 67.4384 91.7233 67.685 91.8712L69.411 92.8575C69.6576 93.0054 69.6575 93.1534 69.4603 93.3013Z" fill="#16110D"/>
<path d="M65.0223 95.8655L63.1977 96.9011C63.0004 96.9997 62.7046 96.9997 62.458 96.8518L60.732 95.8655C60.5348 95.7176 60.4855 95.5696 60.6827 95.4217L62.5073 94.3861C62.7046 94.2875 63.0005 94.2875 63.247 94.4354L64.973 95.4217C65.1703 95.5696 65.2196 95.7669 65.0223 95.8655Z" fill="#16110D"/>
<path d="M73.7015 95.7178L71.8769 96.7534C71.6797 96.852 71.3838 96.852 71.1372 96.7041L69.4112 95.7178C69.214 95.5699 69.1646 95.4219 69.3619 95.274L71.1865 94.2384C71.3838 94.1398 71.6796 94.1398 71.9262 94.2877L73.6522 95.274C73.8988 95.4219 73.8987 95.6192 73.7015 95.7178Z" fill="#16110D"/>
<path d="M69.2635 98.3314L67.4389 99.3669C67.2417 99.4656 66.9458 99.4656 66.6992 99.3176L64.9732 98.3314C64.776 98.1834 64.7267 98.0355 64.9239 97.8875L66.7485 96.8519C66.9458 96.7533 67.2417 96.7533 67.4882 96.9012L69.2142 97.8875C69.4114 98.0355 69.4608 98.1834 69.2635 98.3314Z" fill="#16110D"/>
<path d="M78.1888 98.3314L76.3642 99.3669C76.1669 99.4656 75.8711 99.4656 75.6245 99.3176L73.8985 98.3314C73.7013 98.1834 73.652 98.0355 73.8492 97.8875L75.6738 96.8519C75.871 96.7533 76.1669 96.7533 76.4135 96.9012L78.1395 97.8875C78.386 98.0355 78.3861 98.2327 78.1888 98.3314Z" fill="#16110D"/>
<path d="M73.7508 100.896L71.9262 101.931C71.7289 102.03 71.4331 102.03 71.1865 101.882L69.4605 100.896C69.2633 100.748 69.214 100.6 69.4112 100.452L71.2358 99.4162C71.4331 99.3175 71.7289 99.3175 71.9755 99.4655L73.7015 100.452C73.8987 100.6 73.9481 100.797 73.7508 100.896Z" fill="#16110D"/>
<path d="M82.6766 95.7671L80.852 96.8027C80.6547 96.9014 80.3588 96.9013 80.1123 96.7534L78.3863 95.7671C78.189 95.6192 78.1397 95.4713 78.337 95.3233L80.1616 94.2877C80.3589 94.1891 80.6547 94.1891 80.9013 94.3371L82.6273 95.3233C82.8245 95.4713 82.8739 95.6192 82.6766 95.7671Z" fill="#16110D"/>
<path d="M87.1151 93.1534L85.2905 94.1889C85.0932 94.2876 84.7973 94.2876 84.5508 94.1396L82.8248 93.1534C82.6275 93.0054 82.5782 92.8575 82.7755 92.7095L84.6001 91.674C84.7973 91.5753 85.0932 91.5753 85.3398 91.7233L87.0658 92.7095C87.3123 92.8575 87.3123 93.0547 87.1151 93.1534Z" fill="#16110D"/>
<path d="M91.6029 90.5892L89.7783 91.6248C89.581 91.7234 89.2851 91.7234 89.0386 91.5754L87.3126 90.5892C87.1153 90.4412 87.066 90.2933 87.2633 90.1453L89.0879 89.1097C89.2851 89.0111 89.581 89.0111 89.8276 89.1591L91.5536 90.1453C91.7508 90.2933 91.8001 90.4905 91.6029 90.5892Z" fill="#16110D"/>
<path d="M96.0409 88.0249L94.2163 89.0605C94.019 89.1592 93.7231 89.1592 93.4766 89.0112L91.7506 88.0249C91.5533 87.877 91.504 87.7291 91.7012 87.5811L93.5259 86.5455C93.7231 86.4469 94.019 86.4469 94.2656 86.5949L95.9915 87.5811C96.2381 87.7291 96.2381 87.9263 96.0409 88.0249Z" fill="#16110D"/>
<path d="M100.528 85.4112L98.7035 86.4468C98.5063 86.5454 98.2104 86.5454 97.9638 86.3974L96.2379 85.4112C96.0406 85.2632 95.9913 85.1153 96.1886 84.9674L98.0132 83.9318C98.2104 83.8331 98.5063 83.8332 98.7529 83.9811L100.479 84.9674C100.676 85.1153 100.725 85.3125 100.528 85.4112Z" fill="#16110D"/>
<path d="M104.967 82.847L103.142 83.8826C102.945 83.9812 102.649 83.9812 102.402 83.8332L100.676 82.847C100.479 82.699 100.43 82.5511 100.627 82.4032L102.452 81.3676C102.649 81.2689 102.945 81.2689 103.191 81.4169L104.917 82.4032C105.164 82.5511 105.164 82.7483 104.967 82.847Z" fill="#16110D"/>
<path d="M109.454 80.2825L107.629 81.3181C107.432 81.4167 107.136 81.4167 106.89 81.2688L105.164 80.2825C104.966 80.1346 104.917 79.9866 105.114 79.8387L106.939 78.8031C107.136 78.7045 107.432 78.7045 107.679 78.8524L109.405 79.8387C109.602 79.9866 109.651 80.1839 109.454 80.2825Z" fill="#16110D"/>
<path d="M113.892 77.7183L112.067 78.7539C111.87 78.8525 111.574 78.8525 111.328 78.7046L109.602 77.7183C109.404 77.5704 109.355 77.4224 109.552 77.2745L111.377 76.2389C111.574 76.1403 111.87 76.1403 112.117 76.2882L113.843 77.2745C114.089 77.4224 114.089 77.6197 113.892 77.7183Z" fill="#16110D"/>
<path d="M118.38 75.1045L116.555 76.1401C116.358 76.2387 116.062 76.2388 115.815 76.0908L114.089 75.1045C113.892 74.9566 113.843 74.8087 114.04 74.6607L115.865 73.6251C116.062 73.5265 116.358 73.5265 116.604 73.6744L118.33 74.6607C118.528 74.8087 118.577 75.0059 118.38 75.1045Z" fill="#16110D"/>
<path d="M122.818 72.5403L120.994 73.5759C120.796 73.6745 120.5 73.6746 120.254 73.5266L118.528 72.5403C118.331 72.3924 118.281 72.2444 118.479 72.0965L120.303 71.0609C120.5 70.9623 120.796 70.9623 121.043 71.1102L122.769 72.0965C123.015 72.2444 123.015 72.4417 122.818 72.5403Z" fill="#16110D"/>
<path d="M127.306 69.9761L125.481 71.0117C125.284 71.1103 124.988 71.1103 124.741 70.9624L123.015 69.9761C122.818 69.8282 122.769 69.6802 122.966 69.5323L124.791 68.4967C124.988 68.3981 125.284 68.3981 125.53 68.546L127.256 69.5323C127.453 69.6802 127.503 69.8775 127.306 69.9761Z" fill="#16110D"/>
<path d="M131.743 67.4117L129.919 68.4473C129.722 68.5459 129.426 68.5459 129.179 68.3979L127.453 67.4117C127.256 67.2637 127.207 67.1158 127.404 66.9679L129.229 65.9323C129.426 65.8336 129.722 65.8336 129.968 65.9816L131.694 66.9679C131.941 67.1158 131.941 67.2637 131.743 67.4117Z" fill="#16110D"/>
<path d="M136.231 64.7982L134.407 65.8337C134.209 65.9324 133.914 65.9324 133.667 65.7844L131.941 64.7982C131.744 64.6502 131.694 64.5023 131.892 64.3543L133.716 63.3187C133.914 63.2201 134.209 63.2201 134.456 63.368L136.182 64.3543C136.379 64.5023 136.429 64.6995 136.231 64.7982Z" fill="#16110D"/>
<path d="M140.67 62.2339L138.845 63.2695C138.648 63.3682 138.352 63.3681 138.105 63.2202L136.379 62.2339C136.182 62.086 136.133 61.9381 136.33 61.7901L138.155 60.7545C138.352 60.6559 138.648 60.6559 138.894 60.8039L140.62 61.7901C140.867 61.9381 140.867 62.1353 140.67 62.2339Z" fill="#16110D"/>
<path d="M145.157 59.6695L143.332 60.7051C143.135 60.8037 142.839 60.8037 142.593 60.6557L140.867 59.6695C140.67 59.5215 140.62 59.3736 140.817 59.2257L142.642 58.1901C142.839 58.0914 143.135 58.0915 143.382 58.2394L145.108 59.2257C145.305 59.3736 145.354 59.5708 145.157 59.6695Z" fill="#16110D"/>
<path d="M82.43 100.748L80.6054 101.783C80.4081 101.882 80.1123 101.882 79.8657 101.734L78.1397 100.748C77.9425 100.6 77.8932 100.452 78.0904 100.304L79.915 99.2684C80.1123 99.1698 80.4082 99.1698 80.6547 99.3178L82.3807 100.304C82.578 100.452 82.6273 100.649 82.43 100.748Z" fill="#16110D"/>
<path d="M86.9178 98.1834L85.0932 99.219C84.896 99.3176 84.6001 99.3176 84.3535 99.1697L82.6275 98.1834C82.4303 98.0355 82.3809 97.8875 82.5782 97.7396L84.4028 96.704C84.6001 96.6054 84.8959 96.6054 85.1425 96.7533L86.8685 97.7396C87.0657 97.8875 87.0658 98.0848 86.9178 98.1834Z" fill="#16110D"/>
<path d="M91.3558 95.6192L89.5312 96.6548C89.3339 96.7534 89.0381 96.7534 88.7915 96.6055L87.0655 95.6192C86.8683 95.4713 86.8189 95.3233 87.0162 95.1754L88.8408 94.1398C89.0381 94.0412 89.3339 94.0411 89.5805 94.1891L91.3065 95.1754C91.553 95.3233 91.5531 95.5206 91.3558 95.6192Z" fill="#16110D"/>
<path d="M95.8431 93.0547L94.0185 94.0903C93.8212 94.189 93.5254 94.1889 93.2788 94.041L91.5528 93.0547C91.3556 92.9068 91.3063 92.7589 91.5035 92.6109L93.3281 91.5753C93.5254 91.4767 93.8213 91.4767 94.0678 91.6247L95.7938 92.6109C95.9911 92.7589 95.991 92.9068 95.8431 93.0547Z" fill="#16110D"/>
<path d="M100.282 90.4412L98.457 91.4768C98.2597 91.5754 97.9638 91.5754 97.7173 91.4275L95.9913 90.4412C95.794 90.2933 95.7447 90.1453 95.942 89.9974L97.7666 88.9618C97.9638 88.8632 98.2597 88.8632 98.5063 89.0111L100.232 89.9974C100.479 90.1453 100.479 90.3426 100.282 90.4412Z" fill="#16110D"/>
<path d="M104.769 87.8768L102.945 88.9124C102.748 89.011 102.452 89.011 102.205 88.863L100.479 87.8768C100.282 87.7288 100.233 87.5809 100.43 87.4329L102.254 86.3973C102.452 86.2987 102.748 86.2987 102.994 86.4467L104.72 87.4329C104.917 87.5809 104.967 87.7781 104.769 87.8768Z" fill="#16110D"/>
<path d="M109.207 85.3125L107.383 86.3481C107.186 86.4468 106.89 86.4468 106.643 86.2988L104.917 85.3125C104.72 85.1646 104.67 85.0167 104.868 84.8687L106.692 83.8331C106.89 83.7345 107.185 83.7345 107.432 83.8825L109.158 84.8687C109.405 85.0167 109.405 85.2139 109.207 85.3125Z" fill="#16110D"/>
<path d="M113.695 82.7483L111.87 83.7839C111.673 83.8825 111.377 83.8826 111.13 83.7346L109.404 82.7483C109.207 82.6004 109.158 82.4525 109.355 82.3045L111.18 81.2689C111.377 81.1703 111.673 81.1703 111.919 81.3182L113.645 82.3045C113.843 82.4525 113.892 82.6004 113.695 82.7483Z" fill="#16110D"/>
<path d="M118.133 80.1346L116.309 81.1702C116.111 81.2688 115.815 81.2688 115.569 81.1208L113.843 80.1346C113.646 79.9866 113.596 79.8387 113.794 79.6908L115.618 78.6552C115.815 78.5565 116.111 78.5565 116.358 78.7045L118.084 79.6908C118.33 79.8387 118.33 80.0359 118.133 80.1346Z" fill="#16110D"/>
<path d="M122.621 77.5704L120.796 78.6059C120.599 78.7046 120.303 78.7046 120.057 78.5566L118.331 77.5704C118.133 77.4224 118.084 77.2745 118.281 77.1265L120.106 76.091C120.303 75.9923 120.599 75.9923 120.846 76.1403L122.572 77.1265C122.769 77.2745 122.818 77.4717 122.621 77.5704Z" fill="#16110D"/>
<path d="M127.059 75.0062L125.234 76.0417C125.037 76.1404 124.741 76.1404 124.495 75.9924L122.769 75.0062C122.571 74.8582 122.522 74.7103 122.719 74.5623L124.544 73.5268C124.741 73.4281 125.037 73.4281 125.284 73.5761L127.01 74.5623C127.256 74.7103 127.256 74.9075 127.059 75.0062Z" fill="#16110D"/>
<path d="M131.547 72.4417L129.722 73.4773C129.525 73.5759 129.229 73.5759 128.982 73.428L127.256 72.4417C127.059 72.2938 127.01 72.1458 127.207 71.9979L129.032 70.9623C129.229 70.8637 129.525 70.8637 129.771 71.0116L131.497 71.9979C131.695 72.1458 131.744 72.2938 131.547 72.4417Z" fill="#16110D"/>
<path d="M135.985 69.8282L134.161 70.8638C133.963 70.9624 133.667 70.9624 133.421 70.8145L131.695 69.8282C131.498 69.6802 131.448 69.5323 131.646 69.3843L133.47 68.3488C133.667 68.2501 133.963 68.2501 134.21 68.3981L135.936 69.3843C136.182 69.5323 136.182 69.7296 135.985 69.8282Z" fill="#16110D"/>
<path d="M140.472 67.2637L138.647 68.2993C138.45 68.3979 138.154 68.3979 137.908 68.25L136.182 67.2637C135.984 67.1158 135.935 66.9678 136.132 66.8199L137.957 65.7843C138.154 65.6857 138.45 65.6857 138.697 65.8336L140.423 66.8199C140.62 66.9678 140.669 67.1651 140.472 67.2637Z" fill="#16110D"/>
<path d="M144.91 64.6995L143.086 65.7351C142.889 65.8337 142.593 65.8337 142.346 65.6858L140.62 64.6995C140.423 64.5516 140.374 64.4036 140.571 64.2557L142.395 63.2201C142.593 63.1215 142.889 63.1215 143.135 63.2694L144.861 64.2557C145.108 64.4036 145.108 64.6009 144.91 64.6995Z" fill="#16110D"/>
<path d="M149.398 62.1351L147.573 63.1707C147.376 63.2693 147.08 63.2693 146.833 63.1213L145.108 62.1351C144.91 61.9871 144.861 61.8392 145.058 61.6912L146.883 60.6556C147.08 60.557 147.376 60.557 147.622 60.705L149.348 61.6912C149.546 61.8392 149.595 61.9871 149.398 62.1351Z" fill="#16110D"/>
<path d="M149.595 57.1053L147.77 58.1409C147.573 58.2395 147.277 58.2395 147.031 58.0916L145.305 57.1053C145.108 56.9573 145.058 56.8094 145.255 56.6614L147.08 55.6259C147.277 55.5272 147.573 55.5272 147.82 55.6752L149.546 56.6614C149.743 56.8094 149.792 57.0067 149.595 57.1053Z" fill="#16110D"/>
<path d="M103.734 19.4787L103.832 19.1828C104.671 18.9855 105.509 18.739 106.199 18.3445C107.531 17.5554 108.123 16.5199 108.024 15.5336V6.85439L103.438 5.17773L94.4627 11.5392L76.3646 9.91184L75.8715 9.61596L75.5263 9.81321L73.3072 9.61596H64.4307H61.5705L61.5212 20.4156H51.7078L42.5355 21.9444L39.478 21.7471V30.6236L48.1079 35.6042L48.3545 36.2946L43.8176 36.6398V45.4669C43.7683 47.2422 45.9874 49.0669 50.475 49.3134C54.2228 48.8696 56.1953 47.4395 56.4912 45.9108C58.0693 42.3602 62.0143 43.593 62.0637 43.593L76.0194 51.6312L89.9752 43.593C89.9752 43.593 90.3204 43.2478 90.3204 42.7547C90.3204 42.7054 90.3204 42.6561 90.3204 42.6068V33.7796C90.6162 33.8783 90.9121 34.0262 91.1587 34.1741C92.2436 34.7659 92.8354 35.5549 92.9833 36.3439C94.5613 39.8945 98.5064 38.6617 98.5557 38.6617L112.511 30.6236V21.7471L103.734 19.4787Z" fill="#36A9E1"/>
<path d="M75.8714 52.3218L75.5756 52.1738L61.6691 44.1357C61.2253 43.9878 58.1679 43.2974 56.8857 46.1083C56.4912 48.0808 54.0255 49.5109 50.3763 49.9054C45.6422 49.6095 43.3738 47.7356 43.1272 45.911H43.0779V45.5165V36.1962L43.571 36.0976L47.1709 35.8017L38.7876 30.969V30.6238V21.5008L39.1821 21.1556L39.4287 21.2049L42.3875 21.4021L51.5105 19.8734H60.8801L60.9294 9.07372H61.5212H73.2578L75.329 9.27098L75.8221 8.97509L76.4632 9.36961L94.2161 10.997L103.29 4.58618L108.517 6.50941V6.90393L108.468 16.1749C108.32 17.2105 107.58 18.1967 106.347 18.9364C106.002 19.1337 105.657 19.2816 105.262 19.4296L112.758 21.4021V21.8459V31.0183L112.511 31.2155L98.6543 39.155C98.5064 39.2043 94.0682 40.5851 92.2929 36.5907L92.2436 36.4428C92.1449 35.8017 91.6025 35.1606 90.7148 34.6675V42.607C90.7148 42.6563 90.7148 42.7056 90.7148 42.8042C90.6655 43.4946 90.271 43.9384 90.2217 43.9878L90.0738 44.0864L75.8714 52.3218ZM62.2609 43.1494L75.8714 50.9903L89.4327 43.1494C89.482 43.0508 89.5806 42.9029 89.5806 42.7056V42.6563V42.5577V32.8922L90.3697 33.1881C90.6655 33.336 91.0107 33.4346 91.3066 33.6319C92.4408 34.3223 93.1805 35.1606 93.3778 36.1469C94.6599 38.9085 97.6681 38.2181 98.1612 38.1194L111.772 30.2786V22.1912L103.043 19.9227L103.388 18.6899L103.734 18.6406C104.572 18.4433 105.312 18.1967 105.903 17.8515C106.988 17.2105 107.531 16.4215 107.432 15.5831L107.383 14.942H107.481V7.19981L103.536 5.76971L94.6106 12.0325H94.4133L76.0194 10.3066L75.8221 10.2079L75.6249 10.3559L73.2578 10.1586H62.1129L62.0636 20.9583H61.4719H51.6585L42.4368 22.487L39.9711 22.3391V30.2786L48.5024 35.2099L49.0448 36.788L44.2614 37.1825V45.0727V45.5165C44.2121 46.8973 46.1353 48.5246 50.3763 48.7712C54.0255 48.3274 55.6035 46.9466 55.8008 45.8124L55.8501 45.6644C57.2309 42.5577 60.4363 42.5577 62.0143 43.0015H62.1623L62.2609 43.1494Z" fill="#16110D"/>
<path d="M50.4751 40.2892V49.1657L52.9408 48.7712L55.6037 47.2424L56.4914 45.5165L57.8228 44.0864L59.8447 43.4453H60.8803V34.5688H59.6968L57.7735 35.2592L56.7379 36.1469L55.653 38.3167L53.6805 39.8454L50.4751 40.2892Z" fill="#16110D"/>
<path d="M75.8223 42.8042V51.6807L89.9753 43.248L90.3205 34.6182L88.6931 35.1606L75.8223 42.8042C75.8223 42.7549 75.8223 42.7549 75.8223 42.8042Z" fill="#16110D"/>
<path d="M86.819 24.2129V31.6592L83.4657 31.0675L80.3096 28.4539L80.5561 25.7909L83.9588 24.2129H86.819Z" fill="#16110D"/>
<path d="M96.4351 29.9827V38.8591L98.4076 38.6619L112.363 30.6238V21.7473L99.5418 29.3416L96.4351 29.9827Z" fill="#16110D"/>
<path d="M107.777 7.84082L107.925 16.2735L106.149 18.2953L98.3579 13.6598L98.0127 12.5256L99.4921 11.1448L103.339 10.3065L106.938 8.92573L107.777 7.84082Z" fill="#16110D"/>
<path d="M93.3779 27.4678H92.2437V36.3442H93.3779V27.4678Z" fill="#16110D"/>
<path d="M68.3759 12.1313H67.2417V19.4298H68.3759V12.1313Z" fill="#16110D"/>
<path d="M148.757 42.8043H141.36L135.689 44.1358L134.851 43.6427C134.851 43.6427 131.3 42.5578 129.574 45.418H120.895C120.895 45.418 120.895 45.418 120.895 45.3686L126.615 42.5578V39.7469C126.615 39.6976 126.615 39.5989 126.615 39.5496V30.6732H113.892L112.955 31.0184L112.364 30.6732L109.997 32.054L100.775 35.21L87.9041 27.7144H80.1619V36.936C80.2112 37.8237 80.8029 38.7113 81.9865 39.3524C83.0714 39.9441 84.4028 40.3386 85.7836 40.388C86.7699 40.5359 87.5096 40.7332 88.1013 40.9304L86.474 42.5084L82.3316 41.7687L75.8223 42.8043V51.6808L89.778 59.7189C89.778 59.7189 93.7724 60.9517 95.3504 57.4012C95.4984 56.6121 96.0902 55.8231 97.1751 55.2314C97.4216 55.0834 97.7175 54.9355 98.0134 54.8368V63.664C97.9641 64.2558 98.3586 64.6996 98.3586 64.6996L112.314 72.7377L126.27 64.6996C126.27 64.6996 130.264 63.4667 131.843 67.0173C132.138 68.546 134.111 69.9762 137.859 70.42C142.445 70.1241 144.615 68.2995 144.467 66.4749V57.697L139.338 57.1546C139.338 57.1546 139.338 57.1546 139.338 57.1053L148.757 51.6808V42.8043C148.806 42.8043 148.757 42.8043 148.757 42.8043Z" fill="#36A9E1"/>
<path d="M112.265 73.4281L111.969 73.1815L97.9641 65.0447C97.9147 64.9954 97.3723 64.4037 97.4709 63.5653V55.7244C96.5833 56.2176 96.0901 56.8587 95.9422 57.4998L95.8929 57.6477C94.1176 61.5928 89.8273 60.3106 89.6301 60.2613L89.5314 60.212L75.2798 51.9766V51.6314V42.2618L75.7729 42.1632L82.3316 41.1276H82.4796L86.326 41.818L87.0164 41.1276C86.6219 41.029 86.1781 40.9797 85.7343 40.8811C84.2549 40.7824 82.8741 40.3879 81.7399 39.7469C80.4577 39.0071 79.718 37.9715 79.6194 36.8373V26.9746H80.2111H88.1013L88.2493 27.0239L100.923 34.421L109.75 31.3142L112.364 29.7855L113.005 30.18L113.892 29.8841H127.207V30.4759V39.3523C127.207 39.4016 127.207 39.5003 127.207 39.5989V42.755L126.862 42.9029L123.311 44.6782H129.278C131.103 42.0153 134.358 42.755 134.949 42.9029L135.245 43.0015L135.837 43.3467L141.409 42.0646H149.398V42.6564V51.878L149.053 52.0753L141.163 56.6614L145.059 57.0559V57.5984L145.009 66.9186C144.713 68.7433 142.494 70.5679 137.859 70.8637C134.111 70.4199 131.645 68.9898 131.251 67.0666C129.969 64.305 126.96 64.9954 126.467 65.094L112.265 73.4281ZM98.7531 64.2557L112.314 72.0966L126.073 64.1571C126.27 64.1078 130.56 62.8749 132.336 66.7707L132.385 66.9186C132.582 68.0529 134.16 69.4336 137.908 69.8775C142.1 69.5816 143.974 67.9542 143.875 66.5241L143.826 65.9324H143.875V58.2395L138.845 57.697L138.697 56.8587L148.215 51.3849V43.3961H141.409L135.59 44.7768L134.505 44.1851C133.914 44.0371 131.349 43.544 130.018 45.7138L129.87 46.0097H129.525H120.402L120.155 45.122L120.55 44.9248L125.974 42.2618V31.2649H113.892L112.758 31.6594L112.216 31.3635L110.095 32.6457H109.947L100.627 35.9004L100.38 35.7524L87.6575 28.3554H80.655V37.0346C80.7043 37.725 81.2467 38.4154 82.1837 38.9578C83.1207 39.5003 84.3535 39.8455 85.7343 39.9441C86.7206 40.092 87.5096 40.2893 88.2 40.4866L89.0876 40.7824L86.6219 43.1988H86.3753L82.233 42.4591L76.3154 43.3961V51.4835L89.9259 59.3244C90.3698 59.423 93.3779 60.1627 94.7094 57.3518C94.9066 56.3655 95.6463 55.5272 96.7805 54.8368C97.0764 54.6889 97.3723 54.5409 97.7175 54.393L98.5065 54.0478V63.7133C98.5558 63.9598 98.7038 64.1571 98.7531 64.2557Z" fill="#16110D"/>
<path d="M126.269 31.9553V39.6975L124.248 40.24L119.661 39.9441L116.949 38.3167L116.407 36.1469L117.788 34.421L120.944 33.2374L124.494 32.695L126.269 31.1663V31.9553Z" fill="#16110D"/>
<path d="M99.9364 45.27L99.1474 45.6645L96.7804 46.5029L95.2023 47.5384L94.2654 49.4617L93.6243 50.5959L91.6517 51.4835L89.8765 51.3356V60.2121L92.9832 59.6203L95.1037 57.8943L96.879 55.33L97.5201 54.4917L99.9364 53.3082V45.27Z" fill="#16110D"/>
<path d="M112.314 63.5161V72.3926L124.149 65.538L126.615 64.2558V55.3794L112.314 63.5161Z" fill="#16110D"/>
<path d="M136.083 61.4943V70.3707L140.916 70.2228L144.319 67.8064L144.516 65.7353V59.5217L141.903 61.297L138.944 61.9381L136.083 61.4943C136.083 61.445 136.083 61.445 136.083 61.4943Z" fill="#16110D"/>
<path d="M135.59 52.8149L139.831 53.8504L142.642 54.7874L148.806 51.3848V42.5083L137.563 49.0177L135.146 50.4478L134.555 51.4341L134.9 52.3217L135.59 52.8149Z" fill="#16110D"/>
<path d="M132.484 58.5847H131.35V67.6091H132.484V58.5847Z" fill="#16110D"/>
<path d="M86.5722 31.4128H85.438V37.2812H86.5722V31.4128Z" fill="#16110D"/>
<path d="M75.8221 42.8041H68.425L62.754 44.1356L61.9156 43.6424C61.9156 43.6424 58.365 42.5575 56.6391 45.4177H47.9599C47.9599 45.4177 47.9599 45.4177 47.9599 45.3684L53.6802 42.5575V39.7466C53.6802 39.6973 53.6802 39.5987 53.6802 39.5494V30.6729H40.9573L40.0204 31.0181L39.4286 30.6729L37.0615 32.0537L27.9385 35.2591L14.969 27.7141H7.2268V36.9358C7.27611 37.8234 7.86788 38.7111 9.05141 39.3521C10.1363 39.9439 11.4678 40.3384 12.8486 40.3877C13.8348 40.5357 14.5745 40.7329 15.1663 40.9302L13.5389 42.5082L9.39661 41.7685L2.88721 42.8041V51.6806L16.843 59.7187C16.843 59.7187 20.8374 60.9515 22.4154 57.4009C22.5633 56.6119 23.1551 55.8229 24.24 55.2311C24.4866 55.0832 24.7825 54.9352 25.0783 54.8366V63.6638C25.029 64.2555 25.4235 64.6993 25.4235 64.6993L39.3793 72.7374L53.335 64.6993C53.335 64.6993 57.3294 63.4665 58.9075 67.0171C59.2034 68.5458 61.1759 69.9759 64.9237 70.4197C69.5099 70.1238 71.6797 68.2992 71.5318 66.4746V57.6968L66.4031 57.1544C66.4031 57.1544 66.4031 57.1544 66.4031 57.1051L75.8221 51.6806V42.8041C75.8714 42.8041 75.8714 42.8041 75.8221 42.8041Z" fill="#36A9E1"/>
<path d="M39.3299 73.4278L39.034 73.1812L25.029 65.0445C24.9797 64.9952 24.4372 64.4034 24.5359 63.5651V55.7242C23.6482 56.2173 23.1551 56.8584 23.0071 57.4995L22.9578 57.6474C21.1825 61.5925 16.8922 60.3104 16.695 60.2611L16.5963 60.2118L2.34473 51.9764V51.6312V42.2616L2.83786 42.163L9.39657 41.1274H9.5445L13.391 41.8178L14.0814 41.1274C13.6869 41.0288 13.243 40.9794 12.7992 40.8808C11.3198 40.7822 9.93901 40.3877 8.8048 39.7466C7.52264 39.0069 6.78295 37.9713 6.68432 36.8371V26.9744H7.27609H15.1663L15.3142 27.0237L27.9878 34.4207L36.8149 31.314L39.4285 29.7852L40.0696 30.1798L40.9573 29.8839H54.272V30.4756V39.3521C54.272 39.4014 54.272 39.5 54.272 39.5987V42.7547L53.9268 42.9027L50.3762 44.678H56.3431C58.1677 42.015 61.4224 42.7547 62.0142 42.9027L62.3101 43.0013L62.9018 43.3465L68.4743 42.0643H76.4631V42.6561V51.8777L76.1179 52.075L68.2277 56.6612L72.1235 57.0557V57.5981L72.0742 66.9184C71.7783 68.743 69.5592 70.5676 64.9237 70.8635C61.1759 70.4197 58.7102 68.9896 58.3157 67.0663C57.0335 64.3048 54.0254 64.9952 53.5323 65.0938L39.3299 73.4278ZM25.818 64.2555L39.3792 72.0963L53.1378 64.1569C53.335 64.1075 57.6253 62.8747 59.4006 66.7705L59.4499 66.9184C59.6471 68.0526 61.2252 69.4334 64.973 69.8772C69.1647 69.5813 71.0386 67.954 70.94 66.5239L70.8907 65.9321H70.94V58.2392L65.91 57.6967L65.762 56.8584L75.2795 51.3846V43.3958H68.4743L62.6553 44.7766L61.5704 44.1848C60.9786 44.0369 58.4143 43.5437 57.0828 45.7135L56.9349 46.0094H56.5897H47.516L47.2694 45.1218L47.6639 44.9245L53.0884 42.2616V31.2647H41.0066L39.8724 31.6592L39.3299 31.3633L37.2094 32.6454H37.0615L27.7412 35.9001L27.4947 35.7522L14.7717 28.3552H7.76922V37.0344C7.81854 37.7247 8.36098 38.4151 9.29794 38.9576C10.2349 39.5 11.4677 39.8452 12.8485 39.9439C13.8348 40.0918 14.6238 40.2891 15.3142 40.4863L16.2018 40.7822L13.7362 43.1986H13.4896L9.34724 42.4589L3.4296 43.3958V51.4832L17.0402 59.3241C17.484 59.4227 20.4921 60.1625 21.8236 57.3516C22.0209 56.3653 22.7605 55.527 23.8948 54.8366C24.1906 54.6886 24.4865 54.5407 24.8317 54.3928L25.6207 54.0476V63.713C25.6207 63.9596 25.7687 64.1569 25.818 64.2555Z" fill="#16110D"/>
<path d="M53.3842 31.9553V39.6975L51.3623 40.24L46.7762 39.9441L44.0639 38.3167L43.5215 36.1469L44.9023 34.421L48.0583 33.2374L51.6089 32.695L53.3842 31.1663V31.9553Z" fill="#16110D"/>
<path d="M27.0512 45.2698L26.2128 45.6643L23.8458 46.5026L22.2678 47.5382L21.3308 49.4614L20.6897 50.5957L18.7665 51.4833L16.9419 51.3354V60.2118L20.098 59.62L22.1691 57.8941L23.9444 55.3298L24.5855 54.4914L27.0512 53.3079V45.2698Z" fill="#16110D"/>
<path d="M39.3799 63.5159V72.3923L51.2152 65.5377L53.6808 64.2556V55.3792L39.3799 63.5159Z" fill="#16110D"/>
<path d="M63.1484 61.494V70.3705L67.9812 70.2225L71.3838 67.8062L71.5811 65.735V59.5215L68.9674 61.2968L66.0086 61.9379L63.1484 61.494C63.1484 61.4447 63.1484 61.4447 63.1484 61.494Z" fill="#16110D"/>
<path d="M62.6552 52.8149L66.8962 53.8504L69.7071 54.7874L75.8713 51.3848V42.5083L64.6278 49.0177L62.2114 50.4478L61.6196 51.4341L61.9648 52.3217L62.6552 52.8149Z" fill="#16110D"/>
<path d="M59.5981 58.5845H58.4639V67.6089H59.5981V58.5845Z" fill="#16110D"/>
<path d="M13.6376 31.4128H12.5034V37.2812H13.6376V31.4128Z" fill="#16110D"/>
<path d="M103.734 61.6418L103.832 61.2966C104.671 61.0993 105.509 60.8528 106.199 60.4582C107.531 59.6692 108.123 58.6336 108.024 57.6474V48.9682L103.438 47.2915L94.4627 53.653L76.3646 52.0256L75.8715 51.7297L75.5263 51.927L73.3072 51.7297H64.4307H61.5705L61.5212 62.5294H51.7078L42.5355 64.0581L39.478 63.8609V72.7373L48.1079 77.718L48.3545 78.4084L43.8176 78.7536V87.5807C43.7683 89.356 45.9874 91.1806 50.475 91.4272C54.2228 90.9834 56.1953 89.5533 56.4912 88.0245C58.0693 84.474 62.0143 85.7068 62.0637 85.7068L76.0194 93.7449L89.9752 85.7068C89.9752 85.7068 90.3204 85.3616 90.3204 84.8685C90.3204 84.8192 90.3204 84.7699 90.3204 84.7206V75.8934C90.6162 75.992 90.9121 76.14 91.1587 76.2879C92.2436 76.8797 92.8354 77.6687 92.9833 78.4577C94.5613 82.0083 98.5064 80.7755 98.5557 80.7755L112.511 72.7373V63.8609L103.734 61.6418Z" fill="#36A9E1"/>
<path d="M75.8714 94.4849L75.5756 94.3369L61.6691 86.2988C61.176 86.1508 58.1679 85.4605 56.8857 88.2713C56.4912 90.2439 54.0255 91.674 50.3763 92.0685C45.7408 91.7726 43.5217 89.9973 43.1272 88.222H43.0779V78.31L43.571 78.2114L47.1709 77.9155L38.7876 73.0827V72.7375V63.6145L39.1821 63.2693L39.4287 63.3186L42.3875 63.5159L51.5105 61.9872H60.8801L60.9294 51.1875H61.5212H73.2578L75.329 51.3847L75.8221 51.0889L76.4632 51.4834L94.2161 53.1107L103.24 46.7L103.487 46.7493L108.517 48.5739V48.9684L108.468 58.2394C108.32 59.2749 107.58 60.2612 106.347 61.0009C106.002 61.1982 105.657 61.3461 105.262 61.494L112.758 63.4666V63.9104V73.0334L112.462 73.3293L98.5064 81.3674C98.3585 81.4167 93.9202 82.7975 92.1449 78.8031L92.0956 78.6552C91.997 78.0141 91.4545 77.373 90.5669 76.8799V84.8194C90.5669 84.8687 90.5669 84.918 90.5669 85.0166C90.5176 85.707 90.1231 86.1509 90.0738 86.2002L89.9258 86.2988L75.8714 94.4849ZM62.2609 85.3125L75.8714 93.1534L89.4327 85.3125C89.482 85.2139 89.5806 85.066 89.5806 84.8687V84.8194V84.7208V75.0553L90.3697 75.3512C90.6655 75.4991 91.0107 75.5977 91.3066 75.795C92.4408 76.4854 93.1805 77.3237 93.3778 78.31C94.6599 81.0716 97.6681 80.3812 98.1612 80.2825L111.772 72.4417V64.3049L103.043 62.0365L103.388 60.8037L103.734 60.7543C104.572 60.5571 105.312 60.3105 105.903 59.9653C106.988 59.3243 107.531 58.5352 107.432 57.6969L107.383 57.0558H107.481V49.3136L103.536 47.8835L94.6599 54.1956H94.4627L76.0687 52.4697L75.8714 52.371L75.6742 52.519L73.3071 52.3217H62.1623L62.1129 63.1214H61.5212H51.7078L42.4861 64.6501L40.0204 64.5022V72.4417L48.5517 77.373L49.0942 78.9511L44.3107 79.3456V87.0385V87.6303C44.2614 89.011 46.1847 90.6384 50.4256 90.885C54.0748 90.4412 55.6529 89.0604 55.8501 87.9262L55.8994 87.7782C57.2802 84.6714 60.4856 84.6715 62.0636 85.1153H62.2116L62.2609 85.3125Z" fill="#16110D"/>
<path d="M101.367 45.1219C97.6193 45.5658 95.6467 46.9959 95.3509 48.5246C93.7728 52.0752 89.8277 50.8423 89.7784 50.8423L75.8227 42.8042L61.8669 50.8423C61.8669 50.8423 59.7464 53.1108 65.8613 54.0477C68.5736 54.1957 71.0392 55.3792 71.7789 57.4997C71.0392 61.3954 64.234 62.3324 60.6834 60.2612C59.5985 59.6695 59.0067 58.8805 58.8588 58.0914C57.2807 54.5409 53.3356 55.7737 53.2863 55.7737L39.3799 63.8118C39.3799 63.8118 39.3799 63.8118 39.3799 63.8611L53.2863 71.8993C53.2863 71.8993 55.4068 74.1677 49.2919 75.1046C46.5797 75.2526 44.114 76.4361 43.3743 78.5566C44.114 82.4524 50.9193 83.3893 54.4698 81.3181C55.5547 80.7264 56.1465 79.9373 56.2945 79.1483C57.8725 75.5977 61.8176 76.8306 61.8669 76.8306L75.8227 84.8687L89.7784 76.8306C89.7784 76.8306 91.8989 74.5622 85.784 73.6252C83.0717 73.4773 80.6061 72.2938 79.8664 70.1733C80.6061 66.2775 87.4113 65.3405 90.9619 67.4117C92.0468 68.0035 92.6386 68.7925 92.7865 69.5815C94.3646 73.1321 98.3097 71.8993 98.359 71.8993L112.265 63.8611C112.265 63.8611 112.265 63.8611 112.265 63.8118L98.359 55.7737C98.359 55.7737 96.2385 53.5053 102.353 52.5683C103.734 52.4697 105.066 52.1245 106.151 51.5327C109.75 49.5108 108.123 45.5658 101.367 45.1219Z" fill="white"/>
<path d="M75.8714 85.5591L75.5756 85.4111L61.6691 77.373C61.176 77.2251 58.1678 76.5347 56.8857 79.3455C56.6884 80.3318 55.9487 81.1701 54.8145 81.8605C52.3981 83.2906 48.5024 83.3893 45.8394 82.1564C44.1628 81.3674 43.1272 80.1839 42.8313 78.7045L42.782 78.5072L42.8806 78.31C43.6203 76.1402 46.0367 74.7101 49.2914 74.5128C52.3488 74.069 52.9406 73.28 53.0885 72.9841C53.1872 72.7375 53.0392 72.4416 52.9406 72.343L38.8369 64.2063V63.5159L39.1328 63.3186L53.1872 55.2312C53.3844 55.1819 57.6747 53.8997 59.45 57.8448L59.4993 57.9928C59.6472 58.6338 60.1404 59.2749 61.028 59.768C63.1485 61.0009 66.6005 61.0995 68.9675 60.0146C69.8552 59.6201 70.9401 58.8311 71.2853 57.5489C70.4469 55.5764 67.9812 54.738 65.9101 54.5901C63.0499 54.1463 61.5212 53.4066 61.1266 52.2724C60.8308 51.4833 61.2746 50.7436 61.5705 50.3985L61.7184 50.2998L75.9207 42.1138L76.2166 42.2617L90.1231 50.2998C90.5669 50.4478 93.6243 51.1382 94.9065 48.3273C95.301 46.3547 97.7667 44.9246 101.416 44.5301H101.465C106.15 44.826 108.221 46.6506 108.616 48.278C108.961 49.6588 108.172 51.0395 106.545 52.0258C105.41 52.6669 104.03 53.0614 102.501 53.16C99.4433 53.6039 98.8516 54.3929 98.7036 54.6887C98.605 54.9353 98.7529 55.2312 98.8516 55.3298L112.955 63.4666V64.157L112.659 64.3542L98.7036 72.3923C98.5557 72.4417 94.1175 73.8224 92.3422 69.828L92.2929 69.6801C92.1449 69.039 91.6518 68.3979 90.7641 67.9048C88.6437 66.6719 85.1917 66.5733 82.8246 67.6582C81.937 68.0527 80.8521 68.8417 80.5069 70.1239C81.2959 72.0964 83.7616 72.9348 85.8821 73.0827C88.7423 73.5265 90.271 74.2662 90.6655 75.4005C90.9614 76.1895 90.5176 76.9292 90.2217 77.2744L90.0737 77.373L75.8714 85.5591ZM62.2609 76.3867L75.8714 84.2276L89.4327 76.3867C89.5313 76.2881 89.6792 75.9922 89.5806 75.7457C89.482 75.4498 88.8902 74.6607 85.7342 74.2169C82.5288 74.0197 80.1124 72.5896 79.3727 70.3705L79.3234 70.0253L79.3727 69.976C79.6686 68.5459 80.7042 67.4117 82.3315 66.6226C84.9944 65.3898 88.8902 65.5377 91.3066 66.9185C92.4408 67.6089 93.1805 68.4473 93.3778 69.4335C94.6599 72.1951 97.6681 71.5047 98.1612 71.4061L111.18 63.9104L97.9639 56.2668C97.668 55.9709 97.2736 55.2312 97.5201 54.3929C97.9146 53.2587 99.4927 52.5189 102.254 52.0751C103.684 51.9765 104.868 51.6313 105.854 51.0889C107.038 50.3985 107.58 49.5108 107.383 48.6232C107.087 47.4396 105.361 46.0095 101.367 45.763C97.6681 46.2068 96.09 47.5876 95.8927 48.7218L95.8434 48.8697C94.4627 51.9765 91.2573 51.9765 89.6792 51.5327H89.5313L89.4327 51.4341L75.8221 43.5932L62.2609 51.4341C62.1623 51.5327 62.0143 51.8286 62.1129 52.0751C62.2115 52.371 62.8033 53.16 65.9594 53.6038C69.1648 53.8011 71.5811 55.2312 72.3208 57.4503L72.4195 57.6969L72.3702 57.8448C72.0743 59.2749 71.0387 60.4584 69.4114 61.1981C66.7484 62.431 62.8526 62.283 60.4363 60.9022C59.3021 60.2119 58.5623 59.3735 58.3651 58.3873C57.0829 55.6257 54.0748 56.3161 53.5817 56.4147L40.5629 63.9104L53.7789 71.554C54.0748 71.8499 54.4693 72.5896 54.2227 73.4279C53.8282 74.5621 52.2502 75.3018 49.4886 75.7457C47.3188 75.8936 44.8532 76.7319 44.0641 78.7045C44.36 79.9373 45.4942 80.7263 46.3819 81.1702C48.6996 82.2551 52.2009 82.1071 54.3214 80.9236C55.209 80.4305 55.7515 79.7894 55.8501 79.1483L55.8994 79.0003C57.2802 75.8936 60.4856 75.8936 62.0636 76.3374H62.2116L62.2609 76.3867Z" fill="#16110D"/>
<path d="M50.4751 82.4523V91.3288L52.9408 90.9342L55.6037 89.4055L56.4914 87.6796L57.8228 86.2495L59.8447 85.6084H60.8803V76.7319H59.6968L57.7735 77.4223L56.7379 78.31L55.653 80.4798L53.6805 82.0085L50.4751 82.4523Z" fill="#16110D"/>
<path d="M75.8223 84.918V93.7944L89.9753 85.3618L90.3205 76.7319L88.6931 77.2744L75.8223 84.918Z" fill="#16110D"/>
<path d="M86.819 66.376V73.8223L83.4657 73.2306L80.3096 70.6169L80.5561 67.954L83.9588 66.376H86.819Z" fill="#16110D"/>
<path d="M96.4351 72.0965V80.9729L98.4076 80.7757L112.363 72.7375V63.8611L99.5418 71.4554L96.4351 72.0965Z" fill="#16110D"/>
<path d="M107.777 50.0039L107.925 58.4365L106.149 60.4584L98.3579 55.8229L98.0127 54.6887L99.4921 53.3079L103.339 52.4696L106.938 51.0888L107.777 50.0039Z" fill="#16110D"/>
<path d="M93.3779 69.6306H92.2437V78.5071H93.3779V69.6306Z" fill="#16110D"/>
<path d="M68.3759 54.2449H67.2417V61.5433H68.3759V54.2449Z" fill="#16110D"/>
<path d="M61.9156 50.8424L75.8221 42.8042C75.8221 42.8042 75.8221 42.8042 75.8221 42.7549L61.9156 34.7168C61.9156 34.7168 57.9212 33.484 56.3432 37.0345C56.0473 38.6126 54.0748 39.9934 50.3269 40.4372C43.571 39.9934 41.9436 36.0976 45.5435 34.0264C46.6284 33.4346 47.9599 33.0401 49.3407 32.9908C55.4555 32.0539 53.335 29.7854 53.335 29.7854L39.3793 21.7473L25.4236 29.7854C25.4236 29.7854 21.4292 31.0183 19.8511 27.4677C19.5552 25.8896 17.5827 24.5089 13.8349 24.065C7.07889 24.5089 5.45153 28.4046 9.05142 30.4758C10.1363 31.0676 11.4678 31.4621 12.8486 31.5114C18.9635 32.4484 16.843 34.7168 16.843 34.7168L2.93652 42.7549C2.93652 42.7549 2.93652 42.7549 2.93652 42.8042L16.843 50.8424C16.843 50.8424 20.8374 52.0752 22.4154 48.5246C22.7113 46.9466 24.6838 45.5658 28.4317 45.122C35.1876 45.5658 36.815 49.4616 33.2151 51.5327C32.1302 52.1245 30.7987 52.519 29.4179 52.5683C23.3031 53.5053 25.4236 55.7737 25.4236 55.7737L39.3793 63.8118L53.335 55.7737C53.335 55.7737 57.3294 54.5409 58.9075 58.0915C59.2034 59.6695 61.1759 61.0503 64.9237 61.4941C71.6797 61.0503 73.3071 57.1545 69.7072 55.0833C68.6223 54.4915 67.2908 54.097 65.91 54.0477C59.7458 53.1601 61.9156 50.8424 61.9156 50.8424Z" fill="white"/>
<path d="M39.3299 64.5515L39.034 64.3049L25.029 56.1682C24.7331 55.8723 24.3386 55.1326 24.5852 54.2943C24.9797 53.1601 26.5577 52.4204 29.3193 51.9765C30.7493 51.8779 31.9329 51.5327 32.9192 50.9903C34.1027 50.2999 34.6451 49.4122 34.4479 48.5246C34.152 47.341 32.426 45.911 28.3823 45.6644C24.7331 46.1082 23.1551 47.489 22.9578 48.6232L22.9085 48.7711C21.1332 52.7162 16.8429 51.4341 16.6457 51.3848L16.547 51.3355L2.34473 43.1494V42.459L2.6406 42.2617L16.4977 34.2729C16.5963 34.1743 16.7443 33.8784 16.6457 33.6319C16.547 33.336 15.9553 32.547 12.7992 32.1031C11.3198 32.0045 9.93901 31.61 8.8048 30.9689C7.17745 30.032 6.38843 28.6512 6.73362 27.2211C7.12813 25.5937 9.19931 23.7198 13.8348 23.4733H14.0814L14.1307 23.5226C17.6812 23.9664 20.0483 25.3965 20.4428 27.3197C21.725 30.0813 24.7331 29.3909 25.2262 29.2923L39.3792 21.1062L39.6751 21.2542L53.7788 29.4402C54.0747 29.7361 54.4692 30.4758 54.2226 31.3141C53.8281 32.4483 52.2501 33.2373 49.4885 33.6319C48.0584 33.7305 46.8749 34.0757 45.8886 34.6181C44.7051 35.3085 44.1627 36.1962 44.3599 37.0838C44.6558 38.2673 46.3818 39.6974 50.4255 39.944C54.0747 39.5002 55.6527 38.1194 55.85 36.9852L55.8993 36.8372C57.2801 33.7305 60.4855 33.7305 62.0635 34.1743L62.3101 34.2729L76.4631 42.459V43.1494L76.1672 43.3466L62.3594 51.3355C62.2607 51.4341 62.1128 51.73 62.2114 51.9765C62.3101 52.2724 62.9018 53.0614 66.0579 53.5052C67.5373 53.6039 68.9181 53.9984 70.0523 54.6395C71.6797 55.5764 72.4687 56.9572 72.1235 58.3873C71.729 60.0146 69.6578 61.8886 65.0223 62.1351C61.2252 61.6913 58.8088 60.2612 58.4143 58.338C57.1321 55.5764 54.124 56.2668 53.6309 56.3655L39.3299 64.5515ZM25.818 55.3792L39.3792 63.22L53.0884 55.2805H53.2364C54.8144 54.8367 58.0198 54.7874 59.4006 57.9435L59.4499 58.0914C59.6471 59.2256 61.2252 60.6064 64.973 61.0502C68.9181 60.8037 70.6441 59.3242 70.94 58.19C71.1372 57.3024 70.5948 56.4147 69.4112 55.7244C68.4743 55.1819 67.2414 54.8367 65.8607 54.7381C63.0005 54.2943 61.4717 53.5546 61.0772 52.4204C60.7814 51.6313 61.2252 50.8916 61.5211 50.5464L61.669 50.4478L74.7371 42.9028L61.669 35.3578C61.0279 35.2099 58.2171 34.6674 56.9842 37.3304C56.5897 39.3029 54.124 40.733 50.4748 41.1275C45.6914 40.8317 43.6695 39.007 43.275 37.3797C42.9298 35.9989 43.7188 34.6181 45.3462 33.6319C46.4804 32.9908 47.8612 32.5963 49.3899 32.4977C52.4473 32.0538 53.0391 31.2648 53.1871 30.9689C53.2857 30.7224 53.1377 30.4265 53.0391 30.3279L39.3792 22.3884L25.7194 30.2785C25.5714 30.3279 21.1332 31.7086 19.3579 27.7142L19.3086 27.5663C19.1113 26.4321 17.5333 25.0513 13.8348 24.6075C9.84039 24.854 8.11441 26.3334 7.81853 27.4677C7.62127 28.3553 8.16371 29.2429 9.34724 29.9333C10.2842 30.4758 11.517 30.821 12.8978 30.9196C15.758 31.3634 17.2867 32.1031 17.6813 33.2374C17.9771 34.0264 17.5333 34.7661 17.2374 35.1113L17.0895 35.2099L4.02137 42.7549L17.0402 50.2506C17.484 50.3492 20.4921 51.0889 21.8236 48.278C22.2181 46.3055 24.6838 44.8754 28.333 44.4809C33.1164 44.7767 35.1383 46.6013 35.5328 48.2287C35.878 49.6095 35.089 50.9903 33.4616 51.9272C32.3274 52.5683 30.9466 52.9628 29.4179 53.0614C26.3604 53.5053 25.7687 54.2943 25.6207 54.5901C25.5714 54.9847 25.7194 55.2312 25.818 55.3792Z" fill="#16110D"/>
<path d="M101.367 3.00818C97.6188 3.452 95.6462 4.88209 95.3504 6.41081C93.7723 9.96139 89.8272 8.72854 89.7779 8.72854L75.8715 0.69043L61.9157 8.72854C61.9157 8.72854 59.7952 10.997 65.9101 11.9339C68.6224 12.0819 71.0881 13.2654 71.8278 15.3859C71.0881 19.2817 64.2828 20.2186 60.7322 18.1474C59.6473 17.5557 59.0555 16.7667 58.9076 15.9777C57.3296 12.4271 53.3845 13.6599 53.3352 13.6599L39.4287 21.698C39.4287 21.698 39.4287 21.698 39.4287 21.7474L53.3352 29.7855C53.3352 29.7855 55.4557 32.0539 49.3408 32.9909C46.6285 33.1388 44.1628 34.3223 43.4231 36.4428C44.1628 40.3386 50.9681 41.2755 54.5187 39.2044C55.6036 38.6126 56.1954 37.8236 56.3433 37.0346C57.9213 33.484 61.8664 34.7168 61.9157 34.7168L75.8715 42.7549L89.8272 34.7168C89.8272 34.7168 91.9477 32.4484 85.8328 31.5114C83.1206 31.3635 80.6549 30.18 79.9152 28.0595C80.6549 24.1637 87.4602 23.2268 91.0108 25.2979C92.0957 25.8897 92.6874 26.6787 92.8354 27.4677C94.4134 31.0183 98.3585 29.7855 98.4078 29.7855L112.314 21.7474C112.314 21.7474 112.314 21.7473 112.314 21.698L98.4078 13.6599C98.4078 13.6599 96.2873 11.3915 102.402 10.4545C103.783 10.3559 105.114 10.0107 106.199 9.41895C109.75 7.34777 108.123 3.40268 101.367 3.00818Z" fill="white"/>
<path d="M75.8714 43.4453L75.5756 43.2974L61.6691 35.2592C61.176 35.1113 58.1678 34.4209 56.8857 37.2318C56.6884 38.2181 55.9487 39.0564 54.8145 39.7468C52.3981 41.1769 48.5024 41.2755 45.8394 40.0426C44.1628 39.2536 43.1272 38.0701 42.8313 36.5907L42.782 36.3934L42.8806 36.1962C43.6203 34.0264 46.0367 32.5963 49.2914 32.399C52.3488 31.9552 52.9406 31.1662 53.0885 30.8703C53.1872 30.6238 53.0392 30.3279 52.9406 30.2292L38.8369 22.0925V21.4021L39.1328 21.2049L53.1872 13.1174C53.3844 13.0681 57.6747 11.786 59.45 15.731L59.4993 15.879C59.6472 16.5201 60.1404 17.1611 61.028 17.6543C63.1485 18.8871 66.6005 18.9857 68.9675 17.9008C69.8552 17.5063 70.9401 16.7173 71.2853 15.4352C70.4469 13.4626 67.9812 12.6243 65.9101 12.4763C63.0499 12.0325 61.5212 11.2928 61.1266 10.1586C60.8308 9.36959 61.2746 8.62988 61.5705 8.28468L61.7184 8.18606L75.9207 0L76.2166 0.147935L90.1231 8.18606C90.5669 8.334 93.6243 9.02439 94.9065 6.21352C95.301 4.24097 97.7667 2.81087 101.416 2.41636H101.465C106.15 2.71225 108.221 4.53685 108.616 6.1642C108.961 7.54498 108.172 8.92577 106.545 9.86272C105.41 10.5038 104.03 10.8983 102.501 10.9969C99.4433 11.4408 98.8516 12.2298 98.7036 12.5257C98.605 12.7722 98.7529 13.0681 98.8516 13.1667L112.955 21.3035V21.9939L112.659 22.1911L98.6543 30.2786C98.5064 30.3279 94.0681 31.7086 92.2929 27.7142L92.2436 27.5663C92.0956 26.9252 91.6025 26.2842 90.7148 25.791C88.5943 24.5582 85.1424 24.4595 82.7753 25.5444C81.8877 25.939 80.8028 26.728 80.4576 28.0101C81.2466 29.9827 83.7123 30.821 85.8328 30.9689C88.693 31.4128 90.2217 32.1525 90.6162 33.2867C90.9121 34.0757 90.4683 34.8154 90.1724 35.1606L90.0244 35.2592L75.8714 43.4453ZM62.2609 34.273L75.8714 42.1138L89.4327 34.273C89.5313 34.1743 89.6792 33.8784 89.5806 33.6319C89.482 33.336 88.8902 32.547 85.7342 32.1032C82.5288 31.9059 80.1124 30.4758 79.3727 28.2567L79.3234 27.9115L79.3727 27.8622C79.6686 26.4321 80.7042 25.2979 82.3315 24.5089C84.9944 23.276 88.8902 23.424 91.3066 24.8047C92.4408 25.4951 93.1805 26.3335 93.3778 27.3197C94.6599 30.0813 97.6681 29.3909 98.1612 29.2923L111.18 21.7966L97.9639 14.153C97.668 13.8571 97.2736 13.1174 97.5201 12.2791C97.9146 11.1449 99.4927 10.4052 102.254 9.96134C103.684 9.86271 104.868 9.51752 105.854 8.97507C107.038 8.28468 107.58 7.39703 107.383 6.50939C107.087 5.32586 105.361 3.89577 101.367 3.6492C97.6681 4.09303 96.09 5.47381 95.8927 6.60802L95.8434 6.75596C94.4627 9.86271 91.2573 9.86273 89.6792 9.4189H89.5313L89.4327 9.32027L75.8221 1.47941L62.2609 9.32027C62.1623 9.4189 62.0143 9.71477 62.1129 9.96134C62.2115 10.2572 62.8033 11.0462 65.9594 11.4901C69.1648 11.6873 71.5811 13.1174 72.3208 15.3365L72.4195 15.5831L72.3702 15.731C72.0743 17.1611 71.0387 18.3447 69.4114 19.0844C66.7484 20.3172 62.8526 20.1693 60.4363 18.7885C59.3021 18.0981 58.5623 17.2598 58.3651 16.2735C57.0829 13.5119 54.0748 14.2023 53.5817 14.301L40.5629 21.7966L53.7789 29.4402C54.0748 29.7361 54.4693 30.4758 54.2227 31.3141C53.8282 32.4484 52.2502 33.1881 49.4886 33.6319C47.3188 33.7798 44.8532 34.6182 44.0641 36.5907C44.36 37.8235 45.4942 38.6126 46.3819 39.0564C48.6996 40.1413 52.2009 39.9933 54.3214 38.8098C55.209 38.3167 55.7515 37.6756 55.8501 37.0345L55.8994 36.8866C57.2802 33.7798 60.4856 33.7798 62.0636 34.2236H62.2116L62.2609 34.273Z" fill="#16110D"/>
<path d="M134.85 50.8424L148.757 42.8042C148.757 42.8042 148.757 42.8042 148.757 42.7549L134.85 34.7168C134.85 34.7168 130.856 33.484 129.278 37.0345C128.982 38.6126 127.009 39.9934 123.261 40.4372C116.506 39.9934 114.878 36.0976 118.478 34.0264C119.563 33.4346 120.894 33.0401 122.275 32.9908C128.39 32.0539 126.27 29.7854 126.27 29.7854L112.314 21.7473L98.3581 29.7854C98.3581 29.7854 94.3637 31.0183 92.7857 27.4677C92.4898 25.8896 90.5172 24.5089 86.7694 24.065C80.0134 24.5089 78.3861 28.4046 81.986 30.4758C83.0709 31.0676 84.4023 31.4621 85.7831 31.5114C91.898 32.4484 89.7775 34.7168 89.7775 34.7168L75.8711 42.7549C75.8711 42.7549 75.8711 42.7549 75.8711 42.8042L89.7775 50.8424C89.7775 50.8424 93.7719 52.0752 95.35 48.5246C95.6459 46.9466 97.6184 45.5658 101.366 45.122C108.122 45.5658 109.75 49.4616 106.15 51.5327C105.065 52.1245 103.733 52.519 102.353 52.5683C96.2376 53.5053 98.3581 55.7737 98.3581 55.7737L112.314 63.8118L126.27 55.7737C126.27 55.7737 130.264 54.5409 131.842 58.0915C132.138 59.6695 134.11 61.0503 137.858 61.4941C144.614 61.0503 146.242 57.1545 142.642 55.0833C141.557 54.4915 140.225 54.097 138.845 54.0477C132.68 53.1601 134.85 50.8424 134.85 50.8424Z" fill="white"/>
<path d="M112.265 64.5515L111.969 64.3049L97.9641 56.1682C97.6682 55.8723 97.2737 55.1326 97.5202 54.2943C97.9148 53.1601 99.4928 52.4204 102.254 51.9765C103.684 51.8779 104.868 51.5327 105.854 50.9903C107.038 50.2999 107.58 49.4122 107.383 48.5246C107.087 47.341 105.361 45.911 101.317 45.6644C97.6682 46.1082 96.0901 47.489 95.8929 48.6232L95.8436 48.7711C94.0683 52.7162 89.778 51.4341 89.5807 51.3848L89.4821 51.3355L75.2798 43.1494V42.459L75.5757 42.2617L89.3835 34.2729C89.4821 34.1743 89.6301 33.8784 89.5314 33.6319C89.4328 33.336 88.841 32.547 85.685 32.1031C84.2056 32.0045 82.8248 31.61 81.6906 30.9689C80.0632 30.032 79.2742 28.6512 79.6194 27.2211C80.0139 25.5937 82.0851 23.7198 86.7206 23.4733H86.9671L87.0164 23.5226C90.567 23.9664 92.9341 25.3965 93.3286 27.3197C94.6107 30.0813 97.6188 29.3909 98.112 29.2923L112.265 21.1062L112.561 21.2542L126.665 29.4402C126.96 29.7361 127.355 30.4758 127.108 31.3141C126.714 32.4483 125.136 33.2373 122.374 33.6319C120.994 33.7305 119.761 34.0757 118.774 34.6181C117.591 35.3085 117.048 36.1962 117.246 37.0838C117.542 38.2673 119.268 39.6974 123.311 39.944C126.96 39.5002 128.539 38.1194 128.736 36.9852L128.785 36.8372C130.166 33.7305 133.371 33.7305 134.949 34.1743L135.196 34.2729L149.349 42.459V43.1494L149.053 43.3466L135.245 51.3355C135.147 51.4341 134.999 51.73 135.097 51.9765C135.196 52.2724 135.788 53.0614 138.944 53.5052C140.423 53.6039 141.804 53.9984 142.938 54.6395C144.565 55.5764 145.354 56.9572 145.009 58.3873C144.615 60.0146 142.544 61.8886 137.908 62.1351C134.111 61.6913 131.695 60.2612 131.3 58.338C130.018 55.5764 127.01 56.2668 126.517 56.3655L112.265 64.5515ZM98.7531 55.3792L112.314 63.22L126.024 55.2805H126.171C127.749 54.8367 130.955 54.7874 132.336 57.9435L132.385 58.0914C132.582 59.2256 134.16 60.6064 137.908 61.0502C141.853 60.8037 143.579 59.3242 143.875 58.19C144.072 57.3024 143.53 56.4147 142.346 55.7244C141.409 55.1819 140.177 54.8367 138.796 54.7381C135.936 54.2943 134.407 53.5546 134.012 52.4204C133.716 51.6313 134.16 50.8916 134.456 50.5464L134.604 50.4478L147.672 42.9028L134.604 35.3578C133.963 35.2099 131.152 34.6674 129.919 37.3304C129.525 39.3029 127.059 40.733 123.41 41.1275C118.626 40.8317 116.605 39.007 116.21 37.3797C115.865 35.9989 116.654 34.6181 118.281 33.6319C119.415 32.9908 120.796 32.5963 122.325 32.4977C125.382 32.0538 125.974 31.2648 126.122 30.9689C126.221 30.7224 126.073 30.4265 125.974 30.3279L112.314 22.3884L98.6545 30.2785C98.5065 30.3279 94.0683 31.7086 92.293 27.7142L92.2437 27.5663C92.0464 26.4321 90.4684 25.0513 86.7699 24.6075C82.7754 24.854 81.0495 26.3334 80.7536 27.4677C80.5564 28.3553 81.0988 29.2429 82.2823 29.9333C83.2193 30.4758 84.4521 30.821 85.8329 30.9196C88.6931 31.3634 90.2218 32.1031 90.6163 33.2374C90.9122 34.0264 90.4684 34.7661 90.1725 35.1113L90.0246 35.2099L76.9565 42.7549L89.9752 50.2506C90.4191 50.3492 93.4272 51.0889 94.7587 48.278C95.1532 46.3055 97.6189 44.8754 101.268 44.4809C106.051 44.7767 108.073 46.6013 108.468 48.2287C108.813 49.6095 108.024 50.9903 106.397 51.9272C105.262 52.5683 103.882 52.9628 102.353 53.0614C99.2955 53.5053 98.7038 54.2943 98.5558 54.5901C98.5065 54.9847 98.6545 55.2312 98.7531 55.3792Z" fill="#16110D"/>
</svg>
