<svg width="233" height="168" viewBox="0 0 233 168" fill="none" xmlns="http://www.w3.org/2000/svg">
<path d="M13.0138 102.192L7.94526 105.069C7.39731 105.343 6.57539 105.343 5.89046 104.932L1.09592 102.192C0.547969 101.781 0.410984 101.37 0.958931 100.959L6.02744 98.0825C6.57539 97.8086 7.39731 97.8086 8.08225 98.2195L12.8768 100.959C13.5617 101.37 13.5617 101.918 13.0138 102.192Z" fill="#16110D"/>
<path d="M24.7953 109.042L19.7268 111.918C19.1788 112.192 18.3569 112.192 17.672 111.781L12.8774 109.042C12.3295 108.631 12.1925 108.22 12.7404 107.809L17.8089 104.932C18.3569 104.658 19.1788 104.658 19.8637 105.069L24.6583 107.809C25.3432 108.22 25.3432 108.631 24.7953 109.042Z" fill="#16110D"/>
<path d="M12.4664 116.165L7.3979 119.042C6.84995 119.316 6.02803 119.316 5.34309 118.905L0.548553 116.165C0.000605337 115.754 -0.136379 115.343 0.411568 114.932L5.48008 112.055C6.02803 111.781 6.84995 111.781 7.53489 112.192L12.3294 114.932C12.8774 115.343 13.0144 115.891 12.4664 116.165Z" fill="#16110D"/>
<path d="M37.2613 116.165L32.1928 119.042C31.6449 119.316 30.823 119.316 30.138 118.905L25.3435 116.165C24.7955 115.754 24.6585 115.343 25.2065 114.932L30.275 112.055C30.823 111.781 31.6449 111.781 32.3298 112.192L37.1244 114.932C37.6723 115.343 37.8093 115.891 37.2613 116.165Z" fill="#16110D"/>
<path d="M24.9322 123.288L19.8637 126.165C19.3158 126.439 18.4939 126.439 17.8089 126.028L13.0144 123.288C12.4664 122.877 12.3294 122.466 12.8774 122.055L17.9459 119.179C18.4938 118.905 19.3158 118.905 20.0007 119.316L24.7952 122.055C25.3432 122.466 25.3432 123.014 24.9322 123.288Z" fill="#16110D"/>
<path d="M49.0419 123.014L43.9733 125.891C43.4254 126.165 42.6035 126.165 41.9185 125.754L37.124 123.014C36.5761 122.603 36.4391 122.192 36.987 121.781L42.0555 118.905C42.6035 118.631 43.4254 118.631 44.1103 119.042L48.9049 121.781C49.4528 122.192 49.5898 122.603 49.0419 123.014Z" fill="#16110D"/>
<path d="M36.7125 130.138L31.644 133.014C31.096 133.288 30.2741 133.288 29.5892 132.877L24.7946 130.138C24.2467 129.727 24.1097 129.316 24.6577 128.905L29.7262 126.028C30.2741 125.754 31.096 125.754 31.781 126.165L36.5755 128.905C37.1235 129.316 37.1235 129.864 36.7125 130.138Z" fill="#16110D"/>
<path d="M60.8221 129.727L55.7536 132.603C55.2057 132.877 54.3837 132.877 53.6988 132.466L48.9043 129.727C48.3563 129.316 48.2193 128.905 48.7673 128.494L53.8358 125.617C54.3837 125.343 55.2057 125.343 55.8906 125.754L60.6851 128.494C61.2331 128.905 61.3701 129.453 60.8221 129.727Z" fill="#16110D"/>
<path d="M48.3573 136.987L43.2888 139.864C42.7408 140.138 41.9189 140.138 41.234 139.727L36.4394 136.987C35.8915 136.576 35.7545 136.165 36.3024 135.754L41.371 132.877C41.9189 132.603 42.7408 132.603 43.4258 133.014L48.2203 135.754C48.9052 136.165 48.9052 136.576 48.3573 136.987Z" fill="#16110D"/>
<path d="M73.2882 136.987L68.2197 139.864C67.6717 140.138 66.8498 140.138 66.1649 139.727L61.3703 136.987C60.8224 136.576 60.6854 136.165 61.2333 135.754L66.3019 132.877C66.8498 132.603 67.6717 132.603 68.3567 133.014L73.1512 135.754C73.6991 136.165 73.8361 136.713 73.2882 136.987Z" fill="#16110D"/>
<path d="M60.8221 144.11L55.7536 146.987C55.2057 147.261 54.3837 147.261 53.6988 146.85L48.9043 144.11C48.3563 143.699 48.2193 143.288 48.7673 142.877L53.8358 140.001C54.3837 139.727 55.2057 139.727 55.8906 140.138L60.6851 142.877C61.3701 143.288 61.3701 143.836 60.8221 144.11Z" fill="#16110D"/>
<path d="M85.0697 143.699L80.0012 146.576C79.4532 146.85 78.6313 146.85 77.9464 146.439L73.1518 143.699C72.6039 143.288 72.4669 142.877 73.0148 142.466L78.0834 139.59C78.6313 139.316 79.4532 139.316 80.1382 139.727L84.9327 142.466C85.4806 142.877 85.6176 143.425 85.0697 143.699Z" fill="#16110D"/>
<path d="M72.6039 150.96L67.5353 153.836C66.9874 154.11 66.1655 154.11 65.4805 153.699L60.686 150.96C60.1381 150.549 60.0011 150.138 60.549 149.727L65.6175 146.85C66.1655 146.576 66.9874 146.576 67.6723 146.987L72.4669 149.727C73.1518 150.138 73.1518 150.549 72.6039 150.96Z" fill="#16110D"/>
<path d="M96.8502 150.549L91.7817 153.425C91.2337 153.699 90.4118 153.699 89.7269 153.288L84.9323 150.549C84.3844 150.138 84.2474 149.727 84.7954 149.316L89.8639 146.439C90.4118 146.165 91.2337 146.165 91.9187 146.576L96.7132 149.316C97.2612 149.727 97.2612 150.275 96.8502 150.549Z" fill="#16110D"/>
<path d="M84.3844 157.672L79.3159 160.549C78.7679 160.823 77.946 160.823 77.2611 160.412L72.4665 157.672C71.9186 157.261 71.7816 156.85 72.3295 156.439L77.398 153.562C77.946 153.288 78.7679 153.288 79.4529 153.699L84.2474 156.439C84.7953 156.85 84.9323 157.398 84.3844 157.672Z" fill="#16110D"/>
<path d="M109.316 157.672L104.248 160.549C103.7 160.823 102.878 160.823 102.193 160.412L97.3984 157.672C96.8505 157.261 96.7135 156.85 97.2614 156.439L102.33 153.562C102.878 153.288 103.7 153.288 104.385 153.699L109.179 156.439C109.727 156.85 109.727 157.398 109.316 157.672Z" fill="#16110D"/>
<path d="M96.8502 164.932L91.7817 167.809C91.2337 168.083 90.4118 168.083 89.7269 167.672L84.9323 164.932C84.3844 164.521 84.2474 164.11 84.7954 163.699L89.8639 160.823C90.4118 160.549 91.2337 160.549 91.9187 160.96L96.7132 163.699C97.2612 164.11 97.3982 164.521 96.8502 164.932Z" fill="#16110D"/>
<path d="M121.645 150.549L116.577 153.425C116.029 153.699 115.207 153.699 114.522 153.288L109.728 150.549C109.18 150.138 109.043 149.727 109.591 149.316L114.659 146.439C115.207 146.165 116.029 146.165 116.714 146.576L121.508 149.316C122.056 149.727 122.193 150.275 121.645 150.549Z" fill="#16110D"/>
<path d="M134.11 143.425L129.041 146.302C128.493 146.576 127.672 146.576 126.987 146.165L122.192 143.425C121.644 143.014 121.507 142.603 122.055 142.192L127.124 139.316C127.672 139.042 128.494 139.042 129.178 139.453L133.973 142.192C134.521 142.603 134.521 143.151 134.11 143.425Z" fill="#16110D"/>
<path d="M146.439 136.302L141.371 139.179C140.823 139.453 140.001 139.453 139.316 139.042L134.521 136.302C133.973 135.891 133.836 135.48 134.384 135.069L139.453 132.193C140.001 131.919 140.823 131.919 141.508 132.33L146.302 135.069C146.85 135.48 146.987 135.891 146.439 136.302Z" fill="#16110D"/>
<path d="M171.234 121.918L166.166 124.795C165.618 125.069 164.796 125.069 164.111 124.658L159.316 121.918C158.768 121.508 158.631 121.097 159.179 120.686L164.248 117.809C164.796 117.535 165.618 117.535 166.303 117.946L171.097 120.686C171.645 121.097 171.782 121.645 171.234 121.918Z" fill="#16110D"/>
<path d="M183.7 114.795L178.632 117.672C178.084 117.946 177.262 117.946 176.577 117.535L171.782 114.795C171.234 114.384 171.098 113.973 171.645 113.562L176.714 110.685C177.262 110.411 178.084 110.411 178.769 110.822L183.563 113.562C184.111 113.973 184.111 114.521 183.7 114.795Z" fill="#16110D"/>
<path d="M208.494 100.411L203.425 103.288C202.878 103.562 202.056 103.562 201.371 103.151L196.576 100.411C196.028 100 195.891 99.5895 196.439 99.1785L201.508 96.3018C202.056 96.0278 202.878 96.0278 203.562 96.4388L208.357 99.1785C208.905 99.5895 208.905 100.137 208.494 100.411Z" fill="#16110D"/>
<path d="M121.097 164.521L116.028 167.398C115.48 167.672 114.658 167.672 113.973 167.261L109.179 164.521C108.631 164.11 108.494 163.699 109.042 163.288L114.11 160.412C114.658 160.138 115.48 160.138 116.165 160.549L120.96 163.288C121.507 163.699 121.508 164.247 121.097 164.521Z" fill="#16110D"/>
<path d="M133.426 157.398L128.357 160.275C127.809 160.549 126.987 160.549 126.303 160.138L121.508 157.398C120.96 156.987 120.823 156.576 121.371 156.165L126.44 153.288C126.988 153.014 127.809 153.014 128.494 153.425L133.289 156.165C133.837 156.576 133.974 157.124 133.426 157.398Z" fill="#16110D"/>
<path d="M145.892 150.275L140.823 153.151C140.275 153.425 139.454 153.425 138.769 153.014L133.974 150.275C133.426 149.864 133.289 149.453 133.837 149.042L138.906 146.165C139.454 145.891 140.276 145.891 140.96 146.302L145.755 149.042C146.303 149.453 146.303 149.864 145.892 150.275Z" fill="#16110D"/>
<path d="M158.22 143.014L153.151 145.891C152.603 146.165 151.781 146.165 151.096 145.754L146.302 143.014C145.754 142.603 145.617 142.192 146.165 141.781L151.233 138.905C151.781 138.631 152.603 138.631 153.288 139.042L158.083 141.781C158.631 142.192 158.768 142.74 158.22 143.014Z" fill="#16110D"/>
<path d="M183.015 128.768L177.946 131.645C177.398 131.919 176.576 131.919 175.891 131.508L171.097 128.768C170.549 128.357 170.412 127.946 170.96 127.535L176.028 124.658C176.576 124.384 177.398 124.384 178.083 124.795L182.878 127.535C183.426 127.946 183.563 128.494 183.015 128.768Z" fill="#16110D"/>
<path d="M207.81 114.384L202.741 117.261C202.193 117.535 201.371 117.535 200.686 117.124L195.892 114.384C195.344 113.973 195.207 113.562 195.755 113.151L200.823 110.275C201.371 110.001 202.193 110.001 202.878 110.412L207.673 113.151C208.221 113.562 208.358 114.11 207.81 114.384Z" fill="#16110D"/>
<path d="M219.59 61.0964L214.521 63.9732C213.973 64.2471 213.151 64.2471 212.466 63.8362L207.672 61.0964C207.124 60.6855 206.987 60.2745 207.535 59.8636L212.603 56.9868C213.151 56.7129 213.973 56.7129 214.658 57.1238L219.453 59.8636C220.001 60.2745 220.138 60.8225 219.59 61.0964Z" fill="#16110D"/>
<path d="M231.919 53.9729L226.851 56.8496C226.303 57.1236 225.481 57.1236 224.796 56.7126L220.001 53.9729C219.453 53.5619 219.316 53.151 219.864 52.74L224.933 49.8633C225.481 49.5893 226.303 49.5893 226.988 50.0003L231.782 52.74C232.467 53.151 232.467 53.6989 231.919 53.9729Z" fill="#16110D"/>
<path d="M218.905 75.0689L213.837 77.9456C213.289 78.2196 212.467 78.2196 211.782 77.8086L206.988 75.0689C206.44 74.6579 206.303 74.2469 206.851 73.836L211.919 70.9593C212.467 70.6853 213.289 70.6853 213.974 71.0962L218.768 73.836C219.453 74.2469 219.453 74.7949 218.905 75.0689Z" fill="#16110D"/>
<path d="M231.371 67.9456L226.303 70.8223C225.755 71.0963 224.933 71.0963 224.248 70.6853L219.453 67.9456C218.905 67.5346 218.768 67.1236 219.316 66.7127L224.385 63.836C224.933 63.562 225.755 63.562 226.44 63.9729L231.234 66.7127C231.782 67.1236 231.919 67.6716 231.371 67.9456Z" fill="#16110D"/>
<path d="M171.234 150.138L166.165 153.014C165.617 153.288 164.795 153.288 164.11 152.877L159.316 150.138C158.768 149.727 158.631 149.316 159.179 148.905L164.247 146.028C164.795 145.754 165.617 145.754 166.302 146.165L171.097 148.905C171.782 149.316 171.782 149.864 171.234 150.138Z" fill="#16110D"/>
<path d="M158.904 157.261L153.836 160.138C153.288 160.412 152.466 160.412 151.781 160.001L146.987 157.261C146.439 156.85 146.302 156.439 146.85 156.028L151.918 153.152C152.466 152.878 153.288 152.878 153.973 153.288L158.767 156.028C159.315 156.439 159.452 156.987 158.904 157.261Z" fill="#16110D"/>
<path d="M183.7 143.014L178.631 145.891C178.083 146.165 177.261 146.165 176.576 145.754L171.782 143.014C171.234 142.603 171.097 142.192 171.645 141.781L176.713 138.905C177.261 138.631 178.083 138.631 178.768 139.042L183.563 141.781C184.111 142.192 184.248 142.603 183.7 143.014Z" fill="#16110D"/>
<path d="M196.027 135.754L190.959 138.631C190.411 138.905 189.589 138.905 188.904 138.494L184.11 135.754C183.562 135.343 183.425 134.932 183.973 134.521L189.041 131.644C189.589 131.37 190.411 131.37 191.096 131.781L195.89 134.521C196.575 134.932 196.575 135.48 196.027 135.754Z" fill="#16110D"/>
<path d="M183.014 156.85L177.946 159.727C177.398 160.001 176.576 160.001 175.891 159.59L171.096 156.85C170.548 156.439 170.411 156.028 170.959 155.617L176.028 152.74C176.576 152.466 177.398 152.466 178.083 152.877L182.877 155.617C183.562 156.028 183.562 156.576 183.014 156.85Z" fill="#16110D"/>
<path d="M195.48 149.727L190.412 152.604C189.864 152.878 189.042 152.878 188.357 152.467L183.562 149.727C183.014 149.316 182.877 148.905 183.425 148.494L188.494 145.617C189.042 145.343 189.864 145.343 190.549 145.754L195.343 148.494C195.891 148.905 196.028 149.453 195.48 149.727Z" fill="#16110D"/>
<path d="M204.247 60.411L142.74 51.6438V26.7122L130.822 19.9998L98.9045 12.6025L16.7123 57.6712L9.31502 60.548H1.91772V85.2056L40.685 107.534C40.685 107.534 51.781 110.959 56.1645 101.096C56.5755 98.9043 58.2193 96.7125 61.2331 95.0686C61.918 94.6577 62.7399 94.2467 63.5618 93.9727V118.493C63.5618 118.63 63.5618 118.767 63.5618 118.904V119.041C63.6988 120.411 64.5207 121.37 64.5207 121.37L103.288 143.699L142.055 121.37C142.055 121.37 153.151 117.945 157.535 127.809C158.357 132.055 163.836 136.028 174.247 137.261C186.576 136.439 192.603 131.644 192.74 126.713C192.74 126.713 192.74 126.713 192.74 126.576V101.918L180.686 99.3152C180.686 99.3152 180.686 99.3152 180.686 99.1782L204.658 85.3426L204.247 60.411Z" fill="#36A9E1"/>
<path d="M103.014 145.48L102.192 144.932L63.1509 122.329C63.014 122.192 61.9181 120.822 61.7811 119.041C61.7811 118.63 61.7811 118.494 61.7811 118.22V96.4386C59.3153 97.8085 57.9454 99.5893 57.5345 101.37L57.3975 101.781C53.4249 110.548 44.2467 110.411 40.0002 109.041L39.7262 108.904L0.136963 86.0276V85.0687V58.7672H1.78081H8.90413L16.0274 56.0275L98.6305 10.6848L99.3155 10.9588L131.507 18.3561L131.781 18.6301L144.247 25.7534V26.7123V50.411L205.754 59.0412V60.548V85.8906L204.932 86.4386L184.384 98.3564L193.699 100.411V101.781V126.439C193.562 131.644 188.357 137.809 173.699 138.631C163.288 137.398 156.439 133.425 155.343 128.083C151.781 120.411 143.425 122.329 142.055 122.603L103.014 145.48ZM65.3427 120L103.014 141.781L140.96 119.863C141.37 119.726 153.699 115.891 158.631 126.987L158.768 127.398C159.316 130.548 163.699 134.384 174.11 135.617C185.343 134.932 190.686 130.411 190.823 126.713V103.151L178.905 100.548L178.631 98.3564L202.878 84.3838V62.0549L141.37 53.2877V51.9179V27.8082L130.411 21.6438L99.1785 14.3835L17.5343 59.1782L9.31509 62.3289H3.42465V84.5208L41.233 106.302C42.4659 106.713 50.9591 108.63 54.5208 100.822C55.0687 98.0824 57.1235 95.7537 60.2742 93.8359C61.0961 93.4249 61.9181 93.0139 62.877 92.603L65.0687 91.6441V118.493L63.4249 118.904H65.0687C64.9318 119.315 65.2057 119.726 65.3427 120Z" fill="#16110D"/>
<path d="M114.247 42.8768C116.302 36.8494 123.151 33.6987 130.685 33.1507C147.672 30.548 141.781 24.2466 141.781 24.2466L103.014 1.91772L1.78052 60.4111C1.78052 60.4111 1.78052 60.4111 1.78052 60.5481L40.4108 82.877C40.4108 82.877 51.5068 86.3016 55.8903 76.4386C56.7123 72.055 62.1917 68.2194 72.6027 66.9865C91.3699 68.2194 95.8905 79.0413 85.8905 84.7948C82.8768 86.4386 79.1781 87.5345 75.3425 87.6715C58.3561 90.2743 64.2465 96.5757 64.2465 96.5757L103.014 118.905L141.781 96.5757C141.781 96.5757 152.877 93.151 157.261 103.014C158.083 107.398 163.562 111.233 173.973 112.466C192.74 111.233 197.261 100.411 187.261 94.6578C184.247 93.014 180.548 91.9181 176.713 91.7811C159.726 89.1784 165.617 82.877 165.617 82.877L204.247 60.5481C204.247 60.5481 204.247 60.5481 204.247 60.4111L165.617 38.0823C165.617 38.0823 154.521 34.6576 150.137 44.5207C149.726 46.7124 148.083 48.9042 145.069 50.5481C135.069 56.3015 116.165 53.6988 114.247 42.8768Z" fill="white"/>
<path d="M103.014 120.685L102.192 120.137L63.151 97.5347C62.329 96.7127 61.2331 94.6579 61.9181 92.3292C63.014 89.1785 67.3975 87.1237 75.0688 85.8908C79.0414 85.6168 82.3291 84.6579 85.0689 83.151C88.3565 81.2332 89.8634 78.7675 89.3154 76.3017C88.4935 73.014 83.699 69.0414 72.4661 68.3564C62.329 69.5893 57.9454 73.425 57.3975 76.5757L57.2605 76.9866C53.4249 85.6168 44.5207 85.6168 40.1372 84.3839H40.0002L39.5892 84.2469L0 61.3701V59.4523L0.821919 58.9044L102.74 0L103.562 0.410954L142.74 23.1508C143.562 23.9727 144.658 26.0275 143.973 28.3563C142.877 31.507 138.494 33.5618 130.822 34.7947C124.795 35.2056 117.946 37.5344 115.754 43.0139C116.576 46.4385 119.727 48.6303 122.192 49.8632C128.631 52.8769 138.357 52.466 144.247 49.1783C146.713 47.8084 148.22 46.0276 148.494 44.2468L148.631 43.8358C152.466 35.2056 161.371 35.2056 165.754 36.4385H165.891L166.302 36.5755L205.891 59.4523V61.3701L166.576 83.973C166.302 84.2469 165.891 85.0688 166.165 85.7538C166.439 86.5757 168.083 88.7675 176.85 90.0004C180.96 90.2744 184.795 91.3703 187.946 93.1511C192.467 95.7538 194.658 99.5895 193.699 103.562C192.604 108.083 186.85 113.288 173.973 113.973H173.562L173.425 113.836C163.425 112.603 156.713 108.631 155.617 103.288C152.055 95.6168 143.699 97.5347 142.329 97.8086L103.014 120.685ZM65.3427 95.3429L103.014 117.124L140.96 95.2059C141.37 95.0689 153.699 91.2333 158.631 102.329L158.768 102.74C159.316 105.891 163.699 109.726 173.973 110.959C185.069 110.274 189.864 106.165 190.686 103.014C191.234 100.548 189.727 98.0826 186.439 96.1648C183.836 94.6579 180.412 93.699 176.576 93.4251C168.631 92.1922 164.384 90.1374 163.288 86.9867C162.466 84.7949 163.699 82.7401 164.521 81.7812L164.932 81.5072L201.234 60.5482L165.069 39.7262C163.836 39.3152 155.343 37.3974 151.781 45.2057C151.234 47.9454 149.179 50.2742 146.028 52.192C139.316 56.1646 128.494 56.4386 121.096 53.0139C116.439 50.8221 113.562 47.5344 112.74 43.4248L112.603 43.0139L112.74 42.6029C114.932 36.4385 121.507 32.4659 130.549 31.9179C139.179 30.6851 140.823 28.4933 141.096 27.6713C141.37 26.9864 140.96 26.1645 140.686 25.8905L103.014 3.69864L4.93153 60.4112L41.0961 81.2332C42.3289 81.6442 50.8221 83.562 54.3838 75.7537C55.4797 70.2743 62.329 66.3017 72.4661 65.2058C85.7538 66.0277 91.5072 71.0962 92.4661 75.6168C93.4251 79.4524 91.2333 83.288 86.7127 86.0278C83.562 87.8086 79.7264 88.9045 75.4798 89.1785C66.9866 90.4113 65.3427 92.6031 64.9318 93.4251C64.6578 94.247 65.0688 94.9319 65.3427 95.3429Z" fill="#16110D"/>
<path d="M103.014 118.905V143.562L135.891 124.521L142.74 120.959V96.3018L103.014 118.905Z" fill="#16110D"/>
<path d="M168.904 111.507V136.165L182.328 135.754L191.78 129.042L192.328 123.288V106.028L185.068 110.959L176.849 112.74L168.904 111.507C169.041 111.37 168.904 111.507 168.904 111.507Z" fill="#16110D"/>
<path d="M167.672 89.1783L179.453 92.0551L187.261 94.6578L204.384 85.2057V60.5481L173.151 78.6304L166.439 82.603L164.795 85.3427L165.754 87.8085L167.672 89.1783Z" fill="#16110D"/>
<path d="M70.8218 66.3018L68.493 67.3977L61.9177 69.7264L57.5341 72.7401L54.9313 77.9456L53.1505 81.0963L47.671 83.5621L42.7395 83.1511V107.809L51.3697 106.165L57.3971 97.6718L62.1916 94.2471L63.8355 91.9183L70.6848 88.6306V66.3018H70.8218Z" fill="#16110D"/>
<path d="M142.74 30.1371V51.644L137.124 53.1509L124.384 52.329L116.85 47.8084L115.343 41.781L119.179 36.9865L127.946 33.6988L137.809 32.1919L142.74 27.9453V30.1371Z" fill="#16110D"/>
<path d="M160 105.754H156.849V130.823H160V105.754Z" fill="#16110D"/>
</svg>
