<svg width="84" height="146" viewBox="0 0 84 146" fill="none" xmlns="http://www.w3.org/2000/svg">
<path d="M58.7127 142.214C59.2951 142.603 59.2951 142.991 58.7127 143.379C58.1303 143.767 57.3537 143.767 56.7713 143.379C56.1889 142.991 56.1889 142.603 56.7713 142.214C57.3537 141.826 58.3244 141.826 58.7127 142.214Z" fill="#16110D"/>
<path d="M63.7606 139.302C64.343 139.691 64.343 140.079 63.7606 140.467C63.1781 140.855 62.4016 140.855 61.8191 140.467C61.2367 140.079 61.2367 139.691 61.8191 139.302C62.4016 139.108 63.1781 139.108 63.7606 139.302Z" fill="#16110D"/>
<path d="M68.6131 136.584C69.1955 136.973 69.1955 137.361 68.6131 137.749C68.0307 138.138 67.2541 138.138 66.6717 137.749C66.0893 137.361 66.0893 136.973 66.6717 136.584C67.2541 136.196 68.0307 136.196 68.6131 136.584Z" fill="#16110D"/>
<path d="M52.8892 140.661C53.6397 140.661 54.2481 140.313 54.2481 139.884C54.2481 139.456 53.6397 139.108 52.8892 139.108C52.1386 139.108 51.5298 139.456 51.5298 139.884C51.5298 140.313 52.1386 140.661 52.8892 140.661Z" fill="#16110D"/>
<path d="M58.7127 136.584C59.2951 136.973 59.2951 137.361 58.7127 137.749C58.1303 138.138 57.3537 138.138 56.7713 137.749C56.1889 137.361 56.1889 136.973 56.7713 136.584C57.3537 136.196 58.3244 136.196 58.7127 136.584Z" fill="#16110D"/>
<path d="M62.7905 135.031C63.5411 135.031 64.1494 134.683 64.1494 134.254C64.1494 133.825 63.5411 133.478 62.7905 133.478C62.04 133.478 61.4316 133.825 61.4316 134.254C61.4316 134.683 62.04 135.031 62.7905 135.031Z" fill="#16110D"/>
<path d="M49.0062 136.584C49.5886 136.973 49.5886 137.361 49.0062 137.749C48.4237 138.138 47.6472 138.138 47.0647 137.749C46.4823 137.361 46.4823 136.973 47.0647 136.584C47.6472 136.196 48.4237 136.196 49.0062 136.584Z" fill="#16110D"/>
<path d="M53.8592 133.673C54.4416 134.061 54.4416 134.449 53.8592 134.837C53.2768 135.226 52.5002 135.226 51.9178 134.837C51.3354 134.449 51.3354 134.061 51.9178 133.673C52.5002 133.284 53.2768 133.284 53.8592 133.673Z" fill="#16110D"/>
<path d="M58.7127 130.76C59.2951 131.148 59.2951 131.537 58.7127 131.925C58.1303 132.313 57.3537 132.313 56.7713 131.925C56.1889 131.537 56.1889 131.148 56.7713 130.76C57.3537 130.566 58.3244 130.566 58.7127 130.76Z" fill="#16110D"/>
<path d="M42.9878 135.031C43.7384 135.031 44.3467 134.683 44.3467 134.254C44.3467 133.825 43.7384 133.478 42.9878 133.478C42.2373 133.478 41.6289 133.825 41.6289 134.254C41.6289 134.683 42.2373 135.031 42.9878 135.031Z" fill="#16110D"/>
<path d="M49.0062 130.76C49.5886 131.148 49.5886 131.537 49.0062 131.925C48.4237 132.313 47.6472 132.313 47.0647 131.925C46.4823 131.537 46.4823 131.148 47.0647 130.76C47.6472 130.566 48.4237 130.566 49.0062 130.76Z" fill="#16110D"/>
<path d="M52.8892 129.206C53.6397 129.206 54.2481 128.859 54.2481 128.43C54.2481 128.001 53.6397 127.653 52.8892 127.653C52.1386 127.653 51.5298 128.001 51.5298 128.43C51.5298 128.859 52.1386 129.206 52.8892 129.206Z" fill="#16110D"/>
<path d="M39.1038 130.76C39.6862 131.148 39.6862 131.537 39.1038 131.925C38.5214 132.313 37.7448 132.313 37.1624 131.925C36.58 131.537 36.58 131.148 37.1624 130.76C37.7448 130.372 38.5214 130.566 39.1038 130.76Z" fill="#16110D"/>
<path d="M43.9573 128.042C44.5398 128.43 44.5398 128.819 43.9573 129.207C43.3749 129.595 42.5983 129.595 42.0159 129.207C41.4335 128.819 41.4335 128.43 42.0159 128.042C42.5983 127.654 43.5691 127.654 43.9573 128.042Z" fill="#16110D"/>
<path d="M49.0062 125.13C49.5886 125.518 49.5886 125.906 49.0062 126.295C48.4237 126.683 47.6472 126.683 47.0647 126.295C46.4823 125.906 46.4823 125.518 47.0647 125.13C47.6472 124.936 48.4237 124.936 49.0062 125.13Z" fill="#16110D"/>
<path d="M34.0569 128.042C34.6394 128.43 34.6394 128.819 34.0569 129.207C33.4745 129.595 32.698 129.595 32.1155 129.207C31.5331 128.819 31.5331 128.43 32.1155 128.042C32.698 127.654 33.6687 127.654 34.0569 128.042Z" fill="#16110D"/>
<path d="M39.1038 125.13C39.6862 125.518 39.6862 125.906 39.1038 126.295C38.5214 126.683 37.7448 126.683 37.1624 126.295C36.58 125.906 36.58 125.518 37.1624 125.13C37.7448 124.742 38.5214 124.742 39.1038 125.13Z" fill="#16110D"/>
<path d="M43.9573 122.218C44.5398 122.606 44.5398 122.994 43.9573 123.383C43.3749 123.771 42.5983 123.771 42.0159 123.383C41.4335 122.994 41.4335 122.606 42.0159 122.218C42.5983 122.024 43.3749 122.024 43.9573 122.218Z" fill="#16110D"/>
<path d="M29.2029 125.13C29.7854 125.518 29.7854 125.906 29.2029 126.295C28.6205 126.683 27.844 126.683 27.2615 126.295C26.6791 125.906 26.6791 125.518 27.2615 125.13C27.844 124.742 28.6205 124.742 29.2029 125.13Z" fill="#16110D"/>
<path d="M33.2803 123.577C34.0308 123.577 34.6392 123.229 34.6392 122.8C34.6392 122.371 34.0308 122.024 33.2803 122.024C32.5297 122.024 31.9214 122.371 31.9214 122.8C31.9214 123.229 32.5297 123.577 33.2803 123.577Z" fill="#16110D"/>
<path d="M38.1343 120.665C38.8848 120.665 39.4932 120.317 39.4932 119.888C39.4932 119.459 38.8848 119.112 38.1343 119.112C37.3837 119.112 36.7754 119.459 36.7754 119.888C36.7754 120.317 37.3837 120.665 38.1343 120.665Z" fill="#16110D"/>
<path d="M24.3499 122.218C24.9323 122.606 24.9323 122.994 24.3499 123.383C23.7675 123.771 22.9909 123.771 22.4085 123.383C21.8261 122.994 21.8261 122.606 22.4085 122.218C22.9909 122.024 23.7675 122.024 24.3499 122.218Z" fill="#16110D"/>
<path d="M29.2029 119.5C29.7854 119.888 29.7854 120.277 29.2029 120.665C28.6205 121.053 27.844 121.053 27.2615 120.665C26.6791 120.277 26.6791 119.888 27.2615 119.5C27.844 119.112 28.6205 119.112 29.2029 119.5Z" fill="#16110D"/>
<path d="M34.0569 116.588C34.6394 116.976 34.6394 117.364 34.0569 117.753C33.4745 118.141 32.698 118.141 32.1155 117.753C31.5331 117.364 31.5331 116.976 32.1155 116.588C32.698 116.394 33.6687 116.394 34.0569 116.588Z" fill="#16110D"/>
<path d="M18.5254 120.665C19.2759 120.665 19.8848 120.317 19.8848 119.888C19.8848 119.459 19.2759 119.112 18.5254 119.112C17.7749 119.112 17.1665 119.459 17.1665 119.888C17.1665 120.317 17.7749 120.665 18.5254 120.665Z" fill="#16110D"/>
<path d="M24.3499 116.588C24.9323 116.976 24.9323 117.364 24.3499 117.753C23.7675 118.141 22.9909 118.141 22.4085 117.753C21.8261 117.364 21.8261 116.976 22.4085 116.588C22.9909 116.394 23.7675 116.394 24.3499 116.588Z" fill="#16110D"/>
<path d="M28.2319 115.034C28.9825 115.034 29.5913 114.687 29.5913 114.258C29.5913 113.829 28.9825 113.481 28.2319 113.481C27.4814 113.481 26.873 113.829 26.873 114.258C26.873 114.687 27.4814 115.034 28.2319 115.034Z" fill="#16110D"/>
<path d="M14.4485 116.588C15.031 116.976 15.031 117.364 14.4485 117.753C13.8661 118.141 13.0896 118.141 12.5071 117.753C11.9247 117.364 11.9247 116.976 12.5071 116.588C13.0896 116.394 14.0603 116.394 14.4485 116.588Z" fill="#16110D"/>
<path d="M19.4964 113.676C20.0788 114.064 20.0788 114.452 19.4964 114.84C18.914 115.229 18.1374 115.229 17.555 114.84C16.9726 114.452 16.9726 114.064 17.555 113.676C18.1374 113.481 18.914 113.481 19.4964 113.676Z" fill="#16110D"/>
<path d="M24.3499 110.957C24.9323 111.346 24.9323 111.734 24.3499 112.122C23.7675 112.51 22.9909 112.51 22.4085 112.122C21.8261 111.734 21.8261 111.346 22.4085 110.957C22.9909 110.569 23.7675 110.569 24.3499 110.957Z" fill="#16110D"/>
<path d="M8.62354 115.034C9.37409 115.034 9.98244 114.687 9.98244 114.258C9.98244 113.829 9.37409 113.481 8.62354 113.481C7.87299 113.481 7.26465 113.829 7.26465 114.258C7.26465 114.687 7.87299 115.034 8.62354 115.034Z" fill="#16110D"/>
<path d="M14.4485 110.957C15.031 111.346 15.031 111.734 14.4485 112.122C13.8661 112.51 13.0896 112.51 12.5071 112.122C11.9247 111.734 11.9247 111.346 12.5071 110.957C13.0896 110.569 14.0603 110.569 14.4485 110.957Z" fill="#16110D"/>
<path d="M18.5254 109.404C19.2759 109.404 19.8848 109.057 19.8848 108.628C19.8848 108.199 19.2759 107.851 18.5254 107.851C17.7749 107.851 17.1665 108.199 17.1665 108.628C17.1665 109.057 17.7749 109.404 18.5254 109.404Z" fill="#16110D"/>
<path d="M4.74152 110.957C5.32394 111.346 5.32394 111.734 4.74152 112.122C4.15909 112.51 3.38252 112.51 2.8001 112.122C2.21768 111.734 2.21768 111.346 2.8001 110.957C3.38252 110.569 4.15909 110.569 4.74152 110.957Z" fill="#16110D"/>
<path d="M9.59503 108.045C10.1775 108.434 10.1775 108.822 9.59503 109.21C9.01261 109.598 8.23604 109.598 7.65362 109.21C7.07119 108.822 7.07119 108.434 7.65362 108.045C8.23604 107.851 9.01261 107.851 9.59503 108.045Z" fill="#16110D"/>
<path d="M14.4485 105.327C15.031 105.716 15.031 106.104 14.4485 106.492C13.8661 106.88 13.0896 106.88 12.5071 106.492C11.9247 106.104 11.9247 105.716 12.5071 105.327C13.0896 104.939 14.0603 104.939 14.4485 105.327Z" fill="#16110D"/>
<path d="M4.74152 105.327C5.32394 105.716 5.32394 106.104 4.74152 106.492C4.15909 106.88 3.38252 106.88 2.8001 106.492C2.21768 106.104 2.21768 105.716 2.8001 105.327C3.38252 104.939 4.15909 104.939 4.74152 105.327Z" fill="#16110D"/>
<path d="M9.59503 102.415C10.1775 102.804 10.1775 103.192 9.59503 103.58C9.01261 103.968 8.23604 103.968 7.65362 103.58C7.07119 103.192 7.07119 102.804 7.65362 102.415C8.23604 102.027 9.01261 102.027 9.59503 102.415Z" fill="#16110D"/>
<path d="M73.6619 144.544C74.2443 144.932 74.2443 145.32 73.6619 145.709C73.0795 146.097 72.3029 146.097 71.7205 145.709C71.1381 145.32 71.1381 144.932 71.7205 144.544C72.3029 144.156 73.0795 144.156 73.6619 144.544Z" fill="#16110D"/>
<path d="M78.515 141.632C79.0974 142.02 79.0974 142.409 78.515 142.797C77.9325 143.185 77.156 143.185 76.5735 142.797C75.9911 142.409 75.9911 142.02 76.5735 141.632C77.156 141.438 78.1267 141.438 78.515 141.632Z" fill="#16110D"/>
<path d="M62.9834 145.903C63.734 145.903 64.3423 145.555 64.3423 145.126C64.3423 144.698 63.734 144.35 62.9834 144.35C62.2329 144.35 61.6245 144.698 61.6245 145.126C61.6245 145.555 62.2329 145.903 62.9834 145.903Z" fill="#16110D"/>
<path d="M67.8369 142.991C68.5875 142.991 69.1958 142.643 69.1958 142.214C69.1958 141.785 68.5875 141.438 67.8369 141.438C67.0864 141.438 66.478 141.785 66.478 142.214C66.478 142.643 67.0864 142.991 67.8369 142.991Z" fill="#16110D"/>
<path d="M72.6909 140.273C73.4415 140.273 74.0498 139.925 74.0498 139.496C74.0498 139.067 73.4415 138.719 72.6909 138.719C71.9404 138.719 71.332 139.067 71.332 139.496C71.332 139.925 71.9404 140.273 72.6909 140.273Z" fill="#16110D"/>
<path d="M73.4671 133.673C74.0495 134.061 74.0495 134.449 73.4671 134.837C72.8847 135.226 72.1081 135.226 71.5257 134.837C70.9433 134.449 70.9433 134.061 71.5257 133.673C72.1081 133.284 73.0788 133.284 73.4671 133.673Z" fill="#16110D"/>
<path d="M78.515 130.76C79.0974 131.148 79.0974 131.537 78.515 131.925C77.9325 132.313 77.156 132.313 76.5735 131.925C75.9911 131.537 75.9911 131.148 76.5735 130.76C77.156 130.566 77.9325 130.566 78.515 130.76Z" fill="#16110D"/>
<path d="M73.4671 128.042C74.0495 128.43 74.0495 128.819 73.4671 129.207C72.8847 129.595 72.1081 129.595 71.5257 129.207C70.9433 128.819 70.9433 128.43 71.5257 128.042C72.1081 127.654 73.0788 127.654 73.4671 128.042Z" fill="#16110D"/>
<path d="M61.8191 128.042C62.4016 127.654 63.1781 127.654 63.7606 128.042C64.343 128.43 64.343 128.819 63.7606 129.207C63.1781 129.595 62.4016 129.595 61.8191 129.207C61.2367 128.819 61.2367 128.236 61.8191 128.042Z" fill="#16110D"/>
<path d="M68.6131 125.13C69.1955 125.518 69.1955 125.906 68.6131 126.295C68.0307 126.683 67.2541 126.683 66.6717 126.295C66.0893 125.906 66.0893 125.518 66.6717 125.13C67.2541 124.936 68.0307 124.936 68.6131 125.13Z" fill="#16110D"/>
<path d="M56.9656 125.13C57.5481 124.742 58.3246 124.742 58.907 125.13C59.4895 125.518 59.4895 125.906 58.907 126.295C58.3246 126.683 57.5481 126.683 56.9656 126.295C56.3832 125.906 56.3832 125.518 56.9656 125.13Z" fill="#16110D"/>
<path d="M63.7606 122.412C64.343 122.8 64.343 123.188 63.7606 123.577C63.1781 123.965 62.4016 123.965 61.8191 123.577C61.2367 123.188 61.2367 122.8 61.8191 122.412C62.4016 122.024 63.1781 122.024 63.7606 122.412Z" fill="#16110D"/>
<path d="M51.9182 122.412C52.5006 122.024 53.2772 122.024 53.8596 122.412C54.442 122.8 54.442 123.188 53.8596 123.577C53.2772 123.965 52.5006 123.965 51.9182 123.577C51.5299 123.188 51.5299 122.606 51.9182 122.412Z" fill="#16110D"/>
<path d="M57.9365 120.859C58.6871 120.859 59.2954 120.511 59.2954 120.082C59.2954 119.653 58.6871 119.305 57.9365 119.305C57.186 119.305 56.5776 119.653 56.5776 120.082C56.5776 120.511 57.186 120.859 57.9365 120.859Z" fill="#16110D"/>
<path d="M63.7606 117.753C63.1781 118.141 62.4016 118.141 61.8191 117.753C61.2367 117.364 61.2367 116.976 61.8191 116.588C62.4016 116.394 64.1488 117.364 63.7606 117.753Z" fill="#16110D"/>
<path d="M48.0347 120.859C48.7852 120.859 49.3936 120.511 49.3936 120.082C49.3936 119.653 48.7852 119.305 48.0347 119.305C47.2841 119.305 46.6753 119.653 46.6753 120.082C46.6753 120.511 47.2841 120.859 48.0347 120.859Z" fill="#16110D"/>
<path d="M52.8892 117.946C53.6397 117.946 54.2481 117.599 54.2481 117.17C54.2481 116.741 53.6397 116.393 52.8892 116.393C52.1386 116.393 51.5298 116.741 51.5298 117.17C51.5298 117.599 52.1386 117.946 52.8892 117.946Z" fill="#16110D"/>
<path d="M58.7127 114.84C58.1303 115.229 57.3537 115.229 56.7713 114.84C56.1889 114.452 56.1889 114.064 56.7713 113.676C57.3537 113.481 59.2951 114.646 58.7127 114.84Z" fill="#16110D"/>
<path d="M42.2112 116.588C42.7937 116.199 43.5702 116.199 44.1526 116.588C44.7351 116.976 44.7351 117.364 44.1526 117.752C43.5702 118.141 42.7937 118.141 42.2112 117.752C41.6288 117.364 41.6288 116.976 42.2112 116.588Z" fill="#16110D"/>
<path d="M49.0062 113.87C49.5886 114.258 49.5886 114.646 49.0062 115.034C48.4237 115.423 47.6472 115.423 47.0647 115.034C46.4823 114.646 46.4823 114.258 47.0647 113.87C47.6472 113.481 48.4237 113.481 49.0062 113.87Z" fill="#16110D"/>
<path d="M53.8592 112.123C53.2768 112.511 52.5002 112.511 51.9178 112.123C51.3354 111.734 51.3354 111.346 51.9178 110.958C52.5002 110.57 54.4416 111.734 53.8592 112.123Z" fill="#16110D"/>
<path d="M37.1633 113.87C37.7457 113.481 38.5223 113.481 39.1047 113.87C39.6871 114.258 39.6871 114.646 39.1047 115.034C38.5223 115.423 37.7457 115.423 37.1633 115.034C36.775 114.646 36.775 114.064 37.1633 113.87Z" fill="#16110D"/>
<path d="M43.9573 110.957C44.5398 111.346 44.5398 111.734 43.9573 112.122C43.3749 112.51 42.5983 112.51 42.0159 112.122C41.4335 111.734 41.4335 111.346 42.0159 110.957C42.5983 110.569 43.5691 110.569 43.9573 110.957Z" fill="#16110D"/>
<path d="M32.3089 110.957C32.8913 110.569 33.6679 110.569 34.2503 110.957C34.8327 111.346 34.8327 111.734 34.2503 112.122C33.6679 112.51 32.8913 112.51 32.3089 112.122C31.7265 111.734 31.7265 111.346 32.3089 110.957Z" fill="#16110D"/>
<path d="M39.1038 108.045C39.6862 108.434 39.6862 108.822 39.1038 109.21C38.5214 109.598 37.7448 109.598 37.1624 109.21C36.58 108.822 36.58 108.434 37.1624 108.045C37.7448 107.851 38.5214 107.851 39.1038 108.045Z" fill="#16110D"/>
<path d="M27.4554 108.045C28.0378 107.657 28.8144 107.657 29.3968 108.045C29.9792 108.434 29.9792 108.822 29.3968 109.21C28.8144 109.599 28.0378 109.599 27.4554 109.21C26.8729 108.822 26.8729 108.434 27.4554 108.045Z" fill="#16110D"/>
<path d="M34.2503 105.327C34.8327 105.716 34.8327 106.104 34.2503 106.492C33.6679 106.88 32.8913 106.88 32.3089 106.492C31.7265 106.104 31.7265 105.716 32.3089 105.327C32.8913 104.939 33.6679 104.939 34.2503 105.327Z" fill="#16110D"/>
<path d="M22.4089 105.327C22.9913 104.939 23.7679 104.939 24.3503 105.327C24.9327 105.716 24.9327 106.104 24.3503 106.492C23.7679 106.88 22.9913 106.88 22.4089 106.492C22.0206 106.104 22.0206 105.521 22.4089 105.327Z" fill="#16110D"/>
<path d="M29.2029 102.415C29.7854 102.804 29.7854 103.192 29.2029 103.58C28.6205 103.969 27.844 103.969 27.2615 103.58C26.6791 103.192 26.6791 102.804 27.2615 102.415C27.844 102.221 28.8147 102.221 29.2029 102.415C29.7854 102.804 28.8147 102.221 29.2029 102.415Z" fill="#16110D"/>
<path d="M17.555 102.415C18.1374 102.027 18.914 102.027 19.4964 102.415C20.0788 102.804 20.0788 103.192 19.4964 103.58C18.914 103.968 18.1374 103.968 17.555 103.58C16.9726 103.192 16.9726 102.804 17.555 102.415Z" fill="#16110D"/>
<path d="M24.3499 99.503C24.9323 99.8913 24.9323 100.28 24.3499 100.668C23.7675 101.056 22.9909 101.056 22.4085 100.668C21.8261 100.28 21.8261 99.8913 22.4085 99.503C22.9909 99.3089 23.7675 99.3089 24.3499 99.503C24.9323 99.8913 23.7675 99.3089 24.3499 99.503Z" fill="#16110D"/>
<path d="M12.702 99.6975C13.2844 99.3092 14.0609 99.3092 14.6434 99.6975C15.2258 100.086 15.2258 100.474 14.6434 100.862C14.0609 101.251 13.2844 101.251 12.702 100.862C12.1195 100.474 12.1195 99.8916 12.702 99.6975Z" fill="#16110D"/>
<path d="M81.6223 138.914C82.2047 138.526 82.9813 138.526 83.5637 138.914C84.1461 139.302 84.1461 139.691 83.5637 140.079C82.9813 140.467 82.2047 140.467 81.6223 140.079C81.234 139.691 81.234 139.108 81.6223 138.914Z" fill="#16110D"/>
<path d="M76.7688 136.002C77.3513 135.614 78.1278 135.614 78.7103 136.002C79.2927 136.39 79.2927 136.779 78.7103 137.167C78.1278 137.555 77.3513 137.555 76.7688 137.167C76.1864 136.779 76.1864 136.39 76.7688 136.002Z" fill="#16110D"/>
<path d="M83.5638 133.284C84.1462 133.672 84.1462 134.06 83.5638 134.449C82.9814 134.837 82.2048 134.837 81.6224 134.449C81.0399 134.06 81.0399 133.672 81.6224 133.284C82.2048 132.895 82.9814 132.895 83.5638 133.284Z" fill="#16110D"/>
<path d="M74.2437 57.1809C74.2437 39.514 61.8186 17.9643 46.4814 9.03376C38.9099 4.76264 32.1146 4.1802 27.2611 6.89819L27.0672 7.09234C27.0672 7.09234 26.8729 7.09235 26.8729 7.28649L20.2723 11.1693C19.6898 11.3635 19.6898 12.14 20.2723 12.5283L24.1551 15.0522C23.5727 17.3819 23.1844 19.9057 23.1844 22.6237C23.1844 40.2905 35.6095 61.8403 50.9467 70.7708C53.0823 71.9356 55.0234 72.9063 56.9648 73.4887L58.3237 78.5364C58.5179 79.1189 59.1007 79.313 59.6831 79.1189L65.8955 75.4302C66.0897 75.4302 66.0896 75.236 66.2837 75.236L66.6719 75.0419C71.3313 71.7415 74.2437 65.7231 74.2437 57.1809Z" fill="#36A9E1"/>
<path d="M73.272 60.2868C73.272 42.6199 60.8469 21.0702 45.5097 12.1397C37.9382 7.8686 31.1429 7.28616 26.2894 10.0041L26.0955 10.1983C26.0955 10.1983 25.9012 10.1983 25.9012 10.3924L19.3006 14.2753C18.7182 14.4694 18.7182 15.246 19.3006 15.6342L23.1834 18.1581C22.601 20.4878 22.2127 23.0116 22.2127 25.7296C22.2127 43.3965 54.0517 75.8181 55.9932 76.4006C55.9932 76.4006 73.272 68.829 73.272 60.2868Z" fill="white"/>
<path d="M59.1003 79.8954C58.9061 79.8954 58.7119 79.8954 58.5178 79.7013C57.9353 79.5071 57.5471 79.1189 57.5471 78.5364L56.1882 73.877C54.2467 73.2946 52.305 72.3239 50.5578 71.3532C35.0264 62.4227 22.4072 40.4847 22.4072 22.4295C22.4072 19.9057 22.6017 17.3818 23.1841 15.2463L19.8838 13.1107C19.3014 12.7224 19.1069 12.3341 19.1069 11.7517C19.1069 11.1693 19.4955 10.5869 19.8838 10.3927L27.2608 6.12162C32.6967 3.40364 39.6862 4.1802 47.0636 8.45132C62.5949 17.3818 75.2141 39.3198 75.2141 57.375C75.2141 65.7231 72.4959 72.1297 67.6423 75.4301L66.4778 76.2067L60.2648 79.8954C59.6824 79.8954 59.4886 79.8954 59.1003 79.8954ZM20.8545 11.7517L25.1255 14.4697L24.9312 15.0521C24.3488 17.3818 23.9605 19.9057 23.9605 22.4295C23.9605 39.9022 36.1916 61.0637 51.3346 69.6059C53.276 70.7708 55.2174 71.5473 57.1589 72.1297L57.5471 72.3239L59.1003 77.7598L66.0891 73.4887C70.7485 70.5766 73.2727 64.5582 73.2727 56.7926C73.2727 39.514 61.0416 18.1584 45.8986 9.61618C38.9095 5.53921 32.5028 4.95677 27.4551 7.48061L27.0669 7.67476L20.8545 11.7517Z" fill="#16110D"/>
<path d="M34.2503 121.83L47.8402 67.8582L31.3382 53.4917L17.7483 107.463C17.5541 108.434 18.5249 109.599 19.3015 109.405L27.4553 105.522C27.8436 105.328 28.6201 105.91 28.8142 106.686L32.5032 120.859C32.8915 122.024 34.0562 122.606 34.2503 121.83Z" fill="#36A9E1"/>
<path d="M31.9207 108.434L35.6092 122.606C35.9975 123.771 37.1626 124.353 37.3567 123.577L44.5399 94.6495L27.0671 83.9717L20.6604 109.016C20.4662 109.987 21.437 111.151 22.2136 110.957L30.3674 107.075C31.144 107.075 31.7265 107.657 31.9207 108.434Z" fill="white"/>
<path d="M33.862 123.189C32.8913 123.189 31.9204 122.218 31.7263 121.247L28.0378 107.075C28.0378 106.881 27.8435 106.687 27.8435 106.687L19.884 110.375C19.3015 110.569 18.7188 110.569 18.1364 109.987C17.3598 109.405 16.9715 108.434 17.1657 107.463L31.1438 52.1328L49.199 67.8583L35.4153 122.218C35.027 122.606 34.4445 123.189 33.862 123.189ZM27.6496 104.551C27.8438 104.551 28.0377 104.551 28.426 104.745C29.0084 105.133 29.5907 105.716 29.7849 106.492L33.4739 120.665C33.4739 120.859 33.4736 120.859 33.6677 121.053L46.8694 68.2466L31.9206 55.2391L18.7189 107.657C18.7189 107.851 18.913 108.24 19.1071 108.434L27.261 104.745C27.261 104.551 27.4555 104.551 27.6496 104.551Z" fill="#16110D"/>
<path d="M66.09 135.419L52.8888 65.9168L36.3867 61.0632L49.588 130.566C49.7821 131.731 50.9472 132.507 51.3355 131.731L55.024 121.83C55.2182 121.247 55.9946 121.441 56.3829 122.218L64.5372 135.614C65.3138 136.778 66.2841 136.584 66.09 135.419Z" fill="#36A9E1"/>
<path d="M69.3907 135.225L61.2364 92.7085L45.8994 94.2616L52.6944 130.372C52.8885 131.537 54.0532 132.313 54.4415 131.537L58.1304 121.636C58.3246 121.053 59.101 121.247 59.4893 122.024L67.6432 135.42C68.6139 136.39 69.779 136.39 69.3907 135.225Z" fill="white"/>
<path d="M65.7013 137.361C65.1189 137.361 64.3425 136.973 63.9542 136.196L55.8004 122.994L52.3057 132.313C52.1116 132.896 51.5293 133.284 50.9468 133.284C49.9761 133.284 49.0052 132.313 48.8111 131.148L35.2212 60.2866L53.6646 65.7226L67.0602 135.808C67.2544 136.973 66.6721 137.555 66.2838 137.749C66.0897 137.167 65.8955 137.361 65.7013 137.361ZM55.6061 120.665C56.1885 120.665 56.9649 121.053 57.3531 121.83L65.1188 134.449L52.3057 66.6933L37.7451 62.4222L50.7525 130.372C50.7525 130.566 50.9468 130.76 50.9468 130.76L54.441 121.441C54.441 121.053 54.8295 120.665 55.6061 120.665C55.4119 120.665 55.4119 120.665 55.6061 120.665Z" fill="#16110D"/>
<path d="M58.9816 79.2802C69.8454 73.0078 69.8734 52.7179 59.044 33.9614C48.2146 15.205 30.6289 5.08467 19.765 11.3571C8.90108 17.6296 8.87317 37.9195 19.7025 56.6759C30.5319 75.4324 48.1177 85.5527 58.9816 79.2802Z" fill="#36A9E1"/>
<path d="M51.7228 82.0304C47.84 82.0304 43.3746 80.6714 38.9093 78.1476C23.378 69.2171 10.7588 47.279 10.7588 29.2239C10.7588 20.2934 13.8653 13.6926 19.3013 10.3922C24.7373 7.09175 32.1144 7.86832 39.88 12.3336C55.4113 21.2641 68.0305 43.2021 68.0305 61.2572C68.0305 70.1877 64.9245 76.7886 59.4885 80.089C57.1588 81.448 54.635 82.0304 51.7228 82.0304ZM27.067 10.3922C24.5431 10.3922 22.2134 10.9746 20.272 12.1394C15.4185 15.0516 12.7002 21.0699 12.7002 29.2239C12.7002 46.5025 24.9313 67.858 40.0744 76.4003C47.2576 80.4772 53.8586 81.2538 58.7121 78.3417C63.5657 75.4296 66.4778 69.4112 66.4778 61.2572C66.4778 43.7845 54.2467 22.6231 39.1036 14.0809C34.8325 11.557 30.7557 10.3922 27.067 10.3922Z" fill="#16110D"/>
<path d="M55.9027 76.1997C64.3524 71.3211 64.3353 55.4733 55.8648 40.8024C47.3943 26.1315 33.6781 18.1932 25.2284 23.0717C16.7787 27.9503 16.7954 43.7984 25.2659 58.4692C33.7364 73.1401 47.4531 81.0783 55.9027 76.1997Z" fill="white"/>
<path d="M49.0055 74.2649C45.8993 74.2649 42.4043 73.2941 38.9098 71.1586C26.6789 64.1695 16.7778 46.8909 16.7778 32.9127C16.7778 25.9236 19.1075 20.6818 23.5728 18.1579C28.038 15.6341 33.668 16.2165 39.8805 19.7111C52.1114 26.7002 62.0129 43.9788 62.0129 57.9569C62.0129 64.946 59.6832 70.1879 55.218 72.7117C53.4707 73.6824 51.3352 74.2649 49.0055 74.2649ZM29.7852 18.1579C27.8438 18.1579 26.0966 18.5462 24.5435 19.5169C20.6607 21.6525 18.7192 26.506 18.7192 32.7185C18.7192 46.3084 28.232 62.6164 39.8805 69.4113C45.3165 72.5176 50.5586 73.1 54.2472 70.9644C58.1301 68.8289 60.0715 63.9753 60.0715 57.7628C60.0715 44.1729 50.5583 27.865 38.9098 21.07C35.6094 19.1286 32.5032 18.1579 29.7852 18.1579Z" fill="#16110D"/>
<path d="M36.1922 59.8988L27.6502 42.8143C26.4853 40.4846 26.6794 38.155 28.0383 37.5725C29.3973 36.9901 31.5329 38.5432 32.8919 40.8729L37.3572 49.8035L47.2582 41.4554C48.423 40.4847 50.5586 41.4554 52.1117 43.5909C53.4707 45.7265 53.8591 48.4445 52.6942 49.4152L38.7161 61.2578C37.9396 61.8402 36.7746 61.2578 36.1922 59.8988Z" fill="#36A9E1"/>
<path d="M37.1626 58.9284C36.9685 58.9284 36.9685 58.9284 36.7744 58.9284C35.9978 58.7342 35.0272 57.9577 34.4448 56.987L25.9023 39.9025C24.9316 38.1552 24.7373 36.2138 25.3198 35.049C25.7081 34.2724 26.0964 33.69 26.873 33.4959C28.8144 32.7193 31.3383 34.4666 32.6972 37.1845L36.7744 45.1443L45.899 37.5728C46.4814 36.9904 47.2581 36.7962 48.0347 36.9904C49.3937 37.1845 50.9468 38.3494 51.9175 39.9025C53.6648 42.4263 53.8589 45.5326 52.3057 46.8916L38.3276 58.7343C37.9394 58.7343 37.5509 58.9284 37.1626 58.9284ZM35.9976 56.0163C36.3858 56.7928 36.7741 56.987 36.9683 56.987L50.9468 45.1443C51.7234 44.5619 51.5292 42.4263 50.3643 40.4849C49.5877 39.3201 48.6168 38.5435 47.646 38.3494C47.2578 38.3494 47.0638 38.5435 46.8697 38.5435L35.9976 47.6682L30.9502 37.767C29.9795 35.8255 28.2319 34.6607 27.2612 34.8548C27.2612 34.8548 26.8733 35.049 26.6791 35.4373C26.2909 36.2138 26.4846 37.5728 27.2612 38.9318L35.9976 56.0163Z" fill="#16110D"/>
<path d="M63.9546 43.5907L70.5552 39.5137L73.2735 47.4735L74.2442 59.8985L73.2735 67.2759L65.5078 75.8181L62.4014 76.983L64.9253 72.5177L67.0606 64.9462V55.2391L63.9546 45.3379V43.5907Z" fill="#16110D"/>
</svg>
