<svg width="77" height="150" viewBox="0 0 77 150" fill="none" xmlns="http://www.w3.org/2000/svg">
<path d="M13.3696 142.478H0.00390625V146.136C0.00390625 147.138 0.655417 148.111 1.95841 148.873C4.57443 150.376 8.80416 150.376 11.4102 148.873C12.7131 148.111 13.3696 147.128 13.3696 146.136V142.503V142.478Z" fill="#16110D"/>
<path d="M11.41 145.334C8.804 146.838 4.57427 146.838 1.95826 145.334C-0.657761 143.831 -0.647738 141.38 1.95826 139.867C4.56425 138.353 8.804 138.363 11.41 139.867C14.016 141.37 14.021 143.831 11.41 145.334Z" fill="#36A9E1"/>
<path d="M9.2901 24.8923H4.07812V142.207C4.09919 142.437 4.18145 142.656 4.31631 142.843C4.45118 143.03 4.6337 143.177 4.84487 143.27C5.41652 143.556 6.04718 143.705 6.68663 143.705C7.32609 143.705 7.95672 143.556 8.52837 143.27C8.73829 143.176 8.91952 143.029 9.05341 142.842C9.18729 142.655 9.26898 142.436 9.2901 142.207V24.8923Z" fill="#16110D"/>
<path d="M12.1472 21.81C12.1478 22.5275 12.007 23.2382 11.7327 23.9012C11.4584 24.5643 11.0561 25.1667 10.5487 25.6741C10.0413 26.1815 9.43889 26.5838 8.77584 26.8581C8.11279 27.1324 7.40217 27.2732 6.68463 27.2726C5.96752 27.2726 5.25742 27.1313 4.59496 26.8567C3.93249 26.5821 3.33061 26.1796 2.82376 25.6723C2.31692 25.165 1.91502 24.5628 1.64105 23.9001C1.36708 23.2374 1.22641 22.5271 1.22707 21.81C1.22509 21.0929 1.36447 20.3824 1.63723 19.7192C1.90998 19.056 2.31078 18.453 2.8167 17.9448C3.32261 17.4365 3.92372 17.033 4.58569 16.7572C5.24765 16.4814 5.95748 16.3387 6.6746 16.3374C7.39383 16.3354 8.10636 16.4756 8.77122 16.75C9.43608 17.0243 10.0401 17.4273 10.5487 17.9359C11.0573 18.4445 11.4603 19.0485 11.7346 19.7134C12.009 20.3782 12.1492 21.0908 12.1472 21.81Z" fill="#36A9E1"/>
<path d="M76.8013 49.9148C54.2996 47.9553 31.7978 90.854 9.29102 88.8945V39.0398C31.7978 41.0043 54.2996 -1.89434 76.8013 0.0651637V49.9148Z" fill="#E31B25"/>
<path d="M20.1255 42.8486C20.777 44.0865 21.4335 45.2943 22.09 46.482C23.59 45.9372 25.056 45.3029 26.4801 44.5826C25.4177 46.482 24.3602 48.3362 23.3028 50.1254C23.5534 51.6689 23.8039 53.2024 24.0495 54.741C22.7354 54.7271 21.424 54.6182 20.1255 54.4152C18.8158 55.8017 17.5078 57.0763 16.2015 58.239C16.452 56.485 16.701 54.7276 16.9482 52.9669C15.8908 52.1099 14.8283 51.1728 13.7759 50.1504C15.2903 49.6445 16.7575 49.0073 18.161 48.246C18.8191 46.4719 19.474 44.6728 20.1255 42.8486Z" fill="#F49624"/>
<path d="M28.565 36.0078C28.6853 36.1983 28.8056 36.3937 28.9209 36.5891L29.7277 36.1231L29.1464 37.2106L29.2817 38.0325L28.565 38.1227L27.8484 39.0749L27.9837 38.0726L27.4023 37.827L28.2042 37.1254L28.565 36.0078Z" fill="#F49624"/>
<path d="M31.732 37.5964L32.0928 38.1527L32.8947 37.6516C32.6992 38.0224 32.5088 38.3983 32.3133 38.7742C32.3584 39.0448 32.4086 39.3154 32.4537 39.586L31.732 39.7263L31.0154 40.7286L31.1507 39.6963L30.5693 39.4958L31.3762 38.729C31.4764 38.3432 31.5967 37.9723 31.732 37.5964Z" fill="#F49624"/>
<path d="M31.732 44.5828L32.0928 45.1341L32.8947 44.6329L32.3133 45.7605C32.3584 46.0311 32.4086 46.3017 32.4537 46.5774L31.732 46.7177C31.4915 47.0484 31.2309 47.3842 31.0154 47.72L31.1507 46.6876L30.5693 46.4822C30.84 46.2366 31.1056 45.981 31.3762 45.7254C31.4764 45.3345 31.5967 44.9586 31.732 44.5828Z" fill="#F49624"/>
<path d="M28.565 50.9724L28.9209 51.5538L29.7277 51.0927L29.1464 52.1802L29.2817 53.0021L28.565 53.0973L27.8484 54.0445C27.8935 53.7087 27.9386 53.3629 27.9837 53.0422C27.7882 52.967 27.5928 52.8818 27.4023 52.8016L28.2042 52.1L28.565 50.9724Z" fill="#F49624"/>
</svg>
