<svg width="402" height="342" viewBox="0 0 402 342" fill="none" xmlns="http://www.w3.org/2000/svg">
<path d="M363.6 249.731L368.508 252.493C369.122 252.799 370.043 252.799 370.656 252.493L375.258 249.731C375.872 249.424 375.872 248.811 375.258 248.504L370.349 245.743C369.735 245.436 368.815 245.436 368.202 245.743L363.6 248.504C362.986 248.811 362.986 249.424 363.6 249.731Z" fill="#16110D"/>
<path d="M364.213 263.537L369.122 266.298C369.736 266.605 370.656 266.605 371.27 266.298L375.872 263.537C376.485 263.23 376.485 262.617 375.872 262.31L370.963 259.549C370.35 259.242 369.429 259.242 368.815 259.549L364.213 262.31C363.6 262.617 363.6 263.23 364.213 263.537Z" fill="#16110D"/>
<path d="M351.942 256.481L356.851 259.242C357.465 259.549 358.385 259.549 358.998 259.242L363.6 256.481C364.214 256.174 364.214 255.561 363.6 255.254L358.692 252.493C358.078 252.186 357.158 252.186 356.544 252.493L351.942 255.254C351.328 255.561 351.328 256.174 351.942 256.481Z" fill="#16110D"/>
<path d="M351.634 270.594L356.543 273.355C357.157 273.662 358.077 273.662 358.691 273.355L363.293 270.594C363.906 270.287 363.906 269.673 363.293 269.366L358.384 266.605C357.77 266.298 356.85 266.298 356.236 266.605L351.634 269.366C351.328 269.673 351.328 270.287 351.634 270.594Z" fill="#16110D"/>
<path d="M339.67 263.537L344.579 266.298C345.192 266.605 346.112 266.605 346.726 266.298L351.328 263.537C351.941 263.23 351.941 262.617 351.328 262.31L346.419 259.549C345.806 259.242 344.885 259.242 344.271 259.549L339.67 262.31C339.056 262.617 339.056 263.23 339.67 263.537Z" fill="#16110D"/>
<path d="M340.284 277.343L345.192 280.104C345.806 280.411 346.726 280.411 347.34 280.104L351.942 277.343C352.555 277.036 352.555 276.423 351.942 276.116L347.033 273.355C346.419 273.048 345.499 273.048 344.886 273.355L340.284 276.116C339.67 276.423 339.67 277.036 340.284 277.343Z" fill="#16110D"/>
<path d="M328.012 270.287L332.92 273.048C333.534 273.355 334.454 273.355 335.068 273.048L339.67 270.287C340.283 269.98 340.283 269.366 339.67 269.06L334.761 266.298C334.147 265.992 333.227 265.992 332.614 266.298L328.012 269.06C327.398 269.366 327.398 269.98 328.012 270.287Z" fill="#16110D"/>
<path d="M328.625 284.093L333.533 286.854C334.147 287.161 335.067 287.161 335.681 286.854L340.283 284.093C340.897 283.786 340.897 283.172 340.283 282.865L335.374 280.104C334.761 279.797 333.84 279.797 333.227 280.104L328.625 282.865C328.011 283.172 328.011 283.786 328.625 284.093Z" fill="#16110D"/>
<path d="M316.353 277.036L321.262 279.797C321.875 280.104 322.796 280.104 323.41 279.797L328.011 277.036C328.625 276.729 328.625 276.116 328.011 275.809L323.103 273.048C322.489 272.741 321.569 272.741 320.955 273.048L316.353 275.809C315.74 276.116 315.74 276.729 316.353 277.036Z" fill="#16110D"/>
<path d="M316.046 291.149L320.955 293.91C321.569 294.217 322.489 294.217 323.103 293.91L327.705 291.149C328.318 290.842 328.318 290.229 327.705 289.922L322.796 287.161C322.182 286.854 321.262 286.854 320.648 287.161L316.046 289.922C315.74 290.229 315.74 290.842 316.046 291.149Z" fill="#16110D"/>
<path d="M303.775 284.093L308.684 286.854C309.297 287.161 310.218 287.161 310.831 286.854L315.433 284.093C316.047 283.786 316.047 283.172 315.433 282.865L310.524 280.104C309.911 279.797 308.991 279.797 308.377 280.104L303.775 282.865C303.468 283.172 303.468 283.786 303.775 284.093Z" fill="#16110D"/>
<path d="M304.696 297.898L309.604 300.66C310.218 300.966 311.138 300.966 311.752 300.66L316.354 297.898C316.967 297.592 316.967 296.978 316.354 296.671L311.445 293.91C310.832 293.603 309.911 293.603 309.298 293.91L304.696 296.671C304.082 296.978 304.082 297.592 304.696 297.898Z" fill="#16110D"/>
<path d="M292.424 290.842L297.333 293.603C297.947 293.91 298.867 293.91 299.48 293.603L304.082 290.842C304.696 290.535 304.696 289.922 304.082 289.615L299.174 286.854C298.56 286.547 297.64 286.547 297.026 286.854L292.424 289.615C291.811 289.922 291.811 290.535 292.424 290.842Z" fill="#16110D"/>
<path d="M293.037 304.648L297.945 307.409C298.559 307.716 299.48 307.716 300.093 307.409L304.695 304.648C305.309 304.341 305.309 303.727 304.695 303.421L299.786 300.66C299.172 300.353 298.252 300.353 297.639 300.66L293.037 303.421C292.423 303.727 292.423 304.341 293.037 304.648Z" fill="#16110D"/>
<path d="M280.765 297.592L285.674 300.353C286.287 300.659 287.208 300.659 287.822 300.353L292.424 297.592C293.037 297.285 293.037 296.671 292.424 296.364L287.515 293.603C286.901 293.296 285.981 293.296 285.367 293.603L280.765 296.364C280.152 296.671 280.152 297.285 280.765 297.592Z" fill="#16110D"/>
<path d="M280.458 311.704L285.367 314.465C285.981 314.772 286.901 314.772 287.515 314.465L292.116 311.704C292.73 311.397 292.73 310.784 292.116 310.477L287.208 307.716C286.594 307.409 285.674 307.409 285.06 307.716L280.458 310.477C280.152 310.784 280.152 311.397 280.458 311.704Z" fill="#16110D"/>
<path d="M268.186 304.648L273.095 307.409C273.709 307.716 274.629 307.716 275.243 307.409L279.844 304.648C280.458 304.341 280.458 303.727 279.844 303.421L274.936 300.66C274.322 300.353 273.402 300.353 272.788 300.66L268.186 303.421C267.88 303.727 267.88 304.341 268.186 304.648Z" fill="#16110D"/>
<path d="M268.8 318.454L273.709 321.215C274.322 321.522 275.243 321.522 275.856 321.215L280.458 318.454C281.072 318.147 281.072 317.533 280.458 317.226L275.55 314.465C274.936 314.159 274.015 314.159 273.402 314.465L268.8 317.226C268.493 317.533 268.493 318.147 268.8 318.454Z" fill="#16110D"/>
<path d="M256.835 311.398L261.744 314.158C262.358 314.465 263.278 314.465 263.891 314.158L268.493 311.398C269.107 311.091 269.107 310.477 268.493 310.17L263.585 307.409C262.971 307.102 262.051 307.102 261.437 307.409L256.835 310.17C256.221 310.477 256.221 311.091 256.835 311.398Z" fill="#16110D"/>
<path d="M257.449 325.203L262.358 327.964C262.971 328.271 263.892 328.271 264.505 327.964L269.107 325.203C269.721 324.897 269.721 324.283 269.107 323.976L264.199 321.215C263.585 320.908 262.665 320.908 262.051 321.215L257.449 323.976C256.836 324.283 256.836 324.897 257.449 325.203Z" fill="#16110D"/>
<path d="M245.177 318.147L250.085 320.908C250.699 321.215 251.619 321.215 252.233 320.908L256.835 318.147C257.448 317.84 257.448 317.226 256.835 316.92L251.926 314.158C251.312 313.852 250.392 313.852 249.779 314.158L245.177 316.92C244.563 317.226 244.563 317.84 245.177 318.147Z" fill="#16110D"/>
<path d="M244.871 332.259L249.779 335.021C250.393 335.327 251.313 335.327 251.927 335.021L256.529 332.259C257.142 331.953 257.142 331.339 256.529 331.032L251.62 328.271C251.006 327.964 250.086 327.964 249.473 328.271L244.871 331.032C244.564 331.339 244.564 331.953 244.871 332.259Z" fill="#16110D"/>
<path d="M232.599 325.203L237.507 327.964C238.121 328.271 239.041 328.271 239.655 327.964L244.257 325.203C244.87 324.897 244.87 324.283 244.257 323.976L239.348 321.215C238.734 320.908 237.814 320.908 237.201 321.215L232.599 323.976C232.292 324.283 232.292 324.897 232.599 325.203Z" fill="#16110D"/>
<path d="M233.212 339.009L238.121 341.77C238.734 342.077 239.655 342.077 240.268 341.77L244.87 339.009C245.484 338.702 245.484 338.089 244.87 337.782L239.961 335.021C239.348 334.714 238.428 334.714 237.814 335.021L233.212 337.782C232.905 338.089 232.905 338.702 233.212 339.009Z" fill="#16110D"/>
<path d="M220.94 331.953L225.849 334.714C226.462 335.021 227.383 335.021 227.996 334.714L232.598 331.953C233.212 331.646 233.212 331.032 232.598 330.725L227.689 327.964C227.076 327.657 226.156 327.657 225.542 327.964L220.94 330.725C220.633 331.032 220.633 331.646 220.94 331.953Z" fill="#16110D"/>
<path d="M208.975 324.896L213.883 327.657C214.497 327.964 215.418 327.964 216.031 327.657L220.633 324.896C221.247 324.589 221.247 323.976 220.633 323.669L215.724 320.908C215.111 320.601 214.19 320.601 213.577 320.908L208.975 323.669C208.361 323.976 208.361 324.589 208.975 324.896Z" fill="#16110D"/>
<path d="M196.703 317.84L201.611 320.601C202.225 320.908 203.146 320.908 203.759 320.601L208.361 317.84C208.975 317.533 208.975 316.92 208.361 316.613L203.452 313.852C202.839 313.545 201.918 313.545 201.305 313.852L196.703 316.613C196.089 316.92 196.089 317.533 196.703 317.84Z" fill="#16110D"/>
<path d="M184.431 310.784L189.34 313.545C189.953 313.852 190.874 313.852 191.488 313.545L196.09 310.784C196.703 310.477 196.703 309.863 196.09 309.556L191.181 306.796C190.567 306.489 189.647 306.489 189.033 306.796L184.431 309.556C183.818 309.863 183.818 310.477 184.431 310.784Z" fill="#16110D"/>
<path d="M172.159 303.42L177.067 306.182C177.681 306.489 178.602 306.489 179.215 306.182L183.817 303.42C184.431 303.114 184.431 302.5 183.817 302.194L178.908 299.432C178.295 299.126 177.374 299.126 176.761 299.432L172.159 302.194C171.545 302.807 171.545 303.42 172.159 303.42Z" fill="#16110D"/>
<path d="M159.887 296.364L164.796 299.126C165.41 299.432 166.33 299.432 166.944 299.126L171.546 296.364C172.159 296.058 172.159 295.444 171.546 295.137L166.637 292.376C166.023 292.069 165.103 292.069 164.489 292.376L159.887 295.137C159.274 295.751 159.274 296.058 159.887 296.364Z" fill="#16110D"/>
<path d="M147.616 289.308L152.524 292.069C153.138 292.376 154.059 292.376 154.672 292.069L159.274 289.308C159.888 289.001 159.888 288.388 159.274 288.081L154.366 285.32C153.752 285.013 152.831 285.013 152.218 285.32L147.616 288.081C147.002 288.694 147.002 289.001 147.616 289.308Z" fill="#16110D"/>
<path d="M135.344 282.252L140.252 285.013C140.866 285.32 141.787 285.32 142.4 285.013L147.002 282.252C147.616 281.945 147.616 281.331 147.002 281.025L142.094 278.263C141.48 277.957 140.559 277.957 139.946 278.263L135.344 281.025C134.73 281.638 134.73 281.945 135.344 282.252Z" fill="#16110D"/>
<path d="M123.072 275.196L127.981 277.957C128.595 278.264 129.515 278.264 130.129 277.957L134.731 275.196C135.344 274.889 135.344 274.275 134.731 273.968L129.822 271.207C129.208 270.9 128.288 270.9 127.674 271.207L123.072 273.968C122.459 274.582 122.459 274.889 123.072 275.196Z" fill="#16110D"/>
<path d="M110.8 268.139L115.709 270.9C116.322 271.207 117.243 271.207 117.856 270.9L122.458 268.139C123.072 267.832 123.072 267.219 122.458 266.912L117.55 264.151C116.936 263.844 116.015 263.844 115.402 264.151L110.8 266.912C110.186 267.219 110.186 267.832 110.8 268.139Z" fill="#16110D"/>
<path d="M98.5284 261.083L103.437 263.844C104.051 264.151 104.971 264.151 105.585 263.844L110.187 261.083C110.8 260.776 110.8 260.163 110.187 259.856L105.278 257.094C104.665 256.788 103.744 256.788 103.13 257.094L98.5284 259.856C97.9148 260.163 97.9148 260.776 98.5284 261.083Z" fill="#16110D"/>
<path d="M86.2564 254.027L91.1651 256.788C91.7787 257.095 92.6993 257.095 93.3129 256.788L97.9148 254.027C98.5284 253.72 98.5284 253.106 97.9148 252.799L93.0062 250.038C92.3926 249.732 91.472 249.732 90.8584 250.038L86.2564 252.799C85.6428 253.106 85.6428 253.72 86.2564 254.027Z" fill="#16110D"/>
<path d="M209.589 338.702L214.497 341.463C215.111 341.77 216.031 341.77 216.645 341.463L221.247 338.702C221.86 338.395 221.86 337.782 221.247 337.475L216.338 334.714C215.725 334.407 214.804 334.407 214.191 334.714L209.589 337.475C208.975 337.782 208.975 338.395 209.589 338.702Z" fill="#16110D"/>
<path d="M197.317 331.646L202.226 334.407C202.84 334.714 203.76 334.714 204.373 334.407L208.975 331.646C209.589 331.339 209.589 330.725 208.975 330.419L204.067 327.657C203.453 327.351 202.533 327.351 201.919 327.657L197.317 330.419C196.704 330.725 196.704 331.339 197.317 331.646Z" fill="#16110D"/>
<path d="M185.045 324.59L189.954 327.351C190.568 327.658 191.488 327.658 192.101 327.351L196.703 324.59C197.317 324.283 197.317 323.669 196.703 323.362L191.795 320.601C191.181 320.295 190.261 320.295 189.647 320.601L185.045 323.362C184.432 323.669 184.432 324.283 185.045 324.59Z" fill="#16110D"/>
<path d="M172.774 317.226L177.683 319.988C178.296 320.294 179.216 320.294 179.83 319.988L184.432 317.226C185.045 316.919 185.045 316.306 184.432 315.999L179.523 313.238C178.91 312.931 177.989 312.931 177.376 313.238L172.774 315.999C172.16 316.613 172.16 317.226 172.774 317.226Z" fill="#16110D"/>
<path d="M160.502 310.17L165.411 312.931C166.024 313.238 166.944 313.238 167.558 312.931L172.16 310.17C172.774 309.863 172.774 309.25 172.16 308.943L167.251 306.182C166.638 305.875 165.717 305.875 165.104 306.182L160.502 308.943C159.888 309.557 159.888 309.863 160.502 310.17Z" fill="#16110D"/>
<path d="M148.23 303.114L153.139 305.875C153.752 306.182 154.672 306.182 155.286 305.875L159.888 303.114C160.502 302.807 160.502 302.193 159.888 301.887L154.979 299.126C154.366 298.819 153.445 298.819 152.832 299.126L148.23 301.887C147.616 302.5 147.616 302.807 148.23 303.114Z" fill="#16110D"/>
<path d="M135.958 296.058L140.867 298.819C141.481 299.125 142.401 299.125 143.015 298.819L147.616 296.058C148.23 295.751 148.23 295.137 147.616 294.83L142.708 292.069C142.094 291.762 141.174 291.762 140.56 292.069L135.958 294.83C135.345 295.444 135.345 295.751 135.958 296.058Z" fill="#16110D"/>
<path d="M123.686 289.001L128.595 291.763C129.209 292.069 130.129 292.069 130.743 291.763L135.344 289.001C135.958 288.695 135.958 288.081 135.344 287.774L130.436 285.013C129.822 284.706 128.902 284.706 128.288 285.013L123.686 287.774C123.073 288.388 123.073 288.695 123.686 289.001Z" fill="#16110D"/>
<path d="M111.415 281.945L116.324 284.706C116.937 285.013 117.857 285.013 118.471 284.706L123.073 281.945C123.687 281.638 123.687 281.025 123.073 280.718L118.164 277.957C117.551 277.65 116.631 277.65 116.017 277.957L111.415 280.718C110.801 281.025 110.801 281.638 111.415 281.945Z" fill="#16110D"/>
<path d="M99.1425 274.889L104.051 277.65C104.665 277.957 105.585 277.957 106.199 277.65L110.801 274.889C111.414 274.582 111.414 273.968 110.801 273.661L105.892 270.9C105.278 270.593 104.358 270.593 103.744 270.9L99.1425 273.661C98.529 273.968 98.529 274.582 99.1425 274.889Z" fill="#16110D"/>
<path d="M86.8711 267.832L91.7797 270.594C92.3933 270.9 93.3135 270.9 93.9271 270.594L98.5291 267.832C99.1427 267.526 99.1427 266.912 98.5291 266.605L93.6204 263.844C93.0068 263.537 92.0866 263.537 91.473 263.844L86.8711 266.605C86.2575 266.912 86.2575 267.526 86.8711 267.832Z" fill="#16110D"/>
<path d="M74.5996 260.776L79.5082 263.537C80.1218 263.844 81.0421 263.844 81.6556 263.537L86.2576 260.776C86.8712 260.47 86.8712 259.856 86.2576 259.549L81.3489 256.788C80.7353 256.481 79.8151 256.481 79.2015 256.788L74.5996 259.549C73.986 259.856 73.986 260.47 74.5996 260.776Z" fill="#16110D"/>
<path d="M61.713 239.914L66.6216 242.675C67.2352 242.982 68.1558 242.982 68.7694 242.675L73.3713 239.914C73.9849 239.607 73.9849 238.994 73.3713 238.687L68.4627 235.926C67.8491 235.619 66.9285 235.619 66.3149 235.926L61.713 238.687C61.4062 238.994 61.0994 239.607 61.713 239.914Z" fill="#16110D"/>
<path d="M73.9845 246.971L78.8931 249.731C79.5067 250.038 80.4273 250.038 81.0409 249.731L85.6428 246.971C86.2564 246.664 86.2564 246.05 85.6428 245.743L80.7342 242.982C80.1206 242.675 79.2 242.675 78.5864 242.982L73.9845 245.743C73.6777 246.05 73.3709 246.664 73.9845 246.971Z" fill="#16110D"/>
<path d="M49.441 232.858L54.3497 235.619C54.9632 235.926 55.8839 235.926 56.4974 235.619L61.0994 232.858C61.713 232.551 61.713 231.938 61.0994 231.631L56.1907 228.87C55.5771 228.563 54.6565 228.563 54.0429 228.87L49.441 231.631C49.1342 231.938 48.8274 232.551 49.441 232.858Z" fill="#16110D"/>
<path d="M37.1695 225.801L42.0782 228.563C42.6918 228.87 43.6124 228.87 44.226 228.563L48.8279 225.801C49.4415 225.495 49.4415 224.881 48.8279 224.574L43.9192 221.813C43.3057 221.506 42.385 221.506 41.7714 221.813L37.1695 224.574C36.8627 224.881 36.5559 225.495 37.1695 225.801Z" fill="#16110D"/>
<path d="M24.8975 218.745L29.8062 221.506C30.4198 221.813 31.3404 221.813 31.954 221.506L36.5559 218.745C37.1695 218.438 37.1695 217.825 36.5559 217.518L31.6473 214.757C31.0337 214.45 30.1131 214.45 29.4995 214.757L24.8975 217.518C24.5907 217.825 24.284 218.438 24.8975 218.745Z" fill="#16110D"/>
<path d="M12.6256 211.689L17.5342 214.45C18.1478 214.757 19.0684 214.757 19.682 214.45L24.2839 211.689C24.8975 211.382 24.8975 210.769 24.2839 210.462L19.3753 207.701C18.7617 207.394 17.8411 207.394 17.2275 207.701L12.6256 210.462C12.3188 210.769 12.012 211.382 12.6256 211.689Z" fill="#16110D"/>
<path d="M0.353601 204.326L5.26225 207.087C5.87584 207.394 6.79645 207.394 7.41004 207.087L12.012 204.326C12.6256 204.019 12.6256 203.405 12.012 203.099L7.10332 200.337C6.48973 200.031 5.56912 200.031 4.95553 200.337L0.353601 203.099C0.0468044 203.712 -0.259991 204.326 0.353601 204.326Z" fill="#16110D"/>
<path d="M50.0556 246.663L54.9643 249.425C55.5779 249.731 56.4981 249.731 57.1117 249.425L61.7136 246.663C62.3272 246.357 62.3272 245.743 61.7136 245.437L56.805 242.675C56.1914 242.368 55.2712 242.368 54.6576 242.675L50.0556 245.437C49.7488 245.743 49.442 246.357 50.0556 246.663Z" fill="#16110D"/>
<path d="M62.3276 253.72L67.2363 256.481C67.8498 256.788 68.7701 256.788 69.3837 256.481L73.9856 253.72C74.5992 253.413 74.5992 252.799 73.9856 252.493L69.077 249.731C68.4634 249.425 67.5431 249.425 66.9295 249.731L62.3276 252.493C62.0208 252.799 61.714 253.413 62.3276 253.72Z" fill="#16110D"/>
<path d="M37.7837 239.607L42.6923 242.368C43.3059 242.675 44.2261 242.675 44.8397 242.368L49.4417 239.607C50.0553 239.3 50.0553 238.687 49.4417 238.38L44.533 235.619C43.9194 235.312 42.9992 235.312 42.3856 235.619L37.7837 238.38C37.4769 238.687 37.1701 239.3 37.7837 239.607Z" fill="#16110D"/>
<path d="M25.5122 232.551L30.4208 235.312C31.0344 235.619 31.9547 235.619 32.5682 235.312L37.1702 232.551C37.7838 232.244 37.7838 231.63 37.1702 231.324L32.2615 228.563C31.6479 228.256 30.7277 228.256 30.1141 228.563L25.5122 231.324C25.2054 231.63 24.8986 232.244 25.5122 232.551Z" fill="#16110D"/>
<path d="M13.2402 225.495L18.1489 228.256C18.7624 228.562 19.6827 228.562 20.2963 228.256L24.8982 225.495C25.5118 225.188 25.5118 224.574 24.8982 224.268L19.9896 221.506C19.376 221.2 18.4557 221.2 17.8421 221.506L13.2402 224.268C12.9334 224.574 12.6266 225.188 13.2402 225.495Z" fill="#16110D"/>
<path d="M0.968232 218.132L5.87688 220.893C6.49047 221.2 7.41071 221.2 8.0243 220.893L12.6262 218.132C13.2398 217.825 13.2398 217.211 12.6262 216.904L7.71758 214.143C7.10399 213.836 6.18375 213.836 5.57016 214.143L0.968232 216.904C0.661437 217.518 0.354642 218.132 0.968232 218.132Z" fill="#16110D"/>
<path d="M135.651 115.969L346.727 237.766L271.868 281.025C265.733 286.854 224.929 312.931 223.395 314.158C220.02 317.226 214.498 314.158 214.498 314.158L3.42245 192.361L135.651 115.969Z" fill="#16110D"/>
<path d="M148.843 115.048L359.918 236.846L285.06 280.104C278.924 285.933 238.12 312.011 236.586 313.238C233.212 316.306 227.689 313.238 227.689 313.238L16.6143 191.44L148.843 115.048Z" fill="white"/>
<path d="M232.905 316.613C234.439 316.613 236.28 316.306 237.814 315.079C238.428 314.772 242.416 312.011 247.325 308.636C260.21 300.353 281.379 286.24 286.288 281.945L363.293 237.459L148.843 113.821L147.923 114.434L13.24 192.361L226.77 315.692C227.076 315.079 229.837 316.613 232.905 316.613ZM356.851 237.153L284.14 279.184C279.845 283.172 258.369 297.285 245.484 305.875C238.734 310.477 236.28 312.011 235.667 312.318C233.212 314.465 228.303 312.011 228.303 312.011L19.6826 191.44L148.843 116.889L356.851 237.153Z" fill="#16110D"/>
<path d="M350.407 218.438L227.689 287.16C234.131 290.842 239.04 299.739 239.04 306.795C239.04 310.477 237.813 312.931 235.666 314.158L370.349 238.687C372.189 237.459 373.11 235.005 373.11 231.631C373.11 224.267 367.894 215.37 361.759 211.996L350.407 218.438Z" fill="white"/>
<path d="M236.587 315.692L371.27 240.221C373.724 238.38 374.951 235.619 374.951 231.937C374.951 223.961 369.736 214.757 362.679 210.768L361.759 210.462L349.487 217.211L224.315 287.16L226.769 288.694C232.598 292.069 237.507 300.353 237.507 307.102C237.507 309.863 236.587 312.011 235.053 312.931L236.587 315.692ZM361.759 214.143C367.282 217.824 371.576 225.495 371.576 231.937C371.576 234.698 370.963 236.539 369.429 237.766L240.268 309.863C240.575 308.943 240.575 308.023 240.575 306.795C240.575 299.739 236.28 291.762 230.451 287.16L351.021 219.665L361.759 214.143Z" fill="#16110D"/>
<path d="M197.01 169.964L112.641 218.438C110.493 219.665 106.812 219.665 104.358 218.131C101.903 216.597 101.597 214.45 103.744 213.223L188.113 164.749C190.26 163.522 193.942 163.522 196.396 165.056C198.851 166.59 199.157 168.737 197.01 169.964Z" fill="#36A9E1"/>
<path d="M108.959 220.893C110.493 220.893 112.027 220.586 113.254 219.972L197.623 171.498C199.157 170.578 199.771 169.351 199.771 168.124C199.771 166.59 198.85 165.056 197.009 164.136C193.941 162.295 189.646 162.295 187.192 163.828L102.823 212.302C101.289 213.223 100.676 214.45 100.676 215.677C100.676 217.211 101.596 218.745 103.437 219.665C105.277 220.586 107.118 220.893 108.959 220.893ZM196.089 168.43L111.72 216.904C110.186 217.825 106.811 217.825 104.971 216.598C104.05 215.984 103.744 215.37 103.744 215.37C103.744 215.063 104.05 214.757 104.357 214.757L188.726 166.283C190.26 165.363 193.635 165.363 195.475 166.59C196.396 167.203 196.703 167.817 196.703 167.817C197.009 168.124 196.703 168.43 196.089 168.43Z" fill="#16110D"/>
<path d="M216.951 181.623L132.583 230.096C130.435 231.324 126.754 231.323 124.299 229.789C121.845 228.255 121.538 226.108 123.686 224.881L208.055 176.407C210.202 175.18 213.884 175.18 216.338 176.714C218.792 178.248 219.099 180.395 216.951 181.623Z" fill="#36A9E1"/>
<path d="M128.901 232.857C130.435 232.857 131.969 232.551 133.196 231.937L217.872 183.156C219.406 182.236 220.019 181.009 220.019 179.782C220.019 178.248 219.099 176.714 217.258 175.793C214.19 173.953 209.895 173.953 207.441 175.487L123.072 223.96C121.538 224.881 120.924 226.108 120.924 227.335C120.924 228.869 121.845 230.403 123.686 231.323C125.22 232.244 127.06 232.857 128.901 232.857ZM216.031 180.395L131.662 228.869C130.128 229.789 126.753 229.79 124.912 228.562C123.992 227.949 123.686 227.335 123.686 227.335C123.686 227.028 123.992 226.721 124.299 226.721L208.668 178.248C210.202 177.327 213.576 177.327 215.417 178.555C216.337 179.168 216.644 179.782 216.644 179.782C216.644 179.782 216.645 180.088 216.031 180.395Z" fill="#16110D"/>
<path d="M236.587 193.588L152.218 242.061C150.07 243.289 146.389 243.289 143.935 241.755C141.48 240.221 141.173 238.073 143.321 236.846L227.69 188.372C229.837 187.145 233.519 187.145 235.973 188.679C238.428 190.213 238.734 192.361 236.587 193.588Z" fill="#36A9E1"/>
<path d="M148.536 244.516C150.07 244.516 151.604 244.209 152.832 243.595L237.2 195.122C238.734 194.201 239.348 192.974 239.348 191.747C239.348 190.213 238.427 188.679 236.586 187.758C233.518 185.918 229.223 185.918 226.769 187.452L142.4 235.925C140.866 236.846 140.253 238.073 140.253 239.3C140.253 240.834 141.173 242.368 143.014 243.288C144.548 243.902 146.696 244.516 148.536 244.516ZM235.666 192.054L151.298 240.527C149.764 241.447 146.389 241.448 144.548 240.22C143.627 239.607 143.321 238.993 143.321 238.993C143.321 238.686 143.628 238.38 143.934 238.38L228.303 189.906C229.837 188.985 233.212 188.986 235.052 190.213C235.973 190.827 236.28 191.44 236.28 191.44C236.28 191.747 235.973 192.054 235.666 192.054Z" fill="#16110D"/>
<path d="M157.434 146.341L73.0648 194.815C70.9172 196.042 67.2355 196.042 64.7811 194.508C62.3267 192.974 62.0201 190.826 64.1676 189.599L148.536 141.126C150.684 139.899 154.365 139.899 156.82 141.433C159.581 142.967 159.581 145.114 157.434 146.341Z" fill="#36A9E1"/>
<path d="M69.6892 197.269C71.2232 197.269 72.7573 196.963 73.9844 196.349L158.353 147.875C159.887 146.955 160.501 145.728 160.501 144.5C160.501 142.966 159.581 141.432 157.74 140.512C154.672 138.671 150.376 138.671 147.922 140.205L63.5533 188.679C62.0193 189.599 61.4059 190.827 61.4059 192.054C61.4059 193.588 62.3264 195.121 64.1671 196.042C65.7011 196.962 67.8485 197.269 69.6892 197.269ZM156.819 144.807L72.4505 193.281C70.9165 194.201 67.5419 194.201 65.7011 192.974C64.7807 192.36 64.4739 191.747 64.4739 191.747C64.4739 191.44 64.7805 191.133 65.0873 191.133L149.456 142.66C150.99 141.739 154.365 141.739 156.206 142.966C157.126 143.58 157.433 144.194 157.433 144.194C157.433 144.501 157.126 144.807 156.819 144.807Z" fill="#16110D"/>
<path d="M177.376 158L93.0072 206.473C90.8597 207.7 87.1779 207.7 84.7235 206.166C82.2692 204.632 81.9625 202.485 84.1101 201.258L168.479 152.784C170.626 151.557 174.308 151.557 176.762 153.091C179.217 154.625 179.524 156.772 177.376 158Z" fill="#36A9E1"/>
<path d="M89.6316 209.234C91.1656 209.234 92.6996 208.927 93.9268 208.314L178.296 159.84C179.83 158.92 180.443 157.693 180.443 156.466C180.443 154.932 179.523 153.397 177.682 152.477C174.614 150.636 170.319 150.636 167.864 152.17L83.4957 200.644C81.9617 201.564 81.3483 202.792 81.3483 204.019C81.3483 205.553 82.2688 207.087 84.1095 208.007C85.6435 208.621 87.7908 209.234 89.6316 209.234ZM176.762 156.772L92.3929 205.246C90.8589 206.166 87.4843 206.166 85.6435 204.939C84.7231 204.325 84.4162 203.712 84.4162 203.712C84.4162 203.405 84.7229 203.098 85.0297 203.098L169.398 154.624C170.932 153.704 174.307 153.704 176.148 154.932C177.069 155.545 177.375 156.158 177.375 156.158C177.375 156.158 177.068 156.465 176.762 156.772Z" fill="#16110D"/>
<path d="M216.032 228.563L172.16 253.72C170.012 254.947 166.331 254.947 163.877 253.413C161.422 251.879 161.115 249.731 163.263 248.504L207.135 223.347C209.282 222.12 212.964 222.12 215.418 223.654C217.872 225.188 218.179 227.335 216.032 228.563Z" fill="#36A9E1"/>
<path d="M168.478 256.174C170.012 256.174 171.546 255.867 172.773 255.254L216.645 230.096C218.179 229.176 218.792 227.949 218.792 226.721C218.792 225.187 217.872 223.654 216.031 222.733C212.963 220.893 208.668 220.893 206.214 222.427L162.342 247.584C160.808 248.504 160.194 249.731 160.194 250.958C160.194 252.492 161.115 254.026 162.955 254.947C164.489 255.867 166.637 256.174 168.478 256.174ZM215.111 227.335L171.239 252.492C169.705 253.413 166.33 253.413 164.489 252.186C163.569 251.572 163.262 250.958 163.262 250.958C163.262 250.652 163.569 250.345 163.876 250.345L207.748 225.187C209.282 224.267 212.656 224.267 214.497 225.495C215.418 226.108 215.725 226.721 215.725 226.721C215.725 226.721 215.724 227.028 215.111 227.335Z" fill="#16110D"/>
<path d="M236.587 239.607L192.715 264.764C190.568 265.991 186.886 265.992 184.432 264.458C181.977 262.924 181.671 260.776 183.818 259.549L227.69 234.391C229.837 233.164 233.519 233.165 235.973 234.699C238.428 236.233 238.734 238.38 236.587 239.607Z" fill="#36A9E1"/>
<path d="M189.033 267.219C190.567 267.219 192.101 266.912 193.328 266.298L237.2 241.141C238.734 240.221 239.348 238.994 239.348 237.766C239.348 236.232 238.427 234.698 236.586 233.778C233.518 231.937 229.223 231.937 226.769 233.471L182.897 258.628C181.363 259.549 180.75 260.776 180.75 262.003C180.75 263.537 181.67 265.071 183.511 265.991C185.045 266.912 186.886 267.219 189.033 267.219ZM235.666 238.073L191.794 263.23C190.26 264.151 186.886 264.151 185.045 262.923C184.125 262.31 183.818 261.696 183.818 261.696C183.818 261.389 184.124 261.083 184.431 261.083L228.303 235.925C229.837 235.005 233.212 235.005 235.052 236.232C235.973 236.846 236.28 237.459 236.28 237.459C236.28 237.766 235.973 238.073 235.666 238.073Z" fill="#16110D"/>
<path d="M266.346 207.393C274.016 211.689 274.016 218.745 266.346 223.04C258.676 227.335 246.711 227.335 239.041 223.04C231.371 218.745 231.371 211.689 239.041 207.393C246.711 203.098 258.983 203.098 266.346 207.393Z" fill="#36A9E1"/>
<path d="M252.847 227.949C258.062 227.949 263.278 226.722 267.266 224.574C271.561 222.12 273.708 218.745 273.708 215.37C273.708 211.689 271.561 208.621 267.266 206.166C259.289 201.564 246.404 201.564 238.427 206.166C234.132 208.621 231.984 211.995 231.984 215.37C231.984 219.052 234.132 222.12 238.427 224.574C242.415 226.722 247.631 227.949 252.847 227.949ZM252.847 205.553C257.449 205.553 262.05 206.473 265.732 208.621C268.8 210.462 270.641 212.609 270.641 215.063C270.641 217.518 268.8 219.665 265.732 221.506C258.676 225.494 247.017 225.494 239.961 221.506C236.893 219.665 235.052 217.518 235.052 215.063C235.052 212.609 236.893 210.462 239.961 208.621C243.336 206.78 248.245 205.553 252.847 205.553Z" fill="#16110D"/>
<path d="M262.05 211.075C256.834 208.621 248.858 208.621 243.642 211.075C238.427 213.529 238.427 217.211 243.642 219.359C248.858 221.813 256.834 221.813 262.05 219.359C266.959 217.211 266.959 213.223 262.05 211.075Z" fill="white"/>
<path d="M252.846 222.733C256.528 222.733 259.903 222.12 262.664 220.893C266.652 219.052 267.266 216.597 267.266 215.37C267.266 214.143 266.652 211.689 262.664 209.848C257.141 207.393 248.551 207.393 243.029 209.848C239.04 211.689 238.427 214.143 238.427 215.37C238.427 216.597 239.04 219.052 243.029 220.893C245.79 222.12 249.165 222.733 252.846 222.733ZM252.846 210.768C255.914 210.768 258.982 211.382 261.436 212.302C263.277 213.223 264.198 214.143 264.198 215.064C264.198 215.984 262.97 216.904 261.436 217.825C256.835 219.972 249.165 219.972 244.256 217.825C242.415 216.904 241.495 215.984 241.495 215.064C241.495 214.143 242.722 213.223 244.256 212.302C246.404 211.382 249.778 210.768 252.846 210.768Z" fill="#16110D"/>
<path d="M296.719 194.508L281.379 184.384C280.765 184.077 280.766 183.157 281.072 182.543L371.577 13.4984C372.804 11.9644 375.259 11.044 379.247 11.9644C382.315 12.578 385.076 14.112 387.223 16.2596C389.985 19.0208 390.905 21.4752 390.291 23.6228L298.867 194.201C298.253 194.814 297.332 195.121 296.719 194.508Z" fill="#16110D"/>
<path d="M297.333 196.349C297.64 196.349 297.946 196.349 297.946 196.349C298.867 196.042 299.48 195.735 299.787 194.815L391.519 23.9297C392.439 21.1686 391.212 18.1006 388.144 15.0326C385.69 12.5782 382.622 11.0443 379.554 10.4307C375.259 9.51028 371.884 10.4309 370.35 12.5785L279.539 181.929C278.925 183.157 279.232 184.998 280.459 185.611L295.799 195.735C296.413 196.349 296.719 196.349 297.333 196.349ZM388.758 22.7025L297.333 192.974L282.607 183.157L373.111 14.1124C374.032 13.192 376.179 12.5783 378.94 13.1919C381.702 13.8055 384.156 15.0329 385.997 16.8737C388.144 19.328 389.064 21.1685 388.758 22.7025Z" fill="#16110D"/>
<path d="M293.959 200.03L278.619 189.906C278.005 189.599 278.005 188.679 278.312 188.065L368.816 19.0208C370.044 17.4868 372.498 16.5665 376.486 17.4868C379.554 18.1004 382.316 19.6345 384.463 21.7821C387.224 24.5432 388.145 26.9977 387.531 29.1452L296.106 199.723C295.492 200.337 294.572 200.337 293.959 200.03Z" fill="#36A9E1"/>
<path d="M294.572 201.871C294.878 201.871 295.185 201.871 295.185 201.871C296.105 201.564 296.719 201.257 297.026 200.337L388.758 29.4521C389.678 26.691 388.451 23.623 385.383 20.555C382.929 18.1006 379.861 16.5667 376.793 15.9531C372.498 15.0327 369.123 15.9529 367.589 18.1005L276.777 187.452C276.164 188.679 276.471 190.52 277.698 191.133L293.038 201.258C293.344 201.564 293.958 201.871 294.572 201.871ZM385.69 28.2249L294.265 198.496L279.539 188.679L370.043 19.6345C370.964 18.7141 373.111 18.1007 375.872 18.7143C378.634 19.3279 381.088 20.5549 382.929 22.3957C385.383 24.5433 386.303 26.6909 385.69 28.2249Z" fill="#16110D"/>
<path d="M284.755 217.211L269.416 207.087C268.802 206.78 268.802 205.859 269.109 205.246L359.613 36.2015C360.84 34.6675 363.295 33.7471 367.283 34.6675C370.351 35.2811 373.113 36.8152 375.26 38.9627C378.021 41.7239 378.942 44.1783 378.328 46.3259L286.903 216.904C286.289 217.518 285.369 217.824 284.755 217.211Z" fill="#16110D"/>
<path d="M285.368 219.051C285.675 219.051 285.981 219.051 285.981 219.051C286.902 218.745 287.516 218.438 287.823 217.518L379.554 46.6326C380.474 43.8715 379.247 40.8034 376.179 37.7355C373.725 35.2811 370.657 33.7471 367.589 33.1335C363.294 32.2132 359.919 33.1338 358.386 35.2813L267.574 204.632C266.96 205.859 267.267 207.7 268.494 208.314L283.834 218.438C284.141 218.745 284.754 219.051 285.368 219.051ZM376.486 45.4054L285.061 215.677L270.335 205.859L360.84 36.8153C361.76 35.8949 363.908 35.2812 366.669 35.8948C369.43 36.5084 371.885 37.7354 373.725 39.5762C376.18 42.0305 377.1 43.8714 376.486 45.4054Z" fill="#16110D"/>
<path d="M266.96 208.314L267.267 207.7C268.187 205.553 270.948 204.325 275.55 205.246C278.311 205.859 281.073 207.393 283.22 209.234C286.288 211.995 286.902 214.756 286.288 216.597C286.288 216.904 285.981 217.518 285.674 217.824C284.447 219.972 280.766 225.187 274.016 226.415L267.267 223.347C267.573 223.653 263.892 213.836 266.96 208.314Z" fill="#36A9E1"/>
<path d="M274.017 228.256H274.63C281.994 227.028 285.982 221.199 287.209 218.745C287.516 218.438 287.823 217.825 287.823 217.211C288.743 214.45 287.516 211.075 284.141 208.314C281.687 206.166 278.926 204.633 275.858 204.019C270.029 202.792 266.654 204.939 265.733 207.394L265.427 208.007C262.052 214.143 265.427 223.961 265.733 224.574L266.04 225.188L274.017 228.256ZM272.79 206.473C273.71 206.473 274.631 206.473 275.551 206.78C278.005 207.393 280.46 208.621 282.3 210.462C284.448 212.609 285.675 214.757 285.062 216.291C285.062 216.598 284.755 216.597 284.755 216.904C283.528 219.052 280.153 223.654 274.63 224.881L268.801 222.427C268.188 220.279 266.04 213.223 268.495 209.234L268.801 208.621C269.415 207.087 270.949 206.473 272.79 206.473Z" fill="#16110D"/>
<path d="M280.153 215.37C278.005 213.529 275.551 211.995 272.483 211.381C270.028 210.768 267.881 211.075 266.347 211.689C266.654 210.461 266.96 209.234 267.574 208.314L267.881 207.7C268.801 205.553 271.562 204.325 276.164 205.246C278.925 205.859 281.686 207.393 283.834 209.234C286.902 211.995 287.515 214.756 286.902 216.597C286.902 216.904 286.595 217.518 286.288 217.824C285.675 218.745 284.754 220.279 283.221 221.813C283.527 219.665 282.607 217.518 280.153 215.37Z" fill="#16110D"/>
<path d="M265.426 235.005L267.267 227.642C267.573 226.108 267.88 224.574 267.573 223.347C267.573 222.426 268.187 221.506 269.414 221.506C271.255 221.506 273.403 222.733 274.323 224.267C274.937 225.495 274.936 226.415 273.709 227.029C272.789 227.335 271.869 228.256 271.255 229.176L266.653 235.619C266.346 236.539 265.119 235.926 265.426 235.005Z" fill="white"/>
<path d="M266.039 237.459C266.96 237.459 267.574 237.153 267.88 236.539L272.482 230.097C273.096 229.176 273.71 228.562 274.323 228.255C275.243 227.949 275.857 227.335 276.164 226.415C276.471 225.494 276.164 224.267 275.55 223.347C274.323 221.199 271.562 219.972 269.107 219.972C267.573 219.972 266.653 220.586 266.346 221.199C265.733 221.813 265.426 222.733 265.733 223.654C265.733 224.881 265.733 226.108 265.426 227.642L263.585 235.005C263.278 236.232 263.892 237.153 264.813 237.766C265.426 237.46 265.733 237.459 266.039 237.459ZM269.414 223.04C270.642 223.04 272.176 223.96 272.789 224.881C273.096 225.188 273.096 225.495 273.096 225.495C271.562 226.108 270.641 227.335 270.028 228.255L267.88 231.631L268.801 228.255C269.107 226.415 269.414 224.881 269.107 223.347C269.107 223.347 269.108 223.04 269.414 223.04Z" fill="#16110D"/>
<path d="M275.857 221.506C279.232 218.438 282.3 213.836 282.3 213.529L388.145 16.5666L385.997 15.3397L280.153 212.302C279.232 213.836 276.778 217.211 274.324 219.359C273.403 220.279 274.937 222.426 275.857 221.506Z" fill="#36A9E1"/>
<path d="M377.406 36.8154L383.849 24.8503L381.702 23.623L375.259 35.8949L377.406 36.8154Z" fill="white"/>
<path d="M275.55 221.199L280.152 216.904L278.311 215.37L273.709 219.665L275.55 221.199Z" fill="white"/>
<path d="M282.238 209.027L284.366 210.25L281.615 215.038L279.487 213.815L282.238 209.027Z" fill="#36A9E1"/>
<path d="M347.033 128.547L399.495 30.3724C402.87 23.9297 402.87 16.5669 399.189 10.7378C396.427 6.4427 392.132 2.76116 386.303 0L385.076 2.14742C390.292 4.90858 394.28 8.28318 396.734 11.9647C399.802 16.8734 400.109 23.6232 397.041 29.1456L344.579 127.32L347.033 128.547Z" fill="#16110D"/>
<path d="M320.955 177.634L342.738 136.831L340.59 135.91L318.808 176.407L320.955 177.634Z" fill="#16110D"/>
</svg>
