<svg width="60" height="35" viewBox="0 0 60 35" fill="none" xmlns="http://www.w3.org/2000/svg">
<path d="M2.57402 34.0568H0V25.3423H2.57402V34.0568ZM14.4347 34.0568H11.8354L7.09117 28.7264V34.0568H4.51715V25.3423H7.09117L11.8354 30.6727V25.3423H14.4347V34.0568ZM22.0558 27.2223H18.9266V28.7264H21.753V30.6064H18.9266V34.0568H16.3526V25.3423H22.0558V27.2223ZM25.9925 34.0568H23.4185V25.3423H25.9925V34.0568ZM37.8532 34.0568H35.254L30.5097 28.7264V34.0568H27.9104V25.3423H30.5097L35.254 30.6727V25.3423H37.8532V34.0568H37.8532ZM42.3451 34.0568H39.7711V25.3423H42.3451V34.0568ZM50.1681 27.2223H48.0231V34.0568H45.4239V27.2223H43.3293V25.3423H50.1681V27.2223ZM59.8081 25.3423L56.0732 29.8765V34.0568H53.4992V29.8765L49.8905 25.3423H52.9945L54.8619 27.731L56.6789 25.3423H59.8081V25.3423Z" fill="#353535"/>
<path fill-rule="evenodd" clip-rule="evenodd" d="M45.8965 15.6807C46.2148 15.4978 46.5786 15.2921 46.8059 15.1093C46.1693 15.4064 45.6919 15.3835 45.2372 15.1321L19.0913 0.458489C18.0454 -0.0672021 17.1587 -0.250051 15.8628 0.504201L12.6116 2.5384C12.2706 2.7441 11.8841 2.94981 11.6567 3.1098C12.2933 2.81267 12.6571 2.78981 13.1346 3.04123L39.3259 17.7377C40.3263 18.3548 41.3267 18.3091 42.3498 17.8063L45.8965 15.6807Z" fill="url(#paint0_linear_327_144)"/>
<path fill-rule="evenodd" clip-rule="evenodd" d="M42.4647 0.664062V16.5948C42.4647 17.1662 42.101 18.0119 41.2825 18.1719C41.6462 18.1033 42.0327 17.9661 42.4647 17.7147C44.1017 16.7776 45.0111 16.2519 46.6481 15.292C47.2392 14.972 47.512 14.4234 47.512 13.852V4.66388C47.512 3.52108 47.0118 3.26966 45.8296 2.60683L42.4647 0.664062Z" fill="url(#paint1_linear_327_144)"/>
<path fill-rule="evenodd" clip-rule="evenodd" d="M15.9103 17.7834V1.53267C15.9103 0.961271 16.2514 0.184163 17.0926 0.0241699C16.7288 0.0927383 16.3196 0.229875 15.9103 0.481293C14.2506 1.41839 13.5458 1.92123 11.9089 2.88119C11.3405 3.20117 10.863 3.864 10.863 4.4354V13.7836C10.863 14.9264 11.3632 15.1778 12.5455 15.8406L15.9103 17.7834Z" fill="url(#paint2_linear_327_144)"/>
<path fill-rule="evenodd" clip-rule="evenodd" d="M12.4307 15.7949C12.1351 15.6121 11.7713 15.4064 11.5212 15.2235C12.1806 15.5207 12.7717 15.4293 13.2491 15.1778L39.2586 0.572768C40.3045 0.0470775 41.3276 -0.112915 42.6235 0.641337L45.8747 2.60696C46.2157 2.81267 46.5795 3.01837 46.8069 3.17837C46.1475 2.85838 45.5564 2.97266 45.0789 3.20122L19.0012 17.8749C18.0009 18.4691 17.0005 18.4463 16.0001 17.9206L12.4307 15.7949Z" fill="url(#paint3_linear_327_144)"/>
<defs>
<linearGradient id="paint0_linear_327_144" x1="15.668" y1="2.11144" x2="43.0759" y2="2.11144" gradientUnits="userSpaceOnUse">
<stop stop-color="#00589C"/>
<stop offset="0.129" stop-color="#007EC9"/>
<stop offset="0.851" stop-color="#007EC9"/>
<stop offset="1" stop-color="#00589C"/>
</linearGradient>
<linearGradient id="paint1_linear_327_144" x1="45.1014" y1="3.99557" x2="39.8647" y2="14.829" gradientUnits="userSpaceOnUse">
<stop stop-color="#0062A9"/>
<stop offset="0.22" stop-color="#2082C3"/>
<stop offset="1" stop-color="#40A2DE"/>
</linearGradient>
<linearGradient id="paint2_linear_327_144" x1="13.8398" y1="20.1536" x2="3.47804" y2="3.01805" gradientUnits="userSpaceOnUse">
<stop stop-color="#1E8CD6"/>
<stop offset="0.788" stop-color="#8EC5EA"/>
<stop offset="1" stop-color="white"/>
</linearGradient>
<linearGradient id="paint3_linear_327_144" x1="29.1343" y1="23.3423" x2="42.0112" y2="-1.50286" gradientUnits="userSpaceOnUse">
<stop stop-color="#00589C"/>
<stop offset="0.141" stop-color="#138CD6"/>
<stop offset="0.82" stop-color="#40A2DE"/>
<stop offset="1" stop-color="white"/>
</linearGradient>
</defs>
</svg>
