<svg width="165" height="140" viewBox="0 0 165 140" fill="none" xmlns="http://www.w3.org/2000/svg">
<path d="M149.318 102.018L151.323 103.146C151.573 103.271 151.949 103.271 152.2 103.146L154.08 102.018C154.331 101.892 154.331 101.642 154.08 101.517L152.075 100.389C151.824 100.263 151.448 100.263 151.197 100.389L149.318 101.517C149.067 101.642 149.067 101.892 149.318 102.018Z" fill="#16110D"/>
<path d="M149.568 107.658L151.574 108.786C151.824 108.911 152.2 108.911 152.451 108.786L154.331 107.658C154.581 107.532 154.581 107.282 154.331 107.156L152.326 106.028C152.075 105.903 151.699 105.903 151.448 106.028L149.568 107.156C149.318 107.282 149.318 107.532 149.568 107.658Z" fill="#16110D"/>
<path d="M144.555 104.775L146.56 105.903C146.811 106.028 147.187 106.028 147.438 105.903L149.318 104.775C149.568 104.65 149.568 104.399 149.318 104.274L147.312 103.146C147.062 103.02 146.686 103.02 146.435 103.146L144.555 104.274C144.304 104.399 144.304 104.65 144.555 104.775Z" fill="#16110D"/>
<path d="M144.43 110.54L146.435 111.668C146.685 111.794 147.062 111.794 147.312 111.668L149.192 110.54C149.443 110.415 149.443 110.164 149.192 110.039L147.187 108.911C146.936 108.786 146.56 108.786 146.31 108.911L144.43 110.039C144.304 110.164 144.304 110.415 144.43 110.54Z" fill="#16110D"/>
<path d="M139.542 107.658L141.547 108.786C141.798 108.911 142.174 108.911 142.425 108.786L144.304 107.658C144.555 107.532 144.555 107.282 144.304 107.156L142.299 106.028C142.049 105.903 141.672 105.903 141.422 106.028L139.542 107.156C139.291 107.282 139.291 107.532 139.542 107.658Z" fill="#16110D"/>
<path d="M139.793 113.297L141.798 114.425C142.049 114.551 142.425 114.551 142.675 114.425L144.555 113.297C144.806 113.172 144.806 112.922 144.555 112.796L142.55 111.668C142.299 111.543 141.923 111.543 141.673 111.668L139.793 112.796C139.542 112.922 139.542 113.172 139.793 113.297Z" fill="#16110D"/>
<path d="M134.78 110.415L136.785 111.543C137.035 111.668 137.411 111.668 137.662 111.543L139.542 110.415C139.793 110.29 139.793 110.039 139.542 109.914L137.537 108.786C137.286 108.66 136.91 108.66 136.66 108.786L134.78 109.914C134.529 110.039 134.529 110.29 134.78 110.415Z" fill="#16110D"/>
<path d="M135.03 116.055L137.035 117.183C137.286 117.308 137.662 117.308 137.913 117.183L139.792 116.055C140.043 115.929 140.043 115.679 139.792 115.553L137.787 114.425C137.537 114.3 137.161 114.3 136.91 114.425L135.03 115.553C134.779 115.679 134.779 115.929 135.03 116.055Z" fill="#16110D"/>
<path d="M130.017 113.172L132.022 114.3C132.273 114.425 132.649 114.425 132.899 114.3L134.779 113.172C135.03 113.047 135.03 112.796 134.779 112.671L132.774 111.543C132.523 111.418 132.147 111.418 131.897 111.543L130.017 112.671C129.766 112.796 129.766 113.047 130.017 113.172Z" fill="#16110D"/>
<path d="M129.891 118.937L131.897 120.065C132.147 120.19 132.523 120.19 132.774 120.065L134.654 118.937C134.905 118.812 134.905 118.561 134.654 118.436L132.649 117.308C132.398 117.183 132.022 117.183 131.771 117.308L129.891 118.436C129.766 118.561 129.766 118.812 129.891 118.937Z" fill="#16110D"/>
<path d="M124.879 116.055L126.884 117.183C127.134 117.308 127.511 117.308 127.761 117.183L129.641 116.055C129.892 115.929 129.892 115.679 129.641 115.553L127.636 114.425C127.385 114.3 127.009 114.3 126.758 114.425L124.879 115.553C124.753 115.679 124.753 115.929 124.879 116.055Z" fill="#16110D"/>
<path d="M125.255 121.695L127.26 122.823C127.511 122.948 127.886 122.948 128.137 122.823L130.017 121.695C130.268 121.569 130.268 121.319 130.017 121.193L128.012 120.065C127.761 119.94 127.385 119.94 127.135 120.065L125.255 121.193C125.004 121.319 125.004 121.569 125.255 121.695Z" fill="#16110D"/>
<path d="M120.241 118.812L122.247 119.94C122.497 120.065 122.873 120.065 123.124 119.94L125.004 118.812C125.255 118.687 125.255 118.436 125.004 118.311L122.999 117.183C122.748 117.057 122.372 117.057 122.121 117.183L120.241 118.311C119.991 118.436 119.991 118.687 120.241 118.812Z" fill="#16110D"/>
<path d="M120.492 124.452L122.497 125.58C122.748 125.705 123.124 125.705 123.374 125.58L125.254 124.452C125.505 124.326 125.505 124.076 125.254 123.95L123.249 122.823C122.998 122.697 122.622 122.697 122.372 122.823L120.492 123.95C120.241 124.076 120.241 124.326 120.492 124.452Z" fill="#16110D"/>
<path d="M115.479 121.569L117.484 122.697C117.735 122.822 118.111 122.822 118.361 122.697L120.241 121.569C120.492 121.444 120.492 121.193 120.241 121.068L118.236 119.94C117.985 119.815 117.609 119.815 117.359 119.94L115.479 121.068C115.228 121.193 115.228 121.444 115.479 121.569Z" fill="#16110D"/>
<path d="M115.354 127.334L117.359 128.462C117.609 128.588 117.985 128.588 118.236 128.462L120.116 127.334C120.367 127.209 120.367 126.958 120.116 126.833L118.111 125.705C117.86 125.58 117.484 125.58 117.233 125.705L115.354 126.833C115.228 126.958 115.228 127.209 115.354 127.334Z" fill="#16110D"/>
<path d="M110.34 124.452L112.345 125.58C112.596 125.705 112.972 125.705 113.223 125.58L115.103 124.452C115.353 124.326 115.353 124.076 115.103 123.95L113.097 122.823C112.847 122.697 112.471 122.697 112.22 122.823L110.34 123.95C110.215 124.076 110.215 124.326 110.34 124.452Z" fill="#16110D"/>
<path d="M110.591 130.091L112.596 131.219C112.847 131.345 113.223 131.345 113.473 131.219L115.353 130.091C115.604 129.966 115.604 129.715 115.353 129.59L113.348 128.462C113.097 128.337 112.721 128.337 112.471 128.462L110.591 129.59C110.465 129.715 110.465 129.966 110.591 130.091Z" fill="#16110D"/>
<path d="M105.703 127.209L107.708 128.337C107.959 128.462 108.335 128.462 108.586 128.337L110.466 127.209C110.716 127.084 110.716 126.833 110.466 126.708L108.46 125.58C108.21 125.454 107.834 125.454 107.583 125.58L105.703 126.708C105.452 126.833 105.452 127.084 105.703 127.209Z" fill="#16110D"/>
<path d="M105.954 132.849L107.959 133.977C108.21 134.102 108.586 134.102 108.837 133.977L110.717 132.849C110.967 132.723 110.967 132.473 110.717 132.347L108.711 131.219C108.461 131.094 108.085 131.094 107.834 131.219L105.954 132.347C105.703 132.473 105.703 132.723 105.954 132.849Z" fill="#16110D"/>
<path d="M100.941 129.966L102.946 131.094C103.197 131.22 103.573 131.22 103.823 131.094L105.703 129.966C105.954 129.841 105.954 129.59 105.703 129.465L103.698 128.337C103.447 128.212 103.071 128.212 102.821 128.337L100.941 129.465C100.69 129.59 100.69 129.841 100.941 129.966Z" fill="#16110D"/>
<path d="M100.815 135.731L102.821 136.859C103.071 136.985 103.447 136.985 103.698 136.859L105.578 135.731C105.829 135.606 105.829 135.355 105.578 135.23L103.573 134.102C103.322 133.977 102.946 133.977 102.695 134.102L100.815 135.23C100.69 135.355 100.69 135.606 100.815 135.731Z" fill="#16110D"/>
<path d="M95.8023 132.849L97.8075 133.977C98.0582 134.102 98.4341 134.102 98.6848 133.977L100.565 132.849C100.815 132.723 100.815 132.473 100.565 132.347L98.5595 131.219C98.3088 131.094 97.9329 131.094 97.6822 131.219L95.8023 132.347C95.677 132.473 95.677 132.723 95.8023 132.849Z" fill="#16110D"/>
<path d="M96.0529 138.489L98.0581 139.616C98.3088 139.742 98.6848 139.742 98.9355 139.616L100.815 138.489C101.066 138.363 101.066 138.113 100.815 137.987L98.81 136.859C98.5594 136.734 98.1835 136.734 97.9328 136.859L96.0529 137.987C95.9275 138.113 95.9275 138.363 96.0529 138.489Z" fill="#16110D"/>
<path d="M91.0394 135.606L93.0447 136.734C93.2953 136.859 93.6714 136.859 93.9221 136.734L95.802 135.606C96.0527 135.481 96.0527 135.23 95.802 135.105L93.7966 133.977C93.546 133.851 93.17 133.851 92.9194 133.977L91.0394 135.105C90.9141 135.23 90.9141 135.481 91.0394 135.606Z" fill="#16110D"/>
<path d="M86.1517 132.723L88.157 133.851C88.4076 133.977 88.7837 133.977 89.0344 133.851L90.9143 132.723C91.165 132.598 91.165 132.348 90.9143 132.222L88.9091 131.094C88.6584 130.969 88.2823 130.969 88.0317 131.094L86.1517 132.222C85.9011 132.348 85.9011 132.598 86.1517 132.723Z" fill="#16110D"/>
<path d="M81.1383 129.841L83.1435 130.969C83.3942 131.094 83.7703 131.094 84.0209 130.969L85.9009 129.841C86.1515 129.716 86.1515 129.465 85.9009 129.34L83.8956 128.212C83.645 128.086 83.2689 128.086 83.0182 128.212L81.1383 129.34C80.8877 129.465 80.8877 129.716 81.1383 129.841Z" fill="#16110D"/>
<path d="M76.1254 126.958L78.1306 128.086C78.3813 128.212 78.7573 128.212 79.008 128.086L80.8879 126.958C81.1386 126.833 81.1386 126.582 80.8879 126.457L78.8827 125.329C78.632 125.204 78.256 125.204 78.0053 125.329L76.1254 126.457C75.8747 126.582 75.8747 126.833 76.1254 126.958Z" fill="#16110D"/>
<path d="M71.1119 123.95L73.1172 125.078C73.3678 125.204 73.7439 125.204 73.9946 125.078L75.8745 123.95C76.1252 123.825 76.1252 123.574 75.8745 123.449L73.8693 122.321C73.6186 122.196 73.2425 122.196 72.9919 122.321L71.1119 123.449C70.8613 123.7 70.8613 123.95 71.1119 123.95Z" fill="#16110D"/>
<path d="M66.099 121.068L68.1042 122.196C68.3549 122.321 68.731 122.321 68.9816 122.196L70.8616 121.068C71.1122 120.943 71.1122 120.692 70.8616 120.567L68.8563 119.439C68.6057 119.313 68.2296 119.313 67.9789 119.439L66.099 120.567C65.8483 120.817 65.8483 120.943 66.099 121.068Z" fill="#16110D"/>
<path d="M61.0858 118.185L63.0911 119.313C63.3417 119.439 63.7178 119.439 63.9684 119.313L65.8484 118.185C66.099 118.06 66.099 117.809 65.8484 117.684L63.8432 116.556C63.5925 116.431 63.2164 116.431 62.9658 116.556L61.0858 117.684C60.8352 117.935 60.8352 118.06 61.0858 118.185Z" fill="#16110D"/>
<path d="M56.0726 115.303L58.0779 116.431C58.3285 116.556 58.7046 116.556 58.9553 116.431L60.8352 115.303C61.0859 115.177 61.0859 114.927 60.8352 114.801L58.83 113.673C58.5793 113.548 58.2032 113.548 57.9526 113.673L56.0726 114.801C55.822 115.052 55.822 115.177 56.0726 115.303Z" fill="#16110D"/>
<path d="M51.0597 112.42L53.0649 113.548C53.3156 113.673 53.6917 113.673 53.9423 113.548L55.8223 112.42C56.0729 112.295 56.0729 112.044 55.8223 111.919L53.817 110.791C53.5664 110.666 53.1903 110.666 52.9396 110.791L51.0597 111.919C50.809 112.169 50.809 112.295 51.0597 112.42Z" fill="#16110D"/>
<path d="M46.0463 109.538L48.0515 110.666C48.3022 110.791 48.6782 110.791 48.9289 110.666L50.8088 109.538C51.0595 109.412 51.0595 109.162 50.8088 109.036L48.8036 107.908C48.5529 107.783 48.1769 107.783 47.9262 107.908L46.0463 109.036C45.7956 109.162 45.7956 109.412 46.0463 109.538Z" fill="#16110D"/>
<path d="M41.0331 106.655L43.0383 107.783C43.289 107.908 43.6651 107.908 43.9157 107.783L45.7956 106.655C46.0463 106.53 46.0463 106.279 45.7956 106.154L43.7904 105.026C43.5398 104.9 43.1637 104.9 42.913 105.026L41.0331 106.154C40.7824 106.279 40.7824 106.53 41.0331 106.655Z" fill="#16110D"/>
<path d="M36.0201 103.772L38.0254 104.9C38.276 105.026 38.6521 105.026 38.9028 104.9L40.7827 103.772C41.0334 103.647 41.0334 103.396 40.7827 103.271L38.7775 102.143C38.5268 102.018 38.1507 102.018 37.9001 102.143L36.0201 103.271C35.7695 103.396 35.7695 103.647 36.0201 103.772Z" fill="#16110D"/>
<path d="M86.4026 138.363L88.4079 139.491C88.6585 139.617 89.0344 139.617 89.2851 139.491L91.165 138.363C91.4157 138.238 91.4157 137.987 91.165 137.862L89.1598 136.734C88.9091 136.609 88.5332 136.609 88.2826 136.734L86.4026 137.862C86.152 137.987 86.152 138.238 86.4026 138.363Z" fill="#16110D"/>
<path d="M81.3894 135.481L83.3947 136.609C83.6453 136.734 84.0213 136.734 84.2719 136.609L86.1519 135.481C86.4025 135.355 86.4025 135.105 86.1519 134.979L84.1466 133.851C83.896 133.726 83.52 133.726 83.2694 133.851L81.3894 134.979C81.1388 135.105 81.1388 135.355 81.3894 135.481Z" fill="#16110D"/>
<path d="M76.3763 132.598L78.3815 133.726C78.6321 133.851 79.0081 133.851 79.2587 133.726L81.1387 132.598C81.3893 132.473 81.3893 132.222 81.1387 132.097L79.1334 130.969C78.8828 130.844 78.5068 130.844 78.2562 130.969L76.3763 132.097C76.1256 132.222 76.1256 132.473 76.3763 132.598Z" fill="#16110D"/>
<path d="M71.3633 129.59L73.3686 130.718C73.6192 130.843 73.9951 130.843 74.2458 130.718L76.1257 129.59C76.3764 129.465 76.3764 129.214 76.1257 129.089L74.1205 127.961C73.8698 127.836 73.4939 127.836 73.2433 127.961L71.3633 129.089C71.1127 129.34 71.1127 129.59 71.3633 129.59Z" fill="#16110D"/>
<path d="M66.3499 126.708L68.3551 127.836C68.6058 127.961 68.9817 127.961 69.2324 127.836L71.1123 126.708C71.363 126.582 71.363 126.332 71.1123 126.206L69.1071 125.078C68.8564 124.953 68.4805 124.953 68.2298 125.078L66.3499 126.206C66.0992 126.457 66.0992 126.582 66.3499 126.708Z" fill="#16110D"/>
<path d="M61.3367 123.825L63.3419 124.953C63.5926 125.078 63.9685 125.078 64.2192 124.953L66.0991 123.825C66.3498 123.7 66.3498 123.449 66.0991 123.324L64.0939 122.196C63.8432 122.071 63.4673 122.071 63.2166 122.196L61.3367 123.324C61.086 123.574 61.086 123.7 61.3367 123.825Z" fill="#16110D"/>
<path d="M56.3238 120.943L58.329 122.07C58.5797 122.196 58.9556 122.196 59.2062 122.07L61.0862 120.943C61.3368 120.817 61.3368 120.567 61.0862 120.441L59.0809 119.313C58.8303 119.188 58.4544 119.188 58.2037 119.313L56.3238 120.441C56.0731 120.692 56.0731 120.817 56.3238 120.943Z" fill="#16110D"/>
<path d="M51.3106 118.06L53.3158 119.188C53.5665 119.313 53.9424 119.313 54.1931 119.188L56.073 118.06C56.3237 117.935 56.3237 117.684 56.073 117.559L54.0678 116.431C53.8171 116.305 53.4412 116.305 53.1905 116.431L51.3106 117.559C51.0599 117.809 51.0599 117.935 51.3106 118.06Z" fill="#16110D"/>
<path d="M46.2974 115.177L48.3026 116.305C48.5533 116.431 48.9292 116.431 49.1799 116.305L51.0598 115.177C51.3105 115.052 51.3105 114.801 51.0598 114.676L49.0546 113.548C48.8039 113.423 48.428 113.423 48.1773 113.548L46.2974 114.676C46.0467 114.801 46.0467 115.052 46.2974 115.177Z" fill="#16110D"/>
<path d="M41.2842 112.295L43.2894 113.423C43.5401 113.548 43.916 113.548 44.1667 113.423L46.0466 112.295C46.2973 112.169 46.2973 111.919 46.0466 111.793L44.0414 110.665C43.7907 110.54 43.4148 110.54 43.1642 110.665L41.2842 111.793C41.0336 111.919 41.0336 112.169 41.2842 112.295Z" fill="#16110D"/>
<path d="M36.271 109.412L38.2763 110.54C38.5269 110.666 38.9028 110.666 39.1535 110.54L41.0334 109.412C41.2841 109.287 41.2841 109.036 41.0334 108.911L39.0282 107.783C38.7776 107.658 38.4016 107.658 38.151 107.783L36.271 108.911C36.0204 109.036 36.0204 109.287 36.271 109.412Z" fill="#16110D"/>
<path d="M31.2578 106.53L33.2631 107.658C33.5137 107.783 33.8897 107.783 34.1403 107.658L36.0203 106.53C36.2709 106.404 36.2709 106.154 36.0203 106.028L34.015 104.9C33.7644 104.775 33.3884 104.775 33.1378 104.9L31.2578 106.028C31.0072 106.154 31.0072 106.404 31.2578 106.53Z" fill="#16110D"/>
<path d="M25.9935 98.0073L27.9988 99.1353C28.2494 99.2606 28.6255 99.2606 28.8762 99.1353L30.7561 98.0073C31.0068 97.8819 31.0068 97.6313 30.7561 97.5059L28.7509 96.3779C28.5002 96.2526 28.1241 96.2526 27.8735 96.3779L25.9935 97.5059C25.8682 97.6313 25.7429 97.8819 25.9935 98.0073Z" fill="#16110D"/>
<path d="M31.0067 100.89L33.012 102.018C33.2626 102.143 33.6387 102.143 33.8893 102.018L35.7693 100.89C36.0199 100.765 36.0199 100.514 35.7693 100.389L33.764 99.2606C33.5134 99.1353 33.1373 99.1353 32.8867 99.2606L31.0067 100.389C30.8814 100.514 30.7561 100.765 31.0067 100.89Z" fill="#16110D"/>
<path d="M20.9806 95.1247L22.9858 96.2527C23.2365 96.378 23.6126 96.378 23.8632 96.2527L25.7432 95.1247C25.9938 94.9993 25.9938 94.7488 25.7432 94.6235L23.7379 93.4955C23.4873 93.3702 23.1112 93.3702 22.8605 93.4955L20.9806 94.6235C20.8553 94.7488 20.7299 94.9993 20.9806 95.1247Z" fill="#16110D"/>
<path d="M15.9674 92.2422L17.9726 93.3702C18.2233 93.4955 18.5994 93.4955 18.85 93.3702L20.73 92.2422C20.9806 92.1169 20.9806 91.8662 20.73 91.7408L18.7247 90.6129C18.4741 90.4875 18.098 90.4875 17.8473 90.6129L15.9674 91.7408C15.8421 91.8662 15.7168 92.1169 15.9674 92.2422Z" fill="#16110D"/>
<path d="M10.9542 89.3596L12.9595 90.4876C13.2101 90.6129 13.5862 90.6129 13.8369 90.4876L15.7168 89.3596C15.9674 89.2343 15.9674 88.9836 15.7168 88.8582L13.7116 87.7304C13.4609 87.6051 13.0848 87.6051 12.8342 87.7304L10.9542 88.8582C10.8289 88.9836 10.7036 89.2343 10.9542 89.3596Z" fill="#16110D"/>
<path d="M5.9408 86.4771L7.94603 87.605C8.19669 87.7303 8.57277 87.7303 8.82343 87.605L10.7034 86.4771C10.954 86.3518 10.954 86.1011 10.7034 85.9758L8.69813 84.8478C8.44747 84.7225 8.07139 84.7225 7.82074 84.8478L5.9408 85.9758C5.81547 86.1011 5.69014 86.3518 5.9408 86.4771Z" fill="#16110D"/>
<path d="M0.928105 83.4692L2.93334 84.5972C3.184 84.7225 3.56008 84.7225 3.81073 84.5972L5.69067 83.4692C5.94133 83.3439 5.94133 83.0932 5.69067 82.9678L3.68544 81.8398C3.43478 81.7145 3.0587 81.7145 2.80804 81.8398L0.928105 82.9678C0.802776 83.2185 0.677447 83.4692 0.928105 83.4692Z" fill="#16110D"/>
<path d="M21.2317 100.764L23.237 101.892C23.4876 102.018 23.8635 102.018 24.1142 101.892L25.9941 100.764C26.2448 100.639 26.2448 100.389 25.9941 100.263L23.9889 99.1353C23.7382 99.0099 23.3623 99.0099 23.1117 99.1353L21.2317 100.263C21.1064 100.389 20.9811 100.639 21.2317 100.764Z" fill="#16110D"/>
<path d="M26.2449 103.647L28.2501 104.775C28.5008 104.9 28.8767 104.9 29.1274 104.775L31.0073 103.647C31.258 103.522 31.258 103.271 31.0073 103.146L29.0021 102.018C28.7514 101.892 28.3755 101.892 28.1248 102.018L26.2449 103.146C26.1196 103.271 25.9943 103.522 26.2449 103.647Z" fill="#16110D"/>
<path d="M16.2183 97.882L18.2235 99.01C18.4742 99.1353 18.8501 99.1353 19.1008 99.01L20.9807 97.882C21.2314 97.7566 21.2314 97.5059 20.9807 97.3806L18.9755 96.2526C18.7248 96.1273 18.3489 96.1273 18.0982 96.2526L16.2183 97.3806C16.093 97.5059 15.9676 97.7566 16.2183 97.882Z" fill="#16110D"/>
<path d="M11.2051 94.9994L13.2103 96.1274C13.461 96.2527 13.8369 96.2527 14.0876 96.1274L15.9675 94.9994C16.2182 94.874 16.2182 94.6233 15.9675 94.498L13.9623 93.3702C13.7116 93.2449 13.3357 93.2449 13.085 93.3702L11.2051 94.498C11.0798 94.6233 10.9545 94.874 11.2051 94.9994Z" fill="#16110D"/>
<path d="M6.19217 92.1169L8.19741 93.2447C8.44807 93.3701 8.82399 93.3701 9.07465 93.2447L10.9546 92.1169C11.2052 91.9916 11.2052 91.7409 10.9546 91.6155L8.94935 90.4876C8.69869 90.3622 8.32277 90.3622 8.07211 90.4876L6.19217 91.6155C6.06685 91.7409 5.94152 91.9916 6.19217 92.1169Z" fill="#16110D"/>
<path d="M1.17899 89.109L3.18422 90.2369C3.43488 90.3623 3.81081 90.3623 4.06147 90.2369L5.9414 89.109C6.19206 88.9836 6.19206 88.7329 5.9414 88.6076L3.93617 87.4796C3.68551 87.3543 3.30958 87.3543 3.05893 87.4796L1.17899 88.6076C1.05366 88.8583 0.928333 89.109 1.17899 89.109Z" fill="#16110D"/>
<path d="M56.1986 47.3743L142.425 97.13L111.845 114.801C109.338 117.183 92.6695 127.835 92.0429 128.337C90.6642 129.59 88.4083 128.337 88.4083 128.337L2.18187 78.5812L56.1986 47.3743Z" fill="#16110D"/>
<path d="M61.5873 46.9984L147.814 96.754L117.233 114.425C114.727 116.807 98.058 127.46 97.4314 127.961C96.0528 129.214 93.7968 127.961 93.7968 127.961L7.57054 78.2052L61.5873 46.9984Z" fill="white"/>
<path d="M95.9278 129.339C96.5544 129.339 97.3064 129.214 97.933 128.713C98.1837 128.587 99.8129 127.46 101.818 126.081C107.082 122.697 115.73 116.932 117.735 115.177L149.193 97.0045L61.5876 46.497L61.2116 46.7476L6.19226 78.5812L93.4212 128.963C93.5465 128.713 94.6745 129.339 95.9278 129.339ZM146.561 96.8792L116.858 114.049C115.103 115.679 106.33 121.444 101.066 124.953C98.309 126.833 97.3064 127.459 97.0558 127.585C96.0532 128.462 94.0479 127.46 94.0479 127.46L8.82414 78.2052L61.5876 47.7503L146.561 96.8792Z" fill="#16110D"/>
<path d="M143.928 89.2342L93.7967 117.308C96.4286 118.812 98.4339 122.446 98.4339 125.329C98.4339 126.833 97.9326 127.835 97.0553 128.337L152.075 97.5059C152.827 97.0045 153.203 96.002 153.203 94.6234C153.203 91.6155 151.072 87.9809 148.566 86.6023L143.928 89.2342Z" fill="white"/>
<path d="M97.4315 128.963L152.451 98.1325C153.454 97.3805 153.955 96.2526 153.955 94.7487C153.955 91.4901 151.824 87.7302 148.942 86.1009L148.566 85.9756L143.553 88.7328L92.4183 117.308L93.421 117.935C95.8023 119.313 97.8075 122.697 97.8075 125.454C97.8075 126.582 97.4315 127.46 96.8048 127.836L97.4315 128.963ZM148.566 87.4795C150.822 88.9835 152.576 92.1168 152.576 94.7487C152.576 95.8766 152.326 96.6286 151.699 97.13L98.9355 126.582C99.0609 126.206 99.0608 125.83 99.0608 125.329C99.0608 122.446 97.3062 119.188 94.9249 117.308L144.179 89.7355L148.566 87.4795Z" fill="#16110D"/>
<path d="M81.2639 69.4322L46.7984 89.2342C45.9211 89.7355 44.4172 89.7356 43.4146 89.1089C42.412 88.4823 42.2867 87.605 43.164 87.1037L77.6295 67.3016C78.5068 66.8003 80.0107 66.8003 81.0133 67.4269C82.0159 68.0536 82.1412 68.9309 81.2639 69.4322Z" fill="#36A9E1"/>
<path d="M45.2945 90.2369C45.9211 90.2369 46.5478 90.1115 47.0491 89.8609L81.5146 70.0588C82.1412 69.6828 82.3918 69.1816 82.3918 68.6802C82.3918 68.0536 82.0158 67.427 81.2639 67.0511C80.0106 66.2991 78.256 66.299 77.2534 66.9256L42.7879 86.7276C42.1613 87.1036 41.9107 87.6049 41.9107 88.1062C41.9107 88.7329 42.2865 89.3596 43.0385 89.7356C43.7905 90.1116 44.5425 90.2369 45.2945 90.2369ZM80.888 68.8055L46.4225 88.6076C45.7958 88.9836 44.4171 88.9836 43.6652 88.4823C43.2892 88.2316 43.164 87.9809 43.164 87.9809C43.164 87.8556 43.2892 87.7303 43.4146 87.7303L77.88 67.9283C78.5067 67.5523 79.8852 67.5523 80.6372 68.0536C81.0132 68.3043 81.1386 68.5549 81.1386 68.5549C81.2639 68.6803 81.1386 68.8055 80.888 68.8055Z" fill="#16110D"/>
<path d="M89.4106 74.1947L54.9451 93.9967C54.0678 94.4981 52.5639 94.4979 51.5613 93.8713C50.5587 93.2446 50.4334 92.3674 51.3107 91.866L85.7762 72.0642C86.6535 71.5628 88.1574 71.5628 89.16 72.1895C90.1626 72.8161 90.2879 73.6934 89.4106 74.1947Z" fill="#36A9E1"/>
<path d="M53.4409 95.1245C54.0676 95.1245 54.6942 94.9992 55.1956 94.7486L89.7863 74.8212C90.413 74.4452 90.6636 73.944 90.6636 73.4426C90.6636 72.816 90.2877 72.1893 89.5357 71.8133C88.2824 71.0613 86.5277 71.0614 85.5251 71.688L51.0596 91.4901C50.433 91.866 50.1824 92.3673 50.1824 92.8686C50.1824 93.4953 50.5584 94.1218 51.3104 94.4978C51.937 94.8738 52.6889 95.1245 53.4409 95.1245ZM89.0344 73.6932L54.5689 93.4953C53.9423 93.8713 52.5636 93.8713 51.8116 93.37C51.4356 93.1193 51.3104 92.8686 51.3104 92.8686C51.3104 92.7433 51.4357 92.6179 51.561 92.6179L86.0265 72.816C86.6531 72.44 88.0317 72.44 88.7836 72.9413C89.1596 73.192 89.285 73.4426 89.285 73.4426C89.285 73.4426 89.285 73.5679 89.0344 73.6932Z" fill="#16110D"/>
<path d="M97.4316 79.0826L62.9661 98.8845C62.0888 99.3858 60.5849 99.3858 59.5823 98.7592C58.5797 98.1325 58.4543 97.2553 59.3316 96.754L93.797 76.9519C94.6743 76.4506 96.1784 76.4507 97.181 77.0774C98.1836 77.704 98.3089 78.5813 97.4316 79.0826Z" fill="#36A9E1"/>
<path d="M61.462 99.887C62.0886 99.887 62.7153 99.7617 63.2166 99.511L97.6821 79.7091C98.3087 79.3331 98.5593 78.8318 98.5593 78.3305C98.5593 77.7039 98.1833 77.0772 97.4313 76.7012C96.178 75.9492 94.4235 75.9492 93.4209 76.5759L58.9554 96.3778C58.3287 96.7538 58.078 97.2552 58.078 97.7565C58.078 98.3832 58.454 99.0097 59.206 99.3857C59.8326 99.6364 60.71 99.887 61.462 99.887ZM97.0554 78.4558L62.59 98.2577C61.9633 98.6337 60.5846 98.6337 59.8326 98.1324C59.4566 97.8818 59.3313 97.6311 59.3313 97.6311C59.3313 97.5057 59.4567 97.3805 59.582 97.3805L94.0475 77.5784C94.6742 77.2024 96.0527 77.2026 96.8047 77.7039C97.1807 77.9545 97.306 78.2051 97.306 78.2051C97.306 78.3304 97.1808 78.4558 97.0554 78.4558Z" fill="#16110D"/>
<path d="M65.0965 59.7818L30.6311 79.5839C29.7538 80.0852 28.2497 80.0851 27.2471 79.4584C26.2444 78.8318 26.1192 77.9545 26.9965 77.4532L61.462 57.6513C62.3393 57.15 63.8431 57.15 64.8458 57.7766C65.9737 58.4033 65.9738 59.2805 65.0965 59.7818Z" fill="#36A9E1"/>
<path d="M29.2523 80.5864C29.879 80.5864 30.5057 80.4612 31.007 80.2105L65.4725 60.4085C66.0991 60.0325 66.3499 59.5312 66.3499 59.0299C66.3499 58.4032 65.9738 57.7765 65.2219 57.4005C63.9686 56.6486 62.2139 56.6486 61.2112 57.2752L26.7458 77.0773C26.1191 77.4533 25.8685 77.9545 25.8685 78.4559C25.8685 79.0825 26.2445 79.7091 26.9965 80.085C27.6232 80.461 28.5004 80.5864 29.2523 80.5864ZM64.8458 59.1552L30.3803 78.9572C29.7537 79.3332 28.3751 79.3331 27.6232 78.8318C27.2472 78.5811 27.1218 78.3306 27.1218 78.3306C27.1218 78.2052 27.2471 78.0798 27.3724 78.0798L61.8379 58.2779C62.4645 57.9019 63.8432 57.9019 64.5952 58.4032C64.9712 58.6539 65.0966 58.9046 65.0966 58.9046C65.0966 59.0299 64.9711 59.1552 64.8458 59.1552Z" fill="#16110D"/>
<path d="M73.2429 64.5445L38.7775 84.3463C37.9002 84.8477 36.3961 84.8477 35.3935 84.221C34.3909 83.5944 34.2656 82.7171 35.1429 82.2158L69.6084 62.4138C70.4857 61.9125 71.9896 61.9124 72.9922 62.5391C73.9948 63.1657 74.1203 64.0431 73.2429 64.5445Z" fill="#36A9E1"/>
<path d="M37.3988 85.4743C38.0255 85.4743 38.6521 85.3489 39.1535 85.0982L73.6189 65.2963C74.2456 64.9203 74.4963 64.4191 74.4963 63.9177C74.4963 63.2911 74.1203 62.6644 73.3683 62.2884C72.1151 61.5364 70.3604 61.5365 69.3577 62.1631L34.8923 81.965C34.2656 82.341 34.015 82.8424 34.015 83.3437C34.015 83.9704 34.391 84.5969 35.143 84.9729C35.7696 85.2236 36.6469 85.4743 37.3988 85.4743ZM72.9923 64.043L38.5268 83.8449C37.9002 84.2209 36.5216 84.2209 35.7696 83.7196C35.3937 83.469 35.2683 83.2183 35.2683 83.2183C35.2683 83.093 35.3936 82.9677 35.5189 82.9677L69.9844 63.1656C70.611 62.7897 71.9897 62.7898 72.7417 63.2911C73.1177 63.5418 73.243 63.7923 73.243 63.7923C73.243 63.7923 73.1176 63.9177 72.9923 64.043Z" fill="#16110D"/>
<path d="M89.0345 93.37L71.1123 103.647C70.235 104.148 68.7312 104.148 67.7285 103.522C66.7259 102.895 66.6005 102.018 67.4778 101.516L85.3999 91.2393C86.2772 90.738 87.7811 90.738 88.7837 91.3646C89.7863 91.9913 89.9118 92.8687 89.0345 93.37Z" fill="#36A9E1"/>
<path d="M69.6084 104.65C70.235 104.65 70.8617 104.524 71.363 104.274L89.285 93.9966C89.9116 93.6207 90.1624 93.1192 90.1624 92.6179C90.1624 91.9913 89.7863 91.3647 89.0344 90.9887C87.7811 90.2367 86.0264 90.2368 85.0237 90.8634L67.1018 101.14C66.4751 101.516 66.2244 102.018 66.2244 102.519C66.2244 103.146 66.6004 103.772 67.3524 104.148C67.979 104.524 68.8564 104.65 69.6084 104.65ZM88.6583 92.8687L70.7364 103.146C70.1097 103.522 68.731 103.522 67.979 103.02C67.603 102.77 67.4777 102.519 67.4777 102.519C67.4777 102.394 67.6031 102.268 67.7284 102.268L85.6504 91.9913C86.277 91.6153 87.6557 91.6154 88.4077 92.1167C88.7837 92.3674 88.9091 92.6179 88.9091 92.6179C88.9091 92.6179 88.909 92.7433 88.6583 92.8687Z" fill="#16110D"/>
<path d="M97.4316 97.882L79.5096 108.159C78.6323 108.66 77.1283 108.66 76.1257 108.034C75.123 107.407 74.9978 106.53 75.8751 106.028L93.797 95.7513C94.6743 95.25 96.1784 95.2501 97.181 95.8767C98.1836 96.5034 98.3089 97.3807 97.4316 97.882Z" fill="#36A9E1"/>
<path d="M78.0053 109.162C78.632 109.162 79.2587 109.036 79.76 108.785L97.6821 98.5085C98.3087 98.1326 98.5593 97.6313 98.5593 97.13C98.5593 96.5033 98.1833 95.8766 97.4313 95.5006C96.178 94.7486 94.4235 94.7487 93.4209 95.3753L75.4988 105.652C74.8721 106.028 74.6215 106.53 74.6215 107.031C74.6215 107.657 74.9975 108.284 75.7495 108.66C76.3762 109.036 77.128 109.162 78.0053 109.162ZM97.0554 97.2553L79.1333 107.532C78.5067 107.908 77.1281 107.908 76.3762 107.407C76.0002 107.156 75.8748 106.906 75.8748 106.906C75.8748 106.78 76.0001 106.655 76.1254 106.655L94.0475 96.3779C94.6742 96.0019 96.0527 96.002 96.8047 96.5033C97.1807 96.754 97.306 97.0045 97.306 97.0045C97.306 97.1298 97.1808 97.2553 97.0554 97.2553Z" fill="#16110D"/>
<path d="M109.589 84.7223C112.722 86.4769 112.722 89.3594 109.589 91.114C106.455 92.8686 101.567 92.8686 98.4342 91.114C95.301 89.3594 95.301 86.4769 98.4342 84.7223C101.567 82.9677 106.581 82.9677 109.589 84.7223Z" fill="#36A9E1"/>
<path d="M104.074 93.1193C106.205 93.1193 108.335 92.618 109.964 91.7407C111.719 90.7381 112.596 89.3595 112.596 87.9809C112.596 86.4769 111.719 85.2236 109.964 84.221C106.706 82.3411 101.442 82.3411 98.1834 84.221C96.4287 85.2236 95.5515 86.6022 95.5515 87.9809C95.5515 89.4848 96.4287 90.7381 98.1834 91.7407C99.8126 92.618 101.943 93.1193 104.074 93.1193ZM104.074 83.9704C105.954 83.9704 107.834 84.3464 109.338 85.2237C110.591 85.9757 111.343 86.8529 111.343 87.8556C111.343 88.8582 110.591 89.7355 109.338 90.4874C106.455 92.1167 101.693 92.1167 98.81 90.4874C97.5567 89.7355 96.8048 88.8582 96.8048 87.8556C96.8048 86.8529 97.5567 85.9757 98.81 85.2237C100.189 84.4717 102.194 83.9704 104.074 83.9704Z" fill="#16110D"/>
<path d="M107.833 86.2262C105.703 85.2236 102.444 85.2236 100.314 86.2262C98.1831 87.2288 98.1831 88.7329 100.314 89.6102C102.444 90.6128 105.703 90.6128 107.833 89.6102C109.839 88.7329 109.839 87.1035 107.833 86.2262Z" fill="white"/>
<path d="M104.074 90.9888C105.578 90.9888 106.956 90.7382 108.084 90.2368C109.714 89.4849 109.964 88.4822 109.964 87.9809C109.964 87.4795 109.714 86.4768 108.084 85.7249C105.828 84.7222 102.319 84.7222 100.063 85.7249C98.4341 86.4768 98.1834 87.4795 98.1834 87.9809C98.1834 88.4822 98.4341 89.4849 100.063 90.2368C101.191 90.7382 102.57 90.9888 104.074 90.9888ZM104.074 86.1009C105.327 86.1009 106.58 86.3516 107.583 86.7276C108.335 87.1036 108.711 87.4796 108.711 87.8556C108.711 88.2315 108.21 88.6076 107.583 88.9836C105.703 89.8609 102.57 89.8609 100.565 88.9836C99.8127 88.6076 99.4367 88.2315 99.4367 87.8556C99.4367 87.4796 99.938 87.1036 100.565 86.7276C101.442 86.3516 102.821 86.1009 104.074 86.1009Z" fill="#16110D"/>
<path d="M121.996 79.4584L115.729 75.3226C115.479 75.1973 115.479 74.8213 115.604 74.5707L152.576 5.51427C153.077 4.88762 154.08 4.51163 155.709 4.88762C156.963 5.13828 158.091 5.76495 158.968 6.64226C160.096 7.77022 160.472 8.77288 160.221 9.65018L122.873 79.3331C122.623 79.5837 122.247 79.709 121.996 79.4584Z" fill="#16110D"/>
<path d="M122.247 80.2105C122.372 80.2105 122.497 80.2105 122.497 80.2105C122.873 80.0852 123.124 79.9598 123.249 79.5838L160.723 9.77551C161.099 8.64755 160.597 7.39423 159.344 6.14094C158.342 5.13831 157.088 4.51167 155.835 4.26101C154.08 3.88502 152.702 4.2611 152.075 5.1384L114.978 74.3199C114.727 74.8213 114.852 75.5733 115.354 75.824L121.62 79.9597C121.871 80.2104 121.996 80.2105 122.247 80.2105ZM159.595 9.27417L122.247 78.8317L116.231 74.8213L153.203 5.76505C153.579 5.38906 154.456 5.13834 155.584 5.389C156.712 5.63966 157.715 6.14107 158.467 6.89304C159.344 7.89567 159.72 8.64752 159.595 9.27417Z" fill="#16110D"/>
<path d="M120.869 81.7143L114.602 77.5784C114.351 77.453 114.351 77.0771 114.477 76.8264L151.449 7.77019C151.95 7.14354 152.953 6.76755 154.582 7.14354C155.835 7.3942 156.963 8.02088 157.841 8.89818C158.969 10.0261 159.345 11.0288 159.094 11.9061L121.746 81.589C121.495 81.8397 121.119 81.8396 120.869 81.7143Z" fill="#36A9E1"/>
<path d="M121.119 82.4664C121.244 82.4664 121.369 82.4664 121.369 82.4664C121.745 82.341 121.996 82.2157 122.122 81.8397L159.595 12.0315C159.971 10.9036 159.47 9.65024 158.216 8.39695C157.214 7.39432 155.96 6.76767 154.707 6.51702C152.952 6.14103 151.574 6.51695 150.947 7.39426L113.85 76.576C113.599 77.0773 113.724 77.8292 114.226 78.0798L120.492 82.2158C120.618 82.3411 120.868 82.4664 121.119 82.4664ZM158.342 11.5302L120.994 81.0878L114.978 77.0773L151.95 8.0209C152.326 7.64492 153.203 7.39435 154.331 7.64501C155.459 7.89567 156.462 8.39692 157.214 9.14889C158.216 10.0262 158.592 10.9035 158.342 11.5302Z" fill="#16110D"/>
<path d="M117.109 88.7328L110.842 84.597C110.592 84.4717 110.591 84.0956 110.717 83.8449L147.689 14.7887C148.19 14.162 149.193 13.786 150.822 14.162C152.075 14.4127 153.203 15.0394 154.081 15.9167C155.209 17.0446 155.585 18.0473 155.334 18.9246L117.986 88.6075C117.735 88.8582 117.359 88.9835 117.109 88.7328Z" fill="#16110D"/>
<path d="M117.359 89.4848C117.485 89.4848 117.61 89.4848 117.61 89.4848C117.986 89.3594 118.237 89.2341 118.362 88.8581L155.835 19.0499C156.211 17.922 155.71 16.6686 154.457 15.4154C153.454 14.4127 152.201 13.7861 150.947 13.5354C149.193 13.1594 147.814 13.5355 147.188 14.4128L110.09 83.5944C109.839 84.0957 109.965 84.8476 110.466 85.0982L116.733 89.2342C116.858 89.3595 117.109 89.4848 117.359 89.4848ZM154.582 18.5486L117.234 88.1062L111.218 84.0957L148.19 15.0395C148.566 14.6635 149.443 14.4128 150.571 14.6634C151.699 14.9141 152.702 15.4153 153.454 16.1673C154.457 17.1699 154.833 17.9219 154.582 18.5486Z" fill="#16110D"/>
<path d="M109.839 85.0982L109.964 84.8476C110.34 83.9703 111.468 83.4689 113.348 83.8449C114.476 84.0955 115.604 84.7222 116.482 85.4742C117.735 86.6022 117.986 87.7302 117.735 88.4821C117.735 88.6075 117.609 88.8581 117.484 88.9835C116.983 89.8608 115.479 91.9913 112.722 92.4926L109.964 91.2393C110.09 91.3646 108.586 87.3541 109.839 85.0982Z" fill="#36A9E1"/>
<path d="M112.722 93.2447H112.973C115.981 92.7434 117.61 90.3621 118.111 89.3595C118.236 89.2342 118.362 88.9835 118.362 88.7329C118.738 87.6049 118.236 86.2263 116.858 85.0983C115.855 84.221 114.727 83.5945 113.474 83.3438C111.093 82.8425 109.714 83.7198 109.338 84.7224L109.213 84.973C107.834 87.4796 109.213 91.4901 109.338 91.7408L109.463 91.9914L112.722 93.2447ZM112.221 84.3464C112.597 84.3464 112.973 84.3463 113.349 84.4716C114.351 84.7223 115.354 85.2237 116.106 85.9757C116.983 86.853 117.484 87.7303 117.234 88.357C117.234 88.4823 117.109 88.4822 117.109 88.6076C116.607 89.4849 115.229 91.3648 112.973 91.8661L110.591 90.8635C110.341 89.9862 109.463 87.1036 110.466 85.4743L110.591 85.2237C110.842 84.5971 111.469 84.3464 112.221 84.3464Z" fill="#16110D"/>
<path d="M115.228 87.9808C114.351 87.2288 113.349 86.6021 112.095 86.3514C111.093 86.1008 110.215 86.2262 109.589 86.4769C109.714 85.9756 109.839 85.4741 110.09 85.0982L110.215 84.8476C110.591 83.9703 111.719 83.4689 113.599 83.8449C114.727 84.0955 115.855 84.7222 116.732 85.4742C117.986 86.6022 118.236 87.7302 117.986 88.4821C117.986 88.6075 117.86 88.8581 117.735 88.9835C117.484 89.3595 117.108 89.986 116.482 90.6127C116.607 89.7354 116.231 88.8581 115.228 87.9808Z" fill="#16110D"/>
<path d="M109.213 96.002L109.964 92.9941C110.09 92.3674 110.215 91.7407 110.09 91.2394C110.09 90.8634 110.341 90.4875 110.842 90.4875C111.594 90.4875 112.471 90.9888 112.847 91.6155C113.098 92.1168 113.098 92.4928 112.596 92.7435C112.22 92.8688 111.844 93.2447 111.594 93.6207L109.714 96.2526C109.589 96.6286 109.087 96.378 109.213 96.002Z" fill="white"/>
<path d="M109.463 97.0045C109.839 97.0045 110.09 96.8792 110.215 96.6286L112.095 93.9967C112.346 93.6207 112.596 93.3699 112.847 93.2446C113.223 93.1193 113.474 92.8686 113.599 92.4927C113.724 92.1167 113.599 91.6154 113.348 91.2394C112.847 90.3621 111.719 89.8608 110.716 89.8608C110.09 89.8608 109.714 90.1115 109.589 90.3621C109.338 90.6128 109.212 90.9887 109.338 91.3647C109.338 91.866 109.338 92.3674 109.213 92.994L108.461 96.0019C108.335 96.5032 108.586 96.8793 108.962 97.1299C109.213 97.0046 109.338 97.0045 109.463 97.0045ZM110.842 91.1141C111.343 91.1141 111.97 91.49 112.22 91.866C112.346 91.9913 112.346 92.1168 112.346 92.1168C111.719 92.3674 111.343 92.8686 111.092 93.2446L110.215 94.6233L110.591 93.2446C110.716 92.4926 110.842 91.866 110.716 91.2394C110.716 91.2394 110.717 91.1141 110.842 91.1141Z" fill="#16110D"/>
<path d="M113.474 90.4875C114.853 89.2342 116.106 87.3543 116.106 87.229L159.344 6.76767L158.467 6.26648L115.229 86.7276C114.853 87.3543 113.85 88.733 112.847 89.6103C112.471 89.9863 113.098 90.8635 113.474 90.4875Z" fill="#36A9E1"/>
<path d="M154.958 15.0395L157.59 10.1516L156.712 9.65027L154.08 14.6634L154.958 15.0395Z" fill="white"/>
<path d="M113.348 90.3621L115.228 88.6075L114.476 87.9808L112.596 89.7355L113.348 90.3621Z" fill="white"/>
<path d="M116.081 85.3896L116.95 85.8891L115.826 87.8452L114.957 87.3456L116.081 85.3896Z" fill="#36A9E1"/>
<path d="M142.55 52.5127L163.981 12.4074C165.36 9.77554 165.36 6.76777 163.856 4.38651C162.728 2.63191 160.973 1.12796 158.592 0L158.091 0.877242C160.221 2.0052 161.851 3.38376 162.853 4.88771C164.107 6.89297 164.232 9.65033 162.979 11.9063L141.547 52.0115L142.55 52.5127Z" fill="#16110D"/>
<path d="M131.897 72.5653L140.795 55.8967L139.918 55.5206L131.02 72.0641L131.897 72.5653Z" fill="#16110D"/>
</svg>
