<svg width="131" height="102" viewBox="0 0 131 102" fill="none" xmlns="http://www.w3.org/2000/svg">
<path d="M4.71151 55.8725L2.8869 56.9081C2.68964 57.0067 2.39376 57.0067 2.14719 56.8588L0.421216 55.8725C0.223962 55.7246 0.17466 55.5766 0.371915 55.4287L2.19649 54.3931C2.39375 54.2945 2.68963 54.2944 2.9362 54.4424L4.66218 55.4287C4.85943 55.5766 4.90876 55.7739 4.71151 55.8725Z" fill="#16110D"/>
<path d="M8.95284 58.3381L7.12823 59.3736C6.93098 59.4723 6.63509 59.4723 6.38853 59.3243L4.66255 58.3381C4.4653 58.1901 4.41599 58.0422 4.61325 57.8942L6.43786 56.8587C6.63511 56.76 6.93099 56.76 7.17756 56.908L8.90354 57.8942C9.10079 58.0422 9.1501 58.2394 8.95284 58.3381Z" fill="#16110D"/>
<path d="M4.46517 60.9025L2.64056 61.9381C2.4433 62.0367 2.14742 62.0367 1.90086 61.8888L0.174879 60.9025C-0.0223759 60.7546 -0.0716775 60.6066 0.125577 60.4587L1.95016 59.4231C2.14741 59.3245 2.44329 59.3245 2.68986 59.4724L4.41584 60.4587C4.66241 60.6066 4.66242 60.8039 4.46517 60.9025Z" fill="#16110D"/>
<path d="M13.4405 60.9025L11.6159 61.9381C11.4187 62.0367 11.1228 62.0367 10.8762 61.8888L9.15024 60.9025C8.95298 60.7546 8.90365 60.6066 9.10091 60.4587L10.9255 59.4231C11.1228 59.3245 11.4187 59.3245 11.6652 59.4724L13.3912 60.4587C13.5885 60.6066 13.5885 60.8039 13.4405 60.9025Z" fill="#16110D"/>
<path d="M8.95284 63.516L7.12823 64.5516C6.93098 64.6502 6.63509 64.6503 6.38853 64.5023L4.66255 63.516C4.4653 63.3681 4.41599 63.2202 4.61325 63.0722L6.43786 62.0366C6.63511 61.938 6.93099 61.938 7.17756 62.0859L8.90354 63.0722C9.10079 63.2202 9.1501 63.3681 8.95284 63.516Z" fill="#16110D"/>
<path d="M17.6811 63.3682L15.8565 64.4038C15.6592 64.5024 15.3634 64.5024 15.1168 64.3545L13.3908 63.3682C13.1936 63.2203 13.1443 63.0723 13.3415 62.9244L15.1661 61.8888C15.3634 61.7902 15.6593 61.7902 15.9058 61.9381L17.6318 62.9244C17.8291 63.0723 17.8291 63.2696 17.6811 63.3682Z" fill="#16110D"/>
<path d="M13.1938 65.9324L11.3692 66.968C11.172 67.0666 10.8761 67.0666 10.6295 66.9187L8.90353 65.9324C8.70628 65.7845 8.65695 65.6366 8.8542 65.4886L10.6788 64.453C10.8761 64.3544 11.1719 64.3544 11.4185 64.5023L13.1445 65.4886C13.3417 65.6366 13.3911 65.8338 13.1938 65.9324Z" fill="#16110D"/>
<path d="M21.8731 65.8338L20.0485 66.8694C19.8513 66.968 19.5554 66.968 19.3088 66.8201L17.5828 65.8338C17.3856 65.6858 17.3363 65.5379 17.5335 65.39L19.3581 64.3544C19.5554 64.2557 19.8513 64.2558 20.0979 64.4037L21.8238 65.39C22.0704 65.5379 22.0704 65.6858 21.8731 65.8338Z" fill="#16110D"/>
<path d="M17.4344 68.3981L15.6098 69.4337C15.4125 69.5323 15.1167 69.5323 14.8701 69.3844L13.1441 68.3981C12.9469 68.2502 12.8976 68.1023 13.0948 67.9543L14.9194 66.9187C15.1167 66.8201 15.4126 66.8201 15.6591 66.968L17.3851 67.9543C17.5824 68.1023 17.6317 68.2995 17.4344 68.3981Z" fill="#16110D"/>
<path d="M26.3603 68.3981L24.5357 69.4337C24.3385 69.5323 24.0426 69.5323 23.796 69.3844L22.07 68.3981C21.8728 68.2502 21.8235 68.1023 22.0207 67.9543L23.8453 66.9187C24.0426 66.8201 24.3385 66.8201 24.585 66.968L26.311 67.9543C26.5576 68.1023 26.5576 68.2995 26.3603 68.3981Z" fill="#16110D"/>
<path d="M21.9221 70.9625L20.0975 71.998C19.9002 72.0967 19.6044 72.0967 19.3578 71.9487L17.6318 70.9625C17.4346 70.8145 17.3852 70.6666 17.5825 70.5186L19.4071 69.483C19.6043 69.3844 19.9002 69.3844 20.1468 69.5324L21.8728 70.5186C22.07 70.6666 22.1193 70.8638 21.9221 70.9625Z" fill="#16110D"/>
<path d="M30.6013 70.8638L28.7767 71.8994C28.5794 71.998 28.2835 71.998 28.037 71.8501L26.311 70.8638C26.1137 70.7159 26.0644 70.5679 26.2617 70.42L28.0863 69.3844C28.2835 69.2858 28.5794 69.2858 28.826 69.4337L30.5519 70.42C30.7985 70.5679 30.7985 70.7159 30.6013 70.8638Z" fill="#16110D"/>
<path d="M26.163 73.4282L24.3384 74.4637C24.1412 74.5624 23.8453 74.5624 23.5987 74.4144L21.8728 73.4282C21.6755 73.2802 21.6262 73.1323 21.8235 72.9843L23.648 71.9487C23.8453 71.8501 24.1412 71.8501 24.3877 71.998L26.1137 72.9843C26.311 73.1323 26.3603 73.3295 26.163 73.4282Z" fill="#16110D"/>
<path d="M34.8422 73.2802L33.0176 74.3158C32.8204 74.4144 32.5245 74.4144 32.2779 74.2665L30.552 73.2802C30.3547 73.1323 30.3054 72.9843 30.5027 72.8364L32.3273 71.8008C32.5245 71.7022 32.8204 71.7022 33.067 71.8501L34.7929 72.8364C34.9902 72.9843 35.0395 73.1816 34.8422 73.2802Z" fill="#16110D"/>
<path d="M30.404 75.8444L28.5794 76.88C28.3821 76.9786 28.0863 76.9786 27.8397 76.8307L26.1137 75.8444C25.9165 75.6965 25.8672 75.5485 26.0644 75.4006L27.889 74.365C28.0863 74.2664 28.3822 74.2664 28.6287 74.4143L30.3547 75.4006C30.552 75.5485 30.552 75.7458 30.404 75.8444Z" fill="#16110D"/>
<path d="M39.3301 75.8937L37.5054 76.9293C37.3082 77.0279 37.0123 77.0279 36.7657 76.88L35.0398 75.8937C34.8425 75.7458 34.7932 75.5978 34.9904 75.4499L36.815 74.4143C37.0123 74.3157 37.3082 74.3157 37.5547 74.4636L39.2807 75.4499C39.478 75.5978 39.5273 75.7951 39.3301 75.8937Z" fill="#16110D"/>
<path d="M34.8917 78.4581L33.0671 79.4936C32.8698 79.5923 32.574 79.5923 32.3274 79.4443L30.6014 78.4581C30.4042 78.3101 30.3548 78.1622 30.5521 78.0142L32.3767 76.9787C32.5739 76.88 32.8698 76.88 33.1164 77.028L34.8424 78.0142C35.0396 78.1622 35.0396 78.3594 34.8917 78.4581Z" fill="#16110D"/>
<path d="M43.571 78.3102L41.7464 79.3458C41.5491 79.4444 41.2533 79.4444 41.0067 79.2965L39.2807 78.3102C39.0835 78.1623 39.0342 78.0143 39.2314 77.8664L41.056 76.8308C41.2533 76.7322 41.5492 76.7322 41.7957 76.8801L43.5217 77.8664C43.719 78.0143 43.7683 78.2116 43.571 78.3102Z" fill="#16110D"/>
<path d="M39.0837 80.9238L37.2591 81.9593C37.0619 82.058 36.766 82.058 36.5194 81.91L34.7934 80.9238C34.5962 80.7758 34.5468 80.6279 34.7441 80.4799L36.5687 79.4444C36.766 79.3457 37.0618 79.3457 37.3084 79.4937L39.0344 80.4799C39.281 80.6279 39.281 80.7758 39.0837 80.9238Z" fill="#16110D"/>
<path d="M47.8115 80.7758L45.9869 81.8114C45.7896 81.91 45.4938 81.91 45.2472 81.7621L43.5212 80.7758C43.324 80.6279 43.2746 80.4799 43.4719 80.332L45.2965 79.2964C45.4937 79.1978 45.7896 79.1978 46.0362 79.3457L47.7622 80.332C47.9594 80.4799 48.0087 80.6772 47.8115 80.7758Z" fill="#16110D"/>
<path d="M43.3242 83.3401L41.4996 84.3757C41.3023 84.4744 41.0064 84.4743 40.7599 84.3264L39.0339 83.3401C38.8366 83.1922 38.7873 83.0443 38.9846 82.8963L40.8092 81.8607C41.0065 81.7621 41.3023 81.7621 41.5489 81.9101L43.2749 82.8963C43.5214 83.0443 43.5214 83.2415 43.3242 83.3401Z" fill="#16110D"/>
<path d="M52.2996 83.3401L50.475 84.3757C50.2778 84.4744 49.9819 84.4743 49.7353 84.3264L48.0094 83.3401C47.8121 83.1922 47.7628 83.0443 47.96 82.8963L49.7846 81.8607C49.9819 81.7621 50.2778 81.7621 50.5243 81.9101L52.2503 82.8963C52.4476 83.0443 52.4969 83.2415 52.2996 83.3401Z" fill="#16110D"/>
<path d="M47.8115 85.9538L45.9869 86.9894C45.7896 87.088 45.4938 87.088 45.2472 86.9401L43.5212 85.9538C43.324 85.8058 43.2746 85.6579 43.4719 85.51L45.2965 84.4744C45.4937 84.3758 45.7896 84.3757 46.0362 84.5237L47.7622 85.51C48.0087 85.6579 48.0087 85.8058 47.8115 85.9538Z" fill="#16110D"/>
<path d="M56.5401 85.8058L54.7155 86.8414C54.5183 86.9401 54.2224 86.94 53.9758 86.7921L52.2498 85.8058C52.0526 85.6579 52.0033 85.51 52.2005 85.362L54.0251 84.3264C54.2224 84.2278 54.5183 84.2278 54.7648 84.3758L56.4908 85.362C56.6881 85.51 56.7374 85.7072 56.5401 85.8058Z" fill="#16110D"/>
<path d="M52.0528 88.3702L50.2282 89.4058C50.031 89.5044 49.7351 89.5044 49.4885 89.3564L47.7625 88.3702C47.5653 88.2222 47.516 88.0743 47.7132 87.9264L49.5378 86.8908C49.7351 86.7921 50.0309 86.7921 50.2775 86.9401L52.0035 87.9264C52.2501 88.0743 52.2501 88.2715 52.0528 88.3702Z" fill="#16110D"/>
<path d="M60.7816 88.2715L58.957 89.3071C58.7597 89.4058 58.4638 89.4057 58.2173 89.2578L56.4913 88.2715C56.294 88.1236 56.2447 87.9757 56.442 87.8277L58.2666 86.7921C58.4638 86.6935 58.7597 86.6935 59.0063 86.8414L60.7323 87.8277C60.9295 87.9757 60.9295 88.1236 60.7816 88.2715Z" fill="#16110D"/>
<path d="M56.2938 90.8357L54.4692 91.8713C54.2719 91.97 53.976 91.9699 53.7295 91.822L52.0035 90.8357C51.8062 90.6878 51.7569 90.5399 51.9542 90.3919L53.7788 89.3563C53.9761 89.2577 54.2719 89.2577 54.5185 89.4057L56.2445 90.3919C56.4417 90.5399 56.491 90.7371 56.2938 90.8357Z" fill="#16110D"/>
<path d="M65.2689 90.8357L63.4443 91.8713C63.247 91.97 62.9511 91.9699 62.7046 91.822L60.9786 90.8357C60.7813 90.6878 60.732 90.5399 60.9293 90.3919L62.7539 89.3563C62.9512 89.2577 63.247 89.2577 63.4936 89.4057L65.2196 90.3919C65.4168 90.5399 65.4168 90.7371 65.2689 90.8357Z" fill="#16110D"/>
<path d="M60.7816 93.4001L58.957 94.4357C58.7597 94.5343 58.4638 94.5343 58.2173 94.3864L56.4913 93.4001C56.294 93.2521 56.2447 93.1042 56.442 92.9562L58.2666 91.9207C58.4638 91.822 58.7597 91.822 59.0063 91.97L60.7323 92.9562C60.9295 93.1042 60.9788 93.3015 60.7816 93.4001Z" fill="#16110D"/>
<path d="M69.4604 93.3014L67.6358 94.337C67.4385 94.4357 67.1427 94.4356 66.8961 94.2877L65.1701 93.3014C64.9729 93.1535 64.9236 93.0056 65.1208 92.8576L66.9454 91.822C67.1427 91.7234 67.4386 91.7234 67.6851 91.8714L69.4111 92.8576C69.6577 93.0056 69.6577 93.1535 69.4604 93.3014Z" fill="#16110D"/>
<path d="M65.0221 95.8658L63.1974 96.9014C63.0002 97 62.7043 97 62.4577 96.8521L60.7318 95.8658C60.5345 95.7178 60.4852 95.5699 60.6825 95.4219L62.5071 94.3864C62.7043 94.2877 63.0002 94.2877 63.2468 94.4357L64.9728 95.4219C65.17 95.5699 65.2193 95.7672 65.0221 95.8658Z" fill="#16110D"/>
<path d="M73.7014 95.7178L71.8768 96.7534C71.6795 96.852 71.3836 96.852 71.1371 96.7041L69.4111 95.7178C69.2138 95.5699 69.1645 95.4219 69.3618 95.274L71.1864 94.2384C71.3836 94.1398 71.6795 94.1398 71.9261 94.2877L73.6521 95.274C73.8986 95.4219 73.8986 95.6192 73.7014 95.7178Z" fill="#16110D"/>
<path d="M69.2635 98.3314L67.4389 99.3669C67.2417 99.4656 66.9458 99.4656 66.6992 99.3176L64.9732 98.3314C64.776 98.1834 64.7267 98.0355 64.9239 97.8875L66.7485 96.8519C66.9458 96.7533 67.2417 96.7533 67.4882 96.9012L69.2142 97.8875C69.4114 98.0355 69.4608 98.1834 69.2635 98.3314Z" fill="#16110D"/>
<path d="M78.189 98.3314L76.3644 99.3669C76.1672 99.4656 75.8713 99.4656 75.6247 99.3176L73.8988 98.3314C73.7015 98.1834 73.6522 98.0355 73.8495 97.8875L75.674 96.8519C75.8713 96.7533 76.1672 96.7533 76.4137 96.9012L78.1397 97.8875C78.3863 98.0355 78.3863 98.2327 78.189 98.3314Z" fill="#16110D"/>
<path d="M73.7508 100.896L71.9262 101.931C71.7289 102.03 71.4331 102.03 71.1865 101.882L69.4605 100.896C69.2633 100.748 69.214 100.6 69.4112 100.452L71.2358 99.4163C71.4331 99.3176 71.7289 99.3176 71.9755 99.4656L73.7015 100.452C73.8987 100.6 73.9481 100.797 73.7508 100.896Z" fill="#16110D"/>
<path d="M82.6767 95.7671L80.8521 96.8027C80.6549 96.9014 80.359 96.9013 80.1124 96.7534L78.3864 95.7671C78.1892 95.6192 78.1399 95.4713 78.3371 95.3233L80.1617 94.2877C80.359 94.1891 80.6549 94.1891 80.9014 94.3371L82.6274 95.3233C82.8247 95.4713 82.874 95.6192 82.6767 95.7671Z" fill="#16110D"/>
<path d="M87.115 93.1534L85.2903 94.1889C85.0931 94.2876 84.7972 94.2876 84.5506 94.1396L82.8247 93.1534C82.6274 93.0054 82.5781 92.8575 82.7754 92.7095L84.6 91.674C84.7972 91.5753 85.0931 91.5753 85.3397 91.7233L87.0656 92.7095C87.3122 92.8575 87.3122 93.0547 87.115 93.1534Z" fill="#16110D"/>
<path d="M91.6028 90.5892L89.7782 91.6248C89.5809 91.7234 89.285 91.7234 89.0384 91.5754L87.3125 90.5892C87.1152 90.4412 87.0659 90.2933 87.2631 90.1453L89.0877 89.1097C89.285 89.0111 89.5809 89.0111 89.8275 89.1591L91.5534 90.1453C91.7507 90.2933 91.8 90.4905 91.6028 90.5892Z" fill="#16110D"/>
<path d="M96.041 88.0249L94.2164 89.0605C94.0191 89.1592 93.7232 89.1592 93.4767 89.0112L91.7507 88.0249C91.5534 87.877 91.5041 87.7291 91.7014 87.5811L93.526 86.5455C93.7232 86.4469 94.0191 86.4469 94.2657 86.5949L95.9917 87.5811C96.2382 87.7291 96.2382 87.9263 96.041 88.0249Z" fill="#16110D"/>
<path d="M100.528 85.4113L98.7037 86.4469C98.5064 86.5455 98.2105 86.5455 97.964 86.3976L96.238 85.4113C96.0407 85.2634 95.9914 85.1154 96.1887 84.9675L98.0133 83.9319C98.2106 83.8333 98.5064 83.8333 98.753 83.9812L100.479 84.9675C100.676 85.1154 100.726 85.3127 100.528 85.4113Z" fill="#16110D"/>
<path d="M104.967 82.847L103.142 83.8826C102.945 83.9812 102.649 83.9812 102.402 83.8332L100.676 82.847C100.479 82.699 100.43 82.5511 100.627 82.4032L102.452 81.3676C102.649 81.2689 102.945 81.2689 103.191 81.4169L104.917 82.4032C105.164 82.5511 105.164 82.7483 104.967 82.847Z" fill="#16110D"/>
<path d="M109.454 80.2828L107.629 81.3183C107.432 81.417 107.136 81.417 106.89 81.269L105.164 80.2828C104.966 80.1348 104.917 79.9869 105.114 79.8389L106.939 78.8034C107.136 78.7047 107.432 78.7047 107.679 78.8527L109.405 79.8389C109.602 79.9869 109.651 80.1841 109.454 80.2828Z" fill="#16110D"/>
<path d="M113.892 77.7184L112.067 78.754C111.87 78.8526 111.574 78.8527 111.328 78.7047L109.602 77.7184C109.405 77.5705 109.355 77.4225 109.552 77.2746L111.377 76.239C111.574 76.1404 111.87 76.1404 112.117 76.2883L113.843 77.2746C114.089 77.4225 114.089 77.6198 113.892 77.7184Z" fill="#16110D"/>
<path d="M118.38 75.1048L116.555 76.1404C116.358 76.239 116.062 76.239 115.815 76.0911L114.089 75.1048C113.892 74.9569 113.843 74.8089 114.04 74.661L115.865 73.6254C116.062 73.5268 116.358 73.5267 116.604 73.6747L118.33 74.661C118.528 74.8089 118.577 75.0062 118.38 75.1048Z" fill="#16110D"/>
<path d="M122.818 72.5405L120.993 73.576C120.796 73.6747 120.5 73.6747 120.254 73.5267L118.528 72.5405C118.331 72.3925 118.281 72.2446 118.478 72.0966L120.303 71.0611C120.5 70.9624 120.796 70.9624 121.043 71.1104L122.769 72.0966C123.015 72.2446 123.015 72.4418 122.818 72.5405Z" fill="#16110D"/>
<path d="M127.305 69.9761L125.481 71.0117C125.283 71.1103 124.988 71.1103 124.741 70.9624L123.015 69.9761C122.818 69.8282 122.768 69.6802 122.966 69.5323L124.79 68.4967C124.988 68.3981 125.283 68.3981 125.53 68.546L127.256 69.5323C127.453 69.6802 127.503 69.8775 127.305 69.9761Z" fill="#16110D"/>
<path d="M131.744 67.4118L129.919 68.4474C129.722 68.546 129.426 68.546 129.179 68.3981L127.453 67.4118C127.256 67.2638 127.207 67.1159 127.404 66.968L129.229 65.9324C129.426 65.8337 129.722 65.8338 129.968 65.9817L131.694 66.968C131.941 67.1159 131.941 67.2638 131.744 67.4118Z" fill="#16110D"/>
<path d="M82.43 100.748L80.6054 101.783C80.4081 101.882 80.1123 101.882 79.8657 101.734L78.1397 100.748C77.9425 100.6 77.8932 100.452 78.0904 100.304L79.915 99.2684C80.1123 99.1698 80.4082 99.1698 80.6547 99.3178L82.3807 100.304C82.578 100.452 82.6273 100.649 82.43 100.748Z" fill="#16110D"/>
<path d="M86.9177 98.1835L85.0931 99.2191C84.8958 99.3177 84.6 99.3177 84.3534 99.1698L82.6274 98.1835C82.4302 98.0356 82.3808 97.8876 82.5781 97.7397L84.4027 96.7041C84.5999 96.6055 84.8958 96.6055 85.1424 96.7534L86.8684 97.7397C87.0656 97.8876 87.0656 98.0849 86.9177 98.1835Z" fill="#16110D"/>
<path d="M91.3559 95.6192L89.5313 96.6548C89.3341 96.7534 89.0382 96.7534 88.7916 96.6055L87.0656 95.6192C86.8684 95.4713 86.8191 95.3233 87.0163 95.1754L88.8409 94.1398C89.0382 94.0412 89.3341 94.0411 89.5806 94.1891L91.3066 95.1754C91.5532 95.3233 91.5532 95.5206 91.3559 95.6192Z" fill="#16110D"/>
<path d="M95.8432 93.055L94.0186 94.0906C93.8214 94.1892 93.5255 94.1892 93.2789 94.0412L91.5529 93.055C91.3557 92.907 91.3064 92.7591 91.5036 92.6112L93.3282 91.5756C93.5255 91.4769 93.8214 91.477 94.0679 91.6249L95.7939 92.6112C95.9912 92.7591 95.9912 92.907 95.8432 93.055Z" fill="#16110D"/>
<path d="M100.281 90.4412L98.4568 91.4768C98.2596 91.5754 97.9637 91.5754 97.7171 91.4275L95.9912 90.4412C95.7939 90.2933 95.7446 90.1453 95.9419 89.9974L97.7665 88.9618C97.9637 88.8632 98.2596 88.8632 98.5062 89.0111L100.232 89.9974C100.479 90.1453 100.479 90.3426 100.281 90.4412Z" fill="#16110D"/>
<path d="M104.769 87.877L102.945 88.9126C102.747 89.0112 102.452 89.0112 102.205 88.8633L100.479 87.877C100.282 87.7291 100.232 87.5811 100.43 87.4332L102.254 86.3976C102.452 86.299 102.747 86.299 102.994 86.4469L104.72 87.4332C104.917 87.5811 104.966 87.7784 104.769 87.877Z" fill="#16110D"/>
<path d="M109.207 85.3127L107.383 86.3483C107.186 86.4469 106.89 86.4469 106.643 86.2989L104.917 85.3127C104.72 85.1647 104.671 85.0168 104.868 84.8689L106.692 83.8333C106.89 83.7346 107.186 83.7346 107.432 83.8826L109.158 84.8689C109.405 85.0168 109.405 85.214 109.207 85.3127Z" fill="#16110D"/>
<path d="M113.695 82.7483L111.87 83.7839C111.673 83.8825 111.377 83.8826 111.13 83.7346L109.404 82.7483C109.207 82.6004 109.158 82.4525 109.355 82.3045L111.18 81.2689C111.377 81.1703 111.673 81.1703 111.919 81.3182L113.645 82.3045C113.843 82.4525 113.892 82.6004 113.695 82.7483Z" fill="#16110D"/>
<path d="M118.133 80.1347L116.308 81.1703C116.111 81.2689 115.815 81.2689 115.569 81.121L113.843 80.1347C113.645 79.9867 113.596 79.8388 113.793 79.6909L115.618 78.6553C115.815 78.5567 116.111 78.5567 116.358 78.7046L118.084 79.6909C118.33 79.8388 118.33 80.0361 118.133 80.1347Z" fill="#16110D"/>
<path d="M122.621 77.5704L120.796 78.6059C120.599 78.7046 120.303 78.7046 120.056 78.5566L118.33 77.5704C118.133 77.4224 118.084 77.2745 118.281 77.1265L120.106 76.091C120.303 75.9923 120.599 75.9923 120.845 76.1403L122.571 77.1265C122.769 77.2745 122.818 77.4717 122.621 77.5704Z" fill="#16110D"/>
<path d="M127.059 75.0063L125.234 76.0419C125.037 76.1405 124.741 76.1405 124.495 75.9926L122.769 75.0063C122.571 74.8583 122.522 74.7104 122.719 74.5624L124.544 73.5269C124.741 73.4282 125.037 73.4282 125.284 73.5762L127.01 74.5624C127.256 74.7104 127.256 74.9077 127.059 75.0063Z" fill="#16110D"/>
<path d="M131.547 72.4418L129.722 73.4774C129.525 73.576 129.229 73.576 128.982 73.4281L127.256 72.4418C127.059 72.2939 127.01 72.1459 127.207 71.998L129.032 70.9624C129.229 70.8638 129.525 70.8638 129.771 71.0117L131.497 71.998C131.695 72.1459 131.744 72.2939 131.547 72.4418Z" fill="#16110D"/>
<path d="M103.734 19.4789L103.832 19.183C104.671 18.9858 105.509 18.7392 106.199 18.3447C107.531 17.5557 108.123 16.5201 108.024 15.5338V6.85464L103.438 5.17798L94.4627 11.5394L76.3646 9.91209L75.8715 9.6162L75.5263 9.81346L73.3072 9.6162H64.4307H61.5705L61.5212 20.4159H51.7078L42.5355 21.9446L39.478 21.7474V30.6238L48.1079 35.6045L48.3545 36.2949L43.8176 36.6401V45.4672C43.7683 47.2425 45.9874 49.0671 50.475 49.3137C54.2228 48.8698 56.1953 47.4398 56.4912 45.911C58.0693 42.3604 62.0143 43.5933 62.0637 43.5933L76.0194 51.6314L89.9752 43.5933C89.9752 43.5933 90.3204 43.2481 90.3204 42.7549C90.3204 42.7056 90.3204 42.6563 90.3204 42.607V33.7799C90.6162 33.8785 90.9121 34.0264 91.1587 34.1744C92.2436 34.7661 92.8354 35.5552 92.9833 36.3442C94.5613 39.8948 98.5064 38.6619 98.5557 38.6619L112.511 30.6238V21.7474L103.734 19.4789Z" fill="#36A9E1"/>
<path d="M75.8716 52.3219L75.5757 52.174L61.6692 44.1358C61.2254 43.9879 58.168 43.2975 56.8858 46.1084C56.4913 48.0809 54.0256 49.511 50.3764 49.9055C45.6423 49.6096 43.3739 47.7357 43.1273 45.9111H43.078V45.5166V36.1963L43.5711 36.0977L47.171 35.8018L38.7877 30.9691V30.6239V21.5009L39.1822 21.1557L39.4288 21.205L42.3876 21.4023L51.5106 19.8735H60.8802L60.9295 9.07385H61.5213H73.2579L75.3291 9.2711L75.8223 8.97521L76.4633 9.36973L94.2162 10.9971L103.29 4.5863L108.517 6.50953V6.90405L108.468 16.175C108.32 17.2106 107.58 18.1969 106.347 18.9366C106.002 19.1338 105.657 19.2818 105.262 19.4297L112.758 21.4023V21.8461V31.0184L112.512 31.2157L98.6545 39.1552C98.5065 39.2045 94.0683 40.5852 92.293 36.5908L92.2437 36.4429C92.1451 35.8018 91.6026 35.1607 90.715 34.6676V42.6071C90.715 42.6564 90.715 42.7057 90.715 42.8044C90.6656 43.4948 90.2711 43.9386 90.2218 43.9879L90.0739 44.0865L75.8716 52.3219ZM62.261 43.1496L75.8716 50.9904L89.4328 43.1496C89.4821 43.0509 89.5807 42.903 89.5807 42.7057V42.6564V42.5578V32.8923L90.3698 33.1882C90.6657 33.3361 91.0108 33.4348 91.3067 33.632C92.4409 34.3224 93.1806 35.1607 93.3779 36.147C94.66 38.9086 97.6682 38.2182 98.1613 38.1196L111.772 30.2787V22.1913L103.043 19.9228L103.389 18.69L103.734 18.6407C104.572 18.4434 105.312 18.1969 105.904 17.8517C106.988 17.2106 107.531 16.4216 107.432 15.5833L107.383 14.9422H107.482V7.19993L103.536 5.76983L94.6107 12.0327H94.4135L76.0195 10.3067L75.8223 10.2081L75.625 10.356L73.2579 10.1588H62.1131L62.0638 20.9584H61.472H51.6586L42.4369 22.4872L39.9713 22.3392V30.2787L48.5025 35.2101L49.0449 36.7881L44.2615 37.1826V45.0728V45.5166C44.2122 46.8974 46.1354 48.5247 50.3764 48.7713C54.0256 48.3275 55.6037 46.9467 55.8009 45.8125L55.8502 45.6646C57.231 42.5578 60.4364 42.5578 62.0145 43.0016H62.1624L62.261 43.1496Z" fill="#16110D"/>
<path d="M50.4751 40.2892V49.1657L52.9408 48.7712L55.6037 47.2424L56.4914 45.5165L57.8228 44.0864L59.8447 43.4453H60.8803V34.5688H59.6968L57.7735 35.2592L56.7379 36.1469L55.653 38.3167L53.6805 39.8454L50.4751 40.2892Z" fill="#16110D"/>
<path d="M75.8224 42.8042V51.6807L89.9754 43.248L90.3206 34.6182L88.6932 35.1606L75.8224 42.8042C75.8224 42.7549 75.8224 42.7549 75.8224 42.8042Z" fill="#16110D"/>
<path d="M86.8191 24.213V31.6594L83.4658 31.0676L80.3097 28.454L80.5563 25.791L83.9589 24.213H86.8191Z" fill="#16110D"/>
<path d="M96.4353 29.9827V38.8591L98.4078 38.6619L112.364 30.6238V21.7473L99.5421 29.3416L96.4353 29.9827Z" fill="#16110D"/>
<path d="M107.777 7.84082L107.925 16.2735L106.15 18.2953L98.3581 13.6598L98.0129 12.5256L99.4923 11.1448L103.339 10.3065L106.939 8.92573L107.777 7.84082Z" fill="#16110D"/>
<path d="M93.378 27.4678H92.2438V36.3442H93.378V27.4678Z" fill="#16110D"/>
<path d="M68.3758 12.1312H67.2416V19.4296H68.3758V12.1312Z" fill="#16110D"/>
<path d="M148.757 42.8043H141.36L135.689 44.1358L134.851 43.6427C134.851 43.6427 131.3 42.5578 129.574 45.418H120.895C120.895 45.418 120.895 45.418 120.895 45.3686L126.615 42.5578V39.7469C126.615 39.6976 126.615 39.5989 126.615 39.5496V30.6732H113.892L112.956 31.0184L112.364 30.6732L109.997 32.054L100.775 35.21L87.9042 27.7144H80.162V36.936C80.2113 37.8237 80.8031 38.7113 81.9866 39.3524C83.0715 39.9441 84.4029 40.3386 85.7837 40.388C86.77 40.5359 87.5097 40.7332 88.1015 40.9304L86.4741 42.5084L82.3318 41.7687L75.8224 42.8043V51.6808L89.7781 59.7189C89.7781 59.7189 93.7725 60.9517 95.3506 57.4012C95.4985 56.6121 96.0903 55.8231 97.1752 55.2314C97.4217 55.0834 97.7176 54.9355 98.0135 54.8368V63.664C97.9642 64.2558 98.3587 64.6996 98.3587 64.6996L112.314 72.7377L126.27 64.6996C126.27 64.6996 130.265 63.4667 131.843 67.0173C132.139 68.546 134.111 69.9762 137.859 70.42C142.445 70.1241 144.615 68.2995 144.467 66.4749V57.697L139.338 57.1546C139.338 57.1546 139.338 57.1546 139.338 57.1053L148.757 51.6808V42.8043C148.807 42.8043 148.757 42.8043 148.757 42.8043Z" fill="#36A9E1"/>
<path d="M112.265 73.4282L111.969 73.1816L97.9642 65.0449C97.9149 64.9955 97.3724 64.4038 97.471 63.5654V55.7246C96.5834 56.2177 96.0903 56.8588 95.9423 57.4999L95.893 57.6478C94.1177 61.5929 89.8274 60.3107 89.6302 60.2614L89.5316 60.2121L75.2799 51.9767V51.6315V42.262L75.773 42.1633L82.3317 41.1277H82.4797L86.3262 41.8181L87.0165 41.1277C86.622 41.0291 86.1782 40.9798 85.7344 40.8812C84.255 40.7826 82.8742 40.3881 81.74 39.747C80.4579 39.0073 79.7181 37.9717 79.6195 36.8375V26.9747H80.2113H88.1014L88.2494 27.024L100.923 34.4211L109.75 31.3143L112.364 29.7856L113.005 30.1801L113.892 29.8842H127.207V30.476V39.3525C127.207 39.4018 127.207 39.5004 127.207 39.599V42.7551L126.862 42.903L123.311 44.6783H129.278C131.103 42.0154 134.358 42.7551 134.949 42.903L135.245 43.0017L135.837 43.3469L141.409 42.0647H149.398V42.6565V51.8781L149.053 52.0754L141.163 56.6615L145.059 57.056V57.5985L145.009 66.9188C144.713 68.7434 142.494 70.568 137.859 70.8639C134.111 70.42 131.645 68.9899 131.251 67.0667C129.969 64.3051 126.961 64.9955 126.467 65.0942L112.265 73.4282ZM98.7532 64.2559L112.314 72.0967L126.073 64.1572C126.27 64.1079 130.56 62.8751 132.336 66.7708L132.385 66.9188C132.582 68.053 134.16 69.4338 137.908 69.8776C142.1 69.5817 143.974 67.9544 143.875 66.5243L143.826 65.9325H143.875V58.2396L138.845 57.6971L138.697 56.8588L148.215 51.385V43.3962H141.409L135.59 44.777L134.506 44.1852C133.914 44.0373 131.349 43.5441 130.018 45.7139L129.87 46.0098H129.525H120.402L120.155 45.1222L120.55 44.9249L125.974 42.262V31.265H113.892L112.758 31.6595L112.216 31.3637L110.095 32.6458H109.947L100.627 35.9005L100.381 35.7526L87.6576 28.3555H80.6551V37.0347C80.7044 37.7251 81.2469 38.4155 82.1838 38.958C83.1208 39.5004 84.3536 39.8456 85.7344 39.9442C86.7207 40.0922 87.5097 40.2894 88.2001 40.4867L89.0877 40.7825L86.622 43.1989H86.3755L82.2331 42.4592L76.3155 43.3962V51.4836L89.9261 59.3245C90.3699 59.4231 93.378 60.1628 94.7095 57.3519C94.9067 56.3657 95.6465 55.5273 96.7807 54.8369C97.0765 54.689 97.3724 54.5411 97.7176 54.3931L98.5066 54.0479V63.7134C98.556 63.9599 98.7039 64.1572 98.7532 64.2559Z" fill="#16110D"/>
<path d="M126.27 31.9553V39.6975L124.248 40.24L119.662 39.9441L116.949 38.3167L116.407 36.1469L117.788 34.421L120.944 33.2374L124.494 32.695L126.27 31.1663V31.9553Z" fill="#16110D"/>
<path d="M99.9365 45.2699L99.1475 45.6644L96.7805 46.5027L95.2025 47.5383L94.2655 49.4616L93.6244 50.5958L91.6519 51.4834L89.8766 51.3355V60.2119L92.9833 59.6202L95.1038 57.8942L96.8791 55.3299L97.5202 54.4915L99.9365 53.308V45.2699Z" fill="#16110D"/>
<path d="M112.314 63.5161V72.3926L124.149 65.538L126.615 64.2558V55.3794L112.314 63.5161Z" fill="#16110D"/>
<path d="M86.5724 31.4128H85.4382V37.2812H86.5724V31.4128Z" fill="#16110D"/>
<path d="M75.8222 42.8043H68.4251L62.7541 44.1358L61.9157 43.6427C61.9157 43.6427 58.3652 42.5578 56.6392 45.418H47.96C47.96 45.418 47.96 45.418 47.96 45.3686L53.6804 42.5578V39.7469C53.6804 39.6976 53.6804 39.5989 53.6804 39.5496V30.6732H40.9575L40.0205 31.0184L39.4287 30.6732L37.0617 32.054L27.9386 35.2593L14.9692 27.7144H7.22692V36.936C7.27624 37.8237 7.868 38.7113 9.05153 39.3524C10.1364 39.9441 11.4679 40.3386 12.8487 40.388C13.835 40.5359 14.5747 40.7332 15.1664 40.9304L13.5391 42.5084L9.39673 41.7687L2.88733 42.8043V51.6808L16.8431 59.7189C16.8431 59.7189 20.8375 60.9517 22.4155 57.4012C22.5635 56.6121 23.1552 55.8231 24.2401 55.2314C24.4867 55.0834 24.7826 54.9355 25.0785 54.8368V63.664C25.0291 64.2558 25.4237 64.6996 25.4237 64.6996L39.3794 72.7377L53.3352 64.6996C53.3352 64.6996 57.3296 63.4667 58.9076 67.0173C59.2035 68.546 61.176 69.9762 64.9239 70.42C69.51 70.1241 71.6798 68.2995 71.5319 66.4749V57.697L66.4033 57.1546C66.4033 57.1546 66.4033 57.1546 66.4033 57.1053L75.8222 51.6808V42.8043C75.8715 42.8043 75.8715 42.8043 75.8222 42.8043Z" fill="#36A9E1"/>
<path d="M39.3301 73.4281L39.0342 73.1815L25.0291 65.0447C24.9798 64.9954 24.4373 64.4037 24.536 63.5653V55.7244C23.6483 56.2176 23.1552 56.8587 23.0072 57.4998L22.9579 57.6477C21.1826 61.5928 16.8924 60.3106 16.6951 60.2613L16.5965 60.212L2.34485 51.9766V51.6314V42.2618L2.83798 42.1632L9.39669 41.1276H9.54463L13.3911 41.818L14.0815 41.1276C13.687 41.029 13.2431 40.9797 12.7993 40.8811C11.3199 40.7824 9.93913 40.3879 8.80492 39.7469C7.52277 39.0071 6.78307 37.9715 6.68444 36.8373V26.9746H7.27621H15.1664L15.3143 27.0239L27.9879 34.421L36.8151 31.3142L39.4287 29.7855L40.0698 30.18L40.9574 29.8841H54.2721V30.4759V39.3523C54.2721 39.4016 54.2721 39.5003 54.2721 39.5989V42.755L53.9269 42.9029L50.3763 44.6782H56.3433C58.1679 42.0153 61.4226 42.755 62.0143 42.9029L62.3102 43.0015L62.902 43.3467L68.4744 42.0646H76.4632V42.6564V51.878L76.118 52.0753L68.2278 56.6614L72.1236 57.0559V57.5984L72.0743 66.9186C71.7784 68.7433 69.5593 70.5679 64.9238 70.8637C61.176 70.4199 58.7103 68.9898 58.3158 67.0666C57.0337 64.305 54.0255 64.9954 53.5324 65.094L39.3301 73.4281ZM25.8181 64.2557L39.3794 72.0966L53.1379 64.1571C53.3351 64.1078 57.6254 62.8749 59.4007 66.7707L59.45 66.9186C59.6473 68.0529 61.2253 69.4336 64.9731 69.8775C69.1648 69.5816 71.0387 67.9542 70.9401 66.5241L70.8908 65.9324H70.9401V58.2395L65.9101 57.697L65.7621 56.8587L75.2797 51.3849V43.3961H68.4744L62.6554 44.7768L61.5705 44.1851C60.9787 44.0371 58.4144 43.544 57.083 45.7138L56.935 46.0097H56.5898H47.5161L47.2695 45.122L47.664 44.9248L53.0885 42.2618V31.2649H41.0067L39.8725 31.6594L39.3301 31.3635L37.2096 32.6457H37.0616L27.7414 35.9004L27.4948 35.7524L14.7719 28.3554H7.76935V37.0346C7.81866 37.725 8.3611 38.4154 9.29806 38.9578C10.235 39.5003 11.4679 39.8455 12.8486 39.9441C13.8349 40.092 14.6239 40.2893 15.3143 40.4866L16.202 40.7824L13.7363 43.1988H13.4897L9.34736 42.4591L3.42972 43.3961V51.4835L17.0403 59.3244C17.4841 59.423 20.4923 60.1627 21.8237 57.3518C22.021 56.3655 22.7607 55.5272 23.8949 54.8368C24.1908 54.6889 24.4867 54.5409 24.8318 54.393L25.6209 54.0478V63.7133C25.6209 63.9598 25.7688 64.1571 25.8181 64.2557Z" fill="#16110D"/>
<path d="M53.3845 31.9554V39.6976L51.3626 40.2401L46.7764 39.9442L44.0642 38.3169L43.5217 36.1471L44.9025 34.4211L48.0586 33.2376L51.6091 32.6951L53.3845 31.1664V31.9554Z" fill="#16110D"/>
<path d="M27.0513 45.27L26.213 45.6645L23.8459 46.5029L22.2679 47.5384L21.3309 49.4617L20.6898 50.5959L18.7666 51.4835L16.942 51.3356V60.2121L20.0981 59.6203L22.1692 57.8943L23.9446 55.33L24.5856 54.4917L27.0513 53.3082V45.27Z" fill="#16110D"/>
<path d="M39.38 63.5159V72.3923L51.2153 65.5377L53.681 64.2556V55.3792L39.38 63.5159Z" fill="#16110D"/>
<path d="M63.1486 61.4943V70.3707L67.9813 70.2228L71.3839 67.8064L71.5812 65.7353V59.5217L68.9676 61.297L66.0087 61.9381L63.1486 61.4943C63.1486 61.445 63.1486 61.445 63.1486 61.4943Z" fill="#16110D"/>
<path d="M62.6556 52.8151L66.8966 53.8507L69.7074 54.7877L75.8716 51.385V42.5085L64.6281 49.0179L62.2118 50.4481L61.62 51.4343L61.9652 52.322L62.6556 52.8151Z" fill="#16110D"/>
<path d="M59.5982 58.5847H58.464V67.6091H59.5982V58.5847Z" fill="#16110D"/>
<path d="M13.6379 31.4128H12.5037V37.2812H13.6379V31.4128Z" fill="#16110D"/>
<path d="M103.734 61.642L103.832 61.2968C104.671 61.0996 105.509 60.853 106.199 60.4585C107.531 59.6695 108.123 58.6339 108.024 57.6476V48.9684L103.438 47.2917L94.4627 53.6532L76.3646 52.0258L75.8715 51.73L75.5263 51.9272L73.3072 51.73H64.4307H61.5705L61.5212 62.5297H51.7078L42.5355 64.0584L39.478 63.8611V72.7376L48.1079 77.7183L48.3545 78.4086L43.8176 78.7538V87.581C43.7683 89.3563 45.9874 91.1809 50.475 91.4274C54.2228 90.9836 56.1953 89.5535 56.4912 88.0248C58.0693 84.4742 62.0143 85.7071 62.0637 85.7071L76.0194 93.7452L89.9752 85.7071C89.9752 85.7071 90.3204 85.3619 90.3204 84.8687C90.3204 84.8194 90.3204 84.7701 90.3204 84.7208V75.8937C90.6162 75.9923 90.9121 76.1402 91.1587 76.2882C92.2436 76.8799 92.8354 77.6689 92.9833 78.458C94.5613 82.0085 98.5064 80.7757 98.5557 80.7757L112.511 72.7376V63.8611L103.734 61.642Z" fill="#36A9E1"/>
<path d="M75.8716 94.485L75.5757 94.3371L61.6692 86.2989C61.1761 86.151 58.168 85.4606 56.8858 88.2715C56.4913 90.244 54.0256 91.6741 50.3764 92.0686C45.7409 91.7727 43.5218 89.9974 43.1273 88.2221H43.078V78.3101L43.5711 78.2115L47.171 77.9156L38.7877 73.0829V72.7377V63.6146L39.1822 63.2695L39.4288 63.3188L42.3876 63.516L51.5106 61.9873H60.8802L60.9295 51.1876H61.5213H73.2579L75.3291 51.3849L75.8223 51.089L76.4633 51.4835L94.2162 53.1108L103.241 46.7001L103.487 46.7494L108.517 48.574V48.9685L108.468 58.2395C108.32 59.2751 107.58 60.2613 106.347 61.001C106.002 61.1983 105.657 61.3462 105.262 61.4942L112.758 63.4667V63.9105V73.0336L112.462 73.3294L98.5065 81.3675C98.3586 81.4169 93.9203 82.7977 92.1451 78.8033L92.0958 78.6553C91.9971 78.0142 91.4547 77.3732 90.567 76.88V84.8195C90.567 84.8688 90.567 84.9181 90.567 85.0168C90.5177 85.7072 90.1232 86.151 90.0739 86.2003L89.9259 86.2989L75.8716 94.485ZM62.261 85.3126L75.8716 93.1535L89.4328 85.3126C89.4821 85.214 89.5807 85.0661 89.5807 84.8688V84.8195V84.7209V75.0554L90.3698 75.3513C90.6657 75.4992 91.0108 75.5979 91.3067 75.7951C92.4409 76.4855 93.1806 77.3239 93.3779 78.3101C94.66 81.0717 97.6682 80.3813 98.1613 80.2827L111.772 72.4418V64.305L103.043 62.0366L103.389 60.8038L103.734 60.7545C104.572 60.5572 105.312 60.3106 105.904 59.9654C106.988 59.3244 107.531 58.5353 107.432 57.697L107.383 57.0559H107.482V49.3137L103.536 47.8836L94.66 54.1957H94.4628L76.0688 52.4698L75.8716 52.3711L75.6743 52.5191L73.3073 52.3218H62.1624L62.1131 63.1215H61.5213H51.7079L42.4862 64.6502L40.0206 64.5023V72.4418L48.5518 77.3732L49.0943 78.9512L44.3109 79.3457V87.0386V87.6304C44.2615 89.0112 46.1848 90.6385 50.4258 90.8851C54.075 90.4413 55.653 89.0605 55.8502 87.9263L55.8995 87.7783C57.2803 84.6716 60.4857 84.6716 62.0638 85.1154H62.2117L62.261 85.3126Z" fill="#16110D"/>
<path d="M101.367 45.1221C97.6195 45.5659 95.647 46.996 95.3511 48.5247C93.7731 52.0753 89.828 50.8425 89.7787 50.8425L75.8229 42.8043L61.8671 50.8425C61.8671 50.8425 59.7467 53.1109 65.8616 54.0478C68.5738 54.1958 71.0395 55.3793 71.7792 57.4998C71.0395 61.3956 64.2342 62.3325 60.6836 60.2613C59.5987 59.6696 59.007 58.8806 58.859 58.0916C57.281 54.541 53.3359 55.7738 53.2866 55.7738L39.3801 63.8119C39.3801 63.8119 39.3801 63.8119 39.3801 63.8612L53.2866 71.8994C53.2866 71.8994 55.407 74.1678 49.2922 75.1048C46.5799 75.2527 44.1142 76.4362 43.3745 78.5567C44.1142 82.4525 50.9195 83.3894 54.4701 81.3183C55.555 80.7265 56.1468 79.9375 56.2947 79.1485C57.8727 75.5979 61.8178 76.8307 61.8671 76.8307L75.8229 84.8689L89.7787 76.8307C89.7787 76.8307 91.8991 74.5623 85.7842 73.6254C83.072 73.4774 80.6063 72.2939 79.8666 70.1734C80.6063 66.2776 87.4116 65.3406 90.9622 67.4118C92.0471 68.0036 92.6388 68.7926 92.7868 69.5816C94.3648 73.1322 98.3099 71.8994 98.3592 71.8994L112.266 63.8612C112.266 63.8612 112.266 63.8612 112.266 63.8119L98.3592 55.7738C98.3592 55.7738 96.2387 53.5054 102.354 52.5684C103.734 52.4698 105.066 52.1246 106.151 51.5328C109.751 49.511 108.123 45.5659 101.367 45.1221Z" fill="white"/>
<path d="M75.8717 85.5593L75.5758 85.4114L61.6694 77.3732C61.1762 77.2253 58.1681 76.5349 56.8859 79.3458C56.6887 80.3321 55.949 81.1704 54.8148 81.8608C52.3984 83.2909 48.5026 83.3895 45.8397 82.1567C44.163 81.3677 43.1274 80.1841 42.8315 78.7047L42.7822 78.5075L42.8809 78.3102C43.6206 76.1404 46.0369 74.7103 49.2916 74.5131C52.3491 74.0692 52.9408 73.2802 53.0888 72.9843C53.1874 72.7378 53.0395 72.4419 52.9408 72.3433L38.8372 64.2065V63.5161L39.133 63.3189L53.1874 55.2314C53.3847 55.1821 57.675 53.9 59.4502 57.8451L59.4995 57.993C59.6475 58.6341 60.1406 59.2751 61.0283 59.7683C63.1488 61.0011 66.6007 61.0997 68.9678 60.0148C69.8554 59.6203 70.9403 58.8313 71.2855 57.5492C70.4472 55.5766 67.9815 54.7383 65.9103 54.5904C63.0501 54.1465 61.5214 53.4068 61.1269 52.2726C60.831 51.4836 61.2748 50.7439 61.5707 50.3987L61.7187 50.3001L75.921 42.114L76.2169 42.2619L90.1233 50.3001C90.5671 50.448 93.6246 51.1384 94.9067 48.3275C95.3012 46.355 97.7669 44.9249 101.416 44.5304H101.465C106.15 44.8263 108.221 46.6509 108.616 48.2782C108.961 49.659 108.172 51.0398 106.545 52.026C105.411 52.6671 104.03 53.0616 102.501 53.1603C99.4436 53.6041 98.8518 54.3931 98.7039 54.689C98.6052 54.9356 98.7532 55.2314 98.8518 55.3301L112.956 63.4668V64.1572L112.66 64.3544L98.7039 72.3926C98.5559 72.4419 94.1177 73.8227 92.3424 69.8283L92.2931 69.6803C92.1452 69.0393 91.652 68.3982 90.7644 67.905C88.6439 66.6722 85.1919 66.5736 82.8249 67.6585C81.9372 68.053 80.8524 68.842 80.5072 70.1241C81.2962 72.0967 83.7618 72.935 85.8823 73.083C88.7425 73.5268 90.2713 74.2665 90.6658 75.4007C90.9616 76.1897 90.5178 76.9294 90.2219 77.2746L90.074 77.3732L75.8717 85.5593ZM62.2611 76.387L75.8717 84.2279L89.4329 76.387C89.5315 76.2883 89.6795 75.9925 89.5809 75.7459C89.4822 75.45 88.8905 74.661 85.7344 74.2172C82.529 74.0199 80.1126 72.5898 79.3729 70.3707L79.3236 70.0255L79.3729 69.9762C79.6688 68.5461 80.7044 67.4119 82.3317 66.6229C84.9947 65.39 88.8905 65.538 91.3068 66.9188C92.441 67.6091 93.1808 68.4475 93.378 69.4338C94.6602 72.1953 97.6683 71.5049 98.1614 71.4063L111.18 63.9106L97.9642 56.267C97.6683 55.9711 97.2738 55.2314 97.5204 54.3931C97.9149 53.2589 99.4929 52.5192 102.254 52.0754C103.685 51.9767 104.868 51.6315 105.854 51.0891C107.038 50.3987 107.58 49.5111 107.383 48.6234C107.087 47.4399 105.361 46.0098 101.367 45.7632C97.6683 46.207 96.0902 47.5878 95.893 48.722L95.8437 48.87C94.4629 51.9767 91.2575 51.9767 89.6795 51.5329H89.5316L89.4329 51.4343L75.8224 43.5934L62.2611 51.4343C62.1625 51.5329 62.0145 51.8288 62.1132 52.0754C62.2118 52.3713 62.8036 53.1603 65.9596 53.6041C69.165 53.8013 71.5814 55.2314 72.3211 57.4505L72.4197 57.6971L72.3704 57.8451C72.0745 59.2752 71.039 60.4587 69.4116 61.1984C66.7487 62.4312 62.8529 62.2833 60.4365 60.9025C59.3023 60.2121 58.5626 59.3738 58.3653 58.3875C57.0832 55.6259 54.075 56.3163 53.5819 56.415L40.5631 63.9106L53.7792 71.5542C54.0751 71.8501 54.4696 72.5898 54.223 73.4282C53.8285 74.5624 52.2505 75.3021 49.4889 75.7459C47.3191 75.8938 44.8534 76.7322 44.0644 78.7047C44.3603 79.9376 45.4945 80.7266 46.3821 81.1704C48.6999 82.2553 52.2011 82.1074 54.3216 80.9238C55.2093 80.4307 55.7517 79.7896 55.8504 79.1485L55.8997 79.0006C57.2804 75.8938 60.4858 75.8939 62.0639 76.3377H62.2118L62.2611 76.387Z" fill="#16110D"/>
<path d="M50.4751 82.4525V91.329L52.9408 90.9345L55.6037 89.4058L56.4914 87.6798L57.8228 86.2497L59.8447 85.6086H60.8803V76.7322H59.6968L57.7735 77.4226L56.7379 78.3102L55.653 80.48L53.6805 82.0087L50.4751 82.4525Z" fill="#16110D"/>
<path d="M75.8224 84.9182V93.7947L89.9754 85.3621L90.3206 76.7322L88.6932 77.2746L75.8224 84.9182Z" fill="#16110D"/>
<path d="M86.8191 66.3763V73.8227L83.4658 73.2309L80.3097 70.6173L80.5563 67.9544L83.9589 66.3763H86.8191Z" fill="#16110D"/>
<path d="M96.4353 72.0967V80.9732L98.4078 80.7759L112.364 72.7378V63.8613L99.5421 71.4556L96.4353 72.0967Z" fill="#16110D"/>
<path d="M107.777 50.0042L107.925 58.4368L106.15 60.4586L98.3581 55.8232L98.0129 54.6889L99.4923 53.3082L103.339 52.4698L106.939 51.0891L107.777 50.0042Z" fill="#16110D"/>
<path d="M93.378 69.6307H92.2438V78.5072H93.378V69.6307Z" fill="#16110D"/>
<path d="M68.3759 54.2451H67.2417V61.5436H68.3759V54.2451Z" fill="#16110D"/>
<path d="M61.9159 50.8425L75.8223 42.8043C75.8223 42.8043 75.8223 42.8043 75.8223 42.755L61.9159 34.7169C61.9159 34.7169 57.9215 33.4841 56.3434 37.0347C56.0476 38.6127 54.075 39.9935 50.3272 40.4373C43.5712 39.9935 41.9439 36.0977 45.5437 34.0265C46.6286 33.4348 47.9601 33.0402 49.3409 32.9909C55.4558 32.054 53.3353 29.7856 53.3353 29.7856L39.3795 21.7474L25.4238 29.7856C25.4238 29.7856 21.4294 31.0184 19.8514 27.4678C19.5555 25.8898 17.5829 24.509 13.8351 24.0652C7.07913 24.509 5.45177 28.4048 9.05167 30.4759C10.1366 31.0677 11.468 31.4622 12.8488 31.5115C18.9637 32.4485 16.8432 34.7169 16.8432 34.7169L2.93677 42.755C2.93677 42.755 2.93677 42.755 2.93677 42.8043L16.8432 50.8425C16.8432 50.8425 20.8376 52.0753 22.4156 48.5247C22.7115 46.9467 24.6841 45.5659 28.4319 45.1221C35.1879 45.5659 36.8152 49.4617 33.2153 51.5328C32.1304 52.1246 30.799 52.5191 29.4182 52.5685C23.3033 53.5054 25.4238 55.7738 25.4238 55.7738L39.3795 63.812L53.3353 55.7738C53.3353 55.7738 57.3297 54.541 58.9077 58.0916C59.2036 59.6696 61.1762 61.0504 64.924 61.4942C71.68 61.0504 73.3073 57.1546 69.7074 55.0834C68.6225 54.4917 67.291 54.0972 65.9103 54.0479C59.7461 53.1602 61.9159 50.8425 61.9159 50.8425Z" fill="white"/>
<path d="M39.3301 64.5516L39.0342 64.3051L25.0291 56.1683C24.7332 55.8724 24.3387 55.1327 24.5853 54.2944C24.9798 53.1602 26.5578 52.4205 29.3194 51.9767C30.7495 51.878 31.933 51.5328 32.9193 50.9904C34.1028 50.3 34.6453 49.4123 34.448 48.5247C34.1521 47.3412 32.4262 45.9111 28.3824 45.6645C24.7332 46.1083 23.1552 47.4891 22.9579 48.6233L22.9086 48.7713C21.1333 52.7164 16.8431 51.4342 16.6458 51.3849L16.5472 51.3356L2.34485 43.1495V42.4591L2.64072 42.2619L16.4978 34.2731C16.5965 34.1744 16.7444 33.8785 16.6458 33.632C16.5472 33.3361 15.9554 32.5471 12.7993 32.1033C11.3199 32.0046 9.93913 31.6101 8.80492 30.969C7.17757 30.0321 6.38855 28.6513 6.73374 27.2212C7.12825 25.5939 9.19944 23.72 13.8349 23.4734H14.0815L14.1308 23.5227C17.6814 23.9665 20.0484 25.3966 20.4429 27.3198C21.7251 30.0814 24.7332 29.391 25.2264 29.2924L39.3794 21.1063L39.6752 21.2543L53.7789 29.4403C54.0748 29.7362 54.4693 30.4759 54.2228 31.3142C53.8282 32.4485 52.2502 33.2375 49.4887 33.632C48.0586 33.7306 46.875 34.0758 45.8888 34.6183C44.7052 35.3086 44.1628 36.1963 44.36 37.0839C44.6559 38.2675 46.3819 39.6976 50.4256 39.9441C54.0748 39.5003 55.6529 38.1195 55.8501 36.9853L55.8994 36.8374C57.2802 33.7306 60.4856 33.7306 62.0636 34.1744L62.3102 34.2731L76.4632 42.4591V43.1495L76.1673 43.3468L62.3595 51.3356C62.2609 51.4342 62.1129 51.7301 62.2116 51.9767C62.3102 52.2725 62.902 53.0615 66.058 53.5054C67.5374 53.604 68.9182 53.9985 70.0524 54.6396C71.6798 55.5766 72.4688 56.9573 72.1236 58.3874C71.7291 60.0148 69.6579 61.8887 65.0224 62.1352C61.2253 61.6914 58.8089 60.2614 58.4144 58.3381C57.1323 55.5766 54.1241 56.2669 53.631 56.3656L39.3301 64.5516ZM25.8181 55.3793L39.3794 63.2201L53.0885 55.2807H53.2365C54.8145 54.8368 58.0199 54.7875 59.4007 57.9436L59.45 58.0916C59.6473 59.2258 61.2253 60.6065 64.9731 61.0504C68.9182 60.8038 70.6442 59.3244 70.9401 58.1902C71.1373 57.3025 70.5949 56.4149 69.4114 55.7245C68.4744 55.182 67.2416 54.8368 65.8608 54.7382C63.0006 54.2944 61.4719 53.5547 61.0774 52.4205C60.7815 51.6315 61.2253 50.8917 61.5212 50.5465L61.6691 50.4479L74.7372 42.9029L61.6691 35.358C61.028 35.21 58.2172 34.6676 56.9843 37.3305C56.5898 39.303 54.1241 40.7331 50.4749 41.1277C45.6915 40.8318 43.6697 39.0072 43.2752 37.3798C42.93 35.999 43.719 34.6183 45.3463 33.632C46.4805 32.9909 47.8613 32.5964 49.39 32.4978C52.4475 32.054 53.0392 31.2649 53.1872 30.969C53.2858 30.7225 53.1379 30.4266 53.0392 30.328L39.3794 22.3885L25.7195 30.2787C25.5715 30.328 21.1333 31.7087 19.358 27.7143L19.3087 27.5664C19.1115 26.4322 17.5334 25.0514 13.8349 24.6076C9.84051 24.8542 8.11453 26.3336 7.81865 27.4678C7.62139 28.3554 8.16383 29.2431 9.34736 29.9335C10.2843 30.4759 11.5172 30.8211 12.8979 30.9197C15.7581 31.3636 17.2869 32.1033 17.6814 33.2375C17.9773 34.0265 17.5334 34.7662 17.2375 35.1114L17.0896 35.21L4.02149 42.755L17.0403 50.2507C17.4841 50.3493 20.4923 51.089 21.8237 48.2781C22.2182 46.3056 24.6839 44.8755 28.3331 44.481C33.1165 44.7769 35.1384 46.6015 35.5329 48.2288C35.8781 49.6096 35.0891 50.9904 33.4617 51.9274C32.3275 52.5684 30.9467 52.9629 29.418 53.0616C26.3606 53.5054 25.7688 54.2944 25.6209 54.5903C25.5715 54.9848 25.7195 55.2314 25.8181 55.3793Z" fill="#16110D"/>
<path d="M101.367 3.00818C97.6192 3.452 95.6466 4.88209 95.3507 6.41081C93.7727 9.96139 89.8276 8.72854 89.7783 8.72854L75.8719 0.69043L61.9161 8.72854C61.9161 8.72854 59.7956 10.997 65.9105 11.9339C68.6227 12.0819 71.0884 13.2654 71.8281 15.3859C71.0884 19.2817 64.2831 20.2186 60.7326 18.1474C59.6477 17.5557 59.0559 16.7667 58.908 15.9777C57.3299 12.4271 53.3848 13.6599 53.3355 13.6599L39.4291 21.698C39.4291 21.698 39.4291 21.698 39.4291 21.7474L53.3355 29.7855C53.3355 29.7855 55.456 32.0539 49.3411 32.9909C46.6289 33.1388 44.1632 34.3223 43.4235 36.4428C44.1632 40.3386 50.9685 41.2755 54.5191 39.2044C55.604 38.6126 56.1957 37.8236 56.3437 37.0346C57.9217 33.484 61.8668 34.7168 61.9161 34.7168L75.8719 42.7549L89.8276 34.7168C89.8276 34.7168 91.9481 32.4484 85.8332 31.5114C83.121 31.3635 80.6553 30.18 79.9156 28.0595C80.6553 24.1637 87.4606 23.2268 91.0111 25.2979C92.096 25.8897 92.6878 26.6787 92.8357 27.4677C94.4138 31.0183 98.3589 29.7855 98.4082 29.7855L112.315 21.7474C112.315 21.7474 112.315 21.7473 112.315 21.698L98.4082 13.6599C98.4082 13.6599 96.2877 11.3915 102.403 10.4545C103.783 10.3559 105.115 10.0107 106.2 9.41895C109.75 7.34777 108.123 3.40268 101.367 3.00818Z" fill="white"/>
<path d="M75.8716 43.4453L75.5757 43.2974L61.6692 35.2592C61.1761 35.1113 58.168 34.4209 56.8858 37.2318C56.6886 38.2181 55.9488 39.0564 54.8146 39.7468C52.3983 41.1769 48.5025 41.2755 45.8395 40.0426C44.1629 39.2536 43.1273 38.0701 42.8314 36.5907L42.7821 36.3934L42.8807 36.1962C43.6204 34.0264 46.0368 32.5963 49.2915 32.399C52.3489 31.9552 52.9407 31.1662 53.0887 30.8703C53.1873 30.6238 53.0393 30.3279 52.9407 30.2292L38.837 22.0925V21.4021L39.1329 21.2049L53.1873 13.1174C53.3845 13.0681 57.6748 11.786 59.4501 15.731L59.4994 15.879C59.6474 16.5201 60.1405 17.1611 61.0282 17.6543C63.1487 18.8871 66.6006 18.9857 68.9676 17.9008C69.8553 17.5063 70.9402 16.7173 71.2854 15.4352C70.4471 13.4626 67.9814 12.6243 65.9102 12.4763C63.05 12.0325 61.5213 11.2928 61.1268 10.1586C60.8309 9.36959 61.2747 8.62988 61.5706 8.28468L61.7185 8.18606L75.9209 0L76.2168 0.147935L90.1232 8.18606C90.567 8.334 93.6244 9.02439 94.9066 6.21352C95.3011 4.24097 97.7668 2.81087 101.416 2.41636H101.465C106.15 2.71225 108.221 4.53685 108.616 6.1642C108.961 7.54498 108.172 8.92577 106.545 9.86272C105.41 10.5038 104.03 10.8983 102.501 10.9969C99.4435 11.4408 98.8517 12.2298 98.7038 12.5257C98.6051 12.7722 98.7531 13.0681 98.8517 13.1667L112.955 21.3035V21.9939L112.66 22.1911L98.6544 30.2786C98.5065 30.3279 94.0683 31.7086 92.293 27.7142L92.2437 27.5663C92.0957 26.9252 91.6026 26.2842 90.7149 25.791C88.5945 24.5582 85.1425 24.4595 82.7755 25.5444C81.8878 25.939 80.8029 26.728 80.4577 28.0101C81.2467 29.9827 83.7124 30.821 85.8329 30.9689C88.6931 31.4128 90.2218 32.1525 90.6163 33.2867C90.9122 34.0757 90.4684 34.8154 90.1725 35.1606L90.0246 35.2592L75.8716 43.4453ZM62.261 34.273L75.8716 42.1138L89.4328 34.273C89.5314 34.1743 89.6794 33.8784 89.5807 33.6319C89.4821 33.336 88.8903 32.547 85.7343 32.1032C82.5289 31.9059 80.1125 30.4758 79.3728 28.2567L79.3235 27.9115L79.3728 27.8622C79.6687 26.4321 80.7043 25.2979 82.3316 24.5089C84.9946 23.276 88.8903 23.424 91.3067 24.8047C92.4409 25.4951 93.1806 26.3335 93.3779 27.3197C94.66 30.0813 97.6682 29.3909 98.1613 29.2923L111.18 21.7966L97.964 14.153C97.6682 13.8571 97.2737 13.1174 97.5202 12.2791C97.9148 11.1449 99.4928 10.4052 102.254 9.96134C103.684 9.86271 104.868 9.51752 105.854 8.97507C107.038 8.28468 107.58 7.39703 107.383 6.50939C107.087 5.32586 105.361 3.89577 101.367 3.6492C97.6682 4.09303 96.0901 5.47381 95.8929 6.60802L95.8436 6.75596C94.4628 9.86271 91.2574 9.86273 89.6794 9.4189H89.5314L89.4328 9.32027L75.8223 1.47941L62.261 9.32027C62.1624 9.4189 62.0144 9.71477 62.113 9.96134C62.2117 10.2572 62.8035 11.0462 65.9595 11.4901C69.1649 11.6873 71.5813 13.1174 72.321 15.3365L72.4196 15.5831L72.3703 15.731C72.0744 17.1611 71.0388 18.3447 69.4115 19.0844C66.7485 20.3172 62.8528 20.1693 60.4364 18.7885C59.3022 18.0981 58.5625 17.2598 58.3652 16.2735C57.0831 13.5119 54.0749 14.2023 53.5818 14.301L40.563 21.7966L53.7791 29.4402C54.0749 29.7361 54.4694 30.4758 54.2229 31.3141C53.8284 32.4484 52.2503 33.1881 49.4888 33.6319C47.319 33.7798 44.8533 34.6182 44.0643 36.5907C44.3601 37.8235 45.4944 38.6126 46.382 39.0564C48.6998 40.1413 52.201 39.9933 54.3215 38.8098C55.2091 38.3167 55.7516 37.6756 55.8502 37.0345L55.8995 36.8866C57.2803 33.7798 60.4857 33.7798 62.0637 34.2236H62.2117L62.261 34.273Z" fill="#16110D"/>
<path d="M134.851 50.8425L148.757 42.8043C148.757 42.8043 148.757 42.8043 148.757 42.755L134.851 34.7169C134.851 34.7169 130.856 33.4841 129.278 37.0347C128.982 38.6127 127.01 39.9935 123.262 40.4373C116.506 39.9935 114.879 36.0977 118.478 34.0265C119.563 33.4348 120.895 33.0402 122.276 32.9909C128.39 32.054 126.27 29.7856 126.27 29.7856L112.314 21.7474L98.3585 29.7856C98.3585 29.7856 94.3641 31.0184 92.786 27.4678C92.4901 25.8898 90.5176 24.509 86.7698 24.0652C80.0138 24.509 78.3865 28.4048 81.9864 30.4759C83.0713 31.0677 84.4027 31.4622 85.7835 31.5115C91.8984 32.4485 89.7779 34.7169 89.7779 34.7169L75.8715 42.755C75.8715 42.755 75.8715 42.755 75.8715 42.8043L89.7779 50.8425C89.7779 50.8425 93.7723 52.0753 95.3503 48.5247C95.6462 46.9467 97.6188 45.5659 101.367 45.1221C108.123 45.5659 109.75 49.4617 106.15 51.5328C105.065 52.1246 103.734 52.5191 102.353 52.5685C96.238 53.5054 98.3585 55.7738 98.3585 55.7738L112.314 63.812L126.27 55.7738C126.27 55.7738 130.264 54.541 131.842 58.0916C132.138 59.6696 134.111 61.0504 137.859 61.4942C144.615 61.0504 146.242 57.1546 142.642 55.0834C141.557 54.4917 140.226 54.0972 138.845 54.0479C132.681 53.1602 134.851 50.8425 134.851 50.8425Z" fill="white"/>
<path d="M112.265 64.5516L111.969 64.3051L97.9642 56.1683C97.6683 55.8724 97.2738 55.1327 97.5204 54.2944C97.9149 53.1602 99.4929 52.4205 102.254 51.9767C103.685 51.878 104.868 51.5328 105.854 50.9904C107.038 50.3 107.58 49.4123 107.383 48.5247C107.087 47.3412 105.361 45.9111 101.317 45.6645C97.6683 46.1083 96.0902 47.4891 95.893 48.6233L95.8437 48.7713C94.0684 52.7164 89.7781 51.4342 89.5809 51.3849L89.4822 51.3356L75.2799 43.1495V42.4591L75.5758 42.2619L89.3836 34.2731C89.4822 34.1744 89.6302 33.8785 89.5316 33.632C89.4329 33.3361 88.8412 32.5471 85.6851 32.1033C84.2057 32.0046 82.8249 31.6101 81.6907 30.969C80.0633 30.0321 79.2743 28.6513 79.6195 27.2212C80.014 25.5939 82.0852 23.72 86.7207 23.4734H86.9672L87.0165 23.5227C90.5671 23.9665 92.9342 25.3966 93.3287 27.3198C94.6109 30.0814 97.619 29.391 98.1121 29.2924L112.265 21.1063L112.561 21.2543L126.665 29.4403C126.961 29.7362 127.355 30.4759 127.109 31.3142C126.714 32.4485 125.136 33.2375 122.374 33.632C120.994 33.7306 119.761 34.0758 118.775 34.6183C117.591 35.3086 117.049 36.1963 117.246 37.0839C117.542 38.2675 119.268 39.6976 123.311 39.9441C126.961 39.5003 128.539 38.1195 128.736 36.9853L128.785 36.8374C130.166 33.7306 133.371 33.7306 134.949 34.1744L135.196 34.2731L149.349 42.4591V43.1495L149.053 43.3468L135.245 51.3356C135.147 51.4342 134.999 51.7301 135.097 51.9767C135.196 52.2725 135.788 53.0615 138.944 53.5054C140.423 53.604 141.804 53.9985 142.938 54.6396C144.566 55.5766 145.355 56.9573 145.009 58.3874C144.615 60.0148 142.544 61.8887 137.908 62.1352C134.111 61.6914 131.695 60.2614 131.3 58.3381C130.018 55.5766 127.01 56.2669 126.517 56.3656L112.265 64.5516ZM98.7532 55.3793L112.314 63.2201L126.024 55.2807H126.172C127.75 54.8368 130.955 54.7875 132.336 57.9436L132.385 58.0916C132.582 59.2258 134.16 60.6065 137.908 61.0504C141.853 60.8038 143.579 59.3244 143.875 58.1902C144.072 57.3025 143.53 56.4149 142.346 55.7245C141.409 55.182 140.177 54.8368 138.796 54.7382C135.936 54.2944 134.407 53.5547 134.012 52.4205C133.717 51.6315 134.16 50.8917 134.456 50.5465L134.604 50.4479L147.672 42.9029L134.604 35.358C133.963 35.21 131.152 34.6676 129.919 37.3305C129.525 39.303 127.059 40.7331 123.41 41.1277C118.627 40.8318 116.605 39.0072 116.21 37.3798C115.865 35.999 116.654 34.6183 118.281 33.632C119.416 32.9909 120.796 32.5964 122.325 32.4978C125.383 32.054 125.974 31.2649 126.122 30.969C126.221 30.7225 126.073 30.4266 125.974 30.328L112.314 22.3885L98.6546 30.2787C98.5066 30.328 94.0684 31.7087 92.2931 27.7143L92.2438 27.5664C92.0466 26.4322 90.4685 25.0514 86.77 24.6076C82.7756 24.8542 81.0496 26.3336 80.7537 27.4678C80.5565 28.3554 81.0989 29.2431 82.2824 29.9335C83.2194 30.4759 84.4523 30.8211 85.833 30.9197C88.6932 31.3636 90.222 32.1033 90.6165 33.2375C90.9123 34.0265 90.4685 34.7662 90.1726 35.1114L90.0247 35.21L76.9566 42.755L89.9754 50.2507C90.4192 50.3493 93.4273 51.089 94.7588 48.2781C95.1533 46.3056 97.619 44.8755 101.268 44.481C106.052 44.7769 108.073 46.6015 108.468 48.2288C108.813 49.6096 108.024 50.9904 106.397 51.9274C105.263 52.5684 103.882 52.9629 102.353 53.0616C99.2957 53.5054 98.7039 54.2944 98.5559 54.5903C98.5066 54.9848 98.6546 55.2314 98.7532 55.3793Z" fill="#16110D"/>
</svg>
