<svg width="359" height="233" viewBox="0 0 359 233" fill="none" xmlns="http://www.w3.org/2000/svg">
<path d="M2.69785 145.128C3.64898 146.714 5.23421 148.14 7.45353 149.408L143.783 228.194C151.234 232.474 162.33 232.95 168.671 229.145L228.434 194.587C231.129 193.002 232.556 190.941 232.714 188.881C233.348 185.235 232.397 181.113 232.397 181.113L228.434 181.272C227.959 180.796 227.325 180.479 226.691 180.162L90.361 101.376C82.9104 97.096 71.8137 96.6204 65.4728 100.425L5.70982 134.983L1.11262 134.824C1.11262 134.824 -0.631053 139.739 2.38088 144.811C2.5394 144.97 2.69785 145.128 2.69785 145.128Z" fill="#161616"/>
<path d="M158.05 232.316C152.977 232.316 147.746 231.048 143.625 228.67L7.29498 149.884C5.07566 148.616 3.33179 147.189 2.22213 145.445L2.06365 145.287C2.06365 145.128 1.90517 145.128 1.90517 144.97C-1.26529 139.58 0.478423 134.507 0.478423 134.349L0.636907 133.873L5.55127 134.19L65.1558 99.7907C71.6552 95.9862 83.2273 96.4617 90.8364 100.742L227.166 179.528C227.641 179.845 228.117 180.162 228.751 180.637L233.031 180.32L233.19 180.796C233.19 180.954 234.299 185.076 233.507 188.722C233.19 191.258 231.605 193.319 228.91 194.904L169.147 229.462C166.293 231.523 162.33 232.316 158.05 232.316ZM3.33191 144.811C4.28305 146.396 5.86831 147.665 7.92911 148.774L144.259 227.56C151.392 231.682 162.33 232.157 168.513 228.511L228.276 193.953C230.654 192.527 232.08 190.783 232.239 188.722V188.405C232.714 185.869 232.239 183.015 231.922 181.905L229.068 182.064L228.91 182.54L228.117 181.905C227.483 181.43 227.007 181.113 226.373 180.796L90.0438 102.01C82.9102 97.8885 71.9723 97.4128 65.7899 101.059L5.86823 135.617L1.74668 135.458C1.42964 136.726 0.79543 140.531 3.01475 144.336C3.17327 144.494 3.17339 144.653 3.33191 144.811L2.69778 145.128L3.33191 144.811Z" fill="#161616"/>
<path d="M5.55103 129.117L65.314 94.5595C71.6549 90.9135 82.91 91.389 90.202 95.5106L226.532 174.296C233.982 178.577 234.775 185.076 228.275 188.722L168.512 223.28C162.171 226.926 150.916 226.45 143.624 222.329L7.29474 143.543C0.00269806 139.263 -0.789877 132.763 5.55103 129.117Z" fill="white"/>
<path d="M157.892 226.45C152.819 226.45 147.588 225.182 143.467 222.804L7.13704 144.019C3.01545 141.641 0.637451 138.47 0.637451 135.3C0.637451 132.605 2.22272 130.227 5.23465 128.483L64.9978 93.9254C71.4973 90.1209 83.0694 90.5965 90.6784 94.8766L227.008 173.662C231.13 176.04 233.507 179.211 233.507 182.381C233.507 185.076 231.922 187.454 228.91 189.198L169.147 223.756C165.977 225.499 162.014 226.45 157.892 226.45ZM76.0944 92.8157C72.1314 92.8157 68.4852 93.6084 65.6318 95.1936L5.86878 129.752C3.33242 131.178 1.90571 133.239 1.90571 135.458C1.90571 138.153 3.96647 140.848 7.61249 143.067L143.942 221.853C151.076 225.975 162.014 226.45 168.196 222.804L227.959 188.246C230.495 186.82 231.922 184.759 231.922 182.54C231.922 179.845 229.861 177.15 226.215 174.931L89.8858 96.1448C85.9228 93.9255 80.8501 92.8157 76.0944 92.8157Z" fill="#161616"/>
<path d="M65.7906 99.1561L61.3519 101.692C59.9252 102.485 59.9252 103.912 61.3519 104.704C62.7786 105.497 62.7786 106.924 61.3519 107.716L28.0621 126.898C26.6354 127.69 24.2575 127.69 22.8308 126.898C21.404 126.105 19.0263 126.105 17.5996 126.898L8.24674 132.287C5.07628 134.19 5.07628 137.202 8.24674 139.104L146.32 218.524C152.185 221.853 161.855 221.853 167.879 218.524L225.264 185.234C228.435 183.332 228.435 180.32 225.264 178.417L87.1911 98.9976C81.4843 95.8271 71.8144 95.8271 65.7906 99.1561Z" fill="#36A9E1"/>
<path d="M157.257 221.853C153.294 221.853 149.331 220.902 146.161 219.158L8.08758 139.738C6.34383 138.787 5.39258 137.361 5.39258 135.775C5.39258 134.19 6.34383 132.763 8.08758 131.812L17.4405 126.423C19.0257 125.471 21.7205 125.471 23.3057 126.423C24.5739 127.057 26.6348 127.057 27.7444 126.423L61.0342 107.241C61.5098 106.924 61.8268 106.607 61.8268 106.29C61.8268 105.973 61.5098 105.656 61.0342 105.339C60.0831 104.863 59.6075 104.071 59.6075 103.278C59.6075 102.486 60.0831 101.693 61.0342 101.217L65.4727 98.6811C71.6551 95.1936 81.4835 95.1936 87.6659 98.6811L225.739 178.101C227.483 179.052 228.434 180.479 228.434 182.064C228.434 183.649 227.483 185.076 225.739 186.027L168.354 219.317C165.342 220.902 161.22 221.853 157.257 221.853ZM20.4522 127.215C19.6596 127.215 18.8672 127.374 18.2331 127.691L8.88019 133.081C7.61201 133.873 6.81932 134.824 6.81932 135.934C6.81932 136.885 7.61201 137.995 8.88019 138.629L146.953 218.049C152.66 221.378 162.013 221.378 167.72 218.049L225.105 184.759C226.373 183.966 227.166 183.015 227.166 181.905C227.166 180.954 226.373 179.845 225.105 179.211L87.0318 99.7907C81.325 96.4618 71.9722 96.4618 66.2653 99.7907L61.8268 102.327C61.3513 102.644 61.0342 102.961 61.0342 103.278C61.0342 103.595 61.3513 103.912 61.8268 104.229C62.778 104.705 63.2534 105.498 63.2534 106.29C63.2534 107.083 62.778 107.875 61.8268 108.351L28.5371 127.532C26.9518 128.483 24.2568 128.483 22.6716 127.532C22.0375 127.374 21.2449 127.215 20.4522 127.215Z" fill="#161616"/>
<path d="M50.0954 108.985C49.3028 108.509 49.3028 107.717 50.0954 107.241C50.8881 106.765 52.1563 106.765 53.1074 107.241C54.0585 107.717 53.9 108.509 53.1074 108.985C52.1563 109.46 50.8881 109.46 50.0954 108.985Z" fill="#161616"/>
<path d="M28.2199 119.923L45.4989 109.936C46.133 109.461 47.4011 109.619 48.1937 110.095C48.9863 110.57 49.145 111.204 48.3524 111.68L31.0734 121.667C30.4393 122.142 29.171 121.984 28.3784 121.508C27.5857 121.033 27.5858 120.24 28.2199 119.923Z" fill="#161616"/>
<path d="M155.39 226.135L155.336 231.366L156.128 231.374L156.183 226.143L155.39 226.135Z" fill="#36A9E1"/>
<path d="M229.385 194.112L228.592 193.953C229.385 191.258 228.592 188.722 228.592 188.722L229.385 188.405C229.543 188.405 230.336 191.1 229.385 194.112Z" fill="#36A9E1"/>
<path d="M227.007 195.539L226.215 195.38C227.007 192.685 226.215 190.149 226.215 190.149L227.007 189.832C227.166 189.832 227.958 192.527 227.007 195.539Z" fill="#36A9E1"/>
<path d="M7.61238 149.725C7.13681 147.506 7.29541 144.177 7.29541 144.019H8.08802C8.08802 144.019 7.92942 147.348 8.40499 149.567L7.61238 149.725Z" fill="#36A9E1"/>
<path d="M4.91695 148.299C4.44138 146.079 4.59979 142.75 4.59979 142.592H5.3924C5.3924 142.592 5.23399 145.921 5.70956 148.14L4.91695 148.299Z" fill="#36A9E1"/>
<path d="M46.9259 170.968C46.6089 170.968 46.2918 170.809 45.9748 170.651L37.573 165.895C36.7804 165.419 35.9878 164.31 35.9878 163.359V163.2C35.9878 162.725 36.1464 162.407 36.4634 162.09C36.7805 161.932 37.4144 161.932 37.89 162.249L46.2918 167.005C47.0844 167.48 47.877 168.59 47.877 169.541V169.7C47.877 170.175 47.7184 170.492 47.4014 170.809C47.4014 170.968 47.0844 170.968 46.9259 170.968ZM37.2561 162.883C37.2561 162.883 37.0975 162.883 37.2561 162.883C36.939 163.042 36.9389 163.2 36.9389 163.2V163.359C36.9389 163.993 37.4146 164.785 38.0487 165.102L46.4503 169.858C46.7673 170.017 46.9259 170.017 47.0844 170.017C47.2429 170.017 47.2429 169.7 47.2429 169.7V169.541C47.2429 168.907 46.7674 168.114 46.1333 167.797L37.7315 163.042C37.573 162.883 37.4146 162.883 37.2561 162.883Z" fill="#36A9E1"/>
<path d="M60.4005 178.734C60.0835 178.734 59.7665 178.576 59.4494 178.417L51.0476 173.662C50.255 173.186 49.4624 172.076 49.4624 171.125V170.967C49.4624 170.491 49.621 170.174 49.938 169.857C50.2551 169.699 50.889 169.699 51.3646 170.016L59.7664 174.771C60.559 175.247 61.3516 176.357 61.3516 177.308V177.466C61.3516 177.942 61.193 178.259 60.876 178.576C60.7174 178.734 60.559 178.734 60.4005 178.734ZM50.7307 170.65C50.5721 170.65 50.5721 170.65 50.7307 170.65C50.4136 170.808 50.4135 170.967 50.4135 170.967V171.125C50.4135 171.759 50.8892 172.552 51.5233 172.869L59.9249 177.625C60.2419 177.783 60.4005 177.783 60.559 177.783C60.7175 177.783 60.7175 177.466 60.7175 177.466V177.308C60.7175 176.674 60.242 175.881 59.6079 175.564L51.2061 170.808C50.8891 170.65 50.7307 170.65 50.7307 170.65Z" fill="#36A9E1"/>
<path d="M192.766 213.61C192.449 213.451 192.291 212.976 192.291 212.5V212.342C192.291 211.391 192.925 210.44 193.876 209.805L202.278 205.05C202.753 204.733 203.387 204.733 203.705 204.891C204.022 205.05 204.18 205.525 204.18 206.001V206.159C204.18 207.111 203.546 208.062 202.595 208.696L194.193 213.451C193.876 213.61 193.559 213.769 193.242 213.769C193.083 213.769 192.925 213.768 192.766 213.61ZM202.595 205.842L194.193 210.598C193.559 210.915 193.083 211.708 193.083 212.342V212.5C193.083 212.659 193.083 212.817 193.242 212.817C193.4 212.817 193.559 212.817 193.876 212.659L202.278 207.903C202.912 207.586 203.387 206.793 203.387 206.159V206.001C203.387 205.842 203.387 205.684 203.229 205.684H203.07C202.912 205.684 202.753 205.684 202.595 205.842Z" fill="#36A9E1"/>
<path d="M31.0733 161.773C30.7562 161.773 30.4392 161.615 30.1222 161.456L25.3665 158.761C24.5739 158.286 23.7812 157.176 23.7812 156.225V156.066C23.7812 155.591 23.9397 155.274 24.2567 154.957C24.5737 154.798 25.2079 154.798 25.6834 155.115L30.4391 157.81C31.2317 158.286 32.0244 159.395 32.0244 160.346V160.505C32.0244 160.981 31.8658 161.298 31.5487 161.615C31.5487 161.773 31.3903 161.773 31.0733 161.773ZM25.0493 155.908C25.0493 155.908 24.8908 155.908 25.0493 155.908C24.7323 156.066 24.7323 156.225 24.7323 156.225V156.383C24.7323 157.017 25.2078 157.81 25.8419 158.127L30.5976 160.822C30.9147 160.981 31.0732 160.98 31.2317 160.98C31.3903 160.98 31.3902 160.664 31.3902 160.664V160.505C31.3902 159.871 30.9147 159.078 30.2806 158.761L25.525 156.066C25.3664 155.908 25.2078 155.908 25.0493 155.908Z" fill="#36A9E1"/>
<path d="M28.0613 158.444V158.286C28.0613 157.493 28.6954 157.335 29.3295 157.652L30.4391 158.286C31.2317 158.761 31.7074 159.712 31.7074 160.347V160.505C31.7074 161.298 31.0732 161.456 30.4391 161.139L29.3295 160.505C28.6954 160.188 28.0613 159.237 28.0613 158.444Z" fill="#36A9E1"/>
<path d="M31.0731 161.773C30.7561 161.773 30.439 161.615 30.122 161.456L29.0122 160.822C28.2196 160.347 27.427 159.237 27.427 158.286V158.127C27.427 157.652 27.5856 157.335 27.9026 157.018C28.2197 156.859 28.8538 156.859 29.3294 157.176L30.439 157.81C31.2316 158.286 32.0242 159.396 32.0242 160.347V160.505C32.0242 160.981 31.8656 161.298 31.5486 161.615C31.5486 161.773 31.3901 161.773 31.0731 161.773ZM28.5368 158.444C28.5368 159.079 29.0123 159.871 29.6464 160.188L30.7559 160.822C31.073 160.981 31.2315 160.981 31.3901 160.981C31.5486 160.981 31.5486 160.664 31.5486 160.664V160.505C31.5486 159.871 31.0731 159.079 30.439 158.761L29.3294 158.127C29.0123 157.969 28.8538 157.969 28.6953 157.969C28.5367 157.969 28.5368 158.286 28.5368 158.286V158.444Z" fill="#36A9E1"/>
<path d="M158.923 226.104L158.13 226.114L158.199 231.503L158.992 231.493L158.923 226.104Z" fill="#36A9E1"/>
<path d="M168.752 223.725L167.96 223.735L168.029 229.125L168.822 229.114L168.752 223.725Z" fill="#36A9E1"/>
<path d="M147.885 224.828L147.83 230.059L148.623 230.067L148.677 224.837L147.885 224.828Z" fill="#36A9E1"/>
<path d="M135.797 218.15L135.742 223.38L136.535 223.389L136.589 218.158L135.797 218.15Z" fill="#36A9E1"/>
<path d="M64.2048 162.407C63.4122 162.407 62.4611 162.248 61.827 161.773L57.8639 159.553C57.0713 159.078 56.7542 158.444 56.7542 157.81C56.7542 157.176 57.0712 156.7 57.7052 156.383L113.664 124.044C114.774 123.41 116.676 123.41 117.944 124.203L121.907 126.422C122.7 126.898 123.017 127.532 123.017 128.166C123.017 128.8 122.7 129.276 122.066 129.593L66.107 161.931C65.4729 162.248 64.8389 162.407 64.2048 162.407ZM115.408 124.837C114.932 124.837 114.457 124.995 114.139 125.154L58.1809 157.493C58.0224 157.651 57.8639 157.81 57.8639 157.968C57.8639 158.127 58.0223 158.444 58.4979 158.761L62.4609 160.98C63.4121 161.456 64.8388 161.614 65.6314 161.139L121.59 128.8C121.749 128.641 121.907 128.483 121.907 128.324C121.907 128.166 121.749 127.849 121.273 127.532L117.31 125.312C116.676 124.995 116.042 124.837 115.408 124.837Z" fill="white"/>
<path d="M101.298 183.966C100.506 183.966 99.5546 183.808 98.9206 183.332L94.9575 181.113C94.1649 180.637 93.8479 180.003 93.8479 179.369C93.8479 178.735 94.1649 178.26 94.799 177.942L150.758 145.604C151.867 144.97 153.769 144.97 155.038 145.762L159.001 147.982C159.793 148.457 160.11 149.091 160.11 149.725C160.11 150.36 159.793 150.835 159.159 151.152L103.201 183.491C102.725 183.808 102.091 183.966 101.298 183.966ZM152.66 146.238C152.184 146.238 151.709 146.396 151.392 146.555L95.4331 178.894C95.2746 179.052 95.1162 179.211 95.1162 179.369C95.1162 179.528 95.2745 179.845 95.7501 180.162L99.7132 182.381C100.664 182.857 102.091 183.015 102.884 182.54L158.842 150.201C159.001 150.042 159.159 149.884 159.159 149.725C159.159 149.567 159.001 149.25 158.525 148.933L154.562 146.713C153.928 146.396 153.294 146.238 152.66 146.238Z" fill="white"/>
<path d="M112.871 190.466C112.078 190.466 111.127 190.307 110.493 189.832L98.1279 182.857C97.3353 182.381 97.0183 181.747 97.0183 181.113C97.0183 180.479 97.3353 180.003 97.9694 179.686L153.928 147.348C155.038 146.713 156.94 146.713 158.208 147.506L170.573 154.481C171.366 154.957 171.682 155.591 171.682 156.225C171.682 156.859 171.365 157.334 170.731 157.652L114.773 189.99C114.139 190.307 113.505 190.466 112.871 190.466ZM155.513 148.14C155.038 148.14 154.562 148.299 154.245 148.457L98.2866 180.796C98.128 180.954 97.9694 181.113 97.9694 181.271C97.9694 181.43 98.128 181.747 98.6035 182.064L110.968 189.039C111.92 189.515 113.346 189.673 114.139 189.198L170.097 156.859C170.256 156.7 170.414 156.542 170.414 156.383C170.414 156.225 170.256 155.908 169.78 155.591L157.415 148.616C156.94 148.299 156.147 148.14 155.513 148.14Z" fill="white"/>
<path d="M89.5681 177.15C88.7755 177.15 87.8244 176.992 87.1903 176.516L69.9113 166.529C69.1187 166.053 68.8015 165.419 68.8015 164.785C68.8015 164.151 69.1187 163.676 69.7528 163.359L94.0067 149.409C95.1163 148.774 97.0187 148.775 98.2869 149.567L115.566 159.554C116.358 160.03 116.675 160.664 116.675 161.298C116.675 161.932 116.358 162.407 115.724 162.725L91.4703 176.674C90.9948 176.992 90.3608 177.15 89.5681 177.15ZM95.7504 150.043C95.2748 150.043 94.7994 150.201 94.4823 150.36L70.2283 164.31C70.0697 164.468 69.9113 164.627 69.9113 164.785C69.9113 164.944 70.0699 165.261 70.5454 165.578L87.8242 175.565C88.7754 176.04 90.2021 176.199 90.9947 175.723L115.249 161.773C115.407 161.615 115.566 161.456 115.566 161.298C115.566 161.139 115.407 160.822 114.932 160.505L97.6528 150.518C97.0187 150.201 96.3845 150.043 95.7504 150.043Z" fill="white"/>
<path d="M121.431 158.761C120.639 158.761 119.688 158.603 119.054 158.127L101.775 148.14C100.982 147.665 100.665 147.031 100.665 146.397C100.665 145.763 100.982 145.287 101.616 144.97L125.87 131.02C126.98 130.386 128.882 130.386 130.15 131.178L147.429 141.165C148.222 141.641 148.539 142.275 148.539 142.909C148.539 143.543 148.222 144.019 147.588 144.336L123.334 158.286C122.7 158.603 122.066 158.761 121.431 158.761ZM127.455 131.813C126.98 131.813 126.504 131.971 126.187 132.13L101.933 146.08C101.775 146.238 101.616 146.397 101.616 146.555C101.616 146.714 101.775 147.031 102.25 147.348L119.529 157.335C120.48 157.81 121.907 157.969 122.7 157.493L146.954 143.543C147.112 143.385 147.271 143.226 147.271 143.068C147.271 142.909 147.112 142.592 146.637 142.275L129.358 132.288C128.724 131.971 128.089 131.813 127.455 131.813Z" fill="white"/>
<path d="M100.513 151.531L72.9255 167.476L73.4808 168.436L101.068 152.492L100.513 151.531Z" fill="white"/>
<path d="M132.472 133.094L104.882 149.035L105.437 149.996L133.027 134.055L132.472 133.094Z" fill="white"/>
<path d="M197.047 192.843C197.998 193.636 197.205 194.904 197.047 195.063C197.364 194.904 199.425 194.428 200.851 195.063C199.9 194.27 200.693 193.002 200.851 192.843C200.534 192.843 198.473 193.319 197.047 192.843Z" fill="#161616"/>
<path d="M202.595 189.673C203.546 190.465 202.753 191.734 202.595 191.892C202.912 191.734 204.973 191.258 206.399 191.892C205.448 191.099 206.241 189.831 206.399 189.673C206.082 189.673 204.021 190.148 202.595 189.673Z" fill="#161616"/>
<path d="M207.985 186.502C208.936 187.295 208.143 188.563 207.985 188.722C208.302 188.563 210.362 188.088 211.789 188.722C210.838 187.929 211.631 186.661 211.789 186.502C211.472 186.502 209.57 186.978 207.985 186.502Z" fill="#161616"/>
<path d="M213.533 183.332C214.484 184.125 213.691 185.393 213.533 185.551C213.85 185.393 215.911 184.917 217.338 185.551C216.386 184.759 217.179 183.491 217.338 183.332C217.02 183.332 214.96 183.808 213.533 183.332Z" fill="#161616"/>
<path d="M219.081 180.161C220.032 180.954 219.24 182.222 219.081 182.38C219.398 182.222 221.459 181.746 222.886 182.38C221.935 181.588 222.727 180.32 222.886 180.161C222.569 180.161 220.508 180.637 219.081 180.161Z" fill="#161616"/>
<path d="M197.047 186.503C197.998 187.295 197.205 188.563 197.047 188.722C197.364 188.563 199.425 188.088 200.851 188.722C199.9 187.929 200.693 186.661 200.851 186.503C200.534 186.503 198.473 186.978 197.047 186.503C197.047 186.344 197.047 186.503 197.047 186.503Z" fill="#161616"/>
<path d="M202.595 183.332C203.546 184.124 202.753 185.392 202.595 185.551C202.912 185.392 204.973 184.917 206.399 185.551C205.448 184.758 206.241 183.49 206.399 183.332C206.082 183.332 204.021 183.807 202.595 183.332C202.595 183.173 202.595 183.332 202.595 183.332Z" fill="#161616"/>
<path d="M207.985 180.161C208.936 180.954 208.143 182.222 207.985 182.38C208.302 182.222 210.362 181.746 211.789 182.38C210.838 181.588 211.631 180.32 211.789 180.161C211.472 180.161 209.411 180.637 207.985 180.161Z" fill="#161616"/>
<path d="M213.533 176.991C214.484 177.784 213.691 179.052 213.533 179.21C213.85 179.052 215.911 178.576 217.338 179.21C216.386 178.418 217.179 177.15 217.338 176.991C217.02 176.991 214.96 177.467 213.533 176.991Z" fill="#161616"/>
<path d="M348.452 132.998C347.753 133.464 347.753 134.163 348.452 134.629C349.152 135.095 350.551 135.095 351.25 134.629C351.949 134.163 351.949 133.464 351.25 132.998C350.318 132.531 349.152 132.531 348.452 132.998Z" fill="#16110D"/>
<path d="M340.993 128.801C340.294 129.267 340.294 129.966 340.993 130.432C341.692 130.899 343.091 130.899 343.79 130.432C344.489 129.966 344.489 129.267 343.79 128.801C343.091 128.335 341.925 128.335 340.993 128.801Z" fill="#16110D"/>
<path d="M355.678 128.801C354.979 129.267 354.979 129.966 355.678 130.432C356.378 130.899 357.776 130.899 358.476 130.432C359.175 129.966 359.175 129.267 358.476 128.801C357.776 128.335 356.378 128.335 355.678 128.801Z" fill="#16110D"/>
<path d="M348.452 124.606C347.753 125.072 347.753 125.771 348.452 126.237C349.152 126.704 350.551 126.704 351.25 126.237C351.949 125.771 351.949 125.072 351.25 124.606C350.318 124.139 349.152 124.139 348.452 124.606Z" fill="#16110D"/>
<path d="M355.678 120.177C354.979 120.643 354.979 121.342 355.678 121.808C356.378 122.275 357.776 122.275 358.476 121.808C359.175 121.342 359.175 120.643 358.476 120.177C357.776 119.711 356.378 119.711 355.678 120.177Z" fill="#16110D"/>
<path d="M282.016 161.902C281.317 162.369 281.317 163.068 282.016 163.534C282.716 164.001 284.115 164.001 284.814 163.534C285.513 163.068 285.513 162.369 284.814 161.902C284.115 161.436 282.716 161.436 282.016 161.902Z" fill="#16110D"/>
<path d="M274.789 157.707C274.09 158.173 274.09 158.872 274.789 159.338C275.489 159.804 276.887 159.804 277.586 159.338C278.286 158.872 278.286 158.173 277.586 157.707C276.654 157.24 275.489 157.24 274.789 157.707Z" fill="#16110D"/>
<path d="M252.644 145.119C251.945 145.585 251.945 146.284 252.644 146.75C253.343 147.217 254.742 147.217 255.441 146.75C256.14 146.284 256.14 145.585 255.441 145.119C254.742 144.652 253.576 144.652 252.644 145.119Z" fill="#16110D"/>
<path d="M245.419 140.69C244.719 141.157 244.719 141.856 245.419 142.322C246.118 142.789 247.516 142.789 248.216 142.322C248.915 141.856 248.915 141.157 248.216 140.69C247.516 140.457 246.118 140.457 245.419 140.69Z" fill="#16110D"/>
<path d="M237.959 136.494C237.259 136.96 237.259 137.66 237.959 138.126C238.658 138.592 240.056 138.592 240.756 138.126C241.455 137.66 241.455 136.96 240.756 136.494C240.056 136.028 238.891 136.028 237.959 136.494Z" fill="#16110D"/>
<path d="M230.732 132.297C230.033 132.764 230.033 133.463 230.732 133.929C231.432 134.395 232.831 134.395 233.53 133.929C234.23 133.463 234.23 132.764 233.53 132.297C232.831 131.831 231.432 131.831 230.732 132.297Z" fill="#16110D"/>
<path d="M267.331 153.511C266.631 153.977 266.631 154.677 267.331 155.143C268.03 155.609 269.429 155.609 270.128 155.143C270.827 154.677 270.827 153.977 270.128 153.511C269.429 153.045 268.263 153.045 267.331 153.511Z" fill="#16110D"/>
<path d="M261.503 151.18C260.344 151.18 259.405 150.658 259.405 150.014C259.405 149.37 260.344 148.849 261.503 148.849C262.662 148.849 263.601 149.37 263.601 150.014C263.601 150.658 262.662 151.18 261.503 151.18Z" fill="#16110D"/>
<path d="M296.702 161.902C296.003 162.369 296.003 163.068 296.702 163.534C297.402 164.001 298.8 164.001 299.499 163.534C300.199 163.068 300.199 162.369 299.499 161.902C298.8 161.436 297.402 161.436 296.702 161.902Z" fill="#16110D"/>
<path d="M289.476 157.707C288.776 158.173 288.776 158.872 289.476 159.338C290.175 159.804 291.574 159.804 292.273 159.338C292.972 158.872 292.972 158.173 292.273 157.707C291.34 157.24 290.175 157.24 289.476 157.707Z" fill="#16110D"/>
<path d="M282.016 153.511C281.317 153.977 281.317 154.677 282.016 155.143C282.716 155.609 284.115 155.609 284.814 155.143C285.513 154.677 285.513 153.977 284.814 153.511C284.115 153.045 282.716 153.045 282.016 153.511Z" fill="#16110D"/>
<path d="M274.789 149.315C274.09 149.781 274.09 150.48 274.789 150.947C275.489 151.413 276.887 151.413 277.586 150.947C278.286 150.48 278.286 149.781 277.586 149.315C276.654 148.849 275.489 148.849 274.789 149.315Z" fill="#16110D"/>
<path d="M252.644 136.494C251.945 136.96 251.945 137.66 252.644 138.126C253.343 138.592 254.742 138.592 255.441 138.126C256.14 137.66 256.14 136.96 255.441 136.494C254.742 136.028 253.576 136.028 252.644 136.494Z" fill="#16110D"/>
<path d="M245.419 132.297C244.719 132.764 244.719 133.463 245.419 133.929C246.118 134.395 247.516 134.395 248.216 133.929C248.915 133.463 248.915 132.764 248.216 132.297C247.516 131.831 246.118 131.831 245.419 132.297Z" fill="#16110D"/>
<path d="M237.959 128.102C237.259 128.568 237.259 129.268 237.959 129.734C238.658 130.2 240.056 130.2 240.756 129.734C241.455 129.268 241.455 128.568 240.756 128.102C240.056 127.636 238.891 127.636 237.959 128.102Z" fill="#16110D"/>
<path d="M230.732 123.906C230.033 124.372 230.033 125.071 230.732 125.537C231.432 126.004 232.831 126.004 233.53 125.537C234.23 125.071 234.23 124.372 233.53 123.906C232.831 123.44 231.432 123.44 230.732 123.906Z" fill="#16110D"/>
<path d="M267.331 145.119C266.631 145.585 266.631 146.284 267.331 146.75C268.03 147.217 269.429 147.217 270.128 146.75C270.827 146.284 270.827 145.585 270.128 145.119C269.429 144.652 268.263 144.652 267.331 145.119Z" fill="#16110D"/>
<path d="M260.104 140.69C259.405 141.156 259.405 141.855 260.104 142.322C260.803 142.788 262.202 142.788 262.901 142.322C263.6 141.855 263.6 141.156 262.901 140.69C262.202 140.223 260.803 140.456 260.104 140.69Z" fill="#16110D"/>
<path d="M303.928 157.707C303.228 158.173 303.228 158.872 303.928 159.338C304.627 159.804 306.026 159.804 306.725 159.338C307.424 158.872 307.424 158.173 306.725 157.707C306.026 157.24 304.86 157.24 303.928 157.707Z" fill="#16110D"/>
<path d="M296.702 153.511C296.003 153.977 296.003 154.677 296.702 155.143C297.402 155.609 298.8 155.609 299.499 155.143C300.199 154.677 300.199 153.977 299.499 153.511C298.8 153.045 297.402 153.045 296.702 153.511Z" fill="#16110D"/>
<path d="M289.476 149.315C288.776 149.781 288.776 150.48 289.476 150.947C290.175 151.413 291.574 151.413 292.273 150.947C292.972 150.48 292.972 149.781 292.273 149.315C291.34 148.849 290.175 148.849 289.476 149.315Z" fill="#16110D"/>
<path d="M282.016 145.119C281.317 145.585 281.317 146.284 282.016 146.75C282.716 147.217 284.115 147.217 284.814 146.75C285.513 146.284 285.513 145.585 284.814 145.119C284.115 144.652 282.716 144.652 282.016 145.119Z" fill="#16110D"/>
<path d="M274.789 140.69C274.09 141.156 274.09 141.855 274.789 142.322C275.489 142.788 276.887 142.788 277.586 142.322C278.286 141.855 278.286 141.156 277.586 140.69C276.887 140.223 275.489 140.456 274.789 140.69Z" fill="#16110D"/>
<path d="M252.644 128.102C251.945 128.568 251.945 129.268 252.644 129.734C253.343 130.2 254.742 130.2 255.441 129.734C256.14 129.268 256.14 128.568 255.441 128.102C254.742 127.636 253.576 127.636 252.644 128.102Z" fill="#16110D"/>
<path d="M246.817 125.771C245.658 125.771 244.718 125.249 244.718 124.605C244.718 123.962 245.658 123.44 246.817 123.44C247.975 123.44 248.914 123.962 248.914 124.605C248.914 125.249 247.975 125.771 246.817 125.771Z" fill="#16110D"/>
<path d="M237.959 119.71C237.259 120.176 237.259 120.876 237.959 121.342C238.658 121.808 240.056 121.808 240.756 121.342C241.455 120.876 241.455 120.176 240.756 119.71C240.056 119.244 238.891 119.244 237.959 119.71Z" fill="#16110D"/>
<path d="M267.331 136.494C266.631 136.96 266.631 137.66 267.331 138.126C268.03 138.592 269.429 138.592 270.128 138.126C270.827 137.66 270.827 136.96 270.128 136.494C269.429 136.028 268.263 136.028 267.331 136.494Z" fill="#16110D"/>
<path d="M260.104 132.297C259.405 132.764 259.405 133.463 260.104 133.929C260.803 134.395 262.202 134.395 262.901 133.929C263.6 133.463 263.6 132.764 262.901 132.297C261.969 131.831 260.803 131.831 260.104 132.297Z" fill="#16110D"/>
<path d="M311.388 153.511C310.689 153.977 310.689 154.677 311.388 155.143C312.087 155.609 313.486 155.609 314.185 155.143C314.884 154.677 314.884 153.977 314.185 153.511C313.486 153.045 312.087 153.045 311.388 153.511Z" fill="#16110D"/>
<path d="M303.928 149.315C303.228 149.781 303.228 150.48 303.928 150.947C304.627 151.413 306.026 151.413 306.725 150.947C307.424 150.48 307.424 149.781 306.725 149.315C306.026 148.849 304.86 148.849 303.928 149.315Z" fill="#16110D"/>
<path d="M318.848 149.315C318.148 149.781 318.148 150.48 318.848 150.947C319.547 151.413 320.945 151.413 321.645 150.947C322.344 150.48 322.344 149.781 321.645 149.315C320.712 148.849 319.547 148.849 318.848 149.315Z" fill="#16110D"/>
<path d="M311.388 144.886C310.689 145.352 310.689 146.051 311.388 146.517C312.087 146.984 313.486 146.984 314.185 146.517C314.884 146.051 314.884 145.352 314.185 144.886C313.486 144.653 312.32 144.653 311.388 144.886Z" fill="#16110D"/>
<path d="M326.073 144.886C325.374 145.352 325.374 146.051 326.073 146.517C326.773 146.984 328.171 146.984 328.87 146.517C329.57 146.051 329.57 145.352 328.87 144.886C328.171 144.653 326.773 144.653 326.073 144.886Z" fill="#16110D"/>
<path d="M318.848 140.69C318.148 141.156 318.148 141.855 318.848 142.321C319.547 142.788 320.945 142.788 321.645 142.321C322.344 141.855 322.344 141.156 321.645 140.69C320.712 140.223 319.547 140.223 318.848 140.69Z" fill="#16110D"/>
<path d="M333.533 140.69C332.833 141.156 332.833 141.855 333.533 142.321C334.232 142.788 335.631 142.788 336.33 142.321C337.029 141.855 337.029 141.156 336.33 140.69C335.398 140.223 334.232 140.223 333.533 140.69Z" fill="#16110D"/>
<path d="M326.073 136.494C325.374 136.96 325.374 137.66 326.073 138.126C326.773 138.592 328.171 138.592 328.87 138.126C329.57 137.66 329.57 136.96 328.87 136.494C328.171 136.028 326.773 136.028 326.073 136.494Z" fill="#16110D"/>
<path d="M340.759 136.494C340.06 136.96 340.06 137.66 340.759 138.126C341.459 138.592 342.857 138.592 343.557 138.126C344.256 137.66 344.256 136.96 343.557 136.494C342.857 136.028 341.459 136.028 340.759 136.494Z" fill="#16110D"/>
<path d="M333.533 132.297C332.833 132.764 332.833 133.463 333.533 133.929C334.232 134.395 335.631 134.395 336.33 133.929C337.029 133.463 337.029 132.764 336.33 132.297C335.398 131.831 334.232 131.831 333.533 132.297Z" fill="#16110D"/>
<path d="M240.055 110.153L240.288 95.9336H356.842L356.609 109.687C356.609 110.153 356.609 109.687 356.609 110.153C356.376 112.251 354.744 114.349 351.947 115.981L308.356 141.157C302.528 144.42 293.67 144.886 288.775 141.856L243.319 115.748C240.988 114.349 239.822 112.251 240.055 110.153Z" fill="#36A9E1"/>
<path d="M297.4 144.886C301.363 144.886 305.792 143.954 309.055 142.089L352.646 116.913C355.677 115.048 357.542 112.95 358.008 110.386C358.008 110.153 358.008 109.92 358.008 109.687L358.241 95.001L239.356 96.866L239.123 109.92C238.889 112.484 240.288 114.815 243.085 116.447L288.541 142.555C290.873 144.187 293.903 144.886 297.4 144.886ZM355.91 109.92C355.91 109.92 355.677 110.153 355.91 109.92C355.677 112.018 354.045 113.65 351.714 115.281L308.123 140.457C302.528 143.721 294.136 143.954 289.474 141.157L244.018 115.048C241.92 113.883 240.987 112.251 241.22 110.619L241.454 97.5651H356.143L355.91 109.92Z" fill="#15100C"/>
<path d="M243.551 101.994L289.007 128.102C294.136 130.899 302.761 130.667 308.589 127.403L352.18 102.227C358.008 98.9637 358.707 93.8352 353.579 90.8048L308.123 64.6968C302.994 61.8995 294.369 62.1327 288.541 65.3962L244.95 90.5718C239.122 94.0684 238.656 99.1968 243.551 101.994Z" fill="#36A9E1"/>
<path d="M244.95 97.0986L288.541 71.9228C294.369 68.6593 303.227 68.1933 308.123 71.2237L353.579 97.3317C354.511 98.031 355.444 98.7304 355.91 99.4297V105.49C355.211 106.656 353.812 107.822 352.18 108.754L308.589 133.93C302.761 137.193 293.903 137.659 289.007 134.629L243.551 108.521C238.656 105.491 239.122 100.595 244.95 97.0986Z" fill="white"/>
<path d="M297.633 131.132C301.596 131.132 306.025 130.2 309.288 128.335L352.88 103.159C356.143 101.295 358.241 98.4973 358.241 95.9332C358.241 93.6021 356.842 91.5041 354.278 90.1054L308.822 63.9971C303.46 60.9667 294.369 61.1999 288.075 64.6966L244.484 89.8724C241.221 91.7373 239.123 94.5345 239.123 97.0987C239.123 99.4298 240.521 101.528 243.085 102.926L288.541 129.034C290.873 130.433 294.136 131.132 297.633 131.132ZM299.731 63.7641C302.761 63.7641 305.558 64.4635 307.656 65.6291L353.112 91.7371C354.977 92.9026 355.91 94.3014 355.91 95.7001C355.91 97.565 354.278 99.6627 351.714 101.294L308.123 126.47C302.528 129.734 294.136 129.967 289.474 127.17L244.018 101.061C242.153 99.8959 241.22 98.4973 241.22 97.0987C241.22 95.2338 242.852 93.1358 245.416 91.504L289.008 66.3282C292.038 64.6965 296.001 63.7641 299.731 63.7641Z" fill="#15100C"/>
<path d="M303.694 99.4291L301.363 82.4121H301.596L332.832 100.362C333.065 100.595 333.299 100.595 333.532 100.828L303.694 99.4291Z" fill="#36A9E1"/>
<path d="M335.629 97.098L333.298 95.233C333.065 94.9999 332.832 94.767 332.366 94.5339L300.896 76.3513L299.265 75.6519L299.497 77.5168L302.062 95.233L335.629 97.098ZM301.596 79.1485L328.403 94.7669L303.461 93.3683L301.596 79.1485Z" fill="#15100C"/>
<path d="M297.165 102.925L333.53 105.023C333.297 105.023 333.297 105.256 333.064 105.256L307.888 119.709C305.557 121.108 301.827 120.874 299.496 119.476L268.26 101.527C265.929 100.128 265.696 98.0298 268.027 96.6311L293.203 82.1785C293.669 81.9454 293.902 81.7124 294.368 81.7124L297.165 102.925Z" fill="#36A9E1"/>
<path d="M302.994 116.679C304.625 116.679 306.257 116.213 307.423 115.514L332.599 101.061C332.832 101.061 332.832 100.828 333.065 100.828L335.163 99.1962L332.599 98.9628L297.166 96.8651L294.136 75.4189L292.97 75.8853C292.504 76.1184 292.038 76.3514 291.571 76.5845L266.396 91.0374C264.997 91.7367 264.298 92.9021 264.298 94.0676C264.298 95.4663 265.23 96.6318 266.629 97.5642L297.865 115.514C299.497 116.213 301.362 116.679 302.994 116.679ZM329.335 100.595L306.49 113.882C304.625 115.047 301.129 114.814 299.031 113.649L267.794 95.6995C266.862 95.2333 266.396 94.5338 266.396 94.0676C266.396 93.6014 266.862 93.1352 267.561 92.669L292.504 78.2164L295.534 98.9628L329.335 100.595Z" fill="#15100C"/>
<path d="M297.866 130.2V144.42L292.971 143.953L286.91 141.156L240.987 114.582L240.055 110.153L239.589 98.9634L291.106 129.267L296.933 130.2H297.866Z" fill="#15100C"/>
<path d="M194.436 8.61767C194.436 8.2171 194.236 8.01677 194.236 7.81648L196.039 5.01245L190.431 2.00819C190.23 1.8079 189.83 1.60772 189.63 1.60772L189.429 1.40748C186.625 0.205775 183.02 0.606246 179.015 2.80937C170.402 7.81648 163.192 20.0338 163.192 30.048C163.192 33.0523 163.593 35.0551 164.795 37.058L164.995 37.4587L173.206 52.6802C173.607 53.4814 174.007 54.0823 174.608 54.2826L180.617 57.6873C181.017 57.8876 181.418 57.6874 181.418 57.2869L183.621 51.2783L190.431 35.8563L198.843 14.0252L194.436 8.61767ZM181.819 28.2456C177.813 32.051 174.007 32.2512 172.205 29.6475L183.621 14.2257L182.019 10.6205C185.624 10.2199 188.027 13.4246 186.625 19.2328C186.024 22.838 184.222 25.8422 181.819 28.2456Z" fill="#36A9E1"/>
<path d="M164.594 31.05L164.795 31.2505C164.995 31.4508 165.395 31.4507 165.595 31.651L171.204 34.6553L172.005 33.6538L179.615 18.232L181.618 15.0273C182.62 14.827 183.621 15.2277 184.422 15.6282L190.631 6.61545L190.03 6.21498C189.83 6.01469 189.429 5.81426 189.229 5.81426L189.029 5.61402C186.225 4.41232 182.62 4.81279 178.614 7.01592C171.003 11.4222 164.594 21.4365 163.192 30.6496C163.793 30.6496 164.193 30.8498 164.594 31.05Z" fill="white"/>
<path d="M181.018 58.2881C180.818 58.2881 180.617 58.2879 180.417 58.0876L174.208 54.4827C173.608 54.0821 173.007 53.4812 172.606 52.6801L164.194 37.2583C162.992 35.4557 162.592 33.2524 162.592 30.0478C162.592 19.8333 169.802 7.21561 178.615 2.2085C182.62 -0.194908 186.426 -0.595624 189.63 0.806367L189.831 1.0066C190.231 1.20689 190.431 1.40732 190.632 1.40732L196.841 4.81205L194.838 8.01655C194.838 8.21684 194.838 8.41727 195.038 8.41727L199.644 13.8249L191.032 36.0564L184.223 51.4784L182.02 57.4869C181.819 57.8875 181.619 58.0878 181.218 58.2881C181.419 58.2881 181.218 58.2881 181.018 58.2881ZM175.41 53.8817L181.018 57.0862L183.021 51.0777L189.831 35.4557L198.042 14.0251L193.636 9.01798V8.81774C193.636 8.61746 193.436 8.21684 193.436 8.01655V7.81632L193.636 7.41585L195.038 5.21277L190.031 2.40874C189.831 2.20846 189.43 2.00802 189.23 2.00802L189.029 1.80779C186.426 0.606082 182.821 1.20708 179.215 3.20993C170.804 8.21704 163.794 20.0337 163.794 29.8476C163.794 32.6516 164.194 34.6545 165.196 36.4571L165.396 36.8576L173.607 52.0791C173.808 52.68 174.208 53.281 174.809 53.4813L175.41 53.8817ZM175.41 32.0507C175.21 32.0507 175.01 32.0507 175.01 32.0507C173.608 31.8504 172.406 31.2495 171.605 30.0478L171.404 29.6474L183.021 14.2256L181.218 10.2199L182.22 10.0194C183.822 9.81911 185.424 10.4201 186.426 11.4215C188.028 13.0238 188.428 16.0281 187.627 19.4329C186.826 22.8377 185.024 26.0423 182.42 28.4457C180.017 30.8491 177.613 32.0507 175.41 32.0507ZM173.007 29.6474C173.608 30.2482 174.208 30.6488 175.21 30.6488C177.012 30.8491 179.215 29.8476 181.419 27.6445C183.822 25.4414 185.424 22.4372 186.225 19.2327C186.826 16.2284 186.626 13.8249 185.424 12.423C184.823 11.8221 184.223 11.4215 183.221 11.4215L184.623 14.4258L173.007 29.6474Z" fill="black"/>
<path d="M192.234 38.2591L196.239 27.8441L187.828 22.2363C187.828 22.6369 187.627 23.2376 187.627 23.8385C186.826 27.2433 185.224 30.2476 182.62 32.651C179.415 35.6553 176.611 36.2562 174.609 35.2548L178.815 45.4693L192.234 38.2591Z" fill="white"/>
<path d="M201.247 15.4278C201.247 5.41356 194.237 1.20759 185.424 6.41498C176.812 11.4221 169.602 23.6394 169.602 33.6536C169.602 36.6579 170.203 39.0612 171.404 40.8638L171.805 41.665L179.616 56.0854C180.617 58.2885 182.821 58.8895 185.424 57.2873C188.028 55.685 190.431 52.4804 191.233 49.2759L199.244 25.2418L199.444 24.6408C200.646 21.6365 201.247 18.432 201.247 15.4278ZM185.424 33.8538C181.018 36.4575 177.413 34.2546 177.413 29.2475C177.413 24.2403 181.018 18.0315 185.424 15.4278C189.831 12.8241 193.436 15.0271 193.436 20.0342C193.436 25.0413 189.831 31.2502 185.424 33.8538Z" fill="black"/>
<path d="M182.62 58.8895C182.22 58.8895 181.819 58.8896 181.419 58.6893C180.417 58.2887 179.616 57.4876 179.015 56.4862L170.804 41.2646C169.602 39.2618 169.001 36.658 169.001 33.6537C169.001 23.4392 176.211 10.8212 185.024 5.81414C189.43 3.21044 193.636 2.80992 196.841 4.61248C200.045 6.41504 201.848 10.2205 201.848 15.4279C201.848 18.4322 201.247 21.6366 200.045 24.8412L199.845 25.4421L191.834 49.4762C190.832 52.8811 188.429 56.2859 185.625 57.6878C184.623 58.489 183.622 58.8895 182.62 58.8895ZM192.434 5.01295C190.432 5.01295 188.028 5.61381 185.825 7.0158C177.413 12.0229 170.403 23.8398 170.403 33.6537C170.403 36.4577 171.004 38.6608 172.005 40.6637L172.406 41.4649L180.217 55.8852C180.618 56.6864 181.018 57.2873 181.819 57.4876C182.821 57.6879 184.023 57.4875 185.224 56.8867C187.628 55.4847 189.831 52.4805 190.832 49.276L199.044 24.6409C200.246 21.4364 200.646 18.4321 200.646 15.6281C200.646 11.0216 199.044 7.61665 196.44 6.01437C195.038 5.21324 193.836 5.01295 192.434 5.01295ZM181.819 35.6566C181.018 35.6566 180.217 35.4562 179.416 35.0556C177.613 34.0542 176.812 32.0515 176.812 29.2476C176.812 24.0402 180.618 17.4306 185.224 14.8269C187.628 13.4249 189.831 13.2248 191.633 14.2262C193.436 15.2277 194.237 17.2303 194.237 20.0343C194.237 25.2417 190.432 31.8512 185.825 34.4549C184.423 35.256 183.021 35.6566 181.819 35.6566ZM189.03 15.0272C188.028 15.0272 187.027 15.4277 185.825 16.0286C181.619 18.432 178.214 24.4407 178.214 29.2476C178.214 31.4507 179.015 33.0528 180.217 33.854C181.419 34.6551 183.221 34.455 185.224 33.2532C189.43 30.8498 192.835 24.8411 192.835 20.0343C192.835 17.8312 192.034 16.229 190.832 15.4279C190.231 15.0273 189.631 15.0272 189.03 15.0272Z" fill="black"/>
<path d="M192.233 73.3101L190.63 69.3044H187.827C184.422 67.9024 179.815 67.9024 176.21 69.3044H173.406L171.804 73.1096V73.3101C171.203 75.1127 172.204 77.1155 174.608 78.5175C178.613 80.9209 185.223 80.9209 189.229 78.5175C191.832 77.1155 192.834 75.313 192.233 73.3101Z" fill="#36A9E1"/>
<path d="M182.019 81.1208C179.215 81.1208 176.411 80.5202 174.408 79.3185C171.604 77.7162 170.402 75.5131 171.203 73.3099L173.006 68.9035H176.21C179.816 67.5016 184.422 67.5016 188.027 68.9035H191.232L193.034 73.3099C193.836 75.5131 192.634 77.7162 189.83 79.3185C187.627 80.3199 184.823 81.1208 182.019 81.1208ZM173.807 70.1052L172.405 73.5102C171.804 75.1125 172.806 76.7146 175.009 78.1166C178.814 80.3197 185.223 80.3197 189.029 78.1166C190.23 77.3154 192.433 75.7133 191.632 73.7104L190.23 70.1052H187.627C184.222 68.9035 179.815 68.9035 176.611 70.1052H176.411H173.807Z" fill="black"/>
<path d="M188.429 67.1008C191.834 69.1036 191.834 72.3084 188.429 74.3112C185.024 76.314 179.216 76.314 175.811 74.3112C172.406 72.3084 172.406 69.1036 175.811 67.1008C179.216 65.0979 184.824 65.0979 188.429 67.1008Z" fill="#36A9E1"/>
<path d="M188.429 68.7033C191.834 70.7061 191.834 73.9106 188.429 75.9135C185.024 77.9163 179.216 77.9163 175.811 75.9135C172.406 73.9106 172.406 70.7061 175.811 68.7033C179.216 66.7005 184.824 66.7005 188.429 68.7033Z" fill="white"/>
<path d="M182.019 76.5142C179.616 76.5142 177.212 75.9133 175.41 74.9118C173.407 73.9104 172.406 72.3082 172.406 70.7059C172.406 69.1037 173.407 67.5014 175.41 66.5C179.015 64.2969 185.023 64.2969 188.629 66.5C190.631 67.5014 191.633 69.1037 191.633 70.7059C191.633 72.3082 190.631 73.9104 188.629 74.9118C186.826 76.1136 184.423 76.5142 182.019 76.5142ZM182.019 66.2998C179.816 66.2998 177.613 66.7002 176.011 67.7017C174.609 68.5028 173.808 69.7045 173.808 70.7059C173.808 71.7073 174.609 72.9091 176.011 73.7102C179.416 75.713 184.623 75.713 188.028 73.7102C189.43 72.9091 190.231 71.7073 190.231 70.7059C190.231 69.7045 189.43 68.5028 188.028 67.7017C186.426 66.7002 184.222 66.2998 182.019 66.2998Z" fill="black"/>
<path d="M185.424 68.7035C187.227 69.7049 187.227 71.5076 185.424 72.509C183.621 73.5104 180.617 73.5104 178.815 72.509C177.012 71.5076 177.012 69.7049 178.815 68.7035C180.617 67.5018 183.621 67.5018 185.424 68.7035Z" fill="#36A9E1"/>
<path d="M182.019 73.9105C180.617 73.9105 179.416 73.7101 178.414 73.1093C177.413 72.5084 176.812 71.5071 176.812 70.706C176.812 69.7045 177.413 68.9035 178.414 68.3026C180.417 67.1009 183.621 67.1009 185.624 68.3026C186.626 68.9035 187.227 69.9048 187.227 70.706C187.227 71.7074 186.626 72.5084 185.624 73.1093C184.623 73.5098 183.421 73.9105 182.019 73.9105ZM182.019 68.5029C181.018 68.5029 179.816 68.703 179.015 69.1036C178.414 69.5042 178.014 69.9049 178.014 70.5057C178.014 70.9063 178.414 71.5071 179.015 71.9076C180.617 72.909 183.421 72.909 185.024 71.9076C185.624 71.5071 186.025 71.1066 186.025 70.5057C186.025 70.1052 185.624 69.5042 185.024 69.1036C184.222 68.703 183.221 68.5029 182.019 68.5029Z" fill="black"/>
<path d="M178.814 70.5058C180.617 69.5044 183.621 69.5044 185.424 70.5058C185.824 70.7061 186.225 71.1067 186.425 71.5072C187.026 70.5058 186.826 69.3041 185.424 68.7032C183.621 67.7018 180.617 67.7018 178.814 68.7032C177.412 69.5044 177.212 70.7061 177.813 71.5072C178.013 71.1067 178.214 70.9064 178.814 70.5058Z" fill="#36A9E1"/>
<path d="M185.423 72.5089L185.824 71.9079C185.624 71.7076 185.423 71.307 185.023 71.1067C183.421 70.1053 180.617 70.1053 179.014 71.1067C178.614 71.307 178.413 71.5073 178.213 71.9079L178.413 72.3086L177.212 71.9079C176.811 71.3071 176.611 70.7061 176.811 70.1053C177.012 69.3042 177.612 68.7033 178.413 68.1025C180.416 66.9007 183.621 66.9007 185.624 68.1025C186.425 68.7033 187.026 69.3042 187.226 70.1053C187.426 70.7061 187.226 71.3071 186.825 71.9079L185.423 72.5089ZM182.019 69.1039C183.421 69.1039 184.622 69.3042 185.624 69.9051C185.824 69.9051 185.824 70.1053 186.024 70.1053C185.824 69.7047 185.624 69.3042 185.023 69.1039C183.421 68.1025 180.617 68.1025 179.014 69.1039C178.413 69.3042 178.213 69.7047 178.013 70.1053C178.013 70.1053 178.213 69.9051 178.413 69.9051C179.415 69.5045 180.817 69.1039 182.019 69.1039Z" fill="black"/>
<path d="M183.021 67.7021V70.1055H179.616L177.813 71.1069L178.013 69.3045L179.616 68.1026L183.021 67.7021Z" fill="black"/>
<path d="M184.422 75.7132L184.823 79.9192L189.63 78.7175L192.434 75.9135L192.234 72.9092L191.232 71.5073L188.829 74.3114L184.422 75.7132Z" fill="black"/>
</svg>
