<svg width="399" height="113" viewBox="0 0 399 113" fill="none" xmlns="http://www.w3.org/2000/svg">
<path d="M158.335 8H165.835V43H158.335V28.9H142.635V43H135.135V8H142.635V22.1H158.335V8ZM193.578 36.8C193.578 37.8667 194.144 38.4 195.278 38.4C195.744 38.4 196.178 38.3333 196.578 38.2V42.75C195.311 43.2167 194.028 43.45 192.728 43.45C190.194 43.45 188.428 42.55 187.428 40.75C184.928 42.7167 182.044 43.7 178.778 43.7C176.411 43.7 174.411 43.05 172.778 41.75C171.178 40.4167 170.378 38.6167 170.378 36.35C170.378 34.45 170.944 32.8667 172.078 31.6C173.211 30.3333 174.528 29.4833 176.028 29.05C177.528 28.5833 179.161 28.35 180.928 28.35C182.894 28.35 184.794 28.5667 186.628 29V28.15C186.628 26.9167 186.144 25.9333 185.178 25.2C184.211 24.4667 182.811 24.1 180.978 24.1C178.311 24.1 175.478 24.7 172.478 25.9V19.9C175.678 18.8333 178.778 18.3 181.778 18.3C189.644 18.3 193.578 21.9167 193.578 29.15V36.8ZM182.528 32.5C181.094 32.5 179.894 32.7667 178.928 33.3C177.961 33.8333 177.478 34.6667 177.478 35.8C177.478 36.6667 177.828 37.3833 178.528 37.95C179.261 38.4833 180.161 38.75 181.228 38.75C183.328 38.75 185.128 38.1 186.628 36.8V33.05C185.094 32.6833 183.728 32.5 182.528 32.5ZM235.102 43H200.302V19H207.252V37.15H214.252V19H221.152V37.15H228.202V19H235.102V43ZM247.074 43H241.024V19H247.974V32.5L258.674 19H264.674V43H257.774V29.5L247.074 43ZM32.8131 99H25.8631V75H49.4631V99H42.5131V80.85H32.8131V99ZM61.5053 78.5C63.4719 75.7 66.3719 74.3 70.2053 74.3C73.8386 74.3 76.6886 75.55 78.7553 78.05C80.8553 80.5167 81.9053 83.5 81.9053 87C81.9053 90.5 80.8553 93.5 78.7553 96C76.6886 98.4667 73.8386 99.7 70.2053 99.7C66.9053 99.7 64.2719 98.6167 62.3053 96.45V110H55.3553V75H61.5053V78.5ZM73.1053 91.9C74.2386 90.5667 74.8053 88.9333 74.8053 87C74.8053 85.0667 74.2386 83.45 73.1053 82.15C71.9719 80.8167 70.4386 80.15 68.5053 80.15C67.0719 80.15 65.7886 80.5333 64.6553 81.3C63.5553 82.0667 62.7553 83.0167 62.2553 84.15V89.85C62.7553 90.9833 63.5553 91.9333 64.6553 92.7C65.7886 93.4667 67.0719 93.85 68.5053 93.85C70.4386 93.85 71.9719 93.2 73.1053 91.9ZM85.1088 87C85.1088 84.8333 85.4921 82.9167 86.2588 81.25C87.0255 79.55 88.0255 78.2167 89.2588 77.25C90.5255 76.2833 91.8421 75.55 93.2088 75.05C94.6088 74.55 96.0255 74.3 97.4588 74.3C99.8588 74.3 101.925 74.75 103.659 75.65C105.425 76.55 106.725 77.7167 107.559 79.15C108.392 80.55 108.959 82.15 109.259 83.95C109.592 85.7167 109.509 87.4833 109.009 89.25H92.1088C92.4755 90.9167 93.4421 92.1667 95.0088 93C96.5755 93.8 98.4255 94.2 100.559 94.2C103.192 94.2 105.609 93.7167 107.809 92.75V98.2C105.442 99.2 102.509 99.7 99.0088 99.7C95.0088 99.7 91.6921 98.5833 89.0588 96.35C86.4255 94.1167 85.1088 91 85.1088 87ZM102.759 84.75C102.925 83.65 102.609 82.5167 101.809 81.35C101.009 80.1833 99.6421 79.6 97.7088 79.6C96.1755 79.6 94.8588 80.0667 93.7588 81C92.6588 81.9 92.0921 83.15 92.0588 84.75H102.759ZM119.755 99H113.705V75H120.655V88.5L131.355 75H137.355V99H130.455V85.5L119.755 99ZM149.996 99H143.246V75H149.896L157.346 86.9L164.846 75H171.446V99H164.746V84.85L159.096 93.8H155.646L149.996 84.85V99ZM188.878 91.2L194.828 75H202.028L191.378 101.9C189.011 107.733 185.561 110.65 181.028 110.65C180.061 110.65 178.811 110.467 177.278 110.1V104.35C178.378 104.583 179.328 104.7 180.128 104.7C182.661 104.7 184.561 102.95 185.828 99.45L185.878 99.35L174.528 75H181.878L188.878 91.2ZM243.902 105.35H237.502V99H205.502V75H212.452V93.15H219.452V75H226.352V93.15H233.402V75H240.302V93.3H243.902V105.35ZM246.388 87C246.388 84.8333 246.771 82.9167 247.538 81.25C248.305 79.55 249.305 78.2167 250.538 77.25C251.805 76.2833 253.121 75.55 254.488 75.05C255.888 74.55 257.305 74.3 258.738 74.3C261.138 74.3 263.205 74.75 264.938 75.65C266.705 76.55 268.005 77.7167 268.838 79.15C269.671 80.55 270.238 82.15 270.538 83.95C270.871 85.7167 270.788 87.4833 270.288 89.25H253.388C253.755 90.9167 254.721 92.1667 256.288 93C257.855 93.8 259.705 94.2 261.838 94.2C264.471 94.2 266.888 93.7167 269.088 92.75V98.2C266.721 99.2 263.788 99.7 260.288 99.7C256.288 99.7 252.971 98.5833 250.338 96.35C247.705 94.1167 246.388 91 246.388 87ZM264.038 84.75C264.205 83.65 263.888 82.5167 263.088 81.35C262.288 80.1833 260.921 79.6 258.988 79.6C257.455 79.6 256.138 80.0667 255.038 81C253.938 81.9 253.371 83.15 253.338 84.75H264.038ZM273.634 87.35C273.634 85.15 274.018 83.1833 274.784 81.45C275.584 79.7167 276.634 78.35 277.934 77.35C279.234 76.3167 280.668 75.55 282.234 75.05C283.801 74.5167 285.451 74.25 287.184 74.25C289.951 74.25 292.418 74.8333 294.584 76V82.1C292.718 80.9 290.584 80.3 288.184 80.3C286.084 80.3 284.318 80.85 282.884 81.95C281.451 83.05 280.734 84.7333 280.734 87C280.734 89.1667 281.451 90.8333 282.884 92C284.318 93.1333 286.051 93.7 288.084 93.7C290.651 93.7 292.901 93.1167 294.834 91.95V98.1C292.334 99.1667 289.634 99.7 286.734 99.7C283.134 99.7 280.051 98.65 277.484 96.55C274.918 94.4167 273.634 91.35 273.634 87.35ZM312.042 99H305.142V80.85H297.492V75H319.692V80.85H312.042V99ZM338.122 99H323.422V75H337.722C340.388 75 342.372 75.6167 343.672 76.85C344.972 78.05 345.622 79.55 345.622 81.35C345.622 84.0833 344.388 85.9167 341.922 86.85C344.755 87.7833 346.172 89.6667 346.172 92.5C346.172 94.4 345.538 95.9667 344.272 97.2C343.005 98.4 340.955 99 338.122 99ZM330.372 89.05V94.25H336.072C338.205 94.25 339.272 93.4 339.272 91.7C339.272 89.9333 338.205 89.05 336.072 89.05H330.372ZM330.322 79.75V84.85H335.622C337.622 84.85 338.622 84.0167 338.622 82.35C338.622 80.6167 337.605 79.75 335.572 79.75H330.322ZM372.313 92.8C372.313 93.8667 372.88 94.4 374.013 94.4C374.48 94.4 374.913 94.3333 375.313 94.2V98.75C374.046 99.2167 372.763 99.45 371.463 99.45C368.93 99.45 367.163 98.55 366.163 96.75C363.663 98.7167 360.78 99.7 357.513 99.7C355.146 99.7 353.146 99.05 351.513 97.75C349.913 96.4167 349.113 94.6167 349.113 92.35C349.113 90.45 349.68 88.8667 350.813 87.6C351.946 86.3333 353.263 85.4833 354.763 85.05C356.263 84.5833 357.896 84.35 359.663 84.35C361.63 84.35 363.53 84.5667 365.363 85V84.15C365.363 82.9167 364.88 81.9333 363.913 81.2C362.946 80.4667 361.546 80.1 359.713 80.1C357.046 80.1 354.213 80.7 351.213 81.9V75.9C354.413 74.8333 357.513 74.3 360.513 74.3C368.38 74.3 372.313 77.9167 372.313 85.15V92.8ZM361.263 88.5C359.83 88.5 358.63 88.7667 357.663 89.3C356.696 89.8333 356.213 90.6667 356.213 91.8C356.213 92.6667 356.563 93.3833 357.263 93.95C357.996 94.4833 358.896 94.75 359.963 94.75C362.063 94.75 363.863 94.1 365.363 92.8V89.05C363.83 88.6833 362.463 88.5 361.263 88.5Z" fill="#36A9E1"/>
<path d="M328.671 40.4733L320.317 31.51L321.709 30.3786L321.796 30.4656L330.759 22.6335C330.846 22.5465 330.759 22.3725 330.672 22.3725L324.842 23.5907L324.755 23.5037L314.399 18.5434C313.877 18.2824 313.355 17.7602 313.007 17.2381L311.614 14.8884L311.701 15.0625L314.225 12.3648L309.09 0.790616C309.09 0.703592 308.917 0.703613 308.83 0.703613L303.956 4.96779C303.869 5.05481 303.782 5.14175 303.782 5.31579L301.607 11.7556L294.732 7.66549C294.645 7.57847 294.558 7.57847 294.471 7.66549L289.945 11.5815L289.597 11.9297C289.162 12.3648 289.249 13.322 290.12 14.2793L298.822 24.113C299.257 24.6351 299.518 25.2442 299.605 25.7663L299.953 35.513C299.953 36.8184 301.519 38.2978 302.564 38.0367L310.57 36.2091C311.005 36.1221 311.527 36.2962 312.049 36.7314L321.97 44.6505C322.666 45.2596 323.362 45.2597 323.71 44.9986L328.671 40.7344C328.758 40.6474 328.758 40.5603 328.671 40.4733Z" fill="#36A9E1"/>
<path d="M292.73 16.6288L293.078 16.2808L297.603 12.3648C297.69 12.2778 297.777 12.2778 297.865 12.3648L304.739 16.4548L306.915 10.0151C307.002 9.84104 307.002 9.75399 307.089 9.66697L311.353 5.92502L309.09 0.790616C309.09 0.703592 308.917 0.703613 308.83 0.703613L303.956 4.96779C303.869 5.05481 303.782 5.14175 303.782 5.31579L301.607 11.7556L294.732 7.66549C294.645 7.57847 294.558 7.57847 294.471 7.66549L289.945 11.5815L289.597 11.9297C289.162 12.3648 289.249 13.322 290.12 14.2793L292.556 16.977C292.556 16.8899 292.643 16.7159 292.73 16.6288Z" fill="white"/>
<path d="M302.738 30.3785C302.738 29.8564 302.477 29.2472 301.955 28.7251L299.605 26.0273L299.953 35.4259C299.953 36.7313 301.52 38.2106 302.564 37.9495L302.912 37.8625L302.738 30.3785Z" fill="#36A9E1"/>
<path d="M300.301 37.3405C299.779 36.8183 299.518 36.1222 299.518 35.513L299.17 25.7663C299.17 25.3312 298.909 24.8961 298.561 24.3739L289.859 14.5403C288.901 13.4961 288.727 12.1907 289.423 11.5815L294.297 7.31735C294.558 7.14331 294.819 7.05631 295.08 7.23035L301.52 11.0594L303.521 5.14177C303.608 4.96772 303.695 4.79369 303.869 4.61965L308.743 0.355475C308.917 0.268451 309.091 0.181449 309.265 0.268473C309.439 0.268473 309.613 0.442541 309.7 0.616588L314.921 12.3648L312.398 14.9755L313.529 16.9769C313.79 17.4991 314.225 17.9342 314.747 18.1083L325.016 23.0686L330.673 21.8502C330.934 21.7632 331.195 21.9373 331.282 22.1113C331.369 22.3724 331.369 22.6335 331.108 22.8076L321.709 30.9877L321.622 30.8137L321.013 31.3358L329.019 39.9512C329.106 40.0382 329.193 40.2122 329.193 40.3863C329.193 40.5603 329.106 40.7344 329.019 40.8214L324.059 45.0856C323.45 45.5207 322.579 45.3466 321.796 44.7375L311.876 36.8183C311.44 36.4702 311.005 36.2962 310.744 36.3832L302.738 38.2107C302.216 38.2977 301.607 38.1237 300.998 37.6886C300.65 37.7756 300.475 37.6015 300.301 37.3405ZM299.17 23.8518C299.692 24.461 299.953 25.1571 300.04 25.6793L300.388 35.426C300.388 35.9481 300.824 36.7313 301.433 37.1665C301.868 37.5146 302.216 37.6015 302.477 37.5145L310.483 35.687C311.005 35.6 311.702 35.7741 312.311 36.2962L322.231 44.2153C322.84 44.6505 323.275 44.7375 323.45 44.5635L328.149 40.4733L319.708 31.3358L321.883 29.5083L321.97 29.5953L329.715 22.8076L324.755 23.8518L324.581 23.7648L314.225 18.8044C313.616 18.5433 313.007 17.9342 312.659 17.3251L311.266 14.9755L311.614 14.8014L311.44 14.6273L313.79 12.1906L308.917 1.22571L304.304 5.22877C304.304 5.22877 304.217 5.31586 304.217 5.40288L301.868 12.3648L294.645 8.10059L289.859 12.2777C289.598 12.4517 289.684 13.3219 290.381 14.0181L299.17 23.8518Z" fill="black"/>
<path d="M311.701 1.92199L318.054 12.8869C318.402 13.4961 318.924 13.9312 319.447 14.1923L329.802 19.1526C331.108 19.7617 331.978 21.6762 331.282 22.2854L325.451 27.1588C325.19 27.4199 325.103 27.855 325.277 28.4642L329.019 39.4291C329.541 40.8215 328.323 41.4306 327.018 40.3863L317.097 32.4672C316.575 32.0321 316.052 31.8581 315.617 31.9451L307.611 33.7726C306.567 34.0336 305.001 32.5542 305.001 31.2489L304.653 21.5023C304.653 20.9801 304.391 20.3709 303.869 19.8488L295.167 10.0151C294.036 8.70975 294.21 7.23033 295.515 7.4914L305.262 9.40599C305.784 9.49301 306.132 9.31898 306.306 8.88387L308.917 0.964642C309.178 -0.0796396 310.831 0.52961 311.701 1.92199Z" fill="white"/>
<path d="M296.037 10.7983L303.956 19.6746C304.391 20.1968 304.652 20.8059 304.739 21.3281L305.088 31.0748C305.088 32.3801 306.654 33.8594 307.698 33.5984L315.705 31.7709C316.14 31.6839 316.662 31.8579 317.184 32.293L324.668 38.2977L322.144 31.0748C321.97 30.5526 322.057 30.0305 322.318 29.7694L325.277 27.3327C325.364 27.2457 325.364 27.1586 325.451 27.0716L328.323 24.635C328.671 23.8518 327.888 22.3724 326.67 21.8502L316.314 16.8899C315.791 16.6288 315.269 16.1067 314.921 15.5846L308.569 4.61962C308.395 4.27153 308.133 4.01046 307.872 3.74939L306.219 8.79669C306.045 9.23181 305.697 9.40594 305.175 9.31891L303.869 9.0578L303.086 11.4945C302.912 11.9296 302.564 12.1036 302.042 12.0166L296.037 10.7983Z" fill="#36A9E1"/>
<path d="M305.349 32.9892C304.827 32.4671 304.565 31.7709 304.565 31.1618L304.217 21.4151C304.217 20.98 303.956 20.4578 303.608 20.0227L294.906 10.1891C294.123 9.31889 293.862 8.1875 294.21 7.49131C294.471 7.05619 294.993 6.79514 295.602 6.96919L305.349 8.88377C305.61 8.9708 305.784 8.88371 305.871 8.70966L308.481 0.790545C308.655 0.355428 309.003 0.00731278 309.526 0.00731278C310.396 -0.0797107 311.527 0.616477 312.136 1.74778L318.489 12.7127C318.75 13.2349 319.185 13.67 319.708 13.8441L330.063 18.8044C331.021 19.2395 331.891 20.3708 331.978 21.3281C332.065 21.8502 331.891 22.2853 331.543 22.5464L325.712 27.4197C325.538 27.5938 325.538 27.8548 325.712 28.2899L329.454 39.2549C329.715 40.0381 329.628 40.7344 329.106 41.0825C328.497 41.5176 327.627 41.3435 326.843 40.6473L316.923 32.7281C316.488 32.38 316.053 32.206 315.791 32.293L307.785 34.1206C307.263 34.2076 306.654 34.0335 306.045 33.5984C305.697 33.3373 305.523 33.1633 305.349 32.9892ZM304.217 19.5006C304.739 20.1098 305.001 20.8059 305.088 21.3281L305.436 31.0748C305.436 31.5969 305.871 32.3801 306.48 32.8152C306.915 33.1633 307.263 33.2503 307.524 33.1632L315.53 31.3358C316.053 31.2487 316.749 31.4229 317.358 31.945L327.279 39.8641C327.888 40.2992 328.323 40.3863 328.497 40.2122C328.671 40.1252 328.671 39.7771 328.584 39.342L324.842 28.3769C324.581 27.6808 324.668 26.9846 325.103 26.6365L330.933 21.7632C331.108 21.6762 331.108 21.4151 331.021 21.2411C330.934 20.6319 330.411 19.7617 329.541 19.3266L319.185 14.3662C318.576 14.1051 317.967 13.496 317.619 12.8868L311.266 1.92189C310.744 1.05166 309.961 0.616541 309.439 0.616541C309.265 0.616541 309.178 0.703501 309.178 0.877548L306.567 8.79666C306.393 9.40583 305.784 9.66692 305.088 9.5799L295.341 7.66542C295.08 7.5784 294.906 7.66538 294.819 7.83943C294.645 8.1005 294.732 8.79671 295.428 9.49289L304.217 19.5006C304.13 19.5006 304.13 19.5006 304.217 19.5006Z" fill="black"/>
<path d="M305.784 32.9022L300.823 37.2534L301.955 38.0366L311.266 36.2962L316.488 31.7709L314.921 31.945L307.524 33.6855L306.567 33.7725L305.784 32.9022Z" fill="black"/>
<path d="M304.171 20.3036L299.192 24.6567L299.765 25.3119L304.744 20.9588L304.171 20.3036Z" fill="black"/>
<path d="M295.283 10.0796L290.304 14.4327L290.877 15.0879L295.856 10.7348L295.283 10.0796Z" fill="black"/>
<path d="M326.321 39.8641L321.361 44.2153L322.666 45.1725L323.711 44.9985L328.41 40.9084L326.321 39.8641Z" fill="black"/>
<path d="M310.116 36.4505L302.118 38.1659L302.264 38.8466L310.262 37.1312L310.116 36.4505Z" fill="#36A9E1"/>
<path d="M323.014 45.5207C322.318 45.5207 321.883 45.1725 321.709 44.8244L322.231 44.4763C322.318 44.5633 322.666 45.0855 323.624 44.7374L323.885 45.3466C323.536 45.4336 323.275 45.5207 323.014 45.5207Z" fill="#36A9E1"/>
<path d="M69.3292 40.4733L77.6834 31.51L76.2911 30.3786L76.204 30.4656L67.2406 22.6335C67.1535 22.5465 67.2406 22.3725 67.3277 22.3725L73.1582 23.5907L73.2453 23.5037L83.601 18.5434C84.1232 18.2824 84.6454 17.7602 84.9935 17.2381L86.3857 14.8884L86.2988 15.0625L83.775 12.3648L88.9095 0.790616C88.9095 0.703592 89.0834 0.703613 89.1704 0.703613L94.0438 4.96779C94.1309 5.05481 94.2178 5.14175 94.2178 5.31579L96.3934 11.7556L103.268 7.66549C103.355 7.57847 103.442 7.57847 103.529 7.66549L108.055 11.5815L108.403 11.9297C108.838 12.3648 108.751 13.322 107.88 14.2793L99.1781 24.113C98.743 24.6351 98.482 25.2442 98.395 25.7663L98.047 35.513C98.047 36.8184 96.4806 38.2978 95.4363 38.0367L87.43 36.2091C86.9948 36.1221 86.4728 36.2962 85.9506 36.7314L76.03 44.6505C75.3338 45.2596 74.6376 45.2597 74.2895 44.9986L69.3292 40.7344C69.2422 40.6474 69.2422 40.5603 69.3292 40.4733Z" fill="#36A9E1"/>
<path d="M105.27 16.6288L104.922 16.2808L100.397 12.3648C100.31 12.2778 100.223 12.2778 100.135 12.3648L93.2607 16.4548L91.0851 10.0151C90.9981 9.84104 90.9979 9.75399 90.9109 9.66697L86.6468 5.92502L88.9095 0.790616C88.9095 0.703592 89.0834 0.703613 89.1704 0.703613L94.0438 4.96779C94.1309 5.05481 94.2178 5.14175 94.2178 5.31579L96.3934 11.7556L103.268 7.66549C103.355 7.57847 103.442 7.57847 103.529 7.66549L108.055 11.5815L108.403 11.9297C108.838 12.3648 108.751 13.322 107.88 14.2793L105.444 16.977C105.444 16.8899 105.357 16.7159 105.27 16.6288Z" fill="white"/>
<path d="M95.2618 30.3785C95.2618 29.8564 95.523 29.2472 96.0452 28.7251L98.3948 26.0273L98.0468 35.4259C98.0468 36.7313 96.4803 38.2106 95.4361 37.9495L95.0878 37.8625L95.2618 30.3785Z" fill="#36A9E1"/>
<path d="M97.6986 37.3405C98.2207 36.8183 98.4819 36.1222 98.4819 35.513L98.83 25.7663C98.83 25.3312 99.091 24.8961 99.4391 24.3739L108.141 14.5403C109.099 13.4961 109.273 12.1907 108.577 11.5815L103.703 7.31735C103.442 7.14331 103.181 7.05631 102.92 7.23035L96.4804 11.0594L94.4788 5.14177C94.3918 4.96772 94.3048 4.79369 94.1308 4.61965L89.2574 0.355475C89.0833 0.268451 88.9092 0.181449 88.7351 0.268473C88.5611 0.268473 88.3871 0.442541 88.3 0.616588L83.0786 12.3648L85.6024 14.9755L84.4711 16.9769C84.21 17.4991 83.775 17.9342 83.2528 18.1083L72.984 23.0686L67.3275 21.8502C67.0664 21.7632 66.8054 21.9373 66.7184 22.1113C66.6314 22.3724 66.6313 22.6335 66.8924 22.8076L76.291 30.9877L76.3779 30.8137L76.987 31.3358L68.9809 39.9512C68.8938 40.0382 68.8069 40.2122 68.8069 40.3863C68.8069 40.5603 68.8938 40.7344 68.9809 40.8214L73.9412 45.0856C74.5503 45.5207 75.4206 45.3466 76.2039 44.7375L86.1244 36.8183C86.5596 36.4702 86.9947 36.2962 87.2558 36.3832L95.2619 38.2107C95.784 38.2977 96.3932 38.1237 97.0024 37.6886C97.3505 37.7756 97.5246 37.6015 97.6986 37.3405ZM98.83 23.8518C98.3078 24.461 98.0467 25.1571 97.9597 25.6793L97.6117 35.426C97.6117 35.9481 97.1764 36.7313 96.5673 37.1665C96.1321 37.5146 95.7841 37.6015 95.523 37.5145L87.5169 35.687C86.9948 35.6 86.2985 35.7741 85.6893 36.2962L75.7687 44.2153C75.1596 44.6505 74.7245 44.7375 74.5505 44.5635L69.8511 40.4733L78.2923 31.3358L76.1167 29.5083L76.0298 29.5953L68.2846 22.8076L73.2451 23.8518L73.4191 23.7648L83.7748 18.8044C84.384 18.5433 84.9932 17.9342 85.3413 17.3251L86.7338 14.9755L86.3856 14.8014L86.5596 14.6273L84.21 12.1906L89.0834 1.22571L93.6957 5.22877C93.6957 5.22877 93.7826 5.31586 93.7826 5.40288L96.1321 12.3648L103.355 8.10059L108.141 12.2777C108.402 12.4517 108.316 13.3219 107.619 14.0181L98.83 23.8518Z" fill="black"/>
<path d="M86.2987 1.92199L79.9459 12.8869C79.5978 13.4961 79.0756 13.9312 78.5535 14.1923L68.1978 19.1526C66.8924 19.7617 66.0222 21.6762 66.7184 22.2854L72.5489 27.1588C72.81 27.4199 72.897 27.855 72.7229 28.4642L68.9809 39.4291C68.4587 40.8215 69.6771 41.4306 70.9825 40.3863L80.9031 32.4672C81.4252 32.0321 81.9475 31.8581 82.3826 31.9451L90.3887 33.7726C91.433 34.0336 92.9994 32.5542 92.9994 31.2489L93.3475 21.5023C93.3475 20.9801 93.6087 20.3709 94.1308 19.8488L102.833 10.0151C103.964 8.70975 103.79 7.23033 102.485 7.4914L92.7383 9.40599C92.2162 9.49301 91.8681 9.31898 91.6941 8.88387L89.0834 0.964642C88.8223 -0.0796396 87.1689 0.52961 86.2987 1.92199Z" fill="white"/>
<path d="M101.963 10.7983L94.0437 19.6746C93.6085 20.1968 93.3476 20.8059 93.2605 21.3281L92.9123 31.0748C92.9123 32.3801 91.3459 33.8594 90.3016 33.5984L82.2955 31.7709C81.8604 31.6839 81.3383 31.8579 80.8161 32.293L73.332 38.2977L75.8558 31.0748C76.0299 30.5526 75.9427 30.0305 75.6816 29.7694L72.7229 27.3327C72.6359 27.2457 72.6359 27.1586 72.5489 27.0716L69.6771 24.635C69.329 23.8518 70.1121 22.3724 71.3304 21.8502L81.6864 16.8899C82.2085 16.6288 82.7305 16.1067 83.0786 15.5846L89.4314 4.61962C89.6054 4.27153 89.8665 4.01046 90.1276 3.74939L91.781 8.79669C91.955 9.23181 92.3033 9.40594 92.8254 9.31891L94.1308 9.0578L94.9139 11.4945C95.0879 11.9296 95.436 12.1036 95.9581 12.0166L101.963 10.7983Z" fill="#36A9E1"/>
<path d="M92.6513 32.9892C93.1735 32.4671 93.4347 31.7709 93.4347 31.1618L93.7827 21.4151C93.7827 20.98 94.0437 20.4578 94.3918 20.0227L103.094 10.1891C103.877 9.31889 104.138 8.1875 103.79 7.49131C103.529 7.05619 103.007 6.79514 102.398 6.96919L92.6513 8.88377C92.3903 8.9708 92.2163 8.88371 92.1293 8.70966L89.5186 0.790545C89.3446 0.355428 88.9965 0.00731278 88.4744 0.00731278C87.6041 -0.0797107 86.4728 0.616477 85.8637 1.74778L79.5109 12.7127C79.2498 13.2349 78.8146 13.67 78.2925 13.8441L67.9367 18.8044C66.9795 19.2395 66.1093 20.3708 66.0223 21.3281C65.9352 21.8502 66.1093 22.2853 66.4574 22.5464L72.2879 27.4197C72.462 27.5938 72.462 27.8548 72.2879 28.2899L68.5459 39.2549C68.2848 40.0381 68.3719 40.7344 68.8941 41.0825C69.5033 41.5176 70.3734 41.3435 71.1566 40.6473L81.0774 32.7281C81.5125 32.38 81.9474 32.206 82.2085 32.293L90.2148 34.1206C90.737 34.2076 91.3461 34.0335 91.9553 33.5984C92.3034 33.3373 92.4773 33.1633 92.6513 32.9892ZM93.7827 19.5006C93.2605 20.1098 92.9995 20.8059 92.9124 21.3281L92.5644 31.0748C92.5644 31.5969 92.1294 32.3801 91.5202 32.8152C91.0851 33.1633 90.7368 33.2503 90.4757 33.1632L82.4696 31.3358C81.9475 31.2487 81.2514 31.4229 80.6423 31.945L70.7215 39.8641C70.1123 40.2992 69.6773 40.3863 69.5032 40.2122C69.3292 40.1252 69.3291 39.7771 69.4161 39.342L73.1582 28.3769C73.4192 27.6808 73.3322 26.9846 72.897 26.6365L67.0665 21.7632C66.8925 21.6762 66.8924 21.4151 66.9794 21.2411C67.0664 20.6319 67.5887 19.7617 68.459 19.3266L78.8147 14.3662C79.4238 14.1051 80.0331 13.496 80.3811 12.8868L86.7339 1.92189C87.256 1.05166 88.0391 0.616541 88.5613 0.616541C88.7353 0.616541 88.8224 0.703501 88.8224 0.877548L91.4331 8.79666C91.6071 9.40583 92.2163 9.66692 92.9124 9.5799L102.659 7.66542C102.92 7.5784 103.094 7.66538 103.181 7.83943C103.355 8.1005 103.268 8.79671 102.572 9.49289L93.7827 19.5006C93.8697 19.5006 93.8697 19.5006 93.7827 19.5006Z" fill="black"/>
<path d="M92.2162 32.9022L97.1768 37.2534L96.0454 38.0366L86.7339 36.2962L81.5125 31.7709L83.0788 31.945L90.4758 33.6855L91.4331 33.7725L92.2162 32.9022Z" fill="black"/>
<path d="M93.8287 20.3036L98.8081 24.6567L98.2353 25.3119L93.2559 20.9588L93.8287 20.3036Z" fill="black"/>
<path d="M102.717 10.0796L107.696 14.4327L107.123 15.0879L102.144 10.7348L102.717 10.0796Z" fill="black"/>
<path d="M71.6786 39.8641L76.6389 44.2153L75.3336 45.1725L74.2893 44.9985L69.5899 40.9084L71.6786 39.8641Z" fill="black"/>
<path d="M87.8838 36.4505L95.8823 38.1659L95.7363 38.8466L87.7378 37.1312L87.8838 36.4505Z" fill="#36A9E1"/>
<path d="M74.9854 45.5207C75.6816 45.5207 76.1167 45.1725 76.2908 44.8244L75.7685 44.4763C75.6815 44.5633 75.3333 45.0855 74.3761 44.7374L74.1152 45.3466C74.4633 45.4336 74.7243 45.5207 74.9854 45.5207Z" fill="#36A9E1"/>
</svg>
