<svg width="84" height="146" viewBox="0 0 84 146" fill="none" xmlns="http://www.w3.org/2000/svg">
<path d="M58.6181 142.214C59.2005 142.603 59.2005 142.991 58.6181 143.379C58.0357 143.767 57.2591 143.767 56.6767 143.379C56.0943 142.991 56.0943 142.603 56.6767 142.214C57.2591 141.826 58.2298 141.826 58.6181 142.214Z" fill="#16110D"/>
<path d="M63.6661 139.302C64.2485 139.691 64.2485 140.079 63.6661 140.467C63.0837 140.855 62.3071 140.855 61.7247 140.467C61.1422 140.079 61.1422 139.691 61.7247 139.302C62.3071 139.108 63.0837 139.108 63.6661 139.302Z" fill="#16110D"/>
<path d="M68.5187 136.584C69.1012 136.973 69.1012 137.361 68.5187 137.749C67.9363 138.138 67.1597 138.138 66.5773 137.749C65.9949 137.361 65.9949 136.973 66.5773 136.584C67.1597 136.196 67.9363 136.196 68.5187 136.584Z" fill="#16110D"/>
<path d="M52.7947 140.661C53.5452 140.661 54.1536 140.313 54.1536 139.885C54.1536 139.456 53.5452 139.108 52.7947 139.108C52.0441 139.108 51.4353 139.456 51.4353 139.885C51.4353 140.313 52.0441 140.661 52.7947 140.661Z" fill="#16110D"/>
<path d="M58.6181 136.584C59.2005 136.973 59.2005 137.361 58.6181 137.749C58.0357 138.138 57.2591 138.138 56.6767 137.749C56.0943 137.361 56.0943 136.973 56.6767 136.584C57.2591 136.196 58.2298 136.196 58.6181 136.584Z" fill="#16110D"/>
<path d="M62.6964 135.031C63.447 135.031 64.0553 134.683 64.0553 134.254C64.0553 133.825 63.447 133.478 62.6964 133.478C61.9459 133.478 61.3375 133.825 61.3375 134.254C61.3375 134.683 61.9459 135.031 62.6964 135.031Z" fill="#16110D"/>
<path d="M48.9117 136.584C49.4941 136.973 49.4941 137.361 48.9117 137.749C48.3293 138.138 47.5527 138.138 46.9703 137.749C46.3878 137.361 46.3878 136.973 46.9703 136.584C47.5527 136.196 48.3293 136.196 48.9117 136.584Z" fill="#16110D"/>
<path d="M53.765 133.672C54.3474 134.061 54.3474 134.449 53.765 134.837C53.1825 135.226 52.406 135.226 51.8235 134.837C51.2411 134.449 51.2411 134.061 51.8235 133.672C52.406 133.284 53.1825 133.284 53.765 133.672Z" fill="#16110D"/>
<path d="M58.6181 130.76C59.2005 131.148 59.2005 131.537 58.6181 131.925C58.0357 132.313 57.2591 132.313 56.6767 131.925C56.0943 131.537 56.0943 131.148 56.6767 130.76C57.2591 130.566 58.2298 130.566 58.6181 130.76Z" fill="#16110D"/>
<path d="M42.8936 135.031C43.6441 135.031 44.2525 134.683 44.2525 134.254C44.2525 133.825 43.6441 133.478 42.8936 133.478C42.143 133.478 41.5347 133.825 41.5347 134.254C41.5347 134.683 42.143 135.031 42.8936 135.031Z" fill="#16110D"/>
<path d="M48.9117 130.76C49.4941 131.148 49.4941 131.537 48.9117 131.925C48.3293 132.313 47.5527 132.313 46.9703 131.925C46.3878 131.537 46.3878 131.148 46.9703 130.76C47.5527 130.566 48.3293 130.566 48.9117 130.76Z" fill="#16110D"/>
<path d="M52.7947 129.207C53.5452 129.207 54.1536 128.859 54.1536 128.43C54.1536 128.001 53.5452 127.653 52.7947 127.653C52.0441 127.653 51.4353 128.001 51.4353 128.43C51.4353 128.859 52.0441 129.207 52.7947 129.207Z" fill="#16110D"/>
<path d="M39.0096 130.76C39.592 131.148 39.592 131.537 39.0096 131.925C38.4272 132.313 37.6506 132.313 37.0682 131.925C36.4857 131.537 36.4857 131.148 37.0682 130.76C37.6506 130.372 38.4272 130.566 39.0096 130.76Z" fill="#16110D"/>
<path d="M43.8629 128.042C44.4453 128.43 44.4453 128.819 43.8629 129.207C43.2804 129.595 42.5039 129.595 41.9214 129.207C41.339 128.819 41.339 128.43 41.9214 128.042C42.5039 127.654 43.4746 127.654 43.8629 128.042Z" fill="#16110D"/>
<path d="M48.9117 125.13C49.4941 125.518 49.4941 125.906 48.9117 126.295C48.3293 126.683 47.5527 126.683 46.9703 126.295C46.3878 125.906 46.3878 125.518 46.9703 125.13C47.5527 124.936 48.3293 124.936 48.9117 125.13Z" fill="#16110D"/>
<path d="M33.9626 128.042C34.545 128.43 34.545 128.819 33.9626 129.207C33.3802 129.595 32.6036 129.595 32.0212 129.207C31.4387 128.819 31.4387 128.43 32.0212 128.042C32.6036 127.654 33.5743 127.654 33.9626 128.042Z" fill="#16110D"/>
<path d="M39.0096 125.13C39.592 125.518 39.592 125.906 39.0096 126.295C38.4272 126.683 37.6506 126.683 37.0682 126.295C36.4857 125.906 36.4857 125.518 37.0682 125.13C37.6506 124.742 38.4272 124.742 39.0096 125.13Z" fill="#16110D"/>
<path d="M43.8629 122.218C44.4453 122.606 44.4453 122.994 43.8629 123.383C43.2804 123.771 42.5039 123.771 41.9214 123.383C41.339 122.994 41.339 122.606 41.9214 122.218C42.5039 122.024 43.2804 122.024 43.8629 122.218Z" fill="#16110D"/>
<path d="M29.1085 125.13C29.6909 125.518 29.6909 125.906 29.1085 126.295C28.526 126.683 27.7495 126.683 27.167 126.295C26.5846 125.906 26.5846 125.518 27.167 125.13C27.7495 124.742 28.526 124.742 29.1085 125.13Z" fill="#16110D"/>
<path d="M33.1857 123.577C33.9362 123.577 34.5446 123.229 34.5446 122.8C34.5446 122.371 33.9362 122.024 33.1857 122.024C32.4351 122.024 31.8268 122.371 31.8268 122.8C31.8268 123.229 32.4351 123.577 33.1857 123.577Z" fill="#16110D"/>
<path d="M38.0399 120.665C38.7905 120.665 39.3988 120.317 39.3988 119.888C39.3988 119.459 38.7905 119.112 38.0399 119.112C37.2894 119.112 36.681 119.459 36.681 119.888C36.681 120.317 37.2894 120.665 38.0399 120.665Z" fill="#16110D"/>
<path d="M24.2557 122.218C24.8381 122.606 24.8381 122.994 24.2557 123.383C23.6733 123.771 22.8967 123.771 22.3143 123.383C21.7318 122.994 21.7318 122.606 22.3143 122.218C22.8967 122.024 23.6733 122.024 24.2557 122.218Z" fill="#16110D"/>
<path d="M29.1085 119.5C29.6909 119.888 29.6909 120.277 29.1085 120.665C28.526 121.053 27.7495 121.053 27.167 120.665C26.5846 120.277 26.5846 119.888 27.167 119.5C27.7495 119.112 28.526 119.112 29.1085 119.5Z" fill="#16110D"/>
<path d="M33.9626 116.588C34.545 116.976 34.545 117.364 33.9626 117.753C33.3802 118.141 32.6036 118.141 32.0212 117.753C31.4387 117.364 31.4387 116.976 32.0212 116.588C32.6036 116.394 33.5743 116.394 33.9626 116.588Z" fill="#16110D"/>
<path d="M18.4309 120.665C19.1815 120.665 19.7903 120.317 19.7903 119.888C19.7903 119.459 19.1815 119.112 18.4309 119.112C17.6804 119.112 17.072 119.459 17.072 119.888C17.072 120.317 17.6804 120.665 18.4309 120.665Z" fill="#16110D"/>
<path d="M24.2557 116.588C24.8381 116.976 24.8381 117.364 24.2557 117.753C23.6733 118.141 22.8967 118.141 22.3143 117.753C21.7318 117.364 21.7318 116.976 22.3143 116.588C22.8967 116.394 23.6733 116.394 24.2557 116.588Z" fill="#16110D"/>
<path d="M28.1378 115.034C28.8884 115.034 29.4972 114.687 29.4972 114.258C29.4972 113.829 28.8884 113.481 28.1378 113.481C27.3873 113.481 26.7789 113.829 26.7789 114.258C26.7789 114.687 27.3873 115.034 28.1378 115.034Z" fill="#16110D"/>
<path d="M14.3541 116.588C14.9365 116.976 14.9365 117.364 14.3541 117.753C13.7716 118.141 12.9951 118.141 12.4126 117.753C11.8302 117.364 11.8302 116.976 12.4126 116.588C12.9951 116.394 13.9658 116.394 14.3541 116.588Z" fill="#16110D"/>
<path d="M19.402 113.676C19.9845 114.064 19.9845 114.452 19.402 114.84C18.8196 115.229 18.043 115.229 17.4606 114.84C16.8782 114.452 16.8782 114.064 17.4606 113.676C18.043 113.481 18.8196 113.481 19.402 113.676Z" fill="#16110D"/>
<path d="M24.2557 110.957C24.8381 111.346 24.8381 111.734 24.2557 112.122C23.6733 112.51 22.8967 112.51 22.3143 112.122C21.7318 111.734 21.7318 111.346 22.3143 110.957C22.8967 110.569 23.6733 110.569 24.2557 110.957Z" fill="#16110D"/>
<path d="M8.52918 115.034C9.27973 115.034 9.88808 114.687 9.88808 114.258C9.88808 113.829 9.27973 113.481 8.52918 113.481C7.77863 113.481 7.17029 113.829 7.17029 114.258C7.17029 114.687 7.77863 115.034 8.52918 115.034Z" fill="#16110D"/>
<path d="M14.3541 110.957C14.9365 111.346 14.9365 111.734 14.3541 112.122C13.7716 112.51 12.9951 112.51 12.4126 112.122C11.8302 111.734 11.8302 111.346 12.4126 110.957C12.9951 110.569 13.9658 110.569 14.3541 110.957Z" fill="#16110D"/>
<path d="M18.4309 109.404C19.1815 109.404 19.7903 109.057 19.7903 108.628C19.7903 108.199 19.1815 107.851 18.4309 107.851C17.6804 107.851 17.072 108.199 17.072 108.628C17.072 109.057 17.6804 109.404 18.4309 109.404Z" fill="#16110D"/>
<path d="M4.64715 110.957C5.22958 111.346 5.22958 111.734 4.64715 112.122C4.06473 112.51 3.28816 112.51 2.70574 112.122C2.12331 111.734 2.12331 111.346 2.70574 110.957C3.28816 110.569 4.06473 110.569 4.64715 110.957Z" fill="#16110D"/>
<path d="M9.50079 108.045C10.0832 108.434 10.0832 108.822 9.50079 109.21C8.91837 109.598 8.1418 109.598 7.55938 109.21C6.97695 108.822 6.97695 108.434 7.55938 108.045C8.1418 107.851 8.91837 107.851 9.50079 108.045Z" fill="#16110D"/>
<path d="M14.3541 105.327C14.9365 105.716 14.9365 106.104 14.3541 106.492C13.7716 106.88 12.9951 106.88 12.4126 106.492C11.8302 106.104 11.8302 105.716 12.4126 105.327C12.9951 104.939 13.9658 104.939 14.3541 105.327Z" fill="#16110D"/>
<path d="M4.64715 105.327C5.22958 105.716 5.22958 106.104 4.64715 106.492C4.06473 106.88 3.28816 106.88 2.70574 106.492C2.12331 106.104 2.12331 105.716 2.70574 105.327C3.28816 104.939 4.06473 104.939 4.64715 105.327Z" fill="#16110D"/>
<path d="M9.50079 102.415C10.0832 102.804 10.0832 103.192 9.50079 103.58C8.91837 103.969 8.1418 103.969 7.55938 103.58C6.97695 103.192 6.97695 102.804 7.55938 102.415C8.1418 102.027 8.91837 102.027 9.50079 102.415Z" fill="#16110D"/>
<path d="M73.5677 144.544C74.1501 144.932 74.1501 145.32 73.5677 145.709C72.9853 146.097 72.2087 146.097 71.6263 145.709C71.0438 145.32 71.0438 144.932 71.6263 144.544C72.2087 144.156 72.9853 144.156 73.5677 144.544Z" fill="#16110D"/>
<path d="M78.4205 141.632C79.0029 142.02 79.0029 142.408 78.4205 142.797C77.838 143.185 77.0615 143.185 76.4791 142.797C75.8966 142.408 75.8966 142.02 76.4791 141.632C77.0615 141.438 78.0322 141.438 78.4205 141.632Z" fill="#16110D"/>
<path d="M62.8892 145.903C63.6397 145.903 64.2481 145.555 64.2481 145.126C64.2481 144.698 63.6397 144.35 62.8892 144.35C62.1386 144.35 61.5303 144.698 61.5303 145.126C61.5303 145.555 62.1386 145.903 62.8892 145.903Z" fill="#16110D"/>
<path d="M67.7424 142.991C68.493 142.991 69.1013 142.643 69.1013 142.214C69.1013 141.785 68.493 141.438 67.7424 141.438C66.9919 141.438 66.3835 141.785 66.3835 142.214C66.3835 142.643 66.9919 142.991 67.7424 142.991Z" fill="#16110D"/>
<path d="M72.5966 140.273C73.3471 140.273 73.9555 139.925 73.9555 139.496C73.9555 139.067 73.3471 138.719 72.5966 138.719C71.846 138.719 71.2377 139.067 71.2377 139.496C71.2377 139.925 71.846 140.273 72.5966 140.273Z" fill="#16110D"/>
<path d="M73.373 133.672C73.9554 134.061 73.9554 134.449 73.373 134.837C72.7906 135.226 72.014 135.226 71.4316 134.837C70.8491 134.449 70.8491 134.061 71.4316 133.672C72.014 133.284 72.9847 133.284 73.373 133.672Z" fill="#16110D"/>
<path d="M78.4205 130.76C79.0029 131.148 79.0029 131.537 78.4205 131.925C77.838 132.313 77.0615 132.313 76.4791 131.925C75.8966 131.537 75.8966 131.148 76.4791 130.76C77.0615 130.566 77.838 130.566 78.4205 130.76Z" fill="#16110D"/>
<path d="M73.373 128.042C73.9554 128.43 73.9554 128.819 73.373 129.207C72.7906 129.595 72.014 129.595 71.4316 129.207C70.8491 128.819 70.8491 128.43 71.4316 128.042C72.014 127.654 72.9847 127.654 73.373 128.042Z" fill="#16110D"/>
<path d="M61.7247 128.042C62.3071 127.654 63.0837 127.654 63.6661 128.042C64.2485 128.43 64.2485 128.819 63.6661 129.207C63.0837 129.595 62.3071 129.595 61.7247 129.207C61.1422 128.819 61.1422 128.236 61.7247 128.042Z" fill="#16110D"/>
<path d="M68.5187 125.13C69.1012 125.518 69.1012 125.906 68.5187 126.295C67.9363 126.683 67.1597 126.683 66.5773 126.295C65.9949 125.906 65.9949 125.518 66.5773 125.13C67.1597 124.936 67.9363 124.936 68.5187 125.13Z" fill="#16110D"/>
<path d="M56.8714 125.13C57.4538 124.742 58.2304 124.742 58.8128 125.13C59.3952 125.518 59.3952 125.906 58.8128 126.295C58.2304 126.683 57.4538 126.683 56.8714 126.295C56.289 125.906 56.289 125.518 56.8714 125.13Z" fill="#16110D"/>
<path d="M63.6661 122.412C64.2485 122.8 64.2485 123.188 63.6661 123.577C63.0837 123.965 62.3071 123.965 61.7247 123.577C61.1422 123.188 61.1422 122.8 61.7247 122.412C62.3071 122.024 63.0837 122.024 63.6661 122.412Z" fill="#16110D"/>
<path d="M51.8239 122.412C52.4064 122.024 53.1829 122.024 53.7653 122.412C54.3478 122.8 54.3478 123.188 53.7653 123.577C53.1829 123.965 52.4064 123.965 51.8239 123.577C51.4356 123.188 51.4356 122.606 51.8239 122.412Z" fill="#16110D"/>
<path d="M57.8422 120.859C58.5927 120.859 59.2011 120.511 59.2011 120.082C59.2011 119.653 58.5927 119.305 57.8422 119.305C57.0916 119.305 56.4833 119.653 56.4833 120.082C56.4833 120.511 57.0916 120.859 57.8422 120.859Z" fill="#16110D"/>
<path d="M63.6661 117.753C63.0837 118.141 62.3071 118.141 61.7247 117.753C61.1422 117.364 61.1422 116.976 61.7247 116.588C62.3071 116.394 64.0544 117.364 63.6661 117.753Z" fill="#16110D"/>
<path d="M47.9401 120.859C48.6906 120.859 49.299 120.511 49.299 120.082C49.299 119.653 48.6906 119.305 47.9401 119.305C47.1895 119.305 46.5807 119.653 46.5807 120.082C46.5807 120.511 47.1895 120.859 47.9401 120.859Z" fill="#16110D"/>
<path d="M52.7947 117.946C53.5452 117.946 54.1536 117.599 54.1536 117.17C54.1536 116.741 53.5452 116.393 52.7947 116.393C52.0441 116.393 51.4353 116.741 51.4353 117.17C51.4353 117.599 52.0441 117.946 52.7947 117.946Z" fill="#16110D"/>
<path d="M58.6181 114.84C58.0357 115.229 57.2591 115.229 56.6767 114.84C56.0943 114.452 56.0943 114.064 56.6767 113.676C57.2591 113.481 59.2005 114.646 58.6181 114.84Z" fill="#16110D"/>
<path d="M42.1171 116.588C42.6995 116.199 43.4761 116.199 44.0585 116.588C44.641 116.976 44.641 117.364 44.0585 117.753C43.4761 118.141 42.6995 118.141 42.1171 117.753C41.5347 117.364 41.5347 116.976 42.1171 116.588Z" fill="#16110D"/>
<path d="M48.9117 113.87C49.4941 114.258 49.4941 114.646 48.9117 115.034C48.3293 115.423 47.5527 115.423 46.9703 115.034C46.3878 114.646 46.3878 114.258 46.9703 113.87C47.5527 113.481 48.3293 113.481 48.9117 113.87Z" fill="#16110D"/>
<path d="M53.765 112.123C53.1825 112.511 52.406 112.511 51.8235 112.123C51.2411 111.734 51.2411 111.346 51.8235 110.958C52.406 110.57 54.3474 111.734 53.765 112.123Z" fill="#16110D"/>
<path d="M37.069 113.87C37.6515 113.481 38.428 113.481 39.0105 113.87C39.5929 114.258 39.5929 114.646 39.0105 115.034C38.428 115.423 37.6515 115.423 37.069 115.034C36.6808 114.646 36.6808 114.064 37.069 113.87Z" fill="#16110D"/>
<path d="M43.8629 110.957C44.4453 111.346 44.4453 111.734 43.8629 112.122C43.2804 112.51 42.5039 112.51 41.9214 112.122C41.339 111.734 41.339 111.346 41.9214 110.957C42.5039 110.569 43.4746 110.569 43.8629 110.957Z" fill="#16110D"/>
<path d="M32.2145 110.957C32.797 110.569 33.5735 110.569 34.1559 110.957C34.7384 111.346 34.7384 111.734 34.1559 112.122C33.5735 112.51 32.797 112.51 32.2145 112.122C31.6321 111.734 31.6321 111.346 32.2145 110.957Z" fill="#16110D"/>
<path d="M39.0096 108.045C39.592 108.434 39.592 108.822 39.0096 109.21C38.4272 109.598 37.6506 109.598 37.0682 109.21C36.4857 108.822 36.4857 108.434 37.0682 108.045C37.6506 107.851 38.4272 107.851 39.0096 108.045Z" fill="#16110D"/>
<path d="M27.3608 108.045C27.9432 107.657 28.7198 107.657 29.3022 108.045C29.8846 108.434 29.8846 108.822 29.3022 109.21C28.7198 109.599 27.9432 109.599 27.3608 109.21C26.7783 108.822 26.7783 108.434 27.3608 108.045Z" fill="#16110D"/>
<path d="M34.1559 105.327C34.7384 105.716 34.7384 106.104 34.1559 106.492C33.5735 106.88 32.797 106.88 32.2145 106.492C31.6321 106.104 31.6321 105.716 32.2145 105.327C32.797 104.939 33.5735 104.939 34.1559 105.327Z" fill="#16110D"/>
<path d="M22.3148 105.327C22.8972 104.939 23.6738 104.939 24.2562 105.327C24.8386 105.716 24.8386 106.104 24.2562 106.492C23.6738 106.88 22.8972 106.88 22.3148 106.492C21.9265 106.104 21.9265 105.521 22.3148 105.327Z" fill="#16110D"/>
<path d="M29.1085 102.415C29.6909 102.804 29.6909 103.192 29.1085 103.58C28.526 103.969 27.7495 103.969 27.167 103.58C26.5846 103.192 26.5846 102.804 27.167 102.415C27.7495 102.221 28.7202 102.221 29.1085 102.415C29.6909 102.804 28.7202 102.221 29.1085 102.415Z" fill="#16110D"/>
<path d="M17.4606 102.415C18.043 102.027 18.8196 102.027 19.402 102.415C19.9845 102.804 19.9845 103.192 19.402 103.58C18.8196 103.969 18.043 103.969 17.4606 103.58C16.8782 103.192 16.8782 102.804 17.4606 102.415Z" fill="#16110D"/>
<path d="M24.2557 99.503C24.8381 99.8913 24.8381 100.28 24.2557 100.668C23.6733 101.056 22.8967 101.056 22.3143 100.668C21.7318 100.28 21.7318 99.8913 22.3143 99.503C22.8967 99.3089 23.6733 99.3089 24.2557 99.503C24.8381 99.8913 23.6733 99.3089 24.2557 99.503Z" fill="#16110D"/>
<path d="M12.6074 99.6975C13.1898 99.3092 13.9663 99.3092 14.5488 99.6975C15.1312 100.086 15.1312 100.474 14.5488 100.862C13.9663 101.251 13.1898 101.251 12.6074 100.862C12.0249 100.474 12.0249 99.8916 12.6074 99.6975Z" fill="#16110D"/>
<path d="M81.5279 138.914C82.1103 138.526 82.8869 138.526 83.4693 138.914C84.0517 139.302 84.0517 139.691 83.4693 140.079C82.8869 140.467 82.1103 140.467 81.5279 140.079C81.1396 139.691 81.1396 139.108 81.5279 138.914Z" fill="#16110D"/>
<path d="M76.6747 136.002C77.2572 135.614 78.0337 135.614 78.6161 136.002C79.1986 136.39 79.1986 136.779 78.6161 137.167C78.0337 137.555 77.2572 137.555 76.6747 137.167C76.0923 136.779 76.0923 136.39 76.6747 136.002Z" fill="#16110D"/>
<path d="M83.4693 133.284C84.0517 133.672 84.0517 134.06 83.4693 134.449C82.8869 134.837 82.1103 134.837 81.5279 134.449C80.9455 134.06 80.9455 133.672 81.5279 133.284C82.1103 132.895 82.8869 132.895 83.4693 133.284Z" fill="#16110D"/>
<path d="M74.1496 57.1809C74.1496 39.514 61.7244 17.9643 46.3873 9.03376C38.8157 4.76264 32.0205 4.1802 27.167 6.89819L26.9731 7.09234C26.9731 7.09234 26.7788 7.09235 26.7788 7.28649L20.1782 11.1693C19.5957 11.3635 19.5957 12.14 20.1782 12.5283L24.061 15.0522C23.4786 17.3819 23.0903 19.9057 23.0903 22.6237C23.0903 40.2905 35.5154 61.8403 50.8526 70.7708C52.9882 71.9356 54.9293 72.9063 56.8707 73.4887L58.2296 78.5364C58.4238 79.1189 59.0066 79.313 59.589 79.1189L65.8014 75.4302C65.9956 75.4302 65.9955 75.236 66.1896 75.236L66.5778 75.0419C71.2372 71.7415 74.1496 65.7231 74.1496 57.1809Z" fill="#36A9E1"/>
<path d="M73.1779 60.2868C73.1779 42.6199 60.7528 21.0702 45.4156 12.1397C37.8441 7.8686 31.0488 7.28616 26.1953 10.0041L26.0014 10.1983C26.0014 10.1983 25.8071 10.1983 25.8071 10.3924L19.2065 14.2753C18.624 14.4694 18.624 15.246 19.2065 15.6342L23.0893 18.1581C22.5069 20.4878 22.1186 23.0116 22.1186 25.7296C22.1186 43.3965 53.9576 75.8181 55.899 76.4006C55.899 76.4006 73.1779 68.829 73.1779 60.2868Z" fill="white"/>
<path d="M59.0064 79.8954C58.8123 79.8954 58.618 79.8954 58.4239 79.7013C57.8415 79.5071 57.4532 79.1189 57.4532 78.5364L56.0943 73.877C54.1529 73.2946 52.2112 72.3239 50.4639 71.3532C34.9326 62.4227 22.3134 40.4847 22.3134 22.4295C22.3134 19.9057 22.5078 17.3818 23.0902 15.2463L19.7899 13.1107C19.2075 12.7224 19.0131 12.3341 19.0131 11.7517C19.0131 11.1693 19.4016 10.5869 19.7899 10.3927L27.1669 6.12162C32.6029 3.40364 39.5924 4.1802 46.9697 8.45132C62.5011 17.3818 75.1203 39.3198 75.1203 57.375C75.1203 65.7231 72.402 72.1297 67.5484 75.4301L66.3839 76.2067L60.171 79.8954C59.5886 79.8954 59.3947 79.8954 59.0064 79.8954ZM20.7606 11.7517L25.0316 14.4697L24.8373 15.0521C24.2549 17.3818 23.8666 19.9057 23.8666 22.4295C23.8666 39.9022 36.0977 61.0637 51.2407 69.6059C53.1822 70.7708 55.1236 71.5473 57.065 72.1297L57.4532 72.3239L59.0064 77.7598L65.9952 73.4887C70.6546 70.5766 73.1788 64.5582 73.1788 56.7926C73.1788 39.514 60.9477 18.1584 45.8047 9.61618C38.8156 5.53921 32.4089 4.95677 27.3612 7.48061L26.9731 7.67476L20.7606 11.7517Z" fill="#16110D"/>
<path d="M34.1563 121.83L47.7462 67.8582L31.2442 53.4917L17.6543 107.463C17.4601 108.434 18.4309 109.599 19.2075 109.405L27.3613 105.522C27.7496 105.328 28.5261 105.91 28.7202 106.686L32.4092 120.859C32.7975 122.024 33.9622 122.606 34.1563 121.83Z" fill="#36A9E1"/>
<path d="M31.8267 108.434L35.5152 122.606C35.9035 123.771 37.0686 124.353 37.2627 123.577L44.4459 94.6495L26.9731 83.9717L20.5664 109.016C20.3722 109.987 21.343 111.151 22.1196 110.957L30.2735 107.075C31.05 107.075 31.6325 107.657 31.8267 108.434Z" fill="white"/>
<path d="M33.7679 123.188C32.7972 123.188 31.8263 122.218 31.6322 121.247L27.9437 107.075C27.9437 106.881 27.7494 106.686 27.7494 106.686L19.7898 110.375C19.2074 110.569 18.6247 110.569 18.0423 109.987C17.2657 109.404 16.8774 108.434 17.0716 107.463L31.0497 52.1327L49.1049 67.8582L35.3212 122.218C34.9329 122.606 34.3504 123.188 33.7679 123.188ZM27.5555 104.551C27.7496 104.551 27.9436 104.551 28.3319 104.745C28.9143 105.133 29.4966 105.716 29.6908 106.492L33.3797 120.665C33.3797 120.859 33.3795 120.859 33.5736 121.053L46.7753 68.2464L31.8265 55.239L18.6248 107.657C18.6248 107.851 18.8188 108.24 19.013 108.434L27.1668 104.745C27.1668 104.551 27.3614 104.551 27.5555 104.551Z" fill="#16110D"/>
<path d="M65.9955 135.419L52.7943 65.9168L36.2922 61.0632L49.4935 130.566C49.6876 131.731 50.8528 132.507 51.241 131.731L54.9295 121.83C55.1237 121.247 55.9002 121.441 56.2884 122.218L64.4428 135.614C65.2193 136.778 66.1897 136.584 65.9955 135.419Z" fill="#36A9E1"/>
<path d="M69.2961 135.225L61.1418 92.7084L45.8048 94.2615L52.5998 130.372C52.7939 131.537 53.9586 132.313 54.3468 131.537L58.0358 121.635C58.23 121.053 59.0064 121.247 59.3947 122.024L67.5486 135.42C68.5193 136.39 69.6844 136.39 69.2961 135.225Z" fill="white"/>
<path d="M65.607 137.361C65.0245 137.361 64.2482 136.973 63.8599 136.196L55.706 122.994L52.2114 132.313C52.0172 132.896 51.4349 133.284 50.8525 133.284C49.8818 133.284 48.9109 132.313 48.7167 131.148L35.1268 60.2866L53.5703 65.7226L66.9659 135.808C67.16 136.973 66.5778 137.555 66.1895 137.749C65.9953 137.167 65.8011 137.361 65.607 137.361ZM55.5117 120.665C56.0941 120.665 56.8705 121.053 57.2588 121.83L65.0244 134.449L52.2114 66.6933L37.6508 62.4222L50.6582 130.372C50.6582 130.566 50.8525 130.76 50.8525 130.76L54.3467 121.441C54.3467 121.053 54.7351 120.665 55.5117 120.665C55.3176 120.665 55.3176 120.665 55.5117 120.665Z" fill="#16110D"/>
<path d="M58.8873 79.2804C69.7512 73.0079 69.7791 52.718 58.9498 33.9616C48.1204 15.2051 30.5346 5.08479 19.6707 11.3572C8.80684 17.6297 8.77893 37.9196 19.6083 56.676C30.4377 75.4325 48.0234 85.5528 58.8873 79.2804Z" fill="#36A9E1"/>
<path d="M51.6287 82.0304C47.7459 82.0304 43.2804 80.6714 38.8152 78.1476C23.2839 69.2171 10.6647 47.279 10.6647 29.2239C10.6647 20.2934 13.7712 13.6926 19.2072 10.3922C24.6431 7.09175 32.0202 7.86832 39.7859 12.3336C55.3172 21.2641 67.9364 43.2021 67.9364 61.2572C67.9364 70.1877 64.8303 76.7886 59.3944 80.089C57.0647 81.448 54.5408 82.0304 51.6287 82.0304ZM26.9728 10.3922C24.449 10.3922 22.1193 10.9746 20.1779 12.1394C15.3244 15.0516 12.6061 21.0699 12.6061 29.2239C12.6061 46.5025 24.8372 67.858 39.9802 76.4003C47.1635 80.4772 53.7645 81.2538 58.618 78.3417C63.4715 75.4296 66.3837 69.4112 66.3837 61.2572C66.3837 43.7845 54.1526 22.6231 39.0095 14.0809C34.7384 11.557 30.6615 10.3922 26.9728 10.3922Z" fill="#16110D"/>
<path d="M55.8084 76.2C64.2581 71.3214 64.241 55.4736 55.7705 40.8027C47.3 26.1318 33.5837 18.1934 25.134 23.072C16.6843 27.9506 16.701 43.7986 25.1715 58.4695C33.642 73.1404 47.3587 81.0785 55.8084 76.2Z" fill="white"/>
<path d="M48.9112 74.2649C45.8049 74.2649 42.31 73.2941 38.8154 71.1586C26.5845 64.1695 16.6835 46.8909 16.6835 32.9127C16.6835 25.9236 19.0132 20.6818 23.4784 18.1579C27.9437 15.6341 33.5736 16.2165 39.7861 19.7111C52.017 26.7002 61.9185 43.9788 61.9185 57.9569C61.9185 64.946 59.5888 70.1879 55.1236 72.7117C53.3763 73.6824 51.2409 74.2649 48.9112 74.2649ZM29.6909 18.1579C27.7494 18.1579 26.0023 18.5462 24.4491 19.5169C20.5663 21.6525 18.6249 26.506 18.6249 32.7185C18.6249 46.3084 28.1376 62.6164 39.7861 69.4113C45.2221 72.5176 50.4642 73.1 54.1529 70.9644C58.0357 68.8289 59.9771 63.9753 59.9771 57.7628C59.9771 44.1729 50.4639 27.865 38.8154 21.07C35.515 19.1286 32.4088 18.1579 29.6909 18.1579Z" fill="#16110D"/>
<path d="M36.0982 59.8988L27.5562 42.8143C26.3913 40.4846 26.5854 38.155 27.9443 37.5725C29.3033 36.9901 31.4389 38.5432 32.7979 40.8729L37.2632 49.8035L47.1642 41.4554C48.329 40.4847 50.4646 41.4554 52.0177 43.5909C53.3767 45.7265 53.7651 48.4445 52.6002 49.4152L38.6221 61.2578C37.8456 61.8402 36.6806 61.2578 36.0982 59.8988Z" fill="#36A9E1"/>
<path d="M37.0684 58.9283C36.8742 58.9283 36.8743 58.9283 36.6802 58.9283C35.9036 58.7341 34.933 57.9575 34.3506 56.9868L25.8081 39.9024C24.8373 38.1551 24.6431 36.2137 25.2255 35.0488C25.6138 34.2723 26.0022 33.6899 26.7788 33.4957C28.7202 32.7192 31.244 34.4664 32.603 37.1844L36.6802 45.1442L45.8047 37.5727C46.3872 36.9903 47.1639 36.7961 47.9405 36.9903C49.2995 37.1844 50.8526 38.3492 51.8233 39.9024C53.5706 42.4262 53.7646 45.5325 52.2115 46.8915L38.2334 58.7341C37.8451 58.7341 37.4566 58.9283 37.0684 58.9283ZM35.9033 56.0161C36.2916 56.7927 36.6799 56.9868 36.874 56.9868L50.8526 45.1442C51.6292 44.5618 51.4349 42.4262 50.2701 40.4848C49.4935 39.32 48.5225 38.5434 47.5518 38.3493C47.1635 38.3493 46.9696 38.5434 46.7754 38.5434L35.9033 47.668L30.8559 37.7668C29.8852 35.8254 28.1377 34.6606 27.1669 34.8547C27.1669 34.8547 26.779 35.0489 26.5849 35.4371C26.1966 36.2137 26.3904 37.5727 27.1669 38.9317L35.9033 56.0161Z" fill="#16110D"/>
<path d="M63.8604 43.5907L70.461 39.5137L73.1792 47.4735L74.15 59.8985L73.1792 67.2759L65.4136 75.8181L62.3071 76.983L64.8311 72.5177L66.9663 64.9462V55.2391L63.8604 45.3379V43.5907Z" fill="#16110D"/>
</svg>
