<svg width="64" height="123" viewBox="0 0 64 123" fill="none" xmlns="http://www.w3.org/2000/svg">
<path d="M11.7872 116.832H0.827271V119.832C0.827271 120.653 1.36151 121.451 2.42997 122.075C4.5751 123.308 8.04348 123.308 10.1804 122.075C11.2488 121.451 11.7872 120.645 11.7872 119.832V116.852V116.832Z" fill="#16110D"/>
<path d="M10.1804 119.174C8.0435 120.407 4.57512 120.407 2.42999 119.174C0.284854 117.941 0.293073 115.932 2.42999 114.691C4.5669 113.45 8.0435 113.458 10.1804 114.691C12.3173 115.923 12.3214 117.941 10.1804 119.174Z" fill="#36A9E1"/>
<path d="M8.44215 20.4116H4.16833V116.61C4.18561 116.798 4.25306 116.978 4.36365 117.131C4.47424 117.285 4.62391 117.405 4.79707 117.481C5.26582 117.716 5.78296 117.838 6.30731 117.838C6.83167 117.838 7.34878 117.716 7.81753 117.481C7.98967 117.404 8.13828 117.283 8.24807 117.13C8.35785 116.977 8.42484 116.797 8.44215 116.61V20.4116Z" fill="#16110D"/>
<path d="M10.7848 17.8843C10.7854 18.4726 10.6699 19.0554 10.445 19.5991C10.2201 20.1428 9.89014 20.6368 9.47409 21.0528C9.05804 21.4689 8.56403 21.7988 8.02033 22.0237C7.47663 22.2486 6.89392 22.3641 6.30554 22.3636C5.7175 22.3636 5.13523 22.2477 4.59201 22.0225C4.04878 21.7974 3.55524 21.4674 3.13963 21.0514C2.72401 20.6354 2.39446 20.1416 2.1698 19.5981C1.94514 19.0547 1.8298 18.4723 1.83034 17.8843C1.82872 17.2962 1.94301 16.7136 2.16667 16.1698C2.39033 15.626 2.71898 15.1315 3.13383 14.7148C3.54868 14.298 4.04159 13.9671 4.58441 13.7409C5.12722 13.5148 5.70928 13.3978 6.29731 13.3967C6.88708 13.3951 7.47136 13.5101 8.01654 13.735C8.56173 13.96 9.05706 14.2905 9.47409 14.7075C9.89112 15.1245 10.2216 15.6198 10.4465 16.165C10.6715 16.7102 10.7865 17.2945 10.7848 17.8843Z" fill="#36A9E1"/>
<path d="M63.8012 40.9302C45.3498 39.3234 26.8983 74.5003 8.44275 72.8935V32.0126C26.8983 33.6235 45.3498 -1.55336 63.8012 0.0534342V40.9302Z" fill="#E31B25"/>
<path d="M17.3269 35.136C17.8612 36.151 18.3995 37.1414 18.9378 38.1153C20.1678 37.6686 21.37 37.1485 22.5377 36.5578C21.6665 38.1153 20.7994 39.6358 19.9323 41.1029C20.1378 42.3686 20.3433 43.6261 20.5446 44.8877C19.467 44.8763 18.3917 44.7871 17.3269 44.6206C16.253 45.7575 15.1804 46.8027 14.1092 47.7561C14.3147 46.3178 14.5188 44.8768 14.7215 43.433C13.8544 42.7303 12.9832 41.9618 12.1202 41.1234C13.362 40.7086 14.5652 40.1861 15.716 39.5619C16.2557 38.1071 16.7927 36.6318 17.3269 35.136Z" fill="#F49624"/>
<path d="M24.2475 29.5266C24.3461 29.6828 24.4447 29.843 24.5392 30.0033L25.2009 29.6211L24.7242 30.5129L24.8351 31.1868L24.2475 31.2608L23.6598 32.0416L23.7708 31.2197L23.2941 31.0183L23.9516 30.443L24.2475 29.5266Z" fill="#F49624"/>
<path d="M26.8445 30.8291L27.1404 31.2853L27.7979 30.8743C27.6376 31.1784 27.4815 31.4866 27.3212 31.7948C27.3582 32.0167 27.3993 32.2387 27.4363 32.4606L26.8445 32.5756L26.2569 33.3975L26.3678 32.551L25.8911 32.3866L26.5527 31.7578C26.6349 31.4414 26.7336 31.1373 26.8445 30.8291Z" fill="#F49624"/>
<path d="M26.8445 36.5579L27.1404 37.0099L27.7979 36.599L27.3212 37.5236C27.3582 37.7455 27.3993 37.9674 27.4363 38.1934L26.8445 38.3085C26.6473 38.5797 26.4336 38.855 26.2569 39.1304L26.3678 38.2838L25.8911 38.1154C26.113 37.914 26.3308 37.7044 26.5527 37.4948C26.6349 37.1743 26.7336 36.8661 26.8445 36.5579Z" fill="#F49624"/>
<path d="M24.2475 41.7974L24.5392 42.2741L25.2009 41.896L24.7242 42.7878L24.8351 43.4617L24.2475 43.5398L23.6598 44.3165C23.6968 44.0411 23.7338 43.7576 23.7708 43.4946C23.6105 43.4329 23.4502 43.3631 23.2941 43.2973L23.9516 42.722L24.2475 41.7974Z" fill="#F49624"/>
</svg>
