<svg width="460" height="1924" viewBox="0 0 460 1924" fill="none" xmlns="http://www.w3.org/2000/svg">
<path d="M-384.276 -15.3015C-689.359 140.768 -527.78 630.731 -189.796 597.908C232.684 556.879 271.962 -83.4727 595.371 -243.116C924.297 -405.482 1024.03 -30.586 1104.96 100.413C1196.69 248.898 1404.2 95.9708 1580.01 347.111C1781.23 634.545 1971.12 301.014 2148.66 555.218" stroke="#36A9E1" stroke-opacity="0.4" stroke-linecap="round" stroke-dasharray="11 11"/>
<path d="M561.24 -424.037C883.96 -539.299 1131.57 -209.454 876.071 14.2209C556.697 293.815 -84.9169 174.551 -277.213 269.271C-513.717 385.766 -414.33 591.065 -374.935 739.921C-305.483 1002.34 -530.883 951.187 -482.378 1253.89C-450.183 1454.8 -245.268 1703.38 -496.949 1922.68" stroke="#36A9E1" stroke-opacity="0.4" stroke-linecap="round" stroke-dasharray="11 11"/>
</svg>
