<svg width="35" height="35" viewBox="0 0 35 35" fill="none" xmlns="http://www.w3.org/2000/svg">
<path d="M4.17008 35C4.90564 34.9322 5.64274 34.8767 6.37675 34.7946C11.2144 34.2516 15.6991 32.6906 19.8307 30.1116C24.6013 27.1212 28.3446 23.1578 31.0607 18.2214C32.7718 15.1172 33.9264 11.8151 34.5245 8.31511C34.819 6.58582 34.9778 4.83616 34.9995 3.08212C35.0291 1.21882 33.8402 0.00346912 31.9836 0.00154183C29.9897 -0.000513944 27.9959 -0.000513944 26.002 0.00154183C24.1793 0.00154183 23.0197 1.09856 22.9649 2.92332C22.9036 4.97164 22.618 6.97911 21.9992 8.93647C21.6523 10.0377 21.8805 10.9921 22.6103 11.8956C23.574 13.0905 24.4742 14.3406 25.389 15.5764C25.4546 15.665 25.4696 15.8597 25.4176 15.9568C23.8146 18.9615 21.7552 21.5876 18.941 23.5534C17.9722 24.2299 16.9394 24.815 15.9286 25.4291C15.8515 25.4765 15.6791 25.4638 15.6044 25.4079C14.3083 24.4411 13.0126 23.4736 11.7342 22.483C10.9975 21.9121 10.1829 21.731 9.29315 21.9272C8.28349 22.1504 7.29311 22.4738 6.27652 22.6507C5.29308 22.8218 4.28689 22.9436 3.29034 22.9425C1.68468 22.9402 0.385895 23.6363 0 25.4306V32.5392C0.195068 32.9891 0.336937 33.4736 0.597927 33.8814C1.02199 34.5444 1.71591 34.83 2.46111 34.9992L4.17008 35Z" fill="#36A9E1"/>
</svg>
