<svg width="326" height="373" viewBox="0 0 326 373" fill="none" xmlns="http://www.w3.org/2000/svg">
<path d="M166.325 182.521L135.621 16.4899C114.014 10.2353 93.545 10.8041 77.0557 18.7644L75.3497 19.3329C74.7811 19.9015 73.6441 19.9019 73.0755 20.4705L45.2141 35.2539L48.6259 45.4882C46.3515 48.8998 44.6457 52.8805 42.9399 57.4293C17.353 121.681 52.0373 229.714 120.269 298.514C154.953 333.767 191.344 351.963 222.616 353.1L228.871 361.06L253.889 347.414C256.732 346.277 259.575 344.571 262.418 342.865C273.79 335.473 283.456 323.533 289.711 307.612C293.122 299.083 295.397 289.417 297.103 279.182L166.325 182.521Z" fill="#36A9E1"/>
<path d="M166.325 190.48L135.621 24.4503C114.014 18.1958 93.545 18.7645 77.0557 26.7249L75.3497 27.2933C74.7811 27.8619 73.6441 27.8616 73.0755 28.4302L45.2141 43.2143L48.6259 53.4487C46.3515 56.8602 44.6457 60.8403 42.9399 65.389C17.353 129.641 52.0373 237.674 120.269 306.474C154.953 341.727 191.344 359.922 222.616 361.06L220.911 347.414L208.402 330.356C211.245 329.219 229.44 336.61 232.283 334.904L212.382 324.67L216.93 325.238C228.302 317.847 210.676 329.219 216.93 313.298C220.342 304.769 217.499 304.2 218.636 293.966L166.325 190.48Z" fill="white"/>
<path d="M227.733 365.609L220.341 356.511C187.362 354.805 150.972 334.904 117.425 301.357C48.0562 231.419 13.3717 121.68 39.5272 56.86C41.2329 52.8798 42.9389 49.4688 44.6447 46.0572L41.2329 34.6852L71.3688 18.7642C71.9374 18.1956 72.5059 18.1959 73.0745 17.6273L78.1917 14.7843C94.681 7.96118 115.151 7.39216 136.189 13.6467L137.894 14.2152L169.167 181.383L300.513 278.044V279.751C299.376 290.554 296.533 300.22 293.122 309.317C286.867 325.238 277.201 337.179 265.26 345.708L264.692 346.276C261.849 347.982 259.006 349.688 255.594 351.394L227.733 365.609ZM49.1934 36.9591L52.0364 46.0572L51.4679 47.1941C49.1935 51.1743 47.4877 54.5859 45.7819 58.5661C20.7636 121.68 54.8795 228.008 122.543 296.24C155.521 329.787 191.343 348.55 222.616 349.688H224.321L230.007 356.511L252.751 344.002C255.594 342.864 258.437 341.159 260.712 339.453H261.28C272.652 332.061 281.75 320.689 287.436 305.906C290.279 297.945 292.553 289.417 294.259 280.319L164.05 184.226L133.346 18.7642C112.876 13.0783 94.6811 14.2155 79.329 21.6072L77.6232 22.1757C76.486 22.7443 75.9173 22.7447 75.3487 23.3133L49.1934 36.9591Z" fill="#15100C"/>
<path d="M136.188 199.009L105.484 32.9792C64.5453 20.47 28.7234 34.1167 12.8026 74.4871C-12.7842 138.739 21.9004 246.771 90.1321 315.572C158.364 384.372 234.556 388.353 260.142 324.67C263.554 316.141 265.829 306.475 267.534 296.24L136.188 199.009Z" fill="#36A9E1"/>
<path d="M195.324 373C161.777 373 122.544 353.099 87.2905 317.278C17.9217 247.34 -16.7628 137.601 9.39263 72.7808C25.3134 32.4104 61.7036 16.4898 106.054 29.5675L107.76 30.136L139.033 197.304L270.379 293.965V295.671C269.242 306.474 266.398 316.141 262.987 325.238C252.752 350.825 235.126 366.746 210.676 371.294C205.559 372.431 200.441 373 195.324 373ZM77.0558 31.2729C48.626 31.2729 26.4505 46.6254 15.0786 75.0553C-9.93968 138.17 24.1762 244.497 91.8392 312.729C131.072 352.53 174.854 371.863 209.539 365.04C231.146 360.491 247.635 346.276 256.732 322.964C259.575 315.003 261.85 306.474 263.556 297.377L133.347 201.284L102.643 35.822C93.5452 32.979 85.0162 31.2729 77.0558 31.2729Z" fill="#15100C"/>
<path d="M104.918 32.4107L135.622 16.4897L166.326 182.521L136.191 199.009L104.918 32.4107Z" fill="#15100C"/>
<path d="M266.969 295.102L297.104 279.182L166.327 182.52L136.191 199.009L266.969 295.102Z" fill="#36A9E1"/>
<path d="M266.967 295.102L281.181 287.711L160.639 199.009L143.012 208.107L266.967 295.102Z" fill="white"/>
<path d="M305.632 276.907L169.168 180.814L137.896 11.3721L101.506 30.7045L132.21 196.735L132.778 200.147L135.621 202.421L266.399 299.083L305.632 276.907ZM108.897 34.116L133.347 21.0386L162.914 180.246L138.464 193.323L108.897 34.116ZM165.757 186.5L290.848 278.613L266.967 291.122L141.876 199.009L165.757 186.5Z" fill="#15100C"/>
<path d="M321.551 228.577C318.708 195.029 306.768 158.071 288.573 123.955C274.926 98.3679 257.3 73.9182 236.262 52.8801C210.675 26.7246 183.951 10.235 158.932 2.84326L128.797 18.7643L158.932 85.859L180.539 117.7L189.637 167.736C189.637 168.305 190.206 168.306 190.774 168.306C190.206 168.306 190.206 168.874 190.774 169.442L239.105 205.264L290.279 281.456L320.414 265.536C322.12 253.595 322.12 241.654 321.551 228.577Z" fill="#36A9E1"/>
<path d="M321.551 242.223C318.708 208.676 306.768 171.717 288.573 137.601C274.926 112.014 257.3 87.5644 236.262 66.5263C210.675 40.3709 183.951 23.8813 158.932 16.4895L128.797 32.4105L158.932 99.5046L180.539 131.347L189.637 181.383C189.637 181.951 190.206 181.951 190.774 181.951C190.206 181.951 190.206 182.52 190.774 183.089L239.105 218.91L290.279 279.182L319.845 265.535C322.12 253.595 322.689 254.732 321.551 242.223Z" fill="white"/>
<path d="M289.143 286.005L236.832 208.107L186.227 171.148L186.795 170.579C186.795 170.011 186.227 170.011 186.227 169.442L177.129 119.975L156.091 88.7017L124.25 18.1955L158.366 0L159.503 0.569152C185.658 8.52951 212.951 26.156 237.969 51.7429C258.439 72.2124 276.065 96.6618 290.849 123.954C309.612 158.639 321.553 196.166 324.396 230.282C325.533 243.36 325.533 255.869 323.827 267.81V269.515L289.143 286.005ZM202.148 173.422L242.518 202.99L291.986 276.907L318.141 263.261C319.278 252.457 319.279 241.085 318.71 229.145C315.867 196.166 304.495 159.208 286.3 125.661C272.085 99.5051 254.458 75.0553 234.557 55.1543C210.676 30.7047 184.521 14.2155 160.071 6.25512L133.916 20.4701L162.914 84.7211L184.521 117.132L193.619 166.599L207.265 173.991L202.148 173.422ZM191.344 168.305L192.481 166.599V166.031C192.481 165.462 191.913 165.462 191.344 164.893C190.776 164.325 190.207 164.325 189.638 164.893L191.913 166.031L191.344 168.305Z" fill="#15100C"/>
<path d="M160.638 184.794L258.437 140.444C244.79 114.857 227.164 90.4077 206.126 69.3696C180.539 43.2141 153.815 26.7245 128.797 19.3328L159.501 184.794C159.501 184.226 160.069 184.794 160.638 184.794Z" fill="#36A9E1"/>
<path d="M160.071 188.206C159.502 188.206 158.934 188.206 158.365 187.637C157.228 187.069 156.659 185.931 156.091 184.794L124.249 14.2151L129.366 15.9212C155.522 23.8815 182.815 41.508 207.833 67.0949C228.303 87.5644 245.929 112.014 260.713 139.306L262.418 142.149L161.777 188.206C161.208 187.638 160.639 188.206 160.071 188.206ZM132.778 23.8817L161.777 180.246L253.321 138.738C239.675 113.72 222.616 90.4077 203.284 71.644C180.54 48.3315 156.659 31.842 132.778 23.8817Z" fill="#15100C"/>
<path d="M290.28 281.456C291.985 270.084 291.985 257.575 290.848 245.066L160.639 185.932L290.28 281.456Z" fill="#36A9E1"/>
<path d="M293.123 287.711L156.091 187.069L158.934 181.951L161.777 183.089L293.692 243.36V245.066C294.829 258.144 294.829 270.653 293.123 282.593V287.711ZM186.795 201.284L287.437 275.77C288.006 266.672 288.006 257.575 287.437 247.34L186.795 201.284Z" fill="#15100C"/>
<path d="M160.641 185.364L290.85 244.497C288.007 210.95 276.066 173.992 257.871 139.876L160.641 184.226C160.072 184.794 160.072 185.364 160.641 185.364Z" fill="#36A9E1"/>
<path d="M177.7 195.03L281.184 242.223C275.498 208.108 270.95 193.892 255.029 161.482L177.7 195.03Z" fill="white"/>
<path d="M294.829 250.183L157.228 187.637L156.66 183.089L158.934 181.951L259.007 136.464L260.713 139.307C279.477 173.991 291.417 211.519 294.26 245.635L294.829 250.183ZM167.463 184.794L286.868 239.38C283.457 208.676 272.654 175.128 256.164 144.424L167.463 184.794Z" fill="#15100C"/>
<path d="M277.202 182.52L307.338 166.599L319.278 211.519L321.553 259.281L318.71 266.672L293.691 280.887L289.711 234.263L277.202 182.52Z" fill="#16110D"/>
<path d="M245.929 351.962L270.379 336.61L286.3 316.141L294.829 291.122L297.103 279.182L266.967 295.102L255.595 333.767L245.929 351.962Z" fill="#16110D"/>
</svg>
