<svg width="416" height="331" viewBox="0 0 416 331" fill="none" xmlns="http://www.w3.org/2000/svg">
<path d="M26.078 199.527L15.9788 205.259C14.887 205.805 13.2493 205.805 11.8846 204.986L2.33128 199.527C1.23948 198.708 0.966513 197.889 2.05832 197.07L12.1575 191.338C13.2493 190.792 14.887 190.792 16.2517 191.611L25.805 197.07C26.8968 197.889 26.8968 198.981 26.078 199.527Z" fill="#16110D"/>
<path d="M49.5526 212.902L39.4534 218.634C38.3616 219.18 36.7239 219.18 35.3591 218.361L25.8059 212.902C24.7141 212.083 24.4411 211.264 25.5329 210.445L35.6321 204.713C36.7239 204.167 38.3616 204.167 39.7264 204.986L49.2796 210.445C50.3714 211.264 50.3714 212.356 49.5526 212.902Z" fill="#16110D"/>
<path d="M24.7147 227.368L14.6155 233.1C13.5237 233.646 11.886 233.646 10.5213 232.827L0.968002 227.368C-0.123801 226.549 -0.396769 225.73 0.695034 224.912L10.7942 219.179C11.886 218.634 13.5237 218.634 14.8885 219.453L24.4417 224.912C25.5335 225.73 25.8065 226.822 24.7147 227.368Z" fill="#16110D"/>
<path d="M74.1185 227.368L64.0193 233.1C62.9275 233.646 61.2898 233.646 59.9251 232.827L50.3718 227.368C49.28 226.549 49.0071 225.73 50.0989 224.912L60.198 219.179C61.2898 218.634 62.9275 218.634 64.2923 219.453L73.8456 224.912C75.2103 225.73 75.2103 226.822 74.1185 227.368Z" fill="#16110D"/>
<path d="M49.5526 241.561L39.4534 247.293C38.3616 247.839 36.7239 247.839 35.3591 247.02L25.8059 241.561C24.7141 240.742 24.4411 239.923 25.5329 239.105L35.6321 233.373C36.7239 232.827 38.3616 232.827 39.7264 233.646L49.2796 239.105C50.3714 239.923 50.6444 241.015 49.5526 241.561Z" fill="#16110D"/>
<path d="M97.5931 241.016L87.494 246.748C86.4022 247.294 84.7644 247.294 83.3997 246.475L73.8464 241.016C72.7546 240.197 72.4816 239.378 73.5735 238.559L83.6726 232.827C84.7644 232.281 86.4021 232.281 87.7669 233.1L97.3202 238.559C98.6849 239.378 98.6849 240.197 97.5931 241.016Z" fill="#16110D"/>
<path d="M73.0272 255.209L62.928 260.941C61.8362 261.487 60.1985 261.487 58.8338 260.668L49.2805 255.209C48.1887 254.39 47.9157 253.571 49.0075 252.752L59.1067 247.02C60.1985 246.474 61.8362 246.474 63.201 247.293L72.7542 252.752C73.846 253.571 74.119 254.663 73.0272 255.209Z" fill="#16110D"/>
<path d="M121.066 254.39L110.967 260.122C109.875 260.668 108.237 260.668 106.872 259.849L97.3191 254.39C96.2272 253.571 95.9543 252.753 97.0461 251.934L107.145 246.202C108.237 245.656 109.875 245.656 111.24 246.475L120.793 251.934C122.158 252.753 122.158 253.844 121.066 254.39Z" fill="#16110D"/>
<path d="M96.5004 268.584L86.4012 274.316C85.3094 274.862 83.6716 274.862 82.3069 274.043L72.7536 268.584C71.6618 267.766 71.3889 266.947 72.4807 266.128L82.5799 260.396C83.6717 259.85 85.3094 259.85 86.6741 260.669L96.2274 266.128C97.3192 266.947 97.5922 268.038 96.5004 268.584Z" fill="#16110D"/>
<path d="M145.903 268.857L135.804 274.589C134.712 275.135 133.075 275.135 131.71 274.316L122.156 268.857C121.065 268.038 120.792 267.219 121.884 266.4L131.983 260.669C133.075 260.123 134.712 260.123 136.077 260.941L145.63 266.4C146.722 267.219 146.995 268.038 145.903 268.857Z" fill="#16110D"/>
<path d="M121.34 283.05L111.241 288.782C110.149 289.328 108.512 289.328 107.147 288.509L97.5935 283.05C96.5017 282.231 96.2287 281.412 97.3205 280.594L107.42 274.862C108.512 274.316 110.149 274.316 111.514 275.135L121.067 280.594C122.159 281.412 122.159 282.504 121.34 283.05Z" fill="#16110D"/>
<path d="M169.38 282.231L159.281 287.963C158.189 288.509 156.552 288.509 155.187 287.69L145.634 282.231C144.542 281.412 144.269 280.593 145.361 279.774L155.46 274.042C156.552 273.496 158.189 273.496 159.554 274.315L169.107 279.774C170.199 280.593 170.472 281.685 169.38 282.231Z" fill="#16110D"/>
<path d="M144.815 296.425L134.716 302.157C133.624 302.702 131.986 302.702 130.621 301.884L121.068 296.425C119.976 295.606 119.703 294.787 120.795 293.968L130.894 288.236C131.986 287.69 133.624 287.69 134.989 288.509L144.542 293.968C145.634 294.787 145.634 295.879 144.815 296.425Z" fill="#16110D"/>
<path d="M192.853 295.879L182.754 301.611C181.662 302.157 180.024 302.157 178.659 301.338L169.106 295.879C168.014 295.06 167.741 294.241 168.833 293.423L178.932 287.691C180.024 287.145 181.662 287.145 183.027 287.964L192.58 293.423C193.672 294.241 193.945 295.333 192.853 295.879Z" fill="#16110D"/>
<path d="M168.015 310.072L157.916 315.804C156.824 316.35 155.186 316.35 153.822 315.531L144.268 310.072C143.176 309.254 142.904 308.435 143.995 307.616L154.094 301.884C155.186 301.338 156.824 301.338 158.189 302.157L167.742 307.616C169.107 308.435 169.107 309.526 168.015 310.072Z" fill="#16110D"/>
<path d="M217.691 310.072L207.592 315.804C206.5 316.35 204.862 316.35 203.497 315.531L193.944 310.072C192.852 309.254 192.579 308.435 193.671 307.616L203.77 301.884C204.862 301.338 206.5 301.338 207.865 302.157L217.418 307.616C218.51 308.435 218.783 309.526 217.691 310.072Z" fill="#16110D"/>
<path d="M192.853 324.538L182.754 330.27C181.662 330.816 180.024 330.816 178.659 329.997L169.106 324.538C168.014 323.719 167.741 322.9 168.833 322.082L178.932 316.35C180.024 315.804 181.662 315.804 183.027 316.623L192.58 322.082C193.945 322.9 193.945 323.719 192.853 324.538Z" fill="#16110D"/>
<path d="M242.256 295.879L232.157 301.611C231.065 302.157 229.427 302.157 228.063 301.338L218.509 295.879C217.418 295.06 217.145 294.241 218.237 293.423L228.336 287.691C229.427 287.145 231.065 287.145 232.43 287.964L241.983 293.423C243.348 294.241 243.348 295.333 242.256 295.879Z" fill="#16110D"/>
<path d="M267.094 281.685L256.995 287.417C255.903 287.963 254.265 287.963 252.901 287.144L243.347 281.685C242.256 280.866 241.983 280.047 243.074 279.228L253.174 273.496C254.265 272.951 255.903 272.95 257.268 273.769L266.821 279.228C267.913 280.047 268.186 281.139 267.094 281.685Z" fill="#16110D"/>
<path d="M291.661 267.492L281.561 273.224C280.47 273.77 278.832 273.77 277.467 272.951L267.914 267.492C266.822 266.673 266.549 265.854 267.641 265.035L277.74 259.303C278.832 258.757 280.47 258.757 281.834 259.576L291.388 265.035C292.752 265.854 292.752 266.673 291.661 267.492Z" fill="#16110D"/>
<path d="M341.063 238.832L330.964 244.564C329.872 245.11 328.235 245.11 326.87 244.291L317.317 238.832C316.225 238.013 315.952 237.194 317.044 236.376L327.143 230.644C328.235 230.098 329.872 230.098 331.237 230.917L340.79 236.376C342.155 237.194 342.155 238.286 341.063 238.832Z" fill="#16110D"/>
<path d="M365.906 224.639L355.806 230.371C354.715 230.917 353.077 230.917 351.712 230.098L342.159 224.639C341.067 223.82 340.794 223.001 341.886 222.182L351.985 216.45C353.077 215.904 354.715 215.904 356.079 216.723L365.633 222.182C366.725 223.001 366.997 224.093 365.906 224.639Z" fill="#16110D"/>
<path d="M415.305 195.979L405.206 201.711C404.114 202.257 402.476 202.257 401.112 201.438L391.558 195.979C390.467 195.16 390.194 194.342 391.285 193.523L401.384 187.791C402.476 187.245 404.114 187.245 405.479 188.064L415.032 193.523C416.124 194.342 416.397 195.433 415.305 195.979Z" fill="#16110D"/>
<path d="M241.165 323.719L231.066 329.452C229.974 329.997 228.337 329.997 226.972 329.178L217.419 323.719C216.327 322.901 216.054 322.082 217.146 321.263L227.245 315.531C228.337 314.985 229.974 314.985 231.339 315.804L240.892 321.263C241.984 322.082 242.257 323.174 241.165 323.719Z" fill="#16110D"/>
<path d="M265.731 309.526L255.632 315.258C254.54 315.804 252.902 315.804 251.537 314.985L241.984 309.526C240.892 308.707 240.619 307.889 241.711 307.07L251.81 301.338C252.902 300.792 254.54 300.792 255.905 301.611L265.458 307.07C266.823 307.889 266.823 308.707 265.731 309.526Z" fill="#16110D"/>
<path d="M290.569 295.06L280.47 300.792C279.378 301.338 277.74 301.338 276.375 300.519L266.822 295.06C265.73 294.241 265.457 293.422 266.549 292.603L276.648 286.871C277.74 286.325 279.378 286.325 280.743 287.144L290.296 292.603C291.388 293.422 291.661 294.514 290.569 295.06Z" fill="#16110D"/>
<path d="M315.133 280.867L305.034 286.599C303.942 287.144 302.304 287.144 300.939 286.326L291.386 280.867C290.294 280.048 290.021 279.229 291.113 278.41L301.212 272.678C302.304 272.132 303.942 272.132 305.306 272.951L314.86 278.41C316.225 279.229 316.225 280.321 315.133 280.867Z" fill="#16110D"/>
<path d="M364.538 252.479L354.439 258.211C353.347 258.757 351.709 258.757 350.345 257.938L340.791 252.479C339.699 251.661 339.426 250.842 340.518 250.023L350.617 244.291C351.709 243.745 353.347 243.745 354.712 244.564L364.265 250.023C365.63 250.842 365.63 251.661 364.538 252.479Z" fill="#16110D"/>
<path d="M413.944 223.82L403.845 229.552C402.753 230.098 401.116 230.098 399.751 229.279L390.197 223.82C389.106 223.001 388.833 222.182 389.925 221.363L400.024 215.631C401.115 215.085 402.753 215.085 404.118 215.904L413.671 221.363C415.036 222.182 415.036 223.274 413.944 223.82Z" fill="#16110D"/>
<path d="M339.152 294.514L329.052 300.246C327.961 300.792 326.323 300.792 324.958 299.973L315.405 294.514C314.313 293.695 314.04 292.876 315.132 292.057L325.231 286.325C326.323 285.78 327.961 285.779 329.325 286.598L338.879 292.057C339.971 292.876 340.244 293.968 339.152 294.514Z" fill="#16110D"/>
<path d="M314.316 308.707L304.217 314.439C303.125 314.985 301.488 314.985 300.123 314.166L290.57 308.707C289.478 307.888 289.205 307.07 290.297 306.251L300.396 300.519C301.488 299.973 303.125 299.973 304.49 300.792L314.043 306.251C315.408 307.07 315.408 308.161 314.316 308.707Z" fill="#16110D"/>
<path d="M363.72 280.047L353.62 285.78C352.529 286.325 350.891 286.325 349.526 285.506L339.973 280.047C338.881 279.229 338.608 278.41 339.7 277.591L349.799 271.859C350.891 271.313 352.529 271.313 353.893 272.132L363.447 277.591C364.811 278.41 364.811 279.502 363.72 280.047Z" fill="#16110D"/>
<path d="M388.56 265.854L378.461 271.586C377.369 272.132 375.731 272.132 374.366 271.313L364.813 265.854C363.721 265.036 363.448 264.217 364.54 263.398L374.639 257.666C375.731 257.12 377.369 257.12 378.734 257.939L388.287 263.398C389.379 264.217 389.652 265.309 388.56 265.854Z" fill="#16110D"/>
<path d="M362.629 307.889L352.53 313.621C351.438 314.167 349.8 314.167 348.435 313.348L338.882 307.889C337.79 307.07 337.517 306.251 338.609 305.432L348.708 299.7C349.8 299.154 351.438 299.154 352.803 299.973L362.356 305.432C363.448 306.251 363.721 307.343 362.629 307.889Z" fill="#16110D"/>
<path d="M387.194 293.695L377.095 299.427C376.003 299.973 374.366 299.972 373.001 299.154L363.447 293.695C362.356 292.876 362.083 292.057 363.175 291.238L373.274 285.506C374.366 284.96 376.003 284.96 377.368 285.779L386.921 291.238C388.286 292.057 388.286 293.149 387.194 293.695Z" fill="#16110D"/>
<path d="M409.847 120.099H368.905L337.515 127.468L332.875 124.739C332.875 124.739 313.223 118.734 303.67 134.565H255.63C255.63 134.565 255.63 134.565 255.63 134.292L287.293 118.734V103.176C287.293 102.903 287.293 102.357 287.293 102.084V52.9528H216.598L211.412 54.8633L208.137 52.9528L195.035 60.5954L144.539 78.3372L73.2992 36.8486H30.4459V87.8904C30.7189 92.8036 33.9943 97.7166 40.5451 101.265C46.55 104.54 53.9197 106.724 61.5623 106.997C67.0213 107.816 71.1156 108.908 74.391 109.999L65.3836 118.734L42.4558 114.64L6.42627 120.371V169.503L83.6713 213.994C83.6713 213.994 105.78 220.817 114.515 201.165C115.334 196.798 118.609 192.431 124.614 189.155C125.979 188.336 127.616 187.517 129.254 186.972V235.83C128.981 239.105 131.165 241.562 131.165 241.562L208.41 286.053L285.655 241.562C285.655 241.562 307.764 234.738 316.498 254.39C318.136 262.852 329.054 270.767 349.798 273.224C375.183 271.586 387.192 261.487 386.374 251.388V202.803L357.987 199.8C357.987 199.8 357.987 199.8 357.987 199.527L410.12 169.23L409.847 120.099Z" fill="#36A9E1"/>
<path d="M207.865 289.874L206.227 288.509L128.709 243.472C128.436 243.199 125.434 239.924 125.98 235.283V191.884C121.067 194.614 118.337 198.162 117.518 201.71L117.245 202.529C109.33 219.998 91.042 219.725 82.5805 216.996L82.0346 216.723L3.15186 171.14V169.229V117.369L5.88136 116.823L42.1838 111.091H43.0027L64.2928 114.912L68.1141 111.091C65.9305 110.545 63.474 110.272 61.0174 109.726C52.8289 109.18 45.1863 106.997 38.9084 103.448C31.8117 99.3539 27.7174 93.6219 27.1715 87.344V32.7539H30.4469H74.119L74.9379 33.0268L145.086 73.9694L193.944 56.7735L208.411 48.3121L211.959 50.4957L216.872 48.8581H290.569V52.1333V101.264C290.569 101.537 290.569 102.083 290.569 102.629V120.098L288.385 120.917L269.006 130.47H302.033C313.224 114.639 333.695 120.644 333.968 120.917L334.514 121.19L338.062 123.374L368.906 116.277H413.124V119.552V170.321L411.759 171.413L367.814 196.797L389.377 198.981V201.983L389.104 253.571C387.466 263.67 375.184 273.769 349.526 275.407C328.782 272.951 315.134 265.035 312.951 254.39C305.854 239.105 289.204 242.926 286.475 243.472L207.865 289.874ZM133.076 238.832L208.138 282.231L284.291 238.286C291.115 236.102 310.767 234.191 318.956 252.752L319.229 253.571C320.321 259.849 329.055 267.492 349.799 269.948C373 268.31 383.372 259.303 382.826 251.387L382.553 248.112H382.826V205.532L354.985 202.529L353.893 197.889L406.573 167.319V123.101H369.179L336.971 130.743L331.512 127.468C329.055 126.922 314.043 123.374 306.4 135.929L305.581 137.567H303.671H253.175L251.81 132.654L253.994 131.562L284.018 116.823V55.9547H217.145L210.867 58.1383L207.865 56.5007L196.128 63.5973H195.309L143.721 81.6121L142.357 80.7932L71.9355 39.8506H33.1764V87.89C33.4494 91.7113 36.4519 95.5325 41.6379 98.535C46.824 101.537 53.6477 103.448 61.2904 103.994C66.7494 104.813 71.1166 105.905 74.9379 106.997L79.851 108.634L65.6576 122.282L63.7469 121.736L41.6379 117.642L8.88384 122.828V167.592L84.2182 210.991C86.9478 211.81 103.598 215.631 110.694 200.073C111.786 194.614 115.881 189.974 122.158 186.152C123.796 185.333 125.434 184.514 127.344 183.696L131.712 181.785V235.283C131.985 237.194 132.531 238.286 133.076 238.832Z" fill="#16110D"/>
<path d="M332.876 164.862L409.848 120.371C409.848 120.371 409.848 120.371 409.848 120.098L332.876 75.6074C332.876 75.6074 310.767 68.7837 302.033 88.4361C300.395 97.1705 289.477 104.813 268.733 107.27C231.339 104.813 222.331 83.2499 242.257 71.786C248.262 68.5106 255.631 66.3271 263.274 66.0541C297.12 60.8681 285.383 48.3123 285.383 48.3123L208.138 3.54834L130.893 48.0393C130.893 48.0393 108.784 54.8632 100.049 35.2107C98.4116 26.4763 87.4936 18.8336 66.7493 16.3771C29.3551 18.8336 20.3477 40.3967 40.2731 51.8606C46.2781 55.1361 53.6477 57.3196 61.2903 57.5925C95.1362 62.7786 83.3994 75.3343 83.3994 75.3343L6.1543 120.098C6.1543 120.098 6.1543 120.098 6.1543 120.371L83.1264 164.862C83.1264 164.862 105.235 171.686 113.97 152.034C115.608 143.299 126.526 135.656 147.27 133.2C184.664 135.656 193.671 157.22 173.746 168.684C167.741 171.959 160.371 174.143 152.729 174.416C118.883 179.602 130.62 192.157 130.62 192.157L207.865 236.648L285.11 192.157C285.11 192.157 307.219 185.333 315.953 204.986C317.591 213.72 328.509 221.363 349.253 223.82C386.648 221.363 395.655 199.8 375.73 188.336C369.725 185.061 362.355 182.877 354.712 182.604C320.867 177.418 332.876 164.862 332.876 164.862Z" fill="white"/>
<path d="M208.139 240.47L206.501 239.651L128.437 194.341C126.8 192.703 124.616 188.609 125.981 183.969C128.164 177.691 136.899 173.597 152.184 171.14C160.099 170.594 166.65 168.684 172.109 165.681C178.66 161.86 181.663 156.947 180.571 152.034C178.933 145.483 169.38 137.567 146.998 136.202C126.8 138.659 118.065 146.302 116.973 152.58L116.7 153.398C108.785 170.867 90.4971 170.594 82.0356 167.865L81.4897 167.592L2.87988 122.282V118.461L4.51756 117.369L81.2167 73.1508C81.7626 72.6049 82.5815 70.9672 82.0356 69.6024C81.4897 67.9647 78.2143 63.5976 60.7454 61.141C52.5569 60.5951 44.6413 58.4114 38.6364 54.863C29.629 49.677 25.2618 42.0344 27.1725 34.1188C29.3561 25.1115 40.82 14.7393 66.4774 13.3746C87.4946 15.8311 100.869 23.7466 103.053 34.3917C110.15 49.677 126.799 45.8557 129.529 45.3098L207.866 0L209.504 0.818819L287.568 46.1287C289.205 47.7664 291.389 51.8607 290.024 56.5008C287.84 62.7787 279.106 67.1459 263.821 69.3296C255.905 69.8755 249.354 71.7861 243.895 74.7886C237.345 78.6099 234.342 83.523 235.434 88.4361C237.072 94.9869 246.625 102.902 269.007 104.267C289.205 101.811 297.94 94.168 299.031 87.8902L299.304 87.0714C307.22 69.6025 325.508 69.8753 333.969 72.6048L334.515 72.8779L413.125 118.188V122.009L411.487 123.101L334.788 167.319C334.242 167.865 333.423 169.502 333.969 170.867C334.515 172.505 337.79 176.872 355.259 179.329C363.448 179.875 371.363 182.058 377.368 185.606C386.376 190.793 390.743 198.435 388.832 206.351C386.649 215.358 375.185 225.73 349.527 227.095C328.51 224.638 315.135 216.723 312.952 206.078C305.855 190.793 289.205 194.614 286.476 195.16L208.139 240.47ZM133.077 189.701L208.139 233.1L284.292 189.155C291.116 186.971 310.768 185.061 318.957 203.621L319.23 204.44C320.322 210.718 329.056 218.361 349.8 220.817C371.636 219.452 381.19 211.264 382.827 204.986C383.919 200.073 380.917 195.16 374.366 191.338C369.18 188.336 362.356 186.425 354.713 185.879C338.882 183.423 330.421 179.329 328.237 173.051C326.599 168.684 329.056 164.589 330.694 162.679L331.513 162.133L403.845 120.371L331.785 78.8828C329.329 78.064 312.406 74.2427 305.309 89.8009C303.126 100.719 289.478 108.634 269.28 110.818C242.804 109.18 231.34 99.0811 229.429 90.0737C227.518 82.4311 231.886 74.7886 240.893 69.3296C247.171 65.7812 254.813 63.5975 263.275 63.0515C280.198 60.595 283.473 56.2278 284.292 54.5901C284.838 53.2254 284.019 51.5877 283.473 51.0418L208.139 7.3697L131.713 51.3147C130.621 51.5877 106.874 58.4115 97.0479 36.8483L96.7749 36.0295C95.6831 29.7517 86.9487 22.109 66.2044 19.6525C44.3684 21.0172 34.8151 29.2057 33.1774 35.4836C32.0856 40.3967 35.0881 45.3098 41.6389 49.1311C46.8249 52.1336 53.6487 54.0442 61.2913 54.5901C77.1225 57.0467 85.5839 61.141 87.7675 67.4189C89.4052 71.7861 86.9487 75.8803 85.311 77.791L84.4921 78.3369L12.1602 120.098L84.2192 161.587C86.9487 162.406 103.599 166.227 110.695 150.669C112.879 139.751 126.527 131.835 146.725 129.652C173.201 131.289 184.665 141.388 186.576 150.396C188.486 158.038 184.119 165.681 175.112 171.14C168.834 174.688 161.191 176.872 152.73 177.418C135.807 179.875 132.531 184.242 131.713 185.879C131.713 187.517 132.531 189.155 133.077 189.701Z" fill="#16110D"/>
<path d="M285.383 60.0498V102.903L274.192 105.905L248.808 104.268L233.795 95.2605L230.793 83.2506L238.436 73.6973L255.904 67.1464L275.557 64.144L285.383 55.6826V60.0498Z" fill="#16110D"/>
<path d="M139.628 133.745L134.988 135.929L121.886 140.569L113.152 146.574L108.238 156.946L104.69 163.224L93.772 168.41L83.9458 167.318V216.722L101.142 213.447L112.879 203.621L122.705 189.427L125.98 184.787L139.628 178.236V133.745Z" fill="#16110D"/>
<path d="M208.139 235.011V284.142L273.647 246.202L287.295 239.105V189.974L208.139 235.011Z" fill="#16110D"/>
<path d="M339.428 223.547V272.678L366.177 271.859L385.01 258.485L386.102 247.021V212.629L371.636 222.455L355.259 226.003L339.428 223.547C339.701 223.547 339.428 223.547 339.428 223.547Z" fill="#16110D"/>
<path d="M336.973 175.78L360.446 181.512L376.005 186.698L410.123 167.864V118.733L347.618 154.216L334.243 162.132L330.968 167.591L332.878 172.504L336.973 175.78Z" fill="#16110D"/>
<path d="M319.772 207.442H313.495V257.392H319.772V207.442Z" fill="#16110D"/>
<path d="M65.3853 57.0471H59.1074V89.5282H65.3853V57.0471Z" fill="#16110D"/>
</svg>
