<svg width="16" height="16" viewBox="0 0 16 16" fill="none" xmlns="http://www.w3.org/2000/svg">
<path d="M5.41924 0C7.13135 0 8.84199 0 10.5541 0C10.6785 0.0103141 10.8029 0.0206283 10.9259 0.0309424C11.3924 0.072199 11.8619 0.0869335 12.3225 0.159132C14.2597 0.461189 15.6653 1.92138 15.9067 3.85601C15.9378 4.1065 15.9689 4.35846 16 4.60895C16 6.82059 16 9.03224 16 11.2424C15.9896 11.2984 15.9763 11.3529 15.9689 11.4089C15.9259 11.7419 15.9111 12.0823 15.8371 12.4079C15.4298 14.2261 14.3086 15.3489 12.478 15.7585C11.6945 15.9339 10.8933 15.9295 10.0979 15.9383C8.70573 15.953 7.31204 15.9516 5.91984 15.9383C5.11858 15.9309 4.31288 15.9353 3.52347 15.7556C1.71656 15.343 0.601314 14.235 0.188096 12.4344C0.0177728 11.683 0.0177728 10.9124 0.00888642 10.1462C-0.00444321 8.9792 -4.41393e-10 7.81075 0.00444321 6.64378C0.00740535 5.64331 -0.0148107 4.63989 0.16588 3.64973C0.34657 2.65073 0.793854 1.79171 1.57882 1.12129C2.39341 0.425827 3.36351 0.145871 4.40766 0.0648317C4.74387 0.0383097 5.08155 0.0206283 5.41924 0ZM8.01703 14.5356C8.01703 14.5267 8.01703 14.5164 8.01703 14.5076C8.59613 14.5076 9.17523 14.5194 9.75433 14.5046C10.5556 14.4855 11.3628 14.5164 12.1551 14.3588C13.2867 14.1318 14.0405 13.4776 14.3693 12.3667C14.5249 11.8392 14.5515 11.2925 14.5574 10.7503C14.5723 9.13686 14.5752 7.52196 14.5708 5.90853C14.5693 5.22927 14.5722 4.54706 14.436 3.87812C14.199 2.71409 13.5237 1.95085 12.3521 1.64879C11.6842 1.4764 10.9984 1.47787 10.3171 1.46903C8.99158 1.45282 7.6675 1.45871 6.34194 1.46313C5.54957 1.46461 4.75424 1.45135 3.97075 1.59132C2.76664 1.80645 1.96982 2.47981 1.65287 3.6792C1.50181 4.25237 1.48551 4.83881 1.47959 5.42376C1.46626 7.13149 1.46626 8.83922 1.48107 10.5469C1.48551 11.0479 1.52846 11.5533 1.60548 12.0484C1.72989 12.8529 2.12237 13.5101 2.82292 13.9565C3.35462 14.2954 3.95742 14.4265 4.57651 14.4501C5.72286 14.4914 6.87068 14.5076 8.01703 14.5356Z" fill="#36A9E1"/>
<path d="M12.1417 7.97593C12.1417 10.2274 10.2874 12.0751 8.02427 12.0795C5.75528 12.0839 3.89209 10.2333 3.89209 7.97446C3.89209 5.71861 5.76416 3.85912 8.02576 3.87091C10.2962 3.88269 12.1417 5.72303 12.1417 7.97593ZM5.35391 7.97299C5.35242 9.44349 6.5358 10.6222 8.01243 10.6237C9.49053 10.6252 10.6798 9.44791 10.6828 7.9833C10.6858 6.5128 9.5009 5.32667 8.03168 5.32373C6.5432 5.32078 5.35391 6.49806 5.35391 7.97299Z" fill="#36A9E1"/>
<path d="M12.2819 4.67232C11.7487 4.67085 11.334 4.24355 11.3369 3.70279C11.3399 3.18266 11.7709 2.75684 12.2967 2.75684C12.8269 2.75684 13.2623 3.18856 13.2638 3.71605C13.2638 4.25091 12.8284 4.67379 12.2819 4.67232Z" fill="#36A9E1"/>
</svg>
